<svg xmlns="http://www.w3.org/2000/svg" xmlns:xlink="http://www.w3.org/1999/xlink" width="108" height="108" version="1.1" viewBox="0 0 108 108"><title>Awful</title><desc>Created with Sketch.</desc><defs><circle id="path-1" cx="50" cy="50" r="50"/><mask id="mask-3" width="108" height="108" x="-4" y="-4" maskContentUnits="userSpaceOnUse" maskUnits="objectBoundingBox"><rect width="108" height="108" x="-4" y="-4" fill="#fff"/><use fill="#000" xlink:href="#path-1"/></mask><circle id="path-4" cx="9.5" cy="9.5" r="9.5"/><mask id="mask-5" width="27" height="27" x="-4" y="-4" maskContentUnits="userSpaceOnUse" maskUnits="objectBoundingBox"><rect width="27" height="27" x="-4" y="-4" fill="#fff"/><use fill="#000" xlink:href="#path-4"/></mask><circle id="path-6" cx="9.5" cy="9.5" r="9.5"/><mask id="mask-7" width="27" height="27" x="-4" y="-4" maskContentUnits="userSpaceOnUse" maskUnits="objectBoundingBox"><rect width="27" height="27" x="-4" y="-4" fill="#fff"/><use fill="#000" xlink:href="#path-6"/></mask></defs><g id="Page-1" fill="none" fill-rule="evenodd" stroke="none" stroke-width="1"><g id="Kitsu-Rating"><g id="Awful" transform="translate(4.000000, 4.000000)"><g id="Emoji-Head"><mask id="mask-2" fill="#fff"><use xlink:href="#path-1"/></mask><g id="Background"><use fill="#C64E41" fill-rule="evenodd" xlink:href="#path-1"/><use stroke="#5C1001" stroke-width="8" mask="url(#mask-3)" xlink:href="#path-1"/></g><circle id="Foreground" cx="50" cy="48" r="46" fill="#DA5E51" mask="url(#mask-2)"/></g><g id="sad" transform="translate(16.000000, 47.000000)"><g id="eye"><g id="Oval-2"><use fill="#FFF" fill-rule="evenodd" xlink:href="#path-4"/><use stroke="#5C1001" stroke-width="8" mask="url(#mask-5)" xlink:href="#path-4"/></g><circle id="Oval-3" cx="9" cy="10" r="3" fill="#5C1001"/></g><g id="eye-copy" transform="translate(48.000000, 0.000000)"><g id="Oval-2"><use fill="#FFF" fill-rule="evenodd" xlink:href="#path-6"/><use stroke="#5C1001" stroke-width="8" mask="url(#mask-7)" xlink:href="#path-6"/></g><circle id="Oval-3" cx="9" cy="10" r="3" fill="#5C1001"/></g></g><path id="Path-2-Copy-2" stroke="#5C1001" stroke-linecap="round" stroke-width="4" d="M36,76.3087814 C36,76.3087814 49.3953607,87.5990516 63.6074782,76" transform="translate(49.803739, 78.618212) rotate(180.000000) translate(-49.803739, -78.618212)"/></g></g></g></svg>