<svg xmlns="http://www.w3.org/2000/svg" xmlns:xlink="http://www.w3.org/1999/xlink" width="104" height="104" version="1.1" viewBox="0 0 104 104"><title>Amazing</title><desc>Created with Sketch.</desc><defs><circle id="path-1" cx="50" cy="50" r="50"/><path id="path-3" d="M0.0511326713,1.98841936 C0.0511326713,1.98841936 -0.738796719,19.011484 17.1422306,19.85572 C17.1422306,19.85572 32.455009,19.8012897 33.6468911,1.75765773 C33.6468911,1.75765773 25.7557366,0.647769462 17.1275382,0.647769462 C8.49933982,0.647769462 0.0511326713,1.98841936 0.0511326713,1.98841936 Z"/></defs><g id="Page-1" fill="none" fill-rule="evenodd" stroke="none" stroke-width="1"><g id="Kitsu-Rating" transform="translate(-422.000000, -2.000000)"><g id="Amazing" transform="translate(424.000000, 4.000000)"><g id="Emoji-Head"><mask id="mask-2" fill="#fff"><use xlink:href="#path-1"/></mask><use id="Background" fill="#3E99D7" stroke="#11537F" stroke-width="4" xlink:href="#path-1"/></g><g id="Face" transform="translate(4.000000, 2.000000)"><circle id="Foreground" cx="46" cy="46" r="46" fill="#43ABF1"/><circle id="Combined-Shape" cx="22" cy="56" r="4" fill="#11537F"/><circle id="Oval-Copy" cx="72" cy="56" r="4" fill="#11537F"/></g><g id="Mouth" transform="translate(34.000000, 66.000000)"><mask id="mask-4" fill="#fff"><use xlink:href="#path-3"/></mask><use id="Path-4" fill="#11537F" stroke="#11537F" stroke-linecap="round" stroke-linejoin="round" stroke-width="4" xlink:href="#path-3"/><path id="Rectangle-4" fill="#FFF" d="M3.4,2.02047808 C3.4,0.904598851 4.31287843,0 5.41507729,0 L27.9049227,0 C29.0178192,0 29.92,0.897869406 29.92,2.02047808 L29.92,2.11745295 C29.92,3.23333218 29.0111119,4.0894013 27.9037682,4.03214654 C27.9037682,4.03214654 20.3337164,3.61206383 16.66,3.61206383 C12.9862836,3.61206383 5.41623181,4.03214654 5.41623181,4.03214654 C4.30269773,4.0905697 3.4,3.24006163 3.4,2.11745295 L3.4,2.02047808 Z" mask="url(#mask-4)"/><ellipse id="Oval-10" cx="16.32" cy="18.966" fill="#FFA2A4" mask="url(#mask-4)" rx="7.48" ry="6.552"/></g></g></g></g></svg>