<svg xmlns="http://www.w3.org/2000/svg" xmlns:xlink="http://www.w3.org/1999/xlink" width="84" height="137" version="1.1" viewBox="0 0 84 137"><title>Anime Watched 2</title><desc>Created with Sketch.</desc><g id="Page-1" fill="none" fill-rule="evenodd" stroke="none" stroke-width="1"><g id="Anime-Watched-2"><path id="Fill-1" fill="#FFF" d="M55.5577,98.1959 C55.8347,95.1499 55.8927,91.9119 55.8967,89.8799 C55.8967,89.8799 58.2867,90.8349 59.1877,91.2079 C59.7467,89.1409 61.2667,85.0679 65.1327,83.5759 L45.2047,74.4439 L37.8887,74.4439 L19.2867,85.9439 C18.7447,86.3589 18.2017,86.7689 17.6587,87.1829 C17.6817,87.2439 16.0427,88.3289 16.0537,88.4029 C16.2907,90.0259 16.7257,91.0429 17.6587,92.4349 C18.3627,93.4869 19.2547,94.4259 20.1247,95.3499 C23.6257,94.0309 28.0907,92.2589 28.0907,92.2589 C28.0907,92.2589 27.6407,97.9729 28.0907,101.8059 C28.0907,101.8059 24.4607,107.2569 22.5347,110.9499 C24.9807,111.1919 27.9367,112.1639 30.2167,112.8839 C32.6437,113.6489 34.7507,114.5969 37.0707,115.7129 C38.1167,114.7869 39.9247,112.2029 40.7447,111.0279 C42.3887,111.1839 44.0687,111.0919 45.7007,110.8659 C46.9977,110.6849 48.2067,110.4419 49.3127,109.7819 C49.4837,109.6799 50.2537,113.6279 51.3817,113.9839 C52.0057,113.5219 56.9507,109.8339 57.5017,109.2109 C59.8887,107.5339 62.6197,106.8729 64.3367,106.5549 C59.2487,99.8139 55.5197,98.6189 55.5577,98.1959"/><path id="Fill-3" fill="#D9CFD3" d="M33.7696,113.4752 C31.4906,112.7562 28.5346,111.7852 26.0866,111.5412 C28.0136,107.8492 31.3266,102.3552 31.3266,102.3552 C30.9966,98.8332 30.7036,93.7422 30.7036,92.8612 C30.8096,91.6602 30.0676,91.1692 28.0156,91.9682 C27.9236,93.9802 27.8106,99.4192 28.0906,101.8062 C28.0906,101.8062 24.4606,107.2562 22.5346,110.9502 C24.9806,111.1922 27.9366,112.1632 30.2166,112.8832 C32.6436,113.6492 34.7506,114.5972 37.0706,115.7122 C37.2766,115.5302 37.5136,115.2812 37.7656,114.9932 C36.4716,114.4302 35.1736,113.9182 33.7696,113.4752"/><path id="Fill-5" fill="#FFC3AC" d="M69.2286,83.69 C67.8866,84.057 67.1136,84.212 66.3616,84.615 C66.0486,84.332 65.3896,83.8 65.1326,83.576 C64.5946,83.811 64.2856,84.175 63.7596,84.45 C62.8866,84.905 61.2826,86.434 60.7596,87.223 C59.7066,88.819 59.5536,89.353 59.0876,91.194 C61.2326,92.014 63.8996,92.896 65.2136,92.786 C67.6146,92.586 72.2046,87.997 72.8066,86.794 C74.2186,84.419 73.2476,82.934 69.2286,83.69"/><path id="Fill-7" fill="#ECA28A" d="M66.1183,90.9439 C64.7393,91.0539 61.9403,90.1729 59.6883,89.3519 C59.7383,89.1659 59.7833,89.0009 59.8273,88.8379 C59.5283,89.4919 59.3593,90.1219 59.0883,91.1939 C61.2323,92.0139 63.8993,92.8959 65.2143,92.7859 C67.6143,92.5859 72.3483,87.9649 72.9503,86.7619 C73.0583,86.5799 73.1783,85.8199 73.2473,85.6369 C71.6713,87.3899 68.0423,90.7919 66.1183,90.9439"/><path id="Fill-9" fill="#BD5FC6" d="M35.1427,103.6031 C34.4527,105.4491 36.1717,107.3751 36.5277,109.1971 C37.0987,112.1301 34.5387,114.5691 31.4997,114.0231 C29.9807,113.7491 28.5987,112.7781 27.5747,111.5961 C25.9107,109.6791 25.1197,107.3111 23.9657,105.1441 C23.0397,103.4061 21.7867,101.6971 19.9977,100.7681 C18.8147,100.1541 17.4947,99.9321 16.2057,99.7201 C16.3407,99.7911 16.4757,99.8661 16.6097,99.9431 C20.9717,102.4631 22.2857,107.3191 23.9277,111.4991 C25.7397,116.1081 28.8547,120.1301 34.2117,120.9021 C37.4677,121.3711 40.8867,120.6711 43.1427,118.5691 C46.0137,115.8951 48.1967,111.3141 46.9347,107.1511 C42.4257,106.4851 38.3187,105.4601 35.1427,103.6031"/><path id="Fill-11" fill="#9B48A7" d="M44.2775,106.7877 C44.2785,106.7867 38.0435,105.4277 35.1425,103.6027 C38.8355,106.3157 42.8845,107.6497 44.4465,108.1707 C44.4565,109.6807 44.3115,110.9977 43.8495,112.6117 C43.0115,115.2997 41.3585,117.9467 38.5205,118.9287 C35.7775,119.8767 32.2435,119.0897 29.7075,117.3647 C27.0065,115.5277 25.2855,112.6457 24.1585,109.7787 C22.9445,106.6897 21.3935,102.1127 17.3465,100.0717 C16.2455,99.5687 17.3835,99.9137 16.2055,99.7207 C16.3405,99.7917 16.4755,99.8657 16.6095,99.9427 C20.9715,102.4637 22.2855,107.3187 23.9275,111.4987 C25.7395,116.1077 28.8545,120.1307 34.2125,120.9017 C37.4675,121.3707 40.8865,120.6717 43.1425,118.5687 C45.3365,116.5257 48.0765,111.6257 46.9345,107.1507 C45.5525,107.0037 44.7835,106.3857 44.2775,106.7877"/><path id="Stroke-13" stroke="#641340" stroke-linecap="round" stroke-linejoin="round" d="M46.9347,107.1509 C48.1967,111.3139 46.0137,115.8949 43.1427,118.5689 C40.8867,120.6719 37.4677,121.3709 34.2117,120.9019 C28.8547,120.1309 25.7397,116.1079 23.9277,111.4989 C22.2857,107.3189 20.9717,102.4639 16.6097,99.9429 C16.4757,99.8659 16.3407,99.7919 16.2057,99.7199 C17.4947,99.9319 18.8147,100.1539 19.9977,100.7679 C21.7867,101.6969 23.0397,103.4059 23.9657,105.1439 C25.1197,107.3109 25.9107,109.6789 27.5747,111.5959 C28.5987,112.7769 29.9807,113.7499 31.4997,114.0229 C34.5387,114.5689 37.0987,112.1299 36.5277,109.1969 C36.1717,107.3759 34.4527,105.4489 35.1427,103.6029"/><path id="Fill-15" fill="#D9CFD3" d="M72.6329,129.1187 C72.6329,132.9407 58.2879,136.0387 40.5939,136.0387 C22.8989,136.0387 8.5549,132.9407 8.5549,129.1187 C8.5549,125.2977 22.8989,122.1987 40.5939,122.1987 C58.2879,122.1987 72.6329,125.2977 72.6329,129.1187"/><path id="Fill-17" fill="#BD5FC6" d="M46.6417,75.6802 C46.0937,77.3992 51.4607,83.0092 54.7767,84.0292 C58.0907,85.0482 64.6497,83.9262 65.1627,82.1972 C66.0057,80.0332 47.8227,72.8722 46.6417,75.6802"/><path id="Fill-19" fill="#9B48A7" d="M64.1105,80.732 C61.9655,81.681 58.2085,82.14 56.0155,81.465 C53.6745,80.746 50.2825,77.382 49.0625,75.072 C47.7785,74.964 46.8755,75.125 46.6415,75.68 C46.0935,77.399 51.4615,83.009 54.7765,84.029 C58.0905,85.048 64.6495,83.926 65.1625,82.197 C65.3055,81.829 64.8895,81.315 64.1105,80.732"/><path id="Fill-21" fill="#D9CFD3" d="M54.5929,83.2359 C51.7209,82.3749 47.3209,77.8759 46.8429,75.7139 C46.2499,75.7879 45.8429,75.9789 45.6969,76.3189 C45.1349,78.0379 50.6389,83.6489 54.0379,84.6689 C57.4379,85.6869 64.1629,84.5649 64.6889,82.8359 C64.7909,82.5799 64.6139,82.2539 64.2329,81.8829 C62.5889,83.2519 57.3829,84.0729 54.5929,83.2359"/><path id="Fill-23" fill="#FFF" d="M55.3165,82.5972 C52.5155,81.7362 48.2245,77.2362 47.7595,75.0752 C47.1815,75.1482 46.7845,75.3392 46.6415,75.6802 C46.0935,77.3992 51.4615,83.0092 54.7765,84.0292 C58.0905,85.0482 64.6495,83.9262 65.1625,82.1972 C65.2615,81.9412 65.0875,81.6152 64.7165,81.2432 C63.1145,82.6132 58.0385,83.4342 55.3165,82.5972"/><path id="Fill-25" fill="#FFC3AC" d="M35.0675,120.274 C31.0405,120.05 27.0315,119.635 23.0325,119.084 L24.9025,125.616 C25.9385,127.711 26.8135,129.17 26.8135,129.17 C26.8135,129.17 24.7085,132.852 25.5355,133.378 C26.3625,133.905 29.0435,132.276 29.0435,132.276 C29.0435,132.276 31.0105,135.083 31.6495,134.857 C32.2885,134.631 33.0775,131.349 33.0775,131.349 C33.0775,131.349 36.7735,132.138 37.2245,131.65 C37.6755,131.161 35.1575,127.891 35.1575,127.891 C35.1575,127.891 35.2145,123.849 35.0675,120.274"/><path id="Fill-27" fill="#ECA28A" d="M30.8312,132.0328 C30.8312,132.0328 30.4122,131.3398 28.9382,132.0398 C28.2622,132.3318 27.3512,133.1558 26.9922,132.9278 C26.2482,132.4548 28.3052,128.5388 28.3052,128.5388 C28.3052,128.5388 28.4552,128.8028 28.3052,128.5388 C30.4182,127.8598 32.9962,127.2188 35.0762,125.8048 C34.8082,125.3098 26.9202,126.0198 26.5852,125.3418 L24.9022,119.4648 C28.2832,119.9308 31.6732,120.2828 35.0762,120.4918 C35.0732,120.4198 35.0702,120.3458 35.0672,120.2738 C31.0402,120.0508 27.0312,119.6358 23.0322,119.0838 L24.9022,125.6158 C25.9382,127.7118 26.8132,129.1698 26.8132,129.1698 C26.8132,129.1698 24.7082,132.8518 25.5352,133.3788 C26.3622,133.9048 29.0432,132.2758 29.0432,132.2758 C29.0432,132.2758 31.0112,135.0828 31.6492,134.8568 C31.8932,134.7708 32.1582,134.2398 32.3932,133.6168 C31.6712,133.2738 30.8312,132.0328 30.8312,132.0328"/><path id="Fill-29" fill="#ECA28A" d="M33.9405,130.5006 C33.9405,130.5006 33.0895,130.1926 32.7805,131.3026 C33.8455,131.5016 36.8875,132.0146 37.2245,131.6496 C37.3325,131.5336 37.2685,131.2586 37.1145,130.9106 C36.0515,130.9496 33.9405,130.5006 33.9405,130.5006"/><path id="Fill-31" fill="#FFC3AC" d="M18.173,86.5943 C17.303,87.2543 14.319,89.7273 13.446,90.3853 C12.558,91.0563 11.668,91.7263 10.775,92.3893 C9.524,93.3163 7.943,94.0483 8.113,95.8633 C8.252,97.3423 9.528,98.1953 10.952,98.1253 C12.409,98.0553 18.696,95.8223 22.328,94.4903 C21.537,93.6513 18.694,91.0573 18.173,86.5943"/><path id="Fill-33" fill="#ECA28A" d="M13.2989,96.7222 C11.8749,96.7912 10.5989,95.9392 10.4599,94.4592 C10.2889,92.6452 11.8699,91.9122 13.1199,90.9862 C14.0149,90.3232 14.9039,89.6532 15.7929,88.9822 C16.2409,88.6442 17.2469,87.8262 18.2369,87.0222 C18.2159,86.8792 18.1899,86.7412 18.1729,86.5942 C17.3029,87.2542 14.3189,89.7272 13.4459,90.3852 C12.5579,91.0562 11.6679,91.7262 10.7749,92.3892 C9.5239,93.3162 7.9429,94.0482 8.1129,95.8632 C8.2519,97.3422 9.5279,98.1952 10.9519,98.1252 C12.4089,98.0552 18.6959,95.8222 22.3279,94.4902 C22.2269,94.3822 22.0899,94.2432 21.9299,94.0782 C18.4779,95.3072 14.4319,96.6672 13.2989,96.7222"/><path id="Fill-35" fill="#ECA28A" d="M36.3019,115.4644 C34.3189,114.5124 32.2329,113.5274 30.2169,112.8834 C27.8829,112.1364 25.0009,111.0124 22.5339,110.9494 C22.0379,112.0934 21.6879,113.1784 21.6019,114.0844 L22.4929,117.2014 C26.6389,117.7944 30.7939,118.2334 34.9699,118.4674 C34.9199,117.7484 34.8589,117.0904 34.7809,116.5404 C35.2339,116.2454 35.7529,115.8804 36.3019,115.4644"/><path id="Fill-37" fill="#FF3671" d="M55.5577,98.1959 C55.5617,98.1579 55.5637,98.1199 55.5677,98.0819 C49.6647,101.5309 37.4627,104.2029 28.0337,101.8939 C27.5777,102.5829 23.7207,109.1279 21.9317,112.5559 C24.3777,112.7999 27.3287,113.5729 29.6077,114.2929 C32.0357,115.0579 33.9837,116.1169 36.3017,117.2319 C37.3477,116.3059 39.9247,112.2029 40.7447,111.0279 C42.3887,111.1839 44.0687,111.0919 45.7007,110.8659 C46.9977,110.6849 48.2067,110.4419 49.3127,109.7819 C49.4837,109.6799 50.2537,113.6279 51.3817,113.9839 C52.0057,113.5219 56.9507,109.8339 57.5017,109.2109 C59.8887,107.5339 62.6197,106.8729 64.3367,106.5549 C59.2487,99.8139 55.5197,98.6189 55.5577,98.1959"/><path id="Fill-39" fill="#D9004F" d="M31.2921,102.4879 C30.3011,102.3529 28.9791,102.1259 28.0331,101.8939 C27.5771,102.5829 23.7381,109.0699 21.9481,112.4989 C23.1151,112.6149 24.5091,112.6869 25.7781,113.0279 C27.2391,109.7859 30.2501,104.4029 31.2921,102.4879"/><path id="Fill-41" fill="#D9004F" d="M51.1192,107.9039 C51.1192,107.9039 47.0342,109.8499 40.6572,110.7389 C40.4302,111.0829 48.5132,110.3809 49.3992,109.6129 C50.3622,111.8419 51.3822,113.9839 51.3822,113.9839 L54.2822,111.5879 L51.1192,107.9039 Z"/><path id="Fill-43" fill="#FFF" d="M25.6632,127.1002 C25.6962,127.1012 25.7262,127.0982 25.7612,127.1022 C28.7092,127.4542 32.4742,127.0452 35.1682,125.3862 C35.1602,122.7792 35.0942,118.7722 34.7812,116.5402 C34.7862,116.5372 34.7912,116.5342 34.7952,116.5312 C30.5232,114.9522 26.5952,113.0812 21.9322,112.5562 C21.7642,113.1022 21.6452,113.6182 21.6012,114.0842 L24.9022,125.6162 C25.1732,126.1632 25.4282,126.6552 25.6632,127.1002"/><path id="Fill-45" fill="#D9CFD3" d="M26.9366,125.8179 L23.5996,114.0849 C23.6216,113.8489 23.6966,113.0919 23.7486,112.8359 C23.1536,112.7219 22.5496,112.6269 21.9316,112.5559 C21.7636,113.1019 21.6456,113.6179 21.6016,114.0849 L24.9026,125.6159 C25.1726,126.1629 25.4276,126.6549 25.6636,127.0999 C25.6966,127.1009 25.7266,127.0979 25.7606,127.1019 C26.3466,127.1719 26.9706,127.2019 27.6056,127.2089 C27.3956,126.7839 27.1726,126.3269 26.9366,125.8179"/><path id="Fill-47" fill="#FFF" d="M60.711,119.8355 C62.482,117.1415 65.414,108.2335 65.414,108.2335 C65.414,108.2335 64.332,106.5585 64.337,106.5555 C60.379,106.5555 55.558,110.8385 52.372,113.2705 C52.203,113.8155 51.963,121.6075 51.918,122.0745 C51.918,122.0745 58.018,121.4945 60.711,119.8355"/><path id="Fill-49" fill="#D9CFD3" d="M53.2257,112.607 C52.9317,112.838 52.6437,113.063 52.3717,113.27 C52.2037,113.816 51.9627,121.608 51.9177,122.075 C51.9177,122.075 52.4707,122.021 53.3147,121.903 C53.2887,120.011 53.1647,114.41 53.2257,112.607"/><path id="Fill-51" fill="#D9CFD3" d="M36.2101,76.6236 C35.8651,75.9686 34.4671,75.7186 32.9461,76.1706 C33.3131,76.2056 33.5821,76.3326 33.7131,76.5826 C34.3461,78.0836 30.6911,83.7856 28.1571,85.0846 C25.6241,86.3836 20.2551,86.1006 19.6491,84.5856 C19.5871,84.4596 20.5861,85.2506 20.6491,85.0676 C19.7011,86.0046 18.0841,86.3086 18.3071,86.7596 C19.3091,87.8996 25.9541,88.1056 29.1061,86.4896 C32.9651,84.7416 36.9791,78.4466 36.2101,76.6236"/><path id="Stroke-53" stroke="#641340" stroke-linecap="round" stroke-linejoin="round" d="M55.5577,98.1959 C56.0067,93.2639 55.8797,87.8249 55.8797,87.8249"/><path id="Stroke-55" stroke="#641340" stroke-linecap="round" stroke-linejoin="round" d="M36.3019,117.232 C37.6969,116.039 39.8189,112.781 40.7449,111.028 C42.3889,111.184 46.5079,110.902 49.5659,109.85"/><path id="Stroke-57" stroke="#641340" stroke-linecap="round" stroke-linejoin="round" d="M24.9025,125.6158 C25.9385,127.7118 26.8135,129.1698 26.8135,129.1698 C26.8135,129.1698 24.7085,132.8518 25.5355,133.3788 C26.3625,133.9048 29.0435,132.2758 29.0435,132.2758 C29.0435,132.2758 31.0105,135.0828 31.6495,134.8568 C32.2885,134.6318 33.0775,131.3488 33.0775,131.3488 C33.0775,131.3488 36.7735,132.1378 37.2245,131.6498 C37.6755,131.1608 35.1575,127.8908 35.1575,127.8908 C35.1575,127.8908 35.2705,120.0358 34.7815,116.5408 C35.4125,116.8548 36.3015,117.2318 36.3015,117.2318"/><path id="Stroke-59" stroke="#641340" stroke-linecap="round" stroke-linejoin="round" d="M19.2872,85.9439 C17.3452,87.4299 15.3982,88.9119 13.4462,90.3849 C12.5582,91.0559 11.6682,91.7259 10.7742,92.3889 C9.5232,93.3159 7.9422,94.0479 8.1132,95.8619 C8.2522,97.3419 9.5282,98.1949 10.9522,98.1259 C14.1092,97.9729 28.0912,92.2589 28.0912,92.2589 C28.0912,92.2589 27.6412,97.9729 28.0912,101.8059 C28.0912,101.8059 22.0022,109.8749 21.6012,114.0849"/><path id="Fill-61" fill="#FFC3AC" d="M59.3878,121.8023 C59.3878,121.8023 59.9368,121.0183 60.7108,119.8353 C58.0238,121.1743 54.9778,121.6603 52.0098,122.0713 C51.9788,122.0743 51.9498,122.0733 51.9178,122.0743 C51.9748,123.1353 52.0658,123.9413 52.1708,124.2583 C52.5228,125.3103 54.4598,129.1183 55.1778,129.1183 C55.8968,129.1183 56.3328,125.4103 56.3328,125.4103 C56.3328,125.4103 59.4888,127.6153 59.8388,127.2143 C60.1898,126.8143 58.6668,124.2263 58.6668,124.2263 C58.6668,124.2263 62.7958,124.8593 63.1468,124.2583 C63.4968,123.6563 59.3878,121.8023 59.3878,121.8023"/><path id="Fill-63" fill="#ECA28A" d="M59.5958,120.3336 C59.5578,120.3946 59.5328,120.4346 59.5328,120.4346 C59.5328,120.4346 59.7678,120.5526 60.1138,120.7376 C60.2898,120.4736 60.4908,120.1736 60.7108,119.8356 C60.3458,120.0176 59.9738,120.1816 59.5958,120.3336"/><path id="Fill-65" fill="#ECA28A" d="M55.7423,127.7506 C55.0953,127.7506 53.6313,124.4776 53.5743,123.1556 C53.5213,122.9796 56.0203,122.7546 60.1223,120.3736 C59.8283,120.4166 52.3033,122.0296 52.0103,122.0706 C51.9783,122.0746 51.9493,122.0726 51.9183,122.0746 C51.9743,123.1356 52.0653,123.9406 52.1713,124.2586 C52.5223,125.3106 54.4603,129.1186 55.1783,129.1186 C55.4913,129.1186 55.7503,128.4156 55.9433,127.6216 C55.8793,127.7006 55.8123,127.7506 55.7423,127.7506"/><path id="Fill-67" fill="#ECA28A" d="M57.4737,125.1285 C57.4737,125.1285 56.4507,124.3115 56.0197,125.3925 C56.7477,125.8865 59.5447,127.5505 59.8387,127.2145 C59.9937,127.0375 59.8907,127.1855 59.6077,126.5655 C58.7227,126.2155 57.4737,125.1285 57.4737,125.1285"/><path id="Stroke-69" stroke="#641340" stroke-linecap="round" stroke-linejoin="round" d="M51.3819,113.9839 C50.3929,112.3179 50.0039,111.1279 49.5659,109.8499"/><path id="Stroke-71" stroke="#641340" stroke-linecap="round" stroke-linejoin="round" d="M62.1398,117.5875 C60.7038,119.9235 59.3878,121.8025 59.3878,121.8025 C59.3878,121.8025 63.4968,123.6565 63.1468,124.2585 C62.7958,124.8585 58.6668,124.2265 58.6668,124.2265 C58.6668,124.2265 60.1898,126.8145 59.8388,127.2145 C59.4888,127.6155 56.3328,125.4105 56.3328,125.4105 C56.3328,125.4105 55.8968,129.1185 55.1778,129.1185 C54.9548,129.1185 54.7488,128.8585 54.6188,128.7085 C54.3468,128.3975 54.1188,128.0445 53.8998,127.6935 C53.1858,126.5455 52.4948,125.3215 52.1448,123.9945 C51.7718,122.5845 51.8418,121.0975 51.8568,119.6515 C51.8578,119.5635 51.8588,119.4755 51.8598,119.3855 C51.8708,117.3505 51.9478,115.2675 52.3718,113.2705"/><path id="Fill-73" fill="#BD5FC6" d="M35.9337,76.2984 C36.7037,77.9304 32.1207,84.1974 28.9677,85.6454 C25.8167,87.0914 19.1667,86.8414 18.4317,85.1944 C17.3107,83.1584 34.3947,73.6704 35.9337,76.2984"/><path id="Fill-75" fill="#9B48A7" d="M35.9337,76.2984 C35.6677,75.8434 34.9287,75.7584 33.9067,75.9274 C33.4347,78.0694 30.6377,81.9874 28.5187,82.9604 C26.3217,83.9684 21.9237,83.7384 20.3347,82.6904 C18.9577,83.7754 18.1617,84.7024 18.4317,85.1944 C19.1667,86.8414 25.8167,87.0914 28.9677,85.6454 C32.1207,84.1974 36.7037,77.9304 35.9337,76.2984"/><path id="Fill-77" fill="#FFF" d="M35.9337,76.2984 C35.5897,75.7104 34.4667,75.7324 32.9467,76.1364 C33.3127,76.1674 33.5817,76.2814 33.7127,76.5054 C34.3457,77.8494 30.6917,82.9534 28.1577,84.1154 C25.6237,85.2784 20.2547,85.0264 19.6497,83.6694 C19.5867,83.5564 19.5967,83.4144 19.6607,83.2514 C18.7117,84.0894 18.2087,84.7894 18.4317,85.1944 C19.1667,86.8414 25.8167,87.0914 28.9677,85.6454 C32.1207,84.1974 36.7037,77.9304 35.9337,76.2984"/><path id="Stroke-79" stroke="#641340" stroke-linecap="round" stroke-linejoin="round" stroke-width=".75" d="M32.9464,76.1363 C33.3124,76.1673 33.5824,76.2823 33.7134,76.5053 C34.3454,77.8493 30.6914,82.9533 28.1574,84.1153 C25.6244,85.2793 20.2554,85.0263 19.6494,83.6693 C19.5874,83.5563 19.5964,83.4143 19.6604,83.2513"/><path id="Stroke-81" stroke="#641340" stroke-linecap="round" stroke-linejoin="round" d="M46.6417,75.6802 C46.0937,77.3992 51.4607,83.0092 54.7767,84.0292 C58.0907,85.0482 64.6497,83.9262 65.1627,82.1972 C66.0057,80.0332 47.8227,72.8722 46.6417,75.6802 Z"/><path id="Stroke-83" stroke="#641340" stroke-linecap="round" stroke-linejoin="round" d="M55.8966,89.8795 C55.8966,89.8795 62.8126,92.9865 65.2136,92.7855 C67.6146,92.5855 72.7906,87.6535 73.3926,86.4495 C74.0226,85.1925 73.6616,83.9005 72.2306,83.5395 C70.3496,83.0635 68.4506,83.8925 66.7766,84.6735 C65.2076,85.4055 64.0116,86.3295 62.9976,87.7515"/><path id="Stroke-85" stroke="#641340" stroke-linecap="round" stroke-linejoin="round" d="M64.4601,82.9927 L66.3611,84.6147"/><path id="Stroke-87" stroke="#641340" stroke-linecap="round" stroke-linejoin="round" d="M18.173,86.8531 C18.626,90.0751 20.034,92.4601 22.534,94.4461"/><path id="Stroke-89" stroke="#641340" stroke-linecap="round" stroke-linejoin="round" d="M25.6691,127.1129 C28.9321,127.2419 32.1121,126.7769 35.1681,125.4109"/><path id="Stroke-91" stroke="#641340" stroke-linecap="round" stroke-linejoin="round" d="M21.9483,112.4986 C28.8683,113.2326 34.7813,116.5406 34.7813,116.5406"/><path id="Stroke-93" stroke="#641340" stroke-linecap="round" stroke-linejoin="round" d="M35.9337,76.2984 C36.7037,77.9304 32.1207,84.1974 28.9677,85.6454 C25.8167,87.0914 19.1667,86.8414 18.4317,85.1944 C17.3107,83.1584 34.3947,73.6704 35.9337,76.2984 Z"/><path id="Stroke-95" stroke="#641340" stroke-linecap="round" stroke-linejoin="round" stroke-width=".75" d="M64.7169,81.2437 C63.1139,82.6127 58.0379,83.4337 55.3169,82.5977 C52.5159,81.7357 48.2249,77.2357 47.7599,75.0747"/><path id="Fill-97" fill="#FFF" d="M32.6603,78.0435 C32.2983,78.4525 31.8103,78.6115 31.5713,78.3995 C31.3313,78.1885 31.4313,77.6845 31.7923,77.2755 C32.1543,76.8665 32.6413,76.7075 32.8823,76.9195 C33.1213,77.1315 33.0223,77.6355 32.6603,78.0435"/><path id="Fill-99" fill="#FFF" d="M61.09,79.5963 C61.845,79.9503 62.341,80.4843 62.198,80.7893 C62.056,81.0943 61.327,81.0543 60.571,80.7003 C59.817,80.3463 59.32,79.8123 59.463,79.5063 C59.606,79.2013 60.334,79.2423 61.09,79.5963"/><path id="Fill-101" fill="#BD5FC6" d="M21.6017,114.0845 C23.6307,113.7835 31.4497,116.6655 32.6767,117.9685 C33.3777,119.3465 33.7797,122.4795 33.2037,124.4335 C30.9477,125.2105 27.5837,125.6105 24.9097,125.6105 C22.3027,125.6365 19.3917,114.7195 21.6017,114.0845"/><path id="Fill-103" fill="#9B48A7" d="M26.1251,124.2584 C24.0151,124.2784 21.7061,117.1264 22.0761,114.0664 C21.8961,114.0594 21.7351,114.0654 21.6021,114.0844 C19.3921,114.7194 22.3031,125.6364 24.9091,125.6114 C27.5841,125.6114 30.9471,125.2094 33.2031,124.4334 C33.2981,124.1114 33.3641,123.7554 33.4091,123.3824 C31.2321,123.9594 28.4261,124.2584 26.1251,124.2584"/><path id="Stroke-105" stroke="#641340" stroke-linecap="round" stroke-linejoin="round" stroke-width=".75" d="M21.6017,114.0845 C23.6307,113.7835 31.4497,116.6655 32.6767,117.9685 C33.3777,119.3465 33.7797,122.4795 33.2037,124.4335 C30.9477,125.2105 27.5837,125.6105 24.9097,125.6105 C22.3027,125.6365 19.3917,114.7195 21.6017,114.0845 Z"/><path id="Stroke-107" stroke="#641340" stroke-linecap="round" stroke-linejoin="round" d="M51.3819,113.9839 C51.3819,113.9839 58.9869,106.9939 64.3369,106.5549"/><path id="Stroke-109" stroke="#641340" stroke-linecap="round" stroke-linejoin="round" d="M51.9161,122.0582 C51.9161,122.0582 56.3461,122.0602 60.7751,119.7382"/><path id="Fill-111" fill="#BD5FC6" d="M65.1857,107.9058 C61.0967,108.8788 57.6827,110.8498 55.1087,113.3858 C54.3947,114.7158 54.3837,117.2398 54.9097,119.6298 C55.3407,120.3928 60.2437,118.5198 62.1397,117.5878 C63.9987,116.7158 64.8497,114.4638 65.6267,112.5818 C66.4287,110.2628 66.5317,108.5218 65.1857,107.9058"/><path id="Fill-113" fill="#9B48A7" d="M63.4962,116.2369 C61.5992,117.1699 56.6972,119.0429 56.2652,118.2789 C55.7662,116.0089 55.7582,113.6299 56.3702,112.2569 C55.9322,112.6209 55.5072,112.9939 55.1082,113.3859 C54.3942,114.7159 54.3842,117.2399 54.9092,119.6299 C55.3412,120.3929 60.2432,118.5199 62.1402,117.5879 C62.8922,117.2339 63.4752,116.6499 63.9582,115.9609 C63.8082,116.0589 63.6612,116.1589 63.4962,116.2369"/><path id="Stroke-115" stroke="#641340" stroke-linecap="round" stroke-linejoin="round" stroke-width=".75" d="M65.1857,107.9058 C61.0967,108.8788 57.6827,110.8498 55.1087,113.3858 C54.3947,114.7158 54.3837,117.2398 54.9097,119.6298 C55.3407,120.3928 60.2437,118.5198 62.1397,117.5878 C63.9987,116.7158 64.8497,114.4638 65.6267,112.5818 C66.4287,110.2628 66.5317,108.5218 65.1857,107.9058 Z"/><path id="Fill-117" fill="#FFF" d="M31.5089,118.3423 C32.0769,118.8453 32.2829,119.5393 31.9709,119.8933 C31.6569,120.2463 30.9439,120.1253 30.3749,119.6223 C29.8079,119.1193 29.6009,118.4253 29.9129,118.0713 C30.2269,117.7183 30.9409,117.8393 31.5089,118.3423"/><path id="Fill-119" fill="#FFF" d="M65.0401,109.2095 C65.4211,109.5465 65.4761,110.1055 65.1621,110.4595 C64.8501,110.8135 64.2871,110.8265 63.9071,110.4895 C63.5261,110.1535 63.4721,109.5945 63.7851,109.2395 C64.0981,108.8865 64.6601,108.8725 65.0401,109.2095"/><path id="Stroke-121" stroke="#641340" stroke-linecap="round" stroke-linejoin="round" d="M28.0909,101.8062 C36.5859,103.7102 47.7599,102.2072 55.5579,98.1972 C57.6949,99.1522 63.3649,104.5142 65.1859,107.9042"/><path id="Fill-123" fill="#D9CFD3" d="M47.0987,85.2955 C45.3467,84.9895 42.9927,84.8565 40.6207,84.8555 C38.2507,84.8565 35.8967,84.9895 34.1447,85.2955 C32.5677,85.5705 31.1097,88.0365 31.2387,88.8585 C31.6887,91.7385 33.7177,95.3785 36.2957,97.6395 C36.9577,98.2205 38.7597,98.5265 40.6207,98.5385 C42.4837,98.5265 44.2857,98.2205 44.9477,97.6395 C47.5257,95.3785 49.5547,91.7385 50.0047,88.8585 C50.1337,88.0365 48.6757,85.5705 47.0987,85.2955"/><path id="Fill-125" fill="#FFF" d="M48.3019,85.2955 C46.5499,84.9895 44.1949,84.8565 41.8239,84.8555 C39.4539,84.8565 37.0999,84.9895 35.3469,85.2955 C33.7709,85.5705 32.3129,88.0365 32.4409,88.8585 C32.8919,91.7385 34.9209,95.3785 37.4979,97.6395 C38.1609,98.2205 39.9629,98.5265 41.8239,98.5385 C43.6859,98.5265 45.4889,98.2205 46.1509,97.6395 C48.7289,95.3785 50.7569,91.7385 51.2079,88.8585 C51.3369,88.0365 49.8789,85.5705 48.3019,85.2955"/><path id="Fill-127" fill="#BD5FC6" d="M46.6554,86.9224 C45.3484,86.6934 43.5924,86.5944 41.8244,86.5944 C40.0564,86.5944 38.3004,86.6934 36.9934,86.9224 C35.8174,87.1274 34.7294,88.9674 34.8254,89.5784 C35.1624,91.7284 36.6754,94.4434 38.5974,96.1284 C39.0924,96.5624 40.4364,96.7914 41.8244,96.8004 C43.2134,96.7914 44.5564,96.5624 45.0514,96.1284 C46.9734,94.4434 48.4874,91.7284 48.8234,89.5784 C48.9194,88.9674 47.8324,87.1274 46.6554,86.9224"/><path id="Fill-129" fill="#9B48A7" d="M45.8409,94.8511 C45.3469,95.2851 44.0019,95.5131 42.6129,95.5221 C41.2259,95.5131 39.8809,95.2851 39.3869,94.8511 C37.4639,93.1641 35.9509,90.4501 35.6149,88.3011 C35.5939,88.1671 35.6319,87.9731 35.7129,87.7511 C35.1459,88.3871 34.7679,89.2081 34.8249,89.5791 C35.1619,91.7281 36.6749,94.4431 38.5979,96.1281 C39.0919,96.5621 40.4369,96.7911 41.8239,96.8001 C43.2129,96.7911 44.5569,96.5621 45.0509,96.1281 C46.0799,95.2261 46.9839,94.0291 47.6599,92.7811 C47.1229,93.5491 46.5089,94.2641 45.8409,94.8511"/><path id="Stroke-131" stroke="#641340" stroke-linecap="round" stroke-linejoin="round" stroke-width=".75" d="M46.6554,86.9224 C45.3484,86.6934 43.5924,86.5944 41.8244,86.5944 C40.0564,86.5944 38.3004,86.6934 36.9934,86.9224 C35.8174,87.1274 34.7294,88.9674 34.8254,89.5784 C35.1624,91.7284 36.6754,94.4434 38.5974,96.1284 C39.0924,96.5624 40.4364,96.7914 41.8244,96.8004 C43.2134,96.7914 44.5564,96.5624 45.0514,96.1284 C46.9734,94.4434 48.4874,91.7284 48.8234,89.5784 C48.9194,88.9674 47.8324,87.1274 46.6554,86.9224 Z"/><path id="Stroke-133" stroke="#641340" stroke-linecap="round" stroke-linejoin="round" d="M48.3019,85.2955 C46.5499,84.9895 44.1949,84.8565 41.8239,84.8555 C39.4539,84.8565 37.0999,84.9895 35.3469,85.2955 C33.7709,85.5705 32.3129,88.0365 32.4409,88.8585 C32.8919,91.7385 34.9209,95.3785 37.4979,97.6395 C38.1609,98.2205 39.9629,98.5265 41.8239,98.5385 C43.6859,98.5265 45.4889,98.2205 46.1509,97.6395 C48.7289,95.3785 50.7569,91.7385 51.2079,88.8585 C51.3369,88.0365 49.8789,85.5705 48.3019,85.2955 Z"/><path id="Stroke-135" stroke="#641340" stroke-linecap="round" stroke-linejoin="round" d="M65.214,83.6461 C62.771,84.7671 59.523,87.4311 59.188,91.2081"/><path id="Fill-137" fill="#FFF" d="M47.0646,88.1353 C47.6696,88.6203 47.9556,89.2733 47.6996,89.5903 C47.4446,89.9083 46.7476,89.7723 46.1406,89.2853 C45.5356,88.7993 45.2506,88.1483 45.5056,87.8293 C45.7606,87.5123 46.4586,87.6493 47.0646,88.1353"/><path id="Fill-139" fill="#FFC3AC" d="M72.7784,56.5377 C73.5254,65.3837 59.3974,80.8187 42.2544,80.8187 C26.5174,80.1677 10.6944,68.6607 10.6944,56.5377 C10.6944,44.4157 24.5924,34.5877 41.7364,34.5877 C58.8804,34.5877 72.7784,44.4157 72.7784,56.5377"/><path id="Fill-141" fill="#ECA28A" d="M44.1964,79.3697 C40.0854,79.3507 35.9954,78.2727 32.2354,76.6477 C23.1034,72.7007 15.5454,62.0247 16.7644,51.7237 C17.0054,49.6897 17.7314,47.7237 19.0834,46.1637 C19.8174,45.3157 20.7064,44.6167 21.6764,44.0597 C22.4674,43.6057 24.3284,42.4867 25.2594,42.6557 C16.0444,40.9767 10.6944,49.2557 10.6944,56.5377 C10.6944,68.6607 26.5174,80.1667 42.2544,80.8187 C49.1404,80.8187 55.5384,78.3257 60.6824,74.7717 C59.8094,75.3757 58.6954,75.7907 57.7314,76.2267 C56.6594,76.7127 55.5664,77.1547 54.4544,77.5397 C51.9684,78.3987 49.3954,78.9517 46.7824,79.2367 C45.9214,79.3317 45.0584,79.3737 44.1964,79.3697"/><path id="Fill-143" fill="#FFF" d="M6.1241,53.1246 L1.1031,55.9176 C-1.0209,57.8916 2.8891,68.0396 6.1651,67.8366 L11.0991,66.6446 L6.1241,53.1246 Z"/><path id="Fill-145" fill="#D9CFD3" d="M2.5353,64.6216 C3.5963,66.5066 4.9263,67.9126 6.1653,67.8366 L11.0983,66.6436 L5.9273,53.2336 C5.7113,54.2846 7.1603,56.8966 7.9813,62.9836 C6.3613,63.4366 4.1603,64.1836 2.5353,64.6216"/><path id="Stroke-147" stroke="#641340" stroke-linecap="round" stroke-linejoin="round" d="M6.1241,53.1246 L1.1031,55.9176 C-1.0209,57.8916 2.8891,68.0396 6.1651,67.8366 L11.0991,66.6446"/><path id="Fill-149" fill="#FF3671" d="M65.3898,64.1304 C65.3898,64.1304 70.2728,51.9234 66.5618,46.4254 C62.8508,40.9274 54.8388,43.4974 54.8388,43.4974 L48.8738,47.6084 L44.1018,51.3284 L41.1518,51.9014 L38.6888,51.1194 L30.9768,44.9134 C30.9768,44.9134 26.3678,41.4504 21.1558,43.1254 C18.6508,43.5834 16.2468,47.0104 16.2468,47.0104 C16.2468,47.0104 18.9758,58.5684 37.6188,62.0264 C37.6188,62.0264 34.2198,59.8454 33.2498,56.1624 C33.2498,56.1624 38.5208,62.4764 50.4728,64.1304 C50.4728,64.1304 46.1128,61.9504 44.5348,58.3424 C44.5348,58.3424 54.0968,64.3304 65.3898,64.1304"/><path id="Fill-151" fill="#D9004F" d="M31.7179,51.5767 C31.7659,53.1007 32.3599,55.0977 32.9199,56.1997 C34.1739,58.0017 39.4229,62.2887 49.5199,63.9857 C38.1969,60.0247 31.7179,51.5767 31.7179,51.5767"/><path id="Fill-153" fill="#D9004F" d="M20.6788,43.2486 C18.3538,44.0076 16.2468,47.0106 16.2468,47.0106 C16.2468,47.0106 18.9758,58.5676 37.6178,62.0256 C37.6178,62.0256 23.7108,58.4246 21.0528,45.8786 C20.9648,45.4636 25.0648,41.1276 36.8868,49.8806 C26.5688,39.3236 20.7138,43.7106 20.6788,43.2486"/><path id="Fill-155" fill="#FFF" d="M77.2169,53.1246 L82.2369,55.9176 C84.3609,57.8916 80.4509,68.0396 77.1749,67.8366 L72.2409,66.6446 L77.2169,53.1246 Z"/><path id="Fill-157" fill="#D9CFD3" d="M80.8048,64.6216 C79.7448,66.5066 78.4148,67.9126 77.1748,67.8366 L72.2418,66.6436 L77.4128,53.2336 C77.6288,54.2846 76.1808,56.8966 75.3588,62.9836 C76.9798,63.4366 79.1798,64.1836 80.8048,64.6216"/><path id="Stroke-159" stroke="#641340" stroke-linecap="round" stroke-linejoin="round" d="M77.2169,53.1246 L82.2369,55.9176 C84.3609,57.8916 80.4509,68.0396 77.1749,67.8366 L72.2409,66.6446"/><path id="Fill-161" fill="#FFF" d="M68.4474,11.856 C68.4474,11.856 78.2864,18.326 79.1884,35.866 C80.0914,53.406 69.8674,71.046 69.8674,71.046 C68.1764,70.77 64.6834,70.344 64.6014,68.031 C64.5474,66.514 65.2554,64.627 65.6844,63.173 C66.1844,61.481 66.7744,59.818 67.2694,58.126 C68.5164,53.86 69.1724,49.043 65.8434,45.571 C63.3254,42.944 59.3954,41.928 55.9354,43.083 C49.0194,45.387 46.6144,51.903 41.6024,51.903 C36.5914,51.903 34.1854,45.387 27.2694,43.083 C23.8084,41.928 19.8804,42.944 17.3614,45.571 C14.0334,49.043 14.6874,53.86 15.9354,58.126 C16.4304,59.818 17.0204,61.481 17.5204,63.173 C17.9504,64.627 18.6574,66.514 18.6034,68.031 C18.5214,70.344 15.0294,70.77 13.3384,71.046 C13.3384,71.046 3.1144,53.406 4.0164,35.866 C4.9184,18.326 14.7584,11.856 14.7584,11.856"/><path id="Fill-163" fill="#D9CFD3" d="M69.3468,12.5562 C68.7878,12.0802 68.4478,11.8562 68.4478,11.8562 L44.7298,11.8562 L69.3468,12.5562 Z"/><path id="Fill-165" fill="#D9CFD3" d="M15.214,70.23 C15.214,70.23 5.496,52.306 6.897,34.799 C8.024,20.713 14.726,13.959 17.304,11.856 L14.758,11.856 C14.758,11.856 4.918,18.326 4.017,35.866 C3.114,53.406 13.338,71.046 13.338,71.046 C14.42,70.869 16.236,70.628 17.428,69.875 C16.616,70.057 15.806,70.151 15.214,70.23"/><path id="Fill-167" fill="#D9CFD3" d="M66.5421,68.6744 C66.5311,67.1564 67.2921,65.2914 67.7641,63.8494 C68.3121,62.1724 68.9481,60.5274 69.4911,58.8484 C70.8591,54.6194 71.6501,49.8234 68.4221,46.2584 C66.7531,44.4144 64.4031,43.3064 61.9691,43.1254 C63.4211,43.6144 64.7631,44.4434 65.8431,45.5704 C69.1721,49.0424 68.5171,53.8604 67.2701,58.1254 C66.7741,59.8184 66.1851,61.4814 65.6851,63.1734 C65.2551,64.6274 64.5471,66.5144 64.6021,68.0304 C64.6571,69.6074 66.2971,70.3064 67.8711,70.6794 C67.1041,70.2254 66.5491,69.5924 66.5421,68.6744"/><path id="Fill-169" fill="#D9CFD3" d="M29.9357,42.6744 C27.8787,41.9224 25.6327,41.9524 23.6047,42.6454 C24.8317,42.5504 26.0787,42.6854 27.2697,43.0824 C34.1857,45.3874 36.5907,51.9024 41.6027,51.9024 C42.0537,51.9024 42.4827,51.8484 42.8967,51.7504 C38.6327,50.7574 36.2527,44.9814 29.9357,42.6744"/><path id="Fill-171" fill="#D9CFD3" d="M42.8907,35.8492 C26.5357,35.8492 13.2777,27.2362 13.2777,16.6122 C13.2777,15.1462 13.5347,13.7202 14.0127,12.3502 C13.8807,12.4692 13.7427,12.5792 13.6137,12.7032 C13.4057,12.9022 13.1657,13.1192 12.9137,13.3462 C12.1837,14.0532 11.4507,14.7362 10.8967,15.6422 C10.6127,16.1072 10.3207,16.5472 9.9907,16.9452 C9.8207,17.7602 9.7297,18.5902 9.7297,19.4352 C9.7297,30.0592 23.3747,38.6722 40.2077,38.6722 C53.6367,38.6722 65.0287,33.1882 69.0897,25.5772 C64.1277,31.6842 54.2597,35.8492 42.8907,35.8492"/><path id="Stroke-173" stroke="#641340" stroke-linecap="round" stroke-linejoin="round" d="M68.4474,11.856 C68.4474,11.856 78.2864,18.326 79.1884,35.866 C80.0914,53.406 69.8674,71.046 69.8674,71.046 C68.1764,70.77 64.6834,70.344 64.6014,68.031 C64.5474,66.514 65.2554,64.627 65.6844,63.173 C66.1844,61.481 66.7744,59.818 67.2694,58.126 C68.5164,53.86 69.1724,49.043 65.8434,45.571 C63.3254,42.944 59.3954,41.928 55.9354,43.083 C49.0194,45.387 46.6144,51.903 41.6024,51.903 C36.5914,51.903 34.1854,45.387 27.2694,43.083 C23.8084,41.928 19.8804,42.944 17.3614,45.571 C14.0334,49.043 14.6874,53.86 15.9354,58.126 C16.4304,59.818 17.0204,61.481 17.5204,63.173 C17.9504,64.627 18.6574,66.514 18.6034,68.031 C18.5214,70.344 15.0294,70.77 13.3384,71.046 C13.3384,71.046 3.1144,53.406 4.0164,35.866 C4.9184,18.326 14.7584,11.856 14.7584,11.856"/><path id="Fill-175" fill="#BD5FC6" d="M70.6095,18.7984 C70.6095,28.9034 57.6225,37.0964 41.6025,37.0964 C25.5825,37.0964 12.5955,28.9034 12.5955,18.7984 C12.5955,8.6934 25.5825,0.5004 41.6025,0.5004 C57.6225,0.5004 70.6095,8.6934 70.6095,18.7984"/><path id="Fill-177" fill="#9B48A7" d="M44.1554,34.4107 C28.5904,34.4107 15.9724,26.2197 15.9724,16.1127 C15.9724,12.5437 17.5514,9.2157 20.2744,6.4007 C15.5094,9.6607 12.5954,14.0147 12.5954,18.7987 C12.5954,28.9037 25.5824,37.0967 41.6024,37.0967 C54.3834,37.0967 65.2244,31.8807 69.0904,24.6407 C64.3674,30.4497 54.9754,34.4107 44.1554,34.4107"/><path id="Fill-179" fill="#F39CFF" d="M41.6026,0.5006 C34.9306,0.5006 28.7896,1.9246 23.8886,4.3136 C28.4876,2.3806 34.0086,1.2516 39.9486,1.2516 C55.9686,1.2516 68.9556,9.4436 68.9556,19.5506 C68.9556,25.4466 64.5286,30.6886 57.6626,34.0356 C65.4656,30.7566 70.6096,25.1566 70.6096,18.7986 C70.6096,8.6926 57.6226,0.5006 41.6026,0.5006"/><path id="Stroke-181" stroke="#641340" stroke-linecap="round" stroke-linejoin="round" d="M70.6095,18.7984 C70.6095,28.9034 57.6225,37.0964 41.6025,37.0964 C25.5825,37.0964 12.5955,28.9034 12.5955,18.7984 C12.5955,8.6934 25.5825,0.5004 41.6025,0.5004 C57.6225,0.5004 70.6095,8.6934 70.6095,18.7984 Z"/><path id="Fill-183" fill="#F39CFF" d="M64.2648,19.6714 C62.2148,22.7354 56.8268,22.7264 52.2288,19.6504 C47.6308,16.5734 45.5658,11.5964 47.6158,8.5314 C49.6658,5.4674 55.0548,5.4774 59.6528,8.5534 C64.2498,11.6294 66.3158,16.6074 64.2648,19.6714"/><path id="Fill-185" fill="#FFF" d="M61.1437,15.1529 C60.1197,16.6839 57.5837,16.7859 55.4817,15.3799 C53.3797,13.9719 52.5057,11.5909 53.5307,10.0599 C54.5547,8.5279 57.0897,8.4269 59.1927,9.8339 C61.2937,11.2399 62.1677,13.6219 61.1437,15.1529"/><path id="Fill-187" fill="#FFF" d="M49.5411,15.8472 C49.0491,16.5822 47.9371,16.7032 47.0601,16.1162 C46.1821,15.5292 45.8691,14.4552 46.3611,13.7202 C46.8531,12.9842 47.9651,12.8642 48.8431,13.4512 C49.7211,14.0382 50.0331,15.1122 49.5411,15.8472"/><path id="Fill-189" fill="#D9CFD3" d="M12.2657,38.0445 C12.8077,39.0435 12.7297,40.1345 12.0897,40.4825 C11.4507,40.8285 10.4927,40.3005 9.9507,39.3015 C9.4077,38.3025 9.4867,37.2115 10.1247,36.8635 C10.7647,36.5175 11.7227,37.0455 12.2657,38.0445"/><path id="Fill-191" fill="#D9CFD3" d="M16.0294,38.5064 C16.3494,39.0954 16.2944,39.7444 15.9044,39.9564 C15.5144,40.1684 14.9384,39.8614 14.6194,39.2724 C14.2994,38.6834 14.3554,38.0334 14.7454,37.8214 C15.1334,37.6104 15.7104,37.9164 16.0294,38.5064"/><path id="Fill-193" fill="#D9CFD3" d="M15.3878,33.9595 C15.6048,34.3585 15.5538,34.8065 15.2748,34.9575 C14.9938,35.1095 14.5918,34.9085 14.3748,34.5095 C14.1578,34.1095 14.2078,33.6625 14.4888,33.5115 C14.7678,33.3585 15.1708,33.5605 15.3878,33.9595"/><path id="Stroke-195" stroke="#641340" stroke-linecap="round" stroke-linejoin="round" d="M16.88,70.23 C33.737,84.016 50.237,84.679 66.325,70.23"/><path id="Stroke-197" stroke="#641340" stroke-linecap="round" stroke-linejoin="round" d="M16.2472,47.0103 C16.2472,47.0103 18.9762,58.5683 37.6182,62.0263 C37.6182,62.0263 34.2202,59.8453 33.2502,56.1623 C33.2502,56.1623 38.5202,62.4763 50.4732,64.1303 C50.4732,64.1303 46.1122,61.9503 44.5342,58.3423 C44.5342,58.3423 54.0972,64.3303 65.3902,64.1303"/><path id="Fill-199" fill="#FFF" d="M27.8653,65.357 L25.5263,65.357 C25.5873,68.307 27.7323,70.679 30.3773,70.679 C32.7323,70.679 34.6833,68.794 35.1253,66.296 C32.7053,66.046 30.2723,65.741 27.8653,65.357"/><path id="Stroke-201" stroke="#641340" stroke-linecap="round" stroke-linejoin="round" d="M25.5265,65.357 C25.5875,68.307 27.7325,70.679 30.3775,70.679 C32.7325,70.679 34.6745,68.842 35.1165,66.345"/><path id="Fill-203" fill="#641340" d="M27.7169,65.3336 L27.1899,65.3336 C27.1899,65.3456 27.1869,65.3566 27.1869,65.3686 C27.1869,67.3466 28.6139,68.9486 30.3769,68.9486 C31.9069,68.9486 33.1649,67.7316 33.4749,66.1186 C31.5509,65.8996 29.6249,65.6406 27.7169,65.3336"/><g id="Group-208" transform="translate(24.000000, 64.039000)"><path id="Fill-205" fill="#641340" d="M0.2999,0.9596 L12.4539,2.4426"/><path id="Stroke-207" stroke="#641340" stroke-linecap="round" stroke-linejoin="round" d="M0.2999,0.9596 L12.4539,2.4426"/></g><path id="Fill-209" fill="#FFF" d="M33.6671,67.9107 C33.6671,68.4807 33.2551,68.9427 32.7471,68.9427 C32.2381,68.9427 31.8261,68.4807 31.8261,67.9107 C31.8261,67.3407 32.2381,66.8777 32.7471,66.8777 C33.2551,66.8777 33.6671,67.3407 33.6671,67.9107"/><path id="Fill-211" fill="#FFF" d="M56.3351,65.357 L58.6741,65.357 C58.6131,68.307 56.4681,70.679 53.8231,70.679 C51.4681,70.679 49.5171,68.794 49.0751,66.296 C51.4951,66.046 53.9281,65.741 56.3351,65.357"/><path id="Stroke-213" stroke="#641340" stroke-linecap="round" stroke-linejoin="round" d="M58.6739,65.357 C58.6129,68.307 56.4679,70.679 53.8229,70.679 C51.4679,70.679 49.5269,68.842 49.0839,66.345"/><path id="Fill-215" fill="#641340" d="M56.4835,65.3336 L57.0105,65.3336 C57.0105,65.3456 57.0135,65.3566 57.0135,65.3686 C57.0135,67.3466 55.5865,68.9486 53.8235,68.9486 C52.2935,68.9486 51.0355,67.7316 50.7255,66.1186 C52.6495,65.8996 54.5755,65.6406 56.4835,65.3336"/><g id="Group-220" transform="translate(47.000000, 64.039000)"><path id="Fill-217" fill="#641340" d="M12.9005,0.9596 L0.7465,2.4426"/><path id="Stroke-219" stroke="#641340" stroke-linecap="round" stroke-linejoin="round" d="M12.9005,0.9596 L0.7465,2.4426"/></g><path id="Fill-221" fill="#FFF" d="M55.1739,67.3375 C55.1739,67.9075 55.5859,68.3695 56.0939,68.3695 C56.6019,68.3695 57.0139,67.9075 57.0139,67.3375 C57.0139,66.7675 56.6019,66.3055 56.0939,66.3055 C55.5859,66.3055 55.1739,66.7675 55.1739,67.3375"/><path id="Fill-223" fill="#641340" d="M42.3312,75.9029 C40.9582,75.9029 39.4572,73.0279 39.4572,73.0279 C41.3102,73.6419 43.2242,73.6639 45.2052,73.0279 C45.2052,73.0279 43.7042,75.9029 42.3312,75.9029"/><path id="Stroke-225" stroke="#641340" stroke-linecap="round" stroke-linejoin="round" d="M42.3312,75.9029 C40.9582,75.9029 39.4572,73.0279 39.4572,73.0279 C41.3102,73.6419 43.2242,73.6639 45.2052,73.0279 C45.2052,73.0279 43.7042,75.9029 42.3312,75.9029 Z"/><polygon id="Fill-227" fill="#ECA28A" points="42.331 66.305 44.893 68.943 42.101 70.423 43.31 68.673"/></g></g></svg>