<svg xmlns="http://www.w3.org/2000/svg" xmlns:xlink="http://www.w3.org/1999/xlink" width="114" height="139" version="1.1" viewBox="0 0 114 139"><title>Likes Received 8</title><desc>Created with Sketch.</desc><g id="Page-1" fill="none" fill-rule="evenodd" stroke="none" stroke-width="1"><g id="Likes-Received-8"><path id="Fill-1" fill="#FFC730" d="M56.6408,0.4994 C42.7948,0.4994 30.7508,5.7754 24.5768,13.6774 L88.3358,13.2554 C82.0588,5.6054 70.2158,0.4994 56.6408,0.4994"/><path id="Fill-3" fill="#F1AA00" d="M60.0187,0.6195 C58.9047,0.5485 57.7817,0.4995 56.6407,0.4995 C42.7947,0.4995 30.7507,5.7755 24.5767,13.6775 L36.9297,13.5955 C41.5147,6.3915 50.0467,1.3995 60.0187,0.6195"/><path id="Fill-5" fill="#F1AA00" d="M56.9621,8.3324 C25.7791,8.3324 0.5001,21.5484 0.5001,37.8504 C0.5001,47.5324 9.0751,54.4894 23.4621,59.7944 L89.2881,59.4864 C104.5281,54.3164 113.4251,47.8904 113.4251,37.8504 C113.4251,21.5484 88.1461,8.3324 56.9621,8.3324"/><path id="Fill-7" fill="#FFCF60" d="M56.9621,11.644 C87.6411,11.644 114.0271,24.869 112.5691,42.278 C112.5781,42.051 113.4251,38.081 113.4251,37.85 C113.4251,21.548 88.1461,8.332 56.9621,8.332 C25.7791,8.332 0.5001,21.548 0.5001,37.85 C0.5001,38.081 1.7831,42.342 1.7921,42.569 C-0.0559,23.819 26.2821,11.644 56.9621,11.644"/><path id="Fill-9" fill="#D9CFD3" d="M24.1125,134.3168 C24.1125,136.5008 35.2925,138.2708 49.0835,138.2708 C62.8745,138.2708 74.0535,136.5008 74.0535,134.3168 C74.0535,132.1318 62.8745,130.3618 49.0835,130.3618 C35.2925,130.3618 24.1125,132.1318 24.1125,134.3168"/><path id="Fill-11" fill="#FFC3AC" d="M88.2609,56.7817 C87.4939,55.3037 84.3769,56.4537 84.3769,56.4537 L82.6439,64.9477 C82.6439,64.9477 84.0469,65.0457 84.9779,64.4977 C85.9069,63.9507 89.0269,58.2597 88.2609,56.7817"/><path id="Fill-13" fill="#FFC3AC" d="M29.4201,54.6723 L29.7271,56.4563 L29.7261,56.4533 C29.7261,56.4533 26.6071,55.3043 25.8421,56.7813 C25.0751,58.2593 28.1941,63.9503 29.1251,64.4973 C30.0561,65.0453 31.4591,64.9473 31.4591,64.9473 L31.4571,64.9433 C32.4031,68.1833 34.0171,72.1683 36.5491,74.0783 C40.0811,76.7423 44.6061,78.2223 48.7371,79.5603 C53.0581,80.9593 56.7341,81.9983 61.2241,80.7853 C63.1891,80.2553 65.1351,79.6513 67.0601,78.9843 C70.6281,77.7483 74.4641,76.3903 77.5291,74.0783 C82.1861,70.5663 84.5051,55.0373 84.5051,55.0373 C73.8191,17.0683 32.8721,20.1933 29.4201,54.6723"/><path id="Fill-15" fill="#ECA28A" d="M52.6105,79.56 C48.4785,78.222 43.9545,76.743 40.4225,74.079 C37.1075,71.579 35.5505,66.507 34.6255,62.649 C32.3715,53.261 31.6645,43.018 38.1105,35.694 C42.1825,31.068 50.6435,28.228 56.7875,27.739 C51.9025,27.411 46.9255,28.602 42.7185,31.107 C34.4635,36.022 30.3465,45.418 29.4205,54.672 C29.4205,54.672 29.7265,56.456 29.7255,56.454 C29.7255,56.454 26.6075,55.304 25.8415,56.782 C25.0755,58.259 28.1945,63.951 29.1255,64.497 C30.0555,65.045 31.4595,64.948 31.4575,64.943 C32.4035,68.183 34.0165,72.168 36.5485,74.079 C40.0815,76.743 44.6055,78.222 48.7375,79.56 C52.3655,80.735 55.5445,81.638 59.1275,81.185 C56.9925,80.925 54.8895,80.298 52.6105,79.56"/><path id="Fill-17" fill="#FFCA00" d="M49.4855,107.3608 L43.9585,107.9518 C43.5485,109.1498 43.1375,109.8818 42.4715,110.5998 C42.7335,110.7348 42.9945,110.8708 43.2525,111.0138 L43.4855,110.5688 L51.7775,112.8308 L61.9855,112.6938 L62.4855,107.7128 L49.4855,107.3608 Z"/><path id="Fill-19" fill="#F1AA00" d="M55.6945,107.5287 L49.4855,107.3607 L43.9585,107.9517 C43.5485,109.1497 43.1375,109.8817 42.4715,110.5997 C42.7335,110.7347 42.9945,110.8707 43.2525,111.0137 L43.4855,110.5687 L51.7775,112.8307 L55.6945,112.7777 L55.6945,107.5287 Z"/><path id="Fill-21" fill="#FFCA00" d="M41.715,111.3295 C41.529,111.4925 41.331,111.6605 41.111,111.8405 C39.687,113.0035 37.587,114.2275 35.778,114.5685 C35.454,114.6305 35.216,114.8055 35.156,114.5565 L32.873,114.8335 L33.09,116.2745 L34.486,118.3605 L36.148,120.0345 L40.286,116.6595 L42.787,111.8985 C42.435,111.6995 42.073,111.5175 41.715,111.3295"/><path id="Fill-23" fill="#F1AA00" d="M42.1516,111.5619 C41.5306,113.2069 40.8906,114.6749 39.5006,115.9039 C38.1236,117.1219 36.4516,118.0839 34.6636,118.5399 L36.1476,120.0349 L40.2866,116.6599 L42.7876,111.8989 C42.5786,111.7819 42.3646,111.6719 42.1516,111.5619"/><path id="Fill-25" fill="#F1AA00" d="M35.298,114.0902 C35.351,114.0502 35.416,114.0192 35.499,114.0032 C37.131,113.6952 38.987,112.8662 40.299,111.8192 C41.605,110.7772 42.304,109.5472 42.855,108.0692 L37.069,109.0282 L33.847,109.0682 L34.313,113.3632 L35.298,114.0902 Z"/><path id="Fill-27" fill="#10B7E5" d="M73.6242,119.394 L73.5902,119.26 C73.3412,119.345 73.0402,119.266 72.9612,118.939 C72.9302,118.811 72.9002,118.683 72.8752,118.554 C72.8352,118.36 72.9062,118.206 73.0192,118.097 C72.9142,118.016 72.8402,117.895 72.8352,117.725 C72.8242,117.366 72.6892,117.026 72.6782,116.663 C72.6742,116.5 72.7332,116.379 72.8262,116.299 L71.3192,110.444 L61.1452,112.908 L52.2572,112.444 L43.0072,110.131 L41.5652,118.264 L40.7302,119.394 L39.7812,125.093 C43.6802,125.801 43.8572,127.104 53.0342,126.969 C53.0342,126.969 54.0132,123.236 54.3182,122.069 C52.3602,121.944 54.3182,117.528 54.3182,117.528 L59.4802,117.416 C59.7512,117.088 62.0632,119.864 60.3432,122.611 C59.8822,123.345 60.6372,125.138 61.3202,126.969 C65.1552,128.203 74.5732,125.093 74.5732,125.093 L73.6242,119.394 Z"/><path id="Fill-29" fill="#008DBB" d="M53.0695,121.3656 C53.0695,121.3656 53.1745,121.1726 53.2105,120.7406 C46.6155,120.1936 43.6185,118.7526 43.6375,118.5066 C43.7045,117.7166 43.7805,116.8236 43.8185,116.4666 C43.8565,116.1096 43.8975,115.7536 43.9445,115.3986 C43.9785,115.1366 43.9625,114.7136 44.1365,114.5006 C44.2625,114.3446 44.4845,114.3066 44.6835,114.3206 C47.1775,114.4886 51.6855,114.6636 54.1945,114.5536 C54.8725,114.5236 53.5245,114.6626 54.1945,114.5536 C54.1805,115.0666 54.3755,113.5366 54.4135,113.5376 C54.5645,113.0746 54.6795,113.0386 54.8385,112.5786 L52.2575,112.4436 L43.0065,110.1316 L41.5655,118.2636 L40.7305,119.3936 L39.7815,125.0936 C40.6025,125.2426 41.2565,125.4186 41.8675,125.6016 C42.0475,123.7386 42.7125,120.6926 42.7125,120.6926 L53.0695,121.3656 Z"/><path id="Fill-31" fill="#008DBB" d="M62.215,118.0902 C63.507,117.5692 64.173,116.5282 64.173,116.5282 C64.173,116.5282 60.444,117.2432 59.444,117.3802 C59.449,117.3922 59.449,117.4052 59.453,117.4172 L59.481,117.4162 C59.751,117.0882 62.064,119.8632 60.343,122.6112 C59.882,123.3452 60.637,125.1382 61.32,126.9692 C61.94,127.1682 62.714,127.2452 63.562,127.2492 C63.34,126.5692 62.78,124.0662 62.632,122.0902 C62.599,121.6562 73.275,119.9742 73.215,119.5792 C73.164,119.4022 72.903,118.9792 72.855,118.8192 C68.205,120.1572 62.873,120.2972 62.822,120.1392 C62.345,118.6572 62.045,118.1062 62.215,118.0902"/><path id="Fill-33" fill="#FFC3AC" d="M67.757,86.5063 L65.265,83.3963 L61.414,82.0093 L60.666,80.8133 C58.887,81.3173 56.925,80.9973 55.111,80.9233 C55.01,80.9193 54.93,80.8853 54.861,80.8403 C54.281,80.7923 53.708,80.7063 53.148,80.5653 L52.388,82.0093 L49.903,83.1703 L48.632,95.5693 L49.382,110.1313 L52.66,107.6353 L61.32,107.7123 L65.382,106.6313 L65.069,94.4123 L67.757,86.5063 Z"/><path id="Fill-35" fill="#ECA28A" d="M56.1105,93.0902 C56.1105,93.0902 50.3735,86.1192 52.1925,82.1012 L49.9025,83.1702 L48.6315,95.5692 L49.3815,110.1312 L52.6605,107.6352 L55.5355,107.6602 C55.6105,105.2512 56.1105,93.0902 56.1105,93.0902"/><path id="Fill-37" fill="#FFC3AC" d="M85.926,89.7348 C85.672,89.6498 86.209,88.2868 85.218,88.0768 C84.624,87.9438 84.133,89.2088 83.766,89.1198 C82.471,88.8048 81.115,88.5028 80.134,88.0148 L79.138,93.6708 C79.138,93.6708 82.205,94.4258 84.58,94.2298 C85.896,94.1208 86.605,94.0378 86.969,92.5078 C87.325,91.2948 87.338,90.2098 85.926,89.7348"/><path id="Fill-39" fill="#E33667" d="M33.091,92.9301 C35.88,90.1121 42.395,84.3281 49.903,83.1701 C49.903,83.1701 49.768,88.5441 54.873,93.3811 L54.068,114.0731 C54.068,114.0731 45.737,113.8031 40.766,110.8481 C40.954,110.9161 44.145,102.7831 43.857,95.3971 C43.857,95.3971 42.204,96.7681 40.864,98.6201 C37.759,98.6211 33.018,95.5981 33.091,92.9301"/><path id="Fill-41" fill="#ECA28A" d="M85.1115,92.6361 C82.7365,92.8321 79.6695,92.0761 79.6695,92.0761 L80.3675,88.1131 C80.2925,88.0791 80.2055,88.0511 80.1335,88.0151 L79.1375,93.6701 C79.1375,93.6701 82.2055,94.4261 84.5805,94.2301 C85.8955,94.1201 86.6045,94.0371 86.9685,92.5081 C87.0335,92.2881 87.0805,92.0751 87.1155,91.8671 C86.7005,92.4841 86.0675,92.5561 85.1115,92.6361"/><path id="Fill-43" fill="#FFC3AC" d="M34.8058,96.225 C34.8058,96.225 32.1958,103.929 35.1298,105.246 C37.6558,106.412 38.2808,101.198 40.0118,98.704 L34.8058,96.225 Z"/><path id="Fill-45" fill="#ECA28A" d="M36.507,97.0356 L34.806,96.2246 C34.806,96.2246 32.195,103.9296 35.13,105.2456 C35.36,105.3506 35.569,105.3886 35.768,105.3956 C34.142,103.4186 36.112,98.0476 36.507,97.0356"/><path id="Fill-47" fill="#ECA28A" d="M39.9836,98.7484 C39.9936,98.7344 40.0026,98.7184 40.0116,98.7034 L39.2646,98.3484 L39.9836,98.7484 Z"/><path id="Fill-49" fill="#E33667" d="M79.8947,87.2856 C75.4517,85.2366 71.3357,84.3286 63.8297,83.1706 C63.8297,83.1706 63.9627,88.5446 58.8577,93.3816 L59.6647,114.0726 C59.6647,114.0726 67.9947,113.8036 72.9647,110.8476 C72.7777,110.9166 69.4987,101.7076 69.7877,94.3216 C69.7877,94.3216 73.3737,94.6226 77.1097,95.6656 C80.1817,93.5156 80.4687,89.5526 79.8947,87.2856"/><path id="Fill-51" fill="#FFC3AC" d="M45.3439,126.727 C45.3439,126.727 45.4009,135.132 48.9449,135.032 C52.4899,134.93 50.6669,130.753 51.2239,127.147 L45.3439,126.727 Z"/><path id="Fill-53" fill="#ECA28A" d="M47.7863,126.9018 L45.3443,126.7268 C45.3443,126.7268 45.4003,135.1318 48.9443,135.0318 C49.2583,135.0228 49.5153,134.9708 49.7503,134.9018 C47.4333,133.8478 47.6583,128.5448 47.7863,126.9018"/><path id="Fill-55" fill="#FFC3AC" d="M63.131,127.1254 C63.688,130.7314 61.864,134.9084 65.409,135.0094 C68.954,135.1104 69.01,126.7494 69.01,126.7494 L63.131,127.1254 Z"/><path id="Fill-57" fill="#ECA28A" d="M64.8215,127.017 L63.1315,127.125 C63.6875,130.732 61.8645,134.909 65.4095,135.009 C65.5125,135.012 65.6035,134.985 65.7015,134.974 C63.7175,133.883 65.0665,130.328 64.8215,127.017"/><path id="Stroke-59" stroke="#641340" stroke-linecap="round" stroke-linejoin="round" d="M34.8058,96.225 C34.8058,96.225 32.1958,103.929 35.1298,105.246 C37.6558,106.412 38.2808,101.198 40.0118,98.704"/><path id="Stroke-61" stroke="#641340" stroke-linecap="round" stroke-linejoin="round" d="M79.1379,93.6703 C79.1379,93.6703 82.2049,94.4263 84.5799,94.2303 C85.8959,94.1203 86.6049,94.0373 86.9679,92.5083 C87.3259,91.2943 87.3379,90.2093 85.9259,89.7343 C85.6719,89.6493 86.2089,88.2863 85.2179,88.0763 C84.6229,87.9433 84.1329,89.2083 83.7659,89.1193 C82.4709,88.8053 81.1159,88.5023 80.1339,88.0153"/><path id="Stroke-63" stroke="#641340" stroke-linecap="round" stroke-linejoin="round" d="M54.3185,107.6352 C54.3185,107.6352 57.4615,107.9842 59.4145,107.6352"/><path id="Stroke-65" stroke="#641340" stroke-linecap="round" stroke-linejoin="round" d="M54.3185,112.8305 C54.3185,112.8305 57.5165,113.1785 59.5045,112.8305"/><path id="Stroke-67" stroke="#641340" stroke-linecap="round" stroke-linejoin="round" d="M42.5373,111.7387 C42.1823,113.7757 41.7193,116.7037 41.4023,119.6977"/><path id="Stroke-69" stroke="#641340" stroke-linecap="round" stroke-linejoin="round" d="M53.2101,121.7436 C53.3371,120.5196 53.7291,118.7596 54.8731,117.4166"/><path id="Stroke-71" stroke="#641340" stroke-linecap="round" stroke-linejoin="round" d="M53.0344,126.9692 C43.9664,127.2562 40.0394,125.1952 39.7814,125.0932 C39.1224,124.8322 40.1994,119.2382 40.7304,119.3942 C40.7304,119.3942 44.7794,121.5902 53.8514,121.7592 C54.3324,121.9362 53.6394,126.8222 53.0344,126.9692 Z"/><path id="Stroke-73" stroke="#641340" stroke-linecap="round" stroke-linejoin="round" d="M71.7902,111.5834 C72.1482,113.6254 72.6282,116.6264 72.9522,119.6974"/><path id="Stroke-75" stroke="#641340" stroke-linecap="round" stroke-linejoin="round" d="M61.1447,121.7436 C61.0167,120.5196 60.6257,118.7596 59.4807,117.4166"/><path id="Stroke-77" stroke="#641340" stroke-linecap="round" stroke-linejoin="round" d="M63.7805,116.2748 C63.7805,116.2748 61.3785,117.3988 57.1765,117.3468 C52.9755,117.3988 50.5745,116.2748 50.5745,116.2748"/><path id="Stroke-79" stroke="#641340" stroke-linecap="round" stroke-linejoin="round" d="M61.3205,126.9692 C70.3875,127.2562 74.3145,125.1952 74.5725,125.0932 C75.2315,124.8322 74.1545,119.2382 73.6245,119.3942 C73.6245,119.3942 69.5755,121.5902 60.5035,121.7592 C60.0215,121.9362 60.7155,126.8222 61.3205,126.9692 Z"/><path id="Stroke-81" stroke="#641340" stroke-linecap="round" stroke-linejoin="round" d="M45.3439,126.727 C45.3439,126.727 45.4009,135.132 48.9449,135.032 C52.4899,134.93 50.6669,130.753 51.2239,127.147"/><path id="Stroke-83" stroke="#641340" stroke-linecap="round" stroke-linejoin="round" d="M69.0099,126.7494 C69.0099,126.7494 68.9539,135.1104 65.4089,135.0094 C61.8639,134.9084 63.6879,130.7314 63.1309,127.1254"/><path id="Stroke-85" stroke="#641340" stroke-linecap="round" stroke-linejoin="round" d="M42.3254,112.9848 C42.3254,112.9848 41.1184,117.4258 36.1474,120.0348 C36.1474,120.0348 33.0074,118.5398 32.8724,114.8338 C32.8724,114.8338 38.3444,114.7108 41.4024,111.2008"/><path id="Stroke-87" stroke="#641340" stroke-linecap="round" stroke-linejoin="round" d="M41.7326,108.4604 C41.7326,108.4604 38.0796,109.5044 33.8466,109.0674 C33.8466,109.0674 33.1646,112.8304 35.1906,114.4754"/><path id="Stroke-89" stroke="#641340" stroke-linecap="round" stroke-linejoin="round" d="M85.1437,94.1762 C83.8387,94.1762 84.9847,89.3042 86.1527,89.8222"/><path id="Stroke-91" stroke="#641340" stroke-linecap="round" stroke-linejoin="round" d="M29.7258,56.4535 C29.7258,56.4535 26.6078,55.3045 25.8418,56.7815 C25.0758,58.2595 28.1948,63.9505 29.1248,64.4975 C30.0558,65.0455 31.4588,64.9475 31.4588,64.9475"/><path id="Stroke-93" stroke="#641340" stroke-linecap="round" stroke-linejoin="round" d="M84.3771,56.4535 C84.3771,56.4535 87.4941,55.3045 88.2611,56.7815 C89.0261,58.2595 85.9071,63.9505 84.9781,64.4975 C84.0471,65.0455 82.6441,64.9475 82.6441,64.9475"/><path id="Stroke-95" stroke="#641340" stroke-linecap="round" stroke-linejoin="round" d="M90.1974,31.9457 C93.0984,37.2197 91.9564,44.5427 96.3244,48.9017 C96.3244,48.9017 93.3694,49.2297 91.3994,47.5887 C91.3994,47.5887 91.2904,52.4037 89.8674,57.6577 C88.4444,62.9107 84.9774,64.4977 85.9774,71.2127 C85.9774,71.2127 83.4084,70.8597 82.2994,69.2477 C82.2994,70.3557 82.1324,72.2697 83.6094,73.2777 C83.6094,73.2777 80.6814,73.7227 79.3994,71.8877"/><path id="Stroke-97" stroke="#641340" stroke-linecap="round" stroke-linejoin="round" d="M32.8723,68.8813 C32.1863,73.9213 28.0583,75.4973 28.0583,75.4973 C28.1523,75.2753 28.2183,75.0473 28.2753,74.8133 C29.1523,71.2253 27.3503,67.0023 25.6813,63.9453 C22.9313,58.9093 20.2593,54.2893 20.4793,48.3263 C20.5523,46.3753 20.8593,44.4293 21.3923,42.5503 C21.4933,42.1933 21.7723,40.5623 22.1473,40.3643 C19.0283,42.0073 16.4023,40.3643 16.4023,40.3643 C21.2453,38.1493 23.5433,32.3203 23.5433,32.3203"/><path id="Stroke-99" stroke="#641340" stroke-linecap="round" stroke-linejoin="round" d="M26.2521,47.9984 C26.2521,47.9984 26.2521,52.0754 32.0251,57.4384 C32.0251,57.4384 31.0951,51.0354 32.2991,45.5634 C32.2991,45.5634 32.4631,53.7714 37.9361,58.5324 C37.9361,58.5324 35.2541,43.3194 43.6821,32.7034 C43.6821,32.7034 53.3951,35.7684 56.3631,51.8564 C56.3631,51.8564 60.0981,45.7274 59.1131,38.2854 C59.1131,38.2854 63.6011,42.0074 63.9291,47.9164 C63.9291,47.9164 66.9931,45.5094 67.1031,40.6934 C67.1031,40.6934 73.6691,45.9464 72.6851,55.5774 C72.6851,55.5774 77.8281,50.8714 77.5001,41.8964 C77.5001,41.8964 83.0261,50.5984 79.7431,60.0104 C79.7431,60.0104 85.5121,56.5084 87.1311,48.4644"/><path id="Stroke-101" stroke="#641340" stroke-linecap="round" stroke-linejoin="round" d="M23.4621,59.7943 C9.0751,54.4893 0.5001,47.5323 0.5001,37.8503 C0.5001,21.5483 25.7791,8.3323 56.9621,8.3323 C88.1461,8.3323 113.4241,21.5483 113.4241,37.8503 C113.4241,47.8903 104.5281,54.3163 89.2881,59.4863"/><path id="Stroke-103" stroke="#641340" stroke-linecap="round" stroke-linejoin="round" d="M16.9142,57.0697 C7.5962,52.0577 1.7922,46.5477 1.7922,39.4047 C1.7922,24.0727 26.4932,11.6437 56.9622,11.6437 C87.4322,11.6437 112.1322,24.0727 112.1322,39.4047 C112.1322,44.8427 108.7312,48.9637 103.1242,53.3267"/><path id="Stroke-105" stroke="#641340" stroke-linecap="round" stroke-linejoin="round" d="M21.4777,33.602 C27.4967,28.458 41.1277,24.869 56.9797,24.869 C72.8317,24.869 86.4607,28.457 92.4807,33.601"/><path id="Stroke-107" stroke="#641340" stroke-linecap="round" stroke-linejoin="round" d="M24.5764,13.6772 C30.7514,5.7752 42.7944,0.4992 56.6404,0.4992 C70.2164,0.4992 82.0584,5.6062 88.3364,13.2552"/><path id="Fill-109" fill="#ECA28A" d="M52.3879,82.0092 C52.3879,82.0092 54.6469,83.5282 56.9619,83.4862 C59.2779,83.4442 61.4139,82.0092 61.4139,82.0092 L60.8359,80.9572 L52.9919,80.8652 L52.3879,82.0092 Z"/><path id="Stroke-111" stroke="#641340" stroke-linecap="round" stroke-linejoin="round" d="M49.9025,83.1518 C49.9025,83.1518 51.7995,82.3958 52.3875,82.0088 C52.6715,81.8028 52.8615,81.3648 52.9915,80.8658"/><path id="Stroke-113" stroke="#641340" stroke-linecap="round" stroke-linejoin="round" d="M63.8996,83.1518 C63.8996,83.1518 62.0026,82.3958 61.4146,82.0088 C61.1486,81.8158 60.9636,81.4188 60.8366,80.9578"/><path id="Stroke-115" stroke="#641340" stroke-linecap="round" stroke-linejoin="round" d="M84.5041,55.0375 C84.5041,55.0375 82.1861,70.5655 77.5291,74.0785 C74.4631,76.3905 70.6281,77.7485 67.0601,78.9845 C65.1351,79.6505 63.1891,80.2555 61.2241,80.7865 C56.7341,81.9985 53.0581,80.9595 48.7371,79.5595 C44.6061,78.2225 40.0811,76.7425 36.5491,74.0785 C31.8921,70.5655 30.3401,60.0295 30.3401,60.0295 L29.4201,54.6725"/><path id="Fill-117" fill="#ECA28A" d="M61.6203,87.2211 C61.3543,87.4021 61.0853,87.5861 60.8813,87.8341 C60.8123,87.9161 60.7523,88.0061 60.6753,88.0791 C60.5573,88.1921 60.4073,88.2611 60.2673,88.3431 C59.9453,88.5351 59.6773,88.8051 59.3683,89.0191 C59.2483,89.1011 59.1023,89.1781 58.9643,89.1351 C58.9073,89.1181 58.8533,89.0811 58.7963,89.0901 C58.7533,89.0961 58.7183,89.1251 58.6863,89.1551 C58.5683,89.2661 58.4703,89.4001 58.3983,89.5461 C58.3493,89.6511 58.3103,89.7621 58.2383,89.8531 C58.1663,89.9441 58.0483,90.0101 57.9363,89.9791 C57.8773,89.9621 57.8223,89.9201 57.7623,89.9301 C57.7163,89.9371 57.6813,89.9731 57.6513,90.0081 C57.5123,90.1731 57.4153,90.3741 57.3743,90.5851 C57.2653,90.6791 57.1133,90.5451 56.9993,90.4581 C56.7843,90.2921 56.5633,90.1061 56.4783,89.8481 C56.4483,89.7561 56.4343,89.6541 56.3683,89.5831 C56.2643,89.4721 56.0753,89.4891 55.9563,89.3931 C55.8453,89.3021 55.8203,89.1351 55.7093,89.0451 C55.6023,88.9591 55.4523,88.9691 55.3153,88.9701 C55.1793,88.9721 55.0193,88.9481 54.9523,88.8291 C54.8903,88.7211 54.9233,88.5601 54.8213,88.4861 C54.7683,88.4471 54.6943,88.4491 54.6363,88.4171 C54.5963,88.3951 54.5653,88.3601 54.5353,88.3251 C54.2903,88.0521 53.9683,87.8631 53.6513,87.6771 C53.6823,87.8641 53.7643,88.0421 53.8863,88.1861 C53.9363,88.2461 53.9963,88.3021 54.0293,88.3731 C54.0933,88.5051 54.0583,88.6591 54.0633,88.8051 C54.0653,88.8461 54.0703,88.8881 54.0933,88.9221 C54.1573,89.0201 54.3053,88.9921 54.4173,89.0281 C54.5233,89.0611 54.5983,89.1561 54.6643,89.2451 C54.8013,89.4271 54.9393,89.6141 55.0113,89.8301 C55.0463,89.9351 55.0653,90.0461 55.1253,90.1391 C55.1813,90.2281 55.2683,90.2901 55.3513,90.3551 C55.7353,90.6511 56.0683,91.0131 56.3323,91.4201 C56.4093,91.5391 56.4473,91.6171 56.4243,91.7581 C56.4113,91.8291 56.3203,91.8511 56.2493,91.8651 C56.1773,91.8771 56.0893,91.9251 56.1063,91.9961 C56.1153,92.0331 56.1503,92.0561 56.1723,92.0871 C56.2143,92.1501 56.1943,92.2391 56.1453,92.2961 C56.0973,92.3541 56.0263,92.3881 55.9583,92.4201 C55.7853,92.5011 55.6113,92.5821 55.4383,92.6631 C55.4123,92.6761 55.3913,92.6971 55.3673,92.7111 C55.4283,92.7671 55.4813,92.8361 55.5103,92.9361 C55.6233,93.3381 55.6643,93.7441 55.6813,94.1551 C55.7553,94.0591 55.8283,93.9621 55.9013,93.8681 C55.9573,93.7961 56.0143,93.7241 56.0703,93.6521 C56.1163,93.5921 56.1723,93.5291 56.2463,93.5221 C56.3203,93.5161 56.3933,93.6161 56.3393,93.6661 C56.4623,93.7051 56.5913,93.6141 56.6613,93.5041 C56.7313,93.3961 56.7673,93.2671 56.8463,93.1631 C56.9433,93.0351 57.0963,92.9601 57.2043,92.8401 C57.2613,92.7771 57.3083,92.6981 57.3873,92.6621 C57.5033,92.6101 57.6373,92.6731 57.7403,92.7471 C57.9923,92.9291 58.1873,93.1871 58.2933,93.4791 C58.2683,93.3851 58.3893,93.3081 58.4823,93.3311 C58.5763,93.3541 58.6413,93.4361 58.7033,93.5101 C58.7663,93.5861 58.8453,93.6481 58.9143,93.7181 C59.0353,93.4261 59.1863,93.1521 59.4243,92.9241 C59.4953,92.8551 59.5733,92.8221 59.6513,92.8021 C59.3033,92.6241 58.9493,92.4461 58.7893,92.1021 C58.7093,92.0531 58.6793,91.9371 58.7243,91.8551 C58.7463,91.8161 58.7833,91.7801 58.7803,91.7351 C58.7753,91.6711 58.7003,91.6451 58.6433,91.6181 C58.5183,91.5621 58.4283,91.4341 58.4153,91.2971 C58.4073,91.2011 58.4333,91.1061 58.4603,91.0131 C58.5343,90.7491 58.6153,90.4751 58.8043,90.2761 C59.0593,90.0061 59.4543,89.9331 59.7823,89.7581 C59.8303,89.7331 59.8783,89.7031 59.9073,89.6571 C59.9343,89.6131 59.9403,89.5571 59.9683,89.5121 C60.0143,89.4361 60.1093,89.4071 60.1773,89.3491 C60.2263,89.3061 60.2613,89.2481 60.2953,89.1941 C60.6653,88.6111 61.2603,88.1851 61.5673,87.5671 C61.6213,87.4591 61.6663,87.3321 61.6203,87.2211"/><path id="Fill-119" fill="#BE295C" d="M34.006,94.9936 C34.006,94.9936 39.495,86.5906 49.792,83.9336 L49.585,83.2226 L45.602,84.3356 L41.488,86.3276 L36.874,89.2856 L34.37,91.6886 L33.091,92.9306 L34.006,94.9936 Z"/><path id="Fill-121" fill="#F1AA00" d="M59.3078,111.0922 C57.7128,111.2432 56.0448,111.2322 54.3188,111.0922 L54.3188,110.4612 C55.9698,110.5872 57.6328,110.5932 59.3078,110.4612 L59.3078,111.0922 Z"/><path id="Fill-123" fill="#ECA28A" d="M57.5851,106.0219 C57.5851,106.3329 57.3331,106.5839 57.0231,106.5839 C56.7111,106.5839 56.4601,106.3329 56.4601,106.0219 C56.4601,105.7109 56.7111,105.4599 57.0231,105.4599 C57.3331,105.4599 57.5851,105.7109 57.5851,106.0219"/><path id="Fill-125" fill="#BE295C" d="M44.6516,95.14 C44.5046,93.266 39.7256,98.289 39.5726,98.472 L40.4756,98.548 L42.3166,96.873 L43.7146,95.886 C43.6726,102.992 40.9446,110.913 40.7666,110.848 C42.0646,111.619 42.4336,111.767 43.9816,112.215 C45.8706,100.819 44.8896,96.58 44.6516,95.14"/><path id="Stroke-127" stroke="#641340" stroke-linecap="round" stroke-linejoin="round" d="M33.091,92.9301 C35.88,90.1121 42.395,84.3281 49.903,83.1701 C49.903,83.1701 49.768,88.5441 54.873,93.3811 L54.068,114.0731 C54.068,114.0731 45.737,113.8031 40.766,110.8481 C40.954,110.9161 44.145,102.7831 43.857,95.3971 C43.857,95.3971 42.204,96.7681 40.864,98.6201 C37.759,98.6211 33.018,95.5981 33.091,92.9301 Z"/><path id="Fill-129" fill="#BE295C" d="M69.2775,94.4125 C69.2775,94.4125 69.2775,92.9235 71.1945,92.8185 C72.6735,92.7985 78.6405,94.1765 78.6405,94.1765 L77.2775,95.7155 L69.2775,94.4125 Z"/><path id="Stroke-131" stroke="#641340" stroke-linecap="round" stroke-linejoin="round" d="M79.8947,87.2856 C75.4517,85.2366 71.3357,84.3286 63.8297,83.1706 C63.8297,83.1706 63.9627,88.5446 58.8577,93.3816 L59.6647,114.0726 C59.6647,114.0726 67.9947,113.8036 72.9647,110.8476 C72.7777,110.9166 69.4987,101.7076 69.7877,94.3216 C69.7877,94.3216 73.3737,94.6226 77.1097,95.6656 C80.1817,93.5156 80.4687,89.5526 79.8947,87.2856 Z"/><path id="Fill-133" fill="#ECA28A" d="M39.007,65.0942 C39.007,66.3282 37.899,67.3292 36.532,67.3292 C35.166,67.3292 34.059,66.3282 34.059,65.0942 C34.059,63.8602 35.166,62.8602 36.532,62.8602 C37.899,62.8602 39.007,63.8602 39.007,65.0942"/><path id="Fill-135" fill="#ECA28A" d="M80.134,65.0942 C80.134,66.3282 79.027,67.3292 77.66,67.3292 C76.294,67.3292 75.187,66.3282 75.187,65.0942 C75.187,63.8602 76.294,62.8602 77.66,62.8602 C79.027,62.8602 80.134,63.8602 80.134,65.0942"/><path id="Fill-137" fill="#FFF" d="M49.5529,59.0092 C49.5529,62.2372 46.9359,64.8542 43.7079,64.8542 C40.4809,64.8542 37.8639,62.2372 37.8639,59.0092 C37.8639,55.7812 40.4809,53.1642 43.7079,53.1642 C46.9359,53.1642 49.5529,55.7812 49.5529,59.0092"/><path id="Fill-139" fill="#641340" d="M43.7082,53.1615 C46.8772,53.1615 49.4512,55.8415 49.5442,59.1825 C49.5452,59.1165 49.5522,59.0535 49.5522,58.9875 C49.5522,55.3525 46.9362,52.2465 43.7082,52.2465 C40.4802,52.2465 37.8632,55.3525 37.8632,58.9875 C37.8632,59.0535 37.8702,59.1165 37.8722,59.1825 C37.9642,55.8415 40.5382,53.1615 43.7082,53.1615"/><path id="Fill-141" fill="#641340" d="M45.9631,59.0092 C45.9631,60.8012 44.9531,62.2532 43.7081,62.2532 C42.4621,62.2532 41.4521,60.8012 41.4521,59.0092 C41.4521,57.2172 42.4621,55.7652 43.7081,55.7652 C44.9531,55.7652 45.9631,57.2172 45.9631,59.0092"/><path id="Fill-143" fill="#FFF2FF" d="M42.6183,59.0092 C42.6183,59.6532 42.0973,60.1752 41.4523,60.1752 C40.8083,60.1752 40.2873,59.6532 40.2873,59.0092 C40.2873,58.3652 40.8083,57.8432 41.4523,57.8432 C42.0973,57.8432 42.6183,58.3652 42.6183,59.0092"/><path id="Fill-145" fill="#FFF" d="M76.0607,59.0092 C76.0607,62.2372 73.4447,64.8542 70.2167,64.8542 C66.9887,64.8542 64.3727,62.2372 64.3727,59.0092 C64.3727,55.7812 66.9887,53.1642 70.2167,53.1642 C73.4447,53.1642 76.0607,55.7812 76.0607,59.0092"/><path id="Fill-147" fill="#641340" d="M70.216,53.1615 C73.386,53.1615 75.96,55.8415 76.052,59.1825 C76.054,59.1165 76.061,59.0535 76.061,58.9875 C76.061,55.3525 73.445,52.3085 70.216,52.3085 C66.988,52.3085 64.372,55.3525 64.372,58.9875 C64.372,59.0535 64.379,59.1165 64.381,59.1825 C64.473,55.8415 67.047,53.1615 70.216,53.1615"/><path id="Fill-149" fill="#641340" d="M72.4719,59.0092 C72.4719,60.8012 71.4619,62.2532 70.2169,62.2532 C68.9709,62.2532 67.9609,60.8012 67.9609,59.0092 C67.9609,57.2172 68.9709,55.7652 70.2169,55.7652 C71.4619,55.7652 72.4719,57.2172 72.4719,59.0092"/><path id="Fill-151" fill="#FFF2FF" d="M69.1271,59.0092 C69.1271,59.6532 68.6051,60.1752 67.9611,60.1752 C67.3171,60.1752 66.7951,59.6532 66.7951,59.0092 C66.7951,58.3652 67.3171,57.8432 67.9611,57.8432 C68.6051,57.8432 69.1271,58.3652 69.1271,59.0092"/><path id="Fill-153" fill="#ECA28A" d="M57.6457,58.1762 C57.6457,58.1762 59.9137,60.4992 59.7567,60.9262 C59.6007,61.3532 57.6457,61.9682 57.6457,61.9682 L57.6457,58.1762 Z"/><path id="Fill-155" fill="#641340" d="M90.1974,31.9457 C89.8734,31.6187 89.5264,31.3047 89.1764,30.9927 C87.3054,30.3087 85.4824,29.4797 83.5974,28.8047 C80.4924,27.6927 77.2854,26.8787 74.0424,26.2857 C67.5804,25.1037 61.0034,24.8017 54.4444,24.7637 C48.9674,24.8827 43.5604,25.9257 38.1894,26.9157 C35.2174,27.4637 32.5184,27.9837 29.7234,29.1917 C28.0474,29.9167 26.5714,30.8797 24.7594,31.0867 C24.3384,31.4877 23.9274,31.8957 23.5434,32.3207 C23.5434,32.3207 21.2454,38.1487 16.4024,40.3647 C16.4024,40.3647 19.0284,42.0077 22.1474,40.3647 C21.7734,40.5617 21.4934,42.1927 21.3924,42.5497 C20.8594,44.4287 20.5514,46.3757 20.4794,48.3267 C20.2594,54.2897 22.9314,58.9097 25.6804,63.9457 C27.3494,67.0027 29.1524,71.2247 28.2754,74.8127 C28.2184,75.0477 28.1524,75.2747 28.0574,75.4977 C28.0574,75.4977 32.1864,73.9217 32.8724,68.8817 L33.1614,68.8997 C32.5634,67.4287 32.0614,65.9317 31.6004,64.4237 C30.2984,64.7107 29.2164,64.6977 28.1214,63.3657 C27.2134,62.2597 26.3844,60.9217 25.9044,59.5727 C25.5214,58.4967 25.2924,57.0247 26.4214,56.3107 C27.4254,55.6757 28.9294,56.0747 29.7544,56.9067 C29.7414,56.8377 29.7244,56.7707 29.7124,56.7027 C29.6674,56.4647 29.7764,56.2787 29.9354,56.1737 C30.1034,55.9437 30.4174,55.8397 30.6414,56.1217 C30.8844,56.4287 31.3824,57.3987 31.9154,56.8947 C31.9884,56.8267 31.8174,55.6077 31.8194,55.4437 C31.8414,53.3577 32.1534,51.5367 31.7744,49.4207 C31.6614,48.7927 32.5374,48.5357 32.7384,49.1547 C33.3394,50.9977 33.5324,53.0817 34.4784,54.7927 C35.0774,55.8737 36.4504,57.1827 37.8014,58.1487 C37.6544,56.9037 37.3714,55.7227 37.3874,54.4467 C37.4014,53.3457 37.5304,52.2557 37.7054,51.1717 C37.6984,51.1487 37.6844,51.1327 37.6804,51.1077 C37.4994,50.0687 37.8514,49.1557 38.0764,48.1897 C38.1844,45.8427 38.3594,43.5207 39.2434,41.2797 C39.2724,41.2047 39.3144,41.1427 39.3644,41.0937 C39.6054,40.1917 39.8304,39.4467 40.2644,38.5937 C40.7634,37.6157 40.9544,36.5487 41.4254,35.5637 C41.8584,34.6567 42.5074,34.0387 43.3094,33.5957 C43.3064,33.2467 43.6584,32.8967 44.0404,33.1367 C44.0824,33.1637 44.1204,33.1907 44.1614,33.2167 C44.2764,33.1757 44.3794,33.1237 44.4994,33.0877 C44.8594,32.9777 45.0924,33.2617 45.1074,33.5537 C45.1874,33.5517 45.2694,33.5597 45.3524,33.6057 C46.1874,34.0737 46.8564,34.5107 47.3764,35.3167 C48.3274,36.0647 49.2744,36.8057 50.0954,37.8057 C51.4294,39.4317 52.6344,41.1727 53.5924,43.0457 C53.6674,43.0867 53.7364,43.1467 53.7824,43.2547 C54.5994,45.1827 55.3264,47.1747 55.7964,49.2177 C55.8944,49.6497 55.9444,50.1007 56.0884,50.5207 C56.3064,51.1667 56.4024,51.9247 56.9434,51.4767 C57.3004,51.1807 57.4614,50.2827 57.6054,49.8447 C58.4774,47.2187 59.2294,44.0587 59.3504,41.3187 C59.3584,41.1337 59.4524,41.0077 59.5754,40.9287 C59.4134,40.5747 59.3694,40.4507 59.2434,39.9527 C59.1134,39.4397 59.7074,39.1567 60.0794,39.4657 C61.3474,40.5207 61.7374,42.2097 62.6304,43.5577 C63.5634,44.9687 64.0354,46.3857 64.3884,48.0027 C66.2964,46.3507 66.4264,43.6627 67.0874,41.3417 C67.2554,40.7517 68.1314,40.9697 68.0564,41.5307 C68.1784,41.5217 68.3064,41.5537 68.4234,41.6527 C70.4544,43.3967 71.4664,45.8687 71.9064,48.4447 C72.7904,50.8587 72.2234,53.3877 72.6564,55.8697 C75.8484,52.9967 77.1484,48.3487 77.4754,44.2247 C77.5084,43.8147 78.0094,43.5377 78.3294,43.8717 C80.1694,45.7977 80.0634,48.8897 80.5044,51.3707 C80.7574,52.7937 80.9164,54.1837 80.7074,55.6327 C80.4774,57.2187 79.7604,58.7147 79.5574,60.3057 C80.3364,60.3887 81.0084,59.4797 81.4944,58.9927 C82.1314,58.3547 82.6814,57.7477 83.1064,56.9417 C83.2704,56.6297 83.7014,56.6557 83.9054,56.9017 C83.9174,56.7657 83.9864,56.6357 84.1504,56.5537 C85.1554,56.0497 86.6674,55.1967 87.7594,55.9247 C89.0454,56.7787 88.1414,58.4857 87.5204,59.4567 C87.4264,60.3887 87.1264,61.3207 86.6674,61.9467 C86.6454,61.9767 86.6174,61.9917 86.5934,62.0147 C86.4494,62.4437 86.2534,62.8567 85.9884,63.2437 C85.1424,64.4787 83.6714,65.6637 82.1314,65.2617 C81.3674,67.5387 80.2584,69.6517 79.4424,71.9407 C80.7444,73.7097 83.6094,73.2777 83.6094,73.2777 C82.1324,72.2697 82.3004,70.3557 82.3004,69.2477 C83.4084,70.8597 85.9774,71.2127 85.9774,71.2127 C84.9774,64.4977 88.4444,62.9107 89.8674,57.6577 C91.2904,52.4037 91.3994,47.5887 91.3994,47.5887 C93.3694,49.2297 96.3244,48.9017 96.3244,48.9017 C91.9564,44.5427 93.0984,37.2197 90.1974,31.9457"/><path id="Stroke-157" stroke="#641340" stroke-linecap="round" stroke-linejoin="round" d="M26.2521,47.9984 C26.2521,47.9984 26.2521,52.0754 32.0251,57.4384 C32.0251,57.4384 31.0951,51.0354 32.2991,45.5634 C32.2991,45.5634 32.4631,53.7714 37.9361,58.5324 C37.9361,58.5324 35.2541,43.3194 43.6821,32.7034 C43.6821,32.7034 53.3951,35.7684 56.3631,51.8564 C56.3631,51.8564 60.0981,45.7274 59.1131,38.2854 C59.1131,38.2854 63.6011,42.0074 63.9291,47.9164 C63.9291,47.9164 66.9931,45.5094 67.1031,40.6934 C67.1031,40.6934 73.6691,45.9464 72.6851,55.5774 C72.6851,55.5774 77.8281,50.8714 77.5001,41.8964 C77.5001,41.8964 83.0261,50.5984 79.7431,60.0104 C79.7431,60.0104 85.5121,56.5084 87.1311,48.4644"/><path id="Fill-159" fill="#641340" d="M66.8557,66.7572 C66.2887,66.2472 65.4387,66.4862 63.4187,66.7572 C61.4007,67.0272 57.0967,67.1422 57.0967,67.1422 C57.0967,67.1422 52.7927,67.0272 50.7737,66.7562 C48.7547,66.4862 47.9047,66.2472 47.3377,66.7572 C46.9367,67.1172 47.0847,67.9522 47.1367,68.4152 C47.3787,70.5902 49.1587,73.2462 51.0217,74.3922 C53.3467,75.8212 56.4497,76.3982 59.1227,75.8972 C60.4547,75.6482 61.7717,75.2292 62.9307,74.5152 C64.8727,73.3192 66.7977,70.7332 67.0557,68.4152 C67.1077,67.9522 67.2567,67.1172 66.8557,66.7572"/><path id="Fill-161" fill="#FFF" d="M66.7609,66.6947 C66.1939,66.2817 65.3349,66.5007 63.4189,66.7567 C61.4009,67.0267 57.0969,67.1417 57.0969,67.1417 C57.0969,67.1417 52.7929,67.0267 50.7739,66.7567 C48.8909,66.5057 48.0289,66.2877 47.4599,66.6727 C47.2429,69.1897 49.9899,69.2667 52.0999,69.3097 C53.8269,69.3437 60.8119,69.3407 62.6309,69.1917 C63.2679,69.1397 65.2109,68.9657 65.6399,68.6767 C66.2459,68.2717 66.6329,67.6057 66.7759,66.9117 C66.7729,66.8397 66.7649,66.7667 66.7609,66.6947"/><path id="Fill-163" fill="#E87F99" d="M58.1281,71.8129 C55.0321,71.7779 51.9361,71.7699 48.9181,72.4069 C49.5451,73.2239 50.2741,73.9319 51.0221,74.3919 C53.3471,75.8219 56.4501,76.3979 59.1221,75.8969 C60.4541,75.6479 61.7721,75.2289 62.9311,74.5149 C63.6971,74.0419 64.4581,73.3489 65.1181,72.5439 C62.8561,72.0199 60.5261,71.8399 58.1281,71.8129"/></g></g></svg>