<svg xmlns="http://www.w3.org/2000/svg" xmlns:xlink="http://www.w3.org/1999/xlink" width="75" height="126" version="1.1" viewBox="0 0 75 126"><title>Anime Watched 4</title><desc>Created with Sketch.</desc><defs><polygon id="path-1" points="42.398 130 0 130 0 .818 84.797 .818 84.797 130 42.398 130 84.797 130 84.797 122.637 0 122.637 0 130"/><polygon id="path-3" points="0 130.182 84.797 130.182 84.797 1 0 1"/></defs><g id="Page-1" fill="none" fill-rule="evenodd" stroke="none" stroke-width="1"><g id="Anime-Watched-4" transform="translate(-7.000000, -1.000000)"><path id="Fill-1" fill="#FF8331" d="M28.0577,27.5722 C28.0627,27.5792 28.0667,27.5872 28.0727,27.5932 C28.0687,27.6022 28.0657,27.6112 28.0617,27.6202 C28.0607,27.6042 28.0587,27.5882 28.0577,27.5722 Z"/><path id="Stroke-3" stroke="#641340" d="M28.0723,27.5937 C28.0683,27.6027 28.0653,27.6117 28.0613,27.6197 C28.0603,27.6047 28.0583,27.5877 28.0573,27.5727 C28.0623,27.5787 28.0663,27.5867 28.0723,27.5937 Z"/><path id="Fill-5" fill="#FF8331" d="M44.0723,63.8047 C44.2803,63.4117 44.5033,63.0267 44.7533,62.6527 C44.5033,63.0267 44.2803,63.4127 44.0723,63.8047"/><path id="Fill-7" fill="#FF8331" d="M40.4962,32.0224 C40.3702,32.5654 40.2372,33.1054 40.0922,33.6404 C40.0822,33.6764 40.0682,33.7124 40.0592,33.7494 C40.2162,33.1774 40.3622,32.6024 40.4962,32.0224"/><path id="Fill-9" fill="#FF8331" d="M43.0196,66.1855 C43.0886,66.0045 43.1616,65.8265 43.2326,65.6465 C43.1616,65.8265 43.0886,66.0045 43.0196,66.1855"/><path id="Fill-11" fill="#FF8331" d="M40.0919,33.6406 C40.0709,33.7146 40.0509,33.7876 40.0299,33.8616 C40.0409,33.8246 40.0489,33.7866 40.0589,33.7486 C40.0689,33.7126 40.0819,33.6766 40.0919,33.6406"/><path id="Fill-13" fill="#FF8331" d="M43.504,64.9941 C43.609,64.7531 43.725,64.5161 43.84,64.2801 C43.725,64.5161 43.609,64.7531 43.504,64.9941"/><path id="Fill-15" fill="#FFF" d="M17.5225,24.332 C17.4925,24.404 17.4595,24.478 17.4255,24.552 C17.4595,24.478 17.4925,24.404 17.5225,24.332"/><path id="Fill-17" fill="#FFF" d="M17.294,24.8486 C17.251,24.9426 17.212,25.0276 17.17,25.1176 C17.21,25.0296 17.252,24.9396 17.294,24.8486"/><path id="Fill-19" fill="#FFF" d="M17.7071,23.8642 C17.6891,23.9152 17.6651,23.9722 17.6451,24.0272 C17.6651,23.9732 17.6891,23.9142 17.7071,23.8642"/><path id="Fill-21" fill="#FFF" d="M24.4776,29.6191 C24.4726,29.6281 24.4696,29.6371 24.4656,29.6451 C24.4646,29.6301 24.4636,29.6131 24.4626,29.5981 C24.4676,29.6041 24.4716,29.6121 24.4776,29.6191"/><path id="Fill-23" fill="#FFF" d="M13.6065,26.9062 C13.5725,26.9722 13.5395,27.0392 13.5075,27.1012 C13.5535,27.0102 13.6055,26.9062 13.6565,26.8062 C13.6395,26.8402 13.6235,26.8752 13.6065,26.9062"/><path id="Fill-25" fill="#FFF" d="M13.3497,29.3554 C13.3167,29.3734 13.2807,29.3944 13.2517,29.4054 C13.2567,29.3724 13.2697,29.3294 13.2807,29.2884 C13.3037,29.3104 13.3247,29.3354 13.3497,29.3554"/><path id="Fill-27" fill="#FFF" d="M43.2325,65.6465 C43.3205,65.4275 43.4105,65.2095 43.5035,64.9945 C43.4105,65.2095 43.3205,65.4275 43.2325,65.6465"/><path id="Fill-29" fill="#FFF" d="M42.6788,67.1045 C42.7888,66.7955 42.9038,66.4895 43.0198,66.1855 C42.9038,66.4905 42.7888,66.7955 42.6788,67.1045"/><polygon id="Fill-31" fill="#FFF" points="40.499 32.011 40.497 32.017 40.498 32.012"/><path id="Fill-33" fill="#FFF" d="M39.4708,35.6943 C39.6728,35.0913 39.8578,34.4793 40.0308,33.8613 C39.8598,34.4793 39.6738,35.0913 39.4708,35.6943"/><path id="Fill-35" fill="#FFF" d="M43.8399,64.2803 C43.9169,64.1223 43.9899,63.9613 44.0719,63.8043 C43.9899,63.9613 43.9169,64.1223 43.8399,64.2803"/><path id="Fill-37" fill="#FFF" d="M40.4991,32.0107 L40.4981,32.0117 L40.4971,32.0187 C40.4961,32.0197 40.4961,32.0217 40.4961,32.0217 C40.4961,32.0187 40.4981,32.0147 40.4991,32.0107"/><path id="Fill-39" fill="#FFF" d="M40.4024,31.6933 C40.4464,31.7293 40.5004,31.7553 40.5554,31.7673 C40.5004,31.7553 40.4464,31.7293 40.4024,31.6933 C40.4464,31.7303 40.4994,31.7553 40.5554,31.7673 C40.4994,31.7553 40.4464,31.7303 40.4024,31.6933"/><path id="Fill-41" fill="#FFF" d="M40.0303,33.8613 C39.8573,34.4793 39.6733,35.0913 39.4703,35.6943 C39.6853,35.0553 39.8783,34.4043 40.0583,33.7493 C40.0493,33.7863 40.0413,33.8243 40.0303,33.8613"/><path id="Fill-43" fill="#FFBE58" d="M36.8253,34.1777 L36.8253,34.1777 C36.7693,34.1627 36.7183,34.1367 36.6753,34.0987 C36.7183,34.1367 36.7693,34.1627 36.8253,34.1777 M24.4663,29.6457 C24.4653,29.6297 24.4643,29.6137 24.4633,29.5977 C24.4683,29.6047 24.4713,29.6127 24.4763,29.6187 C24.4723,29.6277 24.4703,29.6367 24.4663,29.6457 M13.6063,26.9067 C13.5723,26.9727 13.5393,27.0387 13.5083,27.1017 C13.5543,27.0107 13.6053,26.9067 13.6563,26.8067 C13.6393,26.8397 13.6223,26.8737 13.6063,26.9067 M13.2523,29.4057 C13.2573,29.3717 13.2693,29.3287 13.2803,29.2877 C13.3043,29.3107 13.3243,29.3357 13.3493,29.3557 C13.3163,29.3727 13.2803,29.3947 13.2523,29.4057 M41.4823,60.9937 C37.7973,58.1437 36.7683,53.0677 36.9053,48.6317 C36.9893,45.9157 37.4293,43.1487 38.0863,40.4507 C38.4803,38.8327 38.9513,37.2397 39.4703,35.6967 C39.4703,35.6967 39.4713,35.6957 39.4713,35.6947 C39.6853,35.0557 39.8783,34.4047 40.0583,33.7487 C40.2163,33.1777 40.3623,32.6027 40.4963,32.0227 C40.4963,32.0187 40.4973,32.0147 40.4993,32.0107 C40.5173,31.9297 40.5373,31.8497 40.5553,31.7677 C40.5003,31.7547 40.4463,31.7307 40.4023,31.6937 C40.3583,31.6567 40.3233,31.6087 40.3033,31.5497 C39.5843,29.4897 38.6473,27.2297 38.0403,26.1797 C37.8763,25.8957 37.7343,25.6957 37.6293,25.6157 C37.2973,25.9767 36.7123,27.8107 36.3183,29.0447 C35.3563,32.0627 34.9533,33.1027 34.2763,32.9477 C33.6523,32.8077 33.4323,31.7257 33.0973,29.8247 C32.9423,28.9477 32.6833,27.4787 32.5033,27.3087 C32.2133,27.3607 31.3423,28.4707 30.8233,29.1397 C29.6863,30.6057 29.0123,31.4297 28.3843,31.3077 C27.7533,31.1857 27.6013,30.1817 27.3603,27.5547 C27.2603,26.4607 27.0943,24.6667 26.8593,24.2997 C26.3703,24.6657 25.1083,26.9157 24.2593,28.4307 C22.2073,32.0877 21.6083,32.9777 20.9963,32.7157 C20.3953,32.4607 20.4443,31.3077 20.7253,28.3187 C20.8303,27.2047 20.9833,25.5707 20.8753,25.0727 C20.5223,25.2427 19.7433,26.0297 19.2093,26.5677 C17.9483,27.8387 16.5413,28.4157 16.5413,28.4157 C16.5413,28.4157 17.3583,28.6747 17.2943,28.5287 C17.0903,28.0567 18.0103,26.5247 18.6713,25.1167 C18.7153,25.0267 18.5193,24.5427 18.5673,24.4427 C18.6083,24.3537 18.3163,24.0367 18.3583,23.9467 C18.4043,23.8467 18.1063,23.6897 18.1503,23.5907 C18.1833,23.5167 17.4923,24.4047 17.5223,24.3317 C17.5683,24.2237 17.6063,24.1257 17.6443,24.0277 C17.6653,23.9737 17.6893,23.9137 17.7073,23.8647 C17.7573,23.7247 17.7943,23.6007 17.8083,23.5097 C17.1323,23.6697 14.9173,25.1557 13.0993,26.5637 C12.9873,26.6487 12.8443,26.6557 12.7273,26.5957 C11.6233,28.3897 10.7293,30.2257 10.0333,32.0957 C10.0323,32.0997 10.0313,32.1037 10.0293,32.1067 C9.9313,32.3697 9.8463,32.6347 9.7573,32.8997 C8.1723,37.7487 7.7783,42.8687 8.4263,47.9777 C8.4293,48.0007 8.4303,48.0247 8.4333,48.0477 C8.5083,48.6237 8.5953,49.1987 8.6943,49.7737 L8.6943,49.7757 C8.8073,50.4247 8.9383,51.0717 9.0883,51.7137 C9.3863,52.9977 9.7573,54.2687 10.1983,55.5117 C10.6393,56.7557 11.1513,57.9737 11.7323,59.1547 C13.1833,62.1077 15.0623,64.8297 17.3403,67.1557 C18.2513,68.0857 19.2253,68.9517 20.2623,69.7447 C22.3353,71.3287 24.6543,72.6167 27.2063,73.5217 C27.8763,73.7587 28.5573,73.9577 29.2503,74.1217 C29.9413,74.2847 30.6433,74.4117 31.3523,74.5037 C32.0613,74.5967 32.7783,74.6557 33.5003,74.6797 C34.1343,74.7017 34.7713,74.6947 35.4113,74.6667 C35.5993,74.6577 35.7893,74.6477 35.9773,74.6357 C36.5223,74.5997 37.0673,74.5477 37.6133,74.4777 C37.7663,74.4577 37.9213,74.4377 38.0743,74.4147 C38.7353,74.3197 39.3963,74.2027 40.0543,74.0607 C40.4183,73.9817 40.7803,73.8957 41.1423,73.8027 C41.1713,73.7947 41.1983,73.7857 41.2263,73.7787 C41.2113,71.7137 41.7183,69.8137 42.4143,67.8397 C42.5013,67.5927 42.5913,67.3497 42.6783,67.1057 L42.6783,67.1067 L42.6793,67.1047 C42.7893,66.7957 42.9033,66.4897 43.0193,66.1857 C43.0893,66.0047 43.1613,65.8257 43.2333,65.6467 C43.3203,65.4277 43.4103,65.2097 43.5043,64.9937 C43.6093,64.7527 43.7243,64.5167 43.8403,64.2807 C43.9173,64.1217 43.9893,63.9607 44.0723,63.8047 C44.2803,63.4117 44.5033,63.0267 44.7533,62.6527 C43.6923,62.3717 42.5933,61.8537 41.4823,60.9937"/><path id="Fill-45" fill="#D68F22" d="M13.6563,26.8066 C13.6393,26.8396 13.6223,26.8736 13.6063,26.9066 C13.5723,26.9726 13.5393,27.0386 13.5083,27.1016 C13.5533,27.0106 13.6053,26.9066 13.6563,26.8066 M33.8933,74.5726 C33.1863,74.4616 33.0663,71.9386 32.3773,71.7536 C31.6883,71.5686 35.8683,48.1356 35.2033,47.8716 C32.0843,52.8396 29.6623,62.7946 29.0853,66.3446 C19.2193,63.4846 11.9673,54.2446 12.1923,42.9656 C12.0673,36.5226 14.4493,28.6596 17.0303,25.4156 C18.3583,23.9466 21.4843,19.7786 21.4843,19.7786 C21.4843,19.7786 13.7793,26.0366 13.0993,26.5636 C12.9873,26.6486 12.8443,26.6556 12.7273,26.5956 C11.6233,28.3896 10.7293,30.2256 10.0293,32.1066 C9.9313,32.3696 9.8463,32.6346 9.7573,32.8996 C8.1723,37.7486 7.7783,42.8686 8.4263,47.9776 C8.4283,48.0006 8.4303,48.0246 8.4333,48.0476 C8.5083,48.6236 8.5943,49.1996 8.6943,49.7756 C8.8073,50.4246 8.9383,51.0716 9.0883,51.7136 C9.3853,52.9976 9.7573,54.2686 10.1983,55.5116 C10.6393,56.7556 11.1513,57.9736 11.7323,59.1546 C13.1833,62.1076 15.0623,64.8296 17.3403,67.1556 C18.2513,68.0856 19.2253,68.9526 20.2613,69.7446 C22.3353,71.3286 24.6543,72.6176 27.2063,73.5216 C27.8763,73.7586 28.5573,73.9576 29.2503,74.1216 C29.9413,74.2856 30.6433,74.4116 31.3523,74.5036 C32.0613,74.5966 32.7783,74.6556 33.5003,74.6796 C33.9453,74.6956 34.3933,74.6806 34.8413,74.6706 C34.5253,74.6356 34.2063,74.6206 33.8933,74.5726"/><path id="Fill-47" fill="#FFF" d="M36.7608,34.4189 L36.7608,34.4199 L36.7608,34.4189 Z"/><path id="Fill-49" fill="#FFF" d="M40.5557,31.7676 C40.5577,31.7676 40.5577,31.7686 40.5587,31.7696 C40.5577,31.7686 40.5567,31.7676 40.5557,31.7676"/><path id="Fill-51" fill="#FFF" d="M40.5587,31.7695 C40.5407,31.8505 40.5177,31.9305 40.4977,32.0115 L40.4987,32.0105 C40.5177,31.9295 40.5407,31.8505 40.5587,31.7695"/><path id="Fill-53" fill="#FFF" d="M40.5557,31.7676 C40.5567,31.7676 40.5577,31.7686 40.5587,31.7696 C40.5407,31.8506 40.5177,31.9296 40.4987,32.0106 C40.5177,31.9296 40.5367,31.8496 40.5557,31.7676"/><path id="Fill-55" fill="#FFBE58" d="M10.5997,30.6855 C10.3977,31.1535 10.2087,31.6235 10.0337,32.0955 C10.2037,31.6215 10.4067,31.1555 10.5997,30.6855"/><path id="Fill-57" fill="#FFBE58" d="M28.0616,27.6201 C28.0606,27.6041 28.0586,27.5881 28.0576,27.5721 C28.0626,27.5791 28.0666,27.5871 28.0726,27.5941 C28.0686,27.6021 28.0656,27.6111 28.0616,27.6201 M13.5056,25.3821 C13.5076,25.3801 13.5096,25.3771 13.5116,25.3741 C13.5156,25.3721 13.5216,25.3701 13.5256,25.3681 C13.5196,25.3731 13.5126,25.3781 13.5056,25.3821 M40.5886,15.7981 C38.4326,7.4741 31.0036,-1.5389 21.6476,2.5081 C21.4566,2.5911 21.2656,2.6711 21.0726,2.7651 C21.0726,2.7651 25.7336,2.7321 25.4576,7.0351 C25.0336,13.6731 18.5526,18.0981 14.9686,23.1141 C13.1086,25.5071 11.6806,28.0521 10.5996,30.6851 C11.1946,29.3011 11.9016,27.9361 12.7276,26.5961 C12.8436,26.6551 12.9876,26.6481 13.0996,26.5631 C14.9166,25.1551 17.1316,23.6701 17.8086,23.5101 C17.7936,23.6001 17.7566,23.7241 17.7076,23.8651 C17.6896,23.9151 16.2996,29.0691 16.9416,29.4861 C17.5826,29.9031 20.5226,25.2431 20.8746,25.0721 C20.9836,25.5701 20.8306,27.2051 20.7256,28.3181 C20.4446,31.3081 20.3956,32.4611 20.9966,32.7161 C21.6086,32.9771 22.2076,32.0881 24.2586,28.4311 C25.1086,26.9161 26.3706,24.6661 26.8596,24.3001 C27.0936,24.6671 27.2596,26.4611 27.3606,27.5551 C27.6016,30.1821 27.7526,31.1851 28.3836,31.3081 C29.0116,31.4301 29.6866,30.6051 30.8236,29.1401 C31.3416,28.4711 32.2126,27.3601 32.5026,27.3081 C32.6836,27.4781 32.9426,28.9471 33.0976,29.8251 C33.4326,31.7251 33.6526,32.8071 34.2766,32.9471 C34.9536,33.1021 35.3566,32.0621 36.3186,29.0451 C36.7116,27.8101 37.2966,25.9761 37.6286,25.6161 C37.7346,25.6951 37.8756,25.8951 38.0406,26.1801 C38.6476,27.2291 39.5836,29.4891 40.3026,31.5501 C40.3236,31.6081 40.3586,31.6561 40.4026,31.6931 C40.4466,31.7291 40.4996,31.7551 40.5556,31.7671 C41.7496,26.5281 41.9286,20.9651 40.5886,15.7981"/><path id="Fill-59" fill="#FFF" d="M10.5997,30.6855 C10.3977,31.1535 10.2087,31.6235 10.0337,32.0955 C10.2037,31.6215 10.4067,31.1555 10.5997,30.6855"/><path id="Fill-61" fill="#FFF" d="M28.0616,27.6201 C28.0606,27.6041 28.0586,27.5881 28.0576,27.5721 C28.0626,27.5791 28.0666,27.5871 28.0726,27.5941 C28.0686,27.6021 28.0656,27.6111 28.0616,27.6201 M13.5056,25.3821 C13.5076,25.3801 13.5096,25.3771 13.5116,25.3741 C13.5156,25.3721 13.5216,25.3701 13.5256,25.3681 C13.5196,25.3731 13.5126,25.3781 13.5056,25.3821 M40.5886,15.7981 C38.4326,7.4741 31.0036,-1.5389 21.6476,2.5081 C21.4566,2.5911 21.2656,2.6711 21.0726,2.7651 C21.0726,2.7651 25.7336,2.7321 25.4576,7.0351 C25.0336,13.6731 18.5526,18.0981 14.9686,23.1141 C13.1086,25.5071 11.6806,28.0521 10.5996,30.6851 C11.1946,29.3011 11.9016,27.9361 12.7276,26.5961 C12.8436,26.6551 12.9876,26.6481 13.0996,26.5631 C14.9166,25.1551 17.1316,23.6701 17.8086,23.5101 C17.7936,23.6001 17.7566,23.7241 17.7076,23.8651 C17.6896,23.9151 16.2996,29.0691 16.9416,29.4861 C17.5826,29.9031 20.5226,25.2431 20.8746,25.0721 C20.9836,25.5701 20.8306,27.2051 20.7256,28.3181 C20.4446,31.3081 20.3956,32.4611 20.9966,32.7161 C21.6086,32.9771 22.2076,32.0881 24.2586,28.4311 C25.1086,26.9161 26.3706,24.6661 26.8596,24.3001 C27.0936,24.6671 27.2596,26.4611 27.3606,27.5551 C27.6016,30.1821 27.7526,31.1851 28.3836,31.3081 C29.0116,31.4301 29.6866,30.6051 30.8236,29.1401 C31.3416,28.4711 32.2126,27.3601 32.5026,27.3081 C32.6836,27.4781 32.9426,28.9471 33.0976,29.8251 C33.4326,31.7251 33.6526,32.8071 34.2766,32.9471 C34.9536,33.1021 35.3566,32.0621 36.3186,29.0451 C36.7116,27.8101 37.2966,25.9761 37.6286,25.6161 C37.7346,25.6951 37.8756,25.8951 38.0406,26.1801 C38.6476,27.2291 39.5836,29.4891 40.3026,31.5501 C40.3236,31.6081 40.3586,31.6561 40.4026,31.6931 C40.4466,31.7291 40.4996,31.7551 40.5556,31.7671 C41.7496,26.5281 41.9286,20.9651 40.5886,15.7981"/><path id="Fill-63" fill="#D9CFD3" d="M13.5059,25.3818 C13.5079,25.3798 13.5099,25.3768 13.5119,25.3738 C13.5159,25.3718 13.5219,25.3698 13.5259,25.3678 C13.5199,25.3728 13.5129,25.3778 13.5059,25.3818 M17.7069,23.8648 C17.7039,23.8748 17.6429,24.1028 17.5539,24.4508 C18.0539,23.6748 18.5789,22.9068 19.1609,22.1588 C22.7449,17.1428 29.2259,12.7178 29.6509,6.0808 C29.9249,1.7778 25.2639,1.8098 25.2639,1.8098 C25.4579,1.7158 25.6489,1.6358 25.8409,1.5528 L25.8399,1.5528 C25.8729,1.5388 25.9039,1.5288 25.9379,1.5158 C24.5649,1.5558 23.1309,1.8668 21.6479,2.5078 C21.4559,2.5908 21.2659,2.6708 21.0709,2.7648 C21.0709,2.7648 25.7339,2.7328 25.4579,7.0348 C25.0329,13.6728 18.5529,18.0978 14.9689,23.1138 C13.1089,25.5068 11.6799,28.0518 10.5999,30.6858 C11.1939,29.3008 11.9019,27.9368 12.7279,26.5958 C12.8429,26.6548 12.9869,26.6488 13.0999,26.5638 C14.9169,25.1548 17.1319,23.6698 17.8089,23.5098 C17.7939,23.6008 17.7569,23.7248 17.7069,23.8648"/><path id="Fill-65" fill="#FFF" d="M40.3028,31.5498 C40.3238,31.6088 40.3588,31.6558 40.4028,31.6938 C40.3588,31.6558 40.3238,31.6088 40.3028,31.5498"/><path id="Stroke-67" stroke="#641340" stroke-linecap="round" stroke-linejoin="round" d="M44.6817,62.6396 C43.6437,62.3546 42.5677,61.8336 41.4817,60.9936 C37.7967,58.1436 36.7687,53.0676 36.9057,48.6316 C37.0387,44.2856 38.0877,39.8096 39.4697,35.6976 C41.5877,29.3956 42.2697,22.2806 40.5897,15.7976 C38.3887,7.3036 30.6987,-1.9194 21.0717,2.7646 C21.0717,2.7646 25.7337,2.7326 25.4577,7.0356 C25.0337,13.6726 18.5527,18.0976 14.9687,23.1146 C8.8347,31.0026 7.0757,40.4656 8.6947,49.7756 C10.4987,60.1576 16.9997,69.9036 27.2057,73.5216 C31.5567,75.0636 36.4397,75.0086 41.1427,73.8026"/><path id="Fill-69" fill="#D68F22" d="M18.5997,39.3349 C18.9907,40.4299 20.1947,40.9989 21.2887,40.6079 C22.3827,40.2169 22.9537,39.0129 22.5617,37.9189 C22.1707,36.8249 20.9667,36.2549 19.8717,36.6459 C18.7787,37.0369 18.2077,38.2409 18.5997,39.3349"/><path id="Fill-71" fill="#D68F22" d="M32.3868,69.3554 C32.6118,69.9834 33.3018,70.3104 33.9298,70.0854 C34.5568,69.8614 34.8838,69.1704 34.6588,68.5434 C34.4358,67.9164 33.7448,67.5884 33.1168,67.8134 C32.4898,68.0384 32.1628,68.7284 32.3868,69.3554"/><path id="Fill-73" fill="#D68F22" d="M17.1407,45.4355 C17.3657,46.0635 18.0557,46.3905 18.6837,46.1655 C19.3107,45.9415 19.6377,45.2505 19.4127,44.6235 C19.1897,43.9965 18.4987,43.6685 17.8707,43.8935 C17.2437,44.1185 16.9167,44.8085 17.1407,45.4355"/><path id="Fill-75" fill="#D68F22" d="M13.1251,39.1347 C13.3491,39.7617 14.0391,40.0887 14.6671,39.8637 C15.2951,39.6407 15.6211,38.9497 15.3971,38.3227 C15.1731,37.6947 14.4821,37.3677 13.8541,37.5917 C13.2281,37.8167 12.9001,38.5067 13.1251,39.1347"/><g id="Group-79" transform="translate(0.000000, 0.182000)"><mask id="mask-2" fill="#fff"><use xlink:href="#path-1"/></mask><path id="Fill-77" fill="#E6DFE2" d="M84.7969,126.319 C84.7969,128.352 65.8149,130 42.3989,130 C18.9829,130 -0.0001,128.352 -0.0001,126.319 C-0.0001,124.285 18.9829,122.637 42.3989,122.637 C65.8149,122.637 84.7969,124.285 84.7969,126.319" mask="url(#mask-2)"/></g><path id="Fill-80" fill="#FFBE58" d="M61.2383,70.2158 C56.6183,70.5248 47.9153,72.1338 45.7663,73.1918 C43.1223,74.8438 40.9403,80.2878 40.9403,80.2878 C40.3883,82.2048 34.0193,82.2488 33.4683,80.3318 C30.9513,66.3618 32.9023,55.2188 35.2543,47.8878 L35.2033,47.8718 C24.8123,42.9298 22.8373,36.3158 22.8373,36.3158 C21.9773,34.3388 24.2813,31.6918 25.9233,33.0378 C32.2903,38.9098 39.1313,39.3548 39.1313,39.3548 L39.1293,39.3548 C34.4453,36.8368 31.6343,32.9068 32.1233,27.3908 C32.4613,23.5748 34.2723,20.1838 37.0593,17.5618 L37.0603,17.5628 C37.0603,17.5628 38.0643,5.5398 39.9673,5.0448 C41.8693,4.5498 49.8023,12.0898 49.8023,12.0898 C51.2363,11.9608 52.7133,11.9558 54.2153,12.0898 C55.7523,12.2258 57.2363,12.4978 58.6543,12.8928 C58.6543,12.8928 67.7363,6.8408 69.5223,7.6628 C71.3073,8.4848 70.1573,20.5138 70.1573,20.5138 C72.4293,23.5798 73.6103,27.2288 73.2733,31.0348 C72.7633,36.7818 69.0323,40.2048 63.6323,41.7788 C63.6323,41.7788 70.6263,42.9098 78.1813,38.2908 C80.0583,37.2988 81.7893,40.3518 80.5523,42.1178 C80.5523,42.1178 76.8973,48.3098 65.7313,51.0838 L65.6733,51.0998 C67.9273,59.9178 71.3333,70.5978 69.6843,80.1988 C69.2863,82.3618 62.5043,82.0358 62.3453,80.2818 C61.2973,74.1718 57.4623,70.6218 57.4623,70.6218"/><path id="Fill-82" fill="#FFF" d="M69.4649,30.1767 C62.5519,32.1627 60.3199,25.2227 55.4679,24.5517 C55.3609,24.5527 53.4109,24.3937 53.3399,24.3477 C49.0899,24.1497 40.2779,31.1147 37.0329,27.1137 C36.8749,31.0177 39.2809,34.1307 41.8829,36.8637 C44.8349,39.9637 42.9389,44.5857 41.6749,48.0057 C39.5639,53.7197 37.6399,63.2487 43.2329,67.6597 C45.9319,69.7877 55.1229,68.5157 58.1519,67.1047 C63.3529,64.6827 63.5559,58.2147 62.4809,53.3427 C61.8339,50.4147 60.6509,47.9157 60.1729,44.9417 C59.8709,43.0587 59.6969,40.8087 61.1519,39.2827 C62.7489,37.6077 65.2479,37.0697 66.8649,35.3487 C68.1929,33.9367 69.3709,32.1707 69.4649,30.1767"/><path id="Fill-84" fill="#D68F22" d="M58.501,13.1357 C58.87,13.2197 59.838,13.5947 60.198,13.6957 C60.198,13.6957 66.289,9.2137 69.593,7.8887 C67.528,7.1947 60.939,11.5847 58.501,13.1357"/><path id="Fill-86" fill="#D9CFD3" d="M32.3614,64.4619 C32.3854,63.8989 32.4164,63.3429 32.4534,62.7949 C32.4164,63.3429 32.3844,63.8979 32.3614,64.4619"/><path id="Fill-88" fill="#D9CFD3" d="M22.9034,36.5049 C22.8814,36.4449 22.8654,36.4009 22.8544,36.3679 C22.8654,36.4009 22.8814,36.4439 22.9034,36.5049"/><path id="Fill-90" fill="#D9CFD3" d="M22.8497,36.3545 C22.8427,36.3335 22.8367,36.3155 22.8367,36.3155 C22.8367,36.3155 22.8427,36.3325 22.8497,36.3545"/><path id="Fill-92" fill="#D9CFD3" d="M23.1006,33.8965 C23.1216,33.8605 23.1426,33.8245 23.1656,33.7905 C23.1426,33.8245 23.1216,33.8605 23.1006,33.8965"/><path id="Fill-94" fill="#D9CFD3" d="M32.3047,68.497 C32.3007,68.239 32.2967,67.981 32.2957,67.726 C32.2967,67.981 32.3007,68.238 32.3047,68.497"/><path id="Fill-96" fill="#D9CFD3" d="M32.3057,66.1894 C32.3107,65.8784 32.3207,65.5724 32.3297,65.2664 C32.3207,65.5734 32.3107,65.8784 32.3057,66.1894"/><path id="Fill-98" fill="#D9CFD3" d="M22.6583,35.4179 C22.6573,35.3399 22.6553,35.2619 22.6623,35.1849 C22.6553,35.2619 22.6573,35.3399 22.6583,35.4179"/><path id="Fill-100" fill="#D9CFD3" d="M22.837,36.3154 C22.784,36.1944 22.744,36.0704 22.714,35.9444 C22.744,36.0704 22.784,36.1944 22.837,36.3154"/><path id="Fill-102" fill="#D9CFD3" d="M22.6856,35.0215 C22.6966,34.9505 22.7056,34.8795 22.7206,34.8095 C22.7056,34.8795 22.6966,34.9505 22.6856,35.0215"/><path id="Fill-104" fill="#D9CFD3" d="M22.7725,34.6308 C22.7905,34.5688 22.8065,34.5078 22.8295,34.4478 C22.8065,34.5078 22.7905,34.5688 22.7725,34.6308"/><path id="Fill-106" fill="#D9CFD3" d="M22.6954,35.8242 C22.6794,35.7382 22.6634,35.6522 22.6574,35.5652 C22.6634,35.6522 22.6794,35.7382 22.6954,35.8242"/><path id="Fill-108" fill="#D9CFD3" d="M22.9122,34.2529 C22.9342,34.2039 22.9552,34.1539 22.9792,34.1069 C22.9552,34.1539 22.9342,34.2039 22.9122,34.2529"/><path id="Fill-110" fill="#D9CFD3" d="M32.377,70.7685 C32.368,70.5915 32.358,70.4125 32.351,70.2365 C32.358,70.4125 32.368,70.5905 32.377,70.7685"/><path id="Fill-112" fill="#D9CFD3" d="M32.5089,72.9004 C32.4969,72.7534 32.4889,72.6084 32.4789,72.4634 C32.4889,72.6094 32.4969,72.7534 32.5089,72.9004"/><path id="Fill-114" fill="#D9CFD3" d="M23.876,33.0508 C23.882,33.0468 23.888,33.0428 23.893,33.0388 C23.888,33.0428 23.882,33.0468 23.876,33.0508"/><path id="Fill-116" fill="#D9CFD3" d="M22.9053,36.5097 C23.2283,37.3827 24.8453,41.0977 29.9703,44.8007 C24.8493,41.1007 23.2313,37.3867 22.9053,36.5097"/><path id="Fill-118" fill="#D9CFD3" d="M23.3292,33.5713 C23.3482,33.5493 23.3652,33.5253 23.3842,33.5033 C23.3652,33.5253 23.3482,33.5493 23.3292,33.5713"/><path id="Fill-120" fill="#D9CFD3" d="M23.5909,33.2871 C23.6029,33.2751 23.6149,33.2631 23.6279,33.2511 C23.6139,33.2631 23.6029,33.2751 23.5909,33.2871"/><path id="Fill-122" fill="#D68F22" d="M61.2383,70.2158 L57.4733,70.6208 C58.3153,70.5058 59.1263,70.4068 59.8743,70.3318 C59.7633,70.2188 59.7003,70.1598 59.7003,70.1598 C57.2523,70.4948 54.5373,70.9778 52.2913,71.4778 C53.9833,71.1518 55.7853,70.8528 57.4623,70.6228 C57.4663,70.6258 61.2973,74.1748 62.3453,80.2818 C62.4123,81.0178 63.6423,81.4968 65.0763,81.6528 C65.0493,81.5998 65.0283,81.5388 65.0203,81.4598 C64.1143,76.1818 62.0333,71.0338 61.2383,70.2158"/><path id="Fill-124" fill="#FFBE58" d="M32.1231,27.3906 C32.0371,28.3576 32.0591,29.2726 32.1681,30.1436 C32.1931,30.1556 32.2191,30.1646 32.2441,30.1766 C32.0891,29.2356 32.0421,28.2966 32.1231,27.3906"/><path id="Fill-126" fill="#FFBE58" d="M23.3839,33.5029 C23.4489,33.4269 23.5189,33.3559 23.5909,33.2869 C23.5189,33.3559 23.4489,33.4269 23.3839,33.5029"/><path id="Fill-128" fill="#FFBE58" d="M22.7208,34.8095 C22.7348,34.7485 22.7548,34.6905 22.7728,34.6305 C22.7548,34.6905 22.7348,34.7485 22.7208,34.8095"/><path id="Fill-130" fill="#FFBE58" d="M22.9796,34.1064 C23.0166,34.0344 23.0586,33.9644 23.1006,33.8964 C23.0586,33.9644 23.0166,34.0344 22.9796,34.1064"/><path id="Fill-132" fill="#FFBE58" d="M22.6622,35.1845 C22.6662,35.1295 22.6782,35.0765 22.6852,35.0215 C22.6782,35.0765 22.6662,35.1295 22.6622,35.1845"/><path id="Fill-134" fill="#FFBE58" d="M23.1661,33.79 C23.2171,33.714 23.2721,33.642 23.3291,33.571 C23.2721,33.643 23.2171,33.713 23.1661,33.79"/><path id="Fill-136" fill="#FFBE58" d="M22.8292,34.4482 C22.8532,34.3822 22.8832,34.3172 22.9122,34.2532 C22.8832,34.3172 22.8532,34.3822 22.8292,34.4482"/><path id="Fill-138" fill="#FFBE58" d="M29.9737,44.8027 L29.9737,44.8027 C29.9727,44.8017 29.9717,44.8017 29.9707,44.8007 C29.9717,44.8017 29.9727,44.8017 29.9737,44.8027"/><path id="Fill-140" fill="#FFBE58" d="M22.9053,36.5097 C22.9043,36.5087 22.9033,36.5057 22.9033,36.5047 C22.9033,36.5067 22.9043,36.5077 22.9053,36.5097"/><path id="Fill-142" fill="#FFBE58" d="M23.628,33.251 C23.707,33.179 23.79,33.111 23.876,33.051 C23.79,33.112 23.707,33.178 23.628,33.251"/><path id="Fill-144" fill="#FFBE58" d="M22.8546,36.3681 C22.8526,36.3631 22.8516,36.3591 22.8496,36.3541 C22.8516,36.3601 22.8516,36.3611 22.8546,36.3681"/><path id="Fill-146" fill="#FFBE58" d="M22.7139,35.9443 C22.7049,35.9053 22.7029,35.8643 22.6949,35.8243 C22.7029,35.8643 22.7049,35.9053 22.7139,35.9443"/><path id="Fill-148" fill="#FFBE58" d="M22.6573,35.5654 C22.6543,35.5154 22.6583,35.4664 22.6583,35.4184 C22.6583,35.4664 22.6543,35.5154 22.6573,35.5654"/><path id="Fill-150" fill="#FFBE58" d="M32.296,67.7256 C32.294,67.2076 32.297,66.6956 32.306,66.1896 C32.296,66.6956 32.294,67.2076 32.296,67.7256"/><path id="Fill-152" fill="#FFBE58" d="M32.4786,72.4629 C32.4376,71.8919 32.4046,71.3269 32.3766,70.7689 C32.4046,71.3269 32.4376,71.8919 32.4786,72.4629"/><path id="Fill-154" fill="#FFBE58" d="M32.3506,70.2363 C32.3276,69.6493 32.3136,69.0713 32.3046,68.4973 C32.3136,69.0713 32.3276,69.6493 32.3506,70.2363"/><path id="Fill-156" fill="#FFBE58" d="M32.4532,62.7949 C32.4642,62.6399 32.4742,62.4839 32.4862,62.3299 C32.4742,62.4839 32.4642,62.6399 32.4532,62.7949"/><path id="Fill-158" fill="#FFBE58" d="M32.7012,74.958 C32.6272,74.265 32.5612,73.577 32.5092,72.9 C32.5612,73.577 32.6272,74.265 32.7012,74.958"/><path id="Fill-160" fill="#FFBE58" d="M32.3301,65.2666 C32.3391,64.9956 32.3501,64.7286 32.3611,64.4616 C32.3501,64.7286 32.3391,64.9956 32.3301,65.2666"/><path id="Fill-162" fill="#D68F22" d="M38.9922,47.626 C38.9922,47.626 35.5692,45.995 32.0062,43.53 C29.2472,41.621 26.4042,39.211 25.0012,36.669 C24.2592,35.48 24.2622,33.429 25.7352,32.914 C25.1292,32.535 24.4552,32.648 23.8922,33.039 C23.8882,33.043 23.8822,33.047 23.8762,33.052 C23.7902,33.111 23.7072,33.179 23.6272,33.251 C23.6152,33.263 23.6022,33.275 23.5902,33.287 C23.5182,33.355 23.4492,33.427 23.3842,33.503 C23.3652,33.525 23.3472,33.549 23.3292,33.571 C23.2722,33.642 23.2172,33.714 23.1662,33.79 C23.1422,33.824 23.1222,33.86 23.1002,33.897 C23.0582,33.965 23.0162,34.034 22.9792,34.105 C22.9552,34.154 22.9342,34.204 22.9122,34.253 C22.8832,34.317 22.8532,34.382 22.8292,34.448 C22.8062,34.508 22.7902,34.569 22.7722,34.631 C22.7552,34.69 22.7342,34.749 22.7212,34.81 C22.7052,34.88 22.6962,34.95 22.6852,35.022 C22.6782,35.076 22.6662,35.13 22.6622,35.185 C22.6552,35.262 22.6572,35.34 22.6582,35.418 C22.6582,35.467 22.6542,35.517 22.6572,35.565 C22.6642,35.652 22.6802,35.738 22.6952,35.824 C22.7032,35.864 22.7052,35.904 22.7152,35.944 C22.7442,36.07 22.7842,36.194 22.8372,36.315 C22.8372,36.315 22.8432,36.334 22.8492,36.355 C22.8512,36.358 22.8522,36.363 22.8542,36.368 C22.8652,36.4 22.8812,36.445 22.9022,36.505 C22.9032,36.506 22.9042,36.509 22.9052,36.51 C23.2312,37.387 24.8492,41.101 29.9712,44.801 C29.9712,44.802 29.9722,44.802 29.9732,44.803 C31.4212,45.849 33.1442,46.893 35.2032,47.872 L35.2542,47.888 C34.2742,50.94 33.3752,54.67 32.8312,58.976 C32.8282,58.976 32.8262,58.975 32.8242,58.975 C32.7912,59.233 32.7632,59.501 32.7332,59.764 C32.7102,59.975 32.6842,60.183 32.6622,60.396 C32.5962,61.03 32.5352,61.673 32.4862,62.33 C32.4742,62.484 32.4642,62.64 32.4532,62.795 C32.4162,63.343 32.3862,63.898 32.3612,64.462 C32.3492,64.729 32.3392,64.996 32.3302,65.267 C32.3202,65.572 32.3102,65.879 32.3052,66.189 C32.2972,66.695 32.2942,67.208 32.2962,67.726 C32.2972,67.981 32.3012,68.239 32.3052,68.497 C32.3132,69.071 32.3272,69.649 32.3502,70.236 C32.3582,70.412 32.3692,70.592 32.3772,70.768 C32.4042,71.327 32.4372,71.892 32.4782,72.463 C32.4892,72.608 32.4972,72.753 32.5092,72.9 C32.5612,73.577 32.6272,74.265 32.7012,74.958 C32.7192,75.12 32.7362,75.283 32.7542,75.446 C32.8352,76.155 32.9262,76.87 33.0292,77.595 C33.0482,77.727 33.0682,77.858 33.0882,77.99 C33.2032,78.763 33.3262,79.541 33.4692,80.332 C33.5002,80.441 33.5552,80.542 33.6232,80.639 C33.6432,80.669 33.6692,80.695 33.6922,80.724 C33.7482,80.79 33.8092,80.854 33.8802,80.913 C33.9122,80.94 33.9452,80.968 33.9802,80.993 C34.0612,81.053 34.1512,81.108 34.2482,81.161 C34.2802,81.179 34.3092,81.198 34.3432,81.216 C34.4742,81.281 34.6162,81.34 34.7672,81.394 C34.8122,81.409 34.8612,81.422 34.9072,81.437 C35.0182,81.472 35.1322,81.504 35.2502,81.533 C35.3232,81.552 35.3992,81.567 35.4752,81.583 C35.5692,81.603 35.6662,81.619 35.7642,81.636 C35.8542,81.65 35.9452,81.665 36.0382,81.677 C36.0542,81.679 36.0722,81.68 36.0892,81.682 C35.9542,81.608 35.8532,81.495 35.8042,81.318 C34.4632,73.883 34.6952,66.597 35.6092,60.46 C36.4122,55.066 37.7412,50.562 38.9922,47.626"/><path id="Fill-164" fill="#D68F22" d="M41.3682,38.8916 L41.3662,38.8906 C37.9592,37.0596 35.5502,34.4756 34.6752,31.0806 C34.3472,29.8106 34.2272,28.4296 34.3602,26.9266 C34.7362,22.0086 38.6022,17.7896 38.6022,17.7896 C38.6022,17.7896 38.9152,8.0176 39.9672,5.0446 C38.0642,5.5396 37.0602,17.5626 37.0602,17.5626 L37.0592,17.5616 C34.2722,20.1836 32.4612,23.5756 32.1232,27.3896 C32.0422,28.2966 32.0892,29.2356 32.2442,30.1766 C32.8572,33.8806 35.2522,37.6296 39.1342,39.6266 C42.4522,40.2956 41.3682,38.8916 41.3682,38.8916"/><path id="Fill-166" fill="#D68F22" d="M43.2071,9.6689 C42.3891,9.8819 41.9561,15.0559 41.9561,15.0559 C43.5361,14.0769 45.3631,13.2929 47.4391,12.7009 C47.4391,12.7009 44.0251,9.4559 43.2071,9.6689"/><path id="Fill-168" fill="#D68F22" d="M66.1788,11.959 C66.9478,12.313 66.4638,17.481 66.4638,17.481 C65.0798,16.241 63.4188,15.147 61.4798,14.199 C61.4798,14.199 65.4098,11.605 66.1788,11.959"/><path id="Stroke-170" stroke="#641340" stroke-linecap="round" stroke-linejoin="round" d="M62.4493,80.5937 C62.3903,80.4957 62.3553,80.3917 62.3453,80.2817 C61.2973,74.1717 57.4623,70.6217 57.4623,70.6217"/><path id="Fill-172" fill="#641340" d="M56.0596,25.4082 C55.9896,26.0152 54.6506,26.7402 54.1796,26.6852 C53.7086,26.6302 52.5746,25.6152 52.6446,25.0082 C52.6926,24.6072 56.1146,24.9462 56.0596,25.4082"/><path id="Stroke-174" stroke="#641340" stroke-linecap="round" stroke-linejoin="round" d="M56.0596,25.4082 C55.9896,26.0152 54.6506,26.7402 54.1796,26.6852 C53.7086,26.6302 52.5746,25.6152 52.6446,25.0082 C52.6926,24.6072 56.1146,24.9462 56.0596,25.4082 Z"/><path id="Fill-176" fill="#D68F22" d="M52.1163,29.0664 C52.1163,29.0664 52.4283,31.0394 53.6223,31.1794 C54.8163,31.3194 55.4683,29.4604 55.4683,29.4604 C54.8643,28.9594 53.9903,28.2974 53.9903,28.2974 C53.9903,28.2974 52.8883,28.7644 52.1163,29.0664"/><path id="Stroke-178" stroke="#641340" stroke-linecap="round" stroke-linejoin="round" d="M54.1797,26.6855 L54.0317,27.9455 C54.0317,27.9455 52.6197,29.9645 50.4837,28.2985"/><path id="Stroke-180" stroke="#641340" stroke-linecap="round" stroke-linejoin="round" d="M54.0098,27.9424 C54.0098,27.9424 54.9158,30.2334 57.3788,29.1074"/><path id="Stroke-182" stroke="#641340" stroke-linecap="round" stroke-linejoin="round" d="M52.1163,29.0664 C52.1163,29.0664 52.4283,31.0394 53.6223,31.1794 C54.8163,31.3194 55.4683,29.4604 55.4683,29.4604"/><mask id="mask-4" fill="#fff"><use xlink:href="#path-3"/></mask><polygon id="Fill-184" fill="#D9CFD3" points="21.999 126.501 80.373 126.501 80.373 89.792 21.999 89.792" mask="url(#mask-4)"/><polygon id="Stroke-186" stroke="#641340" stroke-linecap="round" stroke-linejoin="round" points="21.999 126.501 80.373 126.501 80.373 89.792 21.999 89.792" mask="url(#mask-4)"/><path id="Fill-187" fill="#D68F22" d="M38.3565,44.9404 C38.3565,45.4514 37.9425,45.8644 37.4325,45.8644 C36.9215,45.8644 36.5085,45.4514 36.5085,44.9404 C36.5085,44.4304 36.9215,44.0174 37.4325,44.0174 C37.9425,44.0174 38.3565,44.4304 38.3565,44.9404" mask="url(#mask-4)"/><path id="Fill-188" fill="#D68F22" d="M36.2901,41.2099 C36.2901,41.4739 36.0761,41.6879 35.8121,41.6879 C35.5491,41.6879 35.3351,41.4739 35.3351,41.2099 C35.3351,40.9459 35.5491,40.7319 35.8121,40.7319 C36.0761,40.7319 36.2901,40.9459 36.2901,41.2099" mask="url(#mask-4)"/><path id="Fill-189" fill="#D68F22" d="M35.1563,42.6719 C35.1563,42.8419 35.0173,42.9809 34.8473,42.9809 C34.6773,42.9809 34.5393,42.8419 34.5393,42.6719 C34.5393,42.5019 34.6773,42.3629 34.8473,42.3629 C35.0173,42.3629 35.1563,42.5019 35.1563,42.6719" mask="url(#mask-4)"/><path id="Fill-190" fill="#D68F22" d="M61.5215,17.4814 C61.5215,18.1444 60.9835,18.6824 60.3205,18.6824 C59.6575,18.6824 59.1205,18.1444 59.1205,17.4814 C59.1205,16.8184 59.6575,16.2804 60.3205,16.2804 C60.9835,16.2804 61.5215,16.8184 61.5215,17.4814" mask="url(#mask-4)"/><path id="Fill-191" fill="#D68F22" d="M64.8253,44.4795 C64.8253,44.7345 64.6183,44.9405 64.3633,44.9405 C64.1083,44.9405 63.9013,44.7345 63.9013,44.4795 C63.9013,44.2235 64.1083,44.0175 64.3633,44.0175 C64.6183,44.0175 64.8253,44.2235 64.8253,44.4795" mask="url(#mask-4)"/><path id="Fill-192" fill="#D9CFD3" d="M59.545,58.3974 C59.116,58.3974 58.77,58.7444 58.77,59.1724 C58.77,59.6014 59.116,59.9494 59.545,59.9494 C59.974,59.9494 60.32,59.6014 60.32,59.1724 C60.32,58.7444 59.974,58.3974 59.545,58.3974" mask="url(#mask-4)"/><path id="Fill-193" fill="#D9CFD3" d="M44.5557,33.0918 C44.3567,33.0918 44.1947,33.2538 44.1947,33.4538 C44.1947,33.6538 44.3567,33.8158 44.5557,33.8158 C44.7557,33.8158 44.9167,33.6538 44.9167,33.4538 C44.9167,33.2538 44.7557,33.0918 44.5557,33.0918" mask="url(#mask-4)"/><path id="Fill-194" fill="#D9CFD3" d="M45.126,35.8388 C45.011,35.8388 44.917,35.9318 44.917,36.0478 C44.917,36.1628 45.011,36.2558 45.126,36.2558 C45.242,36.2558 45.335,36.1628 45.335,36.0478 C45.335,35.9318 45.242,35.8388 45.126,35.8388" mask="url(#mask-4)"/><path id="Fill-195" fill="#D9CFD3" d="M47.4571,63.2763 C46.9461,63.2763 46.5331,63.6903 46.5331,64.2003 C46.5331,64.7103 46.9461,65.1243 47.4571,65.1243 C47.9671,65.1243 48.3811,64.7103 48.3811,64.2003 C48.3811,63.6903 47.9671,63.2763 47.4571,63.2763" mask="url(#mask-4)"/><path id="Fill-196" fill="#D9CFD3" d="M47.4571,51.7793 C47.4571,51.1933 46.9821,50.7183 46.3961,50.7183 C45.8111,50.7183 45.3351,51.1933 45.3351,51.7793 C45.3351,52.3653 45.8111,52.8403 46.3961,52.8403 C46.9821,52.8403 47.4571,52.3653 47.4571,51.7793" mask="url(#mask-4)"/><path id="Fill-197" fill="#D9CFD3" d="M48.7979,54.7763 C48.4819,54.7763 48.2259,55.0333 48.2259,55.3483 C48.2259,55.6653 48.4819,55.9213 48.7979,55.9213 C49.1129,55.9213 49.3699,55.6653 49.3699,55.3483 C49.3699,55.0333 49.1129,54.7763 48.7979,54.7763" mask="url(#mask-4)"/><path id="Fill-198" fill="#D9CFD3" d="M42.5362,63.0556 C42.2212,63.0556 41.9642,63.3126 41.9642,63.6276 C41.9642,63.9446 42.2212,64.2006 42.5362,64.2006 C42.8512,64.2006 43.1082,63.9446 43.1082,63.6276 C43.1082,63.3126 42.8512,63.0556 42.5362,63.0556" mask="url(#mask-4)"/><path id="Fill-199" fill="#D9CFD3" d="M42.9522,55.3486 C42.7232,55.3486 42.5362,55.5356 42.5362,55.7646 C42.5362,55.9946 42.7232,56.1806 42.9522,56.1806 C43.1812,56.1806 43.3682,55.9946 43.3682,55.7646 C43.3682,55.5356 43.1812,55.3486 42.9522,55.3486" mask="url(#mask-4)"/><path id="Fill-200" fill="#D9CFD3" d="M51.0889,41.9013 C50.8339,41.9013 50.6269,42.1083 50.6269,42.3633 C50.6269,42.6183 50.8339,42.8253 51.0889,42.8253 C51.3439,42.8253 51.5509,42.6183 51.5509,42.3633 C51.5509,42.1083 51.3439,41.9013 51.0889,41.9013" mask="url(#mask-4)"/><path id="Fill-201" fill="#D9CFD3" d="M65.3311,31.1142 C65.0751,31.1142 64.8691,31.3212 64.8691,31.5772 C64.8691,31.8322 65.0751,32.0392 65.3311,32.0392 C65.5861,32.0392 65.7931,31.8322 65.7931,31.5772 C65.7931,31.3212 65.5861,31.1142 65.3311,31.1142" mask="url(#mask-4)"/><path id="Fill-202" fill="#D68F22" d="M66.4932,47.8535 C66.4932,48.6825 65.8212,49.3545 64.9932,49.3545 C64.1642,49.3545 63.4922,48.6825 63.4922,47.8535 C63.4922,47.0255 64.1642,46.3535 64.9932,46.3535 C65.8212,46.3535 66.4932,47.0255 66.4932,47.8535" mask="url(#mask-4)"/><path id="Fill-203" fill="#D68F22" d="M40.9708,70.416 C40.9708,71.245 40.2998,71.917 39.4708,71.917 C38.6418,71.917 37.9698,71.245 37.9698,70.416 C37.9698,69.588 38.6418,68.916 39.4708,68.916 C40.2998,68.916 40.9708,69.588 40.9708,70.416" mask="url(#mask-4)"/><path id="Fill-204" fill="#D68F22" d="M25.3936,59.1728 C25.3936,60.0018 24.7216,60.6738 23.8926,60.6738 C23.0646,60.6738 22.3926,60.0018 22.3926,59.1728 C22.3926,58.3448 23.0646,57.6728 23.8926,57.6728 C24.7216,57.6728 25.3936,58.3448 25.3936,59.1728" mask="url(#mask-4)"/><path id="Fill-205" fill="#FFF" d="M52.6339,12.0898 C54.1709,12.2258 55.6549,12.4978 57.0729,12.8928 C57.0729,12.8928 57.2219,12.7928 57.4829,12.6238 C56.4209,12.3848 55.3379,12.1888 54.2149,12.0898 C53.1959,11.9988 52.1949,11.9938 51.2039,12.0268 C51.6799,12.0418 52.1529,12.0468 52.6339,12.0898" mask="url(#mask-4)"/><path id="Fill-206" fill="#FFF" d="M68.5762,20.5136 C70.8482,23.5796 72.0292,27.2286 71.6922,31.0346 C71.1822,36.7826 68.5252,39.7526 63.4642,41.3426 C63.4642,41.3426 63.1182,41.9476 64.8562,41.8846 C64.0752,41.8506 63.6322,41.7796 63.6322,41.7796 C69.0322,40.2046 72.7632,36.7826 73.2732,31.0346 C73.6102,27.2286 72.4302,23.5796 70.1572,20.5136 C70.1572,20.5136 71.3072,8.4846 69.5222,7.6626 C69.2262,7.5276 68.7212,7.5916 68.1002,7.7726 C69.6552,9.2286 68.5762,20.5136 68.5762,20.5136" mask="url(#mask-4)"/><path id="Fill-207" fill="#FFF" d="M59.6573,70.2158 C58.5913,70.2868 57.3033,70.4298 55.9323,70.6168 L59.6573,70.2158 Z" mask="url(#mask-4)"/><path id="Fill-208" fill="#FFF" d="M48.4444,12.7275 C48.9404,12.6825 49.6254,12.5475 50.1304,12.5345 C49.4034,11.8475 41.7724,4.5745 39.9664,5.0445 C39.8344,5.0795 39.7064,5.1745 39.5824,5.3135 C42.4614,6.6205 48.4444,12.7275 48.4444,12.7275" mask="url(#mask-4)"/><path id="Fill-209" fill="#FFF" d="M78.1817,38.291 C78.1617,38.304 78.1427,38.312 78.1237,38.324 C79.2287,38.967 79.8507,40.863 78.9717,42.118 C78.9717,42.118 76.6487,47.953 65.4827,50.728 L65.1677,51.083 C67.4227,59.901 69.7517,70.598 68.1037,80.199 C67.9387,81.092 66.6837,81.555 65.2577,81.674 C67.2087,81.846 69.4597,81.418 69.6847,80.199 C71.3327,70.598 67.9277,59.918 65.6727,51.1 L65.7317,51.084 C76.8977,48.31 80.5527,42.118 80.5527,42.118 C81.7887,40.352 80.0587,37.298 78.1817,38.291" mask="url(#mask-4)"/><path id="Fill-210" fill="#FFF" d="M55.8819,70.623 C51.3239,71.248 45.8319,72.381 44.1859,73.191 C41.5409,74.844 39.3599,80.288 39.3599,80.288 C39.1229,81.108 37.8209,81.582 36.3669,81.71 C38.3339,81.879 40.6199,81.402 40.9409,80.288 C40.9409,80.288 43.1219,74.844 45.7669,73.191 C47.2489,72.461 51.8529,71.469 56.0819,70.823 C55.9579,70.695 55.8839,70.625 55.8819,70.623" mask="url(#mask-4)"/><path id="Fill-211" fill="#FFF" d="M24.3419,33.0381 C30.7089,38.9101 37.5499,39.3541 37.5499,39.3541 L37.5479,39.3541 C37.3089,39.2251 37.0789,39.0921 36.8499,38.9561 C34.3109,38.3451 30.0249,36.8191 25.9229,33.0381 C25.3509,32.5671 24.6979,32.5911 24.1259,32.8961 C24.1989,32.9391 24.2719,32.9801 24.3419,33.0381" mask="url(#mask-4)"/><path id="Stroke-212" stroke="#641340" stroke-linecap="round" stroke-linejoin="round" d="M33.4688,80.332 C30.9508,66.361 32.9028,55.219 35.2538,47.888 L35.2028,47.872 C24.8128,42.93 22.8368,36.315 22.8368,36.315 C21.9778,34.339 24.2808,31.691 25.9228,33.038 C32.2898,38.91 39.1308,39.354 39.1308,39.354 L39.1288,39.354 C34.4458,36.837 31.6338,32.907 32.1228,27.391 C32.4608,23.575 34.2728,20.184 37.0598,17.561 L37.0608,17.562 C37.0608,17.562 38.0648,5.54 39.9668,5.045 C41.8688,4.55 49.8028,12.09 49.8028,12.09 C51.2368,11.961 52.7128,11.956 54.2148,12.09 C55.7518,12.226 57.2368,12.498 58.6548,12.893 C58.6548,12.893 67.7368,6.841 69.5228,7.663 C71.3078,8.484 70.1568,20.514 70.1568,20.514 C72.4298,23.58 73.6108,27.228 73.2738,31.035 C72.7638,36.782 69.0318,40.205 63.6318,41.779 C63.6318,41.779 70.6258,42.91 78.1818,38.291 C80.0588,37.299 81.7888,40.352 80.5528,42.118 C80.5528,42.118 76.8978,48.31 65.7318,51.084 L65.6728,51.1 C67.9278,59.918 71.3328,70.598 69.6848,80.199" mask="url(#mask-4)"/><path id="Stroke-213" stroke="#641340" stroke-linecap="round" stroke-linejoin="round" d="M61.2383,70.2158 C56.6183,70.5248 47.9153,72.1338 45.7663,73.1918 C43.1223,74.8438 40.9403,80.2878 40.9403,80.2878" mask="url(#mask-4)"/><path id="Fill-214" fill="#FFBE58" d="M74.1661,89.792 L74.1661,82.587 C74.1661,81.646 73.3961,80.877 72.4561,80.877 L29.9151,80.877 C28.9751,80.877 28.2051,81.646 28.2051,82.587 L28.2051,89.792 L74.1661,89.792 Z" mask="url(#mask-4)"/><path id="Fill-215" fill="#D68F22" d="M32.8995,80.8769 L29.9155,80.8769 C28.9745,80.8769 28.2055,81.6469 28.2055,82.5869 L28.2055,89.7919 L31.1895,89.7919 L31.1895,82.5869 C31.1895,81.6469 31.9595,80.8769 32.8995,80.8769" mask="url(#mask-4)"/><path id="Stroke-216" stroke="#641340" stroke-linecap="round" stroke-linejoin="round" stroke-width="1.043" d="M74.1661,89.792 L74.1661,82.587 C74.1661,81.646 73.3961,80.877 72.4561,80.877 L29.9151,80.877 C28.9751,80.877 28.2051,81.646 28.2051,82.587 L28.2051,89.792 L74.1661,89.792 Z" mask="url(#mask-4)"/><path id="Fill-217" fill="#D68F22" d="M66.1065,85.334 C66.1065,85.763 65.7585,86.11 65.3315,86.11 C64.9025,86.11 64.5545,85.763 64.5545,85.334 C64.5545,84.905 64.9025,84.559 65.3315,84.559 C65.7585,84.559 66.1065,84.905 66.1065,85.334" mask="url(#mask-4)"/><path id="Fill-218" fill="#D68F22" d="M60.4688,87.4072 C60.4688,87.9172 60.0548,88.3302 59.5448,88.3302 C59.0348,88.3302 58.6208,87.9172 58.6208,87.4072 C58.6208,86.8962 59.0348,86.4832 59.5448,86.4832 C60.0548,86.4832 60.4688,86.8962 60.4688,87.4072" mask="url(#mask-4)"/><path id="Fill-219" fill="#D68F22" d="M36.709,83.2636 C36.709,83.7736 36.295,84.1876 35.785,84.1876 C35.274,84.1876 34.861,83.7736 34.861,83.2636 C34.861,82.7536 35.274,82.3396 35.785,82.3396 C36.295,82.3396 36.709,82.7536 36.709,83.2636" mask="url(#mask-4)"/><path id="Fill-220" fill="#D68F22" d="M21.504,57.1816 C21.504,57.6916 21.091,58.1056 20.581,58.1056 C20.07,58.1056 19.657,57.6916 19.657,57.1816 C19.657,56.6706 20.07,56.2576 20.581,56.2576 C21.091,56.2576 21.504,56.6706 21.504,57.1816" mask="url(#mask-4)"/><path id="Fill-221" fill="#D68F22" d="M56.4366,83.2636 C56.4366,83.5796 56.1806,83.8356 55.8646,83.8356 C55.5486,83.8356 55.2916,83.5796 55.2916,83.2636 C55.2916,82.9486 55.5486,82.6916 55.8646,82.6916 C56.1806,82.6916 56.4366,82.9486 56.4366,83.2636" mask="url(#mask-4)"/><path id="Fill-222" fill="#D68F22" d="M41.5128,87.4072 C41.5128,87.7222 41.2558,87.9782 40.9408,87.9782 C40.6238,87.9782 40.3678,87.7222 40.3678,87.4072 C40.3678,87.0912 40.6238,86.8352 40.9408,86.8352 C41.2558,86.8352 41.5128,87.0912 41.5128,87.4072" mask="url(#mask-4)"/><path id="Fill-223" fill="#D68F22" d="M74.1661,82.5869 C74.1661,83.4149 73.4941,84.0869 72.6661,84.0869 C71.8371,84.0869 71.1651,83.4149 71.1651,82.5869 C71.1651,81.7579 71.8371,81.0859 72.6661,81.0859 C73.4941,81.0859 74.1661,81.7579 74.1661,82.5869" mask="url(#mask-4)"/><path id="Fill-224" fill="#D68F22" d="M32.8028,85.334 C32.8028,86.163 32.1308,86.835 31.3018,86.835 C30.4738,86.835 29.8018,86.163 29.8018,85.334 C29.8018,84.506 30.4738,83.834 31.3018,83.834 C32.1308,83.834 32.8028,84.506 32.8028,85.334" mask="url(#mask-4)"/><path id="Stroke-225" stroke="#641340" stroke-linecap="round" stroke-linejoin="round" d="M74.1661,89.792 L74.1661,82.587 C74.1661,81.646 73.3961,80.877 72.4561,80.877 L29.9151,80.877 C28.9751,80.877 28.2051,81.646 28.2051,82.587 L28.2051,89.792 L74.1661,89.792 Z" mask="url(#mask-4)"/><path id="Fill-226" fill="#C2B4BA" d="M30.6182,95.6933 L25.5042,95.6933 C25.0332,95.6933 24.6472,95.3083 24.6472,94.8383 L24.6472,93.2863 C24.6472,92.8153 25.0332,92.4293 25.5042,92.4293 L30.6182,92.4293 C31.0892,92.4293 31.4742,92.8153 31.4742,93.2863 L31.4742,94.8383 C31.4742,95.3083 31.0892,95.6933 30.6182,95.6933" mask="url(#mask-4)"/><path id="Fill-227" fill="#C2B4BA" d="M38.1749,95.6933 L33.0609,95.6933 C32.5899,95.6933 32.2039,95.3083 32.2039,94.8383 L32.2039,93.2863 C32.2039,92.8153 32.5899,92.4293 33.0609,92.4293 L38.1749,92.4293 C38.6459,92.4293 39.0299,92.8153 39.0299,93.2863 L39.0299,94.8383 C39.0299,95.3083 38.6459,95.6933 38.1749,95.6933" mask="url(#mask-4)"/><path id="Fill-228" fill="#C2B4BA" d="M34.3965,99.6826 L29.2825,99.6826 C28.8115,99.6826 28.4255,99.2976 28.4255,98.8276 L28.4255,97.2756 C28.4255,96.8046 28.8115,96.4186 29.2825,96.4186 L34.3965,96.4186 C34.8675,96.4186 35.2515,96.8046 35.2515,97.2756 L35.2515,98.8276 C35.2515,99.2976 34.8675,99.6826 34.3965,99.6826" mask="url(#mask-4)"/><path id="Fill-229" fill="#C2B4BA" d="M64.4112,118.4951 L64.4112,120.0471 C64.4112,120.5171 64.7962,120.9031 65.2672,120.9031 L70.3822,120.9031 C70.8522,120.9031 71.2372,120.5171 71.2372,120.0471 L71.2372,118.4951 C71.2372,118.0241 70.8522,117.6401 70.3822,117.6401 L65.2672,117.6401 C64.7962,117.6401 64.4112,118.0241 64.4112,118.4951" mask="url(#mask-4)"/><path id="Fill-230" fill="#C2B4BA" d="M77.9376,117.6396 L72.8236,117.6396 C72.3526,117.6396 71.9676,118.0246 71.9676,118.4946 L71.9676,120.0466 C71.9676,120.5176 72.3526,120.9036 72.8236,120.9036 L77.9376,120.9036 C78.4086,120.9036 78.7936,120.5176 78.7936,120.0466 L78.7936,118.4946 C78.7936,118.0246 78.4086,117.6396 77.9376,117.6396" mask="url(#mask-4)"/><path id="Fill-231" fill="#C2B4BA" d="M74.1602,121.6289 L69.0452,121.6289 C68.5742,121.6289 68.1892,122.0139 68.1892,122.4839 L68.1892,124.0359 C68.1892,124.5069 68.5742,124.8929 69.0452,124.8929 L74.1602,124.8929 C74.6312,124.8929 75.0152,124.5069 75.0152,124.0359 L75.0152,122.4839 C75.0152,122.0139 74.6312,121.6289 74.1602,121.6289" mask="url(#mask-4)"/><path id="Fill-232" fill="#C2B4BA" d="M56.1895,120.0469 L56.1895,118.4949 C56.1895,118.0249 55.8045,117.6399 55.3345,117.6399 L50.2195,117.6399 C49.7495,117.6399 49.3635,118.0249 49.3635,118.4949 L49.3635,120.0469 C49.3635,120.5179 49.7495,120.9029 50.2195,120.9029 L55.3345,120.9029 C55.8045,120.9029 56.1895,120.5179 56.1895,120.0469" mask="url(#mask-4)"/><path id="Fill-233" fill="#C2B4BA" d="M57.7755,120.9033 L62.8905,120.9033 C63.3605,120.9033 63.7465,120.5173 63.7465,120.0473 L63.7465,118.4953 C63.7465,118.0243 63.3605,117.6393 62.8905,117.6393 L57.7755,117.6393 C57.3045,117.6393 56.9205,118.0243 56.9205,118.4953 L56.9205,120.0473 C56.9205,120.5173 57.3045,120.9033 57.7755,120.9033" mask="url(#mask-4)"/><path id="Fill-234" fill="#C2B4BA" d="M61.4307,117.0693 L66.5447,117.0693 C67.0167,117.0693 67.4017,116.6843 67.4017,116.2133 L67.4017,114.6613 C67.4017,114.1903 67.0167,113.8053 66.5447,113.8053 L61.4307,113.8053 C60.9597,113.8053 60.5757,114.1903 60.5757,114.6613 L60.5757,116.2133 C60.5757,116.6843 60.9597,117.0693 61.4307,117.0693" mask="url(#mask-4)"/><path id="Fill-235" fill="#C2B4BA" d="M59.1124,121.6289 L53.9974,121.6289 C53.5264,121.6289 53.1414,122.0139 53.1414,122.4839 L53.1414,124.0359 C53.1414,124.5069 53.5264,124.8929 53.9974,124.8929 L59.1124,124.8929 C59.5834,124.8929 59.9674,124.5069 59.9674,124.0359 L59.9674,122.4839 C59.9674,122.0139 59.5834,121.6289 59.1124,121.6289" mask="url(#mask-4)"/><path id="Fill-236" fill="#C2B4BA" d="M66.6358,121.6289 L61.5218,121.6289 C61.0508,121.6289 60.6658,122.0139 60.6658,122.4839 L60.6658,124.0359 C60.6658,124.5069 61.0508,124.8929 61.5218,124.8929 L66.6358,124.8929 C67.1068,124.8929 67.4918,124.5069 67.4918,124.0359 L67.4918,122.4839 C67.4918,122.0139 67.1068,121.6289 66.6358,121.6289" mask="url(#mask-4)"/><path id="Fill-237" fill="#FFBE58" d="M63.1602,118.2412 L39.0182,118.2412 C37.8382,118.2412 36.8722,117.2752 36.8722,116.0952 L36.8722,100.1972 C36.8722,99.0162 37.8382,98.0512 39.0182,98.0512 L63.1602,98.0512 C64.3402,98.0512 65.3062,99.0162 65.3062,100.1972 L65.3062,116.0952 C65.3062,117.2752 64.3402,118.2412 63.1602,118.2412" mask="url(#mask-4)"/><path id="Fill-238" fill="#D68F22" d="M61.3096,103.2666 L54.7016,103.2666 L57.3716,109.3146 L61.3096,109.3146 C61.9836,109.3146 62.5356,108.7626 62.5356,108.0886 L62.5356,104.4926 C62.5356,103.8186 61.9836,103.2666 61.3096,103.2666" mask="url(#mask-4)"/><path id="Fill-239" fill="#D68F22" d="M42.3116,103.2666 C41.6366,103.2666 41.0856,103.8186 41.0856,104.4926 L41.0856,108.0886 C41.0856,108.7626 41.6366,109.3146 42.3116,109.3146 L46.8676,109.3146 L44.1986,103.2666 L42.3116,103.2666 Z" mask="url(#mask-4)"/><polygon id="Fill-240" fill="#D68F22" points="54.983 109.314 52.315 103.266 49.986 103.266 52.816 109.314" mask="url(#mask-4)"/><polygon id="Fill-241" fill="#D68F22" points="53.609 111.007 54.553 113.026 56.622 113.026 55.73 111.007" mask="url(#mask-4)"/><path id="Fill-242" fill="#D68F22" d="M59.3506,113.0254 C59.6906,113.0254 59.9676,112.7484 59.9676,112.4084 L59.9676,111.6244 C59.9676,111.2854 59.6906,111.0064 59.3506,111.0064 L58.1186,111.0064 L59.0086,113.0254 L59.3506,113.0254 Z" mask="url(#mask-4)"/><path id="Fill-243" fill="#D68F22" d="M44.2706,111.0068 C43.9306,111.0068 43.6536,111.2848 43.6536,111.6238 L43.6536,112.4078 C43.6536,112.7478 43.9306,113.0258 44.2706,113.0258 L48.5056,113.0258 L47.6146,111.0068 L44.2706,111.0068 Z" mask="url(#mask-4)"/><polygon id="Fill-244" fill="#FFF" points="50.808 118.241 56.995 118.241 54.554 113.025 48.506 113.025" mask="url(#mask-4)"/><polygon id="Fill-245" fill="#FFF" points="47.545 98.051 41.896 98.051 44.198 103.267 49.986 103.267" mask="url(#mask-4)"/><polygon id="Fill-246" fill="#FFF" points="52.816 109.314 46.867 109.314 47.614 111.006 53.609 111.006" mask="url(#mask-4)"/><polygon id="Fill-247" fill="#FFF" points="49.986 103.267 44.198 103.267 46.867 109.315 52.816 109.315" mask="url(#mask-4)"/><polygon id="Fill-248" fill="#FFF" points="47.614 111.007 48.506 113.026 54.553 113.026 53.609 111.007" mask="url(#mask-4)"/><polygon id="Fill-249" fill="#FFF" points="55.73 111.007 58.118 111.007 57.371 109.315 54.983 109.315" mask="url(#mask-4)"/><polygon id="Fill-250" fill="#FFF" points="58.924 118.241 61.312 118.241 59.009 113.025 56.622 113.025" mask="url(#mask-4)"/><polygon id="Fill-251" fill="#FFF" points="52.4 98.051 50.011 98.051 52.315 103.267 54.702 103.267" mask="url(#mask-4)"/><polygon id="Fill-252" fill="#FFF" points="52.315 103.267 54.983 109.315 57.371 109.315 54.702 103.267" mask="url(#mask-4)"/><polygon id="Fill-253" fill="#FFF" points="56.622 113.025 59.009 113.025 58.118 111.006 55.73 111.006" mask="url(#mask-4)"/><path id="Fill-254" fill="#D68F22" d="M38.5831,116.0947 L38.5831,100.1977 C38.5831,99.0167 39.5491,98.0507 40.7291,98.0507 L39.0191,98.0507 C37.8381,98.0507 36.8721,99.0167 36.8721,100.1977 L36.8721,116.0947 C36.8721,117.2757 37.8381,118.2407 39.0191,118.2407 L40.7291,118.2407 C39.5491,118.2407 38.5831,117.2757 38.5831,116.0947" mask="url(#mask-4)"/><path id="Stroke-255" stroke="#641340" stroke-linecap="round" stroke-linejoin="round" d="M63.1602,118.2412 L39.0182,118.2412 C37.8382,118.2412 36.8722,117.2752 36.8722,116.0952 L36.8722,100.1972 C36.8722,99.0162 37.8382,98.0512 39.0182,98.0512 L63.1602,98.0512 C64.3402,98.0512 65.3062,99.0162 65.3062,100.1972 L65.3062,116.0952 C65.3062,117.2752 64.3402,118.2412 63.1602,118.2412 Z" mask="url(#mask-4)"/><path id="Stroke-256" stroke="#641340" stroke-linecap="round" stroke-linejoin="round" stroke-width=".75" d="M41.6612,115.7099 C41.6612,116.2259 41.2422,116.6449 40.7252,116.6449 C40.2102,116.6449 39.7912,116.2259 39.7912,115.7099 C39.7912,115.1929 40.2102,114.7739 40.7252,114.7739 C41.2422,114.7739 41.6612,115.1929 41.6612,115.7099 Z" mask="url(#mask-4)"/><path id="Stroke-257" stroke="#641340" stroke-linecap="round" stroke-linejoin="round" stroke-width=".75" d="M63.4698,115.7099 C63.4698,116.2259 63.0518,116.6449 62.5348,116.6449 C62.0188,116.6449 61.5998,116.2259 61.5998,115.7099 C61.5998,115.1929 62.0188,114.7739 62.5348,114.7739 C63.0518,114.7739 63.4698,115.1929 63.4698,115.7099 Z" mask="url(#mask-4)"/><path id="Stroke-258" stroke="#641340" stroke-linecap="round" stroke-linejoin="round" stroke-width=".75" d="M41.6612,100.6592 C41.6612,101.1752 41.2422,101.5942 40.7252,101.5942 C40.2102,101.5942 39.7912,101.1752 39.7912,100.6592 C39.7912,100.1422 40.2102,99.7232 40.7252,99.7232 C41.2422,99.7232 41.6612,100.1422 41.6612,100.6592 Z" mask="url(#mask-4)"/><path id="Stroke-259" stroke="#641340" stroke-linecap="round" stroke-linejoin="round" stroke-width=".75" d="M63.4698,100.6592 C63.4698,101.1752 63.0518,101.5942 62.5348,101.5942 C62.0188,101.5942 61.5998,101.1752 61.5998,100.6592 C61.5998,100.1422 62.0188,99.7232 62.5348,99.7232 C63.0518,99.7232 63.4698,100.1422 63.4698,100.6592 Z" mask="url(#mask-4)"/><path id="Fill-260" fill="#D68F22" d="M46.8868,24.5957 C46.8868,24.5957 45.4618,25.7967 43.8458,25.6557 C42.2308,25.5137 41.0348,24.0837 41.0348,24.0837 C41.0348,24.0837 42.4598,22.8827 44.0758,23.0247 C45.6928,23.1647 46.8868,24.5957 46.8868,24.5957" mask="url(#mask-4)"/><path id="Fill-261" fill="#D68F22" d="M66.9727,26.4131 C66.9727,26.4131 65.5477,27.6141 63.9317,27.4731 C62.3157,27.3311 61.1207,25.9011 61.1207,25.9011 C61.1207,25.9011 62.5457,24.7001 64.1617,24.8421 C65.7777,24.9831 66.9727,26.4131 66.9727,26.4131" mask="url(#mask-4)"/><path id="Stroke-262" stroke="#641340" stroke-linecap="round" stroke-linejoin="round" d="M46.8868,24.5957 C46.8868,24.5957 45.4618,25.7967 43.8458,25.6557 C42.2308,25.5137 41.0348,24.0837 41.0348,24.0837 C41.0348,24.0837 42.4598,22.8827 44.0758,23.0247 C45.6928,23.1647 46.8868,24.5957 46.8868,24.5957 Z" mask="url(#mask-4)"/><path id="Stroke-263" stroke="#641340" stroke-linecap="round" stroke-linejoin="round" d="M66.9727,26.4131 C66.9727,26.4131 65.5477,27.6141 63.9317,27.4731 C62.3157,27.3311 61.1207,25.9011 61.1207,25.9011 C61.1207,25.9011 62.5457,24.7001 64.1617,24.8421 C65.7777,24.9831 66.9727,26.4131 66.9727,26.4131 Z" mask="url(#mask-4)"/></g></g></svg>