<svg xmlns="http://www.w3.org/2000/svg" xmlns:xlink="http://www.w3.org/1999/xlink" width="66" height="128" version="1.1" viewBox="0 0 66 128"><title>Action</title><desc>Created with Sketch.</desc><defs><polygon id="path-1" points="57.06 8 .5 8 .5 .312 57.06 .312 57.06 8"/></defs><g id="Page-1" fill="none" fill-rule="evenodd" stroke="none" stroke-width="1"><g id="Action"><g id="Group-3" transform="translate(0.000000, 119.442000)"><mask id="mask-2" fill="#fff"><use xlink:href="#path-1"/></mask><path id="Fill-1" fill="#D9CFD3" d="M57.0596,4.1556 C57.0596,6.2786 44.3986,8.0006 28.7796,8.0006 C13.1616,8.0006 0.4996,6.2786 0.4996,4.1556 C0.4996,2.0326 13.1616,0.3116 28.7796,0.3116 C44.3986,0.3116 57.0596,2.0326 57.0596,4.1556" mask="url(#mask-2)"/></g><path id="Fill-4" fill="#D9004F" d="M45.0566,74.7382 L49.8336,87.9552 L54.6126,83.5382 C54.6126,83.5382 52.9036,76.3712 45.0566,74.7382"/><g id="Group-9" transform="translate(12.000000, 82.442000)"><path id="Fill-6" fill="#641340" d="M2.8349,0.014 C2.8349,0.014 -1.2271,4.769 0.5119,8.754 C1.1419,10.198 2.4399,10.993 3.6689,11.863 C5.0549,12.843 6.8089,14.028 7.6059,15.574 C8.1099,16.553 8.2949,18.14 9.5539,18.482 C11.2769,18.949 12.1809,17.108 12.4019,15.703 C12.8909,12.602 12.7669,9.037 9.7929,7.236"/><path id="Stroke-8" stroke="#641340" stroke-linecap="round" stroke-linejoin="round" d="M2.8349,0.014 C2.8349,0.014 -1.2271,4.769 0.5119,8.754 C1.1419,10.198 2.4399,10.993 3.6689,11.863 C5.0549,12.843 6.8089,14.028 7.6059,15.574 C8.1099,16.553 8.2949,18.14 9.5539,18.482 C11.2769,18.949 12.1809,17.108 12.4019,15.703 C12.8909,12.602 12.7669,9.037 9.7929,7.236"/></g><polygon id="Fill-10" fill="#641340" points="22.528 111.663 25.224 115.926 29.714 116.234 43.123 115.926 46.903 115.288 48.586 106.288 44.518 91.726 36.832 88.663 30.028 92.262 27.653 100.998 23.688 111.788"/><path id="Fill-12" fill="#FF3671" d="M28.6123,116.1112 C28.6123,116.1112 39.0593,116.4862 43.1233,115.9252 C43.1233,115.9252 48.0283,94.8482 42.1903,74.2302 L29.5253,74.1192 C34.2783,101.5382 28.6123,116.1112 28.6123,116.1112"/><path id="Fill-14" fill="#FF3671" d="M47.3135,76.5858 C46.2695,74.2308 42.1905,74.2308 42.1905,74.2308 C45.0305,84.3558 45.5665,93.5948 45.2695,100.7888 C46.1595,109.2218 45.8255,115.4658 45.8255,115.4658 C48.9715,115.0858 52.0245,114.5418 54.9505,113.7748 C55.5195,103.4348 47.9775,77.8628 47.3135,76.5858"/><path id="Fill-16" fill="#FF3671" d="M29.5254,71.0829 L29.5254,74.1189 C30.1894,75.8269 41.7954,75.5419 42.1904,74.2299 L42.1904,71.0829 L29.5254,71.0829 Z"/><path id="Fill-18" fill="#D9004F" d="M32.4658,71.0829 L29.5258,71.0829 L29.5258,74.1189 C29.7238,74.6299 30.9038,74.9609 32.4658,75.1419 L32.4658,71.0829 Z"/><path id="Fill-20" fill="#641340" d="M25.0068,123.9364 C25.7918,124.5654 26.9518,124.5934 27.8608,124.3024 C29.3538,123.8244 30.2878,122.2464 31.0888,120.7844 C31.8638,119.3704 32.6398,117.9574 33.4148,116.5424 L24.4918,115.8804 C23.8248,118.1324 22.8658,122.2174 25.0068,123.9364"/><path id="Stroke-22" stroke="#641340" stroke-linecap="round" stroke-linejoin="round" d="M25.0068,123.9364 C25.7918,124.5654 26.9518,124.5934 27.8608,124.3024 C29.3538,123.8244 30.2878,122.2464 31.0888,120.7844 C31.8638,119.3704 32.6398,117.9574 33.4148,116.5424 L24.4918,115.8804 C23.8248,118.1324 22.8658,122.2174 25.0068,123.9364 Z"/><path id="Fill-24" fill="#641340" d="M40.3203,116.2294 C39.6833,118.3904 38.7673,122.3094 40.8123,123.9584 C41.5613,124.5624 42.6703,124.5884 43.5373,124.3094 C44.9633,123.8504 45.8543,122.3354 46.6203,120.9334 C47.3603,119.5784 48.7413,116.3824 49.4813,115.0264 L40.3203,116.2294 Z"/><path id="Stroke-26" stroke="#641340" stroke-linecap="round" stroke-linejoin="round" d="M40.3203,116.2294 C39.6833,118.3904 38.7673,122.3094 40.8123,123.9584 C41.5613,124.5624 42.6703,124.5884 43.5373,124.3094 C44.9633,123.8504 45.8543,122.3354 46.6203,120.9334 C47.3603,119.5784 48.7413,116.3824 49.4813,115.0264 L40.3203,116.2294 Z"/><path id="Fill-28" fill="#FFC3AC" d="M59.2646,45.954 C59.2646,45.954 63.7706,44.067 63.6966,48.969 C63.6216,53.869 58.1186,54.56 58.1186,54.56 L59.2646,45.954 Z"/><path id="Stroke-30" stroke="#641340" stroke-linecap="round" stroke-linejoin="round" d="M59.2646,45.954 C59.2646,45.954 63.7706,44.067 63.6966,48.969 C63.6216,53.869 58.1186,54.56 58.1186,54.56"/><path id="Fill-32" fill="#FFBE58" d="M64.8164,31.8075 C64.3424,33.9895 61.9704,34.7475 61.9704,34.7475 C64.2474,21.2765 54.7604,13.9715 54.7604,13.9715 C55.2344,16.9115 53.9064,19.2845 53.9064,19.2845 C50.8714,8.4685 39.7714,5.1485 39.7714,5.1485 C41.6684,8.1845 40.7194,11.5045 40.7194,11.5045 C32.2764,0.8795 16.5274,0.4995 16.5274,0.4995 C9.5074,9.7965 9.7424,23.1735 9.7424,23.1735 C6.9414,17.7665 8.3694,11.6945 8.3694,11.6945 C2.1074,23.0785 4.7634,36.0765 4.7634,36.0765 C2.4874,33.0395 1.8234,27.4435 1.8234,27.4435 C-2.8266,45.2785 6.2694,52.7735 6.2694,52.7735 L14.0144,52.3635 L16.6534,56.9545 L16.3214,52.2415 L60.2374,49.9155 C65.8984,41.4725 64.8164,31.8075 64.8164,31.8075"/><path id="Fill-34" fill="#FFF" d="M18.4062,1.3944 C18.4062,1.3944 34.0472,3.2774 41.4362,14.6614 C41.4362,14.6614 42.6982,11.4464 41.0992,8.2434 C41.0992,8.2434 51.8312,12.6084 53.8192,23.6644 C53.8192,23.6644 55.3682,21.4304 55.1772,18.4564 C55.1772,18.4564 63.9582,23.8574 60.4042,37.0494 C60.4042,37.0494 62.9582,36.8104 63.4872,35.9244 C63.4872,35.9244 63.5732,43.0144 60.6152,49.3034 C65.8282,41.0114 64.8172,31.8064 64.8172,31.8064 C64.3432,33.9894 61.9702,34.7484 61.9702,34.7484 C64.2482,21.2764 54.7602,13.9714 54.7602,13.9714 C55.2352,16.9124 53.9062,19.2844 53.9062,19.2844 C50.8712,8.4684 39.7712,5.1484 39.7712,5.1484 C41.6692,8.1844 40.7192,11.5044 40.7192,11.5044 C32.2762,0.8794 16.5272,0.4994 16.5272,0.4994 C11.3312,7.3814 10.1112,16.4934 9.8272,20.7654 C10.5442,16.4764 12.6492,7.6684 18.4062,1.3944"/><path id="Fill-36" fill="#D68F22" d="M4.0596,35.9442 C4.0596,35.9442 7.7016,41.4342 8.2786,42.2292 C5.1576,24.1492 8.3696,11.6942 8.3696,11.6942 C3.0996,21.2752 4.1456,31.9952 4.6096,35.1532 C4.7406,35.0852 4.0596,35.9442 4.0596,35.9442"/><path id="Fill-38" fill="#D68F22" d="M13.0713,47.5429 C13.0713,47.5429 11.4813,46.6849 10.8203,46.7049 C1.6113,43.7249 1.8233,27.4429 1.8233,27.4429 C-2.2627,45.6629 6.2693,52.7729 6.2693,52.7729 L14.0143,52.3629 L14.1773,52.6469 C13.7273,50.9669 13.3683,49.2659 13.0713,47.5429"/><path id="Fill-40" fill="#D68F22" d="M11.7783,31.538 C11.7783,31.538 13.2383,10.067 19.3823,1.929 C19.3823,1.929 33.1683,2.261 40.5583,11.561 C40.5583,11.561 40.5783,11.489 40.6043,11.368 C32.1343,0.88 16.5273,0.5 16.5273,0.5 C11.9603,5.181 8.7033,23.124 9.1843,23.206 C9.1843,23.206 9.9663,26.637 11.7783,31.538"/><path id="Fill-42" fill="#FFC3AC" d="M55.2295,38.16 L54.9025,38.008 C54.9045,38.014 54.9075,38.016 54.9095,38.022 C55.2285,38.83 55.3905,39.672 55.5715,40.514 C56.6185,43.059 56.4495,45.8 57.1185,48.439 C57.4345,49.689 55.5055,50.218 55.1895,48.971 C54.8355,47.578 54.7545,46.097 54.5755,44.649 C54.3865,44.537 54.2265,44.365 54.1475,44.096 C53.4335,41.649 52.1195,39.534 50.4055,37.662 C50.1305,37.362 50.1005,37.021 50.1925,36.718 C49.9085,36.425 49.6485,36.109 49.4155,35.751 C49.3335,35.626 49.2885,35.502 49.2665,35.383 L48.3915,34.975 C47.5665,35.708 46.3035,35.66 45.2465,35.347 C44.1925,35.033 43.2395,34.518 42.1265,34.415 C41.0785,34.316 40.0065,34.518 39.0615,34.932 C38.2545,35.286 37.3495,35.73 36.4575,35.411 C36.0845,35.277 35.7655,35.02 35.3885,34.902 C34.8145,34.723 34.2655,34.932 33.7855,35.247 C33.3595,35.526 32.9665,35.869 32.4905,36.047 C31.7055,36.339 30.8315,36.139 30.0235,35.919 C29.2155,35.697 28.3655,35.454 27.5545,35.666 C26.6405,35.906 26.2305,36.617 25.5935,37.223 C24.7495,38.025 23.4365,38.328 22.3215,38.532 C21.1515,38.746 19.8255,38.857 18.6845,38.444 C18.6845,38.444 15.7745,42.792 16.6535,56.955 C12.1915,52.209 12.7665,41.602 12.7665,41.602 C7.9615,44.884 9.4755,49.706 9.4755,49.706 C10.5165,53.08 11.7245,56.433 13.2145,59.636 C14.2355,61.827 15.3025,63.973 17.2855,65.417 C22.9985,69.575 31.8755,71.789 36.4505,71.789 C41.0255,71.789 46.3405,69.811 50.4545,67.637 C58.5795,63.34 60.0535,53.677 60.7065,45.278 C60.7065,45.278 61.8335,39.516 55.2295,38.16"/><path id="Fill-44" fill="#ECA28A" d="M52.4541,64.7851 C48.3411,66.9601 43.0251,68.9371 38.4501,68.9371 C33.8751,68.9371 24.9981,66.7231 19.2851,62.5651 C17.3031,61.1221 16.7161,58.4791 15.6951,56.2881 C14.2041,53.0871 13.4031,45.3701 12.3621,41.9971 L11.7451,42.4181 C8.2071,45.6261 9.4751,49.7061 9.4751,49.7061 C10.5161,53.0801 11.7251,56.4331 13.2151,59.6361 C14.2351,61.8271 15.3031,63.9731 17.2851,65.4171 C22.9981,69.5751 31.8751,71.7891 36.4501,71.7891 C41.0251,71.7891 46.3411,69.8111 50.4541,67.6371 C53.3711,66.0941 55.4211,63.8531 56.8931,61.2341 C55.6881,62.6261 54.2391,63.8411 52.4541,64.7851"/><path id="Fill-46" fill="#FF3671" d="M24.0254,92.2616 C24.2144,90.5536 24.3694,88.7216 24.4644,87.5596 C23.7694,88.6656 21.7934,89.6776 21.7934,89.6776 C15.3894,85.7876 14.0614,80.5706 14.0614,80.5706 C19.3744,74.8776 29.5254,74.1186 29.5254,74.1186 L29.5254,71.0836 L29.5254,74.1186 C34.7744,106.8806 25.2244,115.9256 25.2244,115.9256 C15.4214,115.4826 12.5114,112.3206 12.5114,112.3206 C17.6984,110.0586 20.5474,105.6336 22.1624,100.9976"/><path id="Fill-48" fill="#D9004F" d="M17.9453,114.58 C29.1123,103.872 27.2783,85.08 27.2783,85.08 L24.1323,87.184 C24.1263,87.18 24.2913,89.669 24.2843,89.665 C24.2093,90.493 24.1223,91.393 24.0253,92.262 L22.1623,100.998 C20.5483,105.634 17.6983,110.059 12.5113,112.32 C12.5113,112.32 15.4213,115.482 25.2243,115.926 C25.2243,115.926 25.2863,115.864 25.3883,115.75 C17.4733,114.96 17.9453,114.58 17.9453,114.58"/><path id="Stroke-50" stroke="#641340" stroke-linecap="round" stroke-linejoin="round" d="M22.1621,100.998 C20.5481,105.634 17.6981,110.059 12.5121,112.32 C12.5121,112.32 15.4211,115.482 25.2251,115.926 C25.2251,115.926 34.7741,106.881 29.5251,74.119"/><path id="Fill-52" fill="#FFC3AC" d="M22.9092,94.6864 C21.6872,95.6404 20.0962,96.2804 18.5202,96.5754 C18.9552,97.0194 19.3372,97.4954 19.6052,98.0154 C20.1102,98.9954 20.2952,100.5824 21.5542,100.9234 C23.2772,101.3904 24.1802,99.5494 24.4022,98.1454 C24.6572,96.5284 24.7402,94.7874 24.3452,93.2344 C23.9222,93.7654 23.4542,94.2604 22.9092,94.6864"/><path id="Fill-54" fill="#ECA28A" d="M23.1367,99.9511 C21.8777,99.6091 21.6947,98.0221 21.1887,97.0421 C21.0007,96.6781 20.7437,96.3411 20.4647,96.0151 C19.8307,96.2561 19.1777,96.4521 18.5207,96.5751 C18.9547,97.0191 19.3367,97.4951 19.6057,98.0151 C20.1107,98.9951 20.2947,100.5821 21.5537,100.9241 C22.5157,101.1841 23.2137,100.7171 23.6887,100.0161 C23.5147,100.0181 23.3317,100.0041 23.1367,99.9511"/><path id="Stroke-56" stroke="#641340" stroke-linecap="round" stroke-linejoin="round" d="M29.5254,74.119 C29.5254,74.119 19.3744,74.878 14.0614,80.57 C14.0614,80.57 15.3894,85.788 21.7934,89.678 C21.7934,89.678 23.4764,88.59 24.4644,87.559 C24.3694,88.722 24.2144,90.554 24.0254,92.262"/><path id="Stroke-58" stroke="#641340" stroke-linecap="round" stroke-linejoin="round" d="M42.1904,71.0839 L42.1904,74.2309 C41.7944,75.5419 30.1894,75.8269 29.5254,74.1189 L29.5254,71.0839"/><path id="Stroke-60" stroke="#641340" stroke-linecap="round" stroke-linejoin="round" d="M31.0791,90.244 C33.4881,105.611 28.6121,116.111 28.6121,116.111 C32.3101,116.621 39.0591,116.486 43.1231,115.926 C43.1231,115.926 48.6881,97.394 42.1901,74.231 C42.1901,74.231 43.6571,74.231 45.0571,74.738 C45.9911,75.078 46.8951,75.642 47.3131,76.586 C47.9771,77.863 55.5191,103.434 54.9501,113.775 C52.0241,114.542 48.9721,115.086 45.8251,115.466 C45.8251,115.466 46.1591,109.222 45.2691,100.789"/><path id="Stroke-62" stroke="#641340" stroke-linecap="round" stroke-linejoin="round" d="M14.8349,82.456 C14.8349,82.456 10.7729,87.211 12.5119,91.196 C13.1419,92.64 14.4399,93.435 15.6689,94.305 C17.0549,95.285 18.8089,96.47 19.6059,98.016 C20.1099,98.995 20.2949,100.582 21.5539,100.924 C23.2769,101.391 24.1809,99.55 24.4019,98.145 C24.8909,95.044 24.7669,91.479 21.7929,89.678"/><path id="Stroke-64" stroke="#641340" stroke-linecap="round" stroke-linejoin="round" d="M18.6504,96.703 C18.6504,96.703 22.1914,95.986 24.3164,93.117"/><path id="Fill-66" fill="#FFC3AC" d="M10.0625,51.5458 C10.0625,51.5458 5.2385,50.7808 6.4715,55.5248 C7.7055,60.2688 13.2145,59.6358 13.2145,59.6358 L10.0625,51.5458 Z"/><path id="Stroke-68" stroke="#641340" stroke-linecap="round" stroke-linejoin="round" d="M24.4922,115.8808 C23.8262,118.1328 22.8662,122.2178 25.0072,123.9368 C25.7922,124.5658 26.9522,124.5938 27.8602,124.3028 C29.3532,123.8238 30.2882,122.2458 31.0892,120.7838 C31.8642,119.3698 32.6392,117.9568 33.4152,116.5428"/><path id="Stroke-70" stroke="#641340" stroke-linecap="round" stroke-linejoin="round" d="M40.3203,116.2294 C39.6833,118.3904 38.7673,122.3094 40.8123,123.9584 C41.5613,124.5624 42.6703,124.5884 43.5373,124.3094 C44.9633,123.8504 45.8543,122.3354 46.6203,120.9344 C47.3603,119.5784 48.7413,116.3824 49.4813,115.0264"/><path id="Stroke-72" stroke="#641340" stroke-linecap="round" stroke-linejoin="round" d="M12.7666,41.6024 C7.9616,44.8834 9.4756,49.7064 9.4756,49.7064 C10.5166,53.0804 11.7246,56.4344 13.2146,59.6354 C14.2356,61.8274 15.3026,63.9734 17.2856,65.4164 C22.9976,69.5754 31.8746,71.7894 36.4506,71.7894 C41.0266,71.7894 46.3406,69.8114 50.4546,67.6364 C58.5796,63.3394 60.0536,53.6764 60.7056,45.2784 C60.7056,45.2784 61.8326,39.5164 55.2296,38.1604"/><path id="Fill-74" fill="#D68F22" d="M45.2051,19.703 C49.8181,27.696 48.7861,34.577 48.7861,34.577 L46.4261,35.182 C46.4261,35.182 48.0791,28.41 45.2051,19.703"/><path id="Fill-76" fill="#FFBE58" d="M21.8056,34.788 C21.4266,34.843 17.4876,33.174 17.0966,33.325 C12.4486,35.128 9.8866,48.599 17.0966,57.991 C14.3376,48.135 17.2846,37.976 21.8056,34.788"/><path id="Fill-78" fill="#FFBE58"/><path id="Fill-80" fill="#D68F22" d="M18.6318,33.4061 C18.2528,33.4611 17.4868,33.1741 17.0968,33.3251 C12.4478,35.1281 9.8868,48.5981 17.0968,57.9911 C12.5998,48.2251 14.1108,36.5941 18.6318,33.4061"/><path id="Fill-82" fill="#D68F22"/><path id="Fill-84" fill="#ECA28A" d="M16.8096,52.2411 C16.8096,52.2411 17.7876,40.1081 22.1486,39.0331 C22.3216,38.5321 20.5706,38.7231 18.6846,38.4441 C15.6156,42.5381 16.8096,52.2411 16.8096,52.2411"/><path id="Fill-86" fill="#ECA28A" d="M30.3633,53.4979 C30.9493,57.0629 28.5353,60.4279 24.9693,61.0149 C21.4053,61.6009 18.0403,59.1859 17.4543,55.6219 C16.8683,52.0569 19.2823,48.6919 22.8463,48.1049 C26.4123,47.5189 29.7763,49.9339 30.3633,53.4979"/><path id="Fill-88" fill="#ECA28A" d="M52.7724,50.913 C53.3584,54.477 50.9444,57.843 47.3784,58.429 C43.8144,59.016 40.4494,56.6 39.8634,53.036 C39.2774,49.472 41.6914,46.106 45.2554,45.52 C48.8204,44.934 52.1854,47.349 52.7724,50.913"/><path id="Fill-90" fill="#FFBE58" d="M56.4873,50.7821 C52.4793,39.8721 48.3913,34.3891 48.3913,34.3891 C48.3913,34.3891 47.5463,36.0331 45.2463,35.3461 C42.9463,34.6591 42.1273,34.4151 42.1273,34.4151 L44.0663,32.2661 L48.9033,29.9131 C48.9033,29.9131 56.7063,31.5381 56.4873,50.7821"/><path id="Fill-92" fill="#D68F22" d="M56.4873,50.7821 C52.4793,39.8721 48.3913,34.3891 48.3913,34.3891 C48.3913,34.3891 47.5463,36.0331 45.2463,35.3461 C42.9463,34.6591 42.1273,34.4151 42.1273,34.4151 L44.0663,32.2661 L46.6533,31.0381 C46.6533,31.0381 54.2293,35.3471 56.4873,50.7821"/><path id="Stroke-94" stroke="#641340" stroke-linecap="round" stroke-linejoin="round" d="M25.7305,37.12 C25.7305,37.12 21.7465,31.522 17.0965,33.325 C12.4485,35.128 9.8865,48.599 17.0965,57.991 C17.0965,57.991 13.7765,44.046 20.2275,35.601"/><path id="Stroke-96" stroke="#641340" stroke-linecap="round" stroke-linejoin="round" d="M42.1904,34.2733 C42.1904,34.2733 46.0324,29.0553 49.8274,30.3833 C53.6224,31.7113 56.8474,37.8783 56.9424,54.2913 C56.9424,54.2913 53.9064,38.5433 47.0764,33.8943"/><path id="Stroke-98" stroke="#641340" stroke-linecap="round" stroke-linejoin="round" d="M10.0625,51.5458 C10.0625,51.5458 5.2385,50.7808 6.4715,55.5248 C7.7055,60.2688 13.2145,59.6358 13.2145,59.6358"/><path id="Fill-100" fill="#D68F22" d="M20.4033,19.038 C20.7783,30.168 26.2253,36.557 26.2253,36.557 L29.0303,35.671 C29.0303,35.671 23.0143,29.79 20.4033,19.038"/><path id="Fill-102" fill="#D68F22" d="M29.8896,12.079 C39.4466,23.337 40.1386,34.136 40.1386,34.136 L36.7806,35.588 C36.7806,35.588 37.0606,24.818 29.8896,12.079"/><path id="Stroke-104" stroke="#641340" stroke-linecap="round" stroke-linejoin="round" d="M9.2236,57.3778 C9.7606,57.7408 10.1146,58.3558 10.1146,59.0538 C10.1146,60.1688 9.2096,61.0738 8.0936,61.0738 C6.9776,61.0738 6.0736,60.1688 6.0736,59.0538 C6.0736,58.2898 6.4956,57.6258 7.1196,57.2818"/><path id="Stroke-106" stroke="#641340" stroke-linecap="round" stroke-linejoin="round" d="M6.2695,52.7733 C6.2695,52.7733 -2.8265,45.2783 1.8235,27.4433 C1.8235,27.4433 2.4875,33.0403 4.7635,36.0763 C4.7635,36.0763 2.1075,23.0793 8.3695,11.6943 C8.3695,11.6943 6.9415,17.7663 9.7425,23.1733 C9.7425,23.1733 9.5075,9.7963 16.5275,0.5003 C16.5275,0.5003 32.2765,0.8793 40.7195,11.5043 C40.7195,11.5043 41.6675,8.1843 39.7715,5.1483 C39.7715,5.1483 50.8715,8.4683 53.9065,19.2843 C53.9065,19.2843 55.2355,16.9123 54.7605,13.9713 C54.7605,13.9713 64.2475,21.2763 61.9705,34.7483 C61.9705,34.7483 64.3425,33.9893 64.8165,31.8073 C64.8165,31.8073 65.8985,41.4723 60.2375,49.9163"/><path id="Stroke-108" stroke="#641340" stroke-linecap="round" stroke-linejoin="round" d="M18.6846,38.4442 C19.8256,38.8572 21.1516,38.7472 22.3216,38.5322 C23.4366,38.3282 24.7486,38.0262 25.5936,37.2222 C26.2306,36.6172 26.6406,35.9062 27.5546,35.6662 C28.3656,35.4542 29.2156,35.6972 30.0236,35.9192 C30.8306,36.1402 31.7056,36.3392 32.4906,36.0472 C32.9666,35.8692 33.3596,35.5262 33.7856,35.2472 C34.2656,34.9322 34.8146,34.7232 35.3886,34.9022 C35.7656,35.0202 36.0846,35.2772 36.4566,35.4112 C37.3496,35.7312 38.2546,35.2862 39.0616,34.9322 C40.0066,34.5182 41.0786,34.3162 42.1266,34.4152 C43.2396,34.5182 44.1926,35.0342 45.2466,35.3462 C46.3036,35.6612 47.5666,35.7082 48.3916,34.9752"/><path id="Fill-110" fill="#641340" d="M38.2578,63.6405 C38.2578,63.6405 41.6518,63.3045 42.7118,61.6255 C43.3478,60.6195 43.5178,59.2545 42.5468,58.7145 C42.3898,58.6275 42.2028,58.5625 41.9848,58.5235 C38.8348,58.1255 35.1168,58.5155 31.9528,59.6005 C30.6008,60.0645 30.8478,61.2465 31.6188,62.0825 C33.0768,63.6615 35.6408,63.8135 37.6808,63.6885 C37.8728,63.6765 38.0658,63.6615 38.2578,63.6405"/><path id="Fill-112" fill="#FFF" d="M32.3056,61.0722 C33.1206,61.2012 33.9576,61.2112 34.7806,61.1962 C35.9996,61.1762 37.2246,61.0812 38.4286,60.8912 C39.2796,60.7582 40.1256,60.5942 40.9636,60.3982 C41.2566,60.3292 41.5496,60.2582 41.8376,60.1712 C41.9636,60.1332 42.1446,60.1002 42.2476,60.0122 C42.4836,59.8092 42.3306,58.7692 42.3096,58.6342 C42.2036,58.5942 42.1116,58.5462 41.9846,58.5232 C38.8346,58.1262 35.1176,58.5152 31.9526,59.6002 C31.8006,59.8252 32.1516,61.0482 32.3056,61.0722"/><path id="Fill-114" fill="#FFBE58" d="M53.7705,50.3417 C54.3205,53.6837 52.0565,56.8377 48.7155,57.3867 C45.3745,57.9367 42.2195,55.6737 41.6705,52.3317 C41.1215,48.9897 43.3835,45.8367 46.7255,45.2867 C50.0675,44.7377 53.2215,47.0007 53.7705,50.3417"/><path id="Fill-116" fill="#FFF" d="M43.5488,47.2938 L42.3478,48.5048 C42.3908,48.6658 42.3848,48.8458 42.2828,49.0318 C42.1348,49.3038 41.9308,49.5238 41.7318,49.7508 L50.6848,56.6558 L52.6868,54.3418 L43.5488,47.2938 Z"/><polygon id="Fill-118" fill="#FFF" points="43.207 48.547 41.361 50.409 49.995 57.068 51.856 55.218"/><path id="Fill-120" fill="#FFF" d="M53.0752,48.0604 C52.7332,47.5354 52.3412,47.0514 51.9422,46.5684 C51.8982,46.5154 51.8702,46.4564 51.8402,46.3974 L50.9052,45.6764 C50.4032,45.4404 49.8902,45.2254 49.3772,45.0164 C48.3512,45.1704 47.3342,45.3724 46.3172,45.6124 L53.4452,51.1084 C53.6042,50.1404 53.4622,49.2234 53.2822,48.2734 C53.2032,48.2154 53.1312,48.1464 53.0752,48.0604"/><path id="Stroke-122" stroke="#641340" stroke-linecap="round" stroke-linejoin="round" d="M53.7705,50.3417 C54.3205,53.6837 52.0565,56.8377 48.7155,57.3867 C45.3745,57.9367 42.2195,55.6737 41.6705,52.3317 C41.1215,48.9897 43.3835,45.8367 46.7255,45.2867 C50.0675,44.7377 53.2215,47.0007 53.7705,50.3417 Z"/><path id="Fill-124" fill="#FFBE58" d="M31.0703,52.536 C31.6203,55.878 29.3563,59.032 26.0143,59.582 C22.6743,60.131 19.5193,57.868 18.9693,54.526 C18.4203,51.185 20.6833,48.031 24.0253,47.481 C27.3663,46.932 30.5203,49.195 31.0703,52.536"/><path id="Fill-126" fill="#FFF" d="M20.8476,49.4882 L19.4516,50.8962 C19.4446,50.9152 19.4466,50.9322 19.4376,50.9512 C19.2756,51.2762 19.1726,51.6232 19.0536,51.9632 L27.9846,58.8502 L29.9866,56.5362 L20.8476,49.4882 Z"/><polygon id="Fill-128" fill="#FFF" points="20.507 50.741 18.661 52.603 27.295 59.262 29.156 57.412"/><path id="Fill-130" fill="#FFF" d="M30.7383,51.5058 C30.2493,50.6608 29.8813,49.6368 29.1503,48.9648 C28.4083,48.2808 27.0693,47.6318 26.0933,47.4058 C26.0333,47.3928 25.9933,47.3608 25.9443,47.3378 C25.1663,47.4728 24.3903,47.6248 23.6173,47.8068 L30.7443,53.3028 C30.8433,52.6948 30.8243,52.1088 30.7523,51.5218 C30.7483,51.5148 30.7423,51.5128 30.7383,51.5058"/><path id="Stroke-132" stroke="#641340" stroke-linecap="round" stroke-linejoin="round" d="M31.0703,52.536 C31.6203,55.878 29.3563,59.032 26.0143,59.582 C22.6743,60.131 19.5193,57.868 18.9693,54.526 C18.4203,51.185 20.6833,48.031 24.0253,47.481 C27.3663,46.932 30.5203,49.195 31.0703,52.536 Z"/><path id="Stroke-134" stroke="#641340" stroke-linecap="round" stroke-linejoin="round" d="M31.7773,54.3788 C31.5263,51.7918 33.4213,49.4928 36.0063,49.2428 C38.5933,48.9928 40.8923,50.8868 41.1423,53.4738"/><path id="Fill-136" fill="#FFC3AC" d="M47.7412,87.6317 C47.6232,86.6077 47.5882,85.5587 47.6482,84.5297 C47.6892,83.8317 47.7552,83.0687 48.0492,82.4237 C48.3322,81.8037 49.1152,81.4487 49.7652,81.4217 C50.5932,81.3877 50.9832,81.8617 51.3112,82.5537 C51.6632,83.2927 52.1452,86.3867 52.1452,86.3867 C52.1452,86.3867 53.3362,85.0337 53.9652,84.3907 C54.6472,83.6937 55.4132,82.5647 56.5522,82.8817 C57.7202,83.2087 58.1442,84.9777 57.5862,85.9527 C57.1262,86.7567 56.5352,87.5077 55.9282,88.2047 C55.9352,88.1977 56.7492,89.6477 56.8062,89.7617 C57.5952,91.3037 57.4922,93.1727 56.2142,94.4287 C54.5772,96.0367 52.0782,96.1117 49.9552,95.6827 C47.9462,95.2757 46.5452,93.6527 46.5452,91.5567 C46.5452,88.9717 47.7412,87.6317 47.7412,87.6317"/><path id="Fill-138" fill="#FFC3AC" d="M47.7412,87.6317 C47.6232,86.6077 47.5882,85.5587 47.6482,84.5297 C47.6892,83.8317 47.7552,83.0687 48.0492,82.4237 C48.3322,81.8037 49.1152,81.4487 49.7652,81.4217 C50.5932,81.3877 50.9832,81.8617 51.3112,82.5537 C51.6632,83.2927 52.1452,86.3867 52.1452,86.3867 C52.1452,86.3867 53.3362,85.0337 53.9652,84.3907 C54.6472,83.6937 55.4132,82.5647 56.5522,82.8817 C57.7202,83.2087 58.1442,84.9777 57.5862,85.9527 C57.1262,86.7567 56.5352,87.5077 55.9282,88.2047 C55.9352,88.1977 56.7492,89.6477 56.8062,89.7617 C57.5952,91.3037 57.4922,93.1727 56.2142,94.4287 C54.5772,96.0367 52.0782,96.1117 49.9552,95.6827 C47.9462,95.2757 46.5452,93.6527 46.5452,91.5567 C46.5452,88.9717 47.7412,87.6317 47.7412,87.6317"/><path id="Fill-140" fill="#ECA28A" d="M53.0849,87.4355 C53.2809,87.1665 55.8499,83.6195 56.6879,83.2735 C56.6229,83.2475 56.5669,83.2065 56.4989,83.1865 C55.0399,82.7795 54.0589,84.2265 53.1839,85.1205 C52.8619,85.4485 52.0569,85.9795 51.6489,86.4295 C51.8119,87.9245 52.8879,87.7035 53.0849,87.4355"/><path id="Fill-142" fill="#ECA28A" d="M51.5703,95.413 C49.5613,95.007 48.2573,92.83 48.2783,91.517 C48.2783,88.933 49.5633,87.622 49.5633,87.622 C49.4453,86.598 48.6213,82.119 50.3833,81.809 C50.2163,81.749 49.9903,81.413 49.7653,81.422 C49.1153,81.449 48.3323,81.804 48.0493,82.424 C47.7553,83.068 47.6893,83.832 47.6483,84.53 C47.5883,85.559 47.6233,86.607 47.7413,87.632 C47.7413,87.632 46.5453,88.972 46.5453,91.557 C46.5453,93.652 47.9463,95.275 49.9553,95.683 C50.7973,95.853 51.6983,95.937 52.5823,95.885 C52.0583,95.852 52.0693,95.515 51.5703,95.413"/><path id="Stroke-144" stroke="#641340" stroke-linecap="round" stroke-linejoin="round" d="M47.7412,87.6317 C47.6232,86.6077 47.5882,85.5587 47.6482,84.5297 C47.6892,83.8317 47.7552,83.0687 48.0492,82.4237 C48.3322,81.8037 49.1152,81.4487 49.7652,81.4217 C50.5932,81.3877 50.9832,81.8617 51.3112,82.5537 C51.6632,83.2927 52.1452,86.3867 52.1452,86.3867 C52.1452,86.3867 53.3362,85.0337 53.9652,84.3907 C54.6472,83.6937 55.4132,82.5647 56.5522,82.8817 C57.7202,83.2087 58.1442,84.9777 57.5862,85.9527 C57.1262,86.7567 56.5352,87.5077 55.9282,88.2047 C55.9352,88.1977 56.7492,89.6477 56.8062,89.7617 C57.5952,91.3037 57.4922,93.1727 56.2142,94.4287 C54.5772,96.0367 52.0782,96.1117 49.9552,95.6827 C47.9462,95.2757 46.5452,93.6527 46.5452,91.5567 C46.5452,88.9717 47.7412,87.6317 47.7412,87.6317 Z"/><path id="Fill-146" fill="#ECA28A" d="M51.291,89.8856 C51.652,89.8176 52.042,89.8706 52.386,90.0136 C52.061,89.3726 51.185,88.9936 50.429,89.1356 C49.346,89.3376 47.65,91.5226 47.784,91.6036 C48.567,92.0386 47.917,93.1216 47.917,93.1216 C48.479,92.3906 49.834,90.1316 51.291,89.8856"/><path id="Stroke-148" stroke="#641340" stroke-linecap="round" stroke-linejoin="round" d="M47.917,91.2372 C48.482,90.3612 49.346,89.3382 50.429,89.1352 C51.542,88.9262 52.922,89.8462 52.406,91.0722 C52.071,91.8672 51.54,92.6012 51.013,93.2802"/><path id="Stroke-150" stroke="#641340" stroke-linecap="round" stroke-linejoin="round" d="M54.6123,83.538 C54.6123,83.538 52.9033,76.372 45.0563,74.738"/><path id="Fill-152" fill="#FFF" d="M35.0146,78.9433 C35.0356,79.7123 34.4296,80.3513 33.6606,80.3733 C32.8936,80.3933 32.2526,79.7883 32.2326,79.0193 C32.2106,78.2513 32.8176,77.6113 33.5846,77.5893 C34.3536,77.5683 34.9936,78.1743 35.0146,78.9433"/><path id="Stroke-154" stroke="#641340" stroke-linecap="round" stroke-linejoin="round" stroke-width=".75" d="M35.0146,78.9433 C35.0356,79.7123 34.4296,80.3513 33.6606,80.3733 C32.8936,80.3933 32.2526,79.7883 32.2326,79.0193 C32.2106,78.2513 32.8176,77.6113 33.5846,77.5893 C34.3536,77.5683 34.9936,78.1743 35.0146,78.9433 Z"/><path id="Fill-156" fill="#FFF" d="M41.7949,78.7577 C41.8159,79.5267 41.2099,80.1657 40.4409,80.1877 C39.6729,80.2077 39.0329,79.6027 39.0119,78.8337 C38.9909,78.0657 39.5969,77.4257 40.3649,77.4037 C41.1339,77.3827 41.7739,77.9887 41.7949,78.7577"/><path id="Stroke-158" stroke="#641340" stroke-linecap="round" stroke-linejoin="round" stroke-width=".75" d="M41.7949,78.7577 C41.8159,79.5267 41.2099,80.1657 40.4409,80.1877 C39.6729,80.2077 39.0329,79.6027 39.0119,78.8337 C38.9909,78.0657 39.5969,77.4257 40.3649,77.4037 C41.1339,77.3827 41.7739,77.9887 41.7949,78.7577 Z"/><path id="Fill-160" fill="#FFF" d="M35.9521,88.9657 C35.9731,89.7347 35.3671,90.3737 34.5981,90.3947 C33.8311,90.4157 33.1901,89.8107 33.1701,89.0417 C33.1481,88.2737 33.7551,87.6327 34.5221,87.6117 C35.2911,87.5907 35.9311,88.1967 35.9521,88.9657"/><path id="Stroke-162" stroke="#641340" stroke-linecap="round" stroke-linejoin="round" stroke-width=".75" d="M35.9521,88.9657 C35.9731,89.7347 35.3671,90.3737 34.5981,90.3947 C33.8311,90.4157 33.1901,89.8107 33.1701,89.0417 C33.1481,88.2737 33.7551,87.6327 34.5221,87.6117 C35.2911,87.5907 35.9311,88.1967 35.9521,88.9657 Z"/><path id="Fill-164" fill="#FFF" d="M42.7324,88.7802 C42.7534,89.5492 42.1474,90.1882 41.3784,90.2102 C40.6104,90.2302 39.9704,89.6252 39.9494,88.8562 C39.9284,88.0882 40.5344,87.4472 41.3024,87.4262 C42.0714,87.4052 42.7114,88.0112 42.7324,88.7802"/><path id="Stroke-166" stroke="#641340" stroke-linecap="round" stroke-linejoin="round" stroke-width=".75" d="M42.7324,88.7802 C42.7534,89.5492 42.1474,90.1882 41.3784,90.2102 C40.6104,90.2302 39.9704,89.6252 39.9494,88.8562 C39.9284,88.0882 40.5344,87.4472 41.3024,87.4262 C42.0714,87.4052 42.7114,88.0112 42.7324,88.7802 Z"/><path id="Fill-168" fill="#FFF" d="M36.6396,98.9882 C36.6606,99.7562 36.0546,100.3962 35.2856,100.4172 C34.5186,100.4382 33.8776,99.8322 33.8576,99.0642 C33.8356,98.2962 34.4426,97.6552 35.2096,97.6342 C35.9786,97.6132 36.6186,98.2192 36.6396,98.9882"/><path id="Stroke-170" stroke="#641340" stroke-linecap="round" stroke-linejoin="round" stroke-width=".75" d="M36.6396,98.9882 C36.6606,99.7562 36.0546,100.3962 35.2856,100.4172 C34.5186,100.4382 33.8776,99.8322 33.8576,99.0642 C33.8356,98.2962 34.4426,97.6552 35.2096,97.6342 C35.9786,97.6132 36.6186,98.2192 36.6396,98.9882 Z"/><path id="Fill-172" fill="#FFF" d="M43.4199,98.8026 C43.4409,99.5706 42.8349,100.2106 42.0659,100.2316 C41.2979,100.2526 40.6579,99.6476 40.6369,98.8786 C40.6159,98.1106 41.2219,97.4696 41.9899,97.4486 C42.7589,97.4276 43.3989,98.0336 43.4199,98.8026"/><path id="Stroke-174" stroke="#641340" stroke-linecap="round" stroke-linejoin="round" stroke-width=".75" d="M43.4199,98.8026 C43.4409,99.5706 42.8349,100.2106 42.0659,100.2316 C41.2979,100.2526 40.6579,99.6476 40.6369,98.8786 C40.6159,98.1106 41.2219,97.4696 41.9899,97.4486 C42.7589,97.4276 43.3989,98.0336 43.4199,98.8026 Z"/><path id="Fill-176" fill="#FFF" d="M35.9521,109.0097 C35.9731,109.7787 35.3671,110.4187 34.5981,110.4397 C33.8311,110.4607 33.1901,109.8547 33.1701,109.0857 C33.1481,108.3187 33.7551,107.6777 34.5221,107.6567 C35.2911,107.6357 35.9311,108.2417 35.9521,109.0097"/><path id="Stroke-178" stroke="#641340" stroke-linecap="round" stroke-linejoin="round" stroke-width=".75" d="M35.9521,109.0097 C35.9731,109.7787 35.3671,110.4187 34.5981,110.4397 C33.8311,110.4607 33.1901,109.8547 33.1701,109.0857 C33.1481,108.3187 33.7551,107.6777 34.5221,107.6567 C35.2911,107.6357 35.9311,108.2417 35.9521,109.0097 Z"/><path id="Fill-180" fill="#FFF" d="M42.7324,108.8241 C42.7534,109.5931 42.1474,110.2331 41.3784,110.2541 C40.6104,110.2751 39.9704,109.6691 39.9494,108.9011 C39.9284,108.1331 40.5344,107.4921 41.3024,107.4711 C42.0714,107.4501 42.7114,108.0561 42.7324,108.8241"/><path id="Stroke-182" stroke="#641340" stroke-linecap="round" stroke-linejoin="round" stroke-width=".75" d="M42.7324,108.8241 C42.7534,109.5931 42.1474,110.2331 41.3784,110.2541 C40.6104,110.2751 39.9704,109.6691 39.9494,108.9011 C39.9284,108.1331 40.5344,107.4921 41.3024,107.4711 C42.0714,107.4501 42.7114,108.0561 42.7324,108.8241 Z"/></g></g></svg>