<svg xmlns="http://www.w3.org/2000/svg" xmlns:xlink="http://www.w3.org/1999/xlink" width="139" height="142" version="1.1" viewBox="0 0 139 142"><title>Mahou Shoujo</title><desc>Created with Sketch.</desc><g id="Page-1" fill="none" fill-rule="evenodd" stroke="none" stroke-width="1"><g id="Mahou-Shoujo"><path id="Fill-1" fill="#EC8280" d="M111.9441,83.4174 C110.6761,73.0964 102.7071,67.3864 99.1301,66.1324 L95.7341,71.6104 C95.5901,76.1424 95.4911,82.1924 98.5791,85.5134 C99.5561,84.4254 100.2891,83.0204 100.5231,80.6654 C101.3071,85.2234 106.2981,90.2564 107.1281,90.1684 C107.9571,90.0794 108.2691,84.0894 105.7281,79.6604 C107.6841,81.7464 109.3501,82.6884 111.9441,83.4174"/><path id="Fill-3" fill="#D26B6A" d="M100.4958,77.4428 C100.2628,79.7978 100.1418,81.1998 99.1658,82.2878 C96.5898,79.5178 96.2328,74.8508 96.2678,70.7478 L95.7338,71.6108 C95.5908,76.1418 95.4908,82.1928 98.5788,85.5128 C99.5568,84.4248 100.2888,83.0198 100.5228,80.6658 C101.3078,85.2228 106.2988,90.2558 107.1278,90.1688 C107.5148,90.1268 107.7848,88.7938 107.7088,86.9408 C106.8678,87.0128 101.2788,81.9938 100.4958,77.4428"/><path id="Stroke-5" stroke="#641340" stroke-linecap="round" stroke-linejoin="round" d="M95.7341,71.6108 C95.5901,76.1418 95.4911,82.1928 98.5791,85.5128 C99.5561,84.4248 100.2891,83.0198 100.5231,80.6658 C101.3071,85.2228 106.2981,90.2568 107.1281,90.1688 C107.9571,90.0798 108.2691,84.0898 105.7281,79.6608 C107.6841,81.7468 109.3501,82.6878 111.9441,83.4178 C110.6761,73.0958 102.7071,67.3858 99.1301,66.1318"/><path id="Fill-7" fill="#D26B6A" d="M23.0959,67.5151 C28.2529,58.4851 37.8099,56.2961 41.5939,56.5211 L42.6099,62.8861 C40.9909,67.1211 38.7449,72.7411 34.6149,74.6111 C34.1339,73.2301 33.9999,71.6511 34.6949,69.3881 C32.2109,73.2891 25.6619,76.0041 24.9309,75.6021 C24.1999,75.2011 26.2269,69.5541 30.2819,66.4511 C27.6709,67.6191 25.7709,67.8441 23.0959,67.5151"/><path id="Stroke-9" stroke="#641340" stroke-linecap="round" stroke-linejoin="round" d="M42.6096,62.8862 C40.9906,67.1212 38.7446,72.7402 34.6146,74.6112 C34.1336,73.2302 34.0006,71.6512 34.6946,69.3882 C32.2106,73.2892 25.6626,76.0042 24.9316,75.6022 C24.2006,75.2002 26.2266,69.5542 30.2816,66.4502 C27.6716,67.6192 25.7716,67.8442 23.0956,67.5152 C28.2536,58.4852 37.8096,56.2962 41.5936,56.5212"/><path id="Fill-11" fill="#D26B6A" d="M116.5046,35.0737 C116.9736,36.8617 117.1086,38.7637 117.1436,40.6237 C117.3076,49.2677 115.0216,60.6967 121.4066,67.7637 C123.4886,70.0677 126.5726,71.5797 129.6656,71.3057 C132.7586,71.0317 135.7006,68.7397 136.2806,65.6897 C137.6376,68.8257 136.9076,72.7507 134.5156,75.1897 C135.9376,75.1427 137.3276,74.4857 138.2656,73.4167 C138.1276,76.4737 135.6046,79.2537 132.5736,79.6837 C134.0716,80.5307 135.6146,80.5607 137.2636,80.5507 C137.0176,81.5387 136.5176,82.9447 133.3196,83.8097 C125.4576,85.4217 116.7736,81.0347 113.1296,73.9287 C108.7236,65.3397 112.8046,55.5247 112.9686,46.5297 C113.0816,40.3337 110.6366,32.3017 103.3156,31.7587 C100.6956,31.5637 97.5556,32.2967 95.8246,30.3197 C94.5156,28.8237 94.8966,26.3207 96.3246,24.9367 C97.7526,23.5527 99.9266,23.1697 101.8906,23.4817 C107.8336,24.4277 114.9076,28.9927 116.5046,35.0737"/><path id="Stroke-13" stroke="#641340" stroke-linecap="round" stroke-linejoin="round" d="M116.5046,35.0737 C116.9736,36.8617 117.1086,38.7637 117.1436,40.6237 C117.3076,49.2677 115.0216,60.6967 121.4066,67.7637 C123.4886,70.0677 126.5726,71.5797 129.6656,71.3057 C132.7586,71.0317 135.7006,68.7397 136.2806,65.6897 C137.6376,68.8257 136.9076,72.7507 134.5156,75.1897 C135.9376,75.1427 137.3276,74.4857 138.2656,73.4167 C138.1276,76.4737 135.6046,79.2537 132.5736,79.6837 C134.0716,80.5307 135.6146,80.5607 137.2636,80.5507 C137.0176,81.5387 136.5176,82.9447 133.3196,83.8097 C125.4576,85.4217 116.7736,81.0347 113.1296,73.9287 C108.7236,65.3397 112.8046,55.5247 112.9686,46.5297 C113.0816,40.3337 110.6366,32.3017 103.3156,31.7587 C100.6956,31.5637 97.5556,32.2967 95.8246,30.3197 C94.5156,28.8237 94.8966,26.3207 96.3246,24.9367 C97.7526,23.5527 99.9266,23.1697 101.8906,23.4817 C107.8336,24.4277 114.9076,28.9927 116.5046,35.0737 Z"/><path id="Fill-15" fill="#D26B6A" d="M36.8567,19.6596 C35.7507,21.1406 34.9127,22.8536 34.1827,24.5636 C30.7877,32.5166 28.6197,43.9686 20.0497,48.1246 C17.2557,49.4786 13.8297,49.7236 11.0647,48.3086 C8.3007,46.8946 6.4337,43.6676 7.0397,40.6226 C4.6067,43.0206 3.8107,46.9316 5.1127,50.0906 C3.8127,49.5136 2.7707,48.3836 2.3027,47.0406 C1.2827,49.9266 2.5797,53.4496 5.2277,54.9856 C3.5217,55.2086 2.0787,54.6576 0.5547,54.0296 C0.4127,55.0376 0.3487,56.5286 2.9877,58.5296 C9.6717,62.9726 19.3677,62.1636 25.4107,56.9446 C32.7167,50.6346 32.6147,40.0056 35.8367,31.6046 C38.0557,25.8196 43.3357,19.2916 50.3257,21.5326 C52.8267,22.3346 55.4637,24.1926 57.8087,23.0096 C59.5837,22.1136 60.1687,19.6496 59.3647,17.8316 C58.5597,16.0136 56.6887,14.8426 54.7507,14.3946 C48.8877,13.0426 40.6167,14.6216 36.8567,19.6596"/><path id="Stroke-17" stroke="#641340" stroke-linecap="round" stroke-linejoin="round" d="M36.8567,19.6596 C35.7507,21.1406 34.9127,22.8536 34.1827,24.5636 C30.7877,32.5166 28.6197,43.9686 20.0497,48.1246 C17.2557,49.4786 13.8297,49.7236 11.0647,48.3086 C8.3007,46.8946 6.4337,43.6676 7.0397,40.6226 C4.6067,43.0206 3.8107,46.9316 5.1127,50.0906 C3.8127,49.5136 2.7707,48.3836 2.3027,47.0406 C1.2827,49.9266 2.5797,53.4496 5.2277,54.9856 C3.5217,55.2086 2.0787,54.6576 0.5547,54.0296 C0.4127,55.0376 0.3487,56.5286 2.9877,58.5296 C9.6717,62.9726 19.3677,62.1636 25.4107,56.9446 C32.7167,50.6346 32.6147,40.0056 35.8367,31.6046 C38.0557,25.8196 43.3357,19.2916 50.3257,21.5326 C52.8267,22.3346 55.4637,24.1926 57.8087,23.0096 C59.5837,22.1136 60.1687,19.6496 59.3647,17.8316 C58.5597,16.0136 56.6887,14.8426 54.7507,14.3946 C48.8877,13.0426 40.6167,14.6216 36.8567,19.6596 Z"/><path id="Fill-19" fill="#FFF" d="M76.697,82.9067 L76.297,95.8257 C79.187,99.6427 82.987,98.0397 82.987,98.0397 C82.987,98.0397 86.216,93.9867 87.292,88.7957 C88.369,83.6027 77.984,83.9197 76.697,82.9067"/><path id="Fill-21" fill="#D9CFD3" d="M84.6003,95.5161 C84.6003,95.5161 80.0743,96.9601 76.3713,93.4001 L76.2963,95.8261 C79.1873,99.6431 82.9873,98.0391 82.9873,98.0391 C82.9873,98.0391 83.7873,97.0351 84.7223,95.3871 C84.6513,95.4631 84.6003,95.5161 84.6003,95.5161"/><path id="Fill-23" fill="#FFF" d="M41.5139,77.3979 C41.5139,77.3979 37.8209,84.6369 48.7529,88.4579 C48.7529,88.4579 56.5379,85.2989 57.7859,78.9089 C56.2359,77.9019 50.9799,73.2669 50.9799,73.2669 C46.1049,74.1109 41.5139,77.3979 41.5139,77.3979"/><path id="Fill-25" fill="#D9CFD3" d="M43.6467,76.0717 C42.3367,76.8107 41.5137,77.3977 41.5137,77.3977 C41.5137,77.3977 37.8207,84.6367 48.7527,88.4577 C48.7527,88.4577 49.9547,87.9647 51.4847,86.9887 C42.4537,83.7037 43.0167,78.2177 43.6467,76.0717"/><path id="Fill-27" fill="#ED709E" d="M76.697,82.1255 L57.786,78.9085 C55.57,86.1895 48.753,88.4575 48.753,88.4575 L47.951,100.4455 C47.951,100.4455 60.319,106.8615 76.697,104.3285 C76.697,104.3285 75.684,91.1585 76.697,82.1255"/><path id="Fill-29" fill="#C85089" d="M51.8274,86.8442 C50.1204,87.9972 48.7534,88.4572 48.7534,88.4572 L47.9514,100.4462 C47.9514,100.4462 48.8914,100.9312 50.5874,101.5822 L51.8274,86.8442 Z"/><path id="Fill-31" fill="#ED709E" d="M108.9646,17.4145 C108.7286,14.9885 108.3086,12.5205 107.1176,10.3935 C107.2226,13.3585 105.0346,16.2465 102.1526,16.9465 C103.9286,14.5875 104.4286,11.3235 103.4396,8.5415 C102.5496,9.5065 101.2626,9.9905 100.0036,10.3625 C99.1316,10.6195 98.2486,10.8395 97.3606,11.0295 C95.9656,11.3305 94.5236,11.5725 93.2866,12.2845 C91.9776,13.0385 90.9856,14.2895 90.4346,15.6955 C89.8826,17.1025 89.7546,18.6555 89.9446,20.1545 L99.6486,27.1065 C101.3536,27.1405 103.0876,26.9545 104.6646,26.3055 C106.2416,25.6565 107.6556,24.5095 108.3966,22.9735 C109.2146,21.2725 109.1476,19.2925 108.9646,17.4145"/><path id="Fill-33" fill="#C85089" d="M92.8611,20.1547 C92.6721,18.6557 92.7991,17.1017 93.3501,15.6957 C93.9021,14.2897 94.8941,13.0387 96.2031,12.2847 C97.4401,11.5727 98.8821,11.3307 100.2771,11.0297 C101.1661,10.8397 102.0491,10.6197 102.9211,10.3627 C103.2171,10.2747 103.5161,10.1787 103.8111,10.0737 C103.7281,9.5537 103.6161,9.0387 103.4391,8.5417 C102.5491,9.5067 101.2621,9.9907 100.0041,10.3627 C99.1321,10.6197 98.2491,10.8397 97.3601,11.0297 C95.9651,11.3307 94.5231,11.5727 93.2871,12.2847 C91.9771,13.0387 90.9861,14.2897 90.4341,15.6957 C89.8821,17.1017 89.7551,18.6557 89.9451,20.1547 L99.6481,27.1067 C100.5431,27.1247 101.4441,27.0757 102.3281,26.9367 C99.7341,24.2907 96.5791,22.0297 92.8611,20.1547"/><path id="Fill-35" fill="#ED709E" d="M65.571,4.8989 C64.8,4.4189 64.043,3.9139 63.31,3.3769 C62.251,2.6009 61.203,1.7099 60.693,0.4999 C58.821,2.7829 58.187,6.0239 59.06,8.8439 C56.584,7.2099 55.503,3.7529 56.605,0.9979 C54.765,2.5969 53.534,4.7759 52.491,6.9789 C51.683,8.6839 50.949,10.5249 51.145,12.4019 C51.321,14.0979 52.263,15.6559 53.528,16.7999 C54.792,17.9449 56.361,18.7069 57.976,19.2529 L69.204,16.4729 C69.89,15.1279 70.552,13.1439 70.509,11.6339 C70.467,10.1239 69.957,8.6109 68.98,7.4589 C68.057,6.3699 66.782,5.6539 65.571,4.8989"/><path id="Fill-37" fill="#C85089" d="M57.9768,16.5024 C56.3778,15.5204 55.0328,14.0174 54.4738,12.1984 C53.8548,10.1874 54.2358,8.0174 54.7248,5.9804 C55.1008,4.4174 55.5528,2.8524 56.1908,1.3884 C54.5808,2.9424 53.4528,4.9474 52.4908,6.9794 C51.6828,8.6844 50.9498,10.5244 51.1448,12.4014 C51.3208,14.0984 52.2628,15.6554 53.5278,16.8004 C54.7918,17.9444 56.3608,18.7064 57.9768,19.2524 L62.5638,18.1164 C60.9568,17.8384 59.3738,17.3614 57.9768,16.5024"/><path id="Fill-39" fill="#FFC3AC" d="M47.2693,67.4956 C52.0813,77.5926 67.9173,90.6406 90.7953,76.2586 C96.9593,71.2156 104.0063,54.4376 101.3713,51.2156 C92.4133,40.2626 76.3063,43.3426 70.5113,38.5496 C55.4023,26.0536 34.7043,42.8826 47.2693,67.4956"/><path id="Fill-41" fill="#ECA28A" d="M49.8249,65.8364 C42.9679,52.4044 46.0249,41.3054 52.6649,36.0104 C44.3509,40.3104 39.5829,52.4394 47.2689,67.4954 C52.0819,77.5924 67.9169,90.6404 90.7959,76.2584 C90.9559,76.1274 91.1179,75.9824 91.2789,75.8364 C69.5179,88.1864 54.4909,75.6244 49.8249,65.8364"/><path id="Fill-43" fill="#D9CFD3" d="M94.8786,138.5639 C94.8786,140.2619 80.5396,141.6389 62.8516,141.6389 C45.1646,141.6389 30.8256,140.2619 30.8256,138.5639 C30.8256,136.8659 45.1646,135.4889 62.8516,135.4889 C80.5396,135.4889 94.8786,136.8659 94.8786,138.5639"/><path id="Fill-45" fill="#FFC3AC" d="M58.2361,123.8921 L48.3871,122.9381 C49.1821,126.8831 50.1631,130.8981 51.7241,134.6151 C52.6591,136.8391 53.7461,139.2601 56.5991,138.3771 C57.2991,138.1611 58.0221,137.5911 57.9831,136.7891 C57.9831,136.7891 57.4761,129.1661 58.2361,123.8921"/><path id="Fill-47" fill="#FFC3AC" d="M67.468,123.8921 L77.608,121.9861 C76.813,125.9311 75.541,130.8981 73.979,134.6151 C73.045,136.8391 71.957,139.2601 69.105,138.3771 C68.405,138.1611 67.681,137.5911 67.721,136.7891 C67.721,136.7891 68.228,129.1661 67.468,123.8921"/><path id="Fill-49" fill="#FFF" d="M76.697,104.3286 C66.634,105.8476 57.075,104.4186 47.951,100.4456 C39.129,107.1986 37.188,120.0316 37.188,120.0316 C65.638,129.5706 88.516,118.4276 88.516,118.4276 C84.127,108.8876 76.697,104.3286 76.697,104.3286"/><path id="Fill-51" fill="#D9CFD3" d="M43.0393,105.6372 C43.3413,105.2082 43.6623,104.7862 43.9943,104.3692 C43.6623,104.7862 43.3413,105.2082 43.0393,105.6372"/><path id="Fill-53" fill="#D9CFD3" d="M41.2605,108.4936 C41.5155,108.0296 41.7845,107.5646 42.0715,107.1016 C41.7845,107.5646 41.5165,108.0296 41.2605,108.4936"/><path id="Fill-55" fill="#D9CFD3" d="M42.0769,107.0932 C42.3629,106.6312 42.6659,106.1722 42.9839,105.7192 C42.6659,106.1722 42.3629,106.6312 42.0769,107.0932"/><path id="Fill-57" fill="#D9CFD3" d="M40.4973,109.9614 C40.7193,109.5094 40.9543,109.0524 41.2043,108.5954 C40.9543,109.0534 40.7193,109.5084 40.4973,109.9614"/><path id="Fill-59" fill="#D9CFD3" d="M37.1877,120.0317 C38.6737,120.5297 40.1407,120.9597 41.5947,121.3487 C41.8287,119.6307 42.5837,115.3327 44.6037,110.7727 C42.3347,111.3587 40.4047,111.4267 39.8177,111.4297 C37.7867,116.0917 37.1877,120.0317 37.1877,120.0317"/><path id="Fill-61" fill="#D9CFD3" d="M39.8181,111.4292 C40.0161,110.9762 40.2281,110.5152 40.4541,110.0512 C40.2281,110.5162 40.0161,110.9762 39.8181,111.4292"/><path id="Fill-63" fill="#D9CFD3" d="M44.1433,104.1821 C44.4693,103.7811 44.8103,103.3871 45.1653,103.0021 C44.8103,103.3871 44.4693,103.7811 44.1433,104.1821"/><path id="Fill-65" fill="#FFC3AC" d="M59.4963,80.0893 C59.4963,80.0893 58.4863,83.5703 56.9083,86.1793 C59.0533,85.0593 62.8513,85.1863 65.6383,88.1613 C66.7773,87.1493 71.3993,86.5783 73.5523,88.7953 C73.5523,88.7953 74.3123,84.5533 74.7553,82.4633 C69.5113,82.8583 64.4233,82.0823 59.4963,80.0893"/><path id="Fill-67" fill="#D9CFD3" d="M45.3518,102.8042 C45.7148,102.4202 46.0908,102.0442 46.4858,101.6812 C46.0908,102.0442 45.7148,102.4202 45.3518,102.8042"/><path id="Fill-69" fill="#D9CFD3" d="M50.9309,101.6391 C49.9329,101.2701 48.9389,100.8751 47.9519,100.4461 C48.9389,100.8751 49.9329,101.2701 50.9309,101.6391 Z"/><path id="Fill-71" fill="#D9CFD3" d="M46.6452,101.5395 C47.0642,101.1615 47.4962,100.7935 47.9512,100.4455 C47.4962,100.7935 47.0642,101.1615 46.6452,101.5395"/><path id="Fill-73" fill="#ED709E" d="M40.4538,110.0512 C40.4678,110.0222 40.4828,109.9912 40.4968,109.9612 C40.4828,109.9912 40.4678,110.0212 40.4538,110.0512"/><polygon id="Fill-75" fill="#ED709E" points="39.818 111.43 39.818 111.43 39.818 111.429"/><path id="Fill-77" fill="#ED709E" d="M76.697,104.3286 C67.723,105.6826 59.152,104.6866 50.93,101.6396 C48.027,104.2906 46.011,107.5946 44.604,110.7726 C47.078,110.1336 49.955,108.8756 51.95,106.3806 C52.083,106.2146 52.306,106.1526 52.506,106.2216 C52.706,106.2916 52.841,106.4796 52.841,106.6916 C52.841,106.7526 52.907,112.6746 57.514,117.3236 C58.504,116.8236 61.907,114.6876 63.378,108.3926 C63.433,108.1596 63.63,108.0156 63.888,108.0086 C64.129,108.0186 64.327,108.2006 64.361,108.4396 C64.397,108.7056 65.344,114.8796 73.426,117.0496 C73.932,116.1426 75.306,113.1096 74.143,108.4606 C74.087,108.2326 74.196,107.9976 74.405,107.8916 C74.613,107.7896 74.869,107.8426 75.017,108.0246 C75.051,108.0666 78.46,112.1556 85.448,113.0926 C81.335,107.1886 76.697,104.3286 76.697,104.3286"/><path id="Fill-79" fill="#ED709E" d="M41.2038,108.5952 C41.2228,108.5622 41.2418,108.5282 41.2608,108.4932 C41.2418,108.5282 41.2228,108.5612 41.2038,108.5952"/><path id="Fill-81" fill="#ED709E" d="M42.071,107.102 L42.077,107.093 L42.071,107.102 Z"/><path id="Fill-83" fill="#ED709E" d="M43.9939,104.3696 C44.0439,104.3076 44.0929,104.2446 44.1429,104.1826 C44.0929,104.2446 44.0439,104.3076 43.9939,104.3696"/><path id="Fill-85" fill="#ED709E" d="M45.1657,103.0024 C45.2277,102.9364 45.2897,102.8704 45.3517,102.8044 C45.2897,102.8704 45.2277,102.9364 45.1657,103.0024"/><path id="Fill-87" fill="#ED709E" d="M42.9836,105.7192 C43.0026,105.6922 43.0206,105.6642 43.0396,105.6372 C43.0206,105.6642 43.0026,105.6922 42.9836,105.7192"/><path id="Fill-89" fill="#ED709E" d="M46.4856,101.6811 C46.5376,101.6331 46.5926,101.5871 46.6456,101.5391 C46.5926,101.5871 46.5376,101.6331 46.4856,101.6811"/><path id="Fill-91" fill="#C85089" d="M50.9304,101.6391 C49.9324,101.2701 48.9394,100.8751 47.9514,100.4461 C47.4964,100.7931 47.0644,101.1611 46.6454,101.5391 C46.5924,101.5871 46.5374,101.6331 46.4854,101.6811 C46.0914,102.0441 45.7144,102.4201 45.3514,102.8041 C45.2894,102.8701 45.2274,102.9361 45.1654,103.0021 C44.8104,103.3871 44.4694,103.7811 44.1434,104.1821 C44.0934,104.2441 44.0434,104.3071 43.9934,104.3691 C43.6614,104.7861 43.3414,105.2081 43.0394,105.6371 C43.0204,105.6641 43.0024,105.6921 42.9834,105.7191 C42.6654,106.1721 42.3624,106.6311 42.0764,107.0931 L42.0714,107.1021 C41.7844,107.5651 41.5154,108.0301 41.2604,108.4931 C41.2424,108.5281 41.2224,108.5621 41.2034,108.5951 C40.9544,109.0521 40.7194,109.5091 40.4974,109.9611 C40.4824,109.9921 40.4684,110.0221 40.4534,110.0511 C40.2284,110.5151 40.0154,110.9761 39.8184,111.4291 L39.8184,111.4301 C40.4054,111.4261 42.3354,111.3591 44.6034,110.7731 C46.0114,107.5941 48.0274,104.2901 50.9304,101.6391"/><path id="Fill-93" fill="#ED709E" d="M52.1677,135.6294 C52.1357,135.5594 52.1027,135.4884 52.0697,135.4174 C52.1027,135.4884 52.1357,135.5594 52.1677,135.6294"/><path id="Fill-95" fill="#ED709E" d="M53.2697,137.4643 C53.2147,137.3993 53.1597,137.3323 53.1067,137.2633 C53.1597,137.3323 53.2147,137.3993 53.2697,137.4643"/><path id="Fill-97" fill="#ED709E" d="M52.3635,136.0356 C52.3265,135.9626 52.2905,135.8896 52.2555,135.8166 C52.2905,135.8896 52.3265,135.9626 52.3635,136.0356"/><path id="Fill-99" fill="#ED709E" d="M53.5373,137.7495 C53.4763,137.6905 53.4173,137.6305 53.3593,137.5655 C53.4173,137.6305 53.4763,137.6905 53.5373,137.7495"/><path id="Fill-101" fill="#ED709E" d="M52.7883,136.7993 C52.7433,136.7263 52.6973,136.6533 52.6533,136.5773 C52.6973,136.6533 52.7433,136.7263 52.7883,136.7993"/><path id="Fill-103" fill="#ED709E" d="M52.571,136.4292 C52.529,136.3552 52.488,136.2812 52.448,136.2042 C52.488,136.2812 52.529,136.3552 52.571,136.4292"/><path id="Fill-105" fill="#ED709E" d="M53.0207,137.145 C52.9707,137.076 52.9207,137.005 52.8727,136.932 C52.9207,137.005 52.9707,137.076 53.0207,137.145"/><path id="Fill-107" fill="#ED709E" d="M55.6726,138.5532 C55.5586,138.5602 55.4496,138.5582 55.3426,138.5532 C55.4496,138.5582 55.5586,138.5602 55.6726,138.5532"/><path id="Fill-109" fill="#ED709E" d="M53.8269,137.9995 C53.7609,137.9485 53.6959,137.8955 53.6319,137.8375 C53.6949,137.8955 53.7609,137.9485 53.8269,137.9995"/><path id="Fill-111" fill="#ED709E" d="M56.136,138.4917 C56.003,138.5177 55.876,138.5327 55.75,138.5437 C55.876,138.5327 56.003,138.5177 56.136,138.4917"/><path id="Fill-113" fill="#ED709E" d="M55.2434,138.5503 C55.1424,138.5423 55.0474,138.5273 54.9514,138.5093 C55.0474,138.5273 55.1424,138.5423 55.2434,138.5503"/><path id="Fill-115" fill="#ED709E" d="M54.8464,138.4897 C54.7554,138.4687 54.6694,138.4407 54.5844,138.4117 C54.6694,138.4407 54.7564,138.4687 54.8464,138.4897"/><path id="Fill-117" fill="#ED709E" d="M54.1408,138.2104 C54.0668,138.1674 53.9948,138.1204 53.9258,138.0714 C53.9948,138.1204 54.0668,138.1674 54.1408,138.2104"/><path id="Fill-119" fill="#ED709E" d="M54.4797,138.3745 C54.3977,138.3425 54.3197,138.3045 54.2427,138.2645 C54.3197,138.3045 54.3977,138.3425 54.4797,138.3745"/><path id="Fill-121" fill="#ED709E" d="M51.2785,133.4311 C51.4295,133.8251 51.5615,134.2271 51.7245,134.6151 C51.5615,134.2271 51.4295,133.8251 51.2785,133.4311"/><path id="Fill-123" fill="#ED709E" d="M51.9773,135.2055 C51.9493,135.1425 51.9213,135.0775 51.8943,135.0145 C51.9213,135.0775 51.9493,135.1425 51.9773,135.2055"/><path id="Fill-125" fill="#ED709E" d="M54.4807,133.6313 C54.0997,133.6353 53.7197,133.6383 53.3427,133.6343 C53.4267,133.9123 53.4947,134.1973 53.5847,134.4743 C54.1267,136.1263 54.7447,137.8813 56.1367,138.4913 C56.2857,138.4623 56.4387,138.4273 56.5987,138.3773 C57.2987,138.1603 58.0227,137.5913 57.9827,136.7893 C57.9827,136.7893 57.8967,135.4713 57.8487,133.5623 C56.7267,133.6003 55.6067,133.6203 54.4807,133.6313"/><path id="Fill-127" fill="#ED709E" d="M67.8488,133.8042 C67.7998,135.5772 67.7218,136.7892 67.7218,136.7892 C67.7218,136.7892 67.8008,135.5802 67.8488,133.8042 Z"/><path id="Fill-129" fill="#ED709E" d="M69.7634,138.5219 C69.5544,138.4929 69.3374,138.4489 69.1044,138.3769 C69.3374,138.4489 69.5544,138.4919 69.7634,138.5219"/><path id="Fill-131" fill="#ED709E" d="M73.572,134.8833 C72.734,134.8133 71.912,134.6673 71.076,134.5373 C70.469,134.4433 69.876,134.3673 69.29,134.2513 C69.158,135.7503 69.043,136.7213 69.043,136.7213 C68.953,137.5983 69.705,138.2643 70.46,138.5503 C70.274,138.5653 70.078,138.5573 69.873,138.5353 C72.043,138.7783 73.031,136.8423 73.848,134.9253 C73.757,134.9143 73.664,134.8953 73.572,134.8833"/><path id="Fill-133" fill="#ECA28A" d="M69.8728,138.5356 C69.8368,138.5316 69.8008,138.5266 69.7638,138.5216 C69.8008,138.5266 69.8368,138.5316 69.8728,138.5356"/><path id="Fill-135" fill="#ECA28A" d="M69.2898,134.2514 C69.5238,131.5764 69.8108,127.1984 69.5938,123.4924 L67.4678,123.8924 C67.9268,127.0744 67.9238,131.1024 67.8498,133.8044 C67.8948,133.8304 67.9278,133.8674 67.9798,133.8884 C68.4138,134.0574 68.8498,134.1644 69.2898,134.2514"/><path id="Fill-137" fill="#C85089" d="M69.0432,136.7212 C69.0432,136.7212 69.1582,135.7502 69.2902,134.2512 C68.8502,134.1642 68.4132,134.0572 67.9802,133.8882 C67.9272,133.8672 67.8952,133.8302 67.8492,133.8042 C67.8002,135.5802 67.7212,136.7892 67.7212,136.7892 C67.6812,137.5912 68.4042,138.1602 69.1052,138.3772 C69.3372,138.4492 69.5542,138.4922 69.7632,138.5222 C69.8002,138.5272 69.8362,138.5322 69.8732,138.5352 C70.0782,138.5572 70.2742,138.5652 70.4602,138.5502 C69.7052,138.2642 68.9532,137.5982 69.0432,136.7212"/><path id="Fill-139" fill="#ECA28A"/><path id="Fill-141" fill="#ECA28A" d="M54.9519,138.5092 C54.9169,138.5022 54.8809,138.4972 54.8469,138.4892 C54.8809,138.4972 54.9169,138.5022 54.9519,138.5092"/><path id="Fill-143" fill="#ECA28A" d="M55.7502,138.5434 C55.7252,138.5464 55.6982,138.5514 55.6722,138.5534 C55.6982,138.5514 55.7252,138.5464 55.7502,138.5434"/><path id="Fill-145" fill="#ECA28A" d="M54.2424,138.2641 C54.2084,138.2461 54.1744,138.2291 54.1404,138.2101 C54.1744,138.2291 54.2084,138.2461 54.2424,138.2641"/><path id="Fill-147" fill="#ECA28A" d="M54.5842,138.4116 C54.5492,138.3986 54.5142,138.3886 54.4802,138.3746 C54.5142,138.3886 54.5492,138.3986 54.5842,138.4116"/><path id="Fill-149" fill="#ECA28A" d="M55.3425,138.5532 C55.3095,138.5522 55.2755,138.5532 55.2435,138.5502 C55.2755,138.5532 55.3095,138.5522 55.3425,138.5532"/><path id="Fill-151" fill="#ECA28A" d="M52.8723,136.9321 C52.8443,136.8881 52.8163,136.8441 52.7883,136.7991 C52.8163,136.8441 52.8443,136.8881 52.8723,136.9321"/><path id="Fill-153" fill="#ECA28A" d="M52.6535,136.5776 C52.6255,136.5286 52.5985,136.4786 52.5705,136.4296 C52.5985,136.4786 52.6255,136.5286 52.6535,136.5776"/><path id="Fill-155" fill="#ECA28A" d="M51.8938,135.0141 C51.8358,134.8801 51.7798,134.7461 51.7248,134.6151 C51.7798,134.7461 51.8358,134.8801 51.8938,135.0141"/><path id="Fill-157" fill="#ECA28A" d="M52.07,135.4174 C52.039,135.3474 52.008,135.2754 51.977,135.2054 C52.008,135.2754 52.039,135.3474 52.07,135.4174"/><path id="Fill-159" fill="#ECA28A" d="M52.4485,136.2046 C52.4195,136.1486 52.3915,136.0926 52.3635,136.0356 C52.3915,136.0926 52.4195,136.1486 52.4485,136.2046"/><path id="Fill-161" fill="#ECA28A" d="M52.2551,135.8169 C52.2251,135.7549 52.1971,135.6919 52.1681,135.6299 C52.1971,135.6919 52.2251,135.7549 52.2551,135.8169"/><path id="Fill-163" fill="#ECA28A" d="M53.1071,137.2631 C53.0781,137.2251 53.0491,137.1851 53.0211,137.1451 C53.0491,137.1851 53.0781,137.2251 53.1071,137.2631"/><path id="Fill-165" fill="#ECA28A" d="M53.3591,137.5659 C53.3291,137.5329 53.2991,137.4989 53.2701,137.4639 C53.2991,137.4989 53.3291,137.5329 53.3591,137.5659"/><path id="Fill-167" fill="#ECA28A" d="M53.632,137.8374 C53.6,137.8094 53.569,137.7794 53.537,137.7494 C53.569,137.7794 53.6,137.8094 53.632,137.8374"/><path id="Fill-169" fill="#ECA28A" d="M53.9255,138.0717 C53.8925,138.0487 53.8595,138.0247 53.8265,137.9997 C53.8595,138.0247 53.8925,138.0487 53.9255,138.0717"/><path id="Fill-171" fill="#ECA28A" d="M51.2849,123.2192 L48.3869,122.9382 C49.0989,126.4722 49.9849,130.0502 51.2789,133.4312 C51.9569,133.5882 52.6459,133.6262 53.3429,133.6342 C52.3199,130.2582 51.7179,126.7172 51.2849,123.2192"/><path id="Fill-173" fill="#C85089" d="M53.5847,134.4741 C53.4947,134.1981 53.4267,133.9121 53.3427,133.6341 C52.6467,133.6261 51.9577,133.5881 51.2787,133.4311 C51.4297,133.8251 51.5617,134.2271 51.7247,134.6151 C51.7797,134.7461 51.8357,134.8801 51.8937,135.0141 C51.9207,135.0781 51.9497,135.1421 51.9777,135.2051 C52.0077,135.2761 52.0387,135.3471 52.0697,135.4171 C52.1027,135.4891 52.1357,135.5591 52.1677,135.6291 C52.1967,135.6921 52.2257,135.7541 52.2547,135.8171 C52.2907,135.8901 52.3267,135.9621 52.3637,136.0361 C52.3917,136.0921 52.4197,136.1491 52.4487,136.2041 C52.4887,136.2811 52.5297,136.3551 52.5707,136.4291 C52.5987,136.4791 52.6257,136.5291 52.6537,136.5781 C52.6967,136.6531 52.7427,136.7261 52.7887,136.7991 C52.8157,136.8441 52.8437,136.8881 52.8727,136.9321 C52.9207,137.0051 52.9707,137.0761 53.0207,137.1451 C53.0487,137.1851 53.0777,137.2251 53.1067,137.2631 C53.1597,137.3321 53.2147,137.3991 53.2697,137.4641 C53.2987,137.4981 53.3287,137.5331 53.3587,137.5661 C53.4177,137.6301 53.4767,137.6911 53.5377,137.7491 C53.5687,137.7801 53.6007,137.8091 53.6317,137.8371 C53.6957,137.8951 53.7607,137.9491 53.8267,137.9991 C53.8587,138.0251 53.8927,138.0481 53.9257,138.0721 C53.9957,138.1201 54.0667,138.1671 54.1407,138.2101 C54.1737,138.2291 54.2087,138.2461 54.2427,138.2641 C54.3197,138.3041 54.3977,138.3421 54.4797,138.3741 C54.5137,138.3881 54.5487,138.3991 54.5847,138.4121 C54.6697,138.4411 54.7557,138.4681 54.8467,138.4901 C54.8807,138.4971 54.9167,138.5021 54.9517,138.5091 C55.0467,138.5271 55.1427,138.5421 55.2437,138.5501 C55.2757,138.5531 55.3097,138.5521 55.3427,138.5531 C55.4497,138.5581 55.5587,138.5601 55.6727,138.5531 C55.6977,138.5511 55.7247,138.5461 55.7507,138.5431 C55.8757,138.5331 56.0027,138.5181 56.1357,138.4921 L56.1367,138.4921 C54.7447,137.8811 54.1267,136.1261 53.5847,134.4741"/><path id="Stroke-175" stroke="#641340" stroke-linecap="round" stroke-linejoin="round" d="M76.697,82.1255 C75.684,91.1585 76.697,104.3285 76.697,104.3285 C60.319,106.8615 47.951,100.4455 47.951,100.4455 L48.753,88.4575 C48.753,88.4575 55.57,86.1895 57.786,78.9085"/><path id="Stroke-177" stroke="#641340" stroke-linecap="round" stroke-linejoin="round" d="M76.697,104.3286 C76.697,104.3286 84.127,108.8876 88.516,118.4276 C88.516,118.4276 65.638,129.5706 37.188,120.0316 C37.188,120.0316 39.129,107.1996 47.951,100.4456"/><path id="Fill-179" fill="#ED709E" d="M87.2917,88.7954 C86.5347,92.1524 85.0797,95.2264 82.9867,98.0394 C83.8727,99.3904 85.8147,100.4454 85.8147,100.4454 C89.9517,96.6464 90.7957,89.3444 90.7957,89.3444 C90.7957,89.3444 89.4927,88.7954 87.2917,88.7954"/><path id="Fill-181" fill="#C85089" d="M84.57,95.6137 C84.09,96.4417 83.571,97.2537 82.987,98.0397 C83.873,99.3897 85.815,100.4457 85.815,100.4457 C86.624,99.7027 87.292,98.8187 87.866,97.8877 C86.7,97.2317 85.613,96.4597 84.57,95.6137"/><path id="Stroke-183" stroke="#641340" stroke-linecap="round" stroke-linejoin="round" d="M48.3869,122.938 C49.1819,126.883 50.1629,130.898 51.7239,134.615 C52.6589,136.839 53.7459,139.26 56.5989,138.377 C57.2989,138.161 58.0219,137.591 57.9829,136.79 C57.9829,136.79 57.4759,129.167 58.2359,123.892"/><path id="Stroke-185" stroke="#641340" stroke-linecap="round" stroke-linejoin="round" d="M77.6081,121.9858 C76.8131,125.9308 75.5411,130.8978 73.9791,134.6148 C73.0451,136.8398 71.9581,139.2598 69.1051,138.3778 C68.4041,138.1608 67.6811,137.5908 67.7211,136.7898 C67.7211,136.7898 68.2281,129.1668 67.4681,123.8918"/><path id="Stroke-187" stroke="#641340" stroke-linecap="round" stroke-linejoin="round" d="M76.697,82.9067 C77.985,83.9197 88.369,83.6027 87.292,88.7957 C86.216,93.9867 82.987,98.0397 82.987,98.0397 C82.987,98.0397 79.187,99.6427 76.297,95.8257"/><path id="Fill-189" fill="#FFC3AC" d="M93.7497,92.728 C92.8067,92.306 91.8317,91.947 90.8487,91.628 L87.7827,98.32 C89.9287,98.902 96.6067,100.389 96.5587,96.459 C96.5317,94.41 95.4497,93.489 93.7497,92.728"/><path id="Fill-191" fill="#ECA28A" d="M88.6843,96.353 L87.7833,98.32 C89.8473,98.88 96.0933,100.264 96.5183,96.866 C94.7763,98.113 90.9193,97.105 88.6843,96.353"/><path id="Stroke-193" stroke="#641340" stroke-linecap="round" stroke-linejoin="round" d="M87.2917,88.7954 C89.4927,88.7954 90.7957,89.3444 90.7957,89.3444 C90.7957,89.3444 89.9517,96.6464 85.8147,100.4454 C85.8147,100.4454 83.8727,99.3904 82.9867,98.0394"/><path id="Stroke-195" stroke="#641340" stroke-linecap="round" stroke-linejoin="round" d="M90.8484,91.6284 C91.8314,91.9464 92.8064,92.3064 93.7494,92.7284 C95.4504,93.4884 96.5324,94.4094 96.5584,96.4594 C96.6084,100.3894 89.9284,98.9014 87.7834,98.3194"/><path id="Stroke-197" stroke="#641340" stroke-linecap="round" stroke-linejoin="round" d="M59.4963,80.0893 C59.4963,80.0893 58.4863,83.5703 56.9083,86.1793 C59.0533,85.0593 62.8513,85.1863 65.6383,88.1613 C66.7773,87.1493 71.3993,86.5783 73.5523,88.7953 C73.5523,88.7953 74.3123,84.5533 74.7553,82.4633"/><path id="Fill-199" fill="#FFC3AC" d="M41.5363,62.0493 C40.4643,61.1113 38.9213,61.1243 37.7553,61.8843 C34.8643,63.7663 36.4243,68.1393 37.8833,70.4423 C38.5623,71.5133 39.3963,72.4763 40.1413,73.5003 C40.1993,73.5793 40.2313,73.6733 40.2753,73.7603 L46.8963,70.1163 C44.9953,67.8033 43.6973,63.9413 41.5363,62.0493"/><path id="Fill-201" fill="#ECA28A" d="M42.1506,72.6352 C42.1066,72.5482 42.0746,72.4542 42.0166,72.3752 C41.2716,71.3512 40.4376,70.3882 39.7576,69.3172 C38.4486,67.2492 37.0686,63.5202 38.8886,61.4152 C38.4926,61.5032 38.1066,61.6562 37.7556,61.8842 C34.8646,63.7662 36.4236,68.1392 37.8826,70.4422 C38.5626,71.5132 39.3966,72.4762 40.1416,73.5002 C40.1996,73.5792 40.2316,73.6732 40.2756,73.7602 L46.8966,70.1162 C46.8796,70.0962 46.8636,70.0712 46.8476,70.0502 L42.1506,72.6352 Z"/><path id="Fill-203" fill="#EC8280" d="M95.9587,23.936 C82.8517,13.573 61.1367,14.09 48.4227,24.942 C38.6327,33.297 33.7517,49.216 39.5197,61.258 C39.6367,61.226 39.7627,61.224 39.8937,61.256 C40.1767,61.19 40.4857,61.248 40.7547,61.519 C41.0747,61.841 41.3617,62.188 41.6347,62.544 C42.6437,63.426 43.5217,64.435 43.9767,65.745 L44.5097,66.277 C44.5097,66.277 47.0017,67.99 50.3787,67.906 C49.4187,66.48 43.0967,62.793 46.1367,50.467 C46.1367,50.467 46.8117,53.675 49.0067,54.604 C49.0067,54.604 47.5717,47.597 50.9487,39.155 C50.9487,39.155 50.4417,49.201 55.4227,54.097 C55.4227,54.097 54.9167,49.37 56.6887,44.98 C56.6887,44.98 58.9687,47.512 58.9687,49.455 C58.9687,49.455 61.2477,47.85 61.5007,45.318 C61.5007,45.318 65.3847,51.143 63.8647,57.305 C63.8647,57.305 73.9107,54.351 76.8657,43.713 C76.8657,43.713 77.4577,48.526 76.2747,51.565 C76.2747,51.565 80.0737,51.227 81.6787,49.032 C81.6787,49.032 82.2697,54.942 79.8207,59.248 C79.8207,59.248 89.1917,57.728 90.7117,46.752 C90.7117,46.752 92.2307,51.312 90.7117,54.52 C90.7117,54.52 93.9197,52.915 94.3417,50.636 C94.3417,50.636 94.3417,58.826 90.5427,62.371 C90.5427,62.371 94.1727,63.13 96.2827,61.611 C96.2827,61.611 94.3417,75.119 86.4057,81.62 C86.4057,81.62 98.6467,77.314 103.6277,65.411 C109.1207,52.284 107.5837,33.127 95.9587,23.936"/><path id="Fill-205" fill="#ED709E" d="M37.4621,76.0053 C37.4621,76.0053 39.4031,77.5033 41.5141,77.3983 L50.5381,73.2193 L48.2261,70.1163 C41.1341,72.1433 37.4621,76.0053 37.4621,76.0053"/><path id="Fill-207" fill="#C85089" d="M42.5515,75.2387 C41.7565,74.8017 41.0355,74.2757 40.3315,73.7247 C38.4345,74.9877 37.4625,76.0057 37.4625,76.0057 C37.4625,76.0057 39.4035,77.5037 41.5135,77.3977 L44.2915,76.1117 C43.7045,75.8347 43.1205,75.5507 42.5515,75.2387"/><path id="Fill-209" fill="#D26B6A" d="M49.633,67.8442 C49.085,66.5722 48.135,65.6292 47.064,64.8232 C46.765,64.4882 46.455,64.1632 46.112,63.8652 C45.824,63.6152 45.511,63.5782 45.234,63.6662 C45.101,63.6442 44.975,63.6552 44.861,63.6952 C38.229,52.1072 41.934,35.8742 51.087,26.8252 C57.368,20.6152 66.368,17.1032 75.499,16.5522 C65.719,15.9662 55.626,18.7932 48.423,24.9422 C38.633,33.2972 33.752,49.2162 39.519,61.2582 C39.637,61.2262 39.763,61.2242 39.894,61.2562 C40.176,61.1902 40.486,61.2472 40.755,61.5192 C41.075,61.8412 41.362,62.1882 41.634,62.5442 C42.644,63.4262 43.522,64.4352 43.976,65.7442 L44.509,66.2772 C44.509,66.2772 46.671,67.7602 49.694,67.8972 L49.633,67.8442 Z"/><path id="Stroke-211" stroke="#641340" stroke-linecap="round" stroke-linejoin="round" d="M48.7531,88.4575 C37.8201,84.6375 41.5141,77.3975 41.5141,77.3975 C41.5141,77.3975 46.1051,74.1105 50.9801,73.2675"/><path id="Stroke-213" stroke="#641340" stroke-linecap="round" stroke-linejoin="round" d="M41.5139,77.3979 C39.4039,77.5029 37.4619,76.0049 37.4619,76.0049 C37.4619,76.0049 41.1339,72.1429 48.2259,70.1169"/><path id="Stroke-215" stroke="#641340" stroke-linecap="round" stroke-linejoin="round" d="M46.8962,70.1167 C44.9952,67.8037 43.6972,63.9407 41.5362,62.0497 C40.4642,61.1107 38.9212,61.1247 37.7552,61.8847 C34.8642,63.7657 36.4242,68.1387 37.8832,70.4417 C38.5632,71.5127 39.3962,72.4757 40.1422,73.5007 C40.1992,73.5797 40.2312,73.6737 40.2752,73.7607"/><path id="Stroke-217" stroke="#641340" stroke-linecap="round" stroke-linejoin="round" d="M44.5095,66.2768 C44.5095,66.2768 47.0015,67.9898 50.3785,67.9058 C49.4185,66.4798 43.0965,62.7938 46.1365,50.4668 C46.1365,50.4668 46.8115,53.6748 49.0065,54.6038 C49.0065,54.6038 47.5715,47.5968 50.9485,39.1548 C50.9485,39.1548 50.4415,49.2008 55.4225,54.0968 C55.4225,54.0968 54.9165,49.3698 56.6895,44.9798 C56.6895,44.9798 58.9685,47.5118 58.9685,49.4548 C58.9685,49.4548 61.2475,47.8498 61.5015,45.3178 C61.5015,45.3178 65.3845,51.1428 63.8645,57.3048 C63.8645,57.3048 73.9105,54.3508 76.8655,43.7138 C76.8655,43.7138 77.4575,48.5258 76.2755,51.5648 C76.2755,51.5648 80.0735,51.2268 81.6785,49.0328 C81.6785,49.0328 82.2695,54.9418 79.8215,59.2478 C79.8215,59.2478 89.1925,57.7278 90.7115,46.7528 C90.7115,46.7528 92.2315,51.3118 90.7115,54.5198 C90.7115,54.5198 93.9195,52.9158 94.3415,50.6358 C94.3415,50.6358 94.3415,58.8258 90.5425,62.3708 C90.5425,62.3708 94.1725,63.1308 96.2825,61.6108 C96.2825,61.6108 94.3415,75.1188 86.4055,81.6198 C86.4055,81.6198 98.6475,77.3138 103.6275,65.4108 C109.1205,52.2848 107.5835,33.1278 95.9585,23.9358 C82.8515,13.5728 61.1365,14.0898 48.4225,24.9418 C38.6135,33.3138 33.7315,49.2788 39.5515,61.3288"/><path id="Stroke-219" stroke="#641340" stroke-linecap="round" stroke-linejoin="round" d="M89.945,20.1547 C89.755,18.6557 89.883,17.1017 90.434,15.6957 C90.986,14.2897 91.977,13.0387 93.287,12.2847 C94.523,11.5727 95.966,11.3307 97.36,11.0307 C98.249,10.8397 99.132,10.6207 100.004,10.3627 C101.262,9.9917 102.549,9.5077 103.439,8.5417 C104.428,11.3237 103.928,14.5877 102.152,16.9467 C105.035,16.2467 107.222,13.3587 107.118,10.3937 C108.308,12.5207 108.728,14.9887 108.965,17.4147 C109.147,19.2927 109.215,21.2727 108.396,22.9727 C107.656,24.5087 106.242,25.6567 104.665,26.3047 C103.088,26.9547 101.353,27.1397 99.648,27.1067"/><path id="Stroke-221" stroke="#641340" stroke-linecap="round" stroke-linejoin="round" d="M69.2043,16.4731 C69.8903,15.1271 70.5523,13.1441 70.5093,11.6341 C70.4663,10.1231 69.9563,8.6111 68.9793,7.4581 C68.0573,6.3691 66.7823,5.6541 65.5713,4.8991 C64.7993,4.4181 64.0423,3.9131 63.3093,3.3761 C62.2503,2.6011 61.2033,1.7091 60.6933,0.4991 C58.8213,2.7831 58.1863,6.0241 59.0593,8.8441 C56.5843,7.2091 55.5023,3.7521 56.6043,0.9971 C54.7653,2.5971 53.5343,4.7761 52.4913,6.9791 C51.6833,8.6841 50.9493,10.5251 51.1443,12.4021 C51.3213,14.0981 52.2633,15.6561 53.5273,16.8001 C54.7913,17.9451 56.3603,18.7061 57.9763,19.2521"/><path id="Stroke-223" stroke="#641340" stroke-linecap="round" stroke-linejoin="round" d="M39.6023,111.9301 C39.6023,111.9301 47.9513,112.1801 52.3413,106.6931 C52.3413,106.6931 52.3413,113.0241 57.4063,117.9201 C57.4063,117.9201 62.0503,116.2751 63.8653,108.5071 C63.8653,108.5071 64.7933,115.4301 73.6583,117.6251 C73.6583,117.6251 76.1063,114.2481 74.6283,108.3391 C74.6283,108.3391 78.2283,112.8051 85.8413,113.6541"/><path id="Stroke-225" stroke="#641340" stroke-linecap="round" stroke-linejoin="round" d="M51.196,133.2876 C51.196,133.2876 54.915,134.5466 57.849,133.6206"/><path id="Stroke-227" stroke="#641340" stroke-linecap="round" stroke-linejoin="round" d="M67.8454,133.9604 C67.8454,133.9604 71.1774,135.3104 73.9794,134.6144"/><path id="Stroke-229" stroke="#641340" stroke-linecap="round" stroke-linejoin="round" d="M47.2693,67.4965 C52.0813,77.5925 67.9173,90.6405 90.7953,76.2585"/><path id="Stroke-231" stroke="#641340" stroke-linecap="round" stroke-linejoin="round" stroke-width="2" d="M27.1609,41.2778 L38.5449,66.0908"/><path id="Fill-233" fill="#FFC712" d="M33.863,30.4077 C33.69,30.2187 33.423,30.1427 33.176,30.2167 L26.982,32.0367 L21.971,27.9667 C21.771,27.8047 21.494,27.7657 21.263,27.8767 C21.029,27.9837 20.877,28.2147 20.869,28.4707 L20.686,34.9247 L15.267,38.4317 C15.051,38.5727 14.933,38.8227 14.963,39.0787 C14.993,39.3327 15.165,39.5507 15.407,39.6367 L21.488,41.8037 L23.149,48.0427 C23.216,48.2917 23.417,48.4807 23.67,48.5307 C23.744,48.5467 23.819,48.5487 23.892,48.5387 C24.066,48.5147 24.227,48.4257 24.338,48.2807 L28.278,43.1687 L34.724,43.5157 C34.983,43.5327 35.224,43.3957 35.35,43.1727 C35.477,42.9477 35.465,42.6717 35.319,42.4587 L31.675,37.1317 L33.997,31.1087 C34.089,30.8687 34.037,30.5957 33.863,30.4077"/><path id="Fill-235" fill="#DA9C00" d="M28.6609,31.5825 L33.7839,30.0765 C33.6789,30.0565 33.5699,30.0485 33.4639,30.0795 L28.5779,31.5155 L28.6609,31.5825 Z"/><path id="Fill-237" fill="#DA9C00" d="M24.8274,47.5883 L23.1664,41.3503 L17.0864,39.1823 C16.8434,39.0963 16.6714,38.8793 16.6414,38.6243 C16.6124,38.3683 16.7294,38.1183 16.9454,37.9783 L22.3654,34.4703 L22.5464,28.0623 L22.2594,27.8283 C22.0594,27.6673 21.7824,27.6283 21.5514,27.7393 C21.3174,27.8463 21.1644,28.0773 21.1574,28.3343 L20.9744,34.7873 L15.5554,38.2943 C15.3394,38.4353 15.2214,38.6853 15.2504,38.9423 C15.2804,39.1953 15.4524,39.4123 15.6954,39.4993 L21.7764,41.6673 L23.4364,47.9043 C23.5034,48.1543 23.7044,48.3433 23.9574,48.3943 C24.0314,48.4093 24.1074,48.4113 24.1804,48.4013 C24.3534,48.3783 24.5154,48.2873 24.6254,48.1443 L24.9264,47.7543 C24.8924,47.6983 24.8444,47.6523 24.8274,47.5883"/><path id="Fill-239" fill="#DA9C00" d="M29.9568,42.7143 L29.6668,43.0913 L35.0128,43.3793 C35.2708,43.3953 35.5118,43.2593 35.6378,43.0353 C35.6408,43.0303 35.6388,43.0263 35.6418,43.0213 L29.9568,42.7143 Z"/><path id="Stroke-241" stroke="#641340" stroke-linecap="round" stroke-linejoin="round" d="M33.863,30.4077 C33.69,30.2187 33.423,30.1427 33.176,30.2167 L26.982,32.0367 L21.971,27.9667 C21.771,27.8047 21.494,27.7657 21.263,27.8767 C21.029,27.9837 20.877,28.2147 20.869,28.4707 L20.686,34.9247 L15.267,38.4317 C15.051,38.5727 14.933,38.8227 14.963,39.0787 C14.993,39.3327 15.165,39.5507 15.407,39.6367 L21.488,41.8037 L23.149,48.0427 C23.216,48.2917 23.417,48.4807 23.67,48.5307 C23.744,48.5467 23.819,48.5487 23.892,48.5387 C24.066,48.5147 24.227,48.4257 24.338,48.2807 L28.278,43.1687 L34.724,43.5157 C34.983,43.5327 35.224,43.3957 35.35,43.1727 C35.477,42.9477 35.465,42.6717 35.319,42.4587 L31.675,37.1317 L33.997,31.1087 C34.089,30.8687 34.037,30.5957 33.863,30.4077 Z"/><path id="Fill-243" fill="#FFC3AC" d="M38.1203,69.1362 C39.9503,68.7192 40.9963,67.2742 40.1623,65.1592 C39.3273,63.0452 37.6713,62.6012 36.1303,63.2882 C34.5883,63.9762 36.2903,69.5532 38.1203,69.1362"/><path id="Fill-245" fill="#ECA28A" d="M37.3156,67.8715 C39.1456,67.4545 40.1916,66.0105 39.3576,63.8955 C39.3396,63.8515 39.3156,63.8175 39.2966,63.7745 C39.6456,64.1475 39.9426,64.6045 40.1616,65.1595 C40.9966,67.2735 39.9506,68.7195 38.1206,69.1365 C37.3666,69.3085 36.4946,68.3095 35.8536,67.0545 C36.3316,67.6315 36.8466,67.9785 37.3156,67.8715"/><path id="Stroke-247" stroke="#641340" stroke-linecap="round" stroke-linejoin="round" d="M38.1203,69.1362 C39.9503,68.7192 40.9963,67.2742 40.1623,65.1592 C39.3273,63.0452 37.9603,62.8712 36.1303,63.2882 C34.3003,63.7052 36.2903,69.5532 38.1203,69.1362 Z"/><path id="Fill-249" fill="#641340" d="M59.1867,64.8061 C59.1867,65.6101 58.5347,66.2621 57.7297,66.2621 C56.9257,66.2621 56.2737,65.6101 56.2737,64.8061 C56.2737,64.0011 56.9257,63.3491 57.7297,63.3491 C58.5347,63.3491 59.1867,64.0011 59.1867,64.8061"/><path id="Fill-251" fill="#641340" d="M84.6911,70.186 C84.6911,70.991 84.0391,71.643 83.2341,71.643 C82.4301,71.643 81.7781,70.991 81.7781,70.186 C81.7781,69.382 82.4301,68.73 83.2341,68.73 C84.0391,68.73 84.6911,69.382 84.6911,70.186"/><path id="Fill-253" fill="#FFF" d="M74.9519,72.0229 C74.4159,74.2539 71.6389,75.5859 68.5779,74.9609 C65.5169,74.3359 63.3309,71.9889 63.8689,69.7569 C64.0029,69.1979 75.0899,71.4499 74.9519,72.0229"/><path id="Fill-255" fill="#FFA8A7" d="M94.5808,25.5796 C97.2198,27.9196 98.3928,30.9066 97.1998,32.2516 C96.0078,33.5956 92.9018,32.7876 90.2638,30.4476 C87.6248,28.1066 86.4518,25.1206 87.6438,23.7756 C88.8368,22.4316 91.9418,23.2386 94.5808,25.5796"/><path id="Fill-257" fill="#FFA8A7" d="M83.0027,27.0522 C84.8517,28.6922 85.6737,30.7852 84.8377,31.7272 C84.0017,32.6692 81.8257,32.1042 79.9767,30.4632 C78.1277,28.8232 77.3067,26.7302 78.1417,25.7882 C78.9777,24.8462 81.1527,25.4112 83.0027,27.0522"/><path id="Fill-259" fill="#FFA8A7" d="M90.78,34.2085 C91.742,35.0625 92.17,36.1515 91.735,36.6425 C91.301,37.1325 90.168,36.8385 89.205,35.9835 C88.242,35.1305 87.814,34.0415 88.25,33.5505 C88.684,33.0605 89.817,33.3545 90.78,34.2085"/></g></g></svg>