<svg xmlns="http://www.w3.org/2000/svg" xmlns:xlink="http://www.w3.org/1999/xlink" width="89" height="128" version="1.1" viewBox="0 0 89 128"><title>Historical</title><desc>Created with Sketch.</desc><g id="Page-1" fill="none" fill-rule="evenodd" stroke="none" stroke-width="1"><g id="Historical"><path id="Fill-1" fill="#FFF" d="M35.6647,96.9256 C33.3307,102.8646 28.1857,108.5606 23.5977,112.0946 C53.8197,123.2016 70.1977,112.9516 70.1977,112.9516 C70.4317,105.3016 69.8567,98.5786 68.8737,92.8106 C69.8197,92.9546 68.9367,86.1706 67.2907,85.4326 C64.1877,73.5526 59.7587,67.4096 59.7587,67.4096 L43.5687,66.6536 C43.5687,66.6536 24.0507,70.7386 15.1237,85.2636 C15.1237,85.2636 18.7557,93.2816 33.8857,97.3676 C33.8857,97.3676 39.0507,90.1536 39.4837,78.9086"/><path id="Fill-3" fill="#D9CFD3" d="M34.0543,97.118 C23.5973,94.773 18.9743,89.851 18.9743,89.851 C28.4393,73.808 48.8343,68.076 48.8343,68.076 L60.5393,68.623 C60.0523,67.818 59.7583,67.41 59.7583,67.41 L43.5693,66.653 C43.5693,66.653 24.0503,70.738 15.1233,85.264 C15.1233,85.264 18.7553,93.282 33.8853,97.368 C33.8853,97.368 33.9483,97.279 34.0543,97.118"/><path id="Fill-5" fill="#D9CFD3" d="M28.8629,113.5174 C33.4529,109.9834 38.8509,101.6014 41.1859,95.6624 C43.8609,93.6534 48.6339,92.3144 53.4079,90.9754 C37.7579,92.7094 37.4739,94.8454 37.4739,94.8454 C37.4739,94.8454 36.0879,96.5324 35.3749,97.6114 C32.9269,103.3004 28.0089,108.6964 23.5969,112.0944 C27.3279,113.4654 30.8459,114.5084 34.1499,115.2884 C32.4369,114.7694 30.6759,114.1834 28.8629,113.5174"/><path id="Fill-7" fill="#D9CFD3" d="M66.0211,124.908 C66.0211,126.391 57.3131,127.593 46.5701,127.593 C35.8281,127.593 27.1201,126.391 27.1201,124.908 C27.1201,123.426 35.8281,122.223 46.5701,122.223 C57.3131,122.223 66.0211,123.426 66.0211,124.908"/><path id="Fill-9" fill="#FFC3AC" d="M39.7662,119.8045 C39.5692,120.7305 39.1592,121.6015 38.9962,122.5315 C38.8472,123.3925 39.0222,124.2715 39.7072,124.8625 C41.4232,126.3425 44.3282,124.9615 45.6782,123.6325 C47.4192,121.9195 48.7232,119.9315 49.5112,117.6185 L40.2902,116.2305 C40.1602,117.2205 39.9732,118.8255 39.7662,119.8045"/><path id="Fill-11" fill="#ECA28A" d="M41.5231,123.7938 C40.8371,123.2028 40.6631,122.3228 40.8121,121.4628 C40.9741,120.5328 41.3841,119.6618 41.5821,118.7358 C41.7101,118.1268 41.8321,117.2738 41.9361,116.4778 L40.2911,116.2308 C40.1601,117.2208 39.9731,118.8258 39.7661,119.8048 C39.5691,120.7308 39.1591,121.6018 38.9971,122.5308 C38.8471,123.3928 39.0221,124.2718 39.7081,124.8618 C41.2551,126.1978 43.7681,125.2038 45.2361,124.0218 C43.9601,124.5408 42.5351,124.6668 41.5231,123.7938"/><path id="Fill-13" fill="#FFC3AC" d="M55.6754,117.2625 C55.5444,118.2535 55.4534,118.8255 55.2454,119.8045 C55.0494,120.7305 54.6394,121.6015 54.4774,122.5315 C54.3274,123.3925 54.5024,124.2715 55.1874,124.8625 C56.9044,126.3425 59.5024,124.9485 60.8524,123.6195 C62.5934,121.9075 64.3414,117.4745 65.1294,115.1605 L55.6754,117.2625 Z"/><path id="Fill-15" fill="#ECA28A" d="M56.9655,123.9168 C56.2805,123.3258 56.1055,122.4458 56.2555,121.5858 C56.4165,120.6558 56.8265,119.7848 57.0245,118.8588 C57.1895,118.0838 57.2795,117.5608 57.3755,116.8848 L55.6755,117.2628 C55.5445,118.2538 55.4535,118.8258 55.2455,119.8048 C55.0495,120.7298 54.6395,121.6018 54.4775,122.5308 C54.3275,123.3928 54.5025,124.2708 55.1875,124.8618 C56.5995,126.0808 58.6085,125.3518 60.0285,124.3148 C58.9675,124.6768 57.8495,124.6798 56.9655,123.9168"/><path id="Fill-17" fill="#FFC3AC" d="M22.3932,92.5565 C21.4862,94.6375 21.1692,97.5625 23.0532,98.9075 C25.3632,100.5555 27.5922,98.0945 28.4782,95.6255 L22.3932,92.5565 Z"/><path id="Fill-19" fill="#ECA28A" d="M24.2262,97.9071 C22.7252,96.8361 22.6232,94.7641 23.1002,92.9141 L22.3932,92.5561 C21.4862,94.6371 21.1692,97.5621 23.0532,98.9071 C24.5412,99.9701 25.9952,99.3211 27.0792,98.0671 C26.2112,98.5621 25.2262,98.6211 24.2262,97.9071"/><path id="Fill-21" fill="#D9CFD3" d="M48.1002,84.1492 L38.4522,86.4282 L36.4322,94.0892 C50.4332,90.3912 60.4912,89.8032 69.0772,92.7002 C69.4522,90.5252 69.3152,87.2302 67.2902,85.4322 L48.1002,84.1492 Z"/><path id="Fill-23" fill="#D9CFD3" d="M32.8678,115.1239 C34.9238,113.0389 36.7638,110.5569 38.4448,107.7779 C37.5898,110.7569 36.5598,113.4419 35.2388,115.6329 L32.8678,115.1239 Z"/><path id="Fill-25" fill="#D9CFD3" d="M36.6315,115.7479 C37.9845,114.2719 39.1795,112.5289 40.2585,110.5889 C39.7475,112.6449 39.1125,114.5069 38.2645,116.0369 L36.6315,115.7479 Z"/><path id="Fill-27" fill="#D9CFD3" d="M53.3414,117.1268 C54.6944,115.6498 55.6024,110.5008 56.6814,108.5608 C56.3794,110.4548 55.2074,115.4878 54.5884,117.1268 L53.3414,117.1268 Z"/><path id="Fill-29" fill="#9C868E" d="M47.7672,86.8543 C48.7472,86.5443 51.6102,87.3393 52.5712,87.5803 C53.0632,87.7883 52.0132,90.9753 52.0132,90.9753 L53.4082,90.6533 C53.4082,90.6533 53.8502,87.8203 54.1792,87.7503 C54.9172,87.5933 59.5722,87.7853 59.3862,87.0093 C59.2242,86.3273 58.4462,85.3433 57.9812,84.8223 C57.9762,84.8173 57.9712,84.8133 57.9672,84.8093 L48.1002,84.1493 L38.4522,86.4283 L36.4322,94.0893 C38.1232,93.6423 41.9162,92.8273 43.4972,92.4713 C44.6002,90.8413 46.8362,87.1483 47.7672,86.8543"/><path id="Stroke-31" stroke="#641340" stroke-linecap="round" stroke-linejoin="round" d="M22.3932,92.5565 C21.4862,94.6375 21.1692,97.5625 23.0532,98.9075 C25.3632,100.5555 27.5922,98.0945 28.4782,95.6255"/><path id="Stroke-33" stroke="#641340" stroke-linecap="round" stroke-linejoin="round" d="M59.7584,67.41 C59.7584,67.41 64.1884,73.553 67.2904,85.432 C68.9374,86.171 69.8204,92.955 68.8734,92.81 C69.8574,98.579 70.4314,105.302 70.1974,112.952 C70.1974,112.952 64.5634,116.478 53.8044,117.153 C53.4864,117.173 53.1614,117.19 52.8344,117.205 C45.3644,117.543 35.5674,116.494 23.5974,112.095 C28.1864,108.56 33.3304,102.865 35.6644,96.926"/><path id="Stroke-35" stroke="#641340" stroke-linecap="round" stroke-linejoin="round" d="M40.2213,116.9285 C40.0903,117.9195 39.9733,118.8255 39.7663,119.8045 C39.5693,120.7315 39.1593,121.6015 38.9963,122.5315 C38.8473,123.3925 39.0223,124.2715 39.7073,124.8625 C41.4233,126.3425 44.3283,124.9615 45.6783,123.6335 C47.4193,121.9195 48.7233,119.9315 49.5113,117.6185"/><path id="Fill-37" fill="#D9CFD3" d="M58.0436,108.4754 C58.0436,108.4754 51.8026,110.2904 42.2446,107.8454 C48.9146,100.0184 51.9476,91.3864 51.9476,91.3864 C51.9476,91.3864 52.6886,90.3224 53.2746,91.3864 C53.9516,92.6114 46.1266,107.0904 45.1576,106.9754 L51.2106,108.3694 L58.0436,108.4754 Z"/><path id="Stroke-39" stroke="#641340" stroke-linecap="round" stroke-linejoin="round" d="M55.6754,117.2625 C55.5444,118.2535 55.4534,118.8255 55.2454,119.8045 C55.0494,120.7315 54.6394,121.6015 54.4774,122.5315 C54.3274,123.3925 54.5024,124.2715 55.1874,124.8625 C56.9044,126.3425 59.5024,124.9485 60.8524,123.6195 C62.5934,121.9075 64.3414,117.4745 65.1294,115.1605"/><path id="Fill-41" fill="#9C868E" d="M61.5924,90.9276 L59.9544,90.8056 C60.2124,94.3416 59.7024,99.4806 59.0794,104.8536 C60.4574,104.8536 61.6964,104.5106 62.7094,104.2216 C62.7094,104.2216 63.1744,94.5866 61.5924,90.9276"/><path id="Stroke-43" stroke="#641340" stroke-linecap="round" stroke-linejoin="round" d="M59.3756,83.6717 C62.2126,83.8607 64.9496,84.3897 67.2906,85.4337"/><path id="Stroke-45" stroke="#641340" stroke-linecap="round" stroke-linejoin="round" d="M38.4518,86.4285 C38.4518,86.4285 46.2538,84.0215 54.5868,83.6385"/><path id="Stroke-47" stroke="#641340" stroke-linecap="round" stroke-linejoin="round" d="M59.9547,90.8055 C63.2967,90.9575 66.3987,91.5465 68.8027,92.8215"/><path id="Stroke-49" stroke="#641340" stroke-linecap="round" stroke-linejoin="round" d="M35.566,94.4442 C35.566,94.4442 44.304,91.7582 53.408,90.9752"/><path id="Fill-51" fill="#D9CFD3" d="M54.5289,83.8162 C54.5289,83.8162 54.7409,95.2192 44.7549,107.0212 C44.7549,107.0212 52.6229,109.5432 58.1709,108.1302 C58.1709,108.1302 61.3789,100.6312 59.3619,83.5572 C59.2109,82.3822 54.7099,82.5472 54.5289,83.8162"/><path id="Stroke-53" stroke="#641340" stroke-linecap="round" stroke-linejoin="round" d="M54.5289,83.8162 C54.5289,83.8162 54.7409,95.2192 44.7549,107.0212 C44.7549,107.0212 51.0739,109.0462 56.3799,108.4502 C56.9939,108.3812 57.5939,108.2772 58.1709,108.1302 C58.1709,108.1302 61.3789,100.6312 59.3619,83.5572 C59.2109,82.3822 54.7099,82.5472 54.5289,83.8162 Z"/><path id="Stroke-55" stroke="#641340" stroke-linecap="round" stroke-linejoin="round" d="M59.0797,104.8533 C60.4577,104.8533 61.6957,104.5103 62.7097,104.2213 C62.7097,104.2213 63.1747,94.5863 61.5927,90.9273"/><path id="Fill-57" fill="#B06D60" d="M48.4049,82.6063 C48.0239,82.4303 47.6089,82.3393 47.1939,82.2233 C43.9409,85.6373 40.5969,88.9043 37.1459,92.0013 L39.6369,94.9143 C42.8599,91.2623 46.2059,87.7283 49.6509,84.2903 C49.3299,83.6583 48.8899,83.1143 48.4049,82.6063"/><polygon id="Fill-59" fill="#A1584C" points="39.307 94.528 39.637 94.914 39.64 94.911"/><path id="Fill-61" fill="#A1584C" d="M48.4049,82.6063 C48.0239,82.4303 47.6089,82.3393 47.1939,82.2233 C43.9409,85.6373 40.5969,88.9043 37.1459,92.0013 L38.6629,93.7753 C42.0399,90.1663 45.4609,86.6413 48.9119,83.1743 C48.7509,82.9793 48.5809,82.7913 48.4049,82.6063"/><path id="Fill-63" fill="#88BDD8" d="M35.7692,93.5223 C24.5482,104.3703 12.9542,114.4133 0.5082,123.5323 C1.8792,124.6213 3.6652,123.7153 5.1692,123.1033 C22.2742,110.6273 38.2262,96.1213 38.2262,96.1213 L35.7692,93.5223 Z"/><path id="Fill-65" fill="#FFF" d="M37.3903,95.3182 C36.1713,96.4462 19.6343,111.4332 2.5603,123.8472 C3.3923,123.6792 4.2123,123.4742 5.0223,123.2112 C22.1823,110.7122 38.2263,96.1212 38.2263,96.1212 L37.3903,95.3182 Z"/><path id="Fill-67" fill="#D68F22" d="M36.4225,97.7362 C37.5835,96.7052 38.2265,96.1212 38.2265,96.1212 L35.7695,93.5222 C35.2305,94.0442 34.6885,94.5582 34.1475,95.0762 L36.4225,97.7362 Z"/><path id="Fill-69" fill="#FFBE58" d="M35.691,96.8807 L36.422,97.7357 C37.584,96.7047 38.226,96.1207 38.226,96.1207 L37.434,95.2827 L35.691,96.8807 Z"/><path id="Stroke-71" stroke="#641340" stroke-linecap="round" stroke-linejoin="round" d="M39.6373,94.9139 C43.4193,90.2639 45.4843,88.2259 49.4693,84.5609 C49.7743,83.7449 47.9573,81.9309 46.9963,82.3199 C42.9733,86.8889 40.7033,88.8339 37.1463,92.0009"/><path id="Fill-73" fill="#641340" d="M35.0905,91.4481 L35.0905,91.4481 C35.4635,91.0951 36.0575,91.1121 36.4095,91.4841 L40.2225,95.5141 C40.5745,95.8871 40.5585,96.4811 40.1855,96.8341 C39.8125,97.1861 39.2195,97.1701 38.8655,96.7981 L35.0545,92.7661 C34.7005,92.3941 34.7175,91.8011 35.0905,91.4481"/><path id="Stroke-75" stroke="#641340" stroke-linecap="round" stroke-linejoin="round" d="M35.0905,91.4481 L35.0905,91.4481 C35.4635,91.0951 36.0575,91.1121 36.4095,91.4841 L40.2225,95.5141 C40.5745,95.8871 40.5585,96.4811 40.1855,96.8341 C39.8125,97.1861 39.2195,97.1701 38.8655,96.7981 L35.0545,92.7661 C34.7005,92.3941 34.7175,91.8011 35.0905,91.4481 Z"/><path id="Stroke-77" stroke="#641340" stroke-linecap="round" stroke-linejoin="round" d="M38.2262,96.1209 C38.2262,96.1209 23.0552,110.5289 7.6892,121.2459 C4.6292,123.4969 2.1222,124.7519 0.4992,123.5439 C12.9512,114.4229 24.5452,104.3739 35.7692,93.5219"/><path id="Stroke-79" stroke="#641340" stroke-linecap="round" stroke-linejoin="round" d="M36.4801,97.6854 L34.0861,95.1404"/><polygon id="Fill-81" fill="#FFF" points="28.478 90.48 29.585 96 33.885 97.368 35.208 95.14 36.685 91.959 37.395 90.064 32.936 89.178"/><path id="Stroke-83" stroke="#641340" stroke-linecap="round" stroke-linejoin="round" d="M43.569,66.6532 C43.569,66.6532 24.05,70.7382 15.124,85.2632 C15.124,85.2632 18.756,93.2822 33.885,97.3682 C33.885,97.3682 39.05,90.1532 39.484,78.9092"/><path id="Stroke-85" stroke="#641340" stroke-linecap="round" stroke-linejoin="round" d="M53.3414,117.1268 C54.6694,114.1968 55.6554,111.3798 56.3794,108.4498"/><path id="Fill-87" fill="#FFC3AC" d="M25.5123,50.7391 C27.6373,59.6961 29.4533,63.8101 33.5993,66.3641 C38.5833,69.4341 44.8523,71.2351 51.1003,71.3661 C57.3483,71.2351 63.6163,69.4341 68.6013,66.3641 C72.5313,63.9441 74.1233,60.5701 75.0003,56.8961 C50.2563,16.4801 27.3893,29.7951 25.5123,50.7391"/><path id="Fill-89" fill="#ECA28A" d="M51.9508,69.8709 C45.3608,69.3499 40.2158,66.3329 35.1388,62.8389 C30.9158,59.9329 29.7458,51.8599 28.0458,42.4339 C28.4428,39.7969 28.2938,41.2669 29.2958,38.9879 C27.2278,42.2849 25.9058,46.3429 25.5128,50.7389 C27.6378,59.6959 29.4538,63.8099 33.5988,66.3639 C38.5838,69.4339 44.8518,71.2349 51.0998,71.3659 C56.6378,71.2509 62.1888,69.8169 66.8498,67.3549 C62.4958,68.8399 58.1798,70.1039 51.9508,69.8709"/><path id="Stroke-91" stroke="#641340" stroke-linecap="round" stroke-linejoin="round" d="M26.4977,61.0877 C22.9377,49.5027 28.8207,40.8127 28.8207,40.8127 C28.4807,43.9577 29.5707,46.7667 32.2627,47.9597 C31.9387,45.6417 32.2087,43.2477 33.0377,41.0527 C36.2437,48.8297 43.6657,54.2757 53.2797,56.1927 C50.8087,53.1317 47.5547,45.9237 49.5537,42.1927 C55.5487,52.5847 76.9977,51.2767 76.8647,60.5787 C82.8267,50.2307 82.1667,41.9067 79.0517,38.5097 C83.0637,40.4057 84.7937,42.5017 86.6757,47.2567 C86.6707,41.4907 85.5217,35.6067 80.1177,31.7427 C83.6697,32.2337 85.1727,33.0357 87.8907,36.3797 C84.9757,21.9947 75.7457,14.3867 63.8447,14.5047 C65.1357,11.9037 69.0367,9.9197 71.1617,8.9647 C65.8487,8.1447 58.5017,8.5617 52.2467,12.1277 C53.7657,8.2637 58.8657,3.5087 64.7047,0.5007 C55.8297,0.4777 43.6847,1.3097 35.7917,12.4837 C34.0497,10.1177 33.1197,5.8267 34.2757,0.6687 C30.3267,4.2807 28.4297,9.7677 29.9377,14.5837 C28.2067,13.8857 26.2257,13.6957 24.3527,13.6937 C20.4737,13.6897 16.2107,14.6737 13.9617,17.7687 C16.1337,16.9817 18.5027,16.7217 20.7977,17.0217 C17.4977,18.8767 15.0207,22.0857 14.1007,25.7007 C16.4077,24.6137 18.9667,24.0427 21.5257,24.0407 C16.4337,28.9027 13.5127,35.8757 13.6527,42.8387 C15.0957,40.1197 17.2497,37.7667 19.8527,36.0667 C17.2627,39.8877 17.1897,44.6887 18.0447,49.1977 C18.5177,51.6887 20.6117,57.6977 26.4977,61.0877 Z"/><path id="Fill-93" fill="#641340" d="M47.0563,58.993 C47.0563,60.865 45.5373,62.384 43.6653,62.384 C41.7923,62.384 40.2753,60.865 40.2753,58.993 C40.2753,57.12 41.7923,55.601 43.6653,55.601 C45.5373,55.601 47.0563,57.12 47.0563,58.993"/><path id="Fill-95" fill="#FFF" d="M44.0475,58.0262 C44.0475,58.6662 43.5285,59.1832 42.8895,59.1832 C42.2505,59.1832 41.7325,58.6662 41.7325,58.0262 C41.7325,57.3862 42.2505,56.8692 42.8895,56.8692 C43.5285,56.8692 44.0475,57.3862 44.0475,58.0262"/><path id="Fill-97" fill="#FFF" d="M45.068,60.3416 C45.068,60.6266 44.837,60.8596 44.55,60.8596 C44.264,60.8596 44.033,60.6266 44.033,60.3416 C44.033,60.0556 44.264,59.8226 44.55,59.8226 C44.837,59.8226 45.068,60.0556 45.068,60.3416"/><path id="Fill-99" fill="#641340" d="M70.6686,58.993 C70.6686,60.865 69.1496,62.384 67.2776,62.384 C65.4046,62.384 63.8866,60.865 63.8866,58.993 C63.8866,57.12 65.4046,55.601 67.2776,55.601 C69.1496,55.601 70.6686,57.12 70.6686,58.993"/><path id="Fill-101" fill="#FFF" d="M67.6588,58.0262 C67.6588,58.6662 67.1408,59.1832 66.5018,59.1832 C65.8618,59.1832 65.3448,58.6662 65.3448,58.0262 C65.3448,57.3862 65.8618,56.8692 66.5018,56.8692 C67.1408,56.8692 67.6588,57.3862 67.6588,58.0262"/><path id="Fill-103" fill="#FFF" d="M68.6803,60.3416 C68.6803,60.6266 68.4483,60.8596 68.1623,60.8596 C67.8763,60.8596 67.6443,60.6266 67.6443,60.3416 C67.6443,60.0556 67.8763,59.8226 68.1623,59.8226 C68.4483,59.8226 68.6803,60.0556 68.6803,60.3416"/><path id="Fill-105" fill="#641340" d="M26.4977,61.0877 C22.9377,49.5027 28.8207,40.8127 28.8207,40.8127 C28.4807,43.9577 29.5707,46.7667 32.2627,47.9597 C31.9387,45.6417 32.2087,43.2477 33.0377,41.0527 C37.4087,53.3587 53.2797,56.1927 53.2797,56.1927 C53.2797,56.1927 47.5547,45.9237 49.5537,42.1927 C55.5487,52.5847 76.9977,51.2767 76.8647,60.5787 C82.8267,50.2307 82.1667,41.9067 79.0517,38.5097 C83.0637,40.4057 84.7937,42.5017 86.6757,47.2567 C86.6707,41.4907 85.5217,35.6067 80.1177,31.7427 C83.6697,32.2337 85.1727,33.0357 87.8907,36.3797 C84.9757,21.9947 75.7457,14.3867 63.8447,14.5047 C65.1357,11.9037 69.0367,9.9197 71.1617,8.9647 C65.8487,8.1447 58.5017,8.5617 52.2467,12.1277 C53.7657,8.2637 58.8657,3.5087 64.7047,0.5007 C55.8297,0.4777 43.6847,1.3097 35.7917,12.4837 C34.0497,10.1177 33.1197,5.8267 34.2757,0.6687 C30.3267,4.2807 28.4297,9.7677 29.9377,14.5837 C28.2067,13.8857 26.2257,13.6957 24.3527,13.6937 C20.4737,13.6897 16.2107,14.6737 13.9617,17.7687 C16.1337,16.9817 18.5027,16.7217 20.7977,17.0217 C17.4977,18.8767 15.0207,22.0857 14.1007,25.7007 C16.4077,24.6137 18.9667,24.0427 21.5257,24.0407 C16.4337,28.9027 13.5127,35.8757 13.6527,42.8387 C15.0957,40.1197 17.2497,37.7667 19.8527,36.0667 C17.2627,39.8877 17.1897,44.6887 18.0447,49.1977 C18.5177,51.6887 20.6117,57.6977 26.4977,61.0877"/><path id="Stroke-107" stroke="#641340" stroke-linecap="round" stroke-linejoin="round" d="M25.5123,50.7391 C27.6373,59.6961 29.4533,63.8101 33.5993,66.3641 C38.5833,69.4341 44.8523,71.2351 51.1003,71.3661 C57.3483,71.2351 63.6163,69.4341 68.6013,66.3641 C72.5303,63.9441 74.1233,60.5701 75.0003,56.8961"/><path id="Fill-109" fill="#FFF" d="M81.6842,59.9393 L79.5802,57.6283 L61.2422,63.8093 C60.5742,64.9293 59.1312,65.7783 57.4532,65.7783 C55.7732,65.7783 54.0462,64.9993 53.3792,63.8783 L35.6342,57.6283 L33.6522,60.0873 L58.0772,75.4303 L81.6842,59.9393 Z"/><path id="Fill-111" fill="#E87F99" d="M34.3287,86.0272 L31.8627,59.5942 L53.0317,65.4342 C55.8357,67.9452 58.7007,67.9952 61.6327,65.4142 L82.9457,59.5942 L80.4807,86.0272 L61.0817,91.2662 C58.2657,93.4332 55.8017,93.1882 53.5827,91.2662 L34.3287,86.0272 Z"/><polygon id="Fill-113" fill="#D05F7F" points="34.329 86.027 31.863 59.594 53.032 65.434 56.053 67.325 56.475 92.805 53.583 91.266"/><path id="Fill-115" fill="#FFF" d="M53.1461,68.8758 C53.1091,68.3668 53.2801,71.9198 53.2801,71.9198 C56.1401,73.4968 58.8971,73.5918 61.5191,71.7588 L61.5191,68.6808 C61.5461,71.4648 53.2841,70.7828 53.1461,68.8758"/><path id="Fill-117" fill="#FFF" d="M53.3961,86.117 C53.3621,85.608 53.5221,89.161 53.5221,89.161 C56.2111,90.738 58.8031,90.833 61.2681,89 L61.2681,85.922 C61.2941,88.706 53.5261,88.024 53.3961,86.117"/><path id="Fill-119" fill="#D9CFD3" d="M56.0924,70.3231 C54.5184,70.0901 53.1994,69.6281 53.1464,68.8761 C53.1094,68.3671 53.2794,71.9201 53.2794,71.9201 C54.2294,72.4431 55.2254,73.0751 56.1514,73.2561 L56.0924,70.3231 Z"/><path id="Fill-121" fill="#D9CFD3" d="M56.3873,87.5799 C54.8033,87.3709 53.4493,86.9099 53.3963,86.1169 C53.3623,85.6079 53.5223,89.1609 53.5223,89.1609 C54.4973,89.7329 55.4603,90.1069 56.4083,90.2679 L56.3873,87.5799 Z"/><polyline id="Stroke-123" stroke="#641340" stroke-linecap="round" stroke-linejoin="round" points="33.312 75.128 31.863 59.595 53.032 65.436 53.583 91.267"/><polyline id="Stroke-125" stroke="#641340" stroke-linecap="round" stroke-linejoin="round" points="53.583 91.266 34.329 86.027 33.312 75.127"/><polyline id="Stroke-127" stroke="#641340" stroke-linecap="round" stroke-linejoin="round" points="82.201 67.588 82.946 59.595 61.633 65.414 61.082 91.267"/><polyline id="Stroke-129" stroke="#641340" stroke-linecap="round" stroke-linejoin="round" points="61.082 91.266 80.481 86.027 81.643 73.577"/><path id="Stroke-131" stroke="#641340" stroke-linecap="round" stroke-linejoin="round" d="M53.0319,65.4354 C53.7899,66.5554 55.4279,67.3334 57.3329,67.3334 C59.2369,67.3334 60.8749,66.5554 61.6329,65.4354"/><path id="Stroke-133" stroke="#641340" stroke-linecap="round" stroke-linejoin="round" d="M53.1461,68.8758 C53.8831,69.9668 55.4781,70.7248 57.3331,70.7248 C59.1861,70.7248 60.7821,69.9668 61.5191,68.8758"/><path id="Stroke-135" stroke="#641340" stroke-linecap="round" stroke-linejoin="round" d="M53.2799,71.4237 C53.9939,72.4797 55.5379,73.2127 57.3329,73.2127 C59.1279,73.2127 60.6709,72.4797 61.3839,71.4237"/><path id="Stroke-137" stroke="#641340" stroke-linecap="round" stroke-linejoin="round" d="M53.5826,86.2283 C54.2426,87.1333 55.6716,87.7623 57.3326,87.7623 C58.9926,87.7623 60.4216,87.1333 61.0816,86.2283"/><path id="Stroke-139" stroke="#641340" stroke-linecap="round" stroke-linejoin="round" d="M53.5826,88.826 C54.2426,89.731 55.6716,90.359 57.3326,90.359 C58.9926,90.359 60.4216,89.731 61.0816,88.826"/><path id="Stroke-141" stroke="#641340" stroke-linecap="round" stroke-linejoin="round" d="M53.5826,91.2664 C54.2426,92.1704 55.6716,92.7994 57.3326,92.7994 C58.9926,92.7994 60.4216,92.1704 61.0816,91.2664"/><path id="Stroke-143" stroke="#641340" stroke-linecap="round" stroke-linejoin="round" d="M33.652,60.0877 L35.634,57.6287 L53.38,63.8787 C54.047,64.9987 55.773,65.7777 57.453,65.7777 C59.131,65.7777 60.574,64.9297 61.242,63.8097 L79.581,57.6287 L81.684,59.9397"/><path id="Fill-145" fill="#FFC3AC" d="M79.0924,70.2147 C78.7764,73.9257 80.7944,75.3047 82.4764,75.4977 C84.1584,75.6907 84.9834,65.9947 83.3014,65.8027 C81.6184,65.6097 79.4074,66.5047 79.0924,70.2147"/><path id="Fill-147" fill="#ECA28A" d="M80.1608,68.8836 C80.2468,67.8826 80.4758,67.1016 80.7898,66.4766 C79.9388,67.1256 79.2568,68.2816 79.0928,70.2146 C78.7758,73.9256 80.7948,75.3046 82.4758,75.4976 C82.8848,75.5446 83.2408,75.0026 83.5238,74.1616 C81.8468,73.9596 79.8468,72.5776 80.1608,68.8836"/><path id="Stroke-149" stroke="#641340" stroke-linecap="round" stroke-linejoin="round" d="M79.0924,70.2147 C78.7764,73.9257 80.7944,75.3047 82.4764,75.4977 C84.1584,75.6907 84.9834,65.9947 83.3014,65.8027 C81.6184,65.6097 79.4074,66.5047 79.0924,70.2147 Z"/></g></g></svg>