<svg xmlns="http://www.w3.org/2000/svg" xmlns:xlink="http://www.w3.org/1999/xlink" width="92" height="144" version="1.1" viewBox="0 0 92 144"><title>Manga 4</title><desc>Created with Sketch.</desc><defs><polygon id="path-1" points="83.555 .531 83.555 8 .879 8 .879 .531 83.555 .531"/><polygon id="path-3" points="0 144.058 91.555 144.058 91.555 0 0 0"/></defs><g id="Page-1" fill="none" fill-rule="evenodd" stroke="none" stroke-width="1"><g id="Manga-4"><path id="Fill-1" fill="#FF8331" d="M39.14,82.9342 C32.799,86.3122 24.653,86.5222 17.832,84.2642 C9.495,81.5042 2.885,74.0632 1.128,65.4582 C-2.464,47.8762 10.477,37.5372 11.554,14.9342 C15.186,16.1622 18.958,19.4122 20.143,20.6732 C22.487,23.1662 24.29,26.3332 25.613,29.4682 C30.692,41.5132 25.619,51.9752 25.531,64.1862 C25.477,71.5642 29.156,80.4482 37.852,80.1792 L39.14,82.9342 Z"/><path id="Fill-3" fill="#E55E12" d="M8.2445,42.6861 C8.8045,42.7131 10.1545,37.5061 10.7995,37.5711 C11.0075,37.5921 11.2425,38.2881 11.4895,39.2191 C5.7425,55.3701 -2.7205,70.0541 17.8325,84.2641 C16.3525,83.8911 11.5905,81.4421 6.8935,76.9111 C4.0445,73.6561 1.9945,69.7011 1.1285,65.4581 C-1.0265,54.9141 2.7655,46.9721 6.3795,37.4291 C6.3795,37.4291 7.6855,42.6601 8.2445,42.6861"/><path id="Fill-5" fill="#E55E12" d="M21.4301,22.189 C21.3471,22.083 21.2651,21.976 21.1811,21.872 C21.2651,21.976 21.3471,22.083 21.4301,22.189"/><path id="Fill-7" fill="#E55E12" d="M22.3793,23.4762 C22.3293,23.4052 22.2783,23.3342 22.2293,23.2642 C22.2783,23.3342 22.3293,23.4052 22.3793,23.4762"/><path id="Fill-9" fill="#FFF" d="M21.1811,21.8717 C20.8461,21.4597 20.5031,21.0567 20.1431,20.6737 C20.5031,21.0567 20.8461,21.4597 21.1811,21.8717"/><path id="Fill-11" fill="#FFF" d="M6.3793,37.4293 L6.3793,37.4293 C6.3793,37.4293 10.7863,24.9343 11.4893,15.9293 C10.9413,24.4993 8.7013,31.2983 6.3793,37.4293"/><path id="Fill-13" fill="#FFF" d="M15.1283,20.1832 C18.7603,21.4102 22.5323,24.6612 23.7173,25.9212 C23.8693,26.0832 24.0133,26.2552 24.1603,26.4222 C23.6213,25.4112 23.0263,24.4202 22.3793,23.4762 C23.6723,25.3572 24.7473,27.4172 25.6123,29.4682 C27.1493,33.1112 27.5773,38.3522 27.6753,41.7972 C27.4323,41.5322 25.9213,38.3692 25.5693,38.3332 C25.2183,38.2972 24.4443,43.3212 23.9533,43.3692 C23.4623,43.4152 22.3223,38.2732 21.7893,38.2792 C21.2563,38.2852 19.3553,42.7962 18.8543,42.7762 C18.3533,42.7542 16.6763,38.8302 16.1173,38.8042 C15.5583,38.7772 13.7613,44.3052 13.0583,44.2352 C12.5823,44.1872 12.0103,41.1762 11.4893,39.2192 C13.6673,33.1012 15.4553,26.7752 15.1283,20.1832"/><path id="Fill-15" fill="#FFF" d="M21.4301,22.189 C21.7051,22.539 21.9721,22.897 22.2291,23.264 C21.9721,22.897 21.7041,22.54 21.4301,22.189"/><path id="Fill-17" fill="#D9CFD3" d="M22.3793,23.4762 C23.0263,24.4202 23.6213,25.4112 24.1603,26.4222 C24.0133,26.2552 23.8693,26.0832 23.7173,25.9212 C22.5323,24.6612 18.7603,21.4102 15.1283,20.1832 C15.4553,26.7752 13.6673,33.1012 11.4893,39.2192 C11.2423,38.2882 11.0073,37.5922 10.7993,37.5712 C10.1543,37.5062 8.8043,42.7132 8.2443,42.6862 C7.6863,42.6602 6.3793,37.4302 6.3793,37.4302 C8.7013,31.2982 10.9413,24.4992 11.4893,15.9292 C11.5163,15.5932 11.5383,15.2602 11.5543,14.9342 C15.1863,16.1622 18.9583,19.4122 20.1433,20.6732 C20.5033,21.0562 20.8463,21.4592 21.1813,21.8722 C21.2653,21.9762 21.3473,22.0822 21.4303,22.1892 C21.7043,22.5392 21.9723,22.8972 22.2293,23.2642 C22.2783,23.3342 22.3293,23.4052 22.3793,23.4762"/><path id="Stroke-19" stroke="#641340" stroke-linecap="round" stroke-linejoin="round" d="M39.14,82.9342 C32.799,86.3122 24.653,86.5222 17.832,84.2642 C9.495,81.5042 2.885,74.0632 1.128,65.4582 C-2.464,47.8762 10.477,37.5372 11.554,14.9342 C15.186,16.1622 18.958,19.4122 20.143,20.6732 C22.487,23.1662 24.29,26.3332 25.613,29.4682 C30.692,41.5132 25.619,51.9752 25.531,64.1862 C25.477,71.5642 29.156,80.4482 37.852,80.1792"/><path id="Fill-21" fill="#E55E12" d="M12.6391,54.3687 C13.7261,53.8387 15.0371,54.2907 15.5681,55.3777 C16.0991,56.4657 15.6471,57.7767 14.5601,58.3067 C13.4721,58.8377 12.1601,58.3867 11.6301,57.2987 C11.1001,56.2117 11.5511,54.8997 12.6391,54.3687"/><path id="Fill-23" fill="#E55E12" d="M11.1596,48.4713 C11.7836,48.1663 12.5356,48.4253 12.8406,49.0493 C13.1436,49.6733 12.8856,50.4253 12.2616,50.7303 C11.6386,51.0343 10.8856,50.7753 10.5816,50.1513 C10.2766,49.5283 10.5366,48.7753 11.1596,48.4713"/><path id="Fill-25" fill="#E55E12" d="M17.4379,49.901 C17.9729,49.64 18.6189,49.862 18.8789,50.397 C19.1399,50.931 18.9179,51.577 18.3829,51.838 C17.8479,52.098 17.2039,51.877 16.9419,51.341 C16.6809,50.806 16.9039,50.162 17.4379,49.901"/><path id="Fill-27" fill="#E55E12" d="M21.5824,68.0123 C22.1164,67.7513 22.7624,67.9733 23.0224,68.5083 C23.2834,69.0433 23.0614,69.6883 22.5264,69.9493 C21.9914,70.2103 21.3474,69.9883 21.0864,69.4523 C20.8254,68.9183 21.0474,68.2733 21.5824,68.0123"/><path id="Fill-29" fill="#E55E12" d="M19.3559,79.398 C19.8909,79.137 20.5369,79.359 20.7969,79.894 C21.0579,80.429 20.8349,81.074 20.3009,81.335 C19.7659,81.596 19.1209,81.374 18.8599,80.838 C18.5989,80.304 18.8209,79.659 19.3559,79.398"/><path id="Fill-31" fill="#E55E12" d="M75.3695,38.0797 C73.1815,38.0977 72.3975,39.8417 71.1265,41.2817 C70.1725,42.3627 69.0705,43.2917 67.9035,44.1337 L70.4625,52.6087 C74.0935,48.9857 75.7115,46.2077 76.8065,42.8677 C78.1055,38.8997 75.3695,38.0797 75.3695,38.0797"/><path id="Fill-33" fill="#FF8331" d="M68.6195,45.7984 C69.7985,44.8744 70.9045,43.8624 71.8505,42.6994 C73.1125,41.1494 73.8555,39.3044 76.1285,39.1944 C76.1285,39.1944 76.5015,39.2934 76.9235,39.6114 C76.4385,38.4004 75.3695,38.0794 75.3695,38.0794 C73.1815,38.0974 72.3975,39.8414 71.1265,41.2814 C70.1725,42.3624 69.0705,43.2914 67.9035,44.1334 L70.4625,52.6094 C70.5975,52.4744 70.7115,52.3474 70.8415,52.2144 L68.6195,45.7984 Z"/><path id="Fill-35" fill="#E55E12" d="M44.6283,11.9683 C43.3973,12.8403 45.2443,17.9913 45.2443,17.9913 L53.2333,16.6893 C53.2333,16.6893 45.8593,11.0963 44.6283,11.9683"/><path id="Fill-37" fill="#FF8331" d="M33.4428,88.9293 C32.9088,81.6243 30.1618,74.7273 32.6168,67.4073 C33.4048,65.0583 34.5978,62.9603 35.8828,60.9113 L38.8378,56.2363 C39.0268,55.9163 39.2138,55.5953 39.3948,55.2713 C41.7558,51.0643 41.9608,45.9333 41.9608,45.9333 C41.9608,45.9333 32.7638,36.4323 36.5248,26.7883 L37.7398,29.1193 C36.2838,26.2533 33.0508,19.4513 34.3798,17.9913 C36.0728,16.1313 47.3988,20.3823 47.3988,20.3823 L43.5848,18.8033 C53.5088,13.2003 64.2168,20.4563 65.3178,20.9143 C67.7688,21.8203 70.2508,21.7323 70.2508,21.7323 C71.9258,34.9693 66.6898,40.3243 67.9218,44.1553 C72.0128,56.8843 76.5698,72.3593 66.9988,83.9003 C60.0198,92.3153 44.9878,91.4173 44.9878,91.4173 C43.3968,95.3673 39.3428,100.2933 37.6248,100.8313 C35.9058,101.3703 32.9048,100.6533 33.0848,99.8063 C33.2638,98.9593 33.7518,93.1363 33.4428,88.9293"/><path id="Fill-39" fill="#E55E12" d="M44.8002,45.3443 C44.8002,45.3443 38.5832,39.6413 38.2132,30.8213 C37.6272,29.5883 37.8062,29.1773 37.7392,29.1193 C36.4832,28.0193 37.1132,28.7963 36.3132,27.3973 C33.1552,36.8273 41.9602,45.9333 41.9602,45.9333 C41.9602,45.9333 41.7552,51.0643 39.3952,55.2713 C39.2132,55.5953 39.0272,55.9163 38.8362,56.2363 L35.8832,60.9113 C34.5982,62.9603 33.4042,65.0583 32.6162,67.4063 C30.1612,74.7273 32.9082,81.6243 33.4432,88.9293 C33.7512,93.1363 33.2642,98.9593 33.0842,99.8063 C32.9042,100.6533 35.9052,101.3703 37.6242,100.8313 C37.6682,100.8193 37.7182,100.7903 37.7652,100.7713 C36.9542,100.5453 34.9312,100.8323 35.0132,100.4483 C35.1922,99.6023 38.7822,93.2143 38.4752,89.0073 C37.9402,81.7023 33.5392,74.7273 35.9942,67.4063 C36.7822,65.0583 37.9752,62.9603 39.2612,60.9113 L42.2142,56.2363 C42.4042,55.9163 42.5902,55.5953 42.7732,55.2713 C45.1322,51.0643 44.8002,45.3443 44.8002,45.3443"/><path id="Fill-41" fill="#E55E12" d="M45.6947,19.6207 C47.8597,18.3987 51.8127,17.3327 53.9447,17.1307 C51.0117,16.7047 46.6507,17.2967 43.5847,18.8037 C46.8007,19.6467 45.6947,19.6207 45.6947,19.6207"/><path id="Fill-43" fill="#E55E12" d="M51.2865,91.2994 C51.2865,91.2994 51.5285,98.3914 52.1915,100.2244 C52.7395,101.6844 57.0935,101.1514 57.5575,100.3304 C60.7385,96.5924 63.5455,86.9844 63.5455,86.9844 C59.9845,89.0674 55.8635,90.4614 51.2865,91.2994"/><path id="Fill-45" fill="#FF8331" d="M61.0834,88.2672 C60.3084,91.2122 58.5004,97.3882 56.2924,100.3122 C56.1324,100.6372 55.3944,100.9532 54.5114,101.1382 C55.8484,101.1502 57.3004,100.7862 57.5584,100.3302 C60.7384,96.5922 63.5454,86.9842 63.5454,86.9842 C62.7534,87.4482 61.9294,87.8712 61.0834,88.2672"/><g id="Group-49" transform="translate(8.000000, 136.058000)"><mask id="mask-2" fill="#fff"><use xlink:href="#path-1"/></mask><path id="Fill-47" fill="#D9CFD3" d="M83.5551,4.2648 C83.5551,6.3278 65.0471,7.9998 42.2171,7.9998 C19.3871,7.9998 0.8791,6.3278 0.8791,4.2648 C0.8791,2.2018 19.3871,0.5308 42.2171,0.5308 C65.0471,0.5308 83.5551,2.2018 83.5551,4.2648" mask="url(#mask-2)"/></g><path id="Fill-50" fill="#C36E84" d="M41.0512,113.3726 L39.4472,113.3726 L34.5882,113.3726 L31.3162,113.3726 L29.7112,113.3726 L24.8532,113.3726 C23.0932,113.3726 21.6602,114.9586 21.6602,116.9076 L21.6602,122.3846 C21.6602,124.3346 23.0932,125.9196 24.8532,125.9196 L29.7112,125.9196 L31.3162,125.9196 L33.8962,125.9196 L38.7542,125.9196 L40.3602,125.9196 C39.9282,125.5296 39.5022,125.1316 39.2622,124.5356 C38.6952,123.1306 38.7862,121.2936 38.6042,119.7936 C38.4332,118.3936 38.2692,116.7406 39.0952,115.5446 C39.6842,114.6916 40.5312,114.1886 41.0512,113.3726"/><path id="Fill-52" fill="#C36E84" d="M48.5229,113.3726 L46.9189,113.3726 L42.0599,113.3726 L38.7879,113.3726 L37.1829,113.3726 L32.3249,113.3726 C30.5649,113.3726 29.1329,114.9586 29.1329,116.9076 L29.1329,122.3846 C29.1329,124.3346 30.5649,125.9196 32.3249,125.9196 L37.1829,125.9196 L38.7879,125.9196 L41.3679,125.9196 L46.2259,125.9196 L47.8319,125.9196 C47.4009,125.5296 46.9739,125.1316 46.7339,124.5356 C46.1679,123.1306 46.2579,121.2936 46.0759,119.7936 C45.9049,118.3936 45.7409,116.7406 46.5669,115.5446 C47.1559,114.6916 48.0029,114.1886 48.5229,113.3726"/><path id="Stroke-54" stroke="#641340" stroke-linecap="round" stroke-linejoin="round" d="M50.8129,113.3726 L24.8529,113.3726 C23.0929,113.3726 21.6619,114.9586 21.6619,116.9076 L21.6619,122.3846 C21.6619,124.3336 23.0929,125.9196 24.8529,125.9196 L50.8129,125.9196"/><mask id="mask-4" fill="#fff"><use xlink:href="#path-3"/></mask><polygon id="Fill-56" fill="#FFF" points="36.798 125.045 70.766 125.045 70.766 114.228 36.798 114.228" mask="url(#mask-4)"/><polygon id="Fill-58" fill="#FFF" points="50.26 125.045 77.125 125.045 77.125 114.228 50.26 114.228" mask="url(#mask-4)"/><path id="Fill-59" fill="#E895A3" d="M78.5072,123.9742 L38.1352,123.9742 C37.3432,123.9742 36.6992,123.2612 36.6992,122.3842 L36.6992,116.9082 C36.6992,116.0312 37.3432,115.3182 38.1352,115.3182 L78.5072,115.3182 L78.5072,113.3722 L38.1352,113.3722 C36.3752,113.3722 34.9442,114.9582 34.9442,116.9082 L34.9442,122.3842 C34.9442,124.3332 36.3752,125.9192 38.1352,125.9192 L78.5072,125.9192 L78.5072,123.9742 Z" mask="url(#mask-4)"/><path id="Fill-60" fill="#D9CFD3" d="M37.6732,121.4722 L37.6732,117.8212 C37.7162,115.8772 38.6282,115.4632 39.8012,115.4632 L39.0842,115.4632 C37.1522,115.1232 36.9562,116.5212 36.9562,117.8212 L36.9562,121.4722 C36.9562,122.7722 37.3062,124.3232 39.0842,123.8292 L39.8012,123.8292 C38.6282,123.8292 37.6832,123.3542 37.6732,121.4722" mask="url(#mask-4)"/><path id="Stroke-61" stroke="#641340" stroke-linecap="round" stroke-linejoin="round" d="M38.2338,115.3179 L70.7658,115.3179 L78.5068,115.3179 L78.5068,113.3729 L45.9758,113.3729 L38.2338,113.3729 C36.4738,113.3729 35.0428,114.9589 35.0428,116.9079 L35.0428,122.3839 C35.0428,124.3339 36.4738,125.9199 38.2338,125.9199 L45.9758,125.9199 L78.5068,125.9199 L78.5068,123.9739 L70.7658,123.9739 L38.2338,123.9739 C37.4428,123.9739 36.7978,123.2609 36.7978,122.3839 L36.7978,116.9079 C36.7978,116.0309 37.4428,115.3179 38.2338,115.3179 Z" mask="url(#mask-4)"/><path id="Stroke-62" stroke="#641340" stroke-linecap="round" stroke-linejoin="round" d="M77.0395,123.9742 L77.0395,115.3182" mask="url(#mask-4)"/><path id="Fill-63" fill="#FF3671" d="M72.3119,101.1402 L62.6789,101.1402 C63.1379,101.5202 62.2629,101.1402 61.1449,101.1402 L51.5119,101.1402 C51.9709,101.5202 52.4249,101.9092 52.6809,102.4892 C53.2849,103.8592 53.1879,105.6502 53.3819,107.1132 C53.5639,108.4772 53.7389,110.0892 52.8589,111.2552 C52.2309,112.0872 51.3279,112.5772 50.7749,113.3722 L61.1449,113.3722 C61.4659,113.3722 61.7709,113.3122 62.0669,113.2272 C62.0269,113.2782 61.9789,113.3202 61.9419,113.3722 L72.3119,113.3722 C74.1869,113.3722 75.7119,111.8272 75.7119,109.9262 L75.7119,104.5862 C75.7119,102.6862 74.1869,101.1402 72.3119,101.1402" mask="url(#mask-4)"/><polygon id="Fill-64" fill="#D9CFD3" points="19.625 112.375 53.861 112.375 53.861 102.787 19.625 102.787" mask="url(#mask-4)"/><path id="Fill-65" fill="#D9004F" d="M52.1508,101.1402 L18.1268,101.1402 L18.1268,103.4732 L52.1508,103.4732 C53.1888,103.4732 54.0328,104.3282 54.0328,105.3802 L54.0328,105.8942 L54.0328,108.1382 L54.0328,109.1312 C54.0328,110.1842 53.1888,111.0392 52.1508,111.0392 L18.1268,111.0392 L18.1268,113.3722 L52.1508,113.3722 C54.4578,113.3722 56.3338,111.4702 56.3338,109.1312 L56.3338,108.1062 L56.3338,105.9262 L56.3338,105.3802 C56.3338,103.0422 54.4578,101.1402 52.1508,101.1402" mask="url(#mask-4)"/><path id="Stroke-66" stroke="#641340" stroke-linecap="round" stroke-linejoin="round" d="M44.6596,113.3726 L72.3116,113.3726 C74.1866,113.3726 75.7126,111.8266 75.7126,109.9266 L75.7126,104.5866 C75.7126,102.6856 74.1866,101.1406 72.3116,101.1406 L44.6596,101.1406" mask="url(#mask-4)"/><path id="Fill-67" fill="#D9CFD3" d="M53.1957,105.7213 L53.1957,108.8263 C53.1567,110.4793 52.3087,110.8313 51.2177,110.8313 L51.8847,110.8313 C53.6797,111.1203 53.8617,109.9323 53.8617,108.8263 L53.8617,105.7213 C53.8617,104.6173 53.5367,103.2973 51.8847,103.7173 L51.2177,103.7173 C52.3087,103.7173 53.1867,104.1203 53.1957,105.7213" mask="url(#mask-4)"/><path id="Stroke-68" stroke="#641340" stroke-linecap="round" stroke-linejoin="round" d="M52.1508,101.1402 L18.1268,101.1402 L18.1268,103.4732 L52.1508,103.4732 C53.1888,103.4732 54.0328,104.3282 54.0328,105.3802 L54.0328,105.8942 L54.0328,108.1382 L54.0328,109.1312 C54.0328,110.1842 53.1888,111.0392 52.1508,111.0392 L18.1268,111.0392 L18.1268,113.3722 L52.1508,113.3722 C54.4578,113.3722 56.3338,111.4702 56.3338,109.1312 L56.3338,108.1062 L56.3338,105.9262 L56.3338,105.3802 C56.3338,103.0422 54.4578,101.1402 52.1508,101.1402 Z" mask="url(#mask-4)"/><path id="Stroke-69" stroke="#641340" stroke-linecap="round" stroke-linejoin="round" d="M19.6615,111.0396 L19.6615,103.4736" mask="url(#mask-4)"/><path id="Fill-70" fill="#D68F22" d="M83.727,133.3922 L18.958,133.3922 C17.575,133.3922 16.442,134.5242 16.442,135.9092 L16.442,138.3472 C16.442,139.7312 17.575,140.8642 18.958,140.8642 L83.727,140.8642" mask="url(#mask-4)"/><path id="Fill-71" fill="#FFF" d="M29.3207,135.9088 L29.3207,138.3468 C29.3207,139.7308 30.4537,140.8638 31.8387,140.8638 L85.1287,140.8638 L85.1287,133.3918 L31.8387,133.3918 C30.4537,133.3918 29.3207,134.5238 29.3207,135.9088" mask="url(#mask-4)"/><path id="Fill-72" fill="#FFBE58" d="M85.0111,135.1431 L85.0111,133.3921 L31.8381,133.3921 C30.4531,133.3921 29.3211,134.5241 29.3211,135.9091 L29.3211,138.3471 C29.3211,139.7311 30.4531,140.8641 31.8381,140.8641 L85.0111,140.8641 L85.0111,139.1901 L82.2941,139.1901 L82.2941,135.1431 L85.0111,135.1431 Z" mask="url(#mask-4)"/><path id="Fill-73" fill="#FFF" d="M31.2231,136.5084 L31.2231,137.8284 C31.2231,138.5774 31.8241,139.1904 32.5571,139.1904 L82.2941,139.1904 L82.2941,135.1474 L32.5571,135.1474 C31.8241,135.1474 31.2231,135.7594 31.2231,136.5084" mask="url(#mask-4)"/><path id="Stroke-74" stroke="#641340" stroke-linecap="round" stroke-linejoin="round" d="M31.2231,136.5084 L31.2231,137.8284 C31.2231,138.5774 31.8241,139.1904 32.5571,139.1904 L82.2941,139.1904 L82.2941,135.1474 L32.5571,135.1474 C31.8241,135.1474 31.2231,135.7594 31.2231,136.5084 Z" mask="url(#mask-4)"/><path id="Stroke-75" stroke="#641340" stroke-linecap="round" stroke-linejoin="round" d="M83.727,133.3922 L18.958,133.3922 C17.575,133.3922 16.442,134.5242 16.442,135.9092 L16.442,138.3472 C16.442,139.7312 17.575,140.8642 18.958,140.8642 L83.727,140.8642" mask="url(#mask-4)"/><path id="Stroke-76" stroke="#641340" stroke-linecap="round" stroke-linejoin="round" d="M82.2943,135.1431 L85.0113,135.1431 L85.0113,133.3921 L31.8383,133.3921 C30.4533,133.3921 29.3203,134.5241 29.3203,135.9091 L29.3203,138.3471 C29.3203,139.7311 30.4533,140.8641 31.8383,140.8641 L85.0113,140.8641 L85.0113,139.1901 L82.2943,139.1901" mask="url(#mask-4)"/><path id="Fill-77" fill="#FFF" d="M60.2846,31.8228 C59.6756,32.4338 58.9636,32.9498 58.1036,33.3308 C56.0166,34.2538 53.5526,34.6288 51.3046,34.9418 C50.9416,34.9918 50.0056,35.2718 49.6556,35.0698 C58.4596,39.1958 60.7466,43.6068 60.8186,48.0628 C60.8946,52.7088 58.1936,56.3998 55.3966,59.9228 C52.0006,64.2018 49.4136,68.3118 49.8036,74.0238 C49.9776,76.5748 50.7946,79.1358 52.4366,81.0938 C56.1096,85.4778 66.1076,84.1508 68.9666,80.7578 C73.1406,74.8428 74.7256,62.4148 67.7996,43.3978 C69.4146,35.8608 71.0236,29.7848 70.3056,22.3668 C68.7006,21.6828 67.2876,22.0388 66.3166,22.6178 C64.5036,23.7008 63.6986,26.0278 62.8446,27.8368 C62.1476,29.3108 61.3836,30.7208 60.2846,31.8228" mask="url(#mask-4)"/><path id="Fill-78" fill="#9ECBE5" d="M15.9408,133.3922 L80.7098,133.3922 C82.0928,133.3922 83.2258,132.2592 83.2258,130.8742 L83.2258,128.4362 C83.2258,127.0522 82.0928,125.9192 80.7098,125.9192 L15.9408,125.9192" mask="url(#mask-4)"/><path id="Fill-79" fill="#FFF" d="M70.3461,130.8746 L70.3461,128.4366 C70.3461,127.0526 69.2141,125.9196 67.8291,125.9196 L14.5391,125.9196 L14.5391,133.3926 L67.8291,133.3926 C69.2141,133.3926 70.3461,132.2596 70.3461,130.8746" mask="url(#mask-4)"/><path id="Fill-80" fill="#7FA5C4" d="M14.6566,131.6402 L14.6566,133.3922 L67.8296,133.3922 C69.2146,133.3922 70.3456,132.2592 70.3456,130.8742 L70.3456,128.4362 C70.3456,127.0522 69.2146,125.9192 67.8296,125.9192 L14.6566,125.9192 L14.6566,127.5932 L17.3736,127.5932 L17.3736,131.6402 L14.6566,131.6402 Z" mask="url(#mask-4)"/><path id="Fill-81" fill="#D9CFD3" d="M68.4447,130.275 L68.4447,128.955 C68.4447,128.206 67.8437,127.593 67.1107,127.593 L17.3737,127.593 L17.3737,131.636 L67.1107,131.636 C67.8437,131.636 68.4447,131.024 68.4447,130.275" mask="url(#mask-4)"/><path id="Stroke-82" stroke="#641340" stroke-linecap="round" stroke-linejoin="round" d="M68.4447,130.275 L68.4447,128.955 C68.4447,128.206 67.8437,127.593 67.1107,127.593 L17.3737,127.593 L17.3737,131.636 L67.1107,131.636 C67.8437,131.636 68.4447,131.024 68.4447,130.275 Z" mask="url(#mask-4)"/><path id="Stroke-83" stroke="#641340" stroke-linecap="round" stroke-linejoin="round" d="M15.9408,133.3922 L80.7098,133.3922 C82.0928,133.3922 83.2258,132.2592 83.2258,130.8742 L83.2258,128.4362 C83.2258,127.0522 82.0928,125.9192 80.7098,125.9192 L15.9408,125.9192" mask="url(#mask-4)"/><path id="Stroke-84" stroke="#641340" stroke-linecap="round" stroke-linejoin="round" d="M17.3734,131.6402 L14.6564,131.6402 L14.6564,133.3922 L67.8294,133.3922 C69.2144,133.3922 70.3464,132.2592 70.3464,130.8742 L70.3464,128.4362 C70.3464,127.0522 69.2144,125.9192 67.8294,125.9192 L14.6564,125.9192 L14.6564,127.5932 L17.3734,127.5932" mask="url(#mask-4)"/><path id="Stroke-85" stroke="#641340" stroke-linecap="round" stroke-linejoin="round" d="M35.8832,60.9117 C34.5982,62.9607 33.4042,65.0577 32.6162,67.4067 C30.1612,74.7267 32.9082,81.6247 33.4432,88.9297 C33.7512,93.1367 33.2642,98.9597 33.0842,99.8067 C32.9042,100.6527 35.9052,101.3707 37.6242,100.8327 C39.3432,100.2937 43.3972,95.3677 44.9872,91.4177 C44.9872,91.4177 60.0202,92.3147 66.9982,83.9007 C76.5702,72.3587 72.0132,56.8847 67.9212,44.1547 C66.7532,40.5187 71.4102,35.5097 70.4532,23.6907 C70.4032,23.0577 70.6202,21.7227 68.4462,21.6357 C67.5552,21.5327 66.4332,21.3267 65.3182,20.9147 C64.2172,20.4567 53.5092,13.1997 43.5842,18.8037" mask="url(#mask-4)"/><path id="Stroke-86" stroke="#641340" stroke-linecap="round" stroke-linejoin="round" d="M36.5248,26.7887 C32.7638,36.4327 41.9608,45.9337 41.9608,45.9337 C41.9608,45.9337 41.7548,51.0637 39.3948,55.2707 C39.2128,55.5957 39.0268,55.9167 38.8378,56.2357" mask="url(#mask-4)"/><path id="Stroke-87" stroke="#641340" stroke-linecap="round" stroke-linejoin="round" d="M67.9037,44.1334 C69.0707,43.2914 70.1727,42.3624 71.1267,41.2814 C72.1097,40.1664 73.2117,38.4224 74.8387,38.2224 C76.9057,37.9674 77.3207,40.7024 77.0187,42.0914 C76.9627,42.3544 76.8887,42.6124 76.8057,42.8674 C75.7117,46.2074 74.0927,48.9864 70.4627,52.6094" mask="url(#mask-4)"/><path id="Fill-88" fill="#FF8331" d="M45.7572,54.5826 C44.0612,55.1156 42.3412,55.5736 40.6052,55.9546 C38.5892,56.3946 36.3842,56.1516 35.1612,58.1456 C35.1612,58.1456 33.9382,60.9186 38.0072,61.8526 C42.0762,62.7866 45.8482,62.6766 52.6302,60.6046 L52.6302,51.8856 C50.4412,53.0016 48.0982,53.8476 45.7572,54.5826" mask="url(#mask-4)"/><path id="Fill-89" fill="#E55E12" d="M38.3568,59.5172 C36.6128,59.1182 35.8448,58.3792 35.5328,57.6662 C35.4038,57.8142 35.2748,57.9602 35.1618,58.1452 C35.1618,58.1452 33.9378,60.9182 38.0068,61.8522 C42.0768,62.7872 46.2288,62.4172 53.0108,60.3462 C52.7968,59.2082 52.0388,58.4002 50.3728,58.6602 C43.8138,60.6262 42.3548,60.4352 38.3568,59.5172" mask="url(#mask-4)"/><path id="Stroke-90" stroke="#641340" stroke-linecap="round" stroke-linejoin="round" d="M52.6303,51.8853 C50.4413,53.0013 48.0983,53.8473 45.7573,54.5823 C44.0613,55.1153 42.3413,55.5733 40.6053,55.9543 C38.5893,56.3953 36.3843,56.1523 35.1613,58.1453 C35.1613,58.1453 33.9383,60.9183 38.0073,61.8523 C42.0763,62.7863 45.8483,62.6763 52.6303,60.6053" mask="url(#mask-4)"/><path id="Stroke-91" stroke="#641340" stroke-linecap="round" stroke-linejoin="round" d="M63.5453,86.984 C63.5453,86.984 60.7383,96.592 57.5583,100.332 C57.0933,101.151 52.7393,101.684 52.1913,100.224 C51.5283,98.392 51.2863,91.298 51.2863,91.298" mask="url(#mask-4)"/><path id="Stroke-92" stroke="#641340" stroke-linecap="round" stroke-linejoin="round" d="M53.2338,16.689 C53.2338,16.689 45.8598,11.096 44.6288,11.968 C43.3968,12.84 45.2448,17.992 45.2448,17.992" mask="url(#mask-4)"/><path id="Fill-93" fill="#641340" d="M69.4916,22.189 C69.7036,22.816 69.2796,24.115 68.7796,24.284 C68.2796,24.453 66.4256,23.911 66.2146,23.284 C66.0986,22.941 69.3766,21.846 69.4916,22.189" mask="url(#mask-4)"/><path id="Stroke-94" stroke="#641340" stroke-linecap="round" stroke-linejoin="round" d="M69.4916,22.189 C69.7036,22.816 69.2796,24.115 68.7796,24.284 C68.2796,24.453 66.4256,23.911 66.2146,23.284 C66.0986,22.941 69.3766,21.846 69.4916,22.189 Z" mask="url(#mask-4)"/><path id="Stroke-95" stroke="#641340" stroke-linecap="round" stroke-linejoin="round" d="M59.7143,27.192 C59.0553,26.495 59.0863,25.395 59.7833,24.736 C60.4813,24.077 61.5803,24.108 62.2393,24.805" mask="url(#mask-4)"/><path id="Fill-96" fill="#E55E12" d="M41.1859,67.3931 C42.0629,66.9651 43.1199,67.3301 43.5469,68.2061 C43.9749,69.0831 43.6109,70.1401 42.7349,70.5681 C41.8579,70.9961 40.7999,70.6311 40.3729,69.7541 C39.9459,68.8781 40.3089,67.8211 41.1859,67.3931" mask="url(#mask-4)"/><path id="Fill-97" fill="#E55E12" d="M37.4398,91.859 C38.3158,91.431 39.3738,91.796 39.8008,92.672 C40.2288,93.548 39.8648,94.606 38.9878,95.034 C38.1118,95.461 37.0538,95.097 36.6268,94.22 C36.1988,93.344 36.5628,92.287 37.4398,91.859" mask="url(#mask-4)"/><path id="Fill-98" fill="#E55E12" d="M40.4633,72.8883 C40.9003,72.6753 41.4283,72.8573 41.6413,73.2933 C41.8543,73.7313 41.6723,74.2583 41.2353,74.4723 C40.7983,74.6853 40.2713,74.5033 40.0573,74.0663 C39.8443,73.6293 40.0263,73.1023 40.4633,72.8883" mask="url(#mask-4)"/><path id="Fill-99" fill="#E55E12" d="M44.0648,36.6383 C44.5018,36.4243 45.0298,36.6063 45.2428,37.0433 C45.4568,37.4813 45.2748,38.0083 44.8368,38.2213 C44.3998,38.4353 43.8728,38.2533 43.6588,37.8163 C43.4458,37.3783 43.6278,36.8513 44.0648,36.6383" mask="url(#mask-4)"/><path id="Fill-100" fill="#E55E12" d="M49.2699,85.8424 C49.7069,85.6284 50.2349,85.8104 50.4479,86.2474 C50.6619,86.6854 50.4799,87.2124 50.0419,87.4254 C49.6049,87.6394 49.0779,87.4574 48.8649,87.0204 C48.6509,86.5824 48.8329,86.0554 49.2699,85.8424" mask="url(#mask-4)"/><path id="Fill-101" fill="#E55E12" d="M55.3715,44.6158 C55.8085,44.4018 56.3365,44.5838 56.5505,45.0208 C56.7635,45.4588 56.5815,45.9858 56.1435,46.1988 C55.7075,46.4128 55.1805,46.2308 54.9665,45.7938 C54.7535,45.3558 54.9345,44.8288 55.3715,44.6158" mask="url(#mask-4)"/><path id="Fill-102" fill="#E55E12" d="M47.5434,24.9351 C47.9804,24.7211 48.5084,24.9031 48.7214,25.3401 C48.9354,25.7781 48.7534,26.3051 48.3154,26.5181 C47.8784,26.7321 47.3514,26.5501 47.1384,26.1131 C46.9244,25.6751 47.1064,25.1481 47.5434,24.9351" mask="url(#mask-4)"/><path id="Fill-103" fill="#E55E12" d="M45.4418,71.7291 C46.0868,71.4151 46.8638,71.6821 47.1778,72.3271 C47.4928,72.9721 47.2248,73.7501 46.5808,74.0641 C45.9348,74.3781 45.1578,74.1101 44.8428,73.4651 C44.5288,72.8211 44.7958,72.0431 45.4418,71.7291" mask="url(#mask-4)"/><path id="Fill-104" fill="#E55E12" d="M57.8617,47.1763 C58.5077,46.8623 59.2847,47.1293 59.5987,47.7743 C59.9137,48.4183 59.6457,49.1973 59.0007,49.5103 C58.3557,49.8253 57.5787,49.5573 57.2637,48.9123 C56.9497,48.2683 57.2167,47.4903 57.8617,47.1763" mask="url(#mask-4)"/><path id="Fill-105" fill="#E55E12" d="M45.4418,87.1158 C46.0868,86.8018 46.8638,87.0688 47.1778,87.7138 C47.4928,88.3578 47.2248,89.1368 46.5808,89.4508 C45.9348,89.7648 45.1578,89.4968 44.8428,88.8518 C44.5288,88.2078 44.7958,87.4298 45.4418,87.1158" mask="url(#mask-4)"/><path id="Fill-106" fill="#E55E12" d="M42.5824,41.5191 C43.2274,41.2051 44.0044,41.4721 44.3184,42.1181 C44.6334,42.7621 44.3654,43.5401 43.7214,43.8541 C43.0764,44.1681 42.2994,43.9011 41.9844,43.2561 C41.6704,42.6111 41.9374,41.8331 42.5824,41.5191" mask="url(#mask-4)"/><path id="Fill-107" fill="#FFBE58" d="M29.9447,3.2418 L41.2927,12.4658 C40.0807,8.6948 41.2707,4.6258 42.9107,0.4998 C43.4517,6.9508 44.4247,12.9598 47.0487,17.2838 C45.3327,19.5698 40.1737,23.3698 37.9377,23.8778 C34.6497,20.0338 29.2467,17.2298 23.2877,14.6998 C27.7187,14.4318 31.9577,14.5738 35.1597,16.9028 L29.9447,3.2418 Z" mask="url(#mask-4)"/><path id="Fill-108" fill="#D68F22" d="M43.225,14.0816 C41.746,10.2346 41.767,5.2786 42.665,2.3296 C42.583,1.5486 42.977,1.2966 42.911,0.4996 C41.637,3.7036 40.271,8.7806 40.454,11.8036 L43.225,14.0816 Z" mask="url(#mask-4)"/><path id="Fill-109" fill="#D68F22" d="M39.3676,22.8424 C36.4866,19.4734 30.8036,15.9834 25.3846,14.9384 C24.2066,14.9114 24.5136,14.6264 23.2876,14.7004 C29.2466,17.2304 34.6496,20.0334 37.9376,23.8774 C39.1916,23.5924 41.3666,22.2714 43.3376,20.7624 C41.8116,21.8064 40.3226,22.6254 39.3676,22.8424" mask="url(#mask-4)"/><path id="Fill-110" fill="#D68F22" d="M37.7787,18.9683 C37.7787,18.9683 32.5527,7.9453 31.1227,4.1983 L29.9447,3.2403 C29.9447,3.2403 33.6937,14.1413 34.8997,17.3013 C35.7087,17.6223 37.0627,18.4473 37.7787,18.9683" mask="url(#mask-4)"/><path id="Stroke-111" stroke="#641340" stroke-linecap="round" stroke-linejoin="round" d="M29.9447,3.2418 L40.7157,11.3508 C39.9817,7.5948 41.0077,3.9398 42.9107,0.4998 C43.4517,6.9508 44.4247,12.9598 47.0487,17.2838 C45.3327,19.5698 40.1737,23.3698 37.9377,23.8778 C34.6497,20.0338 29.2467,17.2298 23.2877,14.6998 C26.8217,13.9178 31.1327,14.1228 34.4297,16.0358 L29.9447,3.2418 Z" mask="url(#mask-4)"/><path id="Fill-112" fill="#FF8331" d="M47.182,20.3023 C45.628,19.7353 35.936,16.2813 34.379,17.9913 C33.076,19.4243 36.162,25.9953 37.654,28.9483 C41.033,33.6563 48.363,24.8103 47.182,20.3023" mask="url(#mask-4)"/><path id="Fill-113" fill="#E55E12" d="M37.0492,26.7984 C37.8552,28.1504 36.9872,28.5284 38.2132,29.6034 C38.2672,29.6494 38.7662,30.6794 38.7902,30.7314 C39.6822,30.0474 40.5332,29.0524 40.7332,28.2214 C37.7932,24.9904 34.9822,18.8174 35.7332,17.9914 C35.8332,17.8814 37.9942,17.7934 38.1592,17.7244 C36.3842,17.4264 34.9092,17.4094 34.3792,17.9914 C33.3592,19.1134 35.0302,23.3854 36.5212,26.6064 C36.7052,26.5454 36.9202,26.5824 37.0492,26.7984" mask="url(#mask-4)"/><path id="Stroke-114" stroke="#641340" stroke-linecap="round" stroke-linejoin="round" d="M47.3988,20.3824 C47.3988,20.3824 36.0728,16.1314 34.3788,17.9914 C32.6858,19.8534 38.4078,30.4004 38.4078,30.4004" mask="url(#mask-4)"/><path id="Fill-115" fill="#FFF" d="M39.8871,20.8053 C38.6561,21.6773 42.3971,26.7883 42.3971,26.7883 C43.9441,26.5333 46.8331,23.5483 46.6581,22.1183 C46.6581,22.1183 41.1181,19.9333 39.8871,20.8053" mask="url(#mask-4)"/></g></g></svg>