<svg xmlns="http://www.w3.org/2000/svg" xmlns:xlink="http://www.w3.org/1999/xlink" width="109" height="132" version="1.1" viewBox="0 0 109 132"><title>Mystery</title><desc>Created with Sketch.</desc><g id="Page-1" fill="none" fill-rule="evenodd" stroke="none" stroke-width="1"><g id="Mystery"><path id="Fill-1" fill="#92495A" d="M52.2449,32.492 C81.1549,27.408 105.4019,27.894 106.4019,33.579 C106.9829,36.886 99.5749,41.221 87.5869,45.271 L21.1049,56.595 C9.7279,56.649 2.2549,55.096 1.7089,51.992 C0.7089,46.307 23.3349,37.577 52.2449,32.492"/><path id="Fill-3" fill="#4EABC3" d="M75.3123,85.2918 L70.5983,93.8738 C70.1033,94.6498 69.0613,94.8798 68.2853,94.3838 L66.2413,93.0778 C65.4643,92.5818 65.2353,91.5408 65.7313,90.7648 L71.5363,82.8798 L75.3123,85.2918 Z"/><path id="Fill-5" fill="#8AE3F3" d="M69.3142,93.3739 L74.0272,84.7919 L71.3762,83.0979 L71.5362,82.8799 L75.3122,85.2919 L70.5982,93.8739 C70.1032,94.6499 69.0612,94.8799 68.2852,94.3839 L67.9082,94.1429 C68.4582,94.1399 68.9982,93.8699 69.3142,93.3739"/><polygon id="Fill-7" fill="#641340" points="71.41 83.172 75.035 85.487 79.086 79.147 75.46 76.83"/><path id="Fill-9" fill="#4EABC3" d="M77.2742,53.7586 C69.8732,57.5776 66.9692,66.6736 70.7882,74.0746 C74.6062,81.4766 83.7032,84.3806 91.1042,80.5616 C98.5052,76.7426 101.4102,67.6476 97.5902,60.2456 C93.7722,52.8446 84.6752,49.9406 77.2742,53.7586"/><path id="Fill-11" fill="#8AE3F3" d="M97.2839,75.0301 C96.0199,77.0931 94.3329,78.7311 92.4109,79.9301 C93.6269,78.9101 94.7079,77.6891 95.5829,76.2611 C99.9309,69.1591 97.6999,59.8751 90.5969,55.5251 C85.5579,52.4391 79.4289,52.6801 74.7339,55.6101 C79.5649,51.5551 86.6249,50.8201 92.2989,54.2951 C99.4009,58.6441 101.6339,67.9271 97.2839,75.0301"/><path id="Stroke-13" stroke="#641340" stroke-linecap="round" stroke-linejoin="round" d="M77.2742,53.7586 C69.8732,57.5776 66.9692,66.6736 70.7882,74.0746 C74.6062,81.4766 83.7032,84.3806 91.1042,80.5616 C98.5052,76.7426 101.4102,67.6476 97.5902,60.2456 C93.7722,52.8446 84.6752,49.9406 77.2742,53.7586 Z"/><path id="Fill-15" fill="#B2E2FF" d="M79.3142,57.7118 C74.0952,60.4038 72.0472,66.8168 74.7402,72.0348 C77.4332,77.2538 83.8462,79.3018 89.0642,76.6088 C94.2832,73.9168 96.3312,67.5038 93.6382,62.2848 C90.9452,57.0658 84.5322,55.0188 79.3142,57.7118"/><path id="Fill-17" fill="#6B9DC0" d="M79.3142,57.7118 C81.7402,56.4598 84.4212,56.2438 86.8702,56.8838 C85.0092,56.7628 83.0952,57.1178 81.3182,58.0348 C76.0992,60.7278 74.0522,67.1408 76.7452,72.3588 C78.1852,75.1508 80.6942,77.0238 83.5122,77.7608 C79.9112,77.5258 76.5162,75.4768 74.7402,72.0348 C72.0472,66.8168 74.0952,60.4038 79.3142,57.7118"/><path id="Stroke-19" stroke="#641340" stroke-linecap="round" stroke-linejoin="round" d="M79.3142,57.7118 C74.0952,60.4038 72.0472,66.8168 74.7402,72.0348 C77.4332,77.2538 83.8462,79.3018 89.0642,76.6088 C94.2832,73.9168 96.3312,67.5038 93.6382,62.2848 C90.9452,57.0658 84.5322,55.0188 79.3142,57.7118 Z"/><path id="Stroke-21" stroke="#641340" stroke-linecap="round" stroke-linejoin="round" d="M75.3123,85.2918 L70.5983,93.8738 C70.1033,94.6498 69.0613,94.8798 68.2853,94.3838 L66.2413,93.0778 C65.4643,92.5818 65.2353,91.5408 65.7313,90.7648 L71.5363,82.8798 L75.3123,85.2918 Z"/><path id="Fill-23" fill="#FFF" d="M88.6912,65.9989 C89.4132,68.2959 90.8802,69.8809 91.9702,69.5379 C93.0602,69.1949 93.3582,67.0559 92.6362,64.7589 C91.9152,62.4619 90.4462,60.8779 89.3572,61.2199 C88.2672,61.5619 87.9692,63.7019 88.6912,65.9989"/><path id="Fill-25" fill="#D9CFD3" d="M8.3327,129.0907 C8.3327,130.5577 20.3557,131.7467 35.1867,131.7467 C50.0187,131.7467 62.0417,130.5577 62.0417,129.0907 C62.0417,127.6227 50.0187,126.4337 35.1867,126.4337 C20.3557,126.4337 8.3327,127.6227 8.3327,129.0907"/><path id="Fill-27" fill="#641340" d="M55.7048,116.0584 C55.7048,116.0584 56.7778,120.0524 56.3868,122.2024 C55.9958,124.3514 54.8088,126.2334 54.9748,126.8374 C53.9978,127.4234 49.4908,129.0564 49.0348,128.7964 C48.5788,128.5364 48.5708,126.5984 48.8318,124.5794 C49.0928,122.5604 46.5778,117.2884 46.5778,117.2884 L55.7048,116.0584 Z"/><path id="Fill-29" fill="#FFC3AC" d="M55.4363,125.6532 C54.9153,127.1182 55.5483,128.4162 55.0093,128.7402 C54.0333,129.3262 49.4913,129.0562 49.0353,128.7972 C48.6743,128.5912 48.5973,127.3312 48.7073,125.8162 C50.9633,126.1292 53.2473,126.1872 55.4363,125.6532"/><path id="Fill-31" fill="#ECA28A" d="M48.7077,125.8163 C49.1407,125.8763 52.6967,125.9693 53.1307,126.0083 C53.0587,127.4673 52.2707,128.6703 52.5717,129.0943 C51.9467,129.0373 49.1927,128.8863 49.0347,128.7963 C48.6747,128.5903 48.5977,127.3313 48.7077,125.8163"/><path id="Stroke-33" stroke="#641340" stroke-linecap="round" stroke-linejoin="round" d="M55.7048,116.0584 C55.7048,116.0584 56.7778,120.0524 56.3868,122.2024 C56.1508,123.4994 55.5938,125.4044 54.9748,126.8374 C55.0098,127.3734 55.8228,128.5494 55.4358,128.7814 C54.4588,129.3684 49.4908,129.0564 49.0348,128.7964 C48.5788,128.5364 48.5708,126.5984 48.8318,124.5794 C49.0928,122.5604 46.5778,117.2894 46.5778,117.2894"/><path id="Stroke-35" stroke="#641340" stroke-linecap="round" stroke-linejoin="round" d="M55.4363,125.6532 C55.4363,125.6532 52.9393,126.3662 48.7073,125.8162"/><path id="Fill-37" fill="#641340" d="M36.3738,116.0584 C36.3738,116.0584 37.4458,120.0524 37.0558,122.2024 C36.6648,124.3514 35.4768,126.2334 35.6438,126.8374 C34.6668,127.4234 30.1598,129.0564 29.7038,128.7964 C29.2478,128.5364 29.2398,126.5984 29.5008,124.5794 C29.7618,122.5604 27.2468,117.2884 27.2468,117.2884 L36.3738,116.0584 Z"/><path id="Fill-39" fill="#FFC3AC" d="M36.1052,125.6532 C35.5842,127.1182 36.2172,128.4162 35.6782,128.7402 C34.7022,129.3262 30.1602,129.0562 29.7042,128.7972 C29.3432,128.5912 29.2662,127.3312 29.3762,125.8162 C31.6322,126.1292 33.9152,126.1872 36.1052,125.6532"/><path id="Fill-41" fill="#ECA28A" d="M29.3767,125.8163 C29.8097,125.8763 33.3657,125.9693 33.7997,126.0083 C33.7267,127.4673 32.9397,128.6703 33.2407,129.0943 C32.6157,129.0373 29.8617,128.8863 29.7037,128.7963 C29.3437,128.5903 29.2667,127.3313 29.3767,125.8163"/><path id="Stroke-43" stroke="#641340" stroke-linecap="round" stroke-linejoin="round" d="M36.3738,116.0584 C36.3738,116.0584 37.4458,120.0524 37.0558,122.2024 C36.8188,123.4994 36.2628,125.4044 35.6438,126.8374 C35.6788,127.3734 36.4918,128.5494 36.1048,128.7814 C35.1278,129.3684 30.1598,129.0564 29.7038,128.7964 C29.2478,128.5364 29.2398,126.5984 29.5008,124.5794 C29.7608,122.5604 27.2468,117.2894 27.2468,117.2894"/><path id="Stroke-45" stroke="#641340" stroke-linecap="round" stroke-linejoin="round" d="M36.1052,125.6532 C36.1052,125.6532 33.6082,126.3662 29.3762,125.8162"/><path id="Fill-47" fill="#FFC3AC" d="M27.8874,53.8915 C27.8874,67.4715 40.0004,75.3345 54.3014,75.3345 C62.9894,75.3345 76.3894,68.2585 73.9234,60.8255 C76.7414,54.5545 78.5114,47.2495 78.5114,41.9185 C78.5114,28.3385 75.8234,28.1935 61.5214,28.1935 C47.2194,28.1935 27.8874,40.3105 27.8874,53.8915"/><path id="Fill-49" fill="#ECA28A" d="M37.6999,37.1942 C37.8869,43.0652 45.2439,49.5342 47.5519,55.0322 C45.1399,68.8412 57.3569,73.0472 64.7079,72.7692 C62.4109,73.8532 56.6919,75.1942 54.1719,75.3332 C39.9279,75.2852 27.8869,67.4292 27.8869,53.8902 C27.8869,47.6772 31.9399,41.7752 37.6999,37.1942"/><path id="Fill-51" fill="#ECA28A" d="M41.2224,48.1834 L41.7844,45.8834 C41.7844,45.8834 42.3554,45.7114 45.5444,46.0694 C50.5204,46.6254 55.2494,48.1004 59.4044,50.8844 C60.0094,51.2904 60.7314,51.5484 61.4574,51.6184 C61.7354,51.6444 62.0204,51.6224 62.2964,51.5914 C67.2664,51.0374 72.1424,51.9124 76.8144,53.7144 C79.8084,54.8694 80.2354,55.2844 80.2354,55.2844 L79.6734,57.5844 C79.6734,57.5844 78.9574,57.5944 78.3954,58.3814 C76.7914,60.6264 76.3874,63.9794 73.7014,65.3064 C70.9284,66.6754 67.4034,65.6314 65.0104,63.9434 C63.1104,62.6024 62.0274,60.5524 61.7724,58.2594 C61.6374,57.0554 61.4804,55.8534 61.3094,54.6544 C61.2204,54.0244 60.7074,53.3314 60.0094,53.3924 C59.5704,53.4294 59.0884,53.6564 58.8664,54.0564 C58.1614,55.0414 57.4664,56.0364 56.7924,57.0414 C55.5074,58.9584 53.6014,60.2784 51.2964,60.5904 C48.3954,60.9844 44.7854,60.2844 42.9574,57.7894 C41.1864,55.3724 42.3754,52.2114 41.9884,49.4804 C41.8524,48.5224 41.2224,48.1834 41.2224,48.1834"/><path id="Fill-53" fill="#641340" d="M44.0359,45.0252 L43.4739,47.3262 C43.4739,47.3262 44.1039,47.6652 44.2399,48.6232 C44.6269,51.3542 43.4379,54.5152 45.2099,56.9322 C47.0369,59.4262 50.6459,60.1262 53.5489,59.7332 C55.8529,59.4212 57.7599,58.1012 59.0439,56.1842 C59.7189,55.1772 60.4139,54.1842 61.1179,53.1992 C61.3399,52.7972 61.8219,52.5722 62.2609,52.5342 C62.9599,52.4742 63.4729,53.1672 63.5609,53.7962 C63.7309,54.9962 63.8899,56.1982 64.0229,57.4022 C64.2789,59.6952 65.3609,61.7452 67.2629,63.0862 C69.6549,64.7732 73.1809,65.8182 75.9529,64.4492 C78.6399,63.1222 79.0429,59.7682 80.6459,57.5242 C81.2089,56.7372 81.9249,56.7262 81.9249,56.7262 L82.4869,54.4262 C82.4869,54.4262 82.0599,54.0112 79.0659,52.8562 C74.3939,51.0542 69.5179,50.1802 64.5479,50.7342 C64.2719,50.7642 63.9859,50.7872 63.7099,50.7602 C62.9829,50.6912 62.2619,50.4322 61.6549,50.0272 C57.5019,47.2422 52.7719,45.7682 47.7959,45.2122 C44.6059,44.8542 44.0359,45.0252 44.0359,45.0252"/><path id="Fill-55" fill="#FFF" d="M68.2761,50.6004 C69.8821,50.6474 73.0531,51.1214 73.0531,51.1214 L77.7271,62.9324 C77.7271,62.9324 76.6991,64.0794 75.9531,64.4494 C75.1871,64.8274 73.5221,65.0534 73.5221,65.0534 C73.5221,65.0534 70.0391,55.4124 68.2761,50.6004"/><path id="Fill-57" fill="#FFF" d="M51.2908,45.7948 L56.8628,47.5558 L59.2668,55.8638 C59.2668,55.8638 59.1168,56.0768 59.0448,56.1848 C58.0708,57.6358 55.1508,59.3308 55.1508,59.3308 L51.2908,45.7948 Z"/><path id="Stroke-59" stroke="#641340" stroke-linecap="round" stroke-linejoin="round" stroke-width=".75" d="M44.0359,45.0252 L43.4739,47.3262 C43.4739,47.3262 44.1039,47.6652 44.2399,48.6232 C44.6269,51.3542 43.4379,54.5152 45.2099,56.9322 C47.0369,59.4262 50.6459,60.1262 53.5489,59.7332 C55.8529,59.4212 57.7599,58.1012 59.0439,56.1842 C59.7189,55.1772 60.4139,54.1842 61.1179,53.1992 C61.3399,52.7972 61.8219,52.5722 62.2609,52.5342 C62.9599,52.4742 63.4729,53.1672 63.5609,53.7962 C63.7309,54.9962 63.8899,56.1982 64.0229,57.4022 C64.2789,59.6952 65.3609,61.7452 67.2629,63.0862 C69.6549,64.7732 73.1809,65.8182 75.9529,64.4492 C78.6399,63.1222 79.0429,59.7682 80.6459,57.5242 C81.2089,56.7372 81.9249,56.7262 81.9249,56.7262 L82.4869,54.4262 C82.4869,54.4262 82.0599,54.0112 79.0659,52.8562 C74.3939,51.0542 69.5179,50.1802 64.5479,50.7342 C64.2719,50.7642 63.9859,50.7872 63.7099,50.7602 C62.9829,50.6912 62.2619,50.4322 61.6549,50.0272 C57.5019,47.2422 52.7719,45.7682 47.7959,45.2122 C44.6059,44.8542 44.0359,45.0252 44.0359,45.0252 Z"/><path id="Fill-61" fill="#FFBE58" d="M26.9997,57.6083 C25.0537,53.0333 25.0857,50.7463 25.0857,50.7463 C23.5137,52.1753 22.0837,55.1773 22.0837,55.1773 C21.5117,50.7463 23.9787,46.0283 23.9787,46.0283 C21.0117,48.0293 19.6527,50.6033 19.6527,50.6033 C18.0807,39.7383 23.9787,34.5913 23.9787,34.5913 C20.5827,36.0203 18.0807,38.7373 18.0807,38.7373 C20.5767,14.8853 51.2297,3.2683 71.2367,13.5333 C75.0567,15.4923 78.4817,18.2513 81.2247,21.5513 C89.8497,31.9353 90.1347,48.6773 81.8437,58.8853 C81.8437,58.8853 82.6047,51.0383 82.1767,46.1773 C82.1767,46.1773 79.5717,51.6643 76.1767,54.0933 C76.1767,54.0933 80.6267,42.5963 77.3737,32.5893 C77.3737,32.5893 73.5497,43.4553 62.2557,46.7433 C62.2557,46.7433 66.5447,39.8803 65.6877,38.7373 C65.6877,38.7373 60.8257,46.4573 51.2477,49.4593 C51.2477,49.4593 53.9637,45.3133 53.9637,40.8813 C53.9637,40.8813 43.8137,44.8843 41.8127,54.4623 C41.8127,54.4623 39.2387,51.4613 39.2387,48.3153 C39.2387,48.3153 38.1867,48.5143 37.2177,51.7643 C36.5817,53.8993 35.5027,58.3233 37.7257,61.5823"/><path id="Fill-63" fill="#DF8F1C" d="M62.5974,46.1825 C62.8334,46.0765 62.9704,46.0215 62.9704,46.0215 C62.9704,46.1895 62.9594,46.3555 62.9514,46.5215 C62.7214,46.5965 62.4934,46.6735 62.2554,46.7435 C62.2554,46.7435 62.3894,46.5285 62.5974,46.1825"/><path id="Fill-65" fill="#DF8F1C" d="M34.0925,55.8866 C34.0925,55.8866 34.0735,57.4756 35.1875,60.6416 L31.6125,59.3176 C32.1675,58.3126 33.1015,56.7866 34.0925,55.8866"/><path id="Fill-67" fill="#DF8F1C" d="M18.0808,38.7372 C20.5768,14.8852 51.2298,3.2682 71.2368,13.5332 C73.2028,14.5412 83.8338,28.2392 85.5518,29.6352 C63.5518,32.3852 28.7668,37.2342 26.9268,45.4272 C26.9268,45.4272 30.7598,42.7862 34.2598,42.7862 C34.2598,42.7862 28.4268,46.7432 28.6598,55.7432 C28.6598,55.7432 30.0188,53.1702 32.9838,51.1692 C32.9838,51.1692 30.9578,55.0602 31.0128,59.0942 L26.9998,57.6082 C25.0538,53.0332 25.0858,50.7462 25.0858,50.7462 C23.5138,52.1752 22.0838,55.1772 22.0838,55.1772 C21.5118,50.7462 23.9778,46.0282 23.9778,46.0282 C21.0118,48.0292 19.6528,50.6032 19.6528,50.6032 C18.0808,39.7382 23.9778,34.5912 23.9778,34.5912 C20.5828,36.0202 18.0808,38.7372 18.0808,38.7372"/><path id="Stroke-69" stroke="#641340" stroke-linecap="round" stroke-linejoin="round" d="M73.4773,65.284 C71.2083,71.187 62.1493,74.28 56.6923,75.194"/><path id="Stroke-71" stroke="#641340" stroke-linecap="round" stroke-linejoin="round" d="M26.6941,57.6083 C24.7481,53.0333 24.7801,50.7463 24.7801,50.7463 C23.2081,52.1753 21.7781,55.1773 21.7781,55.1773 C21.2061,50.7463 23.6731,46.0283 23.6731,46.0283 C20.7061,48.0293 19.3471,50.6033 19.3471,50.6033 C17.7751,39.7383 23.6731,34.5913 23.6731,34.5913 C20.2771,36.0203 17.7751,38.7373 17.7751,38.7373 C20.2711,14.8853 50.9241,3.2683 70.9311,13.5333 C74.7511,15.4923 78.1761,18.2513 80.9191,21.5513 C89.5441,31.9353 90.9251,50.1683 80.9261,60.1813 C80.9261,60.1813 83.6761,53.3023 82.1761,46.1773 C82.1761,46.1773 80.2131,51.7643 76.1761,54.0933 C76.1761,54.0933 80.3211,42.5963 77.0681,32.5893 C77.0681,32.5893 73.2441,43.4553 61.9501,46.7433 C61.9501,46.7433 66.2391,39.8803 65.3821,38.7373 C65.3821,38.7373 60.5201,46.4573 50.9421,49.4593 C50.9421,49.4593 53.6591,45.3133 53.6591,40.8813 C53.6591,40.8813 43.5081,44.8843 41.5071,54.4623 C41.5071,54.4623 38.9331,51.4613 38.9331,48.3153 C38.9331,48.3153 34.9301,54.2493 37.4201,61.5823"/><path id="Fill-73" fill="#92495A" d="M67.2166,85.0848 C68.8976,85.3698 71.3516,86.1138 70.9166,88.5748 C70.7536,89.5008 70.1896,90.2798 69.4986,90.8058 C68.2406,91.7628 66.7926,91.9028 65.3056,92.0318 C63.3336,92.2018 61.3356,92.0748 59.3726,91.6998 L54.9966,80.5028 C54.9966,80.5028 60.2766,83.9108 67.2166,85.0848"/><path id="Fill-75" fill="#B9717B" d="M67.7224,86.6542 C62.3254,86.0772 57.8424,84.1182 56.0714,83.2502 L54.9964,80.5032 C54.9964,80.5032 60.2764,83.9112 67.2164,85.0852 C68.7134,85.3392 70.8174,85.9602 70.9544,87.8292 C70.1434,87.0412 68.7784,86.7672 67.7224,86.6542"/><path id="Fill-77" fill="#FFC3AC" d="M67.0984,88.5145 C67.0204,87.2685 66.8674,86.1195 66.5784,84.9625 C66.7904,85.0035 67.0004,85.0485 67.2164,85.0845 C68.8974,85.3695 71.3514,86.1145 70.9164,88.5755 C70.7534,89.5005 70.1894,90.2805 69.4984,90.8055 C68.6624,91.4425 67.7414,91.7145 66.7804,91.8665 C66.9974,90.7735 67.1744,89.7215 67.0984,88.5145"/><path id="Fill-79" fill="#ECA28A" d="M70.7234,87.3231 C71.5034,87.1771 70.3664,89.1541 70.9234,88.5121 C70.9204,88.5341 70.9204,88.5521 70.9164,88.5751 C70.7534,89.5011 70.1894,90.2801 69.4984,90.8051 C68.6624,91.4421 67.7414,91.7151 66.7804,91.8661 C66.9234,91.1471 67.0824,87.3591 67.1294,86.6201 C67.6854,86.7071 70.1224,87.4351 70.7234,87.3231"/><path id="Stroke-81" stroke="#641340" stroke-linecap="round" stroke-linejoin="round" d="M54.9968,80.5028 C54.9968,80.5028 60.2768,83.9108 67.2168,85.0848 C68.8968,85.3698 71.3518,86.1138 70.9168,88.5748 C70.7528,89.5008 70.1888,90.2798 69.4988,90.8058 C68.2418,91.7628 66.7928,91.9028 65.3058,92.0318 C63.3338,92.2018 61.3358,92.0748 59.3728,91.6998"/><path id="Stroke-83" stroke="#641340" stroke-linecap="round" stroke-linejoin="round" d="M66.6355,85.162 C66.6355,85.162 67.9815,87.794 66.6035,91.895"/><path id="Fill-85" fill="#B9717B" d="M62.9822,65.8309 C60.7302,70.0129 56.2272,75.5879 56.2272,75.5879 C56.2272,75.5879 44.7542,75.5879 29.1002,72.0499 C23.2032,66.0449 20.2012,53.3929 20.2012,53.3929 C39.2132,62.0779 62.9822,65.8309 62.9822,65.8309"/><path id="Fill-87" fill="#92495A" d="M53.0466,63.829 C52.3316,67.367 51.2336,70.439 50.2216,75.289 C42.8246,75.289 31.8346,72.667 29.1006,72.05 C23.2026,66.045 20.2006,53.392 20.2006,53.392 C36.0336,60.857 48.9256,62.436 53.0466,63.829"/><path id="Fill-89" fill="#B9717B" d="M29.1003,72.0497 C38.4893,74.1317 47.5543,75.3707 56.2273,75.5877 C56.2273,75.5877 57.8353,97.8897 73.5973,110.8627 C73.5973,110.8627 63.6253,118.0027 40.0003,118.7567 C38.1613,116.0097 37.6073,107.4677 37.6073,107.4677 C37.6073,107.4677 37.3023,114.4027 37.8173,118.7567 C22.7673,118.6407 16.9843,115.2597 16.9843,115.2597 C16.9843,115.2597 13.6613,96.0677 29.1003,72.0497"/><path id="Fill-91" fill="#B9717B" d="M29.1003,72.0497 C38.4893,74.1317 47.5543,75.3707 56.2273,75.5877 C56.2273,75.5877 57.8353,97.8897 73.5973,110.8627 C73.5973,110.8627 63.6253,118.0027 40.0003,118.7567 C38.1613,116.0097 37.6073,107.4677 37.6073,107.4677 C37.6073,107.4677 37.3023,114.4027 37.8173,118.7567 C22.7673,118.6407 16.9843,115.2597 16.9843,115.2597 C16.9843,115.2597 13.6613,96.0677 29.1003,72.0497"/><path id="Fill-93" fill="#92495A" d="M29.1003,72.0497 C36.4493,73.6797 43.5953,74.7837 50.5143,75.2947 C48.1883,97.4607 57.4003,111.9027 61.8543,115.6987 C57.3223,116.6037 46.5593,118.5467 40.0003,118.7567 C38.1613,116.0097 37.6073,107.4677 37.6073,107.4677 C37.6073,107.4677 37.3023,114.4027 37.8173,118.7567 C22.7673,118.6407 16.9843,115.2597 16.9843,115.2597 C16.9843,115.2597 13.6613,96.0677 29.1003,72.0497"/><path id="Fill-95" fill="#81354A" d="M38.404,73.8534 C35.593,69.4974 35.166,63.9634 35.426,63.8294 C35.426,63.8294 34.675,70.6554 36.104,73.4624 C36.624,73.6594 37.539,73.5644 38.404,73.8534"/><path id="Fill-97" fill="#81354A" d="M43.3816,74.5135 C41.1096,71.6205 40.7876,65.9375 40.7876,65.9375 C40.7876,65.9375 40.2156,70.3575 41.0816,74.1795 C41.4486,74.8065 43.4306,74.7285 43.3816,74.5135"/><path id="Stroke-99" stroke="#641340" stroke-linecap="round" stroke-linejoin="round" d="M56.2273,75.5877 C56.2273,75.5877 60.7303,70.0127 62.9823,65.8307 C62.9823,65.8307 39.2123,62.0777 20.2013,53.3927 C20.2013,53.3927 23.2033,66.0447 29.1003,72.0497 C44.7543,75.5877 56.2273,75.5877 56.2273,75.5877 Z"/><path id="Stroke-101" stroke="#641340" stroke-linecap="round" stroke-linejoin="round" d="M56.2273,75.5877 C56.2273,75.5877 57.8353,97.8897 73.5973,110.8627 C73.5973,110.8627 63.6253,118.0027 40.0013,118.7567 C38.1613,116.0097 37.6073,107.4677 37.6073,107.4677 C37.6073,107.4677 37.3023,114.4017 37.8173,118.7567 C22.7673,118.6407 16.9843,115.2597 16.9843,115.2597 C16.9843,115.2597 13.6613,96.0667 29.1003,72.0497"/><path id="Fill-103" fill="#8A4557" d="M48.4001,94.4588 C48.4001,94.4588 33.2461,93.3148 26.3841,91.3128 C26.3841,91.3128 24.0591,97.9428 24.4171,103.3048 C24.4171,103.3048 38.6401,104.4378 48.9321,102.8038 C49.0031,100.2888 49.1711,97.1878 48.4001,94.4588"/><path id="Stroke-105" stroke="#641340" stroke-linecap="round" stroke-linejoin="round" d="M48.4001,94.4588 C48.4001,94.4588 33.2461,93.3148 26.3841,91.3128 C26.3841,91.3128 24.0961,96.1028 24.4541,101.4638 C24.4541,101.4638 38.6761,103.3498 48.8271,102.4198 C48.8971,99.9048 49.1711,97.1878 48.4001,94.4588 Z"/><path id="Fill-107" fill="#FFBE58" d="M43.987,96.3172 C45.157,96.3172 46.104,97.2652 46.104,98.4342 C46.104,99.6042 45.157,100.5522 43.987,100.5522 C42.817,100.5522 41.87,99.6042 41.87,98.4342 C41.87,97.2652 42.817,96.3172 43.987,96.3172"/><path id="Fill-109" fill="#FFBE58" d="M29.364,94.8778 C30.534,94.8778 31.482,95.8258 31.482,96.9958 C31.482,98.1648 30.534,99.1128 29.364,99.1128 C28.194,99.1128 27.247,98.1648 27.247,96.9958 C27.247,95.8258 28.194,94.8778 29.364,94.8778"/><path id="Stroke-111" stroke="#641340" stroke-linecap="round" stroke-linejoin="round" d="M41.8699,98.4344 C41.8699,99.6044 42.8169,100.5524 43.9869,100.5524 C45.1569,100.5524 46.1039,99.6044 46.1039,98.4344 C46.1039,97.2654 45.1569,96.3174 43.9869,96.3174 C42.8169,96.3174 41.8699,97.2654 41.8699,98.4344 Z"/><path id="Stroke-113" stroke="#641340" stroke-linecap="round" stroke-linejoin="round" d="M27.2468,96.995 C27.2468,98.165 28.1948,99.113 29.3638,99.113 C30.5338,99.113 31.4818,98.165 31.4818,96.995 C31.4818,95.826 30.5338,94.878 29.3638,94.878 C28.1948,94.878 27.2468,95.826 27.2468,96.995 Z"/><path id="Fill-115" fill="#B9717B" d="M52.2449,29.576 C81.1549,23.877 106.4269,24.075 107.4269,30.448 C107.5759,31.401 107.1039,32.456 106.1469,33.571 C104.8939,29.145 97.2549,29.096 93.6339,28.937 C88.7249,28.722 83.8129,28.747 78.9139,29.139 C73.6129,29.561 68.4099,30.587 63.1429,31.226 C63.1139,31.008 62.9639,30.818 62.6769,30.844 C60.1299,31.068 57.6439,31.754 55.1019,32.07 C52.9069,32.344 50.7069,32.569 48.5529,33.091 C43.2329,34.378 37.7499,35.073 32.5029,36.637 C32.3959,36.524 32.2409,36.462 32.0439,36.528 C26.9409,38.246 21.7939,39.829 16.7119,41.609 C16.6369,41.591 16.5549,41.585 16.4599,41.612 C14.7659,42.097 13.3249,43.039 11.8659,43.949 C11.7249,43.791 11.5009,43.706 11.2579,43.829 C7.6289,45.668 3.0009,47.068 1.9089,51.226 C1.1339,50.482 0.6449,49.724 0.5309,48.996 C-0.4681,42.624 23.3349,35.276 52.2449,29.576"/><path id="Fill-117" fill="#92495A" d="M52.2449,29.576 C61.4739,27.757 70.3279,26.542 78.1439,25.933 C78.3679,27.004 78.5449,28.08 78.6969,29.161 C73.4719,29.595 68.3379,30.596 63.1429,31.226 C63.1139,31.008 62.9639,30.818 62.6769,30.844 C60.1299,31.068 57.6439,31.754 55.1019,32.07 C52.9069,32.344 50.7069,32.569 48.5529,33.091 C43.2329,34.378 37.7499,35.073 32.5029,36.637 C32.3959,36.524 32.2409,36.462 32.0439,36.528 C26.9409,38.246 21.7939,39.829 16.7119,41.609 C16.6369,41.591 16.5549,41.585 16.4599,41.612 C14.7659,42.097 13.3249,43.039 11.8659,43.949 C11.7249,43.791 11.5009,43.706 11.2579,43.829 C7.6289,45.668 3.0009,47.068 1.9089,51.226 C1.1339,50.482 0.6449,49.724 0.5309,48.996 C-0.4681,42.624 23.3349,35.276 52.2449,29.576"/><path id="Stroke-119" stroke="#641340" stroke-linecap="round" stroke-linejoin="round" d="M87.8435,45.1844 C99.8315,41.1344 106.9835,36.8854 106.4025,33.5804 C105.4025,27.8944 81.1555,27.4084 52.2445,32.4934 C23.3345,37.5774 0.7085,46.3074 1.7085,51.9924 C2.2545,55.0954 9.7275,56.6494 21.1065,56.5944"/><path id="Fill-121" fill="#92495A" d="M44.5222,1.3456 C64.2252,-2.2974 82.2462,5.8316 85.8872,25.5336 C61.2722,27.2016 37.5042,31.6486 14.5392,38.7236 C10.8972,19.0216 24.8202,4.9886 44.5222,1.3456"/><path id="Fill-123" fill="#B9717B" d="M85.8875,25.534 L83.9465,25.893 C82.0925,25.951 80.2425,26.065 78.3945,26.227 C76.5725,26.196 74.7495,26.178 72.9265,26.178 C72.6905,26.177 72.5425,26.312 72.4795,26.483 C69.4465,12.663 60.0205,4.087 47.7985,0.852 C66.1885,-1.349 82.4495,6.93 85.8875,25.534"/><path id="Fill-125" fill="#641340" d="M83.9949,19.0057 C84.8129,21.0207 85.4549,23.1927 85.8879,25.5337 C61.2719,27.2017 37.5049,31.6487 14.5389,38.7237 C14.0969,36.3307 13.9179,34.0247 13.9739,31.8077 C36.4979,24.2537 59.8019,19.5477 83.9949,19.0057"/><path id="Stroke-127" stroke="#641340" stroke-linecap="round" stroke-linejoin="round" d="M105.905,35.5438 C105.905,35.5438 107.801,33.1978 107.579,30.1698 C106.579,24.4848 81.805,24.0908 52.245,29.2898 C22.684,34.4878 -0.468,43.3118 0.531,48.9958 C1.023,51.0028 2.109,52.8748 2.109,52.8748"/><path id="Stroke-129" stroke="#641340" stroke-linecap="round" stroke-linejoin="round" d="M85.8875,25.534 C82.2455,5.832 64.2255,-2.297 44.5225,1.346 C24.8205,4.988 10.8965,19.021 14.5385,38.724"/></g></g></svg>