<svg xmlns="http://www.w3.org/2000/svg" viewBox="0 0 50 50"><path d="M32.844 1.97a1 1 0 0 0-.563.31L28.063 6.5l-3.28-4.125A1 1 0 0 0 23.905 2a1 1 0 0 0-.75.5l-2.5 4.156-6.156-3.53a1 1 0 0 0-1.5 1.03l.78 4.657L8.157 8a1 1 0 0 0-1 1.5l2.438 4.063-5.03 2.53a1 1 0 0 0 .248 1.876l3.813.75-1.563 3.905a1 1 0 0 0 1.438 1.25l.5-.28v2.593c.07.687.527 1.29 1.125 1.593-.17.136-.362.307-.53.532-.5.7-.79 1.8-.69 3 .4 3.6 2.708 4.888 3.408 5.188.3 1.7 1.093 3.712 2.593 5.813 1.5 2.3 8.5 5.593 10 5.593s8.5-3.393 10-5.593c1.4-2.1 2.2-4.213 2.5-5.813.7-.3 3-1.587 3.5-5.188.1-1.2-.218-2.3-.718-3-.14-.186-.267-.348-.407-.468.65-.286 1.147-.93 1.22-1.657v-2.156a1 1 0 0 0 .938-1.405l-1.626-4.063 4.063-1.625a1 1 0 0 0 .063-1.843l-5.094-2.563 2.468-5.092a1 1 0 0 0-1.187-1.407l-5.813 1.69L34 2.843a1 1 0 0 0-1.156-.875zm-8.75 2.75l3.125 3.905a1 1 0 0 0 1.5.094l3.593-3.595.687 4.03a1 1 0 0 0 1.28.814L39 8.593l-1.906 3.97a1 1 0 0 0 .468 1.342l3.97 2-2.907 1.156a1 1 0 0 0-.563 1.313l.782 1.938-4.125-2.063-.314-.156a1 1 0 0 0-.093-.063c-.05-.02-.12-.027-.188-.03h-.094a1 1 0 0 0-.03 0H14.906c-.123.002-.226.023-.312.063-.03.013-.073.01-.094.03l-1.03.626L10 20.687l.938-2.313a1 1 0 0 0-.75-1.344l-2.157-.436 3.408-1.688a1 1 0 0 0 .406-1.406l-1.906-3.188 4.906.688A1 1 0 0 0 16 9.844l-.656-3.906L20.5 8.874a1 1 0 0 0 1.344-.375l2.25-3.78zM19 20h12c1.1 0 2 .9 2 2v2c0 1.1-.9 2-2 2H19c-1.1 0-2-.9-2-2v-2c0-1.1.9-2 2-2zm-6.344 8h24.657c.06.224.165.437.374.594.2.1.613.412.813.812.3.4.506.888.406 1.688-.4 3.2-2.593 3.812-2.593 3.812-.248.062-.414.24-.532.438-.447-.262-.946-.473-1.436-.657-1.07-.4-2.094-.656-2.094-.656a1 1 0 0 0-.406-.03 1 1 0 0 0-.094 1.97s.975.243 1.906.593c.466.174.914.39 1.188.562.104.065.152.094.187.125a1 1 0 0 0 .095.22c-.21.56-.486 1.16-.813 1.81-.362-.452-.8-.842-1.218-1.155-.836-.627-1.657-1.03-1.657-1.03a1 1 0 0 0-.562-.095 1 1 0 0 0-.313 1.906s.68.346 1.344.844c.333.25.644.53.844.78.2.25.25.428.25.47a1 1 0 0 0 .094.406c-.348.437-.85.873-1.438 1.313-.244-.47-.57-.877-.875-1.25-.545-.67-1.093-1.19-1.093-1.19a1 1 0 0 0-.937-.28 1 1 0 0 0-.438 1.72s.453.443.907 1c.363.445.59.937.686 1.124C27.844 45.057 25.586 46 25 46c-.59 0-2.87-.927-4.938-2.125.08-.147.334-.685.72-1.156.453-.557.905-1 .905-1a1 1 0 0 0-.875-1.72 1 1 0 0 0-.5.28s-.547.52-1.093 1.19c-.314.382-.662.794-.907 1.28-.576-.422-1.066-.87-1.407-1.28A1 1 0 0 0 17 41c0-.042.05-.22.25-.47.2-.25.51-.53.844-.78.664-.498 1.343-.844 1.343-.844A1.003 1.003 0 1 0 18.813 37a1 1 0 0 0-.25.094s-.82.404-1.656 1.03c-.417.314-.856.704-1.218 1.157-.023.03-.04.066-.063.095-.335-.636-.6-1.228-.813-1.78a1 1 0 0 0 .157-.345c.034-.03.082-.06.186-.125.274-.17.722-.388 1.188-.563.93-.35 1.906-.593 1.906-.593a1.008 1.008 0 1 0-.438-1.97 1 1 0 0 0-.062.03s-1.025.257-2.094.657c-.512.193-1.037.408-1.5.688-.125-.18-.324-.315-.562-.375 0 0-2.194-.706-2.594-3.906-.1-.8.106-1.288.406-1.688.3-.4.582-.712.78-.812.238-.12.415-.328.47-.594zm6.844 1c-.828 0-1.5.672-1.5 1.5s.672 1.5 1.5 1.5 1.5-.672 1.5-1.5-.672-1.5-1.5-1.5zm11 0c-.828 0-1.5.672-1.5 1.5s.672 1.5 1.5 1.5 1.5-.672 1.5-1.5-.672-1.5-1.5-1.5z"/></svg>