<svg xmlns="http://www.w3.org/2000/svg" viewBox="0 0 24 24"><path style="text-indent:0;text-align:start;line-height:normal;text-transform:none;block-progression:tb;-inkscape-font-specification:Bitstream Vera Sans" d="M13.563 2.094c-.135.012-.27.052-.407.094v-.063l-.125.03-9.592 2.47a1 1 0 0 0-.094.03C2.438 5.02 1.83 5.998 2.03 7a1 1 0 0 0 0 .063l1.814 6.78a1 1 0 0 0 0 .032c.57 1.94 2.11 3.122 3.656 3.813.474.766 1.073 1.444 1.656 2 1.448 1.38 2.97 2.187 2.97 2.187a1 1 0 0 0 .624.125s.44-.078 1.094-.25c.654-.172 1.524-.438 2.437-.844.686-.304 1.428-.69 2.095-1.187.222-.167.42-.34.625-.532.82-.767 1.47-1.753 1.688-3l1.28-7A1 1 0 0 0 22 9.155c.186-1.115-.566-2.138-1.594-2.344a1 1 0 0 0-.03 0l-4.095-.75-.686-2.468c-.005-.026-.026-.038-.03-.063-.13-.537-.485-.928-.908-1.186-.306-.187-.69-.288-1.094-.25zM8.875 5.28v.032c-.48.302-.86.766-1.03 1.282a1 1 0 0 0-.032.125l-.344 2.06c-.092 0-.192.01-.282.033-.8.2-1.188 1.374-1.188 1.374s.522.462 1.125.594l-.5 2.94c-.057.322-.067.627-.063.936-.343-.373-.622-.797-.78-1.312l-1.813-6.75c0 .003-.002-.025.092-.063l4.813-1.25zM9.845 7c.025-.025.05-.007.092 0L15 7.906 13.5 16l-3-.5.094.188c.393 1.18 1.358 2.092 2.53 2.312l-.343 1.906c-.247-.14-1.16-.65-2.25-1.687-1.073-1.025-1.94-2.288-1.967-3.595-.004-.187-.002-.375.03-.563L9.75 7.22c.042-.127.068-.195.094-.22zm1.75 3.47c-.71.037-1.408.717-1.408.717S10.7 12.4 11.5 12.5c.8.2 1.688-.688 1.688-.688s-.482-1.212-1.282-1.312c-.1-.025-.21-.037-.312-.03zm6.092 1.092c.102-.005.213.007.313.032.733.09 1.206 1.08 1.28 1.25v.03l-.03.063c-.134.114-.925.748-1.656.657-.8-.1-1.282-1.28-1.282-1.28 0-.002.667-.713 1.375-.752z" color="#000" overflow="visible" font-family="Bitstream Vera Sans"/></svg>