<svg xmlns="http://www.w3.org/2000/svg" width="26" height="26" viewBox="0 0 26 26"><path style="text-indent:0;text-align:start;line-height:normal;text-transform:none;block-progression:tb;-inkscape-font-specification:Bitstream Vera Sans" d="M23.906-.03a1 1 0 0 0-.125.03A1 1 0 0 0 23 1s-.003.723-.47 1.47C22.066 3.214 21.234 4 19 4c-3.222 0-5.096 1.148-6.03 2.406C12.033 7.666 12.03 9 12.03 9a1 1 0 1 0 2 0s-.018-.665.533-1.406C15.113 6.852 16.223 6 19 6c2.767 0 4.435-1.215 5.22-2.47C25.002 2.278 25 1 25 1a1 1 0 0 0-1.094-1.03zM6.97 9.093C4.22 9.094.22 14.046.22 20.28c0 1.956 1.486 4.657 3.124 4.657 3.276 0 3.896-5.03 9.656-5.03 5.76 0 6.38 5.03 9.656 5.03 1.638 0 3.125-2.7 3.125-4.656 0-6.234-4-11.186-6.75-11.186-2.747 0-3.282 2.97-6.03 2.97-2.748-.002-3.283-2.97-6.03-2.97zm11.78 3.656c.082-.017.163 0 .25 0 .697 0 1.25.55 1.25 1.25s-.553 1.25-1.25 1.25-1.25-.552-1.25-1.25c0-.61.425-1.132 1-1.25zM6 13h2v2h2v2H8v2H6v-2H4v-2h2v-2zm10.75 1.75c.082-.017.163 0 .25 0 .7 0 1.25.552 1.25 1.25s-.552 1.25-1.25 1.25-1.25-.553-1.25-1.25c0-.61.424-1.132 1-1.25zm4 0c.082-.017.163 0 .25 0 .7 0 1.25.552 1.25 1.25s-.552 1.25-1.25 1.25-1.25-.552-1.25-1.25c0-.61.424-1.132 1-1.25zm-2 2c.082-.017.163 0 .25 0 .698 0 1.25.55 1.25 1.25s-.553 1.25-1.25 1.25-1.25-.55-1.25-1.25c0-.612.424-1.132 1-1.25z" color="#000" overflow="visible" font-family="Bitstream Vera Sans"/></svg>