<svg xmlns="http://www.w3.org/2000/svg" width="813.333" height="813.333" preserveAspectRatio="xMidYMid meet" version="1.0" viewBox="0 0 610 610"><metadata>Created by potrace 1.11, written by Peter Selinger 2001-2013</metadata><g fill="#000" stroke="none"><path d="M2071 6078 c-63 -11 -101 -46 -161 -145 -29 -48 -53 -92 -55 -98 -1 -5 -11 -31 -23 -57 -32 -73 -63 -175 -78 -263 -17 -99 -22 -268 -11 -347 5 -36 4 -38 -47 -67 -85 -47 -193 -120 -254 -169 -32 -25 -62 -49 -68 -53 -6 -5 -33 3 -65 20 -97 52 -256 100 -389 118 -61 8 -256 8 -305 0 -163 -26 -195 -37 -233 -82 -30 -34 -42 -67 -42 -115 0 -40 28 -116 52 -141 7 -8 25 -30 38 -49 13 -19 27 -37 30 -40 3 -3 30 -34 60 -70 145 -171 346 -353 519 -469 165 -110 226 -139 496 -241 61 -23 119 -45 130 -50 21 -10 186 -73 195 -75 3 -1 14 -5 25 -10 11 -4 43 -17 70 -27 28 -10 59 -22 70 -27 11 -5 47 -19 80 -31 33 -12 69 -26 80 -31 86 -37 219 -84 265 -94 46 -10 62 -9 95 4 58 22 94 61 113 121 2 8 5 299 5 645 0 557 -3 716 -20 790 -2 11 -6 31 -9 45 -3 14 -14 63 -25 110 -11 47 -22 92 -24 100 -3 13 -22 68 -72 205 -20 55 -163 343 -215 435 -76 132 -137 174 -227 158z m44 -298 c121 -240 177 -356 194 -402 19 -54 19 -58 3 -59 -9 0 -24 -2 -32 -4 -8 -2 -26 -5 -40 -8 -14 -3 -45 -10 -70 -17 -25 -7 -49 -13 -55 -15 -5 -1 -17 -4 -25 -7 -88 -30 -122 -40 -126 -35 -7 7 -7 134 0 182 4 22 9 56 12 75 13 89 100 310 122 310 4 0 12 -9 17 -20z m-1220 -994 c96 -12 258 -60 287 -85 4 -3 -18 -38 -48 -76 -31 -39 -61 -77 -67 -85 -7 -8 -32 -45 -57 -82 l-45 -67 -44 42 c-123 119 -161 160 -257 272 -53 63 -73 92 -58 83 5 -3 29 -3 54 1 52 8 162 6 235 -3z" transform="translate(0.000000,610.000000) scale(0.100000,-0.100000)"/><path d="M3757 4894 c-1 -1 -42 -5 -92 -8 -105 -8 -127 -11 -175 -20 -19 -3 -46 -8 -60 -10 -14 -3 -61 -14 -105 -26 -44 -12 -87 -23 -95 -25 -34 -8 -200 -75 -270 -109 l-75 -37 -1 -517 c0 -284 -3 -539 -6 -567 -14 -120 -105 -241 -225 -297 -54 -26 -78 -31 -146 -32 -45 0 -95 2 -112 6 -30 8 -306 111 -380 143 -22 9 -47 18 -55 20 -8 2 -84 31 -168 64 -84 34 -155 61 -158 61 -3 0 -22 7 -42 16 -46 20 -61 26 -145 58 -39 15 -74 23 -81 19 -8 -5 -42 -33 -76 -63 -35 -30 -71 -62 -80 -70 -209 -182 -554 -531 -720 -730 -25 -30 -55 -65 -68 -79 -52 -57 -68 -102 -63 -176 2 -35 53 -104 90 -121 45 -21 99 -26 136 -12 17 6 64 35 105 63 156 107 456 290 485 295 6 1 21 10 35 20 44 30 288 145 303 142 4 -1 7 2 7 7 0 5 10 12 23 16 12 4 27 9 32 10 6 2 48 20 95 40 47 21 103 38 126 40 78 6 165 -57 178 -129 3 -16 7 -30 10 -33 13 -13 -62 -175 -93 -203 -6 -5 -12 -15 -53 -89 -11 -20 -24 -40 -28 -46 -4 -5 -33 -59 -65 -120 -32 -60 -61 -114 -66 -120 -4 -5 -15 -30 -25 -55 -10 -25 -24 -56 -33 -69 -8 -13 -16 -29 -17 -35 -1 -6 -16 -42 -34 -81 -45 -98 -85 -199 -137 -345 -59 -168 -57 -158 -57 -215 -1 -61 18 -99 66 -138 29 -24 48 -30 95 -32 76 -4 113 16 170 91 13 16 61 80 108 142 83 109 113 147 145 182 8 9 44 50 79 91 66 75 362 374 436 439 72 64 208 176 301 248 111 85 368 262 382 262 6 0 12 4 14 8 3 8 109 73 233 142 407 229 919 422 1392 523 121 26 147 23 188 -23 29 -32 26 -102 -5 -135 -22 -23 -95 -52 -153 -60 -48 -7 -285 -87 -390 -132 -202 -87 -621 -321 -635 -355 -2 -4 -8 -8 -14 -8 -11 0 -148 -100 -215 -157 -11 -10 -41 -34 -65 -53 -75 -60 -302 -291 -377 -384 -99 -122 -207 -289 -279 -428 -33 -65 -58 -118 -56 -118 3 0 -3 -14 -11 -30 -34 -65 -100 -294 -119 -410 -20 -126 -27 -359 -13 -481 21 -191 65 -373 123 -514 31 -74 50 -97 100 -122 80 -40 177 -7 230 80 150 242 306 374 641 541 62 31 119 56 126 56 8 0 20 7 27 15 7 8 18 15 25 15 7 0 42 13 77 28 34 16 79 35 98 43 57 23 356 175 402 204 24 15 84 52 133 83 50 30 117 75 150 99 33 23 71 51 85 60 106 77 334 288 411 383 19 23 39 47 44 54 74 83 258 376 238 376 -5 0 -3 4 4 8 30 19 135 322 163 472 30 156 33 195 33 395 1 209 -2 244 -33 396 -40 194 -123 420 -210 565 -28 48 -102 165 -112 179 -268 356 -579 585 -972 717 -49 16 -96 31 -105 33 -9 2 -34 8 -56 13 -22 6 -53 14 -70 17 -16 3 -41 8 -55 11 -67 14 -383 36 -393 28z m-725 -3447 c66 -105 193 -229 313 -309 112 -74 298 -157 385 -172 14 -2 32 -7 40 -10 8 -3 30 -7 48 -10 46 -6 48 -11 10 -26 -110 -44 -408 -199 -463 -242 -5 -4 -44 -33 -85 -63 -95 -71 -260 -230 -260 -251 0 -3 -6 -11 -12 -18 -7 -8 -20 -23 -28 -35 -27 -39 -27 -38 -68 130 -40 164 -47 225 -46 414 0 88 4 183 8 210 13 86 46 225 62 263 8 20 15 39 14 42 -1 11 43 120 49 120 3 0 18 -19 33 -43z" transform="translate(0.000000,610.000000) scale(0.100000,-0.100000)"/></g></svg>