<svg version="1" xmlns="http://www.w3.org/2000/svg" width="813.333" height="813.333" viewBox="0 0 610.000000 610.000000"><path d="M207.1 2.2C200.8 3.3 197 6.8 191 16.7c-2.9 4.8-5.3 9.2-5.5 9.8-.1.5-1.1 3.1-2.3 5.7-3.2 7.3-6.3 17.5-7.8 26.3-1.7 9.9-2.2 26.8-1.1 34.7.5 3.6.4 3.8-4.7 6.7-8.5 4.7-19.3 12-25.4 16.9-3.2 2.5-6.2 4.9-6.8 5.3-.6.5-3.3-.3-6.5-2-9.7-5.2-25.6-10-38.9-11.8-6.1-.8-25.6-.8-30.5 0-16.3 2.6-19.5 3.7-23.3 8.2-3 3.4-4.2 6.7-4.2 11.5 0 4 2.8 11.6 5.2 14.1.7.8 2.5 3 3.8 4.9 1.3 1.9 2.7 3.7 3 4 .3.3 3 3.4 6 7 14.5 17.1 34.6 35.3 51.9 46.9 16.5 11 22.6 13.9 49.6 24.1 6.1 2.3 11.9 4.5 13 5 2.1 1 18.6 7.3 19.5 7.5.3.1 1.4.5 2.5 1 1.1.4 4.3 1.7 7 2.7 2.8 1 5.9 2.2 7 2.7 1.1.5 4.7 1.9 8 3.1 3.3 1.2 6.9 2.6 8 3.1 8.6 3.7 21.9 8.4 26.5 9.4 4.6 1 6.2.9 9.5-.4 5.8-2.2 9.4-6.1 11.3-12.1.2-.8.5-29.9.5-64.5 0-55.7-.3-71.6-2-79-.2-1.1-.6-3.1-.9-4.5-.3-1.4-1.4-6.3-2.5-11s-2.2-9.2-2.4-10c-.3-1.3-2.2-6.8-7.2-20.5-2-5.5-16.3-34.3-21.5-43.5C222.2 4.8 216.1.6 207.1 2.2zm4.4 29.8c12.1 24 17.7 35.6 19.4 40.2 1.9 5.4 1.9 5.8.3 5.9-.9 0-2.4.2-3.2.4-.8.2-2.6.5-4 .8-1.4.3-4.5 1-7 1.7s-4.9 1.3-5.5 1.5c-.5.1-1.7.4-2.5.7-8.8 3-12.2 4-12.6 3.5-.7-.7-.7-13.4 0-18.2.4-2.2.9-5.6 1.2-7.5 1.3-8.9 10-31 12.2-31 .4 0 1.2.9 1.7 2zm-122 99.4c9.6 1.2 25.8 6 28.7 8.5.4.3-1.8 3.8-4.8 7.6-3.1 3.9-6.1 7.7-6.7 8.5-.7.8-3.2 4.5-5.7 8.2l-4.5 6.7-4.4-4.2c-12.3-11.9-16.1-16-25.7-27.2-5.3-6.3-7.3-9.2-5.8-8.3.5.3 2.9.3 5.4-.1 5.2-.8 16.2-.6 23.5.3z"/><path d="M375.7 120.6c-.1.1-4.2.5-9.2.8-10.5.8-12.7 1.1-17.5 2-1.9.3-4.6.8-6 1-1.4.3-6.1 1.4-10.5 2.6-4.4 1.2-8.7 2.3-9.5 2.5-3.4.8-20 7.5-27 10.9l-7.5 3.7-.1 51.7c0 28.4-.3 53.9-.6 56.7-1.4 12-10.5 24.1-22.5 29.7-5.4 2.6-7.8 3.1-14.6 3.2-4.5 0-9.5-.2-11.2-.6-3-.8-30.6-11.1-38-14.3-2.2-.9-4.7-1.8-5.5-2-.8-.2-8.4-3.1-16.8-6.4-8.4-3.4-15.5-6.1-15.8-6.1-.3 0-2.2-.7-4.2-1.6-4.6-2-6.1-2.6-14.5-5.8-3.9-1.5-7.4-2.3-8.1-1.9-.8.5-4.2 3.3-7.6 6.3-3.5 3-7.1 6.2-8 7-20.9 18.2-55.4 53.1-72 73-2.5 3-5.5 6.5-6.8 7.9-5.2 5.7-6.8 10.2-6.3 17.6.2 3.5 5.3 10.4 9 12.1 4.5 2.1 9.9 2.6 13.6 1.2 1.7-.6 6.4-3.5 10.5-6.3 15.6-10.7 45.6-29 48.5-29.5.6-.1 2.1-1 3.5-2 4.4-3 28.8-14.5 30.3-14.2.4.1.7-.2.7-.7 0-.5 1-1.2 2.3-1.6 1.2-.4 2.7-.9 3.2-1 .6-.2 4.8-2 9.5-4 4.7-2.1 10.3-3.8 12.6-4 7.8-.6 16.5 5.7 17.8 12.9.3 1.6.7 3 1 3.3 1.3 1.3-6.2 17.5-9.3 20.3-.6.5-1.2 1.5-5.3 8.9-1.1 2-2.4 4-2.8 4.6-.4.5-3.3 5.9-6.5 12-3.2 6-6.1 11.4-6.6 12-.4.5-1.5 3-2.5 5.5s-2.4 5.6-3.3 6.9c-.8 1.3-1.6 2.9-1.7 3.5-.1.6-1.6 4.2-3.4 8.1-4.5 9.8-8.5 19.9-13.7 34.5-5.9 16.8-5.7 15.8-5.7 21.5-.1 6.1 1.8 9.9 6.6 13.8 2.9 2.4 4.8 3 9.5 3.2 7.6.4 11.3-1.6 17-9.1 1.3-1.6 6.1-8 10.8-14.2 8.3-10.9 11.3-14.7 14.5-18.2.8-.9 4.4-5 7.9-9.1 6.6-7.5 36.2-37.4 43.6-43.9 7.2-6.4 20.8-17.6 30.1-24.8 11.1-8.5 36.8-26.2 38.2-26.2.6 0 1.2-.4 1.4-.8.3-.8 10.9-7.3 23.3-14.2 40.7-22.9 91.9-42.2 139.2-52.3 12.1-2.6 14.7-2.3 18.8 2.3 2.9 3.2 2.6 10.2-.5 13.5-2.2 2.3-9.5 5.2-15.3 6-4.8.7-28.5 8.7-39 13.2-20.2 8.7-62.1 32.1-63.5 35.5-.2.4-.8.8-1.4.8-1.1 0-14.8 10-21.5 15.7-1.1 1-4.1 3.4-6.5 5.3-7.5 6-30.2 29.1-37.7 38.4-9.9 12.2-20.7 28.9-27.9 42.8-3.3 6.5-5.8 11.8-5.6 11.8.3 0-.3 1.4-1.1 3-3.4 6.5-10 29.4-11.9 41-2 12.6-2.7 35.9-1.3 48.1 2.1 19.1 6.5 37.3 12.3 51.4 3.1 7.4 5 9.7 10 12.2 8 4 17.7.7 23-8 15-24.2 30.6-37.4 64.1-54.1 6.2-3.1 11.9-5.6 12.6-5.6.8 0 2-.7 2.7-1.5.7-.8 1.8-1.5 2.5-1.5s4.2-1.3 7.7-2.8c3.4-1.6 7.9-3.5 9.8-4.3 5.7-2.3 35.6-17.5 40.2-20.4 2.4-1.5 8.4-5.2 13.3-8.3 5-3 11.7-7.5 15-9.9 3.3-2.3 7.1-5.1 8.5-6 10.6-7.7 33.4-28.8 41.1-38.3 1.9-2.3 3.9-4.7 4.4-5.4 7.4-8.3 25.8-37.6 23.8-37.6-.5 0-.3-.4.4-.8 3-1.9 13.5-32.2 16.3-47.2 3-15.6 3.3-19.5 3.3-39.5.1-20.9-.2-24.4-3.3-39.6-4-19.4-12.3-42-21-56.5-2.8-4.8-10.2-16.5-11.2-17.9-26.8-35.6-57.9-58.5-97.2-71.7-4.9-1.6-9.6-3.1-10.5-3.3-.9-.2-3.4-.8-5.6-1.3-2.2-.6-5.3-1.4-7-1.7-1.6-.3-4.1-.8-5.5-1.1-6.7-1.4-38.3-3.6-39.3-2.8zm-72.5 344.7c6.6 10.5 19.3 22.9 31.3 30.9 11.2 7.4 29.8 15.7 38.5 17.2 1.4.2 3.2.7 4 1 .8.3 3 .7 4.8 1 4.6.6 4.8 1.1 1 2.6-11 4.4-40.8 19.9-46.3 24.2-.5.4-4.4 3.3-8.5 6.3-9.5 7.1-26 23-26 25.1 0 .3-.6 1.1-1.2 1.8-.7.8-2 2.3-2.8 3.5-2.7 3.9-2.7 3.8-6.8-13-4-16.4-4.7-22.5-4.6-41.4 0-8.8.4-18.3.8-21 1.3-8.6 4.6-22.5 6.2-26.3.8-2 1.5-3.9 1.4-4.2-.1-1.1 4.3-12 4.9-12 .3 0 1.8 1.9 3.3 4.3z"/></svg>