<svg xmlns="http://www.w3.org/2000/svg" viewBox="0 0 50 50"><path d="M37.97 2.28c-.53.096-.89.508-1.064.845l-7 13.875c-.897-1.205-2.29-2-3.906-2-2.027 0-3.72 1.255-4.5 3-.608 0-1.163.156-1.72.313C19.056 17.56 18.125 17 17 17c-.506 0-.944.176-1.375.344C15.112 17.162 14.582 17 14 17c-2.46 0-4.406 1.84-4.813 4.188C6.84 21.593 5 23.54 5 26H3c-.552 0-1 .447-1 1v3.625C2 40.533 12.64 48 19.53 48h10.94C37.36 48 48 40.533 48 30.625V27c0-.553-.447-1-1-1h-1.156c-.3-.987-1.017-1.786-1.907-2.313-.152-1.864-1.57-3.338-3.406-3.593-.284-.67-.697-1.26-1.218-1.75l6.876-9.688c.347-.5.557-1.395-.563-2.187-1.12-.794-1.89-.138-2.22.374l-6.468 10.25C36.633 17.032 36.325 17 36 17c-1.324 0-2.455.6-3.344 1.438-.203-.077-.42-.147-.625-.22l7.814-13.562c.3-.53.438-1.44-.75-2.125-.446-.256-.807-.306-1.125-.25zM26 17c1.453 0 2.65 1.02 2.938 2.375l.218 1.063 1.032-.313c.292-.083.555-.125.812-.125.507 0 .995.135 1.438.375l.718.406.532-.655C34.243 19.435 35.056 19 36 19c1.41 0 2.575.95 2.906 2.25l.188.813.812-.063c.192-.008.217 0 .094 0 1.117 0 2 .883 2 2 0-.092-.02-.048-.03.125l-.032.75.718.25c.452.157.824.476 1.063.875H27c0-.552-.448-1-1-1s-1 .448-1 1H7c0-1.668 1.332-3 3-3h1v-1c0-1.668 1.332-3 3-3 .43 0 .84.08 1.22.25l.436.22.438-.22c.295-.154.585-.25.906-.25.71 0 1.33.353 1.688.906l.437.688.75-.282c.508-.197 1.053-.312 1.625-.312.166 0 .324.01.5.03l.875.095.22-.844C23.418 17.973 24.584 17 26 17zm-11 4c-.552 0-1 .448-1 1s.448 1 1 1 1-.448 1-1-.448-1-1-1zm3 2c-.552 0-1 .448-1 1s.448 1 1 1 1-.448 1-1-.448-1-1-1zm15 0c-.552 0-1 .448-1 1s.448 1 1 1 1-.448 1-1-.448-1-1-1z"/></svg>