<svg xmlns="http://www.w3.org/2000/svg" width="50" height="50" viewBox="0 0 50 50"><path d="M 5 3 C 3.841 3 3 3.841 3 5 L 3 21 C 3 22.159 3.841 23 5 23 L 21 23 C 22.159 23 23 22.159 23 21 L 23 5 C 23 3.841 22.159 3 21 3 L 5 3 z M 29 3 C 28.477778 3 27.939531 3.1854695 27.5625 3.5625 C 27.185469 3.9395305 27 4.4777778 27 5 L 27 21 C 27 21.522222 27.185469 22.060469 27.5625 22.4375 C 27.939531 22.814531 28.477778 23 29 23 L 45 23 C 45.522222 23 46.060469 22.814531 46.4375 22.4375 C 46.814531 22.060469 47 21.522222 47 21 L 47 5 C 47 4.4777778 46.814531 3.9395305 46.4375 3.5625 C 46.060469 3.1854695 45.522222 3 45 3 L 29 3 z M 29 5 L 45 5 L 45 21 L 29 21 L 29 5 z M 5 27 C 3.841 27 3 27.841 3 29 L 3 45 C 3 46.159 3.841 47 5 47 L 21 47 C 22.159 47 23 46.159 23 45 L 23 29 C 23 27.841 22.159 27 21 27 L 5 27 z M 29 27 C 28.855125 27 28.727666 27.00599 28.59375 27.03125 C 28.449907 27.057049 28.32323 27.101611 28.1875 27.15625 C 28.135236 27.177289 28.081537 27.193408 28.03125 27.21875 C 27.738807 27.367326 27.490442 27.573276 27.3125 27.84375 C 27.308119 27.850502 27.316793 27.868193 27.3125 27.875 C 27.279837 27.926337 27.246633 27.976368 27.21875 28.03125 C 27.193408 28.081537 27.177289 28.135236 27.15625 28.1875 C 27.101611 28.32323 27.057049 28.449907 27.03125 28.59375 C 27.007971 28.723539 27 28.869445 27 29 L 27 34 L 27 40 L 27 45 C 27 45.130555 27.007971 45.276461 27.03125 45.40625 C 27.057049 45.550093 27.101611 45.67677 27.15625 45.8125 C 27.200212 45.921708 27.249716 46.025448 27.3125 46.125 C 27.453885 46.347215 27.624035 46.542952 27.84375 46.6875 C 27.850502 46.691881 27.868193 46.683207 27.875 46.6875 C 27.926337 46.720163 27.976368 46.753367 28.03125 46.78125 C 28.081537 46.806592 28.135236 46.822711 28.1875 46.84375 C 28.32323 46.898389 28.449907 46.942951 28.59375 46.96875 C 28.723539 46.992029 28.869445 47 29 47 L 34 47 L 40 47 L 45 47 C 45.144875 47 45.272334 46.99401 45.40625 46.96875 C 45.550093 46.942951 45.67677 46.898389 45.8125 46.84375 C 45.866332 46.822168 45.917788 46.807141 45.96875 46.78125 C 46.141376 46.694256 46.299415 46.575585 46.4375 46.4375 C 46.53297 46.34203 46.614241 46.240141 46.6875 46.125 C 46.720237 46.073091 46.753639 46.02354 46.78125 45.96875 C 46.807141 45.917788 46.822168 45.866332 46.84375 45.8125 C 46.898389 45.67677 46.942951 45.550093 46.96875 45.40625 C 46.99401 45.272334 47 45.144875 47 45 L 47 40 L 47 34 L 47 29 C 47 28.855125 46.99401 28.727666 46.96875 28.59375 C 46.942951 28.449907 46.898389 28.32323 46.84375 28.1875 C 46.822168 28.133668 46.807141 28.082212 46.78125 28.03125 C 46.750018 27.969275 46.725292 27.901992 46.6875 27.84375 C 46.542952 27.624035 46.347215 27.453885 46.125 27.3125 C 46.073091 27.279763 46.02354 27.246361 45.96875 27.21875 C 45.917788 27.192859 45.866332 27.177832 45.8125 27.15625 C 45.67677 27.101611 45.550093 27.057049 45.40625 27.03125 C 45.272334 27.00599 45.144875 27 45 27 L 40 27 L 34 27 L 29 27 z M 31.5625 29 L 34.4375 29 L 29 34.4375 L 29 31.5625 L 31.5625 29 z M 37.5625 29 L 40.4375 29 L 29 40.4375 L 29 37.5625 L 37.5625 29 z M 43.5625 29 L 45 29 L 45 30.4375 L 30.4375 45 L 29 45 L 29 43.5625 L 43.5625 29 z M 9 31 C 10.104 31 11 31.896 11 33 C 11 34.104 10.104 35 9 35 C 7.896 35 7 34.104 7 33 C 7 31.896 7.896 31 9 31 z M 17 31 C 18.104 31 19 31.896 19 33 C 19 34.104 18.104 35 17 35 C 15.896 35 15 34.104 15 33 C 15 31.896 15.896 31 17 31 z M 45 33.5625 L 45 36.4375 L 36.4375 45 L 33.5625 45 L 45 33.5625 z M 9 39 C 10.104 39 11 39.896 11 41 C 11 42.104 10.104 43 9 43 C 7.896 43 7 42.104 7 41 C 7 39.896 7.896 39 9 39 z M 17 39 C 18.104 39 19 39.896 19 41 C 19 42.104 18.104 43 17 43 C 15.896 43 15 42.104 15 41 C 15 39.896 15.896 39 17 39 z M 45 39.5625 L 45 42.4375 L 42.4375 45 L 39.5625 45 L 45 39.5625 z"/></svg>