<svg xmlns="http://www.w3.org/2000/svg" width="50" height="50" viewBox="0 0 50 50"><path d="M5 3c-1.16 0-2 .84-2 2v16c0 1.16.84 2 2 2h16c1.16 0 2-.84 2-2V5c0-1.16-.84-2-2-2H5zm24 0c-.522 0-1.06.185-1.438.563C27.186 3.94 27 4.478 27 5v16c0 .522.185 1.06.563 1.438.377.377.915.562 1.437.562h16c.522 0 1.06-.185 1.438-.563.377-.377.562-.915.562-1.437V5c0-.522-.185-1.06-.563-1.438C46.06 3.186 45.523 3 45 3H29zm0 2h16v16H29V5zM5 27c-1.16 0-2 .84-2 2v16c0 1.16.84 2 2 2h16c1.16 0 2-.84 2-2V29c0-1.16-.84-2-2-2H5zm24 0c-.145 0-.272.006-.406.03-.144.027-.27.072-.407.126-.052.02-.105.037-.156.063-.29.147-.54.353-.718.624-.004.007.005.024 0 .03-.032.052-.065.102-.093.157-.027.052-.043.105-.064.157-.054.136-.1.263-.125.407-.022.13-.03.275-.03.406v16c0 .13.008.276.03.406.027.144.072.27.126.407.044.11.094.212.157.312.14.222.31.418.53.563.008.004.025-.005.032 0 .05.032.1.065.156.093.052.027.105.043.157.064.136.054.263.1.407.125.13.022.275.03.406.03h16c.145 0 .272-.006.406-.03.144-.027.27-.072.407-.126.053-.022.105-.037.156-.063.17-.086.33-.204.468-.343.095-.095.176-.197.25-.312.032-.052.066-.1.093-.156.027-.052.042-.104.064-.157.054-.136.1-.263.125-.407.024-.134.03-.26.03-.406V29c0-.145-.006-.272-.03-.406-.027-.144-.072-.27-.126-.407-.022-.053-.037-.105-.063-.156-.03-.06-.055-.128-.093-.186-.144-.22-.34-.39-.562-.532-.052-.032-.1-.066-.156-.093-.052-.027-.104-.042-.157-.064-.136-.054-.263-.1-.407-.125-.134-.024-.26-.03-.406-.03H29zm2.563 2h2.875L29 34.438v-2.876L31.563 29zm6 0h2.874L29 40.438v-2.876L37.563 29zm6 0H45v1.438L30.437 45H29v-1.438L43.563 29zM9 31c1.104 0 2 .896 2 2s-.896 2-2 2-2-.896-2-2 .896-2 2-2zm8 0c1.104 0 2 .896 2 2s-.896 2-2 2-2-.896-2-2 .896-2 2-2zm28 2.563v2.874L36.437 45h-2.874L45 33.562zM9 39c1.104 0 2 .896 2 2s-.896 2-2 2-2-.896-2-2 .896-2 2-2zm8 0c1.104 0 2 .896 2 2s-.896 2-2 2-2-.896-2-2 .896-2 2-2zm28 .563v2.874L42.437 45h-2.874L45 39.562z"/></svg>