<svg xmlns="http://www.w3.org/2000/svg" version="1" viewBox="0 0 24 24"><path d="M 17.4375 2.15625 L 11.09375 6.4375 L 7.6875 3.28125 L 6.3125 4.71875 L 8.78125 7 L 4 7 C 2.9 7 2 7.9 2 9 L 2 20 C 2 21.1 2.9 22 4 22 L 20 22 C 21.1 22 22 21.1 22 20 L 22 9 C 22 7.9 21.1 7 20 7 L 13.84375 7 L 18.5625 3.84375 L 17.4375 2.15625 z M 8.25 9 C 8.7695312 8.9867187 9.35 9 10 9 C 15.3 9 16 9 16 14.5 C 16 20 15.2 20 10 20 C 4.8 20 4 19.9 4 14.5 C 4 9.775 4.6132812 9.0929688 8.25 9 z M 19 13 C 19.6 13 20 13.4 20 14 C 20 14.6 19.6 15 19 15 C 18.4 15 18 14.6 18 14 C 18 13.4 18.4 13 19 13 z M 19 17 C 19.6 17 20 17.4 20 18 C 20 18.6 19.6 19 19 19 C 18.4 19 18 18.6 18 18 C 18 17.4 18.4 17 19 17 z"/></svg>