<svg xmlns="http://www.w3.org/2000/svg" viewBox="0 0 50 50"><path d="M46,25c0-3.054-1.736-5.72-4.269-7.067c0.692-2.637,0.017-5.568-2.04-7.625c-1.537-1.537-3.561-2.302-5.587-2.302	c-0.685,0-1.371,0.088-2.038,0.263C30.72,5.736,28.054,4,25,4s-5.72,1.736-7.067,4.269c-0.667-0.175-1.352-0.263-2.038-0.263	c-2.026,0-4.05,0.765-5.587,2.302c-2.057,2.057-2.732,4.987-2.04,7.625C5.736,19.28,4,21.946,4,25s1.736,5.72,4.269,7.067	c-0.692,2.637-0.017,5.568,2.04,7.625c1.537,1.537,3.561,2.302,5.587,2.302c0.686,0,1.371-0.088,2.038-0.263	C19.28,44.264,21.946,46,25,46s5.72-1.736,7.067-4.269c0.667,0.175,1.352,0.263,2.038,0.263c2.026,0,4.05-0.765,5.587-2.302	c2.057-2.057,2.732-4.987,2.04-7.625C44.264,30.72,46,28.054,46,25z M22,32.414l-6.707-6.707l1.414-1.414L22,29.586l11.293-11.293	l1.414,1.414L22,32.414z"/></svg>