<svg xmlns="http://www.w3.org/2000/svg" viewBox="0 0 50 50"><path d="M46 25c0-3.054-1.736-5.72-4.27-7.067.693-2.637.018-5.568-2.04-7.625-1.536-1.537-3.56-2.302-5.586-2.302-.685 0-1.37.088-2.038.263C30.72 5.735 28.054 4 25 4s-5.72 1.736-7.067 4.27c-.667-.176-1.352-.264-2.038-.264-2.026 0-4.05.765-5.587 2.302-2.057 2.057-2.732 4.987-2.04 7.625C5.736 19.28 4 21.946 4 25s1.736 5.72 4.27 7.067c-.693 2.637-.018 5.568 2.04 7.625 1.536 1.537 3.56 2.302 5.586 2.302.686 0 1.37-.088 2.038-.263C19.28 44.265 21.946 46 25 46s5.72-1.736 7.067-4.27c.667.176 1.352.264 2.038.264 2.026 0 4.05-.765 5.587-2.302 2.057-2.057 2.732-4.987 2.04-7.625C44.264 30.72 46 28.054 46 25zm-24 7.414l-6.707-6.707 1.414-1.414L22 29.586l11.293-11.293 1.414 1.414L22 32.414z"/></svg>