<svg width="257" height="324" viewBox="0 0 257 324" fill="none" xmlns="http://www.w3.org/2000/svg">
<path fill-rule="evenodd" clip-rule="evenodd" d="M131.537 317.174C131.537 320.613 112.211 323.399 88.3686 323.399C64.5286 323.399 45.2002 320.613 45.2002 317.174C45.2002 313.735 64.5286 310.952 88.3686 310.952C112.211 310.952 131.537 313.735 131.537 317.174Z" fill="#D9CFD3"/>
<path fill-rule="evenodd" clip-rule="evenodd" d="M156.192 68.636C123.014 74.9604 65.3467 85.7749 58.6698 87.0479C43.3058 89.7649 47.2015 101.437 50.2906 105.564C52.5603 108.6 85.665 152.853 104.194 177.625C110.848 186.518 123.037 190.894 134.699 188.45C170.371 180.967 243.053 165.731 245.28 165.262C248.807 164.522 252.975 159.655 247.664 153.284C231.524 133.931 189.623 84.035 184.137 77.458C177.269 69.2228 168.383 66.3323 156.192 68.636Z" fill="#CAE8FF"/>
<path fill-rule="evenodd" clip-rule="evenodd" d="M95.2511 302.523C100.162 275.615 110.124 221.025 111.142 215.451C113.462 202.746 111.343 187.181 104.195 177.625C86.709 154.251 54.4466 111.12 51.1056 106.656C45.7213 98.5405 37.393 99.265 36.1945 110.699C35.3243 116.452 28.51 162.215 24.3573 189.664C21.8051 205.79 24.085 217.415 32.5813 229.975C34.9222 233.437 65.5205 278.679 81.2026 301.867C85.9711 308.916 93.6811 311.123 95.2511 302.523Z" fill="#88D6FF"/>
<path fill-rule="evenodd" clip-rule="evenodd" d="M95.2511 302.523C100.455 274.016 111.628 212.793 112.483 208.096C113.926 200.2 121.381 191.278 134.707 188.485C141.361 187.089 211.741 172.31 240.568 166.256C254.382 163.055 253.449 172.527 252.492 176.369C251.723 179.459 235.998 242.521 229.431 268.862C227.102 278.195 219.428 285.2 209.209 287.866C180.417 295.382 115.256 312.289 110.205 313.608C99.4038 316.046 93.7218 310.896 95.2511 302.523Z" fill="#A8DBFF"/>
<path fill-rule="evenodd" clip-rule="evenodd" d="M95.205 302.782C100.409 274.272 111.582 213.051 112.437 208.352C113.879 200.456 121.335 191.537 134.661 188.741C141.315 187.346 211.692 172.567 240.519 166.513C254.336 163.311 253.405 172.784 252.446 176.628C251.675 179.718 235.952 242.778 229.382 269.119C227.089 286.439 210.7 291.587 210.7 291.587C210.7 291.587 115.21 312.545 110.159 313.864C99.3577 316.303 93.6757 311.152 95.205 302.782Z" fill="#A8DBFF"/>
<path fill-rule="evenodd" clip-rule="evenodd" d="M114.73 193.874C85.7752 199.354 50.1829 206.149 45.3254 207.075C31.4906 209.524 34.997 220.035 37.7782 223.752C39.8241 226.487 70.173 271.538 86.8602 293.848C89.3894 297.229 92.1783 299.836 95.3182 301.624L114.73 193.874Z" fill="#ADE0FF"/>
<path fill-rule="evenodd" clip-rule="evenodd" d="M215.082 268.792C200.548 251.362 163.262 204.364 158.321 198.44C152.138 191.024 144.135 188.419 133.155 190.496C127.817 191.511 121.771 192.657 115.415 193.861L95.4998 301.46C99.3704 305.581 105.722 306.353 110.967 305.253C143.097 298.516 206.601 284.737 211.054 283.249C215.507 281.762 220.808 275.489 215.082 268.792Z" fill="#CAE8FF"/>
<path fill-rule="evenodd" clip-rule="evenodd" d="M200.803 186.518C200.801 183.577 204.259 181.493 207.106 180.569C213.447 178.51 220.004 176.972 226.664 175.969C231.542 175.237 241.234 172.219 242.903 178.344C243.287 179.748 243.145 181.222 242.954 182.659C241.758 191.672 240.147 200.31 236.666 208.966C233.918 215.806 227.094 213.971 226.101 207.637C224.931 200.198 225.005 189.899 213.144 191.294C211.45 191.483 209.77 191.861 208.065 191.84C205.045 191.805 200.81 190.051 200.803 186.518Z" fill="#DFEEFF"/>
<path fill-rule="evenodd" clip-rule="evenodd" d="M238.679 153.044C235.898 148.337 224.47 135.319 221.811 133.671C219.152 132.028 215.183 131.931 213.318 134.441C211.671 136.658 212.325 139.74 212.203 142.503C212.023 146.526 209.911 150.424 206.636 152.759C203.844 154.751 200.376 155.598 197.531 157.514C195 159.218 192.277 163.23 195.157 165.961C199.646 170.238 210.177 165.773 215.16 164.923C221.88 163.777 228.554 162.341 235.152 160.619C239.239 159.551 240.967 156.913 238.679 153.044Z" fill="white"/>
<path fill-rule="evenodd" clip-rule="evenodd" d="M122.206 154.734L100.498 146.6L128.728 149.233L112.425 143.013L137.394 144.608L133.405 152.731L126.659 152.361L122.206 154.734Z" fill="#88D6FF"/>
<path fill-rule="evenodd" clip-rule="evenodd" d="M119.682 181.235C124.225 183.32 130.713 183.431 135.214 181.155C137.076 180.214 139.771 178.926 139.56 176.415C139.26 172.659 134.372 173.057 131.801 173.298C127.755 173.669 124.452 172.511 120.547 171.818C118.218 171.405 112.489 171.957 114.043 175.688C115.089 178.178 117.234 180.109 119.682 181.235Z" fill="white"/>
<path fill-rule="evenodd" clip-rule="evenodd" d="M193.913 80.824L163.865 67.3717C153.134 62.5652 124.119 55.5112 108.979 48.544C93.9887 41.6456 81.0955 29.9637 66.7925 21.5346C51.7186 12.6463 35.6497 5.28357 18.5605 1.30883C14.6979 0.410818 2.38222 18.0956 1.32623 25.2491C0.109214 33.5134 16.9819 32.8012 22.6038 33.5966C34.1892 35.2395 45.4132 38.6811 56.1563 43.2885C71.9224 50.0492 86.4772 59.2028 101.676 67.0987C117.516 75.3288 133.719 82.8497 150.234 89.6052L183.359 104.525C185.845 105.639 188.73 104.642 189.768 102.308L196.547 87.0897C197.585 84.758 196.402 81.9389 193.913 80.824Z" fill="#FFAF57"/>
<path fill-rule="evenodd" clip-rule="evenodd" d="M185.437 99.8559L181.743 98.2027L160.798 66.188C159.625 65.7058 157.152 64.8435 157.152 64.8435C157.152 64.8435 148.783 83.2477 147.651 82.7706C133.523 76.7754 117.378 69.507 103.757 62.4301C88.5584 54.5342 74.0035 45.3805 58.2349 38.6199C47.4944 34.0125 36.2678 30.5709 24.6824 28.9254C22.1964 28.5733 19.6951 28.2723 17.1862 28.1141C17.1862 28.1141 2.84506 27.0273 6.24713 16.8609C6.35654 16.1236 3.76873 18.9732 4.09444 18.0446C2.64658 20.8152 1.60077 23.3893 1.3285 25.2491C0.272514 32.4027 15.1073 32.7828 15.1073 32.7828C17.6162 32.9435 20.115 33.2445 22.6035 33.5966C34.1889 35.2396 45.4129 38.6811 56.156 43.2885C71.9221 50.0517 86.4769 59.2028 101.678 67.0987C117.515 75.3288 133.719 82.8497 150.233 89.6052L179.661 102.871L183.358 104.525C185.844 105.639 188.73 104.642 189.768 102.308L191.849 97.6389C190.809 99.9707 187.926 100.971 185.437 99.8559Z" fill="#DE8622"/>
<path fill-rule="evenodd" clip-rule="evenodd" d="M188.772 69.0274L169.255 60.2896C166.523 59.065 163.283 60.3075 162.062 63.0474L146.83 97.2511C146.83 97.2511 123.71 119.658 104.86 128.488C104.86 128.488 115.504 142.864 139.413 153.571L158.324 154.066L177.64 144.604C175.652 127.58 176.291 110.438 176.291 110.438L191.525 76.2396C192.747 73.4971 191.507 70.252 188.772 69.0274Z" fill="#995D5C"/>
<path fill-rule="evenodd" clip-rule="evenodd" d="M167.317 64.6424L186.834 73.3827C189.567 74.6048 190.806 77.8524 189.585 80.5924L191.526 76.2401C192.745 73.4976 191.509 70.2525 188.773 69.0279L169.256 60.2901C166.524 59.063 163.284 60.3079 162.063 63.0479L160.124 67.4028C161.343 64.6603 164.582 63.4204 167.317 64.6424Z" fill="#B17372"/>
<path fill-rule="evenodd" clip-rule="evenodd" d="M141.924 153.999C147.311 153.448 152.738 153.879 158.161 154.06C158.578 154.014 159.001 154.011 159.415 153.945C160.209 153.305 161.023 152.695 161.858 152.116C156.405 150.871 150.219 148.978 143.458 145.952C126.669 138.434 116.875 128.816 112.891 124.288C110.443 125.754 108.01 127.076 105.646 128.186C105.646 128.186 116.288 142.564 140.196 153.269C140.784 153.529 141.349 153.761 141.924 153.999Z" fill="white"/>
<path fill-rule="evenodd" clip-rule="evenodd" d="M150.003 153.75C152.697 153.813 155.394 153.966 158.092 154.058C158.54 154.007 158.998 153.997 159.445 153.923C161.295 152.426 163.265 151.104 165.318 149.907C159.326 148.808 152.061 146.818 144.02 143.221C127.997 136.047 118.649 126.863 114.844 122.541C112.509 123.939 110.185 125.202 107.928 126.261C107.928 126.261 118.086 139.986 140.911 150.203C144.081 151.624 147.092 152.755 150.003 153.75Z" fill="#DADCDF"/>
<path fill-rule="evenodd" clip-rule="evenodd" d="M16.1164 0.682583C16.8968 0.2292 17.8759 -0.159777 18.8479 0.0662043C36.1006 4.07896 52.2916 11.5043 67.4375 20.4351C73.2685 23.8714 78.873 27.848 84.4271 31.7888C92.6344 37.612 100.721 43.3403 109.509 47.3846C116.988 50.8264 127.942 54.3076 138.449 57.5489C145.668 59.7756 152.938 61.8742 160.034 64.4708L160.9 62.5262C162.408 59.1435 166.399 57.6121 169.774 59.1243L189.291 67.8623C192.667 69.3764 194.195 73.3722 192.687 76.759L191.9 78.5256L194.432 79.6593C197.488 81.0283 199.065 84.5629 197.709 87.6097L196.525 90.267C203.117 98.1118 209.741 105.955 216.364 113.797L216.372 113.807C226.106 125.334 235.839 136.858 245.469 148.384C248.972 152.577 252.465 156.685 254.452 158.85C256.699 161.629 257.159 164.353 256.297 167.797C249.025 195.179 241.852 223.966 234.667 252.797C232.846 260.106 231.024 267.418 229.199 274.71C227.992 279.553 225.956 283.46 222.826 286.505C219.701 289.544 215.571 291.641 210.313 293.014C190.528 298.177 170.521 302.259 150.515 306.34L150.511 306.341L150.503 306.343C137.441 309.007 124.379 311.672 111.379 314.638C109.457 315.196 103.176 317.016 100.316 317.788C93.9727 319.615 89.8072 317.789 87.6953 314.577C86.501 312.761 85.361 310.894 84.2229 309.03C82.8911 306.848 81.561 304.669 80.1497 302.583L31.5283 230.691C22.8321 217.836 20.5039 205.876 23.1 189.468C25.3108 174.856 27.494 160.239 29.6772 145.623C31.399 134.095 33.1211 122.565 34.8565 111.04C35.0227 109.675 36.1214 100.68 36.563 97.6723C37.3085 94.1721 40.2297 91.3633 43.4435 89.8683C46.4298 88.4791 52.8641 87.0402 58.2592 85.8337L58.4404 85.7932L77.2502 82.2486L77.2557 82.2476L77.2612 82.2465L87.6825 80.2853C96.7447 78.5801 105.807 76.8749 114.869 75.1662C104.886 70.3022 95.0988 65.0936 85.3946 59.6952C75.6271 54.2617 65.927 48.8656 55.656 44.4613C42.7778 38.9382 29.0016 34.9542 15.0479 34.0571C12.5048 33.9631 9.93637 33.6065 7.48356 32.9282C5.62812 32.415 3.66738 31.6367 2.2191 30.4228C0.715303 29.1622 -0.274052 27.3829 0.0676159 25.0628C0.363488 23.0585 1.41257 20.4579 2.79072 17.7795C5.57649 12.3653 9.91702 6.1847 13.5073 2.74273C14.4003 1.88663 15.2851 1.16552 16.1164 0.682583ZM190.862 80.8551C187.69 87.9767 184.518 95.0981 181.346 102.219L183.878 103.36C185.796 104.22 187.886 103.407 188.606 101.788L195.385 86.5698C196.105 84.9531 195.316 82.8496 193.395 81.9888L190.862 80.8551ZM180.308 104.549L177.553 110.733C177.518 111.692 177.402 115.439 177.471 120.746C177.548 126.598 177.848 134.333 178.727 142.321L184.519 139.475C184.911 139.282 185.376 139.305 185.748 139.535L194.152 144.746L199.704 141.477C200.31 141.12 201.09 141.323 201.445 141.931C201.801 142.538 201.598 143.32 200.993 143.677L194.779 147.335C194.372 147.575 193.866 147.569 193.465 147.32L185.007 142.076L160.062 154.333L167.525 160.443C168.007 160.837 168.134 161.522 167.826 162.063L164.956 167.111L176.468 178.398C199.321 173.615 222.173 168.83 245.019 164.013C246.393 163.725 247.949 162.596 248.601 160.921C249.213 159.346 249.119 157.019 246.688 154.102C236.051 141.348 225.372 128.63 214.693 115.912L214.684 115.901L214.625 115.831C208.202 108.181 201.778 100.531 195.364 92.8735L190.93 102.827C189.574 105.877 185.893 107.058 182.839 105.689L180.308 104.549ZM173.802 181.579L168.162 193.594C167.982 193.978 168.004 194.426 168.221 194.79L172.596 202.153L170.638 211.254L165.835 214.353C165.244 214.735 165.073 215.524 165.454 216.116C165.834 216.709 166.621 216.88 167.212 216.499L169.881 214.777L168.07 223.197C167.922 223.885 168.359 224.564 169.045 224.713C169.732 224.861 170.409 224.423 170.557 223.735L174.562 205.115L177.133 208.917C177.528 209.5 178.319 209.652 178.9 209.257C179.482 208.861 179.634 208.068 179.239 207.485L175.017 201.243L170.753 194.067L176.922 180.924L189.063 178.372C206.633 174.679 224.202 170.987 241.773 167.301C245.963 166.467 248.331 166.961 249.707 167.915C252.25 169.677 251.912 173.432 251.257 176.061C246.845 193.799 242.399 211.528 237.952 229.258C234.205 244.201 230.457 259.144 226.731 274.092C225.612 278.581 223.772 282.03 221.054 284.674C218.329 287.323 214.636 289.249 209.672 290.545C188.862 295.976 167.8 300.314 146.742 304.651L146.724 304.655L146.692 304.662L146.687 304.663C140.446 305.948 134.206 307.233 127.973 308.547C118.345 310.54 113.846 311.481 109.906 312.368C104.385 313.61 101.046 312.813 98.8896 311.116C96.2495 309.039 95.9884 305.57 96.5508 302.488C102.281 271.097 106.776 246.42 112.491 215.027C115.443 202.829 122.08 192.435 134.967 189.733C147.913 187.019 160.858 184.3 173.802 181.579ZM173.469 179.026C160.458 181.749 147.448 184.472 134.438 187.201C123.275 189.541 111.659 185.366 105.304 176.981L105.213 176.859L92.2515 159.533C78.8786 141.657 65.5057 123.781 52.1346 105.904C49.7381 102.313 47.2934 97.5636 49.7073 93.3719C51.5438 90.1828 55.4923 88.9051 58.8908 88.3041L58.9075 88.301C60.986 87.9047 68.0107 86.5829 77.7025 84.7592L77.7131 84.7572L77.7418 84.7518L77.7473 84.7508C89.0078 82.6319 103.859 79.8373 118.731 77.0308C128.542 81.7243 138.482 86.1474 148.537 90.2874L145.77 96.5023C141.384 100.708 136.793 104.71 132.106 108.572C128.427 111.604 124.282 114.848 119.986 117.893L117.173 113.453L120.781 105.509C121.072 104.868 120.79 104.111 120.15 103.82C119.511 103.528 118.756 103.811 118.465 104.452L115.545 110.882L109.001 100.552C108.805 100.243 108.487 100.033 108.126 99.9758L92.0824 97.4348C91.3883 97.3249 90.7368 97.7999 90.6272 98.4958C90.5175 99.1916 90.9913 99.8448 91.6853 99.9548L107.161 102.406L117.894 119.351C113.36 122.457 108.715 125.273 104.322 127.331C103.975 127.494 103.72 127.803 103.627 128.174C103.533 128.546 103.611 128.94 103.838 129.247C106.166 132.369 109.091 135.115 111.994 137.677C116.589 141.73 123.2 146.713 132.008 151.376L125.984 151.046C125.665 151.029 125.351 151.132 125.104 151.337L117.31 157.799C116.769 158.248 116.693 159.052 117.141 159.595C117.588 160.138 118.39 160.214 118.932 159.765L126.342 153.621L157.236 155.313L165.082 161.737C163.012 165.379 161.058 169.027 159.137 172.752C158.814 173.378 159.058 174.147 159.682 174.471C160.307 174.794 161.074 174.55 161.397 173.924L163.704 169.452L173.469 179.026ZM138.45 151.729C127.16 146.482 119.003 140.461 113.675 135.761C110.284 132.77 108.039 130.314 106.863 128.934C116.044 124.359 125.983 116.921 133.722 110.543C138.522 106.587 143.22 102.483 147.709 98.1723C147.828 98.0577 147.925 97.9213 147.992 97.7704L163.223 63.5672C164.158 61.47 166.645 60.5165 168.736 61.4534L188.252 70.191C190.348 71.1311 191.298 73.6205 190.363 75.7188L175.129 109.918C175.063 110.065 175.026 110.224 175.019 110.385L175.019 110.388C174.877 113.848 174.882 117.318 174.927 120.779C175.007 126.903 175.33 135.093 176.3 143.513L157.46 152.77L138.45 151.729ZM149.575 87.9568L158.994 66.8054C151.991 64.2552 144.822 62.1838 137.701 59.9873C127.233 56.7583 116.109 53.2288 108.448 49.7032C99.4095 45.5437 91.1529 39.686 83.023 33.9182L82.9197 33.8449C77.3721 29.9091 71.8769 26.0106 66.1478 22.6343C51.1459 13.7884 35.1988 6.48817 18.2731 2.55144C17.3352 2.66107 15.9262 3.95355 15.2659 4.58663C11.9989 7.71866 7.72008 13.7638 5.05211 18.9491C3.70349 21.5701 2.8171 23.863 2.58488 25.4354C2.3958 27.5882 3.45041 28.4724 6.19273 29.8093C8.79598 30.8019 12.2218 31.3197 15.1887 31.5098C29.5149 32.4275 43.5866 36.5103 56.6566 42.1157C67.0371 46.5669 76.9498 52.0795 86.7971 57.5558C107.145 68.8715 128.041 79.0938 149.575 87.9568ZM87.4392 157.351L103.177 178.391L103.268 178.512C110.031 187.662 112.137 202.642 109.925 215.027L94.0446 302.047C93.7163 303.846 93.0471 306.155 91.0653 306.715C88.7809 307.361 85.0925 305.345 82.2555 301.151L33.6342 229.259C25.3386 216.996 23.1067 205.705 25.6138 189.864L25.6151 189.855C27.6115 176.66 29.5811 163.46 31.5507 150.261C33.5091 137.137 35.4678 124.011 37.4524 110.891C37.4553 110.871 37.4578 110.852 37.4598 110.833C38.0366 105.33 40.2459 103.025 42.3355 102.596C45.7085 101.904 48.308 104.989 50.0879 107.421C62.541 124.062 74.9901 140.706 87.4392 157.351Z" fill="#641340"/>
<path d="M190.583 36.8395C191.232 37.1103 191.539 37.8571 191.268 38.5074L184.508 54.7839C184.237 55.4343 183.493 55.7419 182.844 55.4711C182.195 55.2003 181.888 54.4535 182.159 53.8031L188.919 37.5266C189.19 36.8763 189.934 36.5686 190.583 36.8395Z" fill="#641340"/>
<path d="M195.948 46.5298C196.218 45.8795 195.911 45.1327 195.263 44.8617C194.614 44.5908 193.869 44.8983 193.599 45.5486L187.874 59.325C187.603 59.9753 187.91 60.7221 188.559 60.9931C189.207 61.264 189.952 60.9565 190.222 60.3062L195.948 46.5298Z" fill="#641340"/>
<path d="M181.608 39.159C182.256 39.4298 182.563 40.1766 182.293 40.8269L176.57 54.6058C176.3 55.2562 175.555 55.5639 174.907 55.2931C174.258 55.0223 173.951 54.2755 174.221 53.6252L179.944 39.8462C180.214 39.1959 180.959 38.8882 181.608 39.159Z" fill="#641340"/>
<path fill-rule="evenodd" clip-rule="evenodd" d="M141.059 116.36C141.585 118.323 142.562 120.335 143.975 121.798C144.315 122.151 144.424 122.669 144.254 123.129C144.084 123.589 143.665 123.911 143.177 123.956C140.54 124.197 137.718 123.729 135.252 122.819C134.593 122.575 134.255 121.842 134.498 121.181C134.741 120.52 135.472 120.181 136.131 120.425C137.699 121.004 139.244 121.264 140.478 121.373C139.654 120.014 138.992 118.537 138.594 116.995C138.42 116.312 138.83 115.617 139.51 115.442C140.19 115.267 140.884 115.679 141.059 116.36Z" fill="#641340"/>
<path fill-rule="evenodd" clip-rule="evenodd" d="M167.886 129.284C168.168 129.929 167.876 130.682 167.233 130.965C165.755 131.557 164.216 131.992 162.633 132.182C163.481 133.088 164.64 134.148 166.063 135.029C166.661 135.399 166.847 136.185 166.478 136.784C166.109 137.383 165.325 137.57 164.727 137.2C162.543 135.848 160.299 133.882 158.94 131.645C158.685 131.226 158.668 130.704 158.924 130.285C159.181 129.867 159.654 129.633 160.141 129.684C162.161 129.897 164.343 129.427 166.207 128.63M167.886 129.284C167.603 128.639 166.851 128.347 166.207 128.63Z" fill="#641340"/>
<path fill-rule="evenodd" clip-rule="evenodd" d="M153.419 137.294C151.913 140.396 150.157 136.86 146.691 135.171C143.231 133.482 139.371 134.276 140.877 131.176C142.383 128.074 146.409 126.931 149.872 128.62C153.338 130.309 154.923 134.189 153.419 137.294Z" fill="white"/>
<path fill-rule="evenodd" clip-rule="evenodd" d="M137.304 256.198C133.152 257.022 130.004 259.775 130.274 262.349C130.546 264.92 134.129 266.324 138.282 265.482C142.432 264.642 145.579 261.884 145.31 259.331C145.042 256.777 141.46 255.371 137.304 256.198Z" fill="#88D6FF"/>
<path fill-rule="evenodd" clip-rule="evenodd" d="M218.092 238.833C213.939 239.657 210.791 242.409 211.061 244.984C211.333 247.558 214.916 248.961 219.069 248.119C223.222 247.277 226.367 244.522 226.097 241.968C225.83 239.412 222.247 238.009 218.092 238.833Z" fill="#7DC9EA"/>
<path fill-rule="evenodd" clip-rule="evenodd" d="M162.33 246.835C161.137 251.512 156.556 256.053 152.106 256.976C147.653 257.897 145.03 254.854 146.243 250.175C147.457 245.496 152.035 240.955 156.467 240.034C160.9 239.113 163.526 242.159 162.33 246.835Z" fill="#641340"/>
<path fill-rule="evenodd" clip-rule="evenodd" d="M155.787 245.851C155.362 247.502 153.747 249.104 152.179 249.43C150.612 249.757 149.685 248.68 150.113 247.03C150.538 245.379 152.154 243.779 153.721 243.453C155.286 243.126 156.212 244.203 155.787 245.851Z" fill="white"/>
<path fill-rule="evenodd" clip-rule="evenodd" d="M156.635 250.53C156.408 251.41 155.546 252.265 154.708 252.438C153.871 252.612 153.378 252.04 153.604 251.158C153.828 250.277 154.691 249.423 155.528 249.249C156.365 249.078 156.859 249.65 156.635 250.53Z" fill="white"/>
<path fill-rule="evenodd" clip-rule="evenodd" d="M210.784 236.778C209.649 241.451 205.119 245.99 200.666 246.913C196.213 247.834 193.542 244.793 194.697 240.12C195.852 235.443 200.381 230.905 204.814 229.984C209.247 229.063 211.918 232.104 210.784 236.778Z" fill="#641340"/>
<path fill-rule="evenodd" clip-rule="evenodd" d="M204.208 235.796C203.806 237.446 202.208 239.046 200.638 239.373C199.068 239.699 198.127 238.625 198.537 236.974C198.941 235.324 200.542 233.724 202.107 233.4C203.671 233.074 204.613 234.148 204.208 235.796Z" fill="white"/>
<path fill-rule="evenodd" clip-rule="evenodd" d="M205.12 240.472C204.907 241.352 204.052 242.204 203.217 242.378C202.38 242.551 201.876 241.98 202.092 241.1C202.309 240.22 203.158 239.365 203.996 239.191C204.833 239.02 205.337 239.589 205.12 240.472Z" fill="white"/>
<path fill-rule="evenodd" clip-rule="evenodd" d="M185.925 253.313C186.369 250.639 185.814 248.222 184.228 246.613C180.194 242.519 173.542 245.924 170.162 249.131C168.025 251.159 166.276 253.735 165.373 256.447C165.069 257.363 165.895 258.296 166.838 258.1L184.927 254.353C185.442 254.246 185.838 253.833 185.925 253.313Z" fill="#641340"/>
</svg>
