<svg xmlns="http://www.w3.org/2000/svg" xmlns:xlink="http://www.w3.org/1999/xlink" width="10" height="11" version="1.1" viewBox="0 0 10 11"><g fill="none" fill-rule="evenodd" stroke="none" stroke-width="1"><g fill="#686868"><g><g><g><g><g transform="translate(-931.000000, -727.000000) translate(928.000000, 484.000000) translate(0.000000, 35.000000) translate(0.000000, 206.000000) translate(3.000000, 2.000000)"><path id="Shape" d="M5,0.261904762 C5,0.261904762 4.25,1.41428571 4.25,1.83333333 C4.25,2.25238095 4.6,2.61904762 5,2.61904762 C5.4,2.61904762 5.75,2.25238095 5.75,1.83333333 C5.75,1.41428571 5,0.261904762 5,0.261904762 L5,0.261904762 Z M4,3.14285714 L4,4.71428571 L2,4.71428571 C0.9,4.71428571 0,5.65714286 0,6.80952381 C0,7.33225114 0.19496795,7.80009476 0.5,8.16815476 L0.5,11 L9.5,11 L9.5,8.16815476 C9.805032,7.80009476 10,7.33225114 10,6.80952381 C10,5.65714286 9.1,4.71428571 8,4.71428571 L6,4.71428571 L6,3.14285714 L4,3.14285714 L4,3.14285714 Z M2,5.76190476 L8,5.76190476 C8.55,5.76190476 9,6.23333333 9,6.80952381 C9,7.38571429 8.55,7.85714286 8,7.85714286 C6.9,7.85714286 6.5,6.80952381 6.5,6.80952381 C6.5,6.80952381 6,7.85714286 5,7.85714286 C4,7.85714286 3.5,6.80952381 3.5,6.80952381 C3.5,6.80952381 3.1,7.85714286 2,7.85714286 C1.45,7.85714286 1,7.38571429 1,6.80952381 C1,6.23333333 1.45,5.76190476 2,5.76190476 L2,5.76190476 Z"/></g></g></g></g></g></g></g></svg>