<svg xmlns="http://www.w3.org/2000/svg" xmlns:xlink="http://www.w3.org/1999/xlink" width="11" height="11" version="1.1" viewBox="0 0 11 11"><g fill="none" fill-rule="evenodd" stroke="none" stroke-width="1"><g fill="#686868"><g><g><g><g><g><g transform="translate(-931.000000, -749.000000) translate(928.000000, 484.000000) translate(0.000000, 35.000000) translate(0.000000, 227.000000) translate(2.000000, 2.000000)"><path id="Fill-2" d="M4.87499971,5.95833298 L3.79166644,5.95833298 L3.79166644,7.04166624 L4.87499971,7.04166624 L4.87499971,5.95833298 L4.87499971,5.95833298 Z M7.04166624,5.95833298 L5.95833298,5.95833298 L5.95833298,7.04166624 L7.04166624,7.04166624 L7.04166624,5.95833298 L7.04166624,5.95833298 Z M9.20833278,5.95833298 L8.12499951,5.95833298 L8.12499951,7.04166624 L9.20833278,7.04166624 L9.20833278,5.95833298 L9.20833278,5.95833298 Z M10.291666,2.16666654 L9.74999942,2.16666654 L9.74999942,1.08333327 L8.66666615,1.08333327 L8.66666615,2.16666654 L4.33333307,2.16666654 L4.33333307,1.08333327 L3.24999981,1.08333327 L3.24999981,2.16666654 L2.70833317,2.16666654 C2.10708313,2.16666654 1.63041656,2.65416656 1.63041656,3.2499998 L1.6249999,10.8333327 C1.6249999,11.4291661 2.10708313,11.916666 2.70833317,11.916666 L10.291666,11.916666 C10.8874995,11.916666 11.3749993,11.4291661 11.3749993,10.8333327 L11.3749993,3.2499998 C11.3749993,2.65416656 10.8874995,2.16666654 10.291666,2.16666654 L10.291666,2.16666654 Z M10.291666,10.8333327 L2.70833317,10.8333327 L2.70833317,4.87499971 L10.291666,4.87499971 L10.291666,10.8333327 L10.291666,10.8333327 Z"/></g></g></g></g></g></g></g></g></svg>