<svg xmlns="http://www.w3.org/2000/svg" width="26" height="26" viewBox="0 0 26 26"><path d="M13 .188C5.924.188.188 5.924.188 13S5.924 25.813 13 25.813 25.813 20.076 25.813 13 20.076.188 13 .188zm5.78 17.206l-1.388 1.387c-.254.256-.67.256-.924 0L13 15.314 9.533 18.78c-.255.255-.67.255-.925-.002L7.22 17.394c-.253-.256-.253-.67 0-.926L10.688 13 7.22 9.535c-.253-.256-.253-.672 0-.925l1.39-1.39c.254-.256.67-.256.924 0L13 10.69l3.468-3.47c.255-.256.67-.256.924 0l1.388 1.387c.254.255.254.67 0 .927L15.314 13l3.468 3.468c.253.257.253.67 0 .926z"/></svg>