<svg xmlns="http://www.w3.org/2000/svg" width="26" height="26" viewBox="0 0 26 26"><path d="M25.288,20.131L15.234,2.719c-1.229-2.129-3.239-2.129-4.469,0L0.712,20.131 C-0.518,22.262,0.488,24,2.945,24h20.109C25.512,24,26.517,22.262,25.288,20.131z M11.619,7.659C11.98,7.269,12.439,7.073,13,7.073 s1.02,0.193,1.381,0.578C14.74,8.037,14.92,8.52,14.92,9.1c0,0.499-0.75,4.169-1,6.839h-1.807c-0.22-2.67-1.033-6.34-1.033-6.839 C11.08,8.528,11.26,8.048,11.619,7.659z M14.355,20.354c-0.38,0.37-0.832,0.555-1.355,0.555s-0.976-0.185-1.355-0.555 c-0.379-0.369-0.567-0.816-0.567-1.342c0-0.522,0.188-0.975,0.567-1.354c0.38-0.379,0.832-0.568,1.355-0.568 s0.976,0.189,1.355,0.568c0.379,0.379,0.567,0.831,0.567,1.354C14.923,19.538,14.734,19.985,14.355,20.354z"/></svg>