<svg xmlns="http://www.w3.org/2000/svg" xmlns:xlink="http://www.w3.org/1999/xlink" width="10" height="10" version="1.1" viewBox="0 0 10 10"><g fill="none" fill-rule="evenodd" stroke="none" stroke-width="1"><g fill="#686868"><g><g><g><g><g><g><path d="M7.99999988,12.9999999 C9.38124991,12.9999999 10.4999999,11.8812499 10.4999999,10.4999998 C10.4999999,9.11874976 9.38124991,7.99999976 7.99999988,7.99999976 C6.61874982,7.99999976 5.49999982,9.11874976 5.49999982,10.4999998 C5.49999982,11.8812499 6.61874982,12.9999999 7.99999988,12.9999999 L7.99999988,12.9999999 Z M7.99999988,14.2499999 C6.33124979,14.2499999 2.99999976,15.0875 2.99999976,16.75 L2.99999976,18 L13,18 L13,16.75 C13,15.0875 9.66874992,14.2499999 7.99999988,14.2499999 L7.99999988,14.2499999 Z" transform="translate(-931.000000, -687.000000) translate(928.000000, 484.000000) translate(0.000000, 35.000000) translate(0.000000, 160.000000)"/></g></g></g></g></g></g></g></g></svg>