<svg xmlns="http://www.w3.org/2000/svg" width="50" height="50" viewBox="0 0 50 50"><path d="M46.353,35.936h-9.064c0.711-3.026,1.133-6.378,1.199-9.936h10.487C48.827,29.566,47.896,32.933,46.353,35.936z M1.025,26 h10.487c0.067,3.558,0.488,6.909,1.199,9.936H3.647C2.103,32.933,1.172,29.566,1.025,26z M3.647,14.064h9.064 C12,17.091,11.58,20.443,11.513,24H1.025C1.172,20.433,2.103,17.067,3.647,14.064z M26,12.021V1.101 c3.558,0.675,6.708,4.902,8.608,10.921H26z M35.187,14.064c0.764,3.019,1.228,6.391,1.301,9.936H26v-9.936H35.187z M24,1.101v10.921 h-8.608C17.292,6.003,20.442,1.776,24,1.101z M24,14.064V24H13.513c0.074-3.544,0.537-6.917,1.3-9.936H24z M13.513,26H24v9.936 h-9.187C14.05,32.917,13.586,29.545,13.513,26z M24,37.979v10.921c-3.558-0.676-6.708-4.902-8.608-10.921H24z M26,48.899V37.979 h8.608C32.708,43.997,29.558,48.224,26,48.899z M26,35.936V26h10.487c-0.073,3.545-0.537,6.917-1.301,9.936H26z M38.487,24 c-0.066-3.557-0.487-6.909-1.199-9.936h9.064c1.544,3.003,2.475,6.369,2.622,9.936H38.487z M45.172,12.021H36.75 c-1.285-4.378-3.21-7.925-5.549-10.205C37.025,3.376,41.979,7.078,45.172,12.021z M18.799,1.817 c-2.339,2.28-4.264,5.827-5.548,10.205H4.828C8.02,7.078,12.974,3.376,18.799,1.817z M4.828,37.979h8.422 c1.285,4.378,3.21,7.925,5.549,10.205C12.975,46.624,8.02,42.922,4.828,37.979z M31.201,48.184c2.339-2.28,4.264-5.827,5.549-10.205 h8.422C41.979,42.922,37.025,46.624,31.201,48.184z"/></svg>