<svg xmlns="http://www.w3.org/2000/svg" xmlns:svg="http://www.w3.org/2000/svg" id="svg2" width="135.716" height="40.019" version="1.1" viewBox="0 0 135.716 40.019" xml:space="preserve"><metadata id="metadata8"/><defs id="defs6"><linearGradient id="linearGradient50" x1="31.8" x2="15.017" y1="183.29" y2="166.508" gradientTransform="matrix(0.8,0,0,-0.8,0,161.6)" gradientUnits="userSpaceOnUse" spreadMethod="pad"><stop style="stop-opacity:1;stop-color:#00a0ff" id="stop52" offset="0"/><stop style="stop-opacity:1;stop-color:#00a1ff" id="stop54" offset=".007"/><stop style="stop-opacity:1;stop-color:#00beff" id="stop56" offset=".26"/><stop style="stop-opacity:1;stop-color:#00d2ff" id="stop58" offset=".512"/><stop style="stop-opacity:1;stop-color:#00dfff" id="stop60" offset=".76"/><stop style="stop-opacity:1;stop-color:#00e3ff" id="stop62" offset="1"/></linearGradient><linearGradient id="linearGradient68" x1="43.834" x2="19.638" y1="171.999" y2="171.999" gradientTransform="matrix(0.8,0,0,-0.8,0,161.6)" gradientUnits="userSpaceOnUse" spreadMethod="pad"><stop style="stop-opacity:1;stop-color:#ffe000" id="stop70" offset="0"/><stop style="stop-opacity:1;stop-color:#ffbd00" id="stop72" offset=".409"/><stop style="stop-opacity:1;stop-color:orange" id="stop74" offset=".775"/><stop style="stop-opacity:1;stop-color:#ff9c00" id="stop76" offset="1"/></linearGradient><linearGradient id="linearGradient82" x1="34.827" x2="12.069" y1="169.704" y2="146.946" gradientTransform="matrix(0.8,0,0,-0.8,0,161.6)" gradientUnits="userSpaceOnUse" spreadMethod="pad"><stop style="stop-opacity:1;stop-color:#ff3a44" id="stop84" offset="0"/><stop style="stop-opacity:1;stop-color:#c31162" id="stop86" offset="1"/></linearGradient><linearGradient id="linearGradient92" x1="17.297" x2="27.46" y1="191.824" y2="181.661" gradientTransform="matrix(0.8,0,0,-0.8,0,161.6)" gradientUnits="userSpaceOnUse" spreadMethod="pad"><stop style="stop-opacity:1;stop-color:#32a071" id="stop94" offset="0"/><stop style="stop-opacity:1;stop-color:#2da771" id="stop96" offset=".069"/><stop style="stop-opacity:1;stop-color:#15cf74" id="stop98" offset=".476"/><stop style="stop-opacity:1;stop-color:#06e775" id="stop100" offset=".801"/><stop style="stop-opacity:1;stop-color:#00f076" id="stop102" offset="1"/></linearGradient><clipPath id="clipPath110" clipPathUnits="userSpaceOnUse"><path id="path112" d="M 0,0 124,0 124,48 0,48 0,0 Z"/></clipPath><mask id="mask114" width="1" height="1" x="0" y="0" maskUnits="userSpaceOnUse"><g id="g116"><g id="g118" clip-path="url(#clipPath110)"><path style="fill:#000;fill-opacity:.2;fill-rule:nonzero;stroke:none" id="path120" d="M 0,0 124,0 124,48 0,48 0,0 Z"/></g></g></mask><clipPath id="clipPath126" clipPathUnits="userSpaceOnUse"><path id="path128" d="M 0,0 124,0 124,48 0,48 0,0 Z"/></clipPath><clipPath id="clipPath130" clipPathUnits="userSpaceOnUse"><path id="path132" d="M 0,0 124,0 124,48 0,48 0,0 Z"/></clipPath><pattern id="pattern134" width="124" height="48" x="0" y="0" patternTransform="matrix(1,0,0,-1,0,48)" patternUnits="userSpaceOnUse"><g id="g138"><g id="g140" clip-path="url(#clipPath130)"><g id="g142"><path style="fill:#000;fill-opacity:1;fill-rule:nonzero;stroke:none" id="path144" d="M 29.625,20.695 18.012,14.098 C 17.363,13.727 16.781,13.754 16.406,14.09 l -0.058,-0.063 0.058,-0.058 c 0.375,-0.336 0.957,-0.36 1.606,0.011 l 11.687,6.641 -0.074,0.074 z"/></g></g></g></pattern><clipPath id="clipPath158" clipPathUnits="userSpaceOnUse"><path id="path160" d="M 0,0 124,0 124,48 0,48 0,0 Z"/></clipPath><mask id="mask162" width="1" height="1" x="0" y="0" maskUnits="userSpaceOnUse"><g id="g164"><g id="g166" clip-path="url(#clipPath158)"><path style="fill:#000;fill-opacity:.12000002;fill-rule:nonzero;stroke:none" id="path168" d="M 0,0 124,0 124,48 0,48 0,0 Z"/></g></g></mask><clipPath id="clipPath174" clipPathUnits="userSpaceOnUse"><path id="path176" d="M 0,0 124,0 124,48 0,48 0,0 Z"/></clipPath><clipPath id="clipPath178" clipPathUnits="userSpaceOnUse"><path id="path180" d="M 0,0 124,0 124,48 0,48 0,0 Z"/></clipPath><pattern id="pattern182" width="124" height="48" x="0" y="0" patternTransform="matrix(1,0,0,-1,0,48)" patternUnits="userSpaceOnUse"><g id="g186"><g id="g188" clip-path="url(#clipPath178)"><g id="g190"><path style="fill:#000;fill-opacity:1;fill-rule:nonzero;stroke:none" id="path192" d="m 16.348,14.145 c -0.235,0.246 -0.371,0.628 -0.371,1.125 l 0,-0.118 c 0,-0.496 0.136,-0.879 0.371,-1.125 l 0.058,0.063 -0.058,0.055 z"/></g></g></g></pattern><clipPath id="clipPath206" clipPathUnits="userSpaceOnUse"><path id="path208" d="M 0,0 124,0 124,48 0,48 0,0 Z"/></clipPath><mask id="mask210" width="1" height="1" x="0" y="0" maskUnits="userSpaceOnUse"><g id="g212"><g id="g214" clip-path="url(#clipPath206)"><path style="fill:#000;fill-opacity:.12000002;fill-rule:nonzero;stroke:none" id="path216" d="M 0,0 124,0 124,48 0,48 0,0 Z"/></g></g></mask><clipPath id="clipPath222" clipPathUnits="userSpaceOnUse"><path id="path224" d="M 0,0 124,0 124,48 0,48 0,0 Z"/></clipPath><clipPath id="clipPath226" clipPathUnits="userSpaceOnUse"><path id="path228" d="M 0,0 124,0 124,48 0,48 0,0 Z"/></clipPath><pattern id="pattern230" width="124" height="48" x="0" y="0" patternTransform="matrix(1,0,0,-1,0,48)" patternUnits="userSpaceOnUse"><g id="g234"><g id="g236" clip-path="url(#clipPath226)"><g id="g238"><path style="fill:#000;fill-opacity:1;fill-rule:nonzero;stroke:none" id="path240" d="m 33.613,22.961 -3.988,-2.266 0.074,-0.074 3.914,2.223 c 0.559,0.316 0.836,0.734 0.836,1.156 -0.047,-0.379 -0.332,-0.75 -0.836,-1.039 z"/></g></g></g></pattern><clipPath id="clipPath254" clipPathUnits="userSpaceOnUse"><path id="path256" d="M 0,0 124,0 124,48 0,48 0,0 Z"/></clipPath><mask id="mask258" width="1" height="1" x="0" y="0" maskUnits="userSpaceOnUse"><g id="g260"><g id="g262" clip-path="url(#clipPath254)"><path style="fill:#000;fill-opacity:.25;fill-rule:nonzero;stroke:none" id="path264" d="M 0,0 124,0 124,48 0,48 0,0 Z"/></g></g></mask><clipPath id="clipPath270" clipPathUnits="userSpaceOnUse"><path id="path272" d="M 0,0 124,0 124,48 0,48 0,0 Z"/></clipPath><clipPath id="clipPath274" clipPathUnits="userSpaceOnUse"><path id="path276" d="M 0,0 124,0 124,48 0,48 0,0 Z"/></clipPath><pattern id="pattern278" width="124" height="48" x="0" y="0" patternTransform="matrix(1,0,0,-1,0,48)" patternUnits="userSpaceOnUse"><g id="g282"><g id="g284" clip-path="url(#clipPath274)"><g id="g286"><path style="fill:#fff;fill-opacity:1;fill-rule:nonzero;stroke:none" id="path288" d="m 18.012,33.902 15.601,-8.863 c 0.508,-0.289 0.789,-0.66 0.836,-1.039 0,0.418 -0.277,0.836 -0.836,1.156 L 18.012,34.02 c -1.117,0.632 -2.035,0.105 -2.035,-1.176 l 0,-0.114 c 0,1.278 0.918,1.805 2.035,1.172 z"/></g></g></g></pattern></defs><g id="g10" transform="matrix(1.25,0,0,-1.25,-9.4247625,49.85025)"><g id="g12" transform="matrix(1.0023923,0,0,0.99072975,-0.29664807,0)"><path style="fill:#000;fill-opacity:1;fill-rule:nonzero;stroke:none" id="path14" d="M 112,8 12,8 C 9.801,8 8,9.801 8,12 l 0,24 c 0,2.199 1.801,4 4,4 l 100,0 c 2.199,0 4,-1.801 4,-4 l 0,-24 c 0,-2.199 -1.801,-4 -4,-4 z"/><path style="fill:#a6a6a6;fill-opacity:1;fill-rule:nonzero;stroke:none" id="path16" d="m 112,39.359 c 1.852,0 3.359,-1.507 3.359,-3.359 l 0,-24 c 0,-1.852 -1.507,-3.359 -3.359,-3.359 l -100,0 c -1.852,0 -3.359,1.507 -3.359,3.359 l 0,24 c 0,1.852 1.507,3.359 3.359,3.359 l 100,0 M 112,40 12,40 C 9.801,40 8,38.199 8,36 L 8,12 C 8,9.801 9.801,8 12,8 l 100,0 c 2.199,0 4,1.801 4,4 l 0,24 c 0,2.199 -1.801,4 -4,4 z"/><g id="g18" transform="matrix(1,0,0,-1,0,48)"><path style="fill:#fff;fill-opacity:1;fill-rule:nonzero;stroke:#fff;stroke-width:.16;stroke-linecap:butt;stroke-linejoin:miter;stroke-miterlimit:10;stroke-dasharray:none;stroke-opacity:1" id="path20" d="m 45.934,16.195 c 0,0.668 -0.2,1.203 -0.594,1.602 -0.453,0.473 -1.043,0.711 -1.766,0.711 -0.691,0 -1.281,-0.242 -1.765,-0.719 -0.485,-0.484 -0.727,-1.078 -0.727,-1.789 0,-0.711 0.242,-1.305 0.727,-1.785 0.484,-0.481 1.074,-0.723 1.765,-0.723 0.344,0 0.672,0.071 0.985,0.203 0.312,0.133 0.566,0.313 0.75,0.535 l -0.418,0.422 c -0.321,-0.379 -0.758,-0.566 -1.317,-0.566 -0.504,0 -0.941,0.176 -1.312,0.531 -0.367,0.356 -0.551,0.817 -0.551,1.383 0,0.566 0.184,1.031 0.551,1.387 0.371,0.351 0.808,0.531 1.312,0.531 0.535,0 0.985,-0.18 1.34,-0.535 0.234,-0.235 0.367,-0.559 0.402,-0.973 l -1.742,0 0,-0.578 2.324,0 c 0.028,0.125 0.036,0.246 0.036,0.363 z"/></g><g id="g22" transform="matrix(1,0,0,-1,0,48)"><path style="fill:#fff;fill-opacity:1;fill-rule:nonzero;stroke:#fff;stroke-width:.16;stroke-linecap:butt;stroke-linejoin:miter;stroke-miterlimit:10;stroke-dasharray:none;stroke-opacity:1" id="path24" d="m 49.621,14.191 -2.183,0 0,1.52 1.968,0 0,0.578 -1.968,0 0,1.52 2.183,0 0,0.589 -2.801,0 0,-4.796 2.801,0 0,0.589 z"/></g><g id="g26" transform="matrix(1,0,0,-1,0,48)"><path style="fill:#fff;fill-opacity:1;fill-rule:nonzero;stroke:#fff;stroke-width:.16;stroke-linecap:butt;stroke-linejoin:miter;stroke-miterlimit:10;stroke-dasharray:none;stroke-opacity:1" id="path28" d="m 52.223,18.398 -0.618,0 0,-4.207 -1.339,0 0,-0.589 3.297,0 0,0.589 -1.34,0 0,4.207 z"/></g><g id="g30" transform="matrix(1,0,0,-1,0,48)"><path style="fill:#fff;fill-opacity:1;fill-rule:nonzero;stroke:#fff;stroke-width:.16;stroke-linecap:butt;stroke-linejoin:miter;stroke-miterlimit:10;stroke-dasharray:none;stroke-opacity:1" id="path32" d="m 55.949,18.398 0,-4.796 0.617,0 0,4.796 -0.617,0 z"/></g><g id="g34" transform="matrix(1,0,0,-1,0,48)"><path style="fill:#fff;fill-opacity:1;fill-rule:nonzero;stroke:#fff;stroke-width:.16;stroke-linecap:butt;stroke-linejoin:miter;stroke-miterlimit:10;stroke-dasharray:none;stroke-opacity:1" id="path36" d="m 59.301,18.398 -0.613,0 0,-4.207 -1.344,0 0,-0.589 3.301,0 0,0.589 -1.344,0 0,4.207 z"/></g><g id="g38" transform="matrix(1,0,0,-1,0,48)"><path style="fill:#fff;fill-opacity:1;fill-rule:nonzero;stroke:#fff;stroke-width:.16;stroke-linecap:butt;stroke-linejoin:miter;stroke-miterlimit:10;stroke-dasharray:none;stroke-opacity:1" id="path40" d="m 66.887,17.781 c -0.473,0.485 -1.059,0.727 -1.758,0.727 -0.703,0 -1.289,-0.242 -1.762,-0.727 C 62.895,17.297 62.66,16.703 62.66,16 c 0,-0.703 0.235,-1.297 0.707,-1.781 0.473,-0.485 1.059,-0.727 1.762,-0.727 0.695,0 1.281,0.242 1.754,0.731 0.476,0.488 0.711,1.078 0.711,1.777 0,0.703 -0.235,1.297 -0.707,1.781 z m -3.063,-0.402 c 0.356,0.359 0.789,0.539 1.305,0.539 0.512,0 0.949,-0.18 1.301,-0.539 0.355,-0.359 0.535,-0.82 0.535,-1.379 0,-0.559 -0.18,-1.02 -0.535,-1.379 -0.352,-0.359 -0.789,-0.539 -1.301,-0.539 -0.516,0 -0.949,0.18 -1.305,0.539 -0.355,0.359 -0.535,0.82 -0.535,1.379 0,0.559 0.18,1.02 0.535,1.379 z"/></g><g id="g42" transform="matrix(1,0,0,-1,0,48)"><path style="fill:#fff;fill-opacity:1;fill-rule:nonzero;stroke:#fff;stroke-width:.16;stroke-linecap:butt;stroke-linejoin:miter;stroke-miterlimit:10;stroke-dasharray:none;stroke-opacity:1" id="path44" d="m 68.461,18.398 0,-4.796 0.75,0 2.332,3.73 0.027,0 -0.027,-0.922 0,-2.808 0.617,0 0,4.796 -0.644,0 -2.442,-3.914 -0.027,0 0.027,0.926 0,2.988 -0.613,0 z"/></g><path style="fill:#fff;fill-opacity:1;fill-rule:nonzero;stroke:none" id="path46" d="m 62.508,22.598 c -1.879,0 -3.414,-1.43 -3.414,-3.403 0,-1.957 1.535,-3.402 3.414,-3.402 1.883,0 3.418,1.445 3.418,3.402 0,1.973 -1.535,3.403 -3.418,3.403 z m 0,-5.465 c -1.031,0 -1.918,0.851 -1.918,2.062 0,1.227 0.887,2.063 1.918,2.063 1.031,0 1.922,-0.836 1.922,-2.063 0,-1.211 -0.891,-2.062 -1.922,-2.062 z m -7.449,5.465 c -1.883,0 -3.414,-1.43 -3.414,-3.403 0,-1.957 1.531,-3.402 3.414,-3.402 1.882,0 3.414,1.445 3.414,3.402 0,1.973 -1.532,3.403 -3.414,3.403 z m 0,-5.465 c -1.032,0 -1.922,0.851 -1.922,2.062 0,1.227 0.89,2.063 1.922,2.063 1.031,0 1.918,-0.836 1.918,-2.063 0,-1.211 -0.887,-2.062 -1.918,-2.062 z m -8.864,4.422 0,-1.446 3.453,0 c -0.101,-0.808 -0.371,-1.402 -0.785,-1.816 -0.504,-0.5 -1.289,-1.055 -2.668,-1.055 -2.125,0 -3.789,1.715 -3.789,3.84 0,2.125 1.664,3.84 3.789,3.84 1.149,0 1.985,-0.449 2.602,-1.031 l 1.019,1.019 c -0.863,0.824 -2.011,1.457 -3.621,1.457 -2.914,0 -5.363,-2.371 -5.363,-5.285 0,-2.914 2.449,-5.285 5.363,-5.285 1.575,0 2.758,0.516 3.688,1.484 0.953,0.953 1.25,2.293 1.25,3.375 0,0.336 -0.028,0.645 -0.078,0.903 l -4.86,0 z m 36.246,-1.121 c -0.281,0.761 -1.148,2.164 -2.914,2.164 -1.75,0 -3.207,-1.379 -3.207,-3.403 0,-1.906 1.442,-3.402 3.375,-3.402 1.563,0 2.465,0.953 2.836,1.508 l -1.16,0.773 c -0.387,-0.566 -0.914,-0.941 -1.676,-0.941 -0.757,0 -1.3,0.347 -1.648,1.031 l 4.551,1.883 -0.157,0.387 z m -4.64,-1.133 c -0.039,1.312 1.019,1.984 1.777,1.984 0.594,0 1.098,-0.297 1.266,-0.722 L 77.801,19.301 Z M 74.102,16 l 1.496,0 0,10 -1.496,0 0,-10 z m -2.45,5.84 -0.05,0 c -0.336,0.398 -0.977,0.758 -1.789,0.758 -1.704,0 -3.262,-1.496 -3.262,-3.414 0,-1.907 1.558,-3.391 3.262,-3.391 0.812,0 1.453,0.363 1.789,0.773 l 0.05,0 0,-0.488 c 0,-1.301 -0.695,-2 -1.816,-2 -0.914,0 -1.481,0.66 -1.715,1.215 L 66.82,14.75 c 0.375,-0.902 1.368,-2.012 3.016,-2.012 1.754,0 3.234,1.032 3.234,3.543 l 0,6.11 -1.418,0 0,-0.551 z m -1.711,-4.707 c -1.031,0 -1.894,0.863 -1.894,2.051 0,1.199 0.863,2.074 1.894,2.074 1.016,0 1.817,-0.875 1.817,-2.074 0,-1.188 -0.801,-2.051 -1.817,-2.051 z M 89.445,26 l -3.578,0 0,-10 1.492,0 0,3.789 2.086,0 c 1.657,0 3.282,1.199 3.282,3.106 0,1.906 -1.629,3.105 -3.282,3.105 z m 0.039,-4.82 -2.125,0 0,3.429 2.125,0 c 1.114,0 1.75,-0.925 1.75,-1.714 0,-0.774 -0.636,-1.715 -1.75,-1.715 z m 9.223,1.437 c -1.078,0 -2.199,-0.476 -2.66,-1.531 l 1.324,-0.555 c 0.285,0.555 0.809,0.735 1.363,0.735 0.774,0 1.559,-0.465 1.571,-1.286 l 0,-0.105 c -0.27,0.156 -0.848,0.387 -1.559,0.387 -1.426,0 -2.879,-0.785 -2.879,-2.25 0,-1.34 1.168,-2.203 2.481,-2.203 1.004,0 1.558,0.453 1.906,0.98 l 0.051,0 0,-0.773 1.441,0 0,3.836 c 0,1.773 -1.324,2.765 -3.039,2.765 z m -0.18,-5.48 c -0.488,0 -1.168,0.242 -1.168,0.847 0,0.774 0.848,1.071 1.582,1.071 0.657,0 0.965,-0.145 1.364,-0.336 -0.117,-0.926 -0.914,-1.582 -1.778,-1.582 z m 8.469,5.261 -1.715,-4.335 -0.051,0 -1.773,4.335 -1.609,0 2.664,-6.058 -1.52,-3.371 1.559,0 4.105,9.429 -1.66,0 z M 93.547,16 l 1.496,0 0,10 -1.496,0 0,-10 z"/><g id="g48"><path style="fill:url(#linearGradient50);fill-opacity:1;fill-rule:nonzero;stroke:none" id="path64" d="M 16.348,33.969 C 16.113,33.723 15.977,33.34 15.977,32.844 l 0,-17.692 c 0,-0.496 0.136,-0.879 0.371,-1.125 l 0.058,-0.054 9.914,9.91 0,0.234 -9.914,9.91 -0.058,-0.058 z"/></g><g id="g66"><path style="fill:url(#linearGradient68);fill-opacity:1;fill-rule:nonzero;stroke:none" id="path78" d="m 29.621,20.578 -3.301,3.305 0,0.234 3.305,3.305 0.074,-0.043 3.914,-2.227 c 1.117,-0.632 1.117,-1.672 0,-2.308 l -3.914,-2.223 -0.078,-0.043 z"/></g><g id="g80"><path style="fill:url(#linearGradient82);fill-opacity:1;fill-rule:nonzero;stroke:none" id="path88" d="M 29.699,20.621 26.32,24 16.348,14.027 c 0.371,-0.39 0.976,-0.437 1.664,-0.047 l 11.687,6.641"/></g><g id="g90"><path style="fill:url(#linearGradient92);fill-opacity:1;fill-rule:nonzero;stroke:none" id="path104" d="M 29.699,27.379 18.012,34.02 c -0.688,0.386 -1.293,0.339 -1.664,-0.051 L 26.32,24 l 3.379,3.379 z"/></g><g id="g106"><g id="g122" mask="url(#mask114)"><g id="g146"><g id="g148" clip-path="url(#clipPath126)"><g id="g150"><path style="fill:url(#pattern134);fill-opacity:1;fill-rule:nonzero;stroke:none" id="path152" d="M 0,0 124,0 124,48 0,48 0,0 Z"/></g></g></g></g></g><g id="g154"><g id="g170" mask="url(#mask162)"><g id="g194"><g id="g196" clip-path="url(#clipPath174)"><g id="g198"><path style="fill:url(#pattern182);fill-opacity:1;fill-rule:nonzero;stroke:none" id="path200" d="M 0,0 124,0 124,48 0,48 0,0 Z"/></g></g></g></g></g><g id="g202"><g id="g218" mask="url(#mask210)"><g id="g242"><g id="g244" clip-path="url(#clipPath222)"><g id="g246"><path style="fill:url(#pattern230);fill-opacity:1;fill-rule:nonzero;stroke:none" id="path248" d="M 0,0 124,0 124,48 0,48 0,0 Z"/></g></g></g></g></g><g id="g250"><g id="g266" mask="url(#mask258)"><g id="g290"><g id="g292" clip-path="url(#clipPath270)"><g id="g294"><path style="fill:url(#pattern278);fill-opacity:1;fill-rule:nonzero;stroke:none" id="path296" d="M 0,0 124,0 124,48 0,48 0,0 Z"/></g></g></g></g></g></g></g></svg>