<svg xmlns="http://www.w3.org/2000/svg" xmlns:xlink="http://www.w3.org/1999/xlink" width="15" height="14" version="1.1" viewBox="0 0 15 14"><path d="M5 4.5q0 0.625-0.438 1.062t-1.062 0.438-1.062-0.438-0.438-1.062 0.438-1.062 1.062-0.438 1.062 0.438 0.438 1.062zM13 7.5v3.5h-11v-1.5l2.5-2.5 1.25 1.25 4-4zM13.75 2h-12.5q-0.102 0-0.176 0.074t-0.074 0.176v9.5q0 0.102 0.074 0.176t0.176 0.074h12.5q0.102 0 0.176-0.074t0.074-0.176v-9.5q0-0.102-0.074-0.176t-0.176-0.074zM15 2.25v9.5q0 0.516-0.367 0.883t-0.883 0.367h-12.5q-0.516 0-0.883-0.367t-0.367-0.883v-9.5q0-0.516 0.367-0.883t0.883-0.367h12.5q0.516 0 0.883 0.367t0.367 0.883z"/></svg>