<svg xmlns="http://www.w3.org/2000/svg" width="26" height="26" viewBox="0 0 26 26"><g id="Page-1" fill="none" fill-rule="evenodd" stroke="none" stroke-width="1"><path id="Combined-Shape" fill="#000" fill-rule="nonzero" d="M12.9994927,0 C20.1790439,0 26,5.81994146 26,12.9994927 C26,20.1790439 20.1790439,26 12.9994927,26 C5.81994146,26 0,20.1790439 0,12.9994927 C0,5.81994146 5.81994146,0 12.9994927,0 Z M11,7.00548829 L11,7.0530483 C11,8.15781578 11.8978877,9.05853659 13.0054883,9.05853659 L13.0530483,9.05853659 C14.1578158,9.05853659 15.0585366,8.16064889 15.0585366,7.0530483 L15.0585366,7.00548829 C15.0585366,5.90072081 14.1606489,5 13.0530483,5 L13.0054883,5 C11.9007208,5 11,5.89788769 11,7.00548829 Z M11,11.9953976 L11,20.0046024 C11,20.5443356 11.4491632,21 12.003234,21 L14.0553026,21 C14.6086953,21 15.0585366,20.5543453 15.0585366,20.0046024 L15.0585366,11.9953976 C15.0585366,11.4556644 14.6093734,11 14.0553026,11 L12.003234,11 C11.4498413,11 11,11.4456547 11,11.9953976 Z"/></g></svg>