<svg xmlns="http://www.w3.org/2000/svg" xmlns:xlink="http://www.w3.org/1999/xlink" width="11" height="11" version="1.1" viewBox="0 0 11 11"><title>Shape</title><desc>Created with Sketch.</desc><g id="Page-1" fill="none" fill-rule="evenodd" stroke="none" stroke-width="1"><g id="Artboard" fill="#332432" fill-rule="nonzero" transform="translate(-1250.000000, -670.000000)"><g id="1" transform="translate(939.000000, 420.000000)"><g id="Group"><g id="ask-question" transform="translate(311.000000, 250.000000)"><path id="Shape" d="M5.5,0 C2.464,0 0,2.20088997 0,4.95200244 C0.0166289687,6.28976405 0.602040941,7.55711337 1.60966667,8.4367449 L1.46666667,10.6963253 C1.46145391,10.8049911 1.51751865,10.907423 1.6118421,10.9615649 C1.70616555,11.0157068 1.82285474,11.0124361 1.914,10.9530958 L3.839,9.66924328 C4.37910329,9.8241858 4.9381293,9.90319714 5.5,9.90400488 C8.536,9.90400488 11,7.70311491 11,4.95200244 C11,2.20088997 8.536,0 5.5,0 Z M5.258,8.2093196 C4.81547649,8.20729347 4.45800091,7.8474843 4.45867601,7.40477765 C4.45935112,6.962071 4.81792241,6.60335465 5.26045005,6.60267927 C5.70297768,6.60200389 6.06264136,6.95962408 6.06466667,7.40232661 C6.06564719,7.61665367 5.98097424,7.82248592 5.82948182,7.97403962 C5.6779894,8.12559332 5.47224039,8.21030052 5.258,8.2093196 Z M6.45333333,4.99602024 C6.13066667,5.25279074 5.962,5.39951674 5.962,5.65261908 C5.962,6.03348138 5.65337495,6.34223127 5.27266667,6.34223127 C4.89195838,6.34223127 4.58333333,6.03348138 4.58333333,5.65261908 C4.58333333,4.76859494 5.13333333,4.32108065 5.53666667,3.9946153 C5.78966667,3.7891989 5.94,3.65714551 5.94,3.53242841 C5.94,3.40771131 5.94,3.09958671 5.258,3.09958671 C5.00140573,3.09669291 4.74854309,3.16119897 4.52466667,3.28666236 C4.41470546,3.35646491 4.2881469,3.39571394 4.158,3.40037501 C3.79349207,3.40037501 3.498,3.10476341 3.498,2.74010802 C3.50168408,2.49057416 3.64270495,2.26343871 3.86466667,2.14953587 C4.30317269,1.87310834 4.81314362,1.73153416 5.33133333,1.74237123 C6.53766667,1.74237123 7.348,2.44665602 7.348,3.49574691 C7.32351243,4.11625542 6.98682835,4.68222392 6.45333333,4.99968839 L6.45333333,4.99602024 Z"/></g></g></g></g></g></svg>