<svg width="17" height="17" viewBox="0 0 17 17" xmlns="http://www.w3.org/2000/svg"><path d="M8.5 0C3.825 0 0 3.906 0 8.68c0 3.69 2.267 6.837 5.42 8.103.317-.072.6-.362.6-.723v-1.592H5.1c-.673 0-1.24-.325-1.523-.832-.07-.145-.142-.325-.212-.506-.142-.398-.32-.832-.673-1.085-.142-.11-.213-.326-.177-.507.07-.18.248-.325.566-.29.355.037.887.435 1.205.87.284.36.496.578.92.578h.107c.32 0 1.098 0 1.24-.145.106-.144.177-.252.283-.36-2.125-.435-3.33-1.7-3.33-3.618 0-.65.178-1.302.568-1.88-.142-.543-.46-1.954.212-2.57l.107-.107h.14c.922 0 1.595.398 2.02.723 1.24-.47 2.656-.47 3.896 0 .39-.325 1.062-.723 2.02-.723h.14l.107.108c.672.65.354 2.026.212 2.568.354.58.567 1.23.567 1.882 0 1.917-1.204 3.183-3.294 3.617.53.578.815 1.446.815 2.133v1.773c0 .36.247.65.602.723C14.733 15.516 17 12.37 17 8.68 17 3.907 13.175 0 8.5 0z" fill="#909090" fill-rule="evenodd"/></svg>