<svg xmlns="http://www.w3.org/2000/svg" viewBox="0 0 32 32"><path d="M 5 5 L 5 14 L 5 21 L 5 28 L 14 28 L 14 19 L 14 12 L 14 5 L 5 5 z M 7 7 L 12 7 L 12 12 L 7 12 L 7 7 z M 8 8 L 8 11 L 11 11 L 11 8 L 8 8 z M 16 8 L 16 10 L 21 10 L 21 8 L 16 8 z M 23 8 L 23 10 L 28 10 L 28 8 L 23 8 z M 7 14 L 12 14 L 12 19 L 7 19 L 7 14 z M 9.5 15 C 8.6715729 15 8 15.671573 8 16.5 C 8 17.328427 8.6715729 18 9.5 18 C 10.328427 18 11 17.328427 11 16.5 C 11 15.671573 10.328427 15 9.5 15 z M 16 15 L 16 17 L 21 17 L 21 15 L 16 15 z M 23 15 L 23 17 L 28 17 L 28 15 L 23 15 z M 7 21 L 12 21 L 12 26 L 7 26 L 7 21 z M 9.5 22 L 8 25 L 11 25 L 9.5 22 z M 16 22 L 16 24 L 21 24 L 21 22 L 16 22 z M 23 22 L 23 24 L 28 24 L 28 22 L 23 22 z"/></svg>