<svg xmlns="http://www.w3.org/2000/svg" xmlns:xlink="http://www.w3.org/1999/xlink" width="9" height="13" version="1.1" viewBox="0 0 9 13"><g fill="none" fill-rule="evenodd" stroke="none" stroke-width="1"><g fill="#686868"><g><g><g><g><g transform="translate(-931.000000, -706.000000) translate(928.000000, 484.000000) translate(0.000000, 35.000000) translate(0.000000, 185.000000) translate(0.000000, 1.000000)"><path id="Fill-2" d="M7.49999955,1.24999992 C5.08124976,1.24999992 3.12499981,3.20624988 3.12499981,5.62499966 C3.12499981,8.90624947 7.49999955,13.7499992 7.49999955,13.7499992 C7.49999955,13.7499992 11.8749993,8.90624947 11.8749993,5.62499966 C11.8749993,3.20624988 9.91874928,1.24999992 7.49999955,1.24999992 L7.49999955,1.24999992 Z M7.49999955,7.18749957 C6.63749948,7.18749957 5.93749964,6.48749967 5.93749964,5.62499966 C5.93749964,4.76249964 6.63749948,4.06249976 7.49999955,4.06249976 C8.36249956,4.06249976 9.06249946,4.76249964 9.06249946,5.62499966 C9.06249946,6.48749967 8.36249956,7.18749957 7.49999955,7.18749957 L7.49999955,7.18749957 Z"/></g></g></g></g></g></g></g></svg>