<svg xmlns="http://www.w3.org/2000/svg" viewBox="0 0 32 32"><path d="M20.47 2.563l-.72.75c-1.045 1.15-1.542 2.605-1.656 4.062l-4.063 4.063c-2.47-.44-5.127.253-7.03 2.156l-.72.72.72.686 4.313 4.313L3 27.593V29h1.406l8.282-8.313 4.218 4.22.688.718.718-.72c2.096-2.094 2.69-4.973 2.063-7.56l3.563-3.564c1.737.208 3.513-.293 4.78-1.56l.688-.72-.687-.72-7.5-7.5-.75-.717zm.218 3.062l5.687 5.688c-.825.466-1.716.758-2.625.53l-.563-.155-.406.406-4.186 4.187-.438.44.188.593c.587 1.762.315 3.75-.844 5.375L9.312 14.5c1.455-1 3.206-1.46 4.844-1.03l.53.155.408-.406 4.625-4.626.28-.28v-.408c0-.803.293-1.563.688-2.28z"/></svg>