<svg xmlns="http://www.w3.org/2000/svg" xmlns:xlink="http://www.w3.org/1999/xlink" width="11" height="9" version="1.1" viewBox="0 0 11 9"><g fill="none" fill-rule="evenodd" stroke="none" stroke-width="1"><g fill="#686868"><g><g><g><g><g transform="translate(-930.000000, -667.000000) translate(928.000000, 484.000000) translate(0.000000, 35.000000) translate(0.000000, 144.000000) translate(0.000000, 1.000000)"><g id="Fill-2"><path d="M5.64,9.00130393 L5.5008697,8.88543415 C5.23630467,8.66478213 4.87891315,8.4256512 4.46500026,8.14847778 C2.85065209,7.06782628 0.64,5.58804343 0.64,3.06608696 C0.64,1.50782602 1.90782604,0.24 3.46608696,0.24 C4.31304346,0.24 5.10565213,0.616956565 5.64,1.26152161 C6.17434785,0.616956565 6.96695652,0.24 7.81391304,0.24 C9.37217374,0.24 10.64,1.50782602 10.64,3.06608696 C10.64,5.58804343 8.42934809,7.06782628 6.81500013,8.14847778 C6.40108724,8.42543391 6.04369572,8.66478213 5.7791307,8.88543415 L5.64,9.00130393 L5.64,9.00130393 Z" transform="translate(2.000000, 3.000000)"/></g></g></g></g></g></g></g></g></svg>