<svg xmlns="http://www.w3.org/2000/svg" xmlns:xlink="http://www.w3.org/1999/xlink" width="27" height="20" version="1.1" viewBox="0 0 27 20"><g id="Page-1" fill="none" fill-rule="evenodd" stroke="none" stroke-width="1"><path id="Combined-Shape" fill="#fff" fill-rule="evenodd" d="M26.442623,4.9677878 C26.442623,4.9677878 26.704918,7.1733979 26.704918,9.3781564 L26.704918,11.4458095 C26.704918,13.6514196 26.442623,15.8561781 26.442623,15.8561781 C26.442623,15.8561781 26.1860656,17.7339272 25.4,18.5608181 C24.402459,19.6465914 23.2844262,19.651701 22.7721311,19.71557 C19.1016393,19.9914841 13.5901639,20 13.5901639,20 C13.5901639,20 6.7704918,19.9352794 4.6721311,19.725789 C4.0885246,19.612528 2.7778689,19.6465914 1.7795082,18.5608181 C0.9934426,17.7339272 0.7377049,15.8561781 0.7377049,15.8561781 C0.7377049,15.8561781 0.4754098,13.6514196 0.4754098,11.4458095 L0.4754098,9.3781564 C0.4754098,7.1733979 0.7377049,4.9677878 0.7377049,4.9677878 C0.7377049,4.9677878 0.9934426,3.0900387 1.7795082,2.2631478 C2.7778689,1.1773744 3.895082,1.1722649 4.4081967,1.1092475 C8.0786885,0.8333333 13.5844262,0.8333333 13.5844262,0.8333333 L13.5959016,0.8333333 C13.5959016,0.8333333 19.1016393,0.8333333 22.7721311,1.1092475 C23.2844262,1.1722649 24.402459,1.1773744 25.4,2.2631478 C26.1860656,3.0900387 26.442623,4.9677878 26.442623,4.9677878 Z M10.8819672,13.9511782 L17.9680328,10.1360688 L10.8811475,6.2945602 L10.8819672,13.9511782 Z"/></g></svg>