<svg class="svgIcon-use" width="21" height="21" viewBox="0 0 21 21"><path d="M18.502 4.435a6.892 6.892 0 0 1-2.18.872 3.45 3.45 0 0 0-2.552-1.12 3.488 3.488 0 0 0-3.488 3.486c0 .276.03.543.063.81a9.912 9.912 0 0 1-7.162-3.674c-.3.53-.47 1.13-.498 1.74.027 1.23.642 2.3 1.557 2.92a3.357 3.357 0 0 1-1.555-.44.15.15 0 0 0 0 .06c-.004 1.67 1.2 3.08 2.8 3.42-.3.06-.606.1-.934.12-.216-.02-.435-.04-.623-.06.42 1.37 1.707 2.37 3.24 2.43a7.335 7.335 0 0 1-4.36 1.49L2 16.44A9.96 9.96 0 0 0 7.355 18c6.407 0 9.915-5.32 9.9-9.9.015-.18.01-.33 0-.5A6.546 6.546 0 0 0 19 5.79a6.185 6.185 0 0 1-1.992.56 3.325 3.325 0 0 0 1.494-1.93"></path></svg>
