<svg width="316" height="290" viewBox="0 0 316 290" fill="none" xmlns="http://www.w3.org/2000/svg">
<g clip-path="url(#clip0)">
<path fill-rule="evenodd" clip-rule="evenodd" d="M250.93 27.4141C250.79 26.8704 250.3 26.4904 249.738 26.4904C249.177 26.4904 248.686 26.8704 248.546 27.4141L245.107 40.7586L231.35 39.9102C230.789 39.8757 230.277 40.2244 230.103 40.7582C229.93 41.2919 230.139 41.8755 230.612 42.177L242.238 49.5832L237.17 62.4005C236.964 62.9228 237.137 63.5185 237.591 63.8488C238.045 64.179 238.666 64.1599 239.099 63.8024L249.738 55.02L260.378 63.8024C260.811 64.1599 261.431 64.179 261.886 63.8488C262.34 63.5185 262.513 62.9228 262.306 62.4005L257.239 49.5832L268.864 42.177C269.338 41.8755 269.547 41.2919 269.373 40.7582C269.2 40.2244 268.687 39.8757 268.127 39.9102L254.37 40.7586L250.93 27.4141Z" fill="#FFBD61"/>
<path fill-rule="evenodd" clip-rule="evenodd" d="M304.871 87.9762C304.73 87.4326 304.239 87.0531 303.678 87.0539C303.116 87.0546 302.626 87.4353 302.487 87.9793L300.45 95.9307L292.233 95.4267C291.672 95.3923 291.159 95.7418 290.986 96.2762C290.813 96.8105 291.024 97.3942 291.498 97.695L298.443 102.098L295.42 109.743C295.213 110.266 295.386 110.862 295.841 111.192C296.295 111.522 296.916 111.503 297.349 111.145L303.681 105.908L310.036 111.146C310.469 111.503 311.089 111.522 311.543 111.191C311.997 110.861 312.17 110.265 311.964 109.743L308.94 102.097L315.862 97.694C316.335 97.3927 316.545 96.8092 316.372 96.2752C316.198 95.7413 315.686 95.3923 315.126 95.4267L306.931 95.9307L304.871 87.9762Z" fill="#FFBD61"/>
<path fill-rule="evenodd" clip-rule="evenodd" d="M224.686 0.922381C224.545 0.3793 224.055 0 223.494 0C222.933 0 222.443 0.3793 222.303 0.922381L220.243 8.87684L212.048 8.37288C211.488 8.33843 210.975 8.68743 210.802 9.22136C210.628 9.75529 210.838 10.3389 211.312 10.6402L218.236 15.0443L215.233 22.6923C215.028 23.2148 215.203 23.8098 215.657 24.139C216.112 24.4683 216.731 24.4484 217.164 24.0908L223.494 18.8555L229.825 24.0908C230.258 24.4488 230.878 24.4683 231.333 24.1381C231.787 23.808 231.96 23.2119 231.754 22.6895L228.731 15.0443L235.675 10.6411C236.15 10.3403 236.36 9.75657 236.187 9.2222C236.014 8.68783 235.501 8.33841 234.94 8.37288L226.746 8.87684L224.686 0.922381Z" fill="#FFBD61"/>
<path fill-rule="evenodd" clip-rule="evenodd" d="M13.9446 96.79C13.8039 96.2469 13.3139 95.8676 12.7529 95.8676C12.1919 95.8676 11.7019 96.2469 11.5613 96.79L9.50142 104.744L1.30664 104.24C0.74632 104.206 0.233666 104.555 0.0602913 105.089C-0.113084 105.623 0.0967442 106.206 0.570418 106.508L7.49433 110.912L4.49209 118.56C4.28702 119.082 4.46127 119.677 4.91577 120.007C5.37026 120.336 5.98993 120.316 6.42242 119.958L12.7529 114.723L19.0834 119.958C19.5159 120.316 20.1356 120.336 20.5901 120.007C21.0446 119.677 21.2188 119.082 21.0137 118.56L18.0115 110.912L24.9354 106.508C25.4091 106.206 25.6189 105.623 25.4455 105.089C25.2722 104.555 24.7595 104.206 24.1992 104.24L16.0044 104.744L13.9446 96.79Z" fill="#FFBD61"/>
</g>
<defs>
<clipPath id="clip0">
<rect width="316" height="290" fill="white"/>
</clipPath>
</defs>
</svg>
