<svg width="317" height="290" viewBox="0 0 317 290" fill="none" xmlns="http://www.w3.org/2000/svg">
<path fill-rule="evenodd" clip-rule="evenodd" d="M288.236 180.804C278.364 184.304 267.279 185.817 259.711 185.679C259.032 185.666 258.491 185.105 258.503 184.425C258.515 183.746 259.076 183.205 259.756 183.217M288.236 180.804C298.023 177.334 307.05 171.755 309.843 163.473Z" fill="#631640"/>
<path d="M309.843 163.473C310.738 160.828 310.875 158.476 310.342 156.463C309.805 154.438 308.612 152.853 307.022 151.727C303.885 149.507 299.273 149.1 294.899 150.242C292.521 150.865 290.217 151.522 287.954 152.167C279.591 154.551 271.784 156.777 262.82 156.53C262.141 156.511 261.575 157.047 261.556 157.727C261.537 158.406 262.073 158.972 262.753 158.991L259.756 183.217C259.076 183.205 258.515 183.746 258.503 184.425C258.491 185.105 259.032 185.666 259.711 185.679C267.279 185.817 278.364 184.304 288.236 180.804C298.023 177.334 307.05 171.755 309.843 163.473Z" fill="#631640"/>
<path d="M72.7009 269.015C71.2894 267.899 69.9107 266.75 68.5649 265.568C67.3832 264.518 66.2178 263.443 65.0689 262.343L64.9212 262.22C54.8765 252.603 47.0975 240.872 42.1484 227.876C41.9022 227.162 41.6314 226.448 41.3852 225.734C39.6492 220.441 37.6 212.332 36.9291 206.802C37.2888 206.736 38.0697 202.233 38.16 201.878C39.2151 196.865 40.8682 195.419 43.0839 190.8C48.5573 204.655 47.5198 205.921 51.7006 190.8C68.6471 210.28 63.0626 198.519 62.7793 178.49C65.2011 180.261 69.4333 183.606 71.3961 185.876C76.32 191.046 75.9999 191.612 77.5509 190.8C79.1019 189.987 78.8558 188.264 78.7819 183.217C78.6053 180.989 79.5099 178.206 80.0129 176.028C82.0167 177.259 85.7214 179.303 87.3987 180.952C91.3377 184.423 90.7715 185.383 92.3225 184.645C93.8735 183.906 94.169 182.848 91.0915 174.797C89.7447 171.738 89.7635 168.224 89.0974 164.949C90.7715 164.949 98.4773 169.012 104.854 173.024C105.137 173.182 105.482 173.182 105.765 173.024C107.391 176.345 108.846 179.747 110.122 183.217C111.649 187.378 113.347 191.563 115.243 195.674C118.357 202.515 122.168 209.016 126.617 215.074C133.855 224.75 144.663 233.81 157.342 233.613C165.146 233.791 172.483 229.904 176.717 223.346L177.431 222.189L178.096 221.032L178.687 219.875C179.381 218.441 179.973 216.96 180.46 215.444C181.176 213.26 181.663 211.007 181.912 208.722C186.232 206.337 191.423 206.127 195.921 208.156V210.987C195.921 212.891 195.838 214.812 195.674 216.748C195.451 219.739 195.056 222.715 194.493 225.661C194.099 227.614 193.639 229.559 193.114 231.495C191.213 238.354 188.511 244.964 185.063 251.191C184.571 252.093 184.062 252.98 183.537 253.85C181.966 256.475 180.257 259.014 178.416 261.457C177.809 262.261 177.185 263.082 176.545 263.919C175.388 265.347 174.083 266.701 172.926 268.03L172.04 268.941C170.989 270.008 169.923 271.042 168.839 272.043L167.682 273.077C166.377 274.234 165.023 275.318 163.645 276.352C162.266 277.386 160.444 278.617 158.721 279.626C157.062 280.632 155.353 281.552 153.6 282.383C151.852 283.211 150.06 283.942 148.233 284.575C141.408 286.933 134.255 288.204 127.036 288.341C123.49 288.414 119.944 288.233 116.425 287.8C107.577 286.706 98.9594 284.213 90.8946 280.414C87.6467 278.883 84.4901 277.165 81.4408 275.268C78.4126 273.349 75.4947 271.262 72.7009 269.015Z" fill="#FF833E"/>
<path d="M44.3149 170.193C44.5857 179.918 44.1425 189.495 44.8073 198.998L44.955 199.589C45.9397 203.7 46.5552 206.064 47.7862 206.728C48.177 206.907 48.6264 206.907 49.0172 206.728C50.642 206.113 51.0359 203.109 51.4791 198.259C51.6077 196.227 51.9459 194.214 52.4885 192.252C54.4323 194.485 56.1787 196.882 57.7078 199.416C62.1885 206.261 64.0349 208.796 65.7583 208.304C67.4816 207.812 67.2601 204.907 65.4136 193.532C64.4939 189.192 63.9992 184.773 63.9364 180.336C66.3582 182.108 68.5716 184.148 70.5344 186.417C75.4583 191.587 77.5263 193.483 79.0773 192.671C80.6283 191.858 80.653 188.953 80.5791 183.906C80.4025 181.678 80.5686 179.437 81.0715 177.259C83.0754 178.49 84.9336 179.943 86.6108 181.592C90.5499 185.063 92.8641 186.984 94.4151 186.245C95.9662 185.506 95.203 182.528 92.1255 174.477C90.7787 171.418 89.7635 168.224 89.0974 164.949C90.7715 164.949 98.4773 169.012 104.854 173.024C105.137 173.182 105.482 173.182 105.765 173.024C107.391 176.345 108.846 179.747 110.122 183.217C103.943 166.328 93.3073 150.03 78.7819 139.099C59.6035 124.771 27.5737 118.173 15.0425 144.515C15.2887 143.998 15.5595 143.506 15.8303 142.989C17.6029 139.468 23.61 137.77 27.1552 138.065C42.2222 139.985 43.9702 158.204 44.3149 170.193Z" fill="white"/>
<path d="M68.5649 265.568C67.3832 264.51 66.103 263.427 65.0689 262.343L64.9212 262.22C54.7766 252.687 46.9813 240.931 42.1484 227.876C41.8776 227.162 41.6314 226.448 41.3606 225.685C39.6246 220.392 38.4124 214.942 37.7415 209.412C38.1013 209.346 38.3898 209.077 38.4801 208.722C39.5352 203.709 41.1883 198.841 43.404 194.222C44.0402 195.772 44.5265 197.38 44.8565 199.022C45.214 205.437 46.3043 211.789 48.1062 217.955C53.6702 236.345 64.355 253.579 80.9976 263.919C83.8898 265.742 86.8908 267.386 89.9837 268.843C109.31 277.804 132.083 279.035 151.95 268.424C161.816 263.011 170.202 255.259 176.373 245.848C182.955 235.933 187.561 224.84 189.938 213.179C190.003 212.961 190.052 212.739 190.086 212.514C190.43 207.59 195.748 207.442 195.748 207.442C195.748 208.378 196.044 210.273 196.019 211.234C196.019 213.138 195.937 215.058 195.773 216.995C195.508 219.905 195.08 222.798 194.493 225.661C194.099 227.614 193.639 229.559 193.114 231.495C191.213 238.354 188.511 244.964 185.063 251.191C184.571 252.093 184.062 252.988 183.537 253.874C181.966 256.499 180.257 259.039 178.416 261.482C177.809 262.286 177.185 263.107 176.545 263.944C175.388 265.371 174.083 266.726 172.926 268.055L172.04 268.966C170.989 270.033 169.923 271.067 168.839 272.068L167.682 273.102C166.377 274.259 165.023 275.342 163.645 276.376C160.519 278.711 157.171 280.731 153.649 282.408C151.901 283.235 150.11 283.967 148.282 284.599C141.457 286.957 134.304 288.228 127.085 288.366C123.54 288.439 119.994 288.258 116.474 287.824C107.626 286.731 99.0087 284.238 90.9438 280.439C87.6959 278.907 84.5394 277.189 81.49 275.293C76.9153 272.422 72.5916 269.168 68.5649 265.568Z" fill="#E25E24"/>
<path d="M43.3547 194.197C43.9909 195.747 44.4773 197.355 44.8073 198.998C44.1425 189.47 44.5611 179.893 44.3149 170.193C43.9948 158.228 42.2468 139.665 27.0814 137.868C23.5608 137.474 17.5537 139.468 15.7565 143.112C15.4857 143.604 15.2149 144.097 14.9687 144.638C14.9687 144.638 24.8164 136.662 31.5621 146.288C41.9268 161.059 35.6489 181.543 36.4859 198.309C36.5904 207.67 38.1946 216.954 41.2375 225.808C39.5015 220.515 38.2893 215.065 37.6184 209.535C37.9782 209.469 38.2667 209.2 38.357 208.846C39.4243 203.779 41.1024 198.86 43.3547 194.197Z" fill="#D8CFD3"/>
<path d="M20.5231 140.533C19.8341 140.698 19.1815 140.91 18.577 141.144L13.9309 143.987L14.281 145.482L15.8174 145.472C15.8178 145.471 15.8173 145.472 15.0425 144.515L16.1538 145.222C16.1651 145.214 16.1767 145.206 16.1886 145.197C16.446 145.015 16.8264 144.762 17.3048 144.484C18.2679 143.925 19.5961 143.286 21.0961 142.927C22.5924 142.569 24.2166 142.499 25.8183 143.017C27.4051 143.531 29.076 144.657 30.6283 146.872C32.8888 150.094 34.3314 153.613 35.2159 157.34L38.107 159.178C37.2526 154.333 35.6069 149.681 32.6436 145.458C30.8231 142.86 28.7331 141.373 26.5764 140.675C24.4345 139.982 22.3319 140.1 20.5231 140.533Z" fill="#631640"/>
<path d="M38.3003 182.626C38.5634 178.936 38.832 175.17 38.9015 171.45C38.9787 167.315 38.8127 163.181 38.107 159.178L35.2159 157.34C36.2697 161.782 36.5312 166.52 36.44 171.404C36.3718 175.053 36.1091 178.739 35.8463 182.425C35.7857 183.276 35.725 184.127 35.6668 184.977C35.3582 189.481 35.118 193.96 35.3292 198.224C35.6855 225.686 48.2032 249.235 67.7501 266.491C89.4623 285.737 120.296 295.617 148.685 285.812C163.64 280.634 176.068 268.827 184.593 254.59C193.12 240.351 197.814 223.566 197.2 208.279C197.172 207.6 196.6 207.071 195.92 207.099C195.241 207.126 194.713 207.699 194.74 208.378C195.332 223.127 190.794 239.443 182.481 253.325C174.167 267.209 162.148 278.544 147.88 283.485C120.532 292.931 90.6052 283.461 69.3814 264.647L69.3795 264.646C50.2796 247.784 38.1303 224.86 37.7907 198.17C37.7905 198.154 37.79 198.139 37.7892 198.124C37.5839 194.012 37.8142 189.651 38.1229 185.146C38.1801 184.311 38.2401 183.47 38.3003 182.626Z" fill="#631640"/>
<path d="M18.216 141.289C23.5712 132.81 31.4318 128.832 40.1151 127.967L44.4347 125.325C32.0694 125.172 20.4376 130.308 13.9309 143.987L18.577 141.144C18.4547 141.191 18.3343 141.24 18.216 141.289Z" fill="#631640"/>
<path d="M79.5186 138.113C69.7694 130.829 56.7209 125.476 44.4347 125.325L48.9367 128.082C59.2369 129.276 69.827 133.946 78.0435 140.084C83.7735 144.396 88.8955 149.564 93.3687 155.293L98.8915 158.675C93.5204 150.835 87.0399 143.773 79.5221 138.115L79.5186 138.113Z" fill="#631640"/>
<path d="M44.4347 125.325L40.1151 127.967C41.5255 127.827 42.9577 127.769 44.4043 127.786C45.9031 127.805 47.4168 127.906 48.9367 128.082L44.4347 125.325Z" fill="#631640"/>
<path d="M15.8314 145.461C15.8453 145.45 15.8681 145.432 15.8996 145.408C15.9568 145.365 16.0423 145.301 16.1538 145.222L15.0425 144.515C15.8173 145.472 15.8178 145.471 15.8174 145.472L15.8314 145.461Z" fill="#631640"/>
<path d="M14.281 145.482C14.7325 145.838 15.3707 145.833 15.8174 145.472L14.281 145.482Z" fill="#631640"/>
<path d="M13.9309 143.987C13.6839 144.506 13.8293 145.127 14.281 145.482L13.9309 143.987Z" fill="#631640"/>
<path d="M111.261 182.937L111.255 182.921C108.205 174.491 104.063 166.223 98.8915 158.675L93.3687 155.293C100.052 163.853 105.288 173.665 108.937 183.751C112.646 194.443 117.776 204.584 124.185 213.902L130.181 217.713C129.283 216.66 128.425 215.583 127.61 214.494C120.67 204.817 115.163 194.188 111.261 182.937Z" fill="#631640"/>
<path d="M80.6037 67.3584C75.8768 74.5473 90.0822 107.094 90.0822 107.094L111.033 70.4112C111.033 70.4112 85.3553 60.1696 80.6037 67.3584Z" fill="#FF833E"/>
<path d="M82.7456 65.6597C81.8825 66.0191 81.1396 66.6169 80.6037 67.383C75.8768 74.5719 90.0822 107.119 90.0822 107.119L92.9872 102.022C89.9098 95.1782 80.3821 73.144 82.7456 65.6597Z" fill="#E25E24"/>
<path d="M90.353 71.7899C87.6202 75.9506 95.8184 94.7351 95.8184 94.7351L107.907 73.5379C107.907 73.5379 93.0857 67.6292 90.353 71.7899Z" fill="white"/>
<path fill-rule="evenodd" clip-rule="evenodd" d="M87.3733 66.023C84.3587 66.0739 82.4519 66.7839 81.6333 68.0331C81.2214 68.6617 80.9442 69.6961 80.8838 71.1866C80.8245 72.6518 80.9791 74.4238 81.3053 76.4109C81.9573 80.3828 83.2675 85.0552 84.7401 89.5478C86.2098 94.032 87.8281 98.2974 89.0802 101.445C89.7059 103.017 90.2394 104.309 90.616 105.206C90.8043 105.655 90.9534 106.005 91.0551 106.242L91.1712 106.511L91.2007 106.579L91.2098 106.6L90.0822 107.094C88.9541 107.587 88.954 107.586 88.9538 107.586L88.943 107.561L88.9119 107.489L88.7924 107.212C88.6884 106.969 88.5369 106.614 88.346 106.159C87.9642 105.249 87.4248 103.944 86.7927 102.355C85.529 99.1786 83.8913 94.8627 82.4006 90.3146C80.9127 85.7751 79.5579 80.9645 78.8759 76.8097C78.535 74.7334 78.3553 72.7811 78.4239 71.0871C78.4915 69.4184 78.8043 67.8585 79.5741 66.6837C81.119 64.3262 84.1977 63.6144 87.3317 63.5614C90.5579 63.507 94.3303 64.1409 97.8752 64.9821C101.435 65.8267 104.836 66.8978 107.342 67.7551C108.596 68.1844 109.63 68.5613 110.351 68.8314C110.712 68.9665 110.995 69.0749 111.188 69.1499C111.285 69.1875 111.36 69.2166 111.41 69.2366L111.468 69.2595L111.488 69.2673C111.488 69.2675 111.49 69.2681 111.044 70.3845L111.488 69.2673C112.119 69.5195 112.429 70.2365 112.176 70.8678C111.924 71.4991 111.208 71.8065 110.577 71.5544C110.577 71.5544 110.577 71.5544 110.577 71.5544L110.561 71.548L110.508 71.5274L110.298 71.4454C110.113 71.3736 109.839 71.2685 109.488 71.137C108.785 70.8738 107.774 70.505 106.545 70.0845C104.084 69.2424 100.763 68.1977 97.3069 67.3775C93.8353 66.5537 90.2957 65.9737 87.3733 66.023ZM90.5749 108.222C89.9519 108.494 89.226 108.209 88.9538 107.586L90.0822 107.094L91.2098 106.6C91.4819 107.223 91.1979 107.95 90.5749 108.222Z" fill="#631640"/>
<path d="M146.485 33.95C139.099 33.95 134.175 55.2211 134.175 55.2211L166.156 56.6244C166.156 56.6244 153.797 33.95 146.485 33.95Z" fill="#FF833E"/>
<path d="M145.525 42.6406C141.093 42.6406 138.139 55.5412 138.139 55.5412L157.564 56.3782C157.564 56.3782 149.956 42.6406 145.525 42.6406Z" fill="white"/>
<path fill-rule="evenodd" clip-rule="evenodd" d="M135.498 55.4987L135.501 55.4864L135.511 55.4441L135.552 55.273C135.588 55.1218 135.644 54.8983 135.717 54.6127C135.863 54.0415 136.081 53.2229 136.366 52.2396C136.936 50.2699 137.769 47.6543 138.824 45.0477C139.886 42.4275 141.147 39.8826 142.553 38.0137C143.998 36.0918 145.371 35.181 146.608 35.181C147.226 35.181 148.005 35.4228 148.947 35.9818C149.879 36.5352 150.889 37.3504 151.945 38.3733C154.058 40.4193 156.238 43.1795 158.22 45.9852C160.197 48.7827 161.949 51.5855 163.208 53.6924C163.837 54.7448 164.342 55.6213 164.689 56.2335C164.863 56.5396 164.997 56.7795 165.087 56.9422L165.189 57.127L165.214 57.1733L165.222 57.1871C165.546 57.7844 166.294 58.006 166.891 57.6813C167.489 57.3567 167.71 56.6093 167.385 56.012L166.304 56.5998C167.385 56.012 167.385 56.0123 167.385 56.012L167.375 55.9934L167.347 55.9426L167.24 55.7486C167.146 55.5795 167.009 55.3328 166.831 55.0196C166.476 54.3932 165.962 53.5001 165.321 52.4291C164.042 50.2891 162.255 47.4296 160.231 44.5646C158.213 41.7079 155.93 38.8057 153.658 36.6048C152.521 35.5043 151.358 34.55 150.203 33.8647C149.058 33.1851 147.837 32.7191 146.608 32.7191C144.152 32.7191 142.14 34.4671 140.585 36.5336C138.991 38.653 137.635 41.4259 136.543 44.1234C135.444 46.8346 134.585 49.5368 134.001 51.5554C133.708 52.5663 133.484 53.4095 133.332 54.0015C133.256 54.2976 133.198 54.5311 133.159 54.6915L133.115 54.8761L133.104 54.925L133.1 54.9381L133.1 54.9418C133.1 54.9421 133.099 54.9435 134.298 55.2211L133.1 54.9418C132.946 55.6041 133.359 56.267 134.021 56.4204C134.683 56.5737 135.344 56.161 135.498 55.4987Z" fill="#631640"/>
<path d="M262.91 98.2803C262.27 93.3564 258.478 90.8945 253.825 92.9625C241.885 98.231 231.126 102.269 224.282 104.706C227.015 112.092 233.145 117.434 242.943 121.004C247.664 118.386 252.06 115.221 256.041 111.575C259.881 108.128 263.624 103.77 262.91 98.2803Z" fill="#E25E24"/>
<path d="M257.001 95.0551C258.275 94.3655 259.715 94.0417 261.162 94.1196C259.28 92.0455 256.211 91.5545 253.776 92.9379C241.836 98.2064 231.077 102.244 224.233 104.681C224.881 106.279 225.707 107.798 226.695 109.211C233.884 106.158 244.814 101.284 257.001 95.0551Z" fill="#FF833E"/>
<path d="M278.051 146.953C263.722 128.537 238.487 123.195 223.494 105.346L214.188 93.7011C206.507 83.6318 198.85 73.5379 188.707 66.1275C162.423 47.0169 126.004 50.5583 103.894 74.3749C90.2545 89.1465 88.5065 112.855 88.4573 131.984C88.4855 142.248 90.0285 152.452 93.0365 162.266L97.9603 175.733C101.287 183.209 105.379 190.321 110.172 196.954C129.375 223.716 155.102 243.583 187.107 250.181V250.378C202.346 250.378 217.561 250.92 231.815 247.916C231.971 247.615 232.266 247.412 232.603 247.375C238.323 246.208 243.823 244.147 248.901 241.269C252.594 239.152 255.721 236.345 259.192 233.883C258.601 233.711 258.035 233.514 257.42 233.366L259.217 233.834C269.344 225.865 277.611 215.783 283.442 204.291C292.725 185.714 290.634 163.474 278.051 146.953Z" fill="#FF833E"/>
<path d="M274.136 217.881C200.278 257.764 135.849 218.669 117.163 192.671C112.385 186.02 108.309 178.891 105.001 171.4L100.078 157.933C97.0696 148.119 95.5266 137.915 95.4984 127.651C95.4984 108.547 97.2956 84.7643 110.935 70.0419C113.871 66.8882 117.121 64.0422 120.635 61.5483C114.382 64.8863 108.725 69.2372 103.894 74.4242C90.2545 89.1957 88.5065 112.904 88.4573 132.033C88.4855 142.298 90.0285 152.501 93.0365 162.315L97.9603 175.782C101.29 183.242 105.382 190.337 110.172 196.954C128.931 223.026 153.945 242.574 184.916 249.615C248.655 257.764 273.89 219.826 274.136 217.881Z" fill="#E25E24"/>
<path fill-rule="evenodd" clip-rule="evenodd" d="M222.702 104.403C223.223 103.966 223.999 104.034 224.437 104.554C231.606 113.089 241.185 118.723 250.966 124.476C251.193 124.609 251.419 124.743 251.646 124.876C261.594 130.729 271.692 136.776 279.022 146.197L279.031 146.208C291.837 163.069 293.974 185.734 284.544 204.691L284.541 204.699C265.34 242.65 227.236 256.596 186.95 251.402C154.083 247.178 128.46 224.553 109.171 197.672C104.343 190.952 100.225 183.75 96.8835 176.181C96.6089 175.559 96.8905 174.832 97.5124 174.557C98.1343 174.283 98.8611 174.564 99.1357 175.186C102.409 182.6 106.442 189.654 111.171 196.236L111.172 196.237C130.289 222.879 155.382 244.863 187.264 248.96L187.264 248.961C226.793 254.057 263.727 240.381 282.342 203.591C291.351 185.475 289.31 163.817 277.075 147.703C270.077 138.712 260.395 132.881 250.397 126.998C250.123 126.837 249.849 126.675 249.575 126.514C239.902 120.826 229.998 115.002 222.552 106.138C222.114 105.617 222.182 104.841 222.702 104.403Z" fill="#631640"/>
<path d="M211.726 104.287C204.34 95.4491 198.727 85.4536 200.081 76.3199C199.54 75.7044 198.727 74.8427 198.186 74.2272C195.285 78.3463 190.848 81.1239 185.876 81.9331C173.936 84.395 157.219 74.7442 146.337 80.8498C145.303 81.6837 144.18 82.402 142.989 82.9917C140.965 84.3574 139.281 86.168 138.065 88.2848C135.445 93.4373 133.278 98.8082 131.59 104.337C127.855 114.957 118.067 122.264 106.823 122.826C111.476 129.35 129.596 133.141 148.208 143.112C169.233 135.702 193.04 123.638 211.726 104.287Z" fill="white"/>
<path d="M274.702 157.391C264.855 142.029 247.227 133.092 232.726 122.924C228.266 119.8 224.022 116.378 220.023 112.683C207.468 132.002 190.356 147.939 170.193 159.09C180.927 169.578 189.889 181.789 199.958 192.818C208.009 201.583 217.93 209.387 230.264 210.052C254.835 211.504 292.231 184.891 274.702 157.391Z" fill="white"/>
<path d="M95.4245 155.102C94.6367 155.102 99.1174 167.534 98.4281 167.83C99.5744 172.45 101.115 176.964 103.032 181.321C126.639 178.337 149.445 170.813 170.193 159.164C163.599 152.839 156.138 147.484 148.036 143.26C131.037 149.302 113.373 153.277 95.4245 155.102Z" fill="#E25E24"/>
<path d="M219.998 112.707C217.083 110.06 214.321 107.249 211.726 104.287C192.942 123.638 169.135 135.702 147.938 143.186C156.04 147.41 163.5 152.765 170.095 159.09C190.282 147.956 207.42 132.027 219.998 112.707Z" fill="#D8CFD3"/>
<path d="M95.6954 175.88C91.9045 175.809 88.8352 172.778 88.7169 168.988C88.5987 165.199 91.4731 161.982 95.2522 161.675C96.3108 161.675 177.604 155.643 212.391 95.843C214.444 92.4772 218.779 91.3176 222.239 93.2087C223.896 94.1244 225.115 95.6693 225.62 97.4944C226.125 99.3196 225.873 101.271 224.922 102.909C186.196 169.529 99.8068 175.659 96.1631 175.88H95.6954Z" fill="#631640"/>
<path fill-rule="evenodd" clip-rule="evenodd" d="M259.136 94.0613C257.939 93.3359 256.264 93.1819 254.227 94.0874C242.346 99.373 231.556 103.398 224.595 105.866C223.099 106.397 222.276 104.076 223.772 103.546C230.696 101.09 241.423 97.0891 253.226 91.8378C255.842 90.6753 258.39 90.7303 260.412 91.956C262.416 93.1705 263.676 95.3964 264.032 98.1208C264.834 104.291 260.608 109.042 256.82 112.486C252.721 116.207 248.195 119.429 243.337 122.084C243.003 122.267 241.926 120.049 242.156 119.924C246.843 117.362 251.21 114.254 255.164 110.663C258.958 107.214 262.216 103.25 261.591 98.4397M259.136 94.0613C260.351 94.7978 261.306 96.2652 261.591 98.4397Z" fill="#631640"/>
<path d="M222.632 96.9016C221.968 97.8864 219.85 97.9356 217.93 96.9016C216.01 95.8676 215 94.4397 215.665 93.4303C216.33 92.4209 218.447 92.3963 220.368 93.4303C222.288 94.4643 223.297 96.0153 222.632 96.9016Z" fill="#D284B2"/>
<path d="M123.121 105.051C126.52 105.051 129.276 102.295 129.276 98.8957C129.276 95.4965 126.52 92.7409 123.121 92.7409C119.722 92.7409 116.966 95.4965 116.966 98.8957C116.966 102.295 119.722 105.051 123.121 105.051Z" fill="white"/>
<path d="M123.121 102.589C125.161 102.589 126.814 100.935 126.814 98.8957C126.814 96.8562 125.161 95.2029 123.121 95.2029C121.082 95.2029 119.428 96.8562 119.428 98.8957C119.428 100.935 121.082 102.589 123.121 102.589Z" fill="#631640"/>
<path d="M125.583 100.127C126.263 100.127 126.814 99.5756 126.814 98.8957C126.814 98.2159 126.263 97.6648 125.583 97.6648C124.903 97.6648 124.352 98.2159 124.352 98.8957C124.352 99.5756 124.903 100.127 125.583 100.127Z" fill="white"/>
<path d="M169.898 77.9693C173.297 77.9693 176.053 75.2137 176.053 71.8145C176.053 68.4153 173.297 65.6597 169.898 65.6597C166.499 65.6597 163.743 68.4153 163.743 71.8145C163.743 75.2137 166.499 77.9693 169.898 77.9693Z" fill="white"/>
<path d="M169.898 75.5074C171.937 75.5074 173.591 73.854 173.591 71.8145C173.591 69.775 171.937 68.1216 169.898 68.1216C167.858 68.1216 166.205 69.775 166.205 71.8145C166.205 73.854 167.858 75.5074 169.898 75.5074Z" fill="#631640"/>
<path d="M174.822 70.5835C175.502 70.5835 176.053 70.0324 176.053 69.3526C176.053 68.6727 175.502 68.1216 174.822 68.1216C174.142 68.1216 173.591 68.6727 173.591 69.3526C173.591 70.0324 174.142 70.5835 174.822 70.5835Z" fill="white"/>
<path fill-rule="evenodd" clip-rule="evenodd" d="M150.841 80.3597C150.653 80.0127 150.343 79.8427 150.088 79.7679C149.846 79.6967 149.602 79.6933 149.402 79.7078C148.998 79.737 148.536 79.8588 148.078 80.0138C147.146 80.3295 146.007 80.8622 144.93 81.4482C143.851 82.0349 142.789 82.6997 142.016 83.2964C141.636 83.5898 141.285 83.8975 141.039 84.1962C140.918 84.3427 140.784 84.5328 140.7 84.7556C140.616 84.9797 140.543 85.3531 140.744 85.7351C140.75 85.7463 140.756 85.7575 140.762 85.7685C141.107 86.3646 141.729 86.7674 142.312 87.0401C142.924 87.3259 143.636 87.5345 144.336 87.6708C145.038 87.8075 145.76 87.8779 146.402 87.8701C146.582 87.8679 146.767 87.8596 146.951 87.8422L147.689 89.2198C146.171 91.2511 146.009 94.0433 147.372 96.2606C148.054 97.6914 149.08 98.8312 150.263 99.4752C151.473 100.134 152.94 100.305 154.231 99.5342C154.309 99.4875 154.382 99.4322 154.448 99.3695C156.573 97.3499 157.016 94.1311 155.522 91.6149C154.827 90.1796 153.794 89.0426 152.616 88.3876C151.741 87.9007 150.729 87.6592 149.742 87.8389L149.131 86.6987C149.248 86.5602 149.358 86.4163 149.46 86.2732C149.833 85.7491 150.187 85.1125 150.472 84.453C150.755 83.7959 150.984 83.083 151.084 82.4061C151.181 81.7557 151.179 81.003 150.848 80.3717L150.848 80.3716L150.841 80.3597ZM149.415 91.0671C149.611 91.0672 149.811 91.0202 149.996 90.921C150.276 90.771 150.475 90.528 150.574 90.2506C150.823 90.2763 151.106 90.3649 151.42 90.5394C152.098 90.9161 152.814 91.6539 153.325 92.7281C153.343 92.7658 153.363 92.8026 153.385 92.8382C154.29 94.3285 154.067 96.2356 152.861 97.4769C152.51 97.6376 152.033 97.6355 151.441 97.3131C150.778 96.952 150.07 96.2228 149.57 95.1507C149.548 95.1032 149.523 95.0572 149.495 95.013C148.722 93.7899 148.722 92.269 149.415 91.0671Z" fill="#631640"/>
<path fill-rule="evenodd" clip-rule="evenodd" d="M102.991 73.5374C125.526 49.2642 162.643 45.6549 189.431 65.1318L189.433 65.1335C199.625 72.5798 207.326 82.6748 214.898 92.6025L215.167 92.9545C215.579 93.495 215.475 94.2675 214.935 94.6798C214.394 95.0921 213.622 94.9882 213.209 94.4477L213.043 94.23C205.398 84.2069 197.883 74.3556 187.981 67.1214C162.201 48.3794 126.482 51.853 104.797 75.2114C98.1825 82.3755 94.4055 91.7588 92.2836 101.8C90.1622 111.838 89.7129 122.446 89.6882 131.984C89.7165 142.126 91.2413 152.208 94.2134 161.905C94.4126 162.555 94.0472 163.244 93.3972 163.443C92.7472 163.642 92.0588 163.277 91.8595 162.627C88.8161 152.697 87.2549 142.373 87.2263 131.987L87.2263 131.981C87.251 122.391 87.7004 111.581 89.8749 101.291C92.0489 91.0033 95.9651 81.1471 102.989 73.5399L102.991 73.5374Z" fill="#631640"/>
<path d="M79.1313 225.223C80.919 222.332 80.0245 218.539 77.1333 216.751C74.2422 214.963 70.4492 215.858 68.6615 218.749C66.8738 221.64 67.7683 225.433 70.6595 227.221C73.5506 229.008 77.3436 228.114 79.1313 225.223Z" fill="#E25E24"/>
<path d="M72.1182 241.168C73.1908 239.433 72.6541 237.157 70.9194 236.085C69.1847 235.012 66.909 235.549 65.8363 237.283C64.7637 239.018 65.3004 241.294 67.0351 242.366C68.7698 243.439 71.0456 242.902 72.1182 241.168Z" fill="#E25E24"/>
<path d="M160.736 251.001C161.808 249.267 161.272 246.991 159.537 245.918C157.802 244.846 155.527 245.382 154.454 247.117C153.381 248.852 153.918 251.128 155.653 252.2C157.387 253.273 159.663 252.736 160.736 251.001Z" fill="#E25E24"/>
<path d="M87.057 239.286C87.7721 238.129 87.4143 236.612 86.2578 235.897C85.1014 235.182 83.5842 235.54 82.8691 236.696C82.154 237.853 82.5118 239.37 83.6683 240.085C84.8248 240.8 86.3419 240.442 87.057 239.286Z" fill="#E25E24"/>
<path d="M108.85 112.582C110.281 110.269 109.566 107.235 107.253 105.804C104.94 104.374 101.906 105.089 100.475 107.401C99.0446 109.714 99.7597 112.749 102.072 114.179C104.385 115.61 107.42 114.895 108.85 112.582Z" fill="#E25E24"/>
<path d="M118.863 78.6784C119.936 76.9437 119.399 74.668 117.664 73.5953C115.93 72.5227 113.654 73.0594 112.581 74.7941C111.509 76.5288 112.045 78.8046 113.78 79.8772C115.515 80.9498 117.79 80.4131 118.863 78.6784Z" fill="#E25E24"/>
<path d="M119.061 113.73C119.776 112.574 119.418 111.057 118.262 110.342C117.105 109.627 115.588 109.984 114.873 111.141C114.158 112.297 114.516 113.814 115.672 114.53C116.829 115.245 118.346 114.887 119.061 113.73Z" fill="#E25E24"/>
<path d="M119.055 140.831C119.771 139.675 119.413 138.158 118.257 137.442C117.1 136.727 115.583 137.085 114.868 138.241C114.153 139.397 114.51 140.915 115.666 141.63C116.823 142.345 118.34 141.988 119.055 140.831Z" fill="#E25E24"/>
<path d="M138.566 196.85C139.639 195.116 139.102 192.84 137.367 191.767C135.633 190.695 133.357 191.231 132.284 192.966C131.212 194.701 131.748 196.977 133.483 198.049C135.218 199.122 137.493 198.585 138.566 196.85Z" fill="#E25E24"/>
<path d="M170.753 170.367C171.468 169.21 171.111 167.693 169.954 166.978C168.798 166.263 167.28 166.621 166.565 167.777C165.85 168.934 166.208 170.451 167.365 171.166C168.521 171.881 170.038 171.523 170.753 170.367Z" fill="#E25E24"/>
<path opacity="0.3" d="M129.572 2.46193C90.605 2.50126 56.7941 29.3632 47.9455 67.3117C39.0969 105.26 57.5398 144.306 92.4702 161.576C147.347 155.545 189.84 135.012 213.228 92.2485C213.359 90.2954 213.425 88.3177 213.425 86.3153C213.411 40.01 175.877 2.47552 129.572 2.46193Z" fill="white"/>
<g style="mix-blend-mode:multiply" opacity="0.55">
<path d="M62.4101 92.347C56.7329 71.2136 58.8295 48.7444 68.3187 29.0262C50.1715 48.4151 42.2782 75.2525 47.0386 101.379C51.799 127.505 68.6507 149.834 92.4702 161.576C102.965 160.452 113.376 158.651 123.638 156.185C93.6296 146.817 70.5177 122.72 62.4101 92.347Z" fill="#9FCBE3"/>
</g>
<path d="M128.439 182.331C129.256 166.133 129.256 149.905 128.439 133.707C128.144 127.577 132.55 124.426 138.287 125.805C145.476 127.528 147.716 133.19 150.301 139.419C153.506 147.175 155.539 155.364 156.333 163.718C156.691 167.449 156.814 171.199 156.702 174.945" fill="#FF833E"/>
<path d="M138.951 174.551C138.799 160.752 137.215 147.007 134.225 133.535C133.342 130.638 134.318 127.495 136.686 125.608C134.41 125.189 132.073 125.899 130.414 127.514C128.756 129.128 127.983 131.446 128.341 133.732C129.695 160.813 128.538 183.414 128.538 183.414C128.538 183.414 138.951 181.937 138.951 174.551Z" fill="#E25E24"/>
<path fill-rule="evenodd" clip-rule="evenodd" d="M154.351 147.154C175.972 137.405 198.771 121.673 213.448 96.4739C215.161 93.6777 218.767 92.7154 221.646 94.2874C223.012 95.0432 224.017 96.3174 224.434 97.8227C224.85 99.3287 224.643 100.939 223.858 102.29L223.856 102.293C207.15 131.194 181.071 148.631 157.011 159.107C156.41 155.063 155.521 151.068 154.351 147.154ZM153.607 144.788C174.858 135.161 197.051 119.741 211.327 95.2235L211.34 95.2017C213.735 91.275 218.793 89.9223 222.829 92.1286L222.834 92.1312C224.781 93.207 226.213 95.022 226.806 97.1662C227.399 99.31 227.104 101.602 225.987 103.526C208.781 133.292 181.881 151.07 157.349 161.644C157.426 162.295 157.496 162.947 157.558 163.601C157.921 167.383 158.046 171.184 157.932 174.982C157.912 175.661 157.345 176.196 156.665 176.175C155.986 176.155 155.451 175.588 155.472 174.908C155.582 171.213 155.46 167.514 155.107 163.835C154.325 155.603 152.321 147.532 149.163 139.889L149.122 139.79C146.968 134.599 145.19 130.317 141.001 128.11C140.117 127.645 139.125 127.271 137.999 127.002C136.397 126.616 134.974 126.635 133.786 126.963C133.047 127.167 132.399 127.491 131.855 127.913C130.455 128.999 129.536 130.895 129.668 133.647C130.487 149.885 130.487 166.154 129.668 182.393C129.634 183.072 129.056 183.594 128.377 183.56C127.698 183.526 127.175 182.948 127.21 182.269C127.387 178.751 127.526 175.232 127.626 171.713C117.348 174.405 106.856 176.21 96.2671 177.107C96.2325 177.11 96.1978 177.111 96.1631 177.111H95.6723C91.2256 177.028 87.6252 173.472 87.4866 169.027C87.348 164.585 90.7148 160.814 95.1431 160.449C106.202 159.386 117.137 157.291 127.805 154.193C127.751 147.382 127.553 140.573 127.21 133.769L127.209 133.767C127.047 130.389 128.184 127.645 130.347 125.967C132.493 124.303 135.437 123.854 138.574 124.608C146.26 126.451 148.771 132.51 151.246 138.485L151.439 138.949C152.233 140.871 152.956 142.818 153.607 144.788ZM95.3699 162.9C106.352 161.845 117.214 159.787 127.819 156.751C127.83 160.884 127.787 165.017 127.692 169.149C117.347 171.902 106.779 173.742 96.111 174.649H95.7074C92.5774 174.585 90.045 172.08 89.9473 168.95C89.8495 165.816 92.2266 163.156 95.3519 162.902L95.3699 162.9Z" fill="#631640"/>
<path fill-rule="evenodd" clip-rule="evenodd" d="M142.114 4.59975C101.781 -1.60372 62.9554 22.55 50.6949 61.4719C38.4343 100.394 56.4074 142.439 93.0142 160.472C93.624 160.773 93.8749 161.511 93.5745 162.12C93.274 162.73 92.5361 162.981 91.9263 162.681C54.2293 144.111 35.721 100.813 48.3467 60.7322C60.9723 20.6512 100.955 -4.22177 142.489 2.16643C184.023 8.55463 214.683 44.2928 214.68 86.3153C214.68 88.3284 214.614 90.3334 214.481 92.3304C214.436 93.0088 213.849 93.522 213.171 93.4768C212.492 93.4315 211.979 92.845 212.024 92.1666C212.154 90.2245 212.219 88.2741 212.219 86.3152C212.221 45.5079 182.448 10.8032 142.114 4.59975Z" fill="#631640"/>
<g style="mix-blend-mode:multiply" opacity="0.55">
<path d="M191.612 49.9526C190.033 49.957 188.559 49.1598 187.698 47.8353C179.862 35.7866 168.47 26.4764 155.102 21.1972C153.454 20.6547 152.242 19.2447 151.952 17.534C151.663 15.8234 152.344 14.0931 153.722 13.039C155.1 11.9848 156.948 11.7799 158.524 12.5066C173.691 18.4977 186.616 29.0647 195.502 42.7391C196.429 44.1757 196.498 46.0034 195.683 47.506C194.867 49.0086 193.297 49.9467 191.588 49.9526H191.612Z" fill="#9FCBE3"/>
</g>
<g style="mix-blend-mode:multiply" opacity="0.55">
<path d="M117.286 17.4059C114.876 17.3737 112.885 15.5147 112.687 13.1119C112.489 10.7092 114.15 8.5499 116.523 8.12438C124.151 6.86674 131.921 6.71749 139.592 7.68123C141.999 8.16334 143.624 10.4247 143.313 12.8602C143.002 15.2956 140.861 17.0762 138.41 16.9381C131.685 16.0636 124.869 16.1631 118.173 17.2335L117.286 17.4059Z" fill="#9FCBE3"/>
</g>
<g style="mix-blend-mode:multiply" opacity="0.55">
<path d="M86.1923 38.5785C89.5915 38.5785 92.3471 35.8229 92.3471 32.4236C92.3471 29.0244 89.5915 26.2688 86.1923 26.2688C82.7931 26.2688 80.0375 29.0244 80.0375 32.4236C80.0375 35.8229 82.7931 38.5785 86.1923 38.5785Z" fill="#9FCBE3"/>
</g>
<g style="mix-blend-mode:multiply" opacity="0.55">
<path d="M97.271 45.9642C98.6307 45.9642 99.7329 44.862 99.7329 43.5023C99.7329 42.1426 98.6307 41.0404 97.271 41.0404C95.9113 41.0404 94.809 42.1426 94.809 43.5023C94.809 44.862 95.9113 45.9642 97.271 45.9642Z" fill="#9FCBE3"/>
</g>
<g style="mix-blend-mode:multiply" opacity="0.55">
<path d="M83.7304 50.8881C85.7699 50.8881 87.4233 49.2347 87.4233 47.1952C87.4233 45.1557 85.7699 43.5023 83.7304 43.5023C81.6908 43.5023 80.0375 45.1557 80.0375 47.1952C80.0375 49.2347 81.6908 50.8881 83.7304 50.8881Z" fill="#9FCBE3"/>
</g>
<path d="M228.96 220.934C220.549 223.021 211.818 223.489 203.232 222.312C200.894 221.968 195.453 220.687 195.453 220.687C194.83 224.103 194.452 227.558 194.32 231.028C197.004 231.446 200.771 231.914 202.789 232.037C211.446 232.494 220.11 231.299 228.32 228.516C235.952 226.054 248.68 220.909 248.138 211.135C244.15 216.773 235.016 219.481 228.96 220.934Z" fill="#E25E24"/>
<path fill-rule="evenodd" clip-rule="evenodd" d="M249.496 210.295C249.755 212.361 249.302 214.673 248.059 217.173C244.169 225.006 234.47 229.309 224.301 231.42C214.045 233.55 202.855 233.546 195.364 232.392C194.692 232.288 194.231 231.66 194.335 230.988C194.438 230.316 195.067 229.855 195.739 229.959C201.202 230.801 208.784 231.009 216.474 230.16C218.039 229.213 220.087 227.84 219.949 227.212C219.841 226.719 218.436 226.69 217.006 226.66C215.507 226.629 213.981 226.597 213.893 226.03C213.808 225.486 215.448 224.901 217.114 224.307C218.844 223.69 220.603 223.062 220.491 222.46C220.375 221.843 217.41 221.716 214.587 221.595C212.006 221.485 209.545 221.379 209.486 220.909C209.422 220.4 212.469 219.462 215.4 218.559C218.135 217.717 220.771 216.906 220.688 216.502C220.604 216.095 219.176 216.107 217.706 216.12C216.151 216.133 214.548 216.146 214.434 215.665C214.321 215.187 216.075 214.607 217.813 214.032C219.479 213.481 221.13 212.935 221.106 212.489C221.083 212.059 218.805 211.98 216.409 211.897C213.735 211.805 210.914 211.708 210.914 211.111C210.914 210.175 215.95 207.646 217.705 206.792C212.606 207.239 207.431 207.29 201.998 206.392C201.327 206.281 200.873 205.647 200.984 204.977C201.095 204.306 201.728 203.852 202.399 203.963C211.262 205.427 219.31 204.269 227.937 203.028C230.254 202.695 232.613 202.356 235.04 202.06C239.518 201.514 244.032 202.537 246.842 205.157C248.267 206.486 249.236 208.217 249.496 210.295Z" fill="#631640"/>
</svg>
