<?xml version="1.0" encoding="UTF-8"?>
<svg width="108px" height="122px" viewBox="0 0 108 122" version="1.1" xmlns="http://www.w3.org/2000/svg" xmlns:xlink="http://www.w3.org/1999/xlink">
    <!-- Generator: Sketch 42 (36781) - http://www.bohemiancoding.com/sketch -->
    <title>Page 1</title>
    <desc>Created with Sketch.</desc>
    <defs></defs>
    <g id="Page-1" stroke="none" stroke-width="1" fill="none" fill-rule="evenodd">
        <g id="Desktop" transform="translate(-14.000000, -1.000000)">
            <g id="Page-1" transform="translate(14.000000, 2.000000)">
                <path d="M83.2888,100.2058 C80.1428,100.2058 77.0908,99.7108 74.3278,99.2618 C72.1468,98.9068 70.6668,96.8518 71.0208,94.6718 C71.3758,92.4908 73.4218,91.0048 75.6108,91.3648 C78.8048,91.8848 82.1078,92.4188 85.1268,92.1198 C87.9948,91.8348 90.4178,90.7298 91.7708,89.0918 C93.2478,87.3038 93.8368,84.4468 93.3868,81.2558 C92.9808,78.3858 91.8768,75.5348 90.7078,72.5178 L90.1708,71.1228 C87.8378,65.0198 85.6278,57.8008 86.9248,50.5268 C88.2408,43.1318 94.3808,35.1368 103.1658,34.8868 C105.3378,34.8108 107.2148,36.5628 107.2768,38.7708 C107.3408,40.9788 105.6008,42.8198 103.3928,42.8828 C99.0588,43.0068 95.5578,47.6748 94.8008,51.9298 C93.8498,57.2638 95.6048,62.9348 97.6428,68.2688 L98.1678,69.6268 C99.4488,72.9348 100.7738,76.3538 101.3088,80.1388 C102.0828,85.6288 100.8868,90.6178 97.9388,94.1858 C95.2128,97.4868 90.9438,99.5798 85.9188,100.0808 C85.0378,100.1678 84.1588,100.2058 83.2888,100.2058" id="Fill-1" fill="#641340"></path>
                <path d="M83.2888,100.2058 C80.1428,100.2058 77.0908,99.7108 74.3278,99.2618 C72.1468,98.9068 70.6668,96.8518 71.0208,94.6718 C71.3758,92.4908 73.4218,91.0048 75.6108,91.3648 C78.8048,91.8848 82.1078,92.4188 85.1268,92.1198 C87.9948,91.8348 90.4178,90.7298 91.7708,89.0918 C93.2478,87.3038 93.8368,84.4468 93.3868,81.2558 C92.9808,78.3858 91.8768,75.5348 90.7078,72.5178 L90.1708,71.1228 C87.8378,65.0198 85.6278,57.8008 86.9248,50.5268 C88.2408,43.1318 94.3808,35.1368 103.1658,34.8868 C105.3378,34.8108 107.2148,36.5628 107.2768,38.7708 C107.3408,40.9788 105.6008,42.8198 103.3928,42.8828 C99.0588,43.0068 95.5578,47.6748 94.8008,51.9298 C93.8498,57.2638 95.6048,62.9348 97.6428,68.2688 L98.1678,69.6268 C99.4488,72.9348 100.7738,76.3538 101.3088,80.1388 C102.0828,85.6288 100.8868,90.6178 97.9388,94.1858 C95.2128,97.4868 90.9438,99.5798 85.9188,100.0808 C85.0378,100.1678 84.1588,100.2058 83.2888,100.2058 Z" id="Stroke-3" stroke="#641340" stroke-width="0.75" stroke-linecap="round" stroke-linejoin="round"></path>
                <path d="M103.1658,34.8865 C100.2308,34.9705 97.6008,35.9315 95.3368,37.4325 C95.3058,39.0135 95.5938,40.5695 96.4718,42.1425 C97.0548,43.1865 97.8278,44.1075 98.7228,44.8995 C100.0658,43.7145 101.6608,42.9325 103.3928,42.8825 C105.6018,42.8205 107.3408,40.9795 107.2768,38.7715 C107.2148,36.5635 105.3378,34.8115 103.1658,34.8865" id="Fill-5" fill="#FFFFFF"></path>
                <path d="M106.6375,36.7508 C106.6405,36.8028 106.6565,36.8508 106.6575,36.9028 C106.7255,39.2738 104.8585,41.2508 102.4865,41.3168 C100.6265,41.3708 98.9145,42.2108 97.4715,43.4818 C97.3595,43.3828 97.2545,43.2738 97.1455,43.1708 C97.6085,43.7998 98.1355,44.3798 98.7225,44.8988 C100.0665,43.7148 101.6605,42.9328 103.3925,42.8828 C105.6015,42.8198 107.3405,40.9798 107.2775,38.7718 C107.2555,38.0248 107.0145,37.3398 106.6375,36.7508" id="Fill-7" fill="#D9CFD3"></path>
                <path d="M83.2888,100.2058 C80.1428,100.2058 77.0908,99.7108 74.3278,99.2618 C72.1468,98.9068 70.6668,96.8518 71.0208,94.6718 C71.3758,92.4908 73.4218,91.0048 75.6108,91.3648 C78.8048,91.8848 82.1078,92.4188 85.1268,92.1198 C87.9948,91.8348 90.4178,90.7298 91.7708,89.0918 C93.2478,87.3038 93.8368,84.4468 93.3868,81.2558 C92.9808,78.3858 91.8768,75.5348 90.7078,72.5178 L90.1708,71.1228 C87.8378,65.0198 85.6278,57.8008 86.9248,50.5268 C88.2408,43.1318 94.3808,35.1368 103.1658,34.8868 C105.3378,34.8108 107.2148,36.5628 107.2768,38.7708 C107.3408,40.9788 105.6008,42.8198 103.3928,42.8828 C99.0588,43.0068 95.5578,47.6748 94.8008,51.9298 C93.8498,57.2638 95.6048,62.9348 97.6428,68.2688 L98.1678,69.6268 C99.4488,72.9348 100.7738,76.3538 101.3088,80.1388 C102.0828,85.6288 100.8868,90.6178 97.9388,94.1858 C95.2128,97.4868 90.9438,99.5798 85.9188,100.0808 C85.0378,100.1678 84.1588,100.2058 83.2888,100.2058 Z" id="Stroke-9" stroke="#641340" stroke-width="0.75" stroke-linecap="round" stroke-linejoin="round"></path>
                <path d="M101.9861,112.3553 C101.9861,116.9513 79.1561,120.6763 50.9931,120.6763 C22.8301,120.6763 0.0001,116.9513 0.0001,112.3553 C0.0001,107.7593 22.8301,104.0343 50.9931,104.0343 C79.1561,104.0343 101.9861,107.7593 101.9861,112.3553" id="Fill-11" fill="#D9CFD3"></path>
                <path d="M86.5457,77.5027 C86.4867,75.8497 86.1897,74.2177 85.8377,72.6047 C84.2607,65.3567 80.9617,58.6807 76.9737,52.4457 C76.9737,52.4457 64.1117,52.5517 50.6377,52.6607 C37.1637,52.5517 24.3017,52.4457 24.3017,52.4457 C20.3147,58.6807 17.0157,65.3567 15.4377,72.6047 C15.0867,74.2177 14.7887,75.8497 14.7297,77.5027 C14.6367,80.1187 15.2657,82.8447 17.0247,84.8517 C17.6577,85.5737 18.3227,86.0017 19.1997,86.3697 C19.2747,86.4007 20.2177,86.7307 20.2177,86.7307 C20.4497,88.6287 20.4787,90.9247 20.1727,93.7987 C20.0957,94.5207 20.0207,95.2477 19.9477,95.9817 L52.4537,105.5337 L50.4047,95.9857 L50.6377,95.9857 L52.4537,105.5337 L81.3267,95.9817 C81.2547,95.2477 81.1797,94.5207 81.1037,93.7987 C80.7967,90.9247 80.8257,88.6287 81.0577,86.7287 C81.0577,86.7287 82.0007,86.4007 82.0757,86.3697 C82.9517,86.0017 83.6177,85.5737 84.2507,84.8517 C86.0097,82.8447 86.6387,80.1187 86.5457,77.5027" id="Fill-13" fill="#641340"></path>
                <path d="M24.6536,107.823 C24.6536,107.823 16.1966,113.527 13.7646,111.354 C11.3326,109.182 20.0996,95.239 21.7386,94.28 C26.6326,93.608 32.6916,104.245 24.6536,107.823" id="Fill-15" fill="#641340"></path>
                <path d="M24.6536,107.823 C24.6536,107.823 16.1966,113.527 13.7646,111.354 C11.3326,109.182 20.0996,95.239 21.7386,94.28 C26.6326,93.608 32.6916,104.245 24.6536,107.823 Z" id="Stroke-17" stroke="#641340" stroke-width="0.75" stroke-linecap="round" stroke-linejoin="round"></path>
                <path d="M76.1922,107.823 C76.1922,107.823 85.3322,113.527 87.7642,111.354 C90.1972,109.182 80.7462,95.239 79.1062,94.28 C74.2132,93.608 68.1542,104.245 76.1922,107.823" id="Fill-19" fill="#641340"></path>
                <path d="M76.1922,107.823 C76.1922,107.823 85.3322,113.527 87.7642,111.354 C90.1972,109.182 80.7462,95.239 79.1062,94.28 C74.2132,93.608 68.1542,104.245 76.1922,107.823 Z" id="Stroke-21" stroke="#641340" stroke-width="0.75" stroke-linecap="round" stroke-linejoin="round"></path>
                <path d="M83.0769,28.4304 C87.5139,10.2264 83.8959,1.2844 82.0979,0.4994 C74.7599,1.7424 65.2959,11.7174 62.2559,15.1144 C58.6319,14.2794 54.7519,13.8324 50.7109,13.8324 C46.6699,13.8324 42.7899,14.2794 39.1659,15.1144 C36.1259,11.7174 26.6619,1.7424 19.3229,0.4994 C17.5259,1.2844 13.9079,10.2264 18.3449,28.4304 C16.1369,31.9294 14.8979,35.9624 14.8979,40.4254 C14.8979,56.5064 30.9319,65.1664 50.7109,65.1664 C70.4899,65.1664 86.5239,56.5064 86.5239,40.4254 C86.5239,35.9624 85.2849,31.9294 83.0769,28.4304" id="Fill-23" fill="#FFFFFF"></path>
                <path d="M53.0969,62.5418 C33.3179,62.5418 17.2839,53.8818 17.2839,37.8008 C17.2839,33.3378 18.5229,29.3048 20.7309,25.8058 C17.5749,12.8578 18.4959,4.6198 19.9369,0.6458 C19.7329,0.5988 19.5239,0.5338 19.3229,0.4998 C17.5259,1.2838 13.9079,10.2268 18.3449,28.4308 C16.1369,31.9298 14.8979,35.9628 14.8979,40.4258 C14.8979,56.5068 30.9319,65.1668 50.7109,65.1668 C64.3689,65.1668 76.2389,61.0348 82.2789,53.1838 C75.7869,59.3248 65.1399,62.5418 53.0969,62.5418" id="Fill-25" fill="#D9CFD3"></path>
                <path d="M44.1653,38.9568 C45.2653,33.8258 45.3893,17.4538 44.5653,14.1968 C42.7133,14.4078 40.9083,14.7128 39.1663,15.1138 C36.1253,11.7178 26.6623,1.7418 19.3233,0.4998 C17.5253,1.2838 13.9073,10.2268 18.3443,28.4308 C16.1373,31.9298 14.8973,35.9628 14.8973,40.4258 C14.8973,44.3578 15.8573,47.8468 17.5963,50.8728 C29.6393,51.9478 42.6273,46.1298 44.1653,38.9568" id="Fill-27" fill="#641340"></path>
                <path d="M57.2566,38.9568 C56.1556,33.8258 56.0316,17.4538 56.8566,14.1968 C58.7086,14.4078 60.5136,14.7128 62.2556,15.1138 C65.2956,11.7178 74.7596,1.7418 82.0986,0.4998 C83.8966,1.2838 87.5146,10.2268 83.0766,28.4308 C85.2846,31.9298 86.5246,35.9628 86.5246,40.4258 C86.5246,44.3578 85.5646,47.8468 83.8246,50.8728 C71.7816,51.9478 58.7946,46.1298 57.2566,38.9568" id="Fill-29" fill="#641340"></path>
                <path d="M83.0769,28.4304 C87.5139,10.2264 83.8959,1.2844 82.0979,0.4994 C74.7599,1.7424 65.2959,11.7174 62.2559,15.1144 C58.6319,14.2794 54.7519,13.8324 50.7109,13.8324 C46.6699,13.8324 42.7899,14.2794 39.1659,15.1144 C36.1259,11.7174 26.6619,1.7424 19.3229,0.4994 C17.5259,1.2844 13.9079,10.2264 18.3449,28.4304 C16.1369,31.9294 14.8979,35.9624 14.8979,40.4254 C14.8979,56.5064 30.9319,65.1664 50.7109,65.1664 C70.4899,65.1664 86.5239,56.5064 86.5239,40.4254 C86.5239,35.9624 85.2849,31.9294 83.0769,28.4304 Z" id="Stroke-31" stroke="#641340" stroke-linecap="round" stroke-linejoin="round"></path>
                <path d="M36.0183,16.2469 C36.0183,16.2469 29.7353,8.7689 25.0823,7.9809 C24.1313,8.3969 22.2003,13.1649 24.6273,22.8929 C27.4583,20.3929 31.3413,18.0489 36.0183,16.2469" id="Fill-33" fill="#FFFFFF"></path>
                <path d="M25.0418,8.0096 C24.0778,8.5356 22.2328,13.2966 24.6278,22.8936 C25.1248,22.4546 25.6658,22.0236 26.2258,21.5956 C23.6638,14.0276 24.2598,9.5126 25.0418,8.0096" id="Fill-35" fill="#D9CFD3"></path>
                <path d="M65.4031,16.2469 C65.4031,16.2469 71.6861,8.7689 76.3391,7.9809 C77.2911,8.3969 79.2211,13.1649 76.7941,22.8929 C73.9631,20.3929 70.0801,18.0489 65.4031,16.2469" id="Fill-37" fill="#FFFFFF"></path>
                <path d="M76.4617,8.0662 C76.4207,8.0352 76.3777,7.9992 76.3387,7.9812 C71.6867,8.7692 65.4027,16.2472 65.4027,16.2472 C65.8387,16.4152 67.8257,17.2762 68.2477,17.4542 C69.6357,15.2792 73.6307,9.5002 76.4617,8.0662" id="Fill-39" fill="#D9CFD3"></path>
                <path d="M24.6536,107.823 C24.6536,107.823 16.1966,113.527 13.7646,111.354 C11.3326,109.182 20.0996,95.239 21.7386,94.28 C26.6326,93.608 32.6916,104.245 24.6536,107.823 Z" id="Stroke-41" stroke="#641340" stroke-linecap="round" stroke-linejoin="round"></path>
                <path d="M81.0066,63.741 C80.9526,64.153 78.4386,62.967 78.4386,62.967 L78.0416,64.761 C78.0416,64.761 77.8106,66.89 77.3386,66.877 C77.2546,66.994 77.1786,67.132 77.1186,67.311 C76.8806,68.018 76.8596,68.783 76.7956,69.527 C80.6536,68.498 82.9346,67.234 82.9346,65.868 C82.9346,65.121 82.2526,64.405 81.0066,63.741" id="Fill-43" fill="#D9CFD3"></path>
                <path d="M24.4949,68.6609 C23.8619,68.0339 22.9129,67.9919 22.3579,67.2659 C21.6099,66.2899 21.6059,64.7229 21.0879,63.6299 L20.0789,63.6339 C18.7019,64.3279 17.9469,65.0809 17.9469,65.8679 C17.9469,67.3619 20.6679,68.7329 25.2029,69.8089 C25.0449,69.3719 24.8199,68.9819 24.4949,68.6609" id="Fill-45" fill="#D9CFD3"></path>
                <path d="M79.1941,65.4168 C78.7041,65.3278 78.0401,65.1988 78.0421,64.7608 C78.0431,64.6448 78.0971,64.5348 78.1461,64.4278 C78.5911,63.4458 78.5061,62.2618 77.7981,61.4068 C77.0901,60.5528 75.7361,60.1138 74.6051,60.4768 C74.0431,60.6558 73.3171,60.9778 72.9451,60.5658 C72.8711,60.4848 72.8291,60.3858 72.7801,60.2898 C72.4261,59.5988 71.6541,59.1098 70.8061,58.9768 L70.8481,58.9418 C71.7421,57.9418 73.0841,57.2568 71.9681,55.7828 C71.5021,55.1658 70.6171,54.8138 69.7811,54.9138 C69.6801,54.9268 69.5791,54.9438 69.4781,54.9338 C68.9691,54.8818 68.9081,54.2738 68.8031,53.8348 C68.5921,52.9518 67.6191,52.2868 66.5921,52.2218 C65.5661,52.1558 64.5481,52.6358 63.9361,53.3618 C63.8691,53.4408 63.8031,53.5258 63.7081,53.5788 C63.3451,53.7778 62.9391,53.4128 62.6451,53.1408 C61.9131,52.4648 60.6731,52.2008 59.7311,52.6328 C59.6251,52.6818 59.5241,52.7398 59.4311,52.8068 L59.2521,53.0858 C58.9381,52.3338 58.2331,51.7158 57.3291,51.6348 C57.0291,51.6068 56.7161,51.6338 56.4331,51.5418 C55.8521,51.3538 55.6161,50.7648 55.3231,50.2858 C54.6211,49.1398 53.1911,48.3638 51.7081,48.3258 C50.8001,48.3038 49.7141,48.7208 49.6561,49.5158 C49.6431,49.6898 49.6831,49.8698 49.6251,50.0368 C49.4891,50.4298 48.8881,50.5418 48.4451,50.4118 C48.0021,50.2808 47.6441,49.9918 47.2231,49.8148 C45.9831,49.2968 44.4941,49.8558 43.4351,50.6228 C42.7161,51.1438 42.0771,51.7788 41.7511,52.5458 C41.4251,53.3118 41.7441,54.7358 41.7441,54.7358 C41.4041,54.6228 42.1061,54.7388 41.7441,54.7358 C41.2441,54.7328 41.9111,57.1118 41.8171,56.6808 C41.7921,56.5668 41.8221,56.4508 41.8461,56.3368 C42.0651,55.2988 41.7191,54.1498 40.8361,53.4328 C39.9521,52.7158 38.5271,52.5168 37.4971,53.0628 C36.9861,53.3358 36.3451,53.7738 35.8891,53.4358 C35.7981,53.3678 35.7351,53.2768 35.6661,53.1918 C35.0951,52.4848 34.0461,52.1028 33.0721,52.2448 C30.4131,52.6338 31.2911,54.7888 30.7071,56.3578 C30.4221,57.1228 29.7611,57.2918 29.0781,57.7298 C28.3131,58.2188 28.6321,58.7768 29.0131,59.3528 L29.0521,59.3578 L28.9841,59.4058 C28.2421,58.8878 27.2871,58.6008 26.3511,58.7098 C25.1581,58.8498 24.0741,59.6868 23.8981,60.7308 C23.8111,61.2498 23.7871,61.9628 23.1981,62.0548 C23.0811,62.0728 22.9611,62.0588 22.8431,62.0508 C21.8591,61.9858 20.8531,62.4508 20.3581,63.1988 C19.0041,65.2448 21.4551,66.0268 22.4601,67.4218 C22.9501,68.1028 22.6771,68.6558 22.6251,69.3958 C22.5221,70.8708 24.7951,70.1678 25.5211,70.9848 C25.7521,71.2448 25.7871,71.6038 25.7321,71.9298 C25.7111,72.0488 25.6801,72.1668 25.6451,72.2838 L31.9141,73.3188 L40.3731,74.0558 L47.2461,74.4608 L56.2251,74.2438 L63.7871,73.8358 L72.0881,73.0358 L73.1121,72.6158 C73.0941,72.7578 73.0671,72.8978 73.0251,73.0358 L77.8261,72.0828 C77.7531,71.6578 77.6841,71.2308 77.6771,70.8018 C77.6731,70.4998 77.7161,70.1628 77.9761,69.9638 C78.3401,69.6858 78.8921,69.8218 79.3761,69.8268 C80.6191,69.8398 81.6611,68.7308 81.5681,67.6438 C81.4761,66.5558 80.4121,65.6368 79.1941,65.4168" id="Fill-47" fill="#FFE8CD"></path>
                <path d="M42.3811,59.8133 C42.0751,59.6193 41.6851,59.6483 41.3221,59.6433 C40.9601,59.6393 40.5481,59.5673 40.3531,59.2613 C40.2711,59.1323 40.2391,58.9793 40.1721,58.8423 C40.1051,58.7063 39.9801,58.5763 39.8281,58.5813 C39.7451,58.5843 39.6701,58.6253 39.5991,58.6663 C39.4891,58.7273 39.3811,58.7923 39.2751,58.8573 C39.2161,58.8923 39.1571,58.9303 39.1241,58.9893 C39.0871,59.0563 39.0921,59.1383 39.1011,59.2143 C39.1321,59.4763 39.2001,59.7343 39.3031,59.9773 C39.4091,60.2253 39.5541,60.4933 39.4681,60.7493 C39.3331,61.1553 39.5681,61.6333 40.0501,61.6743 C40.5901,61.7213 40.6481,61.2503 41.1591,61.7103 C41.3951,61.9233 41.7601,61.9593 42.0541,61.8383 C42.3481,61.7173 42.5721,61.4583 42.6951,61.1643 C42.8891,60.7013 42.8051,60.0833 42.3811,59.8133" id="Fill-49" fill="#C6A281"></path>
                <path d="M72.2625,71.0994 C70.0895,72.4694 67.4615,72.5704 64.8695,72.1854 C64.1045,72.0714 63.2035,71.7934 62.8415,71.1324 C62.4695,70.4534 62.6575,69.7954 61.8795,69.2024 C61.6435,69.0214 61.2845,69.0004 61.0515,68.7844 C60.8085,68.5594 60.8345,68.4164 60.7415,68.1334 C60.4775,67.3344 60.0995,66.8224 59.1845,66.7994 C58.5415,66.7834 57.8575,66.7474 57.5545,66.1604 C56.9575,64.9974 58.8315,64.0644 59.6795,63.5114 C59.8505,63.4004 60.0145,63.5054 60.0625,63.6474 C60.6055,63.6374 61.0965,63.7414 61.5675,64.0354 C62.2305,64.4494 62.4855,65.4224 63.1575,65.7384 C64.4375,66.3374 64.6425,65.1104 65.4415,64.7384 C65.9945,64.4814 66.7345,64.5334 67.3255,64.6264 C68.6515,64.8344 69.5165,65.5984 70.0475,66.6584 C70.3655,67.2894 70.4985,67.9404 70.6065,68.6164 C70.7865,69.7564 71.7725,69.9364 72.3625,70.7654 C72.4485,70.8854 72.3815,71.0244 72.2625,71.0994 M49.1875,73.1124 C47.2805,73.8464 42.8325,73.4854 42.8325,73.4854 C42.8325,73.4854 38.9825,73.2774 37.2185,72.6264 C36.3345,72.3004 35.1785,71.8614 35.6015,70.8884 C36.0715,69.8094 38.7095,70.2404 39.6635,69.8514 C42.0505,68.9774 40.2145,67.3334 42.0965,66.7794 C43.3265,66.4154 43.6375,67.2214 44.3125,67.9624 C44.6775,68.3624 44.9795,68.8574 45.4205,69.1914 C46.1635,69.7544 47.1445,69.6434 47.9295,70.0984 C48.7845,70.5954 49.5755,71.7914 49.1275,72.6854 C49.3325,72.7544 49.4345,73.0164 49.1875,73.1124 M32.5065,70.3674 C30.9855,71.1214 28.8025,70.5554 27.4985,69.6674 C27.0405,69.3554 26.6725,69.0214 26.6115,68.5174 C26.5655,68.1404 26.8315,68.2314 26.6705,67.6744 C26.4715,66.9824 25.8935,66.8624 25.2825,66.4714 C23.8655,65.5654 24.5585,64.5894 24.9655,63.3794 C25.3845,62.1324 24.7565,60.5534 25.9975,59.5494 C27.5305,58.3104 28.8715,60.1104 30.4295,59.5884 C31.6605,59.1774 33.3475,58.2484 34.6665,58.9754 C35.1325,59.2334 35.3825,59.6794 35.4605,60.1454 C35.6685,61.3944 34.7835,62.3004 36.4225,63.2294 C37.6935,63.9504 40.2075,64.5284 40.2715,66.1564 C40.3045,66.9914 39.7145,68.3874 38.6055,68.4564 C38.2755,68.4774 37.9495,68.3574 37.6355,68.2894 C36.9065,68.1324 36.2745,68.0904 35.5365,68.2914 C34.3855,68.6054 33.4015,69.2934 32.6095,70.0814 C32.6535,70.1814 32.6435,70.2994 32.5065,70.3674 M79.1945,65.4164 C79.0725,65.3944 78.9395,65.3704 78.8085,65.3384 C79.0355,65.4924 79.3165,65.6194 79.6475,65.7764 C80.4425,66.1534 80.6915,66.7764 80.4285,67.5494 C79.8585,69.2354 77.0475,70.1144 75.3485,69.2294 C74.3595,68.7134 74.1845,67.8354 74.0275,66.9144 C73.8475,65.8644 73.4515,65.1794 72.3055,64.7174 C71.8165,64.5204 71.2765,64.3824 70.8345,64.1034 C70.4465,63.8564 70.1755,63.5554 70.0465,63.1474 C69.9995,62.9954 70.1035,62.8334 70.0855,62.6824 C70.0255,62.1564 69.7925,61.7274 69.6585,61.2534 C69.3725,60.2474 69.8005,59.3754 70.7315,58.7854 C70.8325,58.7204 70.9315,58.7314 71.0055,58.7794 C71.2435,58.5334 71.4975,58.3014 71.7245,58.0694 C72.1765,56.3074 69.6745,57.0934 68.8885,56.9584 C68.4975,56.8914 68.1275,56.7054 67.8215,56.4894 C67.4675,56.2394 67.2665,55.9234 66.9775,55.6284 C66.6995,55.3434 66.1305,54.7994 65.6365,54.8554 C65.6325,54.8554 65.1475,55.1964 64.9905,55.2694 C64.1545,55.6614 63.1555,55.5574 62.3545,55.1334 C61.4025,54.6294 60.9745,53.0444 59.7965,53.0194 C59.6045,53.0154 59.5245,52.8744 59.5385,52.7444 C59.5035,52.7654 59.4645,52.7834 59.4315,52.8064 L59.2515,53.0854 C58.9385,52.3334 58.2335,51.7154 57.3285,51.6344 C57.0295,51.6074 56.7165,51.6334 56.4335,51.5414 C55.8525,51.3534 55.6165,50.7644 55.3235,50.2864 C55.0035,49.7634 54.5285,49.3244 53.9695,48.9904 C54.4715,49.4994 54.7945,50.1934 55.1735,50.7264 C56.0195,51.9144 57.7625,51.5434 58.6645,52.6404 C59.2325,53.3294 59.2035,54.4474 58.6345,55.1354 C57.8765,56.0504 56.5665,55.9954 55.2355,55.9164 C55.8565,56.1754 56.4775,56.3834 57.0615,56.7944 C58.4525,57.7724 59.5635,58.3054 61.2155,57.4364 C62.4495,56.7874 63.6375,56.3454 64.9815,57.1304 C65.4915,57.4284 65.8395,57.8644 66.1575,58.3124 C66.6335,58.9854 67.2995,59.6694 67.6245,60.4104 C67.9975,61.2594 67.7535,62.0824 66.7415,62.4334 C66.0815,62.6624 65.3045,62.6424 64.6115,62.5894 C63.8245,62.5304 63.0155,62.1024 62.2525,62.1064 C61.3255,62.1124 60.5295,62.6084 59.5435,62.5784 C58.8935,62.5594 58.2315,62.4614 57.6285,62.2454 C55.8885,61.6184 55.9255,60.5484 55.4115,59.1564 C54.8825,57.7174 53.1295,57.4434 53.9985,55.8684 C53.3275,55.8684 52.6945,55.9384 52.1765,56.2184 C52.1235,56.2454 52.0765,56.2384 52.0295,56.2374 C50.3515,56.8854 48.6175,56.7954 46.9495,56.0974 C45.7835,55.6094 45.2575,55.0204 45.7705,53.9574 C46.2155,53.0344 45.8835,51.9554 47.3745,51.8424 C48.3355,51.7694 49.2755,51.9514 50.1155,51.3934 C50.9165,50.8614 50.8625,50.1224 51.0645,49.3584 C51.2025,48.8314 51.5555,48.4774 52.0395,48.3554 C51.9295,48.3444 51.8195,48.3284 51.7075,48.3264 C50.8005,48.3034 49.7135,48.7204 49.6565,49.5154 C49.6435,49.6904 49.6825,49.8704 49.6255,50.0374 C49.4895,50.4294 48.8875,50.5414 48.4455,50.4124 C48.0025,50.2814 47.6445,49.9924 47.2225,49.8154 C45.9825,49.2964 44.4945,49.8564 43.4345,50.6224 C42.7165,51.1434 42.0775,51.7794 41.7515,52.5454 C41.5425,53.0354 41.5975,53.7824 41.6635,54.2624 C41.8465,54.5524 41.9945,54.8704 42.0895,55.2264 C42.2115,55.6824 41.7855,56.3784 42.1655,56.7394 C42.4625,57.0214 43.2725,56.8454 43.6705,56.9674 C44.2315,57.1394 44.8185,57.3354 45.2725,57.6824 C45.7675,58.0614 46.0935,58.6014 45.8445,59.0874 C45.9135,59.1304 45.9625,59.2034 45.9715,59.2824 C47.2835,59.2644 48.3495,60.3054 49.1165,61.1664 C49.3045,61.3784 49.4405,61.7464 49.6705,61.9154 C50.3185,62.3884 51.1525,62.2944 51.8965,62.2284 C52.6405,62.1614 53.2175,62.2874 53.8525,62.6374 C54.4935,62.9914 55.3075,63.3744 55.8865,63.7874 C56.1175,63.9534 56.3045,64.1124 56.3145,64.3854 C56.3275,64.7494 55.9785,65.0034 55.7275,65.2514 C54.9855,65.9844 54.7655,66.4014 54.6295,67.3534 C54.5095,68.1984 54.4085,69.1654 53.3115,69.4124 C52.0715,69.6894 51.1555,68.7154 50.2235,68.1814 C48.9215,67.4354 46.5595,67.3244 45.5365,66.2184 C44.7605,65.3784 45.8135,64.3954 45.4045,63.5004 C44.9815,62.5764 43.6305,62.6194 43.5765,61.3424 C43.5535,60.7744 43.8615,60.3284 44.2865,59.9534 C43.8155,60.1734 43.4305,60.4484 43.0885,60.8384 C42.6575,61.3294 42.5295,61.8984 42.1835,62.4194 C41.1105,64.0394 38.0615,63.0464 37.7045,61.4184 C37.5725,60.8174 37.7715,60.2254 37.7145,59.6274 C37.6065,58.5014 36.7105,58.1914 35.7155,57.7524 C34.8825,57.3864 34.1235,56.8424 34.2055,55.9394 C34.2775,55.1454 34.9625,54.9554 35.7495,54.8354 C36.4775,54.7244 36.7155,54.6204 37.1875,54.0234 C37.2835,53.9014 37.2955,53.7364 37.4055,53.6194 C37.8135,53.1854 38.3435,53.0274 38.8835,52.7564 C38.3975,52.7474 37.9145,52.8414 37.4975,53.0634 C36.9865,53.3354 36.3455,53.7744 35.8885,53.4354 C35.7985,53.3684 35.7345,53.2774 35.6655,53.1924 C35.0955,52.4854 34.0465,52.1024 33.0725,52.2454 C30.4135,52.6334 31.2905,54.7884 30.7065,56.3584 C30.4215,57.1224 29.7615,57.2914 29.0775,57.7294 C28.3135,58.2184 28.6325,58.7774 29.0135,59.3524 L29.0525,59.3584 L28.9845,59.4064 C28.2425,58.8874 27.2875,58.6004 26.3515,58.7094 C25.1585,58.8494 24.0745,59.6864 23.8985,60.7314 C23.8115,61.2494 23.7875,61.9624 23.1985,62.0544 C23.0815,62.0734 22.9615,62.0584 22.8435,62.0504 C21.8585,61.9864 20.8535,62.4514 20.3575,63.1994 C19.0035,65.2454 21.4555,66.0274 22.4595,67.4214 C22.9495,68.1024 22.6775,68.6564 22.6245,69.3964 C22.5215,70.8704 24.7955,70.1674 25.5205,70.9854 C25.7515,71.2454 25.7865,71.6034 25.7315,71.9294 C25.7115,72.0484 25.6805,72.1664 25.6455,72.2844 L31.9135,73.3194 L40.3735,74.0554 L47.2465,74.4604 L56.2255,74.2444 L63.7865,73.8354 L72.0875,73.0364 L73.1125,72.6164 C73.0945,72.7574 73.0675,72.8984 73.0255,73.0364 L77.8255,72.0824 C77.7525,71.6584 77.6845,71.2314 77.6775,70.8014 C77.6725,70.4994 77.7165,70.1624 77.9765,69.9634 C78.3395,69.6854 78.8925,69.8224 79.3755,69.8274 C80.6185,69.8394 81.6605,68.7314 81.5685,67.6434 C81.4765,66.5554 80.4115,65.6364 79.1945,65.4164" id="Fill-51" fill="#E5C7A4"></path>
                <path d="M25.6453,72.284 C25.6803,72.167 25.7113,72.049 25.7313,71.93 C25.7873,71.603 25.7513,71.245 25.5203,70.985 C24.7953,70.168 22.5213,70.871 22.6243,69.396 C22.6773,68.656 22.9503,68.102 22.4593,67.422 C21.4553,66.026 19.0033,65.245 20.3573,63.199 C20.8533,62.451 21.8583,61.986 22.8433,62.051 C22.9613,62.058 23.0813,62.073 23.1983,62.055 C23.7873,61.963 23.8113,61.25 23.8983,60.731 C24.0743,59.686 25.1583,58.849 26.3513,58.71 C27.5443,58.571 28.7723,59.069 29.5443,59.879 C29.6293,59.968 29.7123,60.062 29.8283,60.118 C30.2673,60.329 30.7123,59.878 31.0343,59.541 C31.8343,58.706 33.2623,58.323 34.3963,58.769 C35.5303,59.216 36.1453,60.548 35.5413,61.501 C35.3073,61.872 34.9053,62.233 35.0123,62.646 C35.0883,62.941 35.4043,63.136 35.7093,63.276 C36.5793,63.676 37.5523,63.874 38.4363,64.248 C39.3203,64.622 40.1583,65.244 40.3483,66.089 C40.4033,66.335 40.4013,66.584 40.3673,66.833" id="Stroke-53" stroke="#641340" stroke-linecap="round" stroke-linejoin="round"></path>
                <path d="M51.9588,55.783 C52.3208,55.799 52.6448,55.579 52.9608,55.402 C53.2768,55.224 53.6698,55.082 53.9918,55.25 C54.1268,55.32 54.2308,55.437 54.3578,55.522 C54.4838,55.607 54.6568,55.657 54.7868,55.577 C54.8558,55.534 54.9008,55.461 54.9428,55.389 C55.0068,55.281 55.0678,55.172 55.1288,55.061 C55.1608,55.003 55.1928,54.939 55.1918,54.872 C55.1908,54.796 55.1468,54.726 55.1008,54.665 C54.9418,54.454 54.7548,54.264 54.5438,54.105 C54.3288,53.943 54.0688,53.783 54.0158,53.518 C53.9318,53.099 53.4878,52.802 53.0498,53.007 C52.5588,53.236 52.7438,53.673 52.0708,53.529 C51.7598,53.462 51.4248,53.613 51.2308,53.865 C51.0368,54.117 50.9728,54.454 51.0128,54.769 C51.0758,55.267 51.4568,55.762 51.9588,55.783" id="Fill-55" fill="#C6A281"></path>
                <path d="M64.8914,65.2 C64.6454,64.571 64.4544,63.969 65.3134,63.619 C66.0804,63.306 66.7654,63.254 67.2144,62.552 C68.1344,61.112 67.7504,58.847 70.4454,58.919 C71.4324,58.945 72.3754,59.5 72.7804,60.29 C72.8284,60.386 72.8704,60.485 72.9454,60.566 C73.3174,60.977 74.0424,60.656 74.6054,60.476 C75.7364,60.114 77.0904,60.553 77.7974,61.407 C78.5054,62.262 78.5914,63.446 78.1464,64.428 C78.0974,64.535 78.0424,64.644 78.0414,64.761 C78.0394,65.199 78.7044,65.328 79.1944,65.417 C80.4124,65.637 81.4764,66.555 81.5684,67.643 C81.6614,68.731 80.6194,69.84 79.3754,69.827 C78.8924,69.822 78.3394,69.685 77.9764,69.964 C77.7164,70.163 77.6724,70.5 77.6774,70.802 C77.6844,71.231 77.7524,71.657 77.8264,72.083" id="Stroke-57" stroke="#641340" stroke-linecap="round" stroke-linejoin="round"></path>
                <path d="M29.0134,59.3523 C28.6324,58.7773 28.3134,58.2183 29.0774,57.7293 C29.7614,57.2913 30.4214,57.1233 30.7064,56.3583 C31.2904,54.7893 30.4134,52.6333 33.0724,52.2453 C34.0464,52.1023 35.0954,52.4853 35.6654,53.1923 C35.7344,53.2773 35.7984,53.3683 35.8884,53.4353 C36.3454,53.7743 36.9864,53.3353 37.4974,53.0633 C38.5264,52.5163 39.9524,52.7153 40.8354,53.4333 C41.7194,54.1503 42.0644,55.2973 41.8464,56.3363 C41.8224,56.4503 41.7914,56.5673 41.8164,56.6803 C41.9114,57.1123 42.5924,57.1243 43.0924,57.1283 C44.3354,57.1363 45.5824,57.8563 45.9134,58.9083 C45.9514,59.0273 45.9744,59.1493 45.9844,59.2723" id="Stroke-59" stroke="#641340" stroke-linecap="round" stroke-linejoin="round"></path>
                <path d="M70.8484,58.9412 C71.7424,57.9422 73.0834,57.2562 71.9684,55.7832 C71.5014,55.1662 70.6174,54.8142 69.7814,54.9142 C69.6804,54.9252 69.5784,54.9442 69.4784,54.9332 C68.9694,54.8812 68.9084,54.2742 68.8034,53.8352 C68.5924,52.9522 67.6194,52.2862 66.5924,52.2212 C65.5664,52.1562 64.5474,52.6352 63.9364,53.3622 C63.8694,53.4412 63.8034,53.5262 63.7074,53.5792 C63.3454,53.7782 62.9394,53.4132 62.6454,53.1402 C61.9134,52.4642 60.6734,52.2012 59.7314,52.6322 C59.6244,52.6812 59.5244,52.7402 59.4314,52.8062" id="Stroke-61" stroke="#641340" stroke-linecap="round" stroke-linejoin="round"></path>
                <path d="M42.7688,66.7791 C42.5748,66.1591 42.3928,65.5361 42.2248,64.9101 C41.8718,63.5981 41.7518,62.3621 42.5548,61.1461 C43.4588,59.7771 45.1878,58.8831 46.9828,59.4251 C47.8458,59.6841 48.5808,60.2541 48.9838,60.9711 C49.1498,61.2671 49.2618,61.5861 49.4458,61.8741 C49.6298,62.1611 49.9078,62.4251 50.2708,62.5061 C51.4148,62.7611 52.7218,60.9841 53.6688,62.2041 C54.1448,62.8171 54.0928,63.1741 54.9548,63.4481 C55.7458,63.7001 57.3708,63.4681 57.7268,64.0571" id="Stroke-63" stroke="#641340" stroke-linecap="round" stroke-linejoin="round"></path>
                <path d="M67.5779,61.6199 C67.6919,60.0989 66.7509,58.6289 65.4499,57.6179 C64.8199,57.1289 64.0839,56.7189 63.2589,56.5769 C62.4339,56.4339 61.5129,56.5969 60.9169,57.1159 C60.6539,57.3449 60.4559,57.6379 60.1389,57.8049 C59.6449,58.0639 58.9929,57.9429 58.5059,57.6749 C58.0179,57.4069 57.6399,57.0129 57.2069,56.6809 C55.9689,55.7329 54.0989,55.3289 52.6309,55.9779 C51.1639,56.6279 50.4539,58.4749 51.4449,59.6249 C51.6479,59.8599 51.9099,60.0629 52.0389,60.3349 C52.3059,60.8929 51.9379,61.5089 51.7159,62.0809" id="Stroke-65" stroke="#641340" stroke-linecap="round" stroke-linejoin="round"></path>
                <path d="M73.0252,73.0359 C73.3432,71.9789 72.9512,70.7429 71.8602,70.2229 C71.5652,70.0819 71.2312,69.9919 70.9852,69.7909 C70.4802,69.3789 70.5262,68.6849 70.4592,68.0829 C70.2972,66.6409 69.2082,65.3069 67.7042,64.7109 C66.7832,64.3459 65.4632,64.3649 65.0152,65.1599 C64.9172,65.3349 64.8702,65.5339 64.7292,65.6829 C64.3982,66.0359 63.7252,65.9259 63.3342,65.6249 C62.9422,65.3249 62.7162,64.8919 62.3702,64.5529 C61.3502,63.5539 59.5472,63.5679 58.0862,63.9569 C57.0932,64.2219 56.1272,64.6349 55.4172,65.2979 C54.7082,65.9619 54.2892,66.9049 54.4942,67.7969 C54.6992,68.6879 55.6182,69.4619 56.6542,69.4529 C57.1292,69.4489 59.0382,69.7059 57.7402,70.2829 C56.1902,70.9729 55.6142,72.8159 56.2252,74.2439" id="Stroke-67" stroke="#641340" stroke-linecap="round" stroke-linejoin="round"></path>
                <path d="M47.2464,74.4607 C48.2784,74.0797 49.0934,73.5287 49.3644,72.5877 C49.7264,71.3317 48.7164,69.8197 47.2434,69.7327 C46.9424,69.7157 46.6314,69.7517 46.3444,69.6687 C45.7564,69.4977 45.4964,68.9167 45.1844,68.4467 C44.4364,67.3227 42.9754,66.5927 41.4924,66.6017 C40.5844,66.6067 39.5154,67.0567 39.4904,67.8537 C39.4844,68.0277 39.5314,68.2057 39.4804,68.3747 C39.3604,68.7717 38.7634,68.9027 38.3154,68.7857 C37.8684,68.6697 37.4984,68.3917 37.0704,68.2287 C35.8104,67.7477 34.3454,68.3527 33.3174,69.1517 C32.6204,69.6937 32.0074,70.3507 31.7114,71.1257 C31.4164,71.9007 31.3654,72.6587 31.9134,73.3187" id="Stroke-69" stroke="#641340" stroke-linecap="round" stroke-linejoin="round"></path>
                <path d="M57.1423,56.3592 C58.1883,56.0102 59.0253,55.4852 59.3343,54.5522 C59.7463,53.3082 58.7973,51.7672 57.3293,51.6342 C57.0293,51.6072 56.7163,51.6332 56.4333,51.5422 C55.8523,51.3532 55.6163,50.7642 55.3233,50.2862 C54.6213,49.1392 53.1903,48.3642 51.7073,48.3262 C50.8003,48.3032 49.7133,48.7202 49.6563,49.5162 C49.6433,49.6902 49.6833,49.8702 49.6253,50.0372 C49.4893,50.4292 48.8883,50.5422 48.4453,50.4122 C48.0023,50.2822 47.6443,49.9922 47.2233,49.8152 C45.9823,49.2972 44.4943,49.8562 43.4343,50.6232 C42.7163,51.1432 42.0773,51.7802 41.7513,52.5462 C41.4253,53.3112 41.7443,54.7362 41.7443,54.7362" id="Stroke-71" stroke="#641340" stroke-linecap="round" stroke-linejoin="round"></path>
                <path d="M40.1272,99.4353 C39.5882,91.2173 39.9732,82.8153 39.3912,74.5903 C32.9102,74.2553 26.4932,73.2033 20.9062,70.9093 C20.6132,70.7893 20.4582,70.6023 20.3832,70.3973 L19.9592,70.3973 L25.9142,113.5393 C25.9142,115.4503 31.8062,117.2653 40.2772,118.1013 C40.0532,111.9033 40.5292,105.5623 40.1272,99.4353" id="Fill-73" fill="#D9004F"></path>
                <path d="M71.4441,72.8416 C66.0981,73.6026 60.8931,74.5216 55.4601,74.2716 C55.3801,74.2676 55.3211,74.2376 55.2511,74.2216 C50.9071,74.5926 46.2711,74.8036 41.6241,74.6786 C42.1131,82.2126 41.7291,89.8836 42.2311,97.4096 C42.5451,102.1106 42.9651,106.8446 42.9471,111.5566 C42.9401,113.8166 42.7821,116.0646 42.7321,118.3106 C45.1561,118.4856 47.7461,118.5826 50.4411,118.5826 C63.9861,118.5826 74.9661,116.1486 74.9661,113.5386 L80.8691,71.0026 C77.8251,71.9536 74.6541,72.3846 71.4441,72.8416" id="Fill-75" fill="#FF3671"></path>
                <path d="M46.4558,74.6941 C39.5568,74.8251 32.4138,74.3351 25.9688,72.5951 L30.4328,116.3811 C30.6658,116.3311 30.9208,116.3361 31.1878,116.4641 C31.6248,116.6721 32.1038,116.8401 32.5778,117.0141 C36.6398,118.0021 40.8658,118.4241 45.1268,118.5891 C46.3118,103.9751 44.9378,89.2831 46.4558,74.6941" id="Fill-77" fill="#D9CFD3"></path>
                <path d="M71.4441,72.8416 C66.0981,73.6026 60.8931,74.5216 55.4601,74.2716 C55.3821,74.2676 55.3241,74.2376 55.2551,74.2226 C53.1301,74.4036 50.9341,74.5446 48.7031,74.6286 C47.1721,89.2606 48.5591,103.9966 47.3621,118.6546 C49.6931,118.6986 52.0271,118.6866 54.3461,118.6516 C59.7441,118.1756 65.1011,117.4786 70.4331,116.5806 L74.9691,72.3196 C73.8021,72.5066 72.6271,72.6736 71.4441,72.8416" id="Fill-79" fill="#FFFFFF"></path>
                <path d="M55.4597,74.2713 C55.3767,74.2673 55.3157,74.2363 55.2427,74.2193 C48.4647,74.7973 40.8397,74.6573 33.7037,73.7713 L36.8817,117.7263 C36.8817,117.7743 36.8947,117.8203 36.8997,117.8673 C42.5897,118.7303 48.5017,118.7403 54.3137,118.6513 C57.5637,118.3653 60.7987,118.0033 64.0227,117.5633 L67.1067,73.4683 C63.2507,74.0133 59.4157,74.4533 55.4597,74.2713" id="Fill-81" fill="#FF3671"></path>
                <path d="M41.4236,72.4236 C41.7856,72.4396 42.1096,72.2196 42.4256,72.0426 C42.7416,71.8646 43.1346,71.7226 43.4566,71.8896 C43.5916,71.9606 43.6956,72.0776 43.8226,72.1626 C43.9486,72.2476 44.1216,72.2976 44.2516,72.2176 C44.3216,72.1746 44.3656,72.1016 44.4076,72.0296 C44.4706,71.9216 44.5326,71.8126 44.5926,71.7016 C44.6256,71.6436 44.6586,71.5796 44.6566,71.5126 C44.6556,71.4356 44.6106,71.3666 44.5646,71.3056 C44.4076,71.0936 44.2196,70.9046 44.0086,70.7456 C43.7936,70.5836 43.5346,70.4236 43.4806,70.1586 C43.3956,69.7396 42.9526,69.4426 42.5146,69.6476 C42.0236,69.8766 42.2086,70.3136 41.5356,70.1686 C41.2246,70.1026 40.8896,70.2536 40.6956,70.5056 C40.5016,70.7576 40.4376,71.0936 40.4776,71.4096 C40.5406,71.9076 40.9216,72.4016 41.4236,72.4236" id="Fill-83" fill="#C6A281"></path>
                <path d="M39.0144,74.2869 C39.0144,74.2869 35.4514,73.9879 33.7034,73.7709 L36.8814,117.7259 C36.8814,117.7739 36.8944,117.8199 36.8994,117.8669 C37.9024,118.0189 40.9444,118.3449 40.9444,118.3449 L39.0144,74.2869 Z" id="Fill-85" fill="#D9004F"></path>
                <path d="M55.4597,74.2713 C55.3747,74.2673 55.3117,74.2353 55.2367,74.2183 C51.6837,74.5203 47.9457,74.7213 44.1537,74.7143 L45.2927,117.7263 C45.2927,118.0233 45.3257,118.3163 45.3747,118.6063 C48.3587,118.7123 51.3607,118.6973 54.3367,118.6513 C54.7357,118.6123 55.1367,118.5743 55.5357,118.5363 C55.5787,118.2693 55.6077,118.0003 55.6077,117.7263 L56.7637,74.2973 C56.3297,74.2923 55.8967,74.2913 55.4597,74.2713" id="Fill-87" fill="#FFFFFF"></path>
                <path d="M82.822,65.3435 C80.869,75.5755 18.822,73.0525 18.016,65.4565 C18.016,65.4565 16.331,68.4435 19.784,70.2155 C24.182,72.6685 36.276,74.4315 50.506,74.4315 C64.295,74.4315 76.077,72.7775 80.797,70.4425 C84.576,68.8145 82.822,65.3435 82.822,65.3435" id="Fill-89" fill="#FFFFFF"></path>
                <path d="M62.7058,71.6619 C62.7278,71.6559 62.7378,71.6369 62.7648,71.6369 C64.1818,71.6279 65.5708,71.4889 66.9478,71.1449 C66.9878,71.1359 67.0148,71.1549 67.0488,71.1609 C67.0238,71.0709 66.9898,70.9819 66.9418,70.8979 C66.6868,70.4419 66.1728,70.2129 65.7158,69.9609 C65.2578,69.7079 64.7848,69.3349 64.7458,68.8139 C64.7288,68.5949 64.7938,68.3779 64.8018,68.1589 C64.8098,67.9389 64.7398,67.6899 64.5428,67.5929 C64.4368,67.5389 64.3128,67.5399 64.1948,67.5429 C64.0148,67.5479 63.8338,67.5549 63.6528,67.5639 C63.5558,67.5699 63.4538,67.5779 63.3718,67.6309 C63.2788,67.6899 63.2288,67.7979 63.1888,67.8999 C63.0498,68.2539 62.9608,68.6269 62.9258,69.0059 C62.8908,69.3929 62.8918,69.8319 62.6078,70.0989 C62.1628,70.5179 62.1338,71.2789 62.7058,71.6619" id="Fill-91" fill="#C6A281"></path>
                <path d="M74.8406,69.6062 C74.8616,69.6002 74.8726,69.5822 74.8996,69.5812 C76.3166,69.5722 77.7046,69.4332 79.0826,69.0892 C79.1216,69.0802 79.1496,69.0992 79.1826,69.1062 C79.1576,69.0152 79.1246,68.9262 79.0766,68.8422 C78.8206,68.3862 78.3076,68.1572 77.8496,67.9052 C77.3926,67.6522 76.9196,67.2792 76.8806,66.7582 C76.8636,66.5402 76.9286,66.3232 76.9366,66.1032 C76.9446,65.8832 76.8736,65.6342 76.6776,65.5372 C76.5716,65.4842 76.4476,65.4852 76.3296,65.4882 C76.1496,65.4922 75.9686,65.5002 75.7876,65.5092 C75.6906,65.5142 75.5886,65.5222 75.5066,65.5752 C75.4136,65.6352 75.3636,65.7422 75.3236,65.8452 C75.1846,66.1992 75.0956,66.5722 75.0606,66.9512 C75.0256,67.3372 75.0266,67.7762 74.7426,68.0432 C74.2966,68.4622 74.2676,69.2232 74.8406,69.6062" id="Fill-93" fill="#C6A281"></path>
                <path d="M36.1829,71.239 C26.0929,70.153 18.2979,68.116 18.0159,65.457 C18.0159,65.457 16.3309,68.443 19.7839,70.216 C22.6229,71.8 28.6789,73.092 36.4349,73.81 C36.3209,72.956 36.2329,72.099 36.1829,71.239" id="Fill-95" fill="#D9CFD3"></path>
                <path d="M78.4382,62.9666 C81.5742,63.5146 82.9342,65.0036 82.9342,65.8676 C82.9342,69.3246 68.3862,72.1266 50.4402,72.1266 C32.4952,72.1266 17.9462,69.3246 17.9462,65.8676 C17.9462,65.0806 18.7012,64.3276 20.0792,63.6336" id="Stroke-97" stroke="#641340" stroke-linecap="round" stroke-linejoin="round"></path>
                <path d="M82.822,65.3435 C82.822,65.3435 84.576,68.8145 80.797,70.4425 C76.077,72.7775 64.295,74.4315 50.506,74.4315 C36.276,74.4315 24.182,72.6685 19.784,70.2155 C16.331,68.4435 18.016,65.4565 18.016,65.4565" id="Stroke-99" stroke="#641340" stroke-linecap="round" stroke-linejoin="round"></path>
                <path d="M19.9592,70.3972 L25.9142,113.5392 C25.9142,116.1482 36.8952,118.5832 50.4402,118.5832 C63.9862,118.5832 74.9662,116.1482 74.9662,113.5392 L80.9472,70.4422" id="Stroke-101" stroke="#641340" stroke-linecap="round" stroke-linejoin="round"></path>
                <path d="M20.7034,76.0213 C23.6194,76.8753 28.8984,80.9453 28.1204,83.6043 C27.3314,86.9343 22.8474,87.5223 19.9324,86.6683 C17.0164,85.8163 17.7884,75.1673 20.7034,76.0213" id="Fill-103" fill="#641340"></path>
                <path d="M80.572,76.0213 C77.657,76.8753 72.377,80.9453 73.155,83.6043 C73.944,86.9343 78.428,87.5223 81.343,86.6683 C84.259,85.8163 83.487,75.1673 80.572,76.0213" id="Fill-105" fill="#641340"></path>
                <path d="M33.4978,65.6668 C33.2428,65.2118 32.7278,64.9818 32.2708,64.7298 C31.8128,64.4778 31.3408,64.1048 31.3018,63.5828 C31.2848,63.3638 31.3498,63.1468 31.3568,62.9278 C31.3658,62.7088 31.2948,62.4598 31.0988,62.3608 C30.9928,62.3088 30.8688,62.3098 30.7508,62.3128 C30.5698,62.3168 30.3898,62.3238 30.2088,62.3338 C30.1118,62.3398 30.0098,62.3478 29.9278,62.3998 C29.8348,62.4598 29.7848,62.5668 29.7448,62.6698 C29.6048,63.0228 29.5158,63.3958 29.4808,63.7748 C29.4458,64.1618 29.4478,64.6018 29.1648,64.8678 C28.7148,65.2898 28.6868,66.0588 29.2708,66.4388 C29.9248,66.8658 30.3178,66.3088 30.6528,67.2408 C30.8078,67.6728 31.2468,67.9678 31.7028,68.0148 C32.1588,68.0608 32.6188,67.8838 32.9758,67.5958 C33.5388,67.1398 33.8528,66.2988 33.4978,65.6668" id="Fill-107" fill="#C6A281"></path>
                <path d="M47.7429,66.6502 C48.1049,66.6662 48.4289,66.4462 48.7449,66.2682 C49.0609,66.0912 49.4539,65.9492 49.7759,66.1162 C49.9109,66.1862 50.0149,66.3042 50.1419,66.3892 C50.2679,66.4742 50.4409,66.5242 50.5709,66.4442 C50.6409,66.4002 50.6849,66.3272 50.7269,66.2562 C50.7909,66.1482 50.8519,66.0392 50.9119,65.9282 C50.9449,65.8692 50.9779,65.8062 50.9769,65.7392 C50.9749,65.6622 50.9309,65.5932 50.8849,65.5322 C50.7269,65.3202 50.5389,65.1312 50.3279,64.9722 C50.1129,64.8102 49.8539,64.6502 49.7999,64.3852 C49.7159,63.9662 49.2729,63.6692 48.8339,63.8742 C48.3429,64.1032 48.5279,64.5402 47.8549,64.3952 C47.5439,64.3292 47.2099,64.4802 47.0149,64.7322 C46.8209,64.9842 46.7569,65.3202 46.7969,65.6352 C46.8599,66.1342 47.2409,66.6282 47.7429,66.6502" id="Fill-109" fill="#C6A281"></path>
                <path d="M64.5886,59.2986 C64.2826,59.1046 63.8926,59.1336 63.5296,59.1286 C63.1676,59.1246 62.7556,59.0526 62.5606,58.7466 C62.4786,58.6176 62.4466,58.4646 62.3796,58.3276 C62.3126,58.1916 62.1876,58.0616 62.0346,58.0666 C61.9526,58.0696 61.8776,58.1106 61.8066,58.1516 C61.6966,58.2126 61.5896,58.2776 61.4826,58.3426 C61.4246,58.3776 61.3646,58.4156 61.3316,58.4746 C61.2946,58.5416 61.2996,58.6236 61.3086,58.6996 C61.3396,58.9616 61.4076,59.2196 61.5116,59.4626 C61.6166,59.7106 61.7616,59.9786 61.6766,60.2346 C61.5406,60.6406 61.7756,61.1186 62.2576,61.1596 C62.7976,61.2066 62.8556,60.7356 63.3666,61.1956 C63.6036,61.4086 63.9686,61.4446 64.2626,61.3236 C64.5566,61.2026 64.7786,60.9436 64.9026,60.6496 C65.0976,60.1866 65.0136,59.5686 64.5886,59.2986" id="Fill-111" fill="#C6A281"></path>
                <path d="M79.614,27.4724 L54.67,27.4724 C53.972,28.9894 52.465,30.0424 50.711,30.0424 C48.957,30.0424 47.448,28.9894 46.752,27.4724 L21.808,27.4724 C20.342,27.4724 19.143,28.6934 19.143,30.1854 L19.143,42.0554 C19.143,43.5474 20.342,44.7694 21.808,44.7694 L44.897,44.7694 C44.897,44.7694 46.688,39.9504 46.847,39.5034 C47.422,37.8974 48.934,36.7504 50.711,36.7504 C52.531,36.7504 54.074,37.9534 54.614,39.6214 C54.748,40.0354 56.056,44.7694 56.056,44.7694 L79.614,44.7694 C81.08,44.7694 82.279,43.5474 82.279,42.0554 L82.279,30.1854 C82.279,28.6934 81.08,27.4724 79.614,27.4724" id="Fill-113" fill="#FFFFFF"></path>
                <path d="M52.4148,30.0428 C54.1688,30.0428 55.6768,28.9888 56.3738,27.4728 L54.6698,27.4728 C54.0898,28.7358 52.9418,29.6678 51.5628,29.9468 C51.8398,30.0038 52.1218,30.0428 52.4148,30.0428" id="Fill-115" fill="#D9CFD3"></path>
                <path d="M20.8469,42.0554 L20.8469,30.1854 C20.8469,28.6934 22.0459,27.4724 23.5119,27.4724 L21.8079,27.4724 C20.3419,27.4724 19.1429,28.6934 19.1429,30.1854 L19.1429,42.0554 C19.1429,43.5474 20.3419,44.7694 21.8079,44.7694 L23.5119,44.7694 C22.0459,44.7694 20.8469,43.5474 20.8469,42.0554" id="Fill-117" fill="#D9CFD3"></path>
                <path d="M52.4148,36.7508 C52.1218,36.7508 51.8388,36.7918 51.5628,36.8518 C52.9978,37.1608 54.1608,38.2238 54.6138,39.6218 C54.7478,40.0348 56.0568,44.7698 56.0568,44.7698 L57.7598,44.7698 C57.7598,44.7698 56.4518,40.0348 56.3178,39.6218 C55.7778,37.9538 54.2338,36.7508 52.4148,36.7508" id="Fill-119" fill="#D9CFD3"></path>
                <path d="M37.8997,41.3006 L26.8007,41.3006 C24.8627,41.3006 23.2767,39.7146 23.2767,37.7766 L23.2767,34.4656 C23.2767,32.5276 24.8627,30.9416 26.8007,30.9416 L37.8997,30.9416 C39.8377,30.9416 41.4237,32.5276 41.4237,34.4656 L41.4237,37.7766 C41.4237,39.7146 39.8377,41.3006 37.8997,41.3006" id="Fill-121" fill="#66DEE1"></path>
                <path d="M33.4632,30.9412 L26.0772,30.9412 C26.0772,30.9412 25.9712,30.9542 25.9172,30.9562 C27.8482,34.6262 31.5382,41.3002 31.5382,41.3002 L36.9982,41.3002 C37.6502,41.3002 38.7832,40.8312 38.7832,40.8312 L33.4632,30.9412 Z" id="Fill-123" fill="#FFFFFF"></path>
                <path d="M74.6209,41.3006 L63.5209,41.3006 C61.5829,41.3006 59.9969,39.7146 59.9969,37.7766 L59.9969,34.4656 C59.9969,32.5276 61.5829,30.9416 63.5209,30.9416 L74.6209,30.9416 C76.5579,30.9416 78.1449,32.5276 78.1449,34.4656 L78.1449,37.7766 C78.1449,39.7146 76.5579,41.3006 74.6209,41.3006" id="Fill-125" fill="#FF3671"></path>
                <path d="M70.8611,30.9412 L63.4751,30.9412 C63.4751,30.9412 63.3701,30.9542 63.3151,30.9562 C65.2461,34.6262 68.9361,41.3002 68.9361,41.3002 L74.3961,41.3002 C75.0481,41.3002 76.1811,40.8312 76.1811,40.8312 L70.8611,30.9412 Z" id="Fill-127" fill="#FFFFFF"></path>
                <path d="M79.614,27.4724 L54.67,27.4724 C53.972,28.9894 52.465,30.0424 50.711,30.0424 C48.957,30.0424 47.448,28.9894 46.752,27.4724 L21.808,27.4724 C20.342,27.4724 19.143,28.6934 19.143,30.1854 L19.143,42.0554 C19.143,43.5474 20.342,44.7694 21.808,44.7694 L44.897,44.7694 C44.897,44.7694 46.688,39.9504 46.847,39.5034 C47.422,37.8974 48.934,36.7504 50.711,36.7504 C52.531,36.7504 54.074,37.9534 54.614,39.6214 C54.748,40.0354 56.056,44.7694 56.056,44.7694 L79.614,44.7694 C81.08,44.7694 82.279,43.5474 82.279,42.0554 L82.279,30.1854 C82.279,28.6934 81.08,27.4724 79.614,27.4724 Z" id="Stroke-129" stroke="#641340" stroke-linecap="round" stroke-linejoin="round"></path>
                <path d="M37.8997,41.3006 L26.8007,41.3006 C24.8627,41.3006 23.2767,39.7146 23.2767,37.7766 L23.2767,34.4656 C23.2767,32.5276 24.8627,30.9416 26.8007,30.9416 L37.8997,30.9416 C39.8377,30.9416 41.4237,32.5276 41.4237,34.4656 L41.4237,37.7766 C41.4237,39.7146 39.8377,41.3006 37.8997,41.3006 Z" id="Stroke-131" stroke="#641340" stroke-linecap="round" stroke-linejoin="round"></path>
                <path d="M74.6209,41.3006 L63.5209,41.3006 C61.5829,41.3006 59.9969,39.7146 59.9969,37.7766 L59.9969,34.4656 C59.9969,32.5276 61.5829,30.9416 63.5209,30.9416 L74.6209,30.9416 C76.5579,30.9416 78.1449,32.5276 78.1449,34.4656 L78.1449,37.7766 C78.1449,39.7146 76.5579,41.3006 74.6209,41.3006 Z" id="Stroke-133" stroke="#641340" stroke-linecap="round" stroke-linejoin="round"></path>
                <path d="M53.2473,40.3914 C53.2083,41.0464 51.6013,42.3004 50.9523,42.2614 C50.3033,42.2224 48.3653,41.0014 48.4053,40.3464 C48.4443,39.6914 53.2873,39.7354 53.2473,40.3914" id="Fill-135" fill="#641340"></path>
                <path d="M53.2473,40.3914 C53.2083,41.0464 51.6013,42.3004 50.9523,42.2614 C50.3033,42.2224 48.3653,41.0014 48.4053,40.3464 C48.4443,39.6914 53.2873,39.7354 53.2473,40.3914 Z" id="Stroke-137" stroke="#641340" stroke-linecap="round" stroke-linejoin="round"></path>
                <path d="M50.9939,42.4724 C50.9939,42.4724 51.0249,44.0594 51.0249,44.0634 C51.0479,45.2464 50.2829,45.7584 49.2129,45.5364 C48.0789,45.3014 47.7929,44.1224 48.3949,43.4554" id="Stroke-139" stroke="#641340" stroke-width="0.9" stroke-linecap="round" stroke-linejoin="round"></path>
                <path d="M53.3421,43.4236 C53.7511,43.6646 54.0011,44.7046 53.1021,45.3416 C51.5041,46.1026 50.9121,44.8356 50.9121,44.8356" id="Stroke-141" stroke="#641340" stroke-width="0.9" stroke-linecap="round" stroke-linejoin="round"></path>
            </g>
        </g>
    </g>
</svg>