<?xml version="1.0" encoding="UTF-8"?>
<svg width="136px" height="125px" viewBox="0 0 136 125" version="1.1" xmlns="http://www.w3.org/2000/svg" xmlns:xlink="http://www.w3.org/1999/xlink">
    <!-- Generator: Sketch 42 (36781) - http://www.bohemiancoding.com/sketch -->
    <title>Page 1</title>
    <desc>Created with Sketch.</desc>
    <defs></defs>
    <g id="Page-1" stroke="none" stroke-width="1" fill="none" fill-rule="evenodd">
        <g id="Desktop">
            <g id="Page-1">
                <path d="M104.9064,121.1847 C104.9064,123.1817 82.4064,124.7997 54.6514,124.7997 C26.8974,124.7997 4.3974,123.1817 4.3974,121.1847 C4.3974,119.1887 26.8974,117.5707 54.6514,117.5707 C82.4064,117.5707 104.9064,119.1887 104.9064,121.1847" id="Fill-1" fill="#D9CFD3"></path>
                <path d="M119.8625,86.9806 C119.8625,93.0726 103.2255,98.0096 82.7025,98.0096 C62.1795,98.0096 45.5425,93.0726 45.5425,86.9806 C45.5425,80.8896 62.1795,75.9526 82.7025,75.9526 C103.2255,75.9526 119.8625,80.8896 119.8625,86.9806" id="Fill-3" fill="#D9CFD3"></path>
                <path d="M89.7873,91.0089 L87.0203,90.8189 C65.4343,96.5389 43.9443,96.5349 22.5543,90.6459 L19.6843,91.0089 L0.5003,117.3539 L0.5003,120.0629 L49.4263,118.1549 C49.4263,118.1549 50.9233,120.0599 54.7353,120.0599 C58.5493,120.0599 60.0463,118.1549 60.0463,118.1549 L108.9803,120.0629 L108.9803,117.3539 L89.7873,91.0089 Z" id="Fill-5" fill="#D9004F"></path>
                <path d="M89.7873,89.003 L87.0203,88.814 C65.4343,94.534 43.9443,94.53 22.5543,88.64 L19.6843,89.003 L0.5003,118.057 L49.4263,116.149 C49.4263,116.149 50.9233,118.055 54.7353,118.055 C58.5493,118.055 60.0463,116.149 60.0463,116.149 L108.9803,118.057 L89.7873,89.003 Z" id="Fill-7" fill="#FF3671"></path>
                <path d="M8.1974,114.7188 L8.4664,110.8088 C8.4664,110.8088 45.0154,110.0528 51.3944,113.1998 C52.8114,113.7488 8.1974,114.7188 8.1974,114.7188" id="Fill-9" fill="#D7C1CB"></path>
                <polyline id="Stroke-11" stroke="#641340" stroke-linecap="round" stroke-linejoin="round" points="8.466 110.8087 8.197 114.7187 54.574 113.2007 54.574 91.9897"></polyline>
                <path d="M24.4054,87.2979 L8.4664,110.8089 C8.4664,110.8089 32.7404,109.2939 54.5744,113.1999 L54.6514,92.0819 C46.0934,88.5189 24.4054,87.2979 24.4054,87.2979" id="Fill-13" fill="#FFFFFF"></path>
                <path d="M54.0002,100.9669 C54.0002,100.9669 44.4102,103.3489 32.4102,101.1299 C23.7382,99.5439 21.0472,92.4159 21.0472,92.4159 L23.3162,89.1649 L54.0002,100.9669 Z" id="Fill-15" fill="#D7C1CB"></path>
                <path d="M24.4054,87.2979 L8.4664,110.8089" id="Stroke-17" stroke="#641340" stroke-linecap="round" stroke-linejoin="round"></path>
                <path d="M54.5744,91.9893 L54.5744,113.2003" id="Stroke-19" stroke="#641340" stroke-linecap="round" stroke-linejoin="round"></path>
                <path d="M85.7531,88.7257 L89.7871,89.0037 L108.9811,118.0567 L60.0461,116.1497 C60.0461,116.1497 58.5491,118.0547 54.7351,118.0547 C50.9231,118.0547 49.4261,116.1497 49.4261,116.1497 L0.5001,118.0567 L19.6851,89.0037 L23.3351,88.8767" id="Stroke-21" stroke="#641340" stroke-linecap="round" stroke-linejoin="round"></path>
                <path d="M50.3371,113.5958 C50.3371,113.5958 51.5541,115.1918 54.7231,115.2238 C57.8911,115.2558 59.1611,113.6858 59.1611,113.6858 L50.3371,113.5958 Z" id="Fill-23" fill="#641340"></path>
                <path d="M50.3371,113.5958 C50.3371,113.5958 51.5541,115.1918 54.7231,115.2238 C57.8911,115.2558 59.1611,113.6858 59.1611,113.6858 L50.3371,113.5958 Z" id="Stroke-25" stroke="#641340" stroke-linecap="round" stroke-linejoin="round"></path>
                <path d="M108.9806,118.0567 L108.9806,120.0627 L60.0456,118.1557 C60.0456,118.1557 58.5486,120.0597 54.7356,120.0597 C50.9226,120.0597 49.4256,118.1557 49.4256,118.1557 L0.5006,120.0627 L0.5006,118.0567" id="Stroke-27" stroke="#641340" stroke-linecap="round" stroke-linejoin="round"></path>
                <path d="M8.466,110.8087 C8.466,110.8087 32.74,109.2937 54.574,113.2007" id="Stroke-29" stroke="#641340" stroke-linecap="round" stroke-linejoin="round"></path>
                <path d="M84.8029,87.2979 L100.7429,110.8089 C100.7429,110.8089 76.4679,109.2939 54.6339,113.1999 L54.5569,92.0819 C63.1149,88.5189 84.8029,87.2979 84.8029,87.2979" id="Fill-31" fill="#F3E9ED"></path>
                <path d="M101.0109,114.7188 L100.7429,110.8088 C100.7429,110.8088 64.1929,110.0528 57.8139,113.1998 C56.3969,113.7488 101.0109,114.7188 101.0109,114.7188" id="Fill-33" fill="#D7C1CB"></path>
                <polyline id="Stroke-35" stroke="#641340" stroke-linecap="round" stroke-linejoin="round" points="100.7433 110.8087 101.0113 114.7187 54.6343 113.2007 54.6343 91.9897"></polyline>
                <path d="M84.8029,87.2979 L100.7429,110.8089" id="Stroke-37" stroke="#641340" stroke-linecap="round" stroke-linejoin="round"></path>
                <path d="M100.7433,110.8087 C100.7433,110.8087 76.4683,109.2937 54.6343,113.2007" id="Stroke-39" stroke="#641340" stroke-linecap="round" stroke-linejoin="round"></path>
                <path d="M54.6515,92.0821 C46.0935,88.5191 24.4055,87.2981 24.4055,87.2981" id="Stroke-41" stroke="#641340" stroke-linecap="round" stroke-linejoin="round"></path>
                <path d="M54.5568,92.0821 C63.1148,88.5191 84.8028,87.2981 84.8028,87.2981" id="Stroke-43" stroke="#641340" stroke-linecap="round" stroke-linejoin="round"></path>
                <path d="M115.3664,26.5714 C115.3604,26.5784 115.3574,26.5864 115.3514,26.5924 C115.3554,26.6014 115.3574,26.6114 115.3614,26.6204 C115.3634,26.6044 115.3644,26.5874 115.3664,26.5714" id="Fill-45" fill="#FF8331"></path>
                <path d="M115.3517,26.5929 C115.3557,26.6019 115.3577,26.6119 115.3617,26.6199 C115.3637,26.6049 115.3647,26.5869 115.3667,26.5719 C115.3607,26.5779 115.3577,26.5859 115.3517,26.5929 Z" id="Stroke-47" stroke="#641340"></path>
                <path d="M99.3517,62.8048 C99.1437,62.4118 98.9207,62.0268 98.6707,61.6518 C98.9207,62.0268 99.1427,62.4118 99.3517,62.8048" id="Fill-49" fill="#FF8331"></path>
                <path d="M102.9279,31.0216 C103.0539,31.5646 103.1859,32.1056 103.3319,32.6396 C103.3419,32.6766 103.3549,32.7116 103.3649,32.7486 C103.2079,32.1766 103.0619,31.6016 102.9279,31.0216" id="Fill-51" fill="#FF8331"></path>
                <path d="M100.4045,65.1847 C100.3355,65.0037 100.2625,64.8257 100.1905,64.6467 C100.2625,64.8257 100.3355,65.0037 100.4045,65.1847" id="Fill-53" fill="#FF8331"></path>
                <path d="M130.0744,28.3556 C130.0994,28.3346 130.1204,28.3106 130.1434,28.2876 C130.1544,28.3286 130.1674,28.3716 130.1724,28.4046 C130.1434,28.3946 130.1074,28.3726 130.0744,28.3556 M129.8174,25.9056 C129.8014,25.8746 129.7844,25.8386 129.7674,25.8066 C129.8174,25.9066 129.8704,26.0106 129.9164,26.1006 C129.8854,26.0386 129.8504,25.9716 129.8174,25.9056 M118.9464,28.6196 C118.9524,28.6116 118.9554,28.6036 118.9614,28.5966 C118.9604,28.6126 118.9594,28.6286 118.9584,28.6456 C118.9544,28.6366 118.9514,28.6266 118.9464,28.6196 M131.6914,58.1546 C132.2714,56.9726 132.7844,55.7546 133.2244,54.5116 C133.6674,53.2676 134.0374,51.9986 134.3364,50.7126 C134.4854,50.0706 134.6164,49.4236 134.7294,48.7756 L134.7294,48.7736 C134.8294,48.1986 134.9164,47.6236 134.9904,47.0476 C134.9934,47.0236 134.9954,47.0016 134.9984,46.9776 C135.6444,41.8686 135.2524,36.7486 133.6674,31.8986 C133.5774,31.6346 133.4924,31.3696 133.3934,31.1066 C133.3924,31.1026 133.3914,31.0986 133.3894,31.0956 C132.6944,29.2246 131.8014,27.3896 130.6954,25.5946 C130.5804,25.6546 130.4364,25.6486 130.3244,25.5636 C128.5064,24.1546 126.2924,22.6686 125.6154,22.5086 C125.6304,22.5996 125.6674,22.7236 125.7174,22.8646 C125.7334,22.9146 125.7594,22.9726 125.7794,23.0266 C125.8174,23.1256 125.8554,23.2236 125.9014,23.3316 C125.9314,23.4036 125.9654,23.4776 125.9974,23.5516 C126.0414,23.6506 126.0844,23.7496 126.1304,23.8476 C126.1724,23.9396 126.2134,24.0296 126.2544,24.1176 C126.3024,24.2186 126.3504,24.3246 126.3934,24.4166 C127.0554,25.8226 127.4204,26.6406 127.2164,27.1126 C127.1514,27.2596 127.0334,27.3676 126.8834,27.4156 C126.2804,27.6106 125.4744,26.8376 124.2154,25.5676 C123.6804,25.0286 122.9004,24.2436 122.5484,24.0716 C122.4404,24.5696 122.5944,26.2046 122.6984,27.3176 C122.9794,30.3066 123.0284,31.4606 122.4284,31.7146 C121.8154,31.9766 121.2174,31.0866 119.1644,27.4296 C118.3154,25.9166 117.0534,23.6656 116.5634,23.2986 C116.3304,23.6666 116.1644,25.4606 116.0634,26.5536 C115.8214,29.1806 115.6704,30.1846 115.0394,30.3076 C114.4114,30.4286 113.7374,29.6056 112.6004,28.1386 C112.0814,27.4696 111.2114,26.3596 110.9214,26.3076 C110.7404,26.4776 110.4814,27.9466 110.3264,28.8246 C109.9914,30.7246 109.7704,31.8066 109.1464,31.9476 C108.4704,32.1026 108.0674,31.0626 107.1054,28.0446 C106.7124,26.8106 106.1264,24.9756 105.7944,24.6166 C105.6894,24.6946 105.5484,24.8956 105.3844,25.1786 C105.4924,27.8756 105.9194,30.5706 106.5974,33.1766 C106.6544,33.1626 106.7064,33.1356 106.7494,33.0986 C106.7064,33.1356 106.6544,33.1626 106.5974,33.1766 C106.5964,33.1776 106.5964,33.1776 106.5954,33.1786 C106.6164,33.2596 106.6414,33.3386 106.6634,33.4186 C106.9894,34.6596 107.3644,35.8816 107.8044,37.0686 C107.8044,37.0686 107.8044,37.0706 107.8054,37.0716 C108.3714,38.5966 108.8914,40.1746 109.3354,41.7806 C110.0754,44.4566 110.6004,47.2086 110.7684,49.9196 C111.0434,54.3496 110.0814,60.3266 106.4864,63.2896 C105.5554,64.0556 102.3134,65.5106 100.7464,66.1056 L100.7454,66.1046 C100.8334,66.3486 100.9224,66.5916 101.0104,66.8386 C101.7064,68.8126 102.2134,70.7126 102.1974,72.7786 C102.2254,72.7856 102.2534,72.7946 102.2814,72.8016 C102.6424,72.8946 103.0064,72.9806 103.3694,73.0596 C104.0274,73.2026 104.6884,73.3196 105.3494,73.4156 C105.5034,73.4366 105.6564,73.4576 105.8104,73.4766 C106.3554,73.5466 106.9014,73.5996 107.4464,73.6346 C107.6354,73.6476 107.8234,73.6576 108.0124,73.6666 C108.6514,73.6936 109.2894,73.7016 109.9234,73.6796 C110.6444,73.6546 111.3614,73.5966 112.0714,73.5036 C112.7804,73.4116 113.4824,73.2846 114.1744,73.1216 C114.8664,72.9586 115.5484,72.7576 116.2184,72.5206 C118.7684,71.6166 121.0894,70.3296 123.1624,68.7446 C124.1984,67.9526 125.1734,67.0846 126.0844,66.1556 C128.3614,63.8296 130.2404,61.1066 131.6914,58.1546" id="Fill-55" fill="#FF8331"></path>
                <path d="M103.3322,32.6397 C103.3532,32.7137 103.3732,32.7877 103.3942,32.8617 C103.3832,32.8247 103.3752,32.7857 103.3652,32.7477 C103.3542,32.7117 103.3422,32.6767 103.3322,32.6397" id="Fill-57" fill="#FF8331"></path>
                <path d="M99.9201,63.9933 C99.8151,63.7523 99.6991,63.5163 99.5841,63.2803 C99.6991,63.5163 99.8151,63.7533 99.9201,63.9933" id="Fill-59" fill="#FF8331"></path>
                <path d="M129.9123,24.3731 L129.9183,24.3821 C129.9113,24.3771 129.9043,24.3721 129.8983,24.3671 C129.9023,24.3691 129.9083,24.3711 129.9123,24.3731 M126.5533,26.6081 C126.5623,26.6501 126.5743,26.6931 126.5783,26.7271 C126.5503,26.7151 126.5153,26.6921 126.4813,26.6741 C126.5083,26.6551 126.5293,26.6311 126.5533,26.6081 M115.3663,26.5711 C115.3643,26.5881 115.3633,26.6041 115.3613,26.6201 C115.3573,26.6111 115.3553,26.6021 115.3513,26.5941 C115.3573,26.5861 115.3603,26.5781 115.3663,26.5711 M106.0703,17.2161 C105.4823,19.8121 105.2753,22.4961 105.3843,25.1791 C105.5483,24.8951 105.6893,24.6941 105.7943,24.6161 C106.1263,24.9761 106.7123,26.8111 107.1053,28.0451 C108.0673,31.0621 108.4713,32.1021 109.1463,31.9471 C109.7703,31.8071 109.9913,30.7251 110.3263,28.8241 C110.4813,27.9461 110.7403,26.4771 110.9213,26.3081 C111.2113,26.3591 112.0813,27.4701 112.6003,28.1391 C113.7373,29.6051 114.4113,30.4291 115.0393,30.3081 C115.6703,30.1851 115.8213,29.1811 116.0633,26.5541 C116.1643,25.4611 116.3303,23.6661 116.5633,23.2991 C117.0533,23.6651 118.3153,25.9161 119.1643,27.4301 C121.2173,31.0871 121.8153,31.9771 122.4283,31.7151 C123.0283,31.4611 122.9793,30.3071 122.6983,27.3171 C122.5943,26.2041 122.4403,24.5691 122.5483,24.0711 C122.9003,24.2431 123.6813,25.0281 124.2153,25.5671 C125.4753,26.8381 126.2803,27.6101 126.8833,27.4151 C127.0333,27.3671 127.1513,27.2601 127.2163,27.1121 C127.4203,26.6411 127.0563,25.8221 126.3933,24.4161 C126.3643,24.3521 126.3323,24.2851 126.3013,24.2181 C126.2853,24.1861 126.2693,24.1501 126.2543,24.1171 C126.2123,24.0261 126.1733,23.9411 126.1303,23.8481 C126.0843,23.7481 126.0413,23.6511 125.9973,23.5521 C125.9643,23.4771 125.9323,23.4041 125.9013,23.3311 C125.8543,23.2231 125.8173,23.1251 125.7793,23.0261 C125.7593,22.9731 125.7333,22.9141 125.7173,22.8641 C125.6673,22.7241 125.6293,22.6011 125.6153,22.5091 C126.2923,22.6691 128.5063,24.1541 130.3243,25.5631 C130.4363,25.6481 130.5803,25.6541 130.6953,25.5951 C131.8013,27.3901 132.6943,29.2251 133.3903,31.0961 C132.2693,27.9541 130.6463,24.9321 128.4553,22.1131 C124.8713,17.0971 118.3913,12.6721 117.9663,6.0351 C117.6903,1.7311 122.3513,1.7641 122.3513,1.7641 C122.1583,1.6701 121.9683,1.5911 121.7753,1.5081 C121.8743,1.5501 121.9723,1.5961 122.0703,1.6391 C113.9833,0.7321 107.7693,9.7051 106.0703,17.2161" id="Fill-61" fill="#FFFFFF"></path>
                <path d="M125.9015,23.3311 C125.9315,23.4041 125.9635,23.4771 125.9975,23.5521 C125.9645,23.4771 125.9315,23.4031 125.9015,23.3311" id="Fill-63" fill="#FFFFFF"></path>
                <path d="M126.1301,23.8477 C126.1731,23.9417 126.2121,24.0267 126.2541,24.1177 C126.2131,24.0297 126.1721,23.9397 126.1301,23.8477" id="Fill-65" fill="#FFFFFF"></path>
                <path d="M125.717,22.8643 C125.734,22.9143 125.759,22.9723 125.779,23.0263 C125.759,22.9723 125.734,22.9143 125.717,22.8643" id="Fill-67" fill="#FFFFFF"></path>
                <path d="M118.9465,28.6192 C118.9515,28.6272 118.9545,28.6372 118.9585,28.6452 C118.9595,28.6292 118.9605,28.6122 118.9615,28.5972 C118.9555,28.6032 118.9525,28.6112 118.9465,28.6192" id="Fill-69" fill="#FFFFFF"></path>
                <path d="M129.8176,25.9054 C129.8506,25.9714 129.8846,26.0384 129.9166,26.1004 C129.8706,26.0104 129.8176,25.9064 129.7676,25.8064 C129.7846,25.8394 129.8006,25.8744 129.8176,25.9054" id="Fill-71" fill="#FFFFFF"></path>
                <path d="M130.0744,28.3556 C130.1074,28.3726 130.1434,28.3946 130.1724,28.4046 C130.1674,28.3716 130.1544,28.3286 130.1434,28.2876 C130.1204,28.3106 130.0994,28.3346 130.0744,28.3556" id="Fill-73" fill="#FFFFFF"></path>
                <path d="M100.1906,64.6466 C100.1026,64.4276 100.0136,64.2096 99.9196,63.9936 C100.0136,64.2096 100.1026,64.4276 100.1906,64.6466" id="Fill-75" fill="#FFFFFF"></path>
                <path d="M100.7453,66.1036 C100.6353,65.7956 100.5193,65.4896 100.4043,65.1846 C100.5193,65.4896 100.6353,65.7946 100.7453,66.1036" id="Fill-77" fill="#FFFFFF"></path>
                <path d="M102.925,31.0108 C102.926,31.0128 102.927,31.0158 102.927,31.0158 L102.925,31.0118 L102.925,31.0108 Z" id="Fill-79" fill="#FFFFFF"></path>
                <path d="M103.9533,34.6944 C103.7503,34.0904 103.5663,33.4784 103.3933,32.8614 C103.5643,33.4794 103.7503,34.0904 103.9533,34.6944" id="Fill-81" fill="#FFFFFF"></path>
                <path d="M99.5842,63.2804 C99.5072,63.1214 99.4342,62.9614 99.3522,62.8044 C99.4342,62.9614 99.5072,63.1214 99.5842,63.2804" id="Fill-83" fill="#FFFFFF"></path>
                <path d="M102.925,31.0108 L102.925,31.0118 L102.927,31.0188 C102.928,31.0198 102.928,31.0208 102.928,31.0208 C102.927,31.0178 102.926,31.0148 102.925,31.0108" id="Fill-85" fill="#FFFFFF"></path>
                <path d="M103.0207,30.6925 C102.9767,30.7295 102.9237,30.7545 102.8687,30.7665 C102.9237,30.7545 102.9767,30.7295 103.0207,30.6925 C102.9767,30.7295 102.9237,30.7545 102.8687,30.7665 C102.9237,30.7545 102.9767,30.7295 103.0207,30.6925" id="Fill-87" fill="#FFFFFF"></path>
                <path d="M103.3937,32.8614 C103.5667,33.4784 103.7497,34.0904 103.9537,34.6944 C103.7387,34.0544 103.5457,33.4034 103.3657,32.7484 C103.3747,32.7864 103.3827,32.8244 103.3937,32.8614" id="Fill-89" fill="#FFFFFF"></path>
                <path d="M106.4865,63.2892 C110.0815,60.3262 111.0435,54.3502 110.7685,49.9202 C110.6005,47.2082 110.0755,44.4562 109.3355,41.7802 C108.8915,40.1752 108.3715,38.5972 107.8055,37.0712 C107.8045,37.0702 107.8045,37.0692 107.8045,37.0692 C107.3645,35.8822 106.9895,34.6592 106.6635,33.4192 C106.6415,33.3392 106.6165,33.2602 106.5945,33.1792 C106.5965,33.1782 106.5965,33.1782 106.5975,33.1772 C105.9195,30.5702 105.4925,27.8752 105.3835,25.1792 C104.7765,26.2292 103.8405,28.4882 103.1205,30.5502 C103.1005,30.6082 103.0655,30.6562 103.0205,30.6922 C102.9765,30.7292 102.9235,30.7542 102.8685,30.7672 C102.8855,30.8492 102.9065,30.9292 102.9245,31.0112 C102.9255,31.0152 102.9265,31.0182 102.9275,31.0212 C103.0615,31.6022 103.2085,32.1772 103.3655,32.7482 C103.5465,33.4032 103.7385,34.0552 103.9535,34.6942 L103.9535,34.6962 C104.4725,36.2392 104.9435,37.8322 105.3375,39.4502 C105.9945,42.1472 106.4345,44.9152 106.5185,47.6312 C106.6555,52.0672 105.6275,57.1432 101.9415,59.9932 C100.8315,60.8522 99.7315,61.3722 98.6715,61.6512 C98.9215,62.0262 99.1435,62.4122 99.3515,62.8052 C99.4335,62.9612 99.5075,63.1212 99.5845,63.2802 C99.6995,63.5172 99.8145,63.7522 99.9205,63.9932 C100.0135,64.2092 100.1025,64.4282 100.1905,64.6462 C100.2625,64.8252 100.3355,65.0042 100.4045,65.1852 C100.5195,65.4892 100.6345,65.7962 100.7455,66.1032 L100.7465,66.1052 C102.3135,65.5112 105.5555,64.0562 106.4865,63.2892" id="Fill-91" fill="#E55E12"></path>
                <path id="Fill-93" fill="#FFFFFF"></path>
                <path d="M102.8683,30.7667 C102.8663,30.7677 102.8663,30.7687 102.8643,30.7687 C102.8653,30.7687 102.8663,30.7677 102.8683,30.7667" id="Fill-95" fill="#FFFFFF"></path>
                <path d="M102.8644,30.7686 C102.8834,30.8496 102.9064,30.9296 102.9254,31.0116 L102.9254,31.0106 C102.9064,30.9296 102.8834,30.8496 102.8644,30.7686" id="Fill-97" fill="#FFFFFF"></path>
                <path d="M102.8683,30.7667 C102.8663,30.7677 102.8653,30.7687 102.8643,30.7687 C102.8833,30.8497 102.9063,30.9297 102.9253,31.0107 C102.9063,30.9287 102.8863,30.8487 102.8683,30.7667" id="Fill-99" fill="#FFFFFF"></path>
                <path d="M103.1203,30.5499 C103.8403,28.4879 104.7763,26.2299 105.3843,25.1789 C105.2753,22.4959 105.4823,19.8129 106.0703,17.2159 C107.7693,9.7049 113.9833,0.7329 122.0703,1.6389 C121.9723,1.5959 121.8743,1.5499 121.7753,1.5079 C112.4203,-2.5401 104.9903,6.4739 102.8343,14.7969 C101.4953,19.9639 101.6743,25.5289 102.8683,30.7669 C102.9243,30.7539 102.9763,30.7299 103.0203,30.6929 C103.0643,30.6559 103.1003,30.6089 103.1203,30.5499" id="Fill-101" fill="#D9CFD3"></path>
                <path d="M103.1203,30.5499 C103.1003,30.6089 103.0643,30.6559 103.0203,30.6929 C103.0653,30.6559 103.1003,30.6089 103.1203,30.5499" id="Fill-103" fill="#FFFFFF"></path>
                <path d="M98.7414,61.6388 C99.7804,61.3548 100.8554,60.8328 101.9414,59.9928 C105.6274,57.1428 106.6554,52.0678 106.5184,47.6308 C106.3844,43.2848 105.3364,38.8098 103.9544,34.6968 C101.8364,28.3948 101.1544,21.2798 102.8344,14.7968 C105.0354,6.3038 112.7244,-2.9192 122.3514,1.7638 C122.3514,1.7638 117.6904,1.7318 117.9664,6.0348 C118.3904,12.6718 124.8714,17.0968 128.4554,22.1138 C134.5894,30.0028 136.3474,39.4648 134.7294,48.7758 C132.9244,59.1568 126.4244,68.9028 116.2184,72.5208 C111.8674,74.0638 106.9844,74.0078 102.2814,72.8018" id="Stroke-105" stroke="#641340" stroke-linecap="round" stroke-linejoin="round"></path>
                <path d="M124.8244,38.3341 C124.4324,39.4291 123.2294,39.9991 122.1354,39.6071 C121.0414,39.2171 120.4704,38.0131 120.8614,36.9181 C121.2534,35.8241 122.4574,35.2541 123.5514,35.6461 C124.6454,36.0361 125.2154,37.2401 124.8244,38.3341" id="Fill-107" fill="#E55E12"></path>
                <path d="M111.0363,68.3556 C110.8123,68.9826 110.1223,69.3096 109.4943,69.0846 C108.8663,68.8616 108.5403,68.1706 108.7643,67.5436 C108.9883,66.9166 109.6793,66.5886 110.3073,66.8126 C110.9333,67.0376 111.2613,67.7276 111.0363,68.3556" id="Fill-109" fill="#E55E12"></path>
                <path d="M126.2824,44.4356 C126.0584,45.0626 125.3684,45.3896 124.7404,45.1646 C124.1124,44.9416 123.7864,44.2506 124.0104,43.6236 C124.2344,42.9966 124.9254,42.6686 125.5534,42.8926 C126.1794,43.1176 126.5074,43.8076 126.2824,44.4356" id="Fill-111" fill="#E55E12"></path>
                <path d="M130.299,38.1339 C130.074,38.7619 129.384,39.0879 128.757,38.8639 C128.129,38.6399 127.802,37.9489 128.027,37.3219 C128.251,36.6949 128.942,36.3669 129.569,36.5919 C130.196,36.8159 130.524,37.5059 130.299,38.1339" id="Fill-113" fill="#E55E12"></path>
                <path d="M116.1779,84.9278 C115.8359,80.7228 109.4859,80.3198 106.4189,80.0218 L103.4659,85.7778 C106.7289,79.1358 109.4839,71.4278 106.3279,64.1798 C103.3369,57.3088 95.3789,50.8278 87.6739,49.7128 C69.0129,63.1438 61.9709,77.2398 72.6899,92.6188 C80.2449,93.4338 88.0129,93.3428 95.5589,92.5428 C99.9069,92.0808 104.2299,91.3278 108.4559,90.2028 C110.9309,89.5438 116.4609,88.4078 116.1779,84.9278" id="Fill-115" fill="#FF8331"></path>
                <path d="M116.1779,84.9278 C116.1439,84.5058 116.0339,84.1308 115.8889,83.7818 C115.9279,84.3938 116.8579,84.6568 115.7549,85.3758 C112.9349,87.5328 108.5289,88.1048 105.1479,88.7148 C100.4769,89.5588 95.6979,90.1078 90.9479,90.1298 C90.6639,85.7138 89.6829,82.7498 88.2709,79.5408 C90.7119,73.9968 92.2259,69.8198 92.2259,65.0528 C92.0909,64.9278 85.8069,57.3428 85.8029,57.1948 C84.8359,56.5628 83.8989,55.8868 82.9679,55.1998 C69.1519,66.9848 63.4089,79.3038 72.6899,92.6188 C80.2449,93.4338 88.0129,93.3428 95.5589,92.5428 C99.9069,92.0808 104.2299,91.3278 108.4559,90.2028 C110.9309,89.5438 116.4609,88.4078 116.1779,84.9278" id="Fill-117" fill="#E55E12"></path>
                <path d="M87.1291,49.4835 C93.9931,50.2495 100.1321,54.4415 104.0191,60.0555 C105.9461,62.8415 107.3441,65.9905 107.6481,69.3885 C107.9381,72.6355 107.3231,75.8945 106.3151,78.9725 C105.5481,81.3115 104.5501,83.5695 103.4661,85.7775" id="Stroke-119" stroke="#641340" stroke-linecap="round" stroke-linejoin="round"></path>
                <path d="M72.6896,92.6192 C80.2456,93.4322 88.0126,93.3432 95.5586,92.5432 C99.9076,92.0812 104.2296,91.3282 108.4566,90.2032 C110.9306,89.5442 116.4606,88.4082 116.1776,84.9282 C115.8356,80.7232 109.4856,80.3192 106.4186,80.0212" id="Stroke-121" stroke="#641340" stroke-linecap="round" stroke-linejoin="round"></path>
                <path d="M96.8312,60.0089 C96.3762,61.0909 95.1302,61.5999 94.0482,61.1449 C92.9662,60.6899 92.4572,59.4439 92.9122,58.3619 C93.3662,57.2799 94.6122,56.7709 95.6942,57.2259 C96.7772,57.6809 97.2852,58.9269 96.8312,60.0089" id="Fill-123" fill="#E55E12"></path>
                <path d="M100.2414,64.4229 C100.0054,64.9839 99.3594,65.2469 98.7984,65.0119 C98.2364,64.7759 97.9724,64.1299 98.2094,63.5689 C98.4444,63.0069 99.0914,62.7429 99.6524,62.9799 C100.2134,63.2149 100.4764,63.8609 100.2414,64.4229" id="Fill-125" fill="#E55E12"></path>
                <path d="M96.0812,64.2989 C95.8942,64.7439 95.3822,64.9529 94.9362,64.7659 C94.4922,64.5789 94.2832,64.0679 94.4702,63.6219 C94.6572,63.1779 95.1692,62.9689 95.6132,63.1549 C96.0592,63.3429 96.2682,63.8549 96.0812,64.2989" id="Fill-127" fill="#E55E12"></path>
                <path d="M87.6506,85.504 C87.4166,86.062 86.7736,86.324 86.2156,86.089 C85.6576,85.855 85.3956,85.212 85.6296,84.654 C85.8646,84.097 86.5066,83.834 87.0646,84.068 C87.6236,84.303 87.8846,84.945 87.6506,85.504" id="Fill-129" fill="#E55E12"></path>
                <path d="M95.5509,84.5958 C95.4279,84.8908 95.0879,85.0298 94.7939,84.9058 C94.4989,84.7818 94.3609,84.4428 94.4849,84.1478 C94.6089,83.8528 94.9469,83.7148 95.2419,83.8378 C95.5359,83.9618 95.6749,84.3018 95.5509,84.5958" id="Fill-131" fill="#E55E12"></path>
                <path d="M89.4396,88.628 C89.3376,88.87 89.0596,88.983 88.8186,88.882 C88.5766,88.78 88.4626,88.502 88.5646,88.261 C88.6666,88.019 88.9446,87.905 89.1856,88.007 C89.4276,88.108 89.5416,88.387 89.4396,88.628" id="Fill-133" fill="#E55E12"></path>
                <path d="M111.3156,83.4181 C111.0546,84.0361 110.3426,84.3271 109.7246,84.0671 C109.1066,83.8081 108.8156,83.0951 109.0756,82.4771 C109.3356,81.8581 110.0476,81.5671 110.6666,81.8281 C111.2846,82.0881 111.5756,82.8001 111.3156,83.4181" id="Fill-135" fill="#E55E12"></path>
                <path d="M107.7677,85.588 C107.6197,85.943 107.2097,86.109 106.8557,85.961 C106.5007,85.812 106.3337,85.403 106.4837,85.048 C106.6327,84.693 107.0407,84.526 107.3957,84.676 C107.7497,84.825 107.9167,85.234 107.7677,85.588" id="Fill-137" fill="#E55E12"></path>
                <path d="M109.884,85.879 L108.944,86.988 L110.329,87.57 L108.714,88.678 L111.017,89.507 C111.017,89.507 116.383,87.448 116.178,84.928 C115.934,81.93 109.654,80.395 109.654,80.395 L108.05,81.61 L109.6,82.549 L108.106,83.387 L109.69,84.411 L108.47,85.127 L109.884,85.879 Z" id="Fill-139" fill="#641340"></path>
                <path d="M55.9699,90.9083 C51.2449,88.5313 45.5299,88.7783 40.4609,87.5443 C37.9429,86.9313 35.4209,86.2513 33.1679,84.9263 L25.8099,77.4443 C23.6619,79.1273 23.4659,85.0983 23.7249,87.5803 C25.0579,100.3543 41.8499,101.6683 51.6669,100.5873 C53.9839,100.3323 56.9519,99.9013 58.6179,98.0363 C61.0149,95.3513 58.5919,92.2273 55.9699,90.9083" id="Fill-141" fill="#FF8331"></path>
                <path d="M24.1877,80.5352 C23.5807,82.9482 23.5587,85.9852 23.7247,87.5802 C25.0577,100.3542 41.8497,101.6682 51.6667,100.5872 C53.9837,100.3322 56.9527,99.9022 58.6187,98.0362 C59.3377,97.2292 59.6167,96.3852 59.5917,95.5592 C59.5837,95.5722 59.5767,95.5852 59.5677,95.5972 C58.1117,97.4632 55.5187,97.8922 53.4957,98.1482 C44.9187,99.2292 30.2497,97.9152 29.0847,85.1402 C28.9917,84.1092 28.9687,82.4742 29.1057,80.7962 L25.8097,77.4442 C25.0427,78.0462 24.5247,79.1942 24.1877,80.5352" id="Fill-143" fill="#E55E12"></path>
                <path d="M54.5148,35.338 C52.9608,35.284 51.4268,35.39 49.9218,35.492 C39.5548,36.58 30.6098,40.178 23.6368,47.252 C20.6188,50.922 17.1128,55.468 17.1128,60.654 C17.1128,67.941 19.9708,75.127 25.5868,80.254 C46.6798,95.138 69.4478,91.516 82.9988,80.413 C88.5568,75.299 92.3738,67.884 91.9178,60.654 C90.9818,45.838 74.6918,36.042 54.5148,35.338" id="Fill-145" fill="#FF8331"></path>
                <path d="M37.6427,86.6974 C35.5047,85.8604 33.3657,84.8804 31.2317,83.7024 C29.6627,81.6114 28.3937,79.2634 27.2827,76.7884 C25.4377,74.9694 23.8537,72.9024 22.6647,70.5354 C20.6487,66.5224 19.9647,61.6934 21.1497,57.3274 C22.2337,53.3364 24.7417,48.8424 27.6617,45.8804 C31.4837,42.0024 35.9007,39.1764 40.8167,37.2284 C34.2637,39.1114 28.4747,42.3434 23.6367,47.2524 C20.6197,50.9224 17.1127,55.4684 17.1127,60.6544 C17.1127,67.9404 19.9707,75.1274 25.5867,80.2544 C29.5617,83.0584 33.5937,85.1984 37.6137,86.7594 C37.6217,86.7384 37.6317,86.7184 37.6427,86.6974" id="Fill-147" fill="#E55E12"></path>
                <path d="M56.8615,90.0626 C62.1395,89.8626 67.1675,88.7826 71.7335,86.9806 C70.3235,87.5376 68.7815,87.9206 67.1945,88.1926 C63.7045,89.2066 60.2435,89.7986 56.8615,90.0136 L56.8615,90.0626 Z" id="Fill-149" fill="#E55E12"></path>
                <path d="M56.2677,90.087 C55.7597,90.096 55.2517,90.104 54.7407,90.098 C55.2507,90.102 55.7607,90.1 56.2677,90.087" id="Fill-151" fill="#E55E12"></path>
                <path d="M83.1271,73.8663 C79.2431,75.7303 74.5331,75.9883 70.4821,74.5533 C68.1961,73.7433 66.4311,72.4203 64.6791,70.8183 C61.7531,68.1433 59.0381,66.1563 54.7321,66.1483 C54.7311,66.1453 54.7251,66.1373 54.7241,66.1373 C54.6771,66.1373 54.6361,66.1423 54.5891,66.1423 C54.5431,66.1423 54.5011,66.1373 54.4551,66.1373 C54.4541,66.1373 54.4481,66.1453 54.4451,66.1483 C50.1411,66.1563 47.1451,68.0713 44.2191,70.7473 C42.4671,72.3483 40.9821,73.7433 38.6961,74.5533 C34.6461,75.9883 29.9361,75.7303 26.0521,73.8663 C26.4401,74.8573 26.8531,75.8303 27.2821,76.7883 C28.0241,77.5193 28.8051,78.2153 29.6241,78.8663 C33.6931,82.1013 38.6241,84.3883 43.4311,86.0553 C48.1731,87.7003 53.1611,88.6313 58.1821,88.7363 C61.0131,88.7963 64.1901,88.7063 67.1941,88.1923 C70.7651,87.1563 74.3651,85.6793 77.9471,83.7023 C80.1241,80.8033 81.7341,77.4183 83.1271,73.8663" id="Fill-153" fill="#FFFFFF"></path>
                <path d="M56.8625,90.0821 C56.8625,90.0821 56.8625,90.0691 56.8615,90.0621 C56.6635,90.0701 56.4665,90.0821 56.2675,90.0871 C56.4655,90.0831 56.6655,90.0901 56.8625,90.0821" id="Fill-155" fill="#FFFFFF"></path>
                <path d="M52.3166,90.0821 C53.0686,90.1081 53.8276,90.1091 54.5886,90.0991 C54.6396,90.1001 54.6896,90.0971 54.7406,90.0981 C53.9366,90.0911 53.1306,90.0721 52.3176,90.0221 C52.3176,90.0431 52.3166,90.0621 52.3166,90.0821" id="Fill-157" fill="#FFFFFF"></path>
                <path d="M67.1945,88.1925 C64.1905,88.7065 61.0125,88.7965 58.1815,88.7365 C53.1615,88.6305 48.1735,87.7005 43.4305,86.0555 C38.6245,84.3885 33.6935,82.1015 29.6245,78.8665 C28.8045,78.2145 28.0245,77.5195 27.2825,76.7885 C28.3935,79.2635 29.6625,81.6115 31.2315,83.7025 C34.2035,85.3425 37.1885,86.6315 40.1585,87.6145 C43.5555,88.1125 46.9155,88.8425 50.3265,89.2495 C50.3565,89.2535 50.3785,89.2675 50.4055,89.2745 C50.7945,89.3325 51.1815,89.3905 51.5675,89.4665 C51.7505,89.5035 51.8605,89.6025 51.9235,89.7235 C52.4685,89.7875 53.0085,89.8905 53.5395,90.0585 C53.5405,90.0585 53.5415,90.0595 53.5425,90.0605 C53.9415,90.0725 54.3425,90.0935 54.7405,90.0975 C55.2525,90.1035 55.7595,90.0955 56.2675,90.0875 C56.4665,90.0825 56.6635,90.0705 56.8615,90.0625 L56.8615,90.0135 C60.2435,89.7985 63.7045,89.2065 67.1945,88.1925" id="Fill-159" fill="#D9CFD3"></path>
                <path d="M57.3508,66.8067 C57.3048,67.6457 55.4048,69.2497 54.6368,69.2007 C53.8698,69.1507 51.5778,67.5877 51.6238,66.7487 C51.6698,65.9107 57.3978,65.9677 57.3508,66.8067" id="Fill-161" fill="#641340"></path>
                <path d="M57.3508,66.8067 C57.3048,67.6457 55.4048,69.2497 54.6368,69.2007 C53.8698,69.1507 51.5778,67.5877 51.6238,66.7487 C51.6698,65.9107 57.3978,65.9677 57.3508,66.8067 Z" id="Stroke-163" stroke="#641340" stroke-linecap="round" stroke-linejoin="round"></path>
                <path d="M54.6857,69.4708 C54.6857,69.4708 54.7227,71.5018 54.7227,71.5068 C54.7497,73.0218 53.8447,73.6768 52.5797,73.3928 C51.2387,73.0908 50.8997,71.5818 51.6127,70.7298" id="Stroke-165" stroke="#641340" stroke-width="0.9" stroke-linecap="round" stroke-linejoin="round"></path>
                <path d="M57.4631,70.6876 C57.9451,70.9966 58.2421,72.3286 57.1791,73.1426 C55.2891,74.1166 54.5891,72.4956 54.5891,72.4956" id="Stroke-167" stroke="#641340" stroke-width="0.9" stroke-linecap="round" stroke-linejoin="round"></path>
                <path d="M41.0695,70.8048 C41.0865,71.9448 38.7565,72.9038 35.8655,72.9468 C32.9745,72.9908 30.6175,72.1018 30.6005,70.9618 C30.5835,69.8228 32.9135,68.8638 35.8035,68.8208 C38.6945,68.7768 41.0515,69.6648 41.0695,70.8048" id="Fill-169" fill="#E55E12"></path>
                <path d="M79.0812,70.8048 C79.0982,71.9448 76.7682,72.9038 73.8772,72.9468 C70.9862,72.9908 68.6292,72.1018 68.6122,70.9618 C68.5952,69.8228 70.9252,68.8638 73.8152,68.8208 C76.7062,68.7768 79.0632,69.6648 79.0812,70.8048" id="Fill-171" fill="#E55E12"></path>
                <path d="M40.2824,64.0265 C42.1024,65.2005 42.6274,67.6275 41.4534,69.4475 C40.2804,71.2675 37.8524,71.7925 36.0324,70.6185 C34.2124,69.4455 33.6874,67.0175 34.8614,65.1975 C36.0344,63.3775 38.4624,62.8525 40.2824,64.0265" id="Fill-173" fill="#FFFFFF"></path>
                <path d="M39.4162,65.3702 C40.4942,66.0652 40.8052,67.5032 40.1092,68.5812 C39.4142,69.6592 37.9772,69.9702 36.8992,69.2742 C35.8212,68.5792 35.5112,67.1422 36.2052,66.0642 C36.9002,64.9862 38.3382,64.6762 39.4162,65.3702" id="Fill-175" fill="#641340"></path>
                <path d="M40.7648,67.3018 C41.1928,67.5778 41.3158,68.1488 41.0398,68.5758 C40.7638,69.0038 40.1938,69.1268 39.7658,68.8518 C39.3378,68.5748 39.2148,68.0048 39.4908,67.5768 C39.7668,67.1498 40.3368,67.0268 40.7648,67.3018" id="Fill-177" fill="#FFFFFF"></path>
                <path d="M72.9416,64.0265 C74.7626,65.2005 75.2876,67.6275 74.1136,69.4475 C72.9396,71.2675 70.5126,71.7925 68.6926,70.6185 C66.8726,69.4455 66.3476,67.0175 67.5206,65.1975 C68.6946,63.3775 71.1216,62.8525 72.9416,64.0265" id="Fill-179" fill="#FFFFFF"></path>
                <path d="M72.0754,65.3702 C73.1534,66.0652 73.4644,67.5032 72.7684,68.5812 C72.0744,69.6592 70.6374,69.9702 69.5584,69.2742 C68.4804,68.5792 68.1704,67.1422 68.8654,66.0642 C69.5594,64.9862 70.9974,64.6762 72.0754,65.3702" id="Fill-181" fill="#641340"></path>
                <path d="M73.424,67.3018 C73.852,67.5778 73.976,68.1488 73.699,68.5758 C73.424,69.0038 72.854,69.1268 72.426,68.8518 C71.997,68.5748 71.874,68.0048 72.151,67.5768 C72.426,67.1498 72.996,67.0268 73.424,67.3018" id="Fill-183" fill="#FFFFFF"></path>
                <path d="M48.2287,66.7032 C48.2287,72.2652 43.7197,76.7742 38.1577,76.7742 C32.5947,76.7742 28.0857,72.2652 28.0857,66.7032 C28.0857,61.1412 32.5947,56.6322 38.1577,56.6322 C43.7197,56.6322 48.2287,61.1412 48.2287,66.7032 Z" id="Stroke-185" stroke="#641340" stroke-width="2" stroke-linecap="round" stroke-linejoin="round"></path>
                <path d="M49.6291,64.8907 C49.6291,62.2067 51.8041,60.0327 54.4871,60.0327 C57.1711,60.0327 59.3461,62.2067 59.3461,64.8907" id="Stroke-187" stroke="#641340" stroke-width="2" stroke-linecap="round" stroke-linejoin="round"></path>
                <path d="M80.8888,66.7032 C80.8888,72.2652 76.3788,76.7742 70.8178,76.7742 C65.2548,76.7742 60.7448,72.2652 60.7448,66.7032 C60.7448,61.1412 65.2548,56.6322 70.8178,56.6322 C76.3788,56.6322 80.8888,61.1412 80.8888,66.7032 Z" id="Stroke-189" stroke="#641340" stroke-width="2" stroke-linecap="round" stroke-linejoin="round"></path>
                <path d="M78.6808,30.3712 C75.3848,29.5032 60.9748,44.5632 60.9748,44.5632 L85.5728,54.5962 C85.5728,54.5962 81.9768,31.2382 78.6808,30.3712" id="Fill-191" fill="#FF8331"></path>
                <path d="M79.7677,31.4161 C79.4057,30.8431 79.0407,30.4661 78.6807,30.3711 C75.3847,29.5031 60.7977,45.1141 60.7977,45.1141 C60.7977,45.1141 63.0527,46.5561 64.5857,44.9101 C64.9457,44.5021 76.9727,30.7151 79.7677,31.4161" id="Fill-193" fill="#E55E12"></path>
                <path d="M29.9728,31.0684 C26.6768,31.9354 22.9748,56.3734 22.9748,56.3734 L48.7018,46.1604 C48.7018,46.1604 33.2688,30.2014 29.9728,31.0684" id="Fill-195" fill="#FF8331"></path>
                <path d="M30.9543,31.1661 C30.5643,31.0461 30.2283,31.0011 29.9733,31.0681 C26.6773,31.9361 23.0783,55.8881 23.0783,55.8881 C23.0783,55.8881 25.9823,55.8881 26.3523,52.9681 C26.4423,51.9881 28.6633,35.5911 30.9543,31.1661" id="Fill-197" fill="#E55E12"></path>
                <path d="M32.7648,39.7677 C30.9768,40.0997 28.5358,52.5177 28.5358,52.5177 C29.5158,53.7687 42.8278,48.8397 42.8278,47.3647 C42.8278,47.3647 35.5368,39.3977 32.7648,39.7677" id="Fill-199" fill="#FFFFFF"></path>
                <path d="M75.9748,39.7677 C77.7628,40.0997 80.2038,52.5177 80.2038,52.5177 C79.2238,53.7687 65.9118,48.8397 65.9118,47.3647 C65.9118,47.3647 73.2028,39.3977 75.9748,39.7677" id="Fill-201" fill="#FFFFFF"></path>
                <path d="M85.5724,54.5958 C85.5724,54.5958 81.9764,31.2388 78.6804,30.3708 C75.3844,29.5028 60.9744,44.5638 60.9744,44.5638" id="Stroke-203" stroke="#641340" stroke-linecap="round" stroke-linejoin="round"></path>
                <path d="M53.4767,90.9083 C58.2017,88.5313 63.9167,88.7783 68.9847,87.5443 C71.5037,86.9313 74.0257,86.2513 76.2777,84.9263 L83.6357,77.4443 C85.7837,79.1273 85.9797,85.0983 85.7207,87.5803 C84.3887,100.3543 67.5967,101.6683 57.7797,100.5873 C55.4627,100.3323 52.4947,99.9013 50.8287,98.0363 C48.4307,95.3513 50.8537,92.2273 53.4767,90.9083" id="Fill-205" fill="#FF8331"></path>
                <path d="M58.6662,97.2608 C56.3502,97.0058 53.3812,96.5748 51.7152,94.7098 C51.2382,94.1758 50.9592,93.6248 50.8272,93.0738 C49.7102,94.5398 49.3432,96.3718 50.8282,98.0358 C52.4942,99.9028 55.4632,100.3318 57.7792,100.5868 C67.4932,101.6568 84.0252,100.3738 85.6642,87.9728 C81.7442,97.2758 67.4312,98.2258 58.6662,97.2608" id="Fill-207" fill="#E55E12"></path>
                <path d="M84.8283,90.0929 C84.8283,91.2669 83.8763,92.2189 82.7023,92.2189 C81.5283,92.2189 80.5773,91.2669 80.5773,90.0929 C80.5773,88.9189 81.5283,87.9679 82.7023,87.9679 C83.8763,87.9679 84.8283,88.9189 84.8283,90.0929" id="Fill-209" fill="#E55E12"></path>
                <path d="M23.0783,55.297 C23.0783,55.297 26.6773,31.936 29.9733,31.068 C33.2683,30.201 47.7833,45.255 47.7833,45.255" id="Stroke-211" stroke="#641340" stroke-linecap="round" stroke-linejoin="round"></path>
                <path d="M39.6818,95.6554 C39.6818,96.8294 38.7298,97.7804 37.5558,97.7804 C36.3818,97.7804 35.4308,96.8294 35.4308,95.6554 C35.4308,94.4814 36.3818,93.5304 37.5558,93.5304 C38.7298,93.5304 39.6818,94.4814 39.6818,95.6554" id="Fill-213" fill="#E55E12"></path>
                <path d="M52.9533,39.755 C52.9533,40.929 52.0023,41.88 50.8283,41.88 C49.6543,41.88 48.7023,40.929 48.7023,39.755 C48.7023,38.581 49.6543,37.629 50.8283,37.629 C52.0023,37.629 52.9533,38.581 52.9533,39.755" id="Fill-215" fill="#E55E12"></path>
                <path d="M46.8703,96.0225 L45.3573,97.2505 L47.1173,98.3815 L44.6873,99.4315 L47.6413,101.1295 C47.6413,101.1295 60.9363,101.3095 57.1203,93.1055 C57.4253,89.0645 47.7223,88.6885 47.7223,88.6885 L45.2843,89.8845 L47.1913,91.5325 L44.9823,92.2545 L46.9183,94.0255 L45.1083,94.6585 L46.8703,96.0225 Z" id="Fill-217" fill="#641340"></path>
                <path d="M78.3869,92.2188 C78.3869,92.8268 77.8939,93.3208 77.2849,93.3208 C76.6759,93.3208 76.1829,92.8268 76.1829,92.2188 C76.1829,91.6098 76.6759,91.1158 77.2849,91.1158 C77.8939,91.1158 78.3869,91.6098 78.3869,92.2188" id="Fill-219" fill="#E55E12"></path>
                <path d="M31.2189,88.752 C31.2189,89.361 30.7259,89.855 30.1159,89.855 C29.5079,89.855 29.0149,89.361 29.0149,88.752 C29.0149,88.144 29.5079,87.65 30.1159,87.65 C30.7259,87.65 31.2189,88.144 31.2189,88.752" id="Fill-221" fill="#E55E12"></path>
                <path d="M57.9777,42.1143 C57.9777,42.7233 57.4847,43.2173 56.8757,43.2173 C56.2667,43.2173 55.7737,42.7233 55.7737,42.1143 C55.7737,41.5063 56.2667,41.0123 56.8757,41.0123 C57.4847,41.0123 57.9777,41.5063 57.9777,42.1143" id="Fill-223" fill="#E55E12"></path>
                <path d="M64.297,93.5304 C64.297,94.1384 63.804,94.6324 63.195,94.6324 C62.586,94.6324 62.093,94.1384 62.093,93.5304 C62.093,92.9214 62.586,92.4274 63.195,92.4274 C63.804,92.4274 64.297,92.9214 64.297,93.5304" id="Fill-225" fill="#E55E12"></path>
                <path d="M53.1916,45.2979 C53.1916,45.7799 52.7996,46.1709 52.3176,46.1709 C51.8356,46.1709 51.4446,45.7799 51.4446,45.2979 C51.4446,44.8159 51.8356,44.4239 52.3176,44.4239 C52.7996,44.4239 53.1916,44.8159 53.1916,45.2979" id="Fill-227" fill="#E55E12"></path>
                <path d="M38.7365,90.1212 C38.7365,90.4412 38.4765,90.7002 38.1575,90.7002 C37.8385,90.7002 37.5795,90.4412 37.5795,90.1212 C37.5795,89.8022 37.8385,89.5432 38.1575,89.5432 C38.4765,89.5432 38.7365,89.8022 38.7365,90.1212" id="Fill-229" fill="#E55E12"></path>
                <path d="M32.8351,84.9767 C23.3181,80.0187 17.1121,71.8827 17.1121,62.6877 C17.1121,56.4767 19.9431,50.7497 24.7141,46.1587" id="Stroke-231" stroke="#641340" stroke-linecap="round" stroke-linejoin="round"></path>
                <path d="M84.1838,46.0313 C89.0348,50.6443 91.9178,56.4203 91.9178,62.6873 C91.9178,71.5273 86.1828,79.3873 77.2858,84.3863" id="Stroke-233" stroke="#641340" stroke-linecap="round" stroke-linejoin="round"></path>
                <path d="M39.7853,37.5411 C44.3063,36.1231 49.2853,35.3381 54.5143,35.3381 C59.4473,35.3381 64.1563,36.0361 68.4683,37.3051" id="Stroke-235" stroke="#641340" stroke-linecap="round" stroke-linejoin="round"></path>
                <path d="M84.6926,78.8858 C85.8426,81.3528 85.9286,85.5898 85.7206,87.5798 C84.3886,100.3548 67.5966,101.6688 57.7796,100.5868 C55.4636,100.3318 52.4946,99.9028 50.8286,98.0358 C48.4306,95.3518 50.8536,92.2278 53.4766,90.9078 C58.2016,88.5318 63.9166,88.7788 68.9846,87.5438 C71.5046,86.9318 75.0336,85.7118 77.2856,84.3868" id="Stroke-237" stroke="#641340" stroke-linecap="round" stroke-linejoin="round"></path>
                <path d="M59.9504,93.6661 L61.2154,92.1851 L59.2784,91.3911 L61.4764,89.9171 L58.2634,88.7851 C58.2634,88.7851 49.5624,91.5161 50.2644,95.9141 C50.7004,99.9421 60.4474,101.0331 60.4474,101.0331 L62.6264,99.4141 L60.4524,98.1411 L62.4924,97.0281 L60.2664,95.6391 L61.9314,94.6871 L59.9504,93.6661 Z" id="Fill-239" fill="#641340"></path>
                <path d="M54.2804,93.8194 C54.8144,97.2094 49.9044,99.6144 47.5284,100.5724 L48.8224,101.0334 C48.8224,101.0334 57.5234,98.2694 56.8214,93.8194 C56.3864,89.7434 46.6384,88.6394 46.6384,88.6394 L46.1824,88.9824 C49.0714,89.5594 53.9734,90.9554 54.2804,93.8194" id="Fill-241" fill="#7D2C5C"></path>
                <path d="M24.6584,79.0997 C23.5974,81.5907 23.5234,85.6467 23.7244,87.5797 C25.0574,100.3547 41.8494,101.6687 51.6674,100.5867 C53.9834,100.3317 56.9524,99.9027 58.6184,98.0367 C61.0144,95.3517 58.5924,92.2277 55.9704,90.9087 C51.2454,88.5317 45.5294,88.7787 40.4614,87.5437 C37.9424,86.9317 35.2604,86.3047 32.8354,84.9767" id="Stroke-243" stroke="#641340" stroke-linecap="round" stroke-linejoin="round"></path>
            </g>
        </g>
    </g>
</svg>