<?xml version="1.0" encoding="UTF-8" standalone="no"?>
<svg
   xmlns:dc="http://purl.org/dc/elements/1.1/"
   xmlns:cc="http://creativecommons.org/ns#"
   xmlns:rdf="http://www.w3.org/1999/02/22-rdf-syntax-ns#"
   xmlns:svg="http://www.w3.org/2000/svg"
   xmlns="http://www.w3.org/2000/svg"
   xmlns:sodipodi="http://sodipodi.sourceforge.net/DTD/sodipodi-0.dtd"
   xmlns:inkscape="http://www.inkscape.org/namespaces/inkscape"
   width="50px"
   height="50px"
   viewBox="400 1 50 50"
   version="1.1"
   id="svg9"
   sodipodi:docname="anidb.svg"
   inkscape:version="0.92.1 r15371">
  <metadata
     id="metadata13">
    <rdf:RDF>
      <cc:Work
         rdf:about="">
        <dc:format>image/svg+xml</dc:format>
        <dc:type
           rdf:resource="http://purl.org/dc/dcmitype/StillImage" />
        <dc:title />
      </cc:Work>
    </rdf:RDF>
  </metadata>
  <sodipodi:namedview
     pagecolor="#ffffff"
     bordercolor="#666666"
     borderopacity="1"
     objecttolerance="10"
     gridtolerance="10"
     guidetolerance="10"
     inkscape:pageopacity="0"
     inkscape:pageshadow="2"
     inkscape:window-width="1366"
     inkscape:window-height="715"
     id="namedview11"
     showgrid="false"
     showguides="true"
     inkscape:guide-bbox="true"
     inkscape:zoom="13.350176"
     inkscape:cx="25.928602"
     inkscape:cy="22.977112"
     inkscape:window-x="-8"
     inkscape:window-y="-8"
     inkscape:window-maximized="1"
     inkscape:current-layer="Twitter">
    <sodipodi:guide
       position="24.868586,55.729602"
       orientation="1,0"
       id="guide41"
       inkscape:locked="false" />
    <sodipodi:guide
       position="0,25"
       orientation="0,1"
       id="guide45"
       inkscape:locked="false" />
  </sodipodi:namedview>
  <!-- Generator: Sketch 42 (36781) - http://www.bohemiancoding.com/sketch -->
  <desc
     id="desc2">Created with Sketch.</desc>
  <defs
     id="defs4" />
  <g
     id="Twitter"
     stroke="none"
     stroke-width="1"
     fill="none"
     fill-rule="evenodd"
     transform="translate(400.000000, 1.000000)">
    <path
       d="M0,25 C0,11.1928806 11.1928806,0 25,0 C38.8071194,0 50,11.1928806 50,25 C50,38.8071194 38.8071194,50 25,50 C11.1928806,50 0,38.8071194 0,25 Z"
       id="back"
       fill="#55ACEE"
       style="fill:#34394d;fill-opacity:1" />
    <path
       inkscape:connector-curvature="0"
       style="fill:#ffaa55;stroke-width:1.40166163"
       d="m 24.868586,18.060296 c -2.312743,0.01403 -4.628286,0 -6.94243,0.0069 v 14.128749 c 2.318349,0.0084 4.635295,-0.0043 6.955045,0.0069 1.61191,-0.0112 3.335954,-0.513009 4.415234,-1.771701 1.31756,-1.492769 1.639943,-3.588253 1.61191,-5.519743 -0.04206,-1.843185 -0.420499,-3.834946 -1.752077,-5.209977 -1.107312,-1.163371 -2.747256,-1.611903 -4.317117,-1.639936 z m -4.10687,2.436088 c 1.225053,-0.0029 2.452909,0 3.677962,0 0.975555,-0.0112 2.012785,0.302758 2.654746,1.076475 0.821373,0.981164 0.976959,2.319751 0.988172,3.554614 -0.0084,1.191414 -0.148574,2.46272 -0.888655,3.443883 -0.630748,0.855013 -1.73806,1.205429 -2.761273,1.191413 h -3.686369 v -9.279001 z m 11.956175,-2.429079 v 14.128748 c 2.985538,0.0029 5.959864,0.0029 8.942601,0 1.401661,-0.05186 2.999555,-0.462547 3.748042,-1.766093 0.999384,-1.808144 0.594304,-4.509147 -1.363817,-5.512735 1.625928,-1.111518 1.864211,-3.490137 0.967147,-5.127279 -0.784931,-1.289528 -2.382824,-1.681993 -3.798503,-1.724043 h -8.480053 z m 8.059553,2.424875 c 0.541042,-0.02382 1.104509,0.112131 1.518,0.476564 0.728865,0.906874 0.43031,2.69119 -0.905474,2.80052 -1.942703,0.08831 -3.891012,0.01403 -5.833715,0.03225 v -3.305119 c 1.738061,-0.0084 3.481728,0.0029 5.221189,-0.0057 z m 0.430311,5.738401 c 0.66719,-0.04205 1.453522,0.224266 1.728248,0.897064 0.22847,0.602714 0.214455,1.303544 -0.06168,1.892243 -0.326587,0.560665 -1.028819,0.770914 -1.644149,0.742881 -1.892243,-0.01403 -3.781682,0 -5.673925,-0.01403 v -3.532187 c 1.88243,-0.01403 3.766264,0 5.651499,-0.01403 z"
       id="path9" />
    <path
       inkscape:connector-curvature="0"
       style="fill:#d7d7d7;stroke-width:1.40166163"
       d="m 10.966907,20.043647 c -1.7268472,0.0098 -3.4508909,0 -5.1777387,0.0112 -0.019615,0.805955 -0.019615,1.611911 0,2.417867 1.8726201,0.05046 3.7452403,-0.07008 5.6136547,0.06027 1.055452,0.08409 2.036614,0.812962 2.136133,1.920275 -1.370825,0.04205 -2.750061,0.02804 -4.1236887,0.01403 -0.9671456,-0.01403 -1.9875554,-0.02804 -2.864997,0.448532 -0.8830464,0.476564 -1.4016607,1.443712 -1.5278112,2.410857 -0.1822143,1.303546 -0.084089,2.789307 0.7989483,3.840552 0.714847,0.855015 1.8922433,1.079281 2.9434891,1.051247 2.4669235,-0.01403 4.9198325,0.01403 7.3727395,-0.01403 0.02804,-2.494958 0,-4.989914 0.01403,-7.484873 0.01403,-1.14936 -0.266318,-2.35479 -1.079281,-3.209803 -1.03723,-1.093295 -2.621108,-1.415679 -4.064818,-1.429695 z m -0.574681,6.840108 c 1.026015,-0.0043 2.050631,0.03364 3.075245,0.01403 0.01683,0.95313 0.01683,1.906261 0,2.859389 -1.275512,0.01403 -2.544017,0 -3.819527,0.01403 -0.6027158,-0.0043 -1.3035456,0.01822 -1.7660939,-0.465355 -0.5606656,-0.747086 -0.3644331,-2.138935 0.6727968,-2.346381 0.6167307,-0.07008 1.2334613,-0.08409 1.8501941,-0.08409 z"
       id="path11" />
  </g>
</svg>
