<?xml version="1.0" encoding="UTF-8" standalone="no"?>
<svg
   xmlns:dc="http://purl.org/dc/elements/1.1/"
   xmlns:cc="http://creativecommons.org/ns#"
   xmlns:rdf="http://www.w3.org/1999/02/22-rdf-syntax-ns#"
   xmlns:svg="http://www.w3.org/2000/svg"
   xmlns="http://www.w3.org/2000/svg"
   xmlns:sodipodi="http://sodipodi.sourceforge.net/DTD/sodipodi-0.dtd"
   xmlns:inkscape="http://www.inkscape.org/namespaces/inkscape"
   width="50px"
   height="50px"
   viewBox="400 1 50 50"
   version="1.1"
   id="svg9"
   sodipodi:docname="animeplanet.svg"
   inkscape:version="0.92.1 r15371">
  <metadata
     id="metadata13">
    <rdf:RDF>
      <cc:Work
         rdf:about="">
        <dc:format>image/svg+xml</dc:format>
        <dc:type
           rdf:resource="http://purl.org/dc/dcmitype/StillImage" />
        <dc:title />
      </cc:Work>
    </rdf:RDF>
  </metadata>
  <sodipodi:namedview
     pagecolor="#ffffff"
     bordercolor="#666666"
     borderopacity="1"
     objecttolerance="10"
     gridtolerance="10"
     guidetolerance="10"
     inkscape:pageopacity="0"
     inkscape:pageshadow="2"
     inkscape:window-width="1366"
     inkscape:window-height="715"
     id="namedview11"
     showgrid="false"
     showguides="true"
     inkscape:guide-bbox="true"
     inkscape:zoom="6.675088"
     inkscape:cx="1.9660713"
     inkscape:cy="18.526511"
     inkscape:window-x="-8"
     inkscape:window-y="-8"
     inkscape:window-maximized="1"
     inkscape:current-layer="Twitter">
    <sodipodi:guide
       position="24.868586,55.729602"
       orientation="1,0"
       id="guide41"
       inkscape:locked="false" />
    <sodipodi:guide
       position="0,25"
       orientation="0,1"
       id="guide45"
       inkscape:locked="false" />
  </sodipodi:namedview>
  <!-- Generator: Sketch 42 (36781) - http://www.bohemiancoding.com/sketch -->
  <desc
     id="desc2">Created with Sketch.</desc>
  <defs
     id="defs4" />
  <g
     id="Twitter"
     stroke="none"
     stroke-width="1"
     fill="none"
     fill-rule="evenodd"
     transform="translate(400.000000, 1.000000)">
    <path
       d="M0,25 C0,11.1928806 11.1928806,0 25,0 C38.8071194,0 50,11.1928806 50,25 C50,38.8071194 38.8071194,50 25,50 C11.1928806,50 0,38.8071194 0,25 Z"
       id="back"
       fill="#55ACEE"
       style="fill:#56004f;fill-opacity:1" />
    <path
       inkscape:connector-curvature="0"
       style="font-weight:bold;font-size:20.125px;font-family:'Century Gothic';-inkscape-font-specification:'Century Gothic Bold';letter-spacing:0;word-spacing:0;fill:#ffffff;fill-opacity:1;stroke-width:1.67299092"
       d="m 18.275329,14.286959 h 4.373197 v 17.499484 h -4.373197 v -1.850327 q -1.288204,1.221281 -2.58979,1.76835 -1.288204,0.530338 -2.798913,0.530338 -3.3928259,0 -5.8688519,-2.621576 -2.476027,-2.636634 -2.476027,-6.54474 0,-4.053657 2.392377,-6.641774 2.399069,-2.58979 5.8220069,-2.58979 1.577632,0 2.961195,0.595584 1.383564,0.593913 2.559676,1.785082 v -1.930631 z m -4.617454,3.601949 q -2.04105,0 -3.392826,1.438772 -1.3501029,1.422043 -1.3501029,3.68058 0,2.258538 1.3551229,3.730769 1.37185,1.455502 3.39617,1.455502 2.074508,0 3.446361,-1.438771 1.355123,-1.455504 1.355123,-3.78096 0,-2.291998 -1.371853,-3.697311 -1.371853,-1.422041 -3.463091,-1.422041 z m 17.788911,-3.61366 v 1.923939 q 1.187823,-1.204553 2.57306,-1.7901 1.383563,-0.602277 2.961195,-0.602277 3.422938,0 5.822007,2.593137 2.392377,2.576404 2.392377,6.641772 0,3.89807 -2.476027,6.541395 -2.476026,2.626596 -5.868852,2.626596 -1.512383,0 -2.815644,-0.535358 -1.301585,-0.552086 -2.588116,-1.77337 v 8.247845 h -4.35814 V 14.276919 h 4.35814 z m 4.617454,3.59693 q -2.074508,0 -3.446361,1.405311 -1.36516,1.405313 -1.36516,3.697311 0,2.325456 1.371853,3.78096 1.371853,1.422041 3.446361,1.422041 2.007589,0 3.379442,-1.472232 1.388581,-1.472231 1.388581,-3.730769 0,-2.258538 -1.338392,-3.680581 -1.355123,-1.455501 -3.412901,-1.455501 z"
       font-size="20.125"
       letter-spacing="0"
       word-spacing="0"
       font-weight="bold"
       id="path15" />
  </g>
</svg>
