<svg width="50" height="50" viewBox="0 0 50 50" xmlns="http://www.w3.org/2000/svg"><defs><radialGradient cx="54.816%" cy="48.506%" fx="54.816%" fy="48.506%" r="50.133%" id="a"><stop stop-color="#016998" offset="0%"/><stop stop-color="#006B9A" offset="0%"/><stop stop-color="#00C0FF" offset="100%"/></radialGradient></defs><g transform="translate(0 .58)" fill="none" fill-rule="evenodd"><ellipse fill="#192338" cx="25" cy="24.419" rx="25" ry="24.419"/><path d="M44.643 28.506c-.2-1.404-1.067-2.386-2.03-3.33-.817-.792-1.72-1.488-2.925-2.286.876.104 1.426.03 1.968-.187 1.34-.53 1.567-1.358 1.183-2.496-.092-.283-.216-.554-.37-.81-.655-1.06-1.625-1.813-2.625-2.51-.463-.317-.93-.63-1.397-.937 0 0 3.902-8.912 3.5-9.158-.05-.032-4.688 8.753-4.688 8.753s-2.495-.933-3.91-1.197c-1.926-.364-3.5-.543-3.5-.543s-.03-.125-.212-.465c-.558-1.018-1.173-2.006-1.84-2.96-1.17-1.696-2.378-3.54-4.16-4.67-1.552-.98-4.194-.686-5.564 1.125-1.107 1.468-1.26 5.163-1.26 5.163s-.644-.774-1.043-1.082c-1.068-.825-2.222-.794-3.184.358-.79.946-1.107 1.888-1.248 3.25-.076.725.006 2.362.006 2.362C6.73 17.09 3 19.963 3 19.963s5.746-2.06 8.477-1.962c0 0 .18 2.226.474 3.548.314 1.402.818 2.758 1.5 4.03 0 0-3.51 5.108-3.875 9.073-.17 1.865.562 3.334 2.386 3.88.35.104.68.14 1.03.15 2.564.07 5.693-1.437 5.693-1.437s-.553.895-.56 1.566c-.008 1.423.5 2.155 1.958 2.197.916.037 1.83-.1 2.69-.407.89-.32 2.666-1.158 2.666-1.158l5.635 6.468-4.45-7.246s2.37-1.698 3.504-3.008c.968-1.116 2.005-2.658 2.005-2.658s.49.008.76 0c2.1-.043 4.196.116 6.3-.21 1.49-.224 2.858-.658 4.143-1.355 1.065-.577 1.485-1.71 1.31-2.925v-.002zM21.37 10.113c.636-.84 1.942-.773 2.96-.163 1.966 1.18 3.107 3.73 3.107 3.73-3.833-.083-7.417 1.77-7.417 1.77s.032-3.608 1.348-5.337zm-5.72 2.825c.612 0 .985.652.985.652s-.093 1.616.214 3.21l-3.152-.013s-.64-3.85 1.952-3.85zM15.1 34.07c-1.646-.075-2.464-1.197-2.083-2.764.343-1.403 1.62-3.965 1.62-3.965 3.234 5.17 4.407 5.672 4.407 5.672S16.48 34.14 15.1 34.07zm6.702 4.187c-.688.084-1.512-.12-1.717-.523-.242-.477-.048-1.294.488-1.72.637-.505 2.044-1.443 2.044-1.443l1.716 2.846s-1.657.74-2.53.842zm9.508-6.884c-1.69 2.512-3.465 3.803-5.804 5.32-.405-.908-.652-1.457-1.03-2.3 1.194-.544 3.682-1.448 3.682-1.448s-2.87.25-3.556.34c2.706-1.907 9.028-9.442 9.028-9.442l-1.78-.884s-4.248 4.28-6.204 5.925c-1.29 1.085-4.823 3.323-4.823 3.323s-2.688-2.985-3.738-4.5c-1.208-1.744-1.99-3.41-2.718-5.82-.36-1.188-.715-3.786-.715-3.786s2.193.178 3.024.262c-.388 1.43-.766 4.32-.766 4.32s.51-2.557 1.538-3.59c.83 4.148 3.747 12.198 3.747 12.198l1.574-1.07s-1.55-6.135-2.2-8.46c-.563-2.022-.513-5.513-.513-5.513s.774-.27 1.393-.46c2.138-.67 3.643-.86 6.042-.674 1.25.11 2.49.316 3.71.617 1.673.4 3.337.854 4.85 1.786-.583.74-1.738 2.14-1.738 2.14s-1.774-2.05-3.357-2.767c1.078 1.09 1.96 1.96 2.604 3.224-4.205-1.32-12.845-2.902-12.845-2.902l.052 1.744s4.964 1.073 7.31 1.918c3.85 1.393 6.542 2.942 6.542 2.942s-1.802 5.32-3.31 7.554zm7.064-1.083c-2.318 1.16-5.334 1.058-5.334 1.058 1.227-2.156 2.298-4.843 2.52-6.997 0 0 2.564 1.664 3.607 3.697.42.822.137 1.78-.793 2.244zm.182-8.035l-3.014-1.305 1.802-2.715c.973.566 1.867 1.11 2.302 2.167.19.454.306.957-.007 1.29-.482.503-1.084.563-1.084.563z" fill="url(#a)"/></g></svg>