<svg width="50" height="50" viewBox="0 0 50 50" xmlns="http://www.w3.org/2000/svg"><g fill="none" fill-rule="evenodd"><path d="M50 25c0 13.807-11.193 25-25 25S0 38.807 0 25 11.193 0 25 0s25 11.193 25 25z" fill="#0066DC"/><path d="M31.79 14.51l-4.373.92v6.583c-.996-1.293-2.38-1.914-4.18-1.914-1.882 0-3.57.7-4.955 2.08-1.55 1.52-2.38 3.46-2.38 5.627 0 2.363.885 4.388 2.602 5.936 1.303 1.182 2.85 1.77 4.65 1.77 1.77 0 3.1-.476 4.4-1.768v1.69h4.235V14.507zm-7.665 16.986c-2.242 0-3.85-1.605-3.85-3.714 0-2.027 1.607-3.744 3.683-3.744 2.047 0 3.626 1.632 3.626 3.8 0 2.078-1.58 3.657-3.46 3.657z" fill="#FFF"/></g></svg>