<svg xmlns="http://www.w3.org/2000/svg" xmlns:xlink="http://www.w3.org/1999/xlink" width="50" height="50" version="1.1" viewBox="0 0 50 50"><g fill="none" fill-rule="evenodd" stroke="none" stroke-width="1"><g><g><path id="Shape" fill="#0066DC" d="M50,25 C50,38.8065789 38.8065789,50 25,50 C11.1934211,50 0,38.8065789 0,25 C0,11.1934211 11.1934211,0 25,0 C38.8065789,0 50,11.1934211 50,25 L50,25 Z"/><path id="Shape" fill="#FFF" d="M31.7894737,14.5092105 L27.4171053,15.4302632 L27.4171053,22.0131579 C26.4210526,20.7197368 25.0355263,20.0986842 23.2368421,20.0986842 C21.3552632,20.0986842 19.6657895,20.8013158 18.2815789,22.1802632 C16.7315789,23.7 15.9026316,25.6407895 15.9026316,27.8065789 C15.9026316,30.1697368 16.7868421,32.1947368 18.5039474,33.7434211 C19.8065789,34.925 21.3552632,35.5144737 23.1539474,35.5144737 C24.9236842,35.5144737 26.2526316,35.0368421 27.5526316,33.7447368 L27.5526316,35.4342105 L31.7894737,35.4342105 L31.7894737,14.5078947 L31.7894737,14.5092105 Z M24.125,31.4960526 C21.8828947,31.4960526 20.2763158,29.8907895 20.2763158,27.7815789 C20.2763158,25.7552632 21.8815789,24.0381579 23.9578947,24.0381579 C26.0052632,24.0381579 27.5842105,25.6697368 27.5842105,27.8368421 C27.5842105,29.9157895 26.0052632,31.4947368 24.1236842,31.4947368 L24.125,31.4960526 Z"/></g></g></g></svg>