<svg width="50" height="50" viewBox="0 0 50 50" xmlns="http://www.w3.org/2000/svg"><g fill="none" fill-rule="evenodd"><path d="M50 25c0 13.807-11.193 25-25 25S0 38.807 0 25 11.193 0 25 0s25 11.193 25 25z" fill="#7289DA"/><path d="M32.05 35.428s-.892-1.066-1.636-2.007c3.245-.915 4.483-2.946 4.483-2.946-1.013.668-1.98 1.14-2.847 1.46-1.24.52-2.428.87-3.592 1.066-2.378.447-4.557.322-6.415-.026-1.243-.243-2.462-.6-3.64-1.063-.622-.238-1.226-.52-1.808-.842-.075-.05-.15-.075-.224-.123-.048-.027-.073-.05-.098-.075-.447-.246-.693-.42-.693-.42s1.188 1.982 4.333 2.922c-.743.942-1.658 2.057-1.658 2.057-5.473-.175-7.555-3.764-7.555-3.764 0-7.982 3.566-14.445 3.566-14.445 3.566-2.674 6.96-2.6 6.96-2.6l.248.3c-4.458 1.288-6.513 3.244-6.513 3.244s.545-.297 1.46-.718c2.65-1.166 4.756-1.487 5.623-1.562.15-.026.273-.05.42-.05 1.66-.216 3.34-.232 5.004-.048 2.355.272 4.882.965 7.455 2.377 0 0-1.955-1.858-6.165-3.145l.347-.397s3.392-.074 6.96 2.6c0 0 3.566 6.464 3.566 14.44 0 0-2.105 3.593-7.58 3.764v.004z" fill="#FFF"/><path d="M20.533 23.86c-1.412 0-2.526 1.237-2.526 2.75 0 1.51 1.14 2.75 2.526 2.75 1.412 0 2.526-1.24 2.526-2.75.026-1.513-1.115-2.75-2.527-2.75zm9.04 0c-1.412 0-2.527 1.237-2.527 2.75 0 1.51 1.14 2.75 2.526 2.75 1.412 0 2.527-1.24 2.527-2.75 0-1.513-1.116-2.75-2.528-2.75z" fill="#7289DA"/></g></svg>