<svg xmlns="http://www.w3.org/2000/svg" xmlns:xlink="http://www.w3.org/1999/xlink" width="50" height="50" version="1.1" viewBox="0 0 50 50"><g fill="none" fill-rule="evenodd" stroke="none" stroke-width="1"><g><g><path id="Shape" fill="#7289DA" d="M50,25 C50,38.8065789 38.8065789,50 25,50 C11.1934211,50 0,38.8065789 0,25 C0,11.1934211 11.1934211,0 25,0 C38.8065789,0 50,11.1934211 50,25 L50,25 Z"/><g id="Shape"><path fill="#FFF" d="M21.5236842,20.9539474 C21.5236842,20.9539474 20.6315789,19.8881579 19.8881579,18.9473684 C23.1328947,18.0315789 24.3710526,16 24.3710526,16 C23.3578947,16.6684211 22.3894737,17.1394737 21.5236842,17.4605263 C20.2842105,17.9815789 19.0960526,18.3289474 17.9315789,18.5263158 C15.5539474,18.9736842 13.375,18.8486842 11.5171053,18.5 C10.2736492,18.2572902 9.05498239,17.9014236 7.87631579,17.4368421 C7.25508732,17.1979282 6.65102985,16.9165623 6.06842105,16.5947368 C5.99342105,16.5447368 5.91973684,16.5197368 5.84473684,16.4710526 C5.79605263,16.4447368 5.77105263,16.4210526 5.74605263,16.3960526 C5.29868421,16.15 5.05263158,15.975 5.05263158,15.975 C5.05263158,15.975 6.24210526,17.9578947 9.38684211,18.8986842 C8.64342105,19.8407895 7.72894737,20.9552632 7.72894737,20.9552632 C2.25526316,20.7815789 0.173684211,17.1921053 0.173684211,17.1921053 C0.173684211,9.21052632 3.73947368,2.74736842 3.73947368,2.74736842 C7.30526316,0.0723684211 10.7,0.147368421 10.7,0.147368421 L10.9473684,0.447368421 C6.48947368,1.73421053 4.43421053,3.69078947 4.43421053,3.69078947 C4.43421053,3.69078947 4.97894737,3.39342105 5.89473684,2.97236842 C8.54473684,1.80657895 10.65,1.48552632 11.5171053,1.41052632 C11.6657895,1.38421053 11.7894737,1.36052632 11.9381579,1.36052632 C13.5977755,1.14459984 15.2772839,1.12825533 16.9407895,1.31184211 C19.2960526,1.58421053 21.8223684,2.27763158 24.3960526,3.68947368 C24.3960526,3.68947368 22.4407895,1.83157895 18.2302632,0.544736842 L18.5776316,0.147368421 C18.5776316,0.147368421 21.9697368,0.0723684211 25.5381579,2.74736842 C25.5381579,2.74736842 29.1039474,9.21052632 29.1039474,17.1868421 C29.1039474,17.1868421 26.9986842,20.7789474 21.525,20.95 L21.5236842,20.9539474 Z" transform="translate(10.526316, 14.473684)"/><path fill="#7289DA" d="M10.0065789,9.38684211 C8.59473684,9.38684211 7.48026316,10.6236842 7.48026316,12.1368421 C7.48026316,13.6473684 8.61973684,14.8868421 10.0065789,14.8868421 C11.4184211,14.8868421 12.5328947,13.6473684 12.5328947,12.1368421 C12.5592105,10.6236842 11.4184211,9.38684211 10.0065789,9.38684211 L10.0065789,9.38684211 Z M19.0460526,9.38684211 C17.6342105,9.38684211 16.5197368,10.6236842 16.5197368,12.1368421 C16.5197368,13.6473684 17.6592105,14.8868421 19.0460526,14.8868421 C20.4578947,14.8868421 21.5723684,13.6473684 21.5723684,12.1368421 C21.5723684,10.6236842 20.4578947,9.38684211 19.0460526,9.38684211 L19.0460526,9.38684211 Z" transform="translate(10.526316, 14.473684)"/></g></g></g></g></svg>