<svg xmlns="http://www.w3.org/2000/svg" xmlns:xlink="http://www.w3.org/1999/xlink" width="50" height="51" version="1.1" viewBox="0 0 50 51"><g id="Page-1" fill="none" fill-rule="evenodd" stroke="none" stroke-width="1"><g id="Group"><g><rect id="Rectangle-path" width="50" height="50" x="0" y="0" fill="#E74D89" rx="25"/><path id="Shape" fill="#B2215A" d="M25,50.0035156 C11.2109375,50.0035156 0,38.7989791 0,25.0132927 C0,11.2080522 11.2109375,0.003515625 25,0.003515625 C38.7890625,0.003515625 50,11.2080522 50,24.9937385 C50,38.7794249 38.7890625,50.0035156 25,50.0035156 L25,50.0035156 Z M46.0742188,28.4157174 C45.3515625,28.1810674 39.4726563,26.4407468 32.7734375,27.4966717 C35.5664063,35.1619044 36.6992188,41.4192372 36.9140625,42.7098121 C41.71875,39.4833748 45.1367188,34.3601836 46.0742188,28.4157174 L46.0742188,28.4157174 Z M33.3398438,44.6847827 C33.0273438,42.8075829 31.7773438,36.2764918 28.7890625,28.4939341 C28.75,28.5134882 28.6914062,28.5330424 28.6523438,28.5330424 C16.6015625,32.7371879 12.2851562,41.0868164 11.8945312,41.868983 C15.5078125,44.6847827 20.0585938,46.3664409 25,46.3664409 C27.9492188,46.3859951 30.78125,45.779816 33.3398438,44.6847827 L33.3398438,44.6847827 Z M9.140625,39.3073873 C9.62890625,38.4861124 15.4882813,28.7872466 26.5039063,25.2088344 C26.7773438,25.1110635 27.0703125,25.0328469 27.34375,24.9546302 C26.8164063,23.742272 26.2304688,22.5299137 25.6054688,21.3371097 C14.9414063,24.5244386 4.58984375,24.3875594 3.65234375,24.3680053 C3.65234375,24.5831011 3.6328125,24.7981969 3.6328125,25.0132927 C3.65234375,30.5080131 5.72265625,35.5138793 9.140625,39.3073873 L9.140625,39.3073873 Z M4.1015625,20.6527139 C5.05859375,20.6722681 13.8476563,20.7113764 23.8476562,18.05201 C20.3125,11.7555688 16.484375,6.47594425 15.9375,5.71333182 C9.94140625,8.52913158 5.48828125,14.0434061 4.1015625,20.6527139 L4.1015625,20.6527139 Z M20,4.2663236 C20.5859375,5.0484902 24.4726562,10.3281148 27.96875,16.7614351 C35.5664062,13.906527 38.7695312,9.60461066 39.1601562,9.05709404 C35.390625,5.71333182 30.4296875,3.67969865 25,3.67969865 C23.28125,3.67969865 21.6015625,3.89479447 20,4.2663236 L20,4.2663236 Z M41.5234375,11.5209188 C41.0742188,12.1270979 37.5,16.7223267 29.609375,19.948764 C30.0976563,20.9655805 30.5859375,22.0019513 31.0351563,23.038322 C31.1914063,23.4098512 31.3476563,23.7813803 31.5039063,24.1333553 C38.6132813,23.2338637 45.6640625,24.6808719 46.3671875,24.8177511 C46.3085938,19.7923306 44.5117188,15.1579935 41.5234375,11.5209188 L41.5234375,11.5209188 Z"/></g></g></g></svg>