<svg width="50" height="51" viewBox="0 0 50 51" xmlns="http://www.w3.org/2000/svg"><g fill="none" fill-rule="evenodd"><rect fill="#E74D89" width="50" height="50" rx="25"/><path d="M25 50.004c-13.79 0-25-11.205-25-24.99C0 11.207 11.21.003 25 .003s25 11.204 25 24.99c0 13.785-11.21 25.01-25 25.01zm21.074-21.588c-.722-.235-6.6-1.975-13.3-.92 2.792 7.666 3.925 13.923 4.14 15.214 4.805-3.227 8.223-8.35 9.16-14.294zM33.34 44.686c-.313-1.878-1.563-8.41-4.55-16.192-.04.02-.1.04-.138.04-12.05 4.203-16.367 12.553-16.757 13.335 3.613 2.815 8.164 4.496 13.105 4.496 2.95.02 5.78-.586 8.34-1.68zm-24.2-5.38c.49-.82 6.348-10.52 17.364-14.097.273-.1.566-.177.84-.255-.528-1.213-1.114-2.425-1.74-3.618-10.663 3.187-21.014 3.05-21.952 3.03 0 .216-.02.43-.02.646.02 5.495 2.09 10.5 5.51 14.294zM4.103 20.654c.957.02 9.746.058 19.746-2.6-3.535-6.297-7.364-11.577-7.91-12.34-5.997 2.816-10.45 8.33-11.836 14.94zM20 4.266c.586.782 4.473 6.062 7.97 12.495 7.596-2.853 10.8-7.155 11.19-7.703C35.39 5.713 30.43 3.68 25 3.68c-1.72 0-3.398.215-5 .586zm21.523 7.255c-.45.607-4.023 5.202-11.914 8.43.488 1.016.976 2.052 1.425 3.088.156.372.313.743.47 1.095 7.108-.9 14.16.548 14.862.685-.058-5.026-1.855-9.66-4.844-13.297z" fill="#B2215A"/></g></svg>