<svg width="50px" height="50px" viewBox="0 0 50 50" version="1.1" xmlns="http://www.w3.org/2000/svg" xmlns:xlink="http://www.w3.org/1999/xlink">
    <!-- Generator: Sketch 42 (36781) - http://www.bohemiancoding.com/sketch -->
    <desc>Created with Sketch.</desc>
    <defs></defs>
    <g id="Facebook" stroke="none" stroke-width="1" fill="none" fill-rule="evenodd">
        <path d="M0,25 C0,11.1928806 11.1928806,0 25,0 C38.8071194,0 50,11.1928806 50,25 C50,38.8071194 38.8071194,50 25,50 C11.1928806,50 0,38.8071194 0,25 Z" id="back" fill="#3B5998"></path>
        <path d="M26.7724532,38.8661216 L26.7724532,25.2648017 L30.5270124,25.2648017 L31.0245725,20.5777115 L26.7724532,20.5777115 L26.7788322,18.2317778 C26.7788322,17.0093125 26.8949827,16.3542876 28.650796,16.3542876 L30.9979935,16.3542876 L30.9979935,11.6666667 L27.2429027,11.6666667 C22.7324349,11.6666667 21.1448671,13.9404097 21.1448671,17.7641304 L21.1448671,20.5782423 L18.3333333,20.5782423 L18.3333333,25.2653325 L21.1448671,25.2653325 L21.1448671,38.8661216 L26.7724532,38.8661216 Z" id="Shape" fill="#FFFFFF"></path>
    </g>
</svg>
