<svg width="50" height="50" viewBox="0 0 50 50" xmlns="http://www.w3.org/2000/svg"><g fill="none" fill-rule="evenodd"><circle fill="#1A1919" cx="25" cy="25" r="25"/><path d="M14.474 27.362c0-2.066.573-3.794 1.72-5.18-.228-.72-.343-1.47-.34-2.224 0-1.013.214-1.963.643-2.853.912 0 1.714.17 2.404.517.693.345 1.49.882 2.393 1.616 1.28-.31 2.592-.463 3.908-.456 1.25 0 2.432.14 3.545.418.885-.714 1.675-1.242 2.366-1.582.693-.342 1.49-.51 2.393-.51.43.89.644 1.842.644 2.853.002.746-.113 1.488-.342 2.198 1.148 1.395 1.72 3.13 1.72 5.206 0 1.807-.257 3.25-.77 4.332-.32.67-.764 1.25-1.335 1.74-.57.486-1.166.86-1.786 1.123-.618.262-1.337.47-2.15.622-.816.152-1.54.247-2.17.286-.632.04-1.335.058-2.11.058-1.226.014-2.45-.054-3.665-.202-.654-.073-1.3-.204-1.93-.392-.592-.184-1.17-.41-1.732-.674-.567-.265-1.084-.624-1.532-1.06-.446-.436-.814-.944-1.088-1.505-.52-1.075-.784-2.517-.784-4.33zm2.834 2.302c0 .77.134 1.44.405 2.01.27.57.61 1.02 1.024 1.347.413.327.93.59 1.543.785.616.198 1.207.325 1.773.387.565.06 1.193.092 1.884.092h2.126c.69 0 1.32-.03 1.884-.092.566-.062 1.158-.19 1.773-.387.614-.197 1.13-.458 1.543-.784.413-.328.754-.775 1.024-1.346.27-.57.405-1.24.405-2.01 0-1.046-.29-1.934-.872-2.668-.583-.733-1.37-1.1-2.366-1.1-.346 0-1.168.093-2.467.278-.658.1-1.322.147-1.987.142-.665.004-1.33-.044-1.987-.145-1.28-.183-2.105-.273-2.467-.273-.995 0-1.783.366-2.366 1.1-.58.732-.872 1.62-.872 2.667zm2.024 0c0-.348.052-.705.157-1.072.105-.366.286-.697.544-.995.257-.296.563-.444.917-.444.357 0 .662.148.918.444.258.298.44.63.545.995.105.37.158.724.158 1.072 0 .35-.052.707-.157 1.074-.105.37-.287.698-.545.995-.256.297-.563.447-.917.447-.354 0-.66-.15-.916-.447-.252-.287-.438-.626-.545-.994-.103-.35-.156-.71-.158-1.073v-.003zm8.097 0c0-.348.052-.705.157-1.072.105-.366.287-.697.545-.995.256-.296.563-.444.917-.444.354 0 .66.148.916.444.258.298.438.63.543.995.104.37.157.724.157 1.072 0 .35-.053.707-.158 1.074-.106.37-.286.698-.544.995-.257.297-.563.447-.917.447-.357 0-.662-.15-.918-.447-.253-.287-.44-.626-.545-.994-.103-.35-.156-.71-.158-1.073v-.003z" fill="#FFF"/></g></svg>