<svg width="50" height="50" viewBox="300 81 50 50" xmlns="http://www.w3.org/2000/svg"><g fill="none" fill-rule="evenodd"><path d="M300 106c0-13.807 11.025-25 24.626-25 13.6 0 24.625 11.193 24.625 25s-11.024 25-24.624 25S300 119.807 300 106z" fill="#DC4E41"/><path d="M320.12 105.286V108h4.437c-.18 1.165-1.342 3.415-4.438 3.415-2.672 0-4.852-2.24-4.852-4.998 0-2.76 2.18-5 4.85-5 1.52 0 2.538.657 3.12 1.222l2.123-2.07c-1.362-1.29-3.128-2.07-5.24-2.07-4.326 0-7.825 3.54-7.825 7.917 0 4.376 3.5 7.916 7.824 7.916 4.515 0 7.51-3.212 7.51-7.735 0-.52-.055-.916-.123-1.312h-7.388zM336.885 105.286h-2.235v-2.262h-2.236v2.262h-2.235v2.262h2.234v2.262h2.236v-2.262h2.235" fill="#FFF"/></g></svg>