<?xml version="1.0" encoding="UTF-8" standalone="no"?>
<svg width="50px" height="50px" viewBox="0 0 50 50" version="1.1" xmlns="http://www.w3.org/2000/svg" xmlns:xlink="http://www.w3.org/1999/xlink">
    <defs></defs>
    <g stroke="none" stroke-width="1" fill="none" fill-rule="evenodd">
        <g>
            <g>
                <path d="M25,0 C38.8065789,0 50,11.1934211 50,25 C50,38.8065789 38.8065789,50 25,50 C11.1934211,50 0,38.8065789 0,25 C0,11.1934211 11.1934211,0 25,0" id="Shape" fill="#DD4B39"></path>
                <path d="M23.9473684,21.1842105 C23.9473684,19.8684211 23.1578947,17.2368421 21.1842105,17.2368421 C20.3947368,17.2368421 19.4736842,17.7631579 19.4736842,19.4736842 C19.4736842,21.0526316 20.2631579,23.2894737 22.1052632,23.2894737 C22.1052632,23.2894737 23.9473684,23.1578947 23.9473684,21.1842105 L23.9473684,21.1842105 Z M23.1578947,27.6315789 L22.7631579,27.6315789 C22.3684211,27.6315789 21.1842105,27.7631579 20.3947368,28.0263158 C19.4736842,28.2894737 18.4210526,28.9473684 18.4210526,30.2631579 C18.4210526,31.7105263 19.7368421,33.1578947 22.3684211,33.1578947 C24.3421053,33.1578947 25.5263158,31.8421053 25.5263158,30.5263158 C25.5263158,29.6052632 24.8684211,28.9473684 23.1578947,27.6315789 L23.1578947,27.6315789 Z M21.1842105,34.7368421 C17.5,34.7368421 15.7894737,32.6315789 15.7894737,30.7894737 C15.7894737,30.1315789 15.9210526,28.6842105 17.7631579,27.6315789 C18.8157895,26.9736842 20.1315789,26.5789474 21.8421053,26.4473684 C21.5789474,26.1842105 21.4473684,25.7894737 21.4473684,25.1315789 C21.4473684,24.8684211 21.4473684,24.7368421 21.5789474,24.4736842 L21.0526316,24.4736842 C18.4210526,24.4736842 16.8421053,22.5 16.8421053,20.5263158 C16.8421053,18.2894737 18.5526316,15.7894737 22.2368421,15.7894737 L27.7631579,15.7894737 L27.3684211,16.1842105 L26.4473684,17.1052632 L26.3157895,17.2368421 L25.3947368,17.2368421 C25.9210526,17.7631579 26.5789474,18.6842105 26.5789474,20.1315789 C26.5789474,21.9736842 25.6578947,22.8947368 24.4736842,23.6842105 C24.2105263,23.8157895 23.9473684,24.2105263 23.9473684,24.6052632 C23.9473684,25 24.2105263,25.2631579 24.4736842,25.3947368 C24.6052632,25.5263158 24.8684211,25.6578947 25.1315789,25.7894737 C26.1842105,26.5789474 27.6315789,27.5 27.6315789,29.6052632 C27.6315789,31.9736842 25.9210526,34.7368421 21.1842105,34.7368421 L21.1842105,34.7368421 Z M34.2105263,25.2631579 L31.5789474,25.2631579 L31.5789474,27.8947368 L30.2631579,27.8947368 L30.2631579,25.2631579 L27.6315789,25.2631579 L27.6315789,23.9473684 L30.2631579,23.9473684 L30.2631579,21.3157895 L31.5789474,21.3157895 L31.5789474,23.9473684 L34.2105263,23.9473684 L34.2105263,25.2631579 L34.2105263,25.2631579 Z" id="Shape" fill="#FFFFFF"></path>
            </g>
        </g>
    </g>
</svg>
