<svg xmlns="http://www.w3.org/2000/svg" xmlns:xlink="http://www.w3.org/1999/xlink" width="50" height="50" version="1.1" viewBox="300 81 50 50"><desc>Created with Sketch.</desc><g id="Google-+" fill="none" fill-rule="evenodd" stroke="none" stroke-width="1" transform="translate(300.000000, 81.000000)"><path id="back" fill="#DC4E41" d="M0,25 C0,11.1928806 11.0253002,0 24.6256989,0 C38.2260975,0 49.2513977,11.1928806 49.2513977,25 C49.2513977,38.8071194 38.2260975,50 24.6256989,50 C11.0253002,50 0,38.8071194 0,25 Z"/><path id="Shape" fill="#FFF" d="M20.119225,24.2857143 L20.119225,27 L24.5566319,27 C24.3777943,28.164881 23.2153502,30.4154762 20.119225,30.4154762 C17.447839,30.4154762 15.2682563,28.1761905 15.2682563,25.4166667 C15.2682563,22.6571429 17.447839,20.4178571 20.119225,20.4178571 C21.6393443,20.4178571 22.6564829,21.0738095 23.2377049,21.6392857 L25.3614009,19.5696429 C23.9977645,18.2803571 22.2317437,17.5 20.119225,17.5 C15.7935917,17.5 12.295082,21.039881 12.295082,25.4166667 C12.295082,29.7934524 15.7935917,33.3333333 20.119225,33.3333333 C24.6348733,33.3333333 27.6304024,30.1214286 27.6304024,25.597619 C27.6304024,25.077381 27.5745156,24.6815476 27.5074516,24.2857143 L20.119225,24.2857143 L20.119225,24.2857143 Z"/><polyline id="Shape-Copy" fill="#FFF" points="36.885 24.286 34.65 24.286 34.65 22.024 32.414 22.024 32.414 24.286 30.179 24.286 30.179 26.548 32.414 26.548 32.414 28.81 34.65 28.81 34.65 26.548 36.885 26.548"/></g></svg>