<svg width="50" height="50" viewBox="0 0 50 50" xmlns="http://www.w3.org/2000/svg"><g fill="none" fill-rule="evenodd"><rect fill="#E6B900" width="50" height="50" rx="25"/><g fill="#000"><path d="M40.91 28.914c0 .76-.038 1.24-.114 1.44-.077.2-.41.3-.66.3-.247 0-.41-.096-.494-.29-.083-.193-.124-.634-.124-1.324v-4.152c0-.715.036-1.16.11-1.34.072-.176.23-.265.477-.265.252 0 .59.1.676.304.087.203.13.637.13 1.3v4.027zm-5.37-11.897v15.708h3.717l.258-1c.336.402.706.703 1.112.905.405.2 1.01.3 1.48.3.65 0 1.215-.17 1.69-.507.474-.34.776-.74.905-1.2.128-.46.193-1.163.193-2.105V24.71c0-.947-.022-1.566-.065-1.856-.043-.29-.17-.587-.38-.89-.21-.303-.517-.54-.92-.707-.4-.168-.875-.252-1.422-.252-.475 0-1.083.094-1.488.28-.406.184-.773.465-1.102.842v-5.11H35.54zM29.8 19.844c.163.093.268.24.313.44.046.2.07.656.07 1.366v6.09c0 1.045-.07 1.686-.207 1.92-.137.237-.503.355-1.096.355v-10.31c.45 0 .757.045.92.14zm-.043 12.88c.99 0 1.73-.052 2.22-.16.493-.105.905-.293 1.24-.56.334-.268.568-.64.703-1.115.134-.475.214-1.417.214-2.825V22.55c0-1.487-.06-2.483-.15-2.99-.093-.507-.322-.967-.69-1.38-.366-.414-.902-.71-1.606-.892-.704-.18-1.854-.27-3.853-.27h-3.08v15.707h5.002zM17.95 17.017l-.958 7.338-.59-3.99c-.174-1.28-.34-2.397-.496-3.348h-5.353v15.708h3.616l.012-10.372 1.522 10.372h2.576l1.444-10.602.013 10.602h3.606V17.017H17.95zM5.014 17.017h4.13v15.708h-4.13"/></g></g></svg>