<svg xmlns="http://www.w3.org/2000/svg" xmlns:xlink="http://www.w3.org/1999/xlink" width="50" height="50" version="1.1" viewBox="0 0 50 50"><g id="Page-1" fill="none" fill-rule="evenodd" stroke="none" stroke-width="1"><g id="Group"><g><rect id="Rectangle-path" width="50" height="50" x="0" y="0" fill="#E6B900" rx="25"/><g id="g24" fill="#000" transform="translate(5.000000, 17.000000)"><path id="path52" d="M35.9102976,11.9135444 C35.9102976,12.673757 35.8720556,13.1539996 35.7958577,13.3537579 C35.7193737,13.5537732 35.3869023,13.6542951 35.1348172,13.6542951 C34.8889757,13.6542951 34.7250814,13.5578867 34.6418335,13.3642985 C34.5588717,13.1709675 34.517716,12.7295711 34.517716,12.0395438 L34.517716,7.8882994 C34.517716,7.17256317 34.554137,6.72651348 34.6272391,6.54886487 C34.700107,6.37198752 34.8593187,6.28303467 35.104874,6.28303467 C35.356699,6.28303467 35.6946595,6.38407071 35.7810032,6.58717115 C35.8671128,6.79027159 35.9102976,7.223981 35.9102976,7.88778522 L35.9102976,11.9135444 L35.9102976,11.9135444 Z M30.5400264,0.0170005396 L30.5400264,15.7251483 L34.2573321,15.7251483 L34.5146202,14.7243002 C34.8507337,15.1266447 35.2214471,15.4284674 35.6270206,15.6295111 C36.0323339,15.8305292 36.6377283,15.9308196 37.1057117,15.9308196 C37.7584274,15.9308196 38.3219118,15.7613979 38.7966851,15.4230685 C39.2711982,15.0844821 39.5729719,14.6841943 39.701746,14.2229763 C39.830234,13.7615013 39.894517,13.0603934 39.894517,12.1184445 L39.894517,7.71142205 C39.894517,6.76302014 39.8729246,6.14394944 39.830234,5.85369577 C39.7870752,5.56344211 39.6606164,5.26676122 39.4499211,4.9636531 C39.2389396,4.66080206 38.9327174,4.42530839 38.5305259,4.25742917 C38.1286205,4.08929286 37.6546277,4.00548179 37.1077929,4.00548179 C36.6332798,4.00548179 36.0250497,4.09880516 35.6197364,4.28390935 C35.2144231,4.46901355 34.8471176,4.750012 34.517742,5.12664762 L34.517742,0.0170005396 L30.5400264,0.0170005396 L30.5400264,0.0170005396 Z"/><path id="path44" d="M24.7998222,2.84395296 C24.9629621,2.93727633 25.0675423,3.08458841 25.1130685,3.28434669 C25.1585948,3.48461915 25.1817481,3.93966697 25.1817481,4.64974723 L25.1817481,10.7394182 C25.1817481,11.7852569 25.1130685,12.425666 24.9759696,12.6611597 C24.8388447,12.8971675 24.4733603,13.0146573 23.8799587,13.0146573 L23.8799587,2.70358228 C24.3297316,2.70358228 24.6367083,2.7503725 24.7998222,2.84395296 L24.7998222,2.84395296 Z M24.7571577,15.7251483 C25.746273,15.7251483 26.4866072,15.6719566 26.9783162,15.5652388 C27.4697651,15.4588039 27.8823366,15.2713602 28.2168892,15.003499 C28.5509214,14.7355864 28.7850562,14.3643754 28.9195536,13.8892489 C29.0537909,13.4149451 29.1336309,12.4732018 29.1336309,11.0653815 L29.1336309,5.54876232 C29.1336309,4.06304405 29.074837,3.06682355 28.9832903,2.55984373 C28.8914575,2.05312099 28.6622655,1.59293139 28.2951942,1.17953202 C27.9283831,0.766132647 27.3924746,0.469194666 26.6879891,0.288460985 C25.9837898,0.107727305 24.8339019,0.0169748307 22.8354315,0.0169748307 L19.7547382,0.0169748307 L19.7547382,15.7251226 L24.7571577,15.7251226 L24.7571577,15.7251483 Z"/><path id="path36" d="M12.9487005,0.0170005396 L11.9923901,7.35535357 L11.4008095,3.3648156 C11.2283302,2.08402311 11.0633953,0.967999057 10.9060047,0.0170005396 L5.55264322,0.0170005396 L5.55264322,15.7251483 L9.169245,15.7251483 L9.18225249,5.35340026 L10.7043887,15.7251483 L13.2803915,15.7251483 L14.7244827,5.1225342 L14.7374902,15.7251483 L18.3426454,15.7251483 L18.3426454,0.0170005396 L12.9487005,0.0170005396 L12.9487005,0.0170005396 Z"/><polygon id="rect28" points=".014 .017 4.143 .017 4.143 15.725 .014 15.725"/></g></g></g></g></svg>