<svg xmlns="http://www.w3.org/2000/svg" xmlns:xlink="http://www.w3.org/1999/xlink" width="50" height="50" version="1.1" viewBox="0 92 50 50"><desc>Created with Sketch.</desc><g id="instagram" fill="none" fill-rule="evenodd" stroke="none" stroke-width="1" transform="translate(0.000000, 92.000000)"><path id="Instagram" fill="#517FA4" d="M0,25 C0,11.1928806 11.1928806,0 25,0 C38.8071194,0 50,11.1928806 50,25 C50,38.8071194 38.8071194,50 25,50 C11.1928806,50 0,38.8071194 0,25 Z"/><path id="Fill-32" fill="#FFF" d="M33.8756098,31.7286585 C33.8756098,32.8884146 32.9323171,33.829878 31.7719512,33.829878 L18.3054878,33.829878 C17.145122,33.829878 16.202439,32.8884146 16.202439,31.7286585 L16.202439,22.747561 L19.4792683,22.747561 C19.1969512,23.4445122 19.0365854,24.2036585 19.0365854,25 C19.0365854,28.3079268 21.7292683,30.997561 25.0390244,30.997561 C28.3487805,30.997561 31.0408537,28.3079268 31.0408537,25 C31.0408537,24.2036585 30.879878,23.4445122 30.5987805,22.747561 L33.8756098,22.747561 L33.8756098,31.7286585 L33.8756098,31.7286585 Z M21.9067073,22.747561 C22.6079268,21.775 23.7493902,21.1378049 25.0390244,21.1378049 C26.3286585,21.1378049 27.4689024,21.775 28.1707317,22.747561 C28.6286585,23.3823171 28.9042683,24.1579268 28.9042683,25 C28.9042683,27.1292683 27.1695122,28.8597561 25.0390244,28.8597561 C22.9079268,28.8597561 21.175,27.1292683 21.175,25 C21.175,24.1579268 21.4493902,23.3823171 21.9067073,22.747561 L21.9067073,22.747561 Z M32.9884146,16.5609756 L33.4731707,16.5585366 L33.4731707,20.2756098 L29.7652439,20.2896341 L29.7518293,16.5707317 L32.9884146,16.5609756 L32.9884146,16.5609756 Z M31.7719512,14.0317073 L18.3054878,14.0317073 C15.9670732,14.0317073 14.0634146,15.9329268 14.0634146,18.2707317 L14.0634146,31.7286585 C14.0634146,34.0664634 15.9670732,35.9676829 18.3054878,35.9676829 L31.7719512,35.9676829 C34.1103659,35.9676829 36.0146341,34.0664634 36.0146341,31.7286585 L36.0146341,18.2707317 C36.0146341,15.9329268 34.1103659,14.0317073 31.7719512,14.0317073 L31.7719512,14.0317073 Z"/></g></svg>