<?xml version="1.0" encoding="UTF-8" standalone="no"?>
<svg width="50px" height="50px" viewBox="0 0 50 50" version="1.1" xmlns="http://www.w3.org/2000/svg" xmlns:xlink="http://www.w3.org/1999/xlink">
    <!-- Generator: Sketch 40.2 (33826) - http://www.bohemiancoding.com/sketch -->
    <title>link-instagram</title>
    <desc>Created with Sketch.</desc>
    <defs></defs>
    <g id="Page-1" stroke="none" stroke-width="1" fill="none" fill-rule="evenodd">
        <g id="link-instagram">
            <g id="Group">
                <ellipse id="Oval" fill="#517FA4" cx="25.0404762" cy="24.9607143" rx="24.9595238" ry="24.9595238"></ellipse>
                <g transform="translate(11.500000, 11.664286)" id="Shape" fill="#FFFFFF">
                    <path d="M16.3392857,13.9166667 C16.3366614,12.4480113 15.1460381,11.258453 13.677381,11.2571429 C12.2082598,11.2584544 11.0174449,12.4487368 11.0154762,13.9178571 C11.0167878,15.3869783 12.2070701,16.5777932 13.6761905,16.5797619 C15.1448467,16.5777945 16.3349374,15.3877039 16.3369048,13.9190476 L16.3392857,13.9166667 Z M13.6785714,7.50833333 C15.0595238,7.50833333 16.3392857,7.94880952 17.3869048,8.6952381 L27.0416667,8.6952381 L27.0416667,6.81428571 C27.0377297,3.0879956 24.0179568,0.0682226327 20.2916667,0.0642857143 L6.78809524,0.0642857143 C3.06273497,0.069534326 0.04441051,3.08892383 0.0404761905,6.81428571 L0.0404761905,8.6952381 L9.97142857,8.6952381 C11.0534067,7.9223424 12.3500839,7.50732244 13.6797619,7.50833333 L13.6785714,7.50833333 Z M19.2083333,4.16666667 C19.2083333,3.7524531 19.5441198,3.41666667 19.9583333,3.41666667 L22.275,3.41666667 C22.6892136,3.41666667 23.025,3.7524531 23.025,4.16666667 L23.025,6.48452381 C23.025,6.89761905 22.6869048,7.23452381 22.275,7.23452381 L19.9583333,7.23452381 C19.5441198,7.23452381 19.2083333,6.89873737 19.2083333,6.48452381 L19.2083333,4.16666667 L19.2083333,4.16666667 Z"></path>
                    <path d="M20.0880952,13.9166667 C20.0854699,17.4563111 17.2170249,20.3252889 13.677381,20.3285714 C10.1382014,20.3252899 7.26994824,17.4570367 7.26666667,13.9178571 C7.26666667,12.9464286 7.48571429,12.025 7.87380952,11.1964286 L0.0392857143,11.1964286 L0.0392857143,20.4345238 C0.044534326,24.1598841 3.06392383,27.1782085 6.78928571,27.1821429 L20.2940476,27.1821429 C24.0203377,27.1782059 27.0401107,24.158433 27.0440476,20.4321429 L27.0440476,11.1964286 L19.4809524,11.1964286 C19.8820292,12.0479553 20.0893828,12.9777938 20.0880952,13.9190476 L20.0880952,13.9166667 Z"></path>
                </g>
            </g>
        </g>
    </g>
</svg>