<svg width="50" height="50" viewBox="0 92 50 50" xmlns="http://www.w3.org/2000/svg"><g fill="none" fill-rule="evenodd"><path d="M0 117c0-13.807 11.193-25 25-25s25 11.193 25 25-11.193 25-25 25-25-11.193-25-25z" fill="#517FA4"/><path d="M33.876 123.73c0 1.158-.944 2.1-2.104 2.1H18.305c-1.16 0-2.103-.942-2.103-2.1v-8.982h3.277c-.283.697-.443 1.456-.443 2.252 0 3.308 2.692 5.998 6.002 5.998 3.31 0 6-2.69 6-5.998 0-.796-.16-1.555-.44-2.252h3.276v8.98zm-11.97-8.982c.702-.973 1.843-1.61 3.133-1.61s2.43.637 3.13 1.61c.46.634.734 1.41.734 2.252 0 2.13-1.734 3.86-3.865 3.86-2.132 0-3.865-1.73-3.865-3.86 0-.842.274-1.618.732-2.252zm11.082-6.187h.485v3.716l-3.708.014-.013-3.72 3.236-.01zm-1.216-2.528H18.305c-2.338 0-4.242 1.9-4.242 4.24v13.457c0 2.336 1.904 4.238 4.242 4.238h13.467c2.338 0 4.243-1.902 4.243-4.24v-13.457c0-2.337-1.905-4.238-4.243-4.238z" fill="#FFF"/></g></svg>