<svg width="50" height="50" viewBox="724 224 50 50" xmlns="http://www.w3.org/2000/svg"><g fill-rule="nonzero" transform="translate(724 224)" fill="none"><rect fill="#0F2105" width="50" height="50" rx="25"/><path d="M24.07 21.65l3.862-5.595c.73-1.055 1.67-1.58 2.827-1.58.94 0 1.756.333 2.447 1.003.688.668 1.032 1.468 1.032 2.4 0 .69-.182 1.298-.548 1.825l-3.48 5.06 4.255 5.398c.426.537.638 1.166.638 1.886 0 .953-.333 1.77-1.002 2.454-.67.684-1.48 1.026-2.432 1.026-1.044 0-1.838-.34-2.386-1.018l-5.214-6.505v3.586c0 1.023-.178 1.82-.532 2.386-.65 1.033-1.592 1.55-2.827 1.55-1.124 0-1.996-.38-2.614-1.14-.578-.7-.866-1.627-.866-2.78V18.302c0-1.094.294-1.996.882-2.706.618-.75 1.468-1.125 2.552-1.125 1.035 0 1.895.375 2.585 1.125.384.416.628.836.73 1.262.06.262.09.753.09 1.473v3.314" fill="#56B368"/></g></svg>