<?xml version="1.0" encoding="UTF-8" standalone="no"?>
<svg width="50px" height="50px" viewBox="0 0 50 50" version="1.1" xmlns="http://www.w3.org/2000/svg" xmlns:xlink="http://www.w3.org/1999/xlink">
    <!-- Generator: Sketch 40.2 (33826) - http://www.bohemiancoding.com/sketch -->
    <title>link-kickstarter</title>
    <desc>Created with Sketch.</desc>
    <defs></defs>
    <g id="Page-1" stroke="none" stroke-width="1" fill="none" fill-rule="evenodd">
        <g id="link-kickstarter">
            <g id="Group">
                <rect id="Rectangle-path" fill="#0F2105" x="0" y="0" width="50" height="50" rx="25"></rect>
                <path d="M24.0697368,21.6486842 L27.9315789,16.0565789 C28.6605263,15 29.6026316,14.4736842 30.7605263,14.4736842 C31.7013158,14.4736842 32.5157895,14.8078947 33.2078947,15.4776316 C33.8947368,16.1460526 34.2394737,16.9460526 34.2394737,17.8789474 C34.2394737,18.5671053 34.0578947,19.1763158 33.6921053,19.7026316 L30.2105263,24.7631579 L34.4671053,30.1605263 C34.8934211,30.6973684 35.1052632,31.3263158 35.1052632,32.0460526 C35.1052632,32.9986842 34.7723684,33.8157895 34.1026316,34.5 C33.4342105,35.1842105 32.6223684,35.5263158 31.6710526,35.5263158 C30.6263158,35.5263158 29.8315789,35.1868421 29.2842105,34.5078947 L24.0697368,28.0026316 L24.0697368,31.5894737 C24.0697368,32.6131579 23.8921053,33.4092105 23.5381579,33.9763158 C22.8881579,35.0092105 21.9460526,35.5263158 20.7092105,35.5263158 C19.5842105,35.5263158 18.7131579,35.1447368 18.0947368,34.3868421 C17.5157895,33.6868421 17.2289474,32.7592105 17.2289474,31.6052632 L17.2289474,18.3026316 C17.2289474,17.2105263 17.5223684,16.3078947 18.1105263,15.5986842 C18.7289474,14.8486842 19.5789474,14.4736842 20.6631579,14.4736842 C21.6973684,14.4736842 22.5578947,14.8486842 23.2473684,15.5986842 C23.6315789,16.0144737 23.875,16.4342105 23.9763158,16.8618421 C24.0368421,17.125 24.0684211,17.6144737 24.0684211,18.3355263 L24.0684211,21.6486842" id="Shape" fill="#56B368"></path>
            </g>
        </g>
    </g>
</svg>