<svg xmlns="http://www.w3.org/2000/svg" xmlns:xlink="http://www.w3.org/1999/xlink" width="50" height="50" version="1.1" viewBox="0 0 50 50"><g id="Page-1" fill="none" fill-rule="evenodd" stroke="none" stroke-width="1"><g id="Group"><g><rect id="Rectangle-path" width="50" height="50" x="0" y="0" fill="#25272B" rx="25"/><g id="Group-2" transform="translate(9.000000, 19.000000)"><path id="Fill-11" fill="#6DB746" d="M20.8536381,3.07907692 C19.8332952,1.36184615 17.9769905,0.208923077 15.8485333,0.208923077 C13.720381,0.208923077 11.8640762,1.36184615 10.8437333,3.07907692 C11.3700571,3.96430769 11.6781714,4.99723077 11.6781714,6.10492308 C11.6781714,7.21261538 11.3700571,8.24523077 10.8437333,9.13046154 C11.8640762,10.8473846 13.720381,12 15.8485333,12 C17.9769905,12 19.8332952,10.8473846 20.8536381,9.13046154 C20.3273143,8.24523077 20.0192,7.21261538 20.0192,6.10492308 C20.0192,4.99723077 20.3273143,3.96430769 20.8536381,3.07907692"/><path id="Fill-12" fill="#EC914A" d="M10.8437333,3.07907692 C9.82308571,1.36184615 7.96678095,0.208923077 5.83862857,0.208923077 C2.61333333,0.208923077 0,2.84892308 0,6.10492308 C0,9.36061538 2.61333333,12 5.83862857,12 C7.96678095,12 9.82308571,10.8473846 10.8437333,9.13046154 C10.3174095,8.24523077 10.0092952,7.21261538 10.0092952,6.10492308 C10.0092952,4.99723077 10.3174095,3.96430769 10.8437333,3.07907692"/><path id="Fill-13" fill="#F8E36E" d="M10.8437333,3.07907692 C10.3174095,3.96430769 10.0092952,4.99723077 10.0092952,6.10492308 C10.0092952,7.21261538 10.3174095,8.24523077 10.8437333,9.13046154 C11.3700571,8.24523077 11.6781714,7.21261538 11.6781714,6.10492308 C11.6781714,4.99723077 11.3700571,3.96430769 10.8437333,3.07907692"/><path id="Fill-14" fill="#9FC4DE" d="M25.8587429,0.208923077 C23.7305905,0.208923077 21.8742857,1.36184615 20.8536381,3.07907692 C21.3799619,3.96430769 21.6877714,4.99723077 21.6877714,6.10492308 C21.6877714,7.21261538 21.3799619,8.24523077 20.8536381,9.13046154 C21.8742857,10.8473846 23.7305905,12 25.8587429,12 C29.0837333,12 31.6976762,9.36061538 31.6976762,6.10492308 C31.6976762,2.84892308 29.0837333,0.208923077 25.8587429,0.208923077"/><path id="Fill-15" fill="#CAE7E4" d="M20.8536381,3.07907692 C20.3273143,3.96430769 20.0192,4.99723077 20.0192,6.10492308 C20.0192,7.21261538 20.3273143,8.24523077 20.8536381,9.13046154 C21.3799619,8.24523077 21.6877714,7.21261538 21.6877714,6.10492308 C21.6877714,4.99723077 21.3799619,3.96430769 20.8536381,3.07907692"/></g></g></g></g></svg>