<svg width="50" height="50" viewBox="0 0 50 50" xmlns="http://www.w3.org/2000/svg"><g fill="none" fill-rule="evenodd"><rect fill="#25272B" width="50" height="50" rx="25"/><path d="M29.854 22.08c-1.02-1.718-2.877-2.87-5.005-2.87-2.13 0-3.986 1.152-5.006 2.87.526.884.834 1.917.834 3.025 0 1.108-.308 2.14-.834 3.025C20.864 29.847 22.72 31 24.85 31c2.127 0 3.983-1.153 5.004-2.87-.527-.885-.835-1.917-.835-3.025 0-1.108.307-2.14.834-3.026" fill="#6DB746"/><path d="M19.844 22.08c-1.02-1.718-2.877-2.87-5.005-2.87-3.227 0-5.84 2.64-5.84 5.895C9 28.36 11.613 31 14.84 31c2.127 0 3.983-1.153 5.004-2.87-.527-.885-.835-1.917-.835-3.025 0-1.108.307-2.14.834-3.026" fill="#EC914A"/><path d="M19.844 22.08c-.527.884-.835 1.917-.835 3.025 0 1.108.307 2.14.834 3.025.526-.885.834-1.917.834-3.025 0-1.108-.308-2.14-.834-3.026" fill="#F8E36E"/><path d="M34.86 19.21c-2.13 0-3.986 1.152-5.006 2.87.526.884.834 1.917.834 3.025 0 1.108-.308 2.14-.834 3.025C30.874 29.847 32.73 31 34.86 31c3.224 0 5.838-2.64 5.838-5.895 0-3.256-2.614-5.896-5.84-5.896" fill="#9FC4DE"/><path d="M29.854 22.08c-.527.884-.835 1.917-.835 3.025 0 1.108.307 2.14.834 3.025.526-.885.834-1.917.834-3.025 0-1.108-.308-2.14-.834-3.026" fill="#CAE7E4"/></g></svg>