<svg xmlns="http://www.w3.org/2000/svg" width="50" height="50" viewBox="-50 -50 100 100">
  <circle r="50" fill="#282c37"/>
  <path fill="#2b90d9" d="M33.51 6.905c-1.03 4.895-9.217 10.253-18.62 11.291-4.902.541-9.73 1.039-14.877.82-8.419-.356-15.062-1.858-15.062-1.858 0 .758.05 1.48.152 2.155 1.094 7.683 8.238 8.143 15.005 8.358 6.83.216 12.912-1.557 12.912-1.557l.28 5.71S8.523 34.196.013 34.633c-4.693.238-10.52-.11-17.307-1.77-14.72-3.604-17.25-18.114-17.638-32.837-.118-4.372-.045-8.494-.045-11.941 0-15.055 10.666-19.468 10.666-19.468 5.378-2.284 14.606-3.245 24.2-3.317h.236c9.594.072 18.828 1.033 24.206 3.317 0 0 10.666 4.413 10.666 19.468 0 0 .134 11.108-1.488 18.82"/>
  <path fill="#fff" d="M22.416-10.747v18.23h-7.81v-17.694c0-3.73-1.696-5.623-5.09-5.623-3.753 0-5.634 2.246-5.634 6.686V.537h-7.763v-9.685c0-4.44-1.882-6.686-5.634-6.686-3.395 0-5.092 1.893-5.092 5.623V7.482h-7.809v-18.23c0-3.725 1.026-6.685 3.086-8.876 2.125-2.19 4.907-3.313 8.361-3.313 3.997 0 7.023 1.42 9.024 4.262L0-15.66l1.946-3.016c2-2.841 5.026-4.262 9.023-4.262 3.454 0 6.236 1.123 8.361 3.313 2.06 2.19 3.086 5.151 3.086 8.877"/>
</svg>
