<svg xmlns="http://www.w3.org/2000/svg" xmlns:xlink="http://www.w3.org/1999/xlink" width="50" height="50" version="1.1" viewBox="0 0 50 50"><g id="Page-1" fill="none" fill-rule="evenodd" stroke="none" stroke-width="1"><g id="Group"><g><rect id="Rectangle-path" width="50" height="50" x="0" y="0" fill="#FFF" rx="25"/><g transform="translate(9.000000, 11.000000)"><path id="Fill-1" fill="#3BFB95" d="M22.1240755,0.332888889 C21.6428679,0.0849333333 21.2492075,0.335688889 21.2492075,0.890088889 L21.2492075,22.9444444 L30.0307925,27.4695556 C30.9971321,27.9673333 31.7805283,27.6188889 31.7805283,26.6911556 L31.7805283,5.45346667 C31.7805283,5.3648 31.7316226,5.28328889 31.6546415,5.24346667 L22.1240755,0.332888889"/><path id="Fill-2" fill="#1EE279" d="M10.7181887,17.5180444 L20.7366038,0.740444444 C21.018566,0.268177778 21.6428679,0.0849333333 22.1240755,0.332888889 L31.6655094,5.24906667 C31.7273962,5.28111111 31.749434,5.36075556 31.7132075,5.42142222 L21.2492075,22.9444444 L10.7181887,17.5180444"/><path id="Fill-3" fill="#20C66E" d="M1.64498113,0.633422222 C0.842867925,0.219955556 0.571169811,0.525777778 1.04120755,1.31288889 L10.7181887,17.5180444 L21.2492075,22.9444444 L10.7408302,5.34644444 C10.7260377,5.32155556 10.7046038,5.30164444 10.6792453,5.28857778 L1.64498113,0.633422222"/><path id="Fill-4" fill="#00AB6C" d="M10.7181887,26.6911556 C10.7181887,27.6151556 10.0618868,28.0329778 9.26007547,27.6198222 L1.06173585,23.3952444 C0.580528302,23.1472889 0.186867925,22.4908444 0.186867925,21.9364444 L0.186867925,1.22608889 C0.186867925,0.486888889 0.711849057,0.152444444 1.35335849,0.483155556 L10.661434,5.27924444 C10.6961509,5.29728889 10.7181887,5.33368889 10.7181887,5.37351111 L10.7181887,26.6911556"/></g></g></g></g></svg>