<svg width="50" height="50" viewBox="0 0 50 50" xmlns="http://www.w3.org/2000/svg"><g fill="none" fill-rule="evenodd"><rect fill="#FFF" width="50" height="50" rx="25"/><path d="M31.124 11.333c-.48-.248-.875.003-.875.557v22.054l8.78 4.526c.967.497 1.75.15 1.75-.78V16.454c0-.088-.048-.17-.125-.21l-9.53-4.91" fill="#3BFB95"/><path d="M19.718 28.518l10.02-16.778c.28-.472.905-.655 1.386-.407l9.542 4.916c.06.03.083.11.047.17L30.25 33.945l-10.532-5.426" fill="#1EE279"/><path d="M10.645 11.633c-.802-.413-1.074-.107-.604.68l9.678 16.205 10.53 5.426-10.507-17.598c-.014-.024-.035-.044-.06-.057l-9.035-4.657" fill="#20C66E"/><path d="M19.718 37.69c0 .925-.656 1.343-1.458.93l-8.198-4.225c-.48-.248-.875-.904-.875-1.46v-20.71c0-.738.525-1.073 1.166-.742l9.308 4.796c.036.017.058.054.058.094V37.69" fill="#00AB6C"/></g></svg>