<?xml version="1.0" encoding="UTF-8" standalone="no"?>
<svg
   xmlns:dc="http://purl.org/dc/elements/1.1/"
   xmlns:cc="http://creativecommons.org/ns#"
   xmlns:rdf="http://www.w3.org/1999/02/22-rdf-syntax-ns#"
   xmlns:svg="http://www.w3.org/2000/svg"
   xmlns="http://www.w3.org/2000/svg"
   xmlns:sodipodi="http://sodipodi.sourceforge.net/DTD/sodipodi-0.dtd"
   xmlns:inkscape="http://www.inkscape.org/namespaces/inkscape"
   width="50px"
   height="50px"
   viewBox="400 1 50 50"
   version="1.1"
   id="svg9"
   sodipodi:docname="mal.svg"
   inkscape:version="0.92.1 r15371">
  <metadata
     id="metadata13">
    <rdf:RDF>
      <cc:Work
         rdf:about="">
        <dc:format>image/svg+xml</dc:format>
        <dc:type
           rdf:resource="http://purl.org/dc/dcmitype/StillImage" />
        <dc:title></dc:title>
      </cc:Work>
    </rdf:RDF>
  </metadata>
  <sodipodi:namedview
     pagecolor="#ffffff"
     bordercolor="#666666"
     borderopacity="1"
     objecttolerance="10"
     gridtolerance="10"
     guidetolerance="10"
     inkscape:pageopacity="0"
     inkscape:pageshadow="2"
     inkscape:window-width="1366"
     inkscape:window-height="715"
     id="namedview11"
     showgrid="false"
     showguides="true"
     inkscape:guide-bbox="true"
     inkscape:zoom="6.675088"
     inkscape:cx="49.989441"
     inkscape:cy="5.1563026"
     inkscape:window-x="-8"
     inkscape:window-y="-8"
     inkscape:window-maximized="1"
     inkscape:current-layer="Twitter">
    <sodipodi:guide
       position="24.868586,55.729602"
       orientation="1,0"
       id="guide41"
       inkscape:locked="false" />
    <sodipodi:guide
       position="0,25"
       orientation="0,1"
       id="guide45"
       inkscape:locked="false" />
  </sodipodi:namedview>
  <!-- Generator: Sketch 42 (36781) - http://www.bohemiancoding.com/sketch -->
  <desc
     id="desc2">Created with Sketch.</desc>
  <defs
     id="defs4" />
  <g
     id="Twitter"
     stroke="none"
     stroke-width="1"
     fill="none"
     fill-rule="evenodd"
     transform="translate(400.000000, 1.000000)">
    <path
       d="M0,25 C0,11.1928806 11.1928806,0 25,0 C38.8071194,0 50,11.1928806 50,25 C50,38.8071194 38.8071194,50 25,50 C11.1928806,50 0,38.8071194 0,25 Z"
       id="back"
       fill="#55ACEE"
       style="fill:#2e51a2;fill-opacity:1" />
    <path
       inkscape:connector-curvature="0"
       d="m 6.1276368,16.370007 c 1.362591,0.0058 2.7266285,-0.01445 4.0892212,0.01011 1.005689,1.398716 2.041722,2.774312 3.048854,4.170138 0.0578,0.08669 0.134386,0.161842 0.234082,0.19796 1.040368,-1.436286 2.099519,-2.856676 3.141332,-4.291516 0.02167,-0.01878 0.06358,-0.0578 0.08382,-0.07947 1.286009,-0.01879 2.574909,0 3.862363,-0.0087 0.01734,5.175826 0,10.353097 0.01008,15.528923 -1.39727,0.04336 -2.793096,0 -4.190367,0.02891 -0.0059,-2.947705 0.0071,-5.895413 -0.0071,-8.857569 -0.202297,0.101143 -0.288994,0.317891 -0.433491,0.476835 -0.852522,1.083716 -1.676146,2.181882 -2.528668,3.251147 -0.910321,-1.170414 -1.820642,-2.340827 -2.716514,-3.511239 -0.07224,-0.08669 -0.144497,-0.158949 -0.216744,-0.231192 -0.01447,2.644266 0,5.302981 -0.01447,7.947247 -0.01447,0.317891 0.01447,0.63578 -0.02891,0.953671 -1.4449547,0 -2.8899092,-0.01447 -4.3348632,0.01447 -0.04337,-1.199284 -0.04337,-2.413046 -0.01449,-3.612358 -0.01447,-3.973623 -0.01447,-7.950137 -0.01447,-11.935321 z m 24.2318822,0.07225 c 1.189198,-0.105482 2.384174,-0.06791 3.579151,-0.06791 0.378578,1.131399 0.693579,2.285917 1.040368,3.427431 -0.58954,0.04046 -1.184863,0.0059 -1.777293,0.01735 -1.245551,0.01447 -2.521445,-0.08669 -3.732317,0.277431 -1.236881,0.358349 -2.346606,1.239773 -2.84945,2.441974 -0.09537,0.260092 -0.245642,0.524518 -0.231192,0.809175 1.293233,-0.01734 2.586467,-0.0058 3.881146,-0.0086 0.03612,-1.002799 0.0059,-2.008487 0.01447,-3.011284 0.913211,-0.04768 1.827867,-0.0059 2.741077,-0.02022 0.404588,0.01447 0.809175,-0.03323 1.209427,0.03467 -0.01447,3.807454 -0.0044,7.614908 -0.0058,11.422363 -1.27445,-0.01447 -2.550345,0.01447 -3.823349,-0.01447 0.0071,-1.618347 -0.0044,-3.222247 0.0071,-4.826146 -0.907431,-0.0578 -1.820642,-0.02891 -2.730964,-0.02891 -0.588094,0.04336 -1.177637,-0.0578 -1.765733,0.01447 -0.134386,1.416055 0.390138,2.788763 0.999908,4.045872 0.127152,0.303442 0.32945,0.577983 0.407478,0.895872 -1.054817,0.679128 -2.095184,1.372707 -3.121101,2.066285 -0.07226,0.04336 -0.144497,0.05778 -0.216743,0.07224 -0.447819,-1.054817 -1.025802,-2.037385 -1.37259,-3.121101 -0.780275,-2.19633 -1.127064,-4.580503 -0.664679,-6.892431 0.404588,-2.022936 1.329358,-3.988074 2.889908,-5.36078 1.502752,-1.358258 3.511239,-2.051836 5.505277,-2.210781 z m 5.144037,-0.06502 c 1.365483,-0.01011 2.730964,-0.01445 4.097891,0 -0.0044,3.934611 -0.0029,7.866331 0,11.799495 1.843762,0.01734 3.688967,0.0058 5.534174,0.0044 -0.01734,0.130045 -0.04335,0.274542 -0.08669,0.404588 -0.310665,0.95367 -0.618441,1.907339 -0.924771,2.861009 -0.04335,0.101143 -0.0578,0.31789 -0.231192,0.274541 -2.795986,-0.01447 -5.591973,0 -8.385069,-0.01447 -0.01447,-5.129592 -0.0071,-10.244728 -0.0044,-15.359868 z"
       id="path45"
       style="fill:#ffffff;stroke-width:1.44495416" />
  </g>
</svg>
