<svg width="50" height="50" viewBox="0 0 50 50" xmlns="http://www.w3.org/2000/svg"><g fill="none" fill-rule="evenodd"><path d="M42.105 25c0 10.174-8.247 18.42-18.42 18.42C13.51 43.42 5.262 35.175 5.262 25c0-10.174 8.248-18.42 18.42-18.42 10.175 0 18.422 8.246 18.422 18.42z" fill="#FFF"/><path d="M50 25c0 13.807-11.193 25-25 25S0 38.807 0 25 11.193 0 25 0s25 11.193 25 25z" fill="#F58AAB"/><g fill="#FFF"><path d="M16.513 26.372c0 1.49-.38 2.666-1.145 3.527-.763.863-1.782 1.293-3.065 1.293-1.29 0-2.316-.43-3.077-1.293-.76-.862-1.14-2.04-1.14-3.526 0-1.49.38-2.67 1.14-3.533.76-.868 1.787-1.298 3.08-1.298 1.28 0 2.302.432 3.065 1.297.764.863 1.146 2.04 1.146 3.53l-.003.002zm-1.583-.07c0-1.18-.23-2.06-.694-2.635-.464-.575-1.106-.863-1.93-.863-.832 0-1.48.29-1.94.864-.46.575-.69 1.454-.69 2.637 0 1.145.232 2.013.696 2.606.46.593 1.108.887 1.935.887.82 0 1.46-.293 1.927-.88.466-.584.698-1.455.698-2.61l-.002-.004zm10.49 2.018c0 .842-.345 1.53-1.034 2.066-.69.54-1.632.81-2.825.81-.674 0-1.296-.083-1.86-.245-.487-.132-.962-.31-1.417-.53v-1.74h.08c.486.37 1.028.66 1.62.878.595.217 1.163.325 1.71.325.674 0 1.203-.11 1.585-.33.38-.22.572-.565.572-1.04 0-.36-.105-.634-.31-.82-.208-.188-.606-.347-1.195-.48-.22-.047-.503-.104-.856-.17-.352-.065-.672-.14-.96-.215-.804-.215-1.37-.53-1.705-.944-.336-.414-.503-.923-.503-1.526 0-.382.08-.737.233-1.072.156-.336.39-.635.707-.9.302-.257.692-.46 1.164-.612.513-.158 1.046-.234 1.582-.228.545 0 1.097.066 1.655.2.483.11.95.274 1.395.492v1.657h-.082c-.438-.315-.92-.563-1.43-.737-.53-.194-1.09-.296-1.653-.3-.56 0-1.035.11-1.42.326-.39.216-.582.54-.582.967 0 .38.12.666.352.857.23.193.6.35 1.112.47.283.066.6.132.953.198.35.066.644.126.88.182.713.165 1.262.447 1.65.85.387.407.58.944.58 1.614h.003zm9.77 2.616h-1.54v-1.02c-.514.412-1.012.727-1.486.947-.473.22-.996.33-1.568.33-.96 0-1.707-.296-2.24-.886-.536-.59-.803-1.457-.803-2.6v-6.164h1.536v5.43c0 .468.022.87.065 1.198.044.335.136.62.277.856.148.24.34.416.573.527.234.11.575.164 1.023.164.398 0 .834-.105 1.305-.313.472-.21.916-.477 1.32-.8v-7.06h1.538V30.935zm5.724-12.273l-.217 8.93h-1.39l-.228-8.93h1.834zm-.082 12.096h-1.666v-1.724h1.667v1.723z" opacity=".6"/><path d="M40.912 18.662l-.003.145h-1.824l-.007-.145h1.832zm-1.824.29l.004.144h1.81l.003-.145h-1.818zm.008.286l.003.145h1.795l.004-.145h-1.804zm.007.29l.004.144h1.782l.003-.144h-1.79zm.008.29l.004.144h1.768l.004-.145H39.11zm.008.286l.003.145h1.755l.003-.146h-1.76zm.007.29l.004.142h1.736l.005-.145h-1.745v.003zm.008.286l.005.145h1.724l.004-.145h-1.734zm.008.29l.005.142h1.71l.003-.145h-1.72l.003.003zm.01.287l.003.144h1.697l.003-.143H39.15zm.007.29l.002.14h1.683v-.144h-1.685v.003zm.006.286l.004.145h1.667l.004-.145h-1.675zm0 8.642v.145h1.67v-.145h-1.67zm0-.29v.145h1.67v-.144h-1.67zm0-.286v.143h1.67V29.9h-1.67zm0-.29v.144h1.67v-.145h-1.67zm0-.288v.145h1.67v-.145h-1.67zm0-.29v.146h1.67v-.145h-1.67zm.008-6.91v.144h1.656l.004-.145h-1.658zm.006.29l.004.143h1.64l.004-.144h-1.648zm.008.285l.004.145h1.625l.004-.145H39.184zm.008.29l.003.145h1.612l.002-.145h-1.62.002zm.007.287l.004.144H40.8l.004-.144H39.2zm.008.29l.004.144h1.58l.005-.145h-1.59zm.006.286l.004.145h1.57v-.145h-1.577.004zm.008.29l.004.144h1.556l.002-.145h-1.562zm.008.286l.004.145h1.54l.002-.144H39.23zm.007.29l.002.145h1.526l.002-.144h-1.53zm.006.287l.004.144h1.51l.006-.147h-1.52v.003zm.008.29l.005.14h1.498l.004-.144H39.25v.002zm.01.286l.003.144h1.482l.002-.145h-1.49.002zm.007.288l.004.143h1.47l.003-.144H39.27l-.003.002zm.007.287l.004.145h1.454l.004-.145h-1.462zm.008.29l.004.142h1.44l.003-.145H39.28v.003zm.007.287v.144h1.427l.003-.144h-1.43zm.005.29l.004.14h1.41l.003-.144h-1.418v.003zm.008.286l.004.145h1.397l.003-.145h-1.404zm-5.65 3.455v.142h1.536v-.144h-1.537v.003zm0-.29v.145h1.536v-.144h-1.537zm0-.29v.146h1.536v-.146h-1.537zm0-.286v.144h1.536v-.14h-1.537v-.003zm-1.89-.29c-.238.07-.486.107-.735.11v.036h4.163v-.145h-3.427zm.75-.286c-.108.052-.216.1-.325.146h3.003v-.145h-2.678zm.525-.288c-.08.05-.163.098-.247.144h2.4v-.144H33.04zm.432-.287c-.066.05-.136.097-.204.144h1.926v-.145H33.47zm.184-.29v.145h1.537v-.145h-1.536zm0-.287v.145h1.537v-.145h-1.536zm0-.29v.146h1.537v-.145h-1.536zm0-.286v.145h1.537v-.145h-1.536zm0-.287v.145h1.537v-.145h-1.536zm0-.29v.146h1.537v-.144h-1.536zm0-.286v.144h1.537v-.145h-1.536zm0-.29v.144h1.537v-.145h-1.536zm0-.287v.144h1.537v-.144h-1.536zm0-.29v.145h1.537v-.145h-1.536zm0-.287v.145h1.537v-.144h-1.536zm0-.29v.146h1.537v-.145h-1.536zm0-.286v.145h1.537V25h-1.536zm0-.29v.145h1.537v-.144h-1.536zm0-.286v.144h1.537v-.144h-1.536zm0-.29v.145h1.537v-.146h-1.536zm0-.287v.145h1.537v-.145h-1.536zm0-.29v.146h1.537v-.145h-1.536zm0-.286v.146h1.537v-.145h-1.536zm0-.288v.144h1.537v-.144h-1.536zm0-.287v.144h1.537v-.145h-1.536zm0-.287v.145h1.537v-.145h-1.536zm0-.29v.145h1.537v-.145h-1.536zm0-.286v.144h1.537v-.144h-1.536zm0-.29v.145h1.537v-.145h-1.536zm-5.6 8.355l.092.145h5.345l.164-.128v-.017h-5.6zm.303.408l.02.024h4.715c.07-.048.137-.096.204-.146H28.25c.034.042.068.083.105.12h.002zm.335.312h3.94c.08-.046.157-.095.24-.145H28.52c.055.05.112.1.17.145h.002zm.474.287h2.9c.104-.043.205-.092.304-.145H28.9c.086.052.175.102.267.144zm1.43.287c.374 0 .728-.047 1.06-.14h-2.11c.316.093.666.14 1.05.14zm-.442-1.582h-2.25l.07.145h3.052v-.037c-.295.008-.59-.028-.873-.108zm-.483-.29h-1.88c.015.05.032.1.052.145h2.008c-.065-.042-.125-.09-.18-.145zm-.232-.286H27.7l.04.144h1.798c-.036-.046-.07-.094-.1-.144zm-.14-.29h-1.66l.03.145h1.69c-.022-.047-.042-.096-.06-.145zm-.09-.287h-1.612c.005.05.013.098.02.145h1.63c-.014-.048-.027-.096-.038-.145zm-.053-.284h-1.587l.014.146h1.596c-.01-.047-.016-.094-.023-.14v-.005zm-.03-.288h-1.57c0 .047.003.096.006.144h1.58l-.016-.144zm-.02-.29H27.55v.145h1.562l-.01-.145h.002zm-.014-.287h-1.54v.145h1.547l-.005-.145zm-.002-.29h-1.535v.146h1.54l-.004-.144h-.002zm-1.537-.286v.144h1.538v-.145H27.55zm0-.29v.144h1.538v-.145H27.55zm0-.287v.144h1.538v-.144H27.55zm0-.29v.145h1.538v-.145H27.55zm0-.287v.145h1.538v-.144H27.55zm0-.29v.146h1.538v-.145H27.55zm0-.286v.145h1.538V25H27.55zm0-.29v.145h1.538v-.144H27.55zm0-.286v.144h1.538v-.144H27.55zm0-.29v.145h1.538v-.146H27.55zm0-.287v.145h1.538v-.145H27.55zm0-.29v.146h1.538v-.145H27.55zm0-.286v.146h1.538v-.145H27.55zm0-.288v.144h1.538v-.144H27.55zm0-.287v.144h1.538v-.145H27.55zm0-.287v.145h1.538v-.145H27.55zm0-.29v.145h1.538v-.145H27.55zm0-.286v.144h1.538v-.144H27.55zm0-.29v.145h1.538v-.145H27.55zm-2.134 6.63H23.81c.014.045.02.094.027.144h1.58v-.145zm-1.566.348c0 .03 0 .056-.004.084h1.56c.004-.048.008-.096.01-.145h-1.57v.06h.004zm1.54-.637H23.69c.03.043.053.092.074.145h1.64c-.005-.05-.01-.097-.018-.145zm-1.587 1.008h1.558c.01-.047.02-.095.027-.144h-1.555c-.007.05-.017.097-.03.145zm1.526-1.297h-1.926c.065.042.125.09.18.145h1.78c-.01-.048-.022-.097-.035-.145zm-1.65 1.586h1.602c.017-.048.03-.097.044-.146h-1.572c-.02.05-.046.1-.075.145zm-.983-1.873c.158.044.3.092.42.144h2.17c-.018-.048-.037-.096-.057-.143h-2.533zm.716 2.16h1.748c.024-.047.046-.096.066-.145H23.57c-.047.054-.1.102-.157.145zm1.667-2.447h-3.725c.247.045.492.093.737.144l3.074-.002c-.026-.05-.053-.098-.083-.145l-.003.003zm-2.284 2.73h2.197c.033-.047.064-.095.093-.145h-1.908c-.116.058-.244.106-.382.145zm2.116-5.905l.066.13h.083v-.13h-.148zm-.46-.29c.082.05.165.096.244.145h.365v-.145h-.61zm-.61-.287c.11.046.22.095.325.145h.892v-.145h-1.22.002zm-.89-.29c.168.04.335.09.503.146h1.606v-.145h-2.107zm-4.007-.28c-.042.046-.08.094-.12.144h6.234v-.145h-6.115zm.296-.287c-.054.047-.106.095-.157.145h5.976v-.144h-5.82zm5.563-.29h-5.158c-.08.047-.152.096-.22.146h5.634v-.023c-.085-.043-.17-.083-.257-.12v-.002zm.058 4.612h-4.668c.167.055.337.104.508.144h4.28c-.037-.05-.076-.098-.118-.144zM18.283 29.9v.145h6.48c.042-.047.082-.095.12-.145h-6.6zm6.254-3.457h-5.02c.093.05.192.1.297.145h4.9c-.057-.05-.116-.1-.177-.145zm-6.254 3.886h6.175c.057-.047.11-.096.163-.146h-6.337v.145zm5.694-8.498h-3.713c-.122.043-.237.092-.347.144h4.52c-.15-.053-.305-.1-.46-.144zm.08 4.32h-4.968c.06.05.123.098.19.145h5.04c-.086-.052-.174-.1-.265-.144h.002zm-5.34 4.466h5.33c.078-.046.15-.094.222-.144h-5.88c.104.048.212.097.328.144zm.826.287h3.888c.12-.043.237-.092.345-.144H19.1c.14.05.29.1.443.145zm3.675-5.04h-4.41l.018.02c.034.043.07.083.11.123h4.773c-.16-.058-.324-.106-.49-.145v.003zm-1.21-4.315c-.454 0-.877.045-1.264.137h2.632c-.45-.09-.91-.138-1.368-.138zm-.574 9.645h.253c.456-.01.873-.057 1.253-.145h-2.845c.44.092.89.14 1.34.145h-.002zm.874-5.52c-.178-.033-.346-.066-.506-.1h-3.184c.026.05.056.1.088.146h3.838l-.234-.045zm-1.57-.386h-2.255c.018.047.04.096.06.142h2.632c-.15-.04-.295-.088-.437-.145v.002zm-2.1-2.164h1.942c.117-.058.24-.105.37-.144h-2.226c-.03.047-.06.095-.087.144zm1.487 6.482h-1.842v.145h2.34c-.17-.04-.335-.09-.498-.145zm.118-4.6L20.237 25h-1.842l.04.145h2.006c-.068-.04-.133-.086-.194-.137h-.004zm-1.685-1.72c-.02.04-.04.084-.056.128h1.67c.05-.054.106-.102.166-.145h-1.774l-.007.017h.002zm1.45 1.423h-1.665l.02.145h1.734c-.034-.045-.064-.093-.088-.144zm-1.56-1.15c-.015.048-.03.097-.042.145h1.573c.02-.05.048-.1.08-.144h-1.61zm1.467.865h-1.592c0 .05.004.096.007.145h1.62c-.015-.048-.027-.096-.036-.145zm-1.565-.432h1.55c.007-.048.016-.097.028-.144h-1.556c-.01.047-.017.095-.023.143zm1.542.158v-.012h-1.56c-.005.048-.007.097-.008.145h1.57c-.002-.044-.003-.088-.002-.132zm-.48 5.172h-1.13v.145h1.457c-.11-.045-.22-.093-.327-.145zm-.533-.29h-.598v.146h.848c-.085-.046-.17-.095-.252-.145zm-.433-.286h-.165v.145h.37c-.07-.046-.137-.094-.205-.144zm-3.523-2.162h1.59v-.145h-1.585c0 .05-.004.097-.005.144zm1.588-.43h-1.586v.143h1.587v-.144zm-.013-.29h-1.584l.006.144h1.583c-.002-.048-.004-.097-.008-.145h.002zm-1.593 1.008H16.5l.005-.144h-1.588c-.002.048-.005.096-.01.144zm-.027.29h1.594l.013-.145h-1.592c-.005.048-.01.097-.017.145h.002zm1.592-1.586h-1.58c.008.048.012.095.015.145h1.58l-.015-.144zm-1.634 1.87h1.605l.02-.14H14.86c-.007.048-.014.096-.023.144v-.003zm1.603-2.157h-1.578c.008.046.013.092.02.142h1.58l-.023-.145v.002zm-1.664 2.447h1.616l.026-.145h-1.61c-.01.05-.02.097-.032.145zM16.39 25h-1.58c.01.047.02.095.027.145h1.58L16.388 25zm-1.695 3.026h1.63c.014-.048.028-.097.037-.144h-1.625c-.013.048-.026.096-.042.144zm1.63-3.315h-1.583l.04.145h1.58l-.036-.144zm-1.74 3.606h1.662c.015-.048.03-.096.042-.145h-1.645c-.02.05-.038.098-.06.146zm1.658-3.89H14.65l.05.145h1.587l-.042-.144h-.002zm-1.802 4.178h1.707l.053-.145h-1.682c-.023.048-.05.097-.076.144zm1.705-4.468H14.53c.02.047.044.094.065.144h1.602c-.016-.048-.034-.097-.052-.144zM14.25 28.89h1.776l.066-.145h-1.737c-.034.05-.068.097-.105.144zm1.776-5.043h-1.658c.03.048.06.095.087.145h1.634c-.02-.05-.042-.097-.064-.145zm-2.034 5.33h1.89c.026-.048.05-.097.075-.145h-1.825c-.046.05-.093.098-.143.144h.002zm1.888-5.62h-1.737c.043.048.084.096.123.146h1.69c-.024-.05-.05-.097-.076-.145zm-2.27 5.91h2.098l.092-.146h-1.98c-.067.054-.138.102-.21.146zm2.093-6.196H13.83c.058.046.117.093.17.146h1.793c-.03-.05-.06-.097-.092-.145h.003zm-2.89 6.483h2.683c.038-.048.074-.096.11-.145h-2.288c-.157.066-.33.114-.51.145h.004zm2.68-6.77h-2.177c.105.04.202.09.297.145H15.6c-.035-.05-.07-.098-.11-.145h.002zm-3.19 6.914h-3.08l.003.003c.042.05.086.096.132.14h5.88c.046-.043.09-.09.133-.14h-3.065l-.002-.003zm2.934-7.202H9.36c-.046.047-.09.095-.132.144h2.596c.316-.05.637-.05.954 0h2.592c-.044-.05-.09-.098-.136-.145h.003zM9.67 30.33h5.256c.057-.047.11-.093.165-.146H9.505c.053.053.108.1.164.145h.003zm5.25-7.922H9.67c-.056.046-.11.095-.165.145h5.58c-.054-.05-.108-.1-.164-.145zm-4.846 8.21h4.447c.076-.046.148-.094.22-.144H9.857c.068.05.14.098.216.144zm4.447-8.5h-4.445c-.074.046-.147.094-.217.145h4.88c-.072-.05-.144-.1-.218-.145zm-3.87 8.79h3.293c.11-.043.217-.09.32-.145H10.33c.106.053.21.1.32.145zm3.29-9.074h-3.285c-.11.042-.217.092-.32.145h3.928c-.105-.054-.21-.104-.32-.146h-.002zm-1.637 9.36c.43 0 .83-.048 1.197-.145h-2.4c.37.096.772.143 1.203.143zm0-9.65c-.428 0-.83.047-1.2.144h2.394c-.39-.1-.79-.147-1.193-.145zm-1.02 8.065h-2.29c.036.048.07.097.11.144h2.69c-.175-.03-.346-.078-.51-.145zm-2.287-6.482h1.987c.095-.056.195-.105.3-.145H9.104c-.037.047-.074.095-.11.145zm1.784 6.193H8.803c.026.05.058.098.09.146h2.1c-.074-.044-.145-.092-.213-.145zm-1.973-5.904h1.79c.053-.05.11-.1.17-.145H8.895l-.09.146h.002zm1.665 5.618h-1.83c.023.05.048.097.074.145h1.895c-.048-.047-.095-.096-.14-.146h.002zm-1.827-5.33h1.69c.037-.05.076-.098.118-.145h-1.73c-.026.045-.052.094-.076.144h-.002zm1.605 5.04H8.51c.02.048.04.097.062.144h1.78c-.035-.047-.07-.095-.102-.145zM8.513 23.99h1.632c.027-.05.056-.097.087-.145H8.574c-.022.048-.042.097-.062.145zm1.57 4.465H8.4c.016.048.033.097.053.144h1.705c-.027-.046-.053-.094-.076-.143h.002zM8.4 24.28h1.605c.02-.05.042-.097.066-.144H8.45c-.017.047-.035.096-.05.144zm1.56 3.888H8.31c.012.05.026.098.04.145h1.667l-.06-.145h.004zm-1.65-3.6h1.587c.016-.048.032-.096.05-.144H8.355c-.015.048-.03.096-.043.144zm1.553 3.312H8.237c.013.048.024.096.035.145h1.636l-.044-.145zm-1.59-3.17l-.034.145h1.578l.04-.144H8.272zm1.52 2.882h-1.61c.008.05.014.097.025.145h1.618c-.012-.048-.023-.096-.033-.145zm-1.61-2.447h1.58L9.79 25H8.21c-.01.048-.018.096-.026.145zm1.558 2.158h-1.6l.02.144h1.604l-.022-.144zm-1.6-1.87h1.58c.005-.05.01-.098.018-.146H8.162l-.02.145zm1.567 1.584H8.11l.012.145H9.72l-.016-.145h.003zM8.11 25.72h1.58l.013-.145h-1.58c-.004.048-.01.096-.012.145zm1.572 1.01h-1.59l.01.144h1.59c-.002-.05-.006-.097-.01-.145zm-1.59-.722h1.584l.007-.145H8.1l-.008.145zm1.582.434H8.086c0 .046 0 .095.002.142h1.588l-.002-.145v.002zm-1.587-.145H9.67c0-.05 0-.097.004-.144H8.088v.144z"/></g></g></svg>