<svg xmlns="http://www.w3.org/2000/svg" xmlns:xlink="http://www.w3.org/1999/xlink" width="50" height="50" version="1.1" viewBox="0 0 50 50"><g fill="none" fill-rule="evenodd" stroke="none" stroke-width="1"><g><g><path id="Shape" fill="#FFF" d="M42.1052632,25 C42.1052632,35.1736842 33.8578947,43.4210526 23.6842105,43.4210526 C13.5105263,43.4210526 5.26315789,35.1736842 5.26315789,25 C5.26315789,14.8263158 13.5105263,6.57894737 23.6842105,6.57894737 C33.8578947,6.57894737 42.1052632,14.8263158 42.1052632,25 L42.1052632,25 Z"/><path id="Shape" fill="#F58AAB" d="M50,25 C50,38.8065789 38.8065789,50 25,50 C11.1934211,50 0,38.8065789 0,25 C0,11.1934211 11.1934211,0 25,0 C38.8065789,0 50,11.1934211 50,25 L50,25 Z"/><g id="Shape" fill="#FFF"><path d="M8.61842105,7.95131579 C8.61842105,9.44078947 8.23684211,10.6171053 7.47368421,11.4776316 C6.71052632,12.3421053 5.69078947,12.7723684 4.40789474,12.7723684 C3.11842105,12.7723684 2.09210526,12.3421053 1.33157895,11.4789474 C0.571052632,10.6171053 0.190789474,9.43947368 0.190789474,7.95263158 C0.190789474,6.46184211 0.572368421,5.28421053 1.33157895,4.41973684 C2.09210526,3.55131579 3.11842105,3.12105263 4.41052632,3.12105263 C5.69078947,3.12105263 6.71315789,3.55263158 7.47631579,4.41842105 C8.23947368,5.28157895 8.62105263,6.45789474 8.62105263,7.94868421 L8.61842105,7.95131579 Z M7.03552632,7.88157895 C7.03552632,6.7 6.80394737,5.82105263 6.34078947,5.24605263 C5.87763158,4.67105263 5.23552632,4.38289474 4.41052632,4.38289474 C3.57894737,4.38289474 2.93157895,4.67236842 2.47105263,5.24736842 C2.01052632,5.82236842 1.78026316,6.70131579 1.78026316,7.88421053 C1.78026316,9.02894737 2.01315789,9.89736842 2.47763158,10.4894737 C2.93815789,11.0815789 3.58552632,11.3763158 4.41184211,11.3763158 C5.23157895,11.3763158 5.87236842,11.0828947 6.33947368,10.4973684 C6.80526316,9.91184211 7.03684211,9.04078947 7.03684211,7.88552632 L7.03552632,7.88157895 Z M17.525,9.89868421 C17.525,10.7407895 17.1802632,11.4276316 16.4907895,11.9644737 C15.8013158,12.5039474 14.8592105,12.7736842 13.6657895,12.7736842 C12.9907895,12.7736842 12.3697368,12.6921053 11.8065789,12.5302632 C11.3184319,12.3970631 10.8436132,12.2191162 10.3881579,11.9986842 L10.3881579,10.2592105 L10.4697368,10.2592105 C10.9539474,10.6276316 11.4960526,10.9197368 12.0881579,11.1368421 C12.6828947,11.3539474 13.2513158,11.4618421 13.7986842,11.4618421 C14.4723684,11.4618421 15.0013158,11.3526316 15.3828947,11.1328947 C15.7644737,10.9131579 15.9552632,10.5671053 15.9552632,10.0934211 C15.9552632,9.73289474 15.85,9.45789474 15.6447368,9.27105263 C15.4368421,9.08421053 15.0394737,8.925 14.45,8.79342105 C14.2315789,8.74473684 13.9473684,8.68815789 13.5947368,8.62236842 C13.2434211,8.55657895 12.9236842,8.48289474 12.6342105,8.40657895 C11.8315789,8.19210526 11.2657895,7.87763158 10.9302632,7.46315789 C10.5947368,7.04868421 10.4276316,6.53947368 10.4276316,5.93684211 C10.4276316,5.55526316 10.5065789,5.2 10.6605263,4.86447368 C10.8157895,4.52894737 11.0513158,4.23026316 11.3671053,3.96578947 C11.6697368,3.70789474 12.0592105,3.50526316 12.5315789,3.35263158 C13.0437937,3.19526833 13.5773552,3.11847454 14.1131579,3.125 C14.6578947,3.125 15.2105263,3.19078947 15.7684211,3.32631579 C16.2511836,3.43390999 16.7193992,3.59866887 17.1631579,3.81710526 L17.1631579,5.47368421 L17.0815789,5.47368421 C16.6431951,5.15904372 16.1608148,4.91075973 15.65,4.73684211 C15.120939,4.54251476 14.5622897,4.44102311 13.9986842,4.43684211 C13.4368421,4.43684211 12.9631579,4.54605263 12.5776316,4.76315789 C12.1894737,4.97894737 11.9960526,5.30263158 11.9960526,5.73026316 C11.9960526,6.10921053 12.1144737,6.39473684 12.3473684,6.58552632 C12.5763158,6.77894737 12.9473684,6.93552632 13.4592105,7.05657895 C13.7421053,7.12236842 14.0605263,7.18815789 14.4118421,7.25394737 C14.7631579,7.31973684 15.0565789,7.38026316 15.2907895,7.43552632 C16.0052632,7.60131579 16.5539474,7.88289474 16.9421053,8.28552632 C17.3289474,8.69342105 17.5210526,9.23026316 17.5210526,9.9 L17.525,9.89868421 Z M27.2960526,12.5144737 L25.7565789,12.5144737 L25.7565789,11.4947368 C25.2407895,11.9065789 24.7434211,12.2223684 24.2697368,12.4421053 C23.7960526,12.6618421 23.2736842,12.7710526 22.7013158,12.7710526 C21.7407895,12.7710526 20.9947368,12.4763158 20.4605263,11.8855263 C19.925,11.2960526 19.6578947,10.4289474 19.6578947,9.28684211 L19.6578947,3.12236842 L21.1947368,3.12236842 L21.1947368,8.55263158 C21.1947368,9.01973684 21.2171053,9.42105263 21.2605263,9.75 C21.3039474,10.0842105 21.3960526,10.3684211 21.5368421,10.6052632 C21.6855263,10.8460526 21.8763158,11.0210526 22.1105263,11.1315789 C22.3447368,11.2407895 22.6855263,11.2960526 23.1328947,11.2960526 C23.5315789,11.2960526 23.9671053,11.1907895 24.4381579,10.9828947 C24.9106605,10.7738882 25.35459,10.5054966 25.7592105,10.1842105 L25.7592105,3.12236842 L27.2960526,3.12236842 L27.2960526,12.5131579 L27.2960526,12.5144737 Z M33.0197368,0.242105263 L32.8026316,9.17105263 L31.4118421,9.17105263 L31.1842105,0.240789474 L33.0171053,0.240789474 L33.0197368,0.242105263 Z M32.9368421,12.3381579 L31.2710526,12.3381579 L31.2710526,10.6144737 L32.9381579,10.6144737 L32.9381579,12.3381579 L32.9368421,12.3381579 Z" opacity=".6" transform="translate(7.894737, 18.421053)"/><path d="M33.0171053,0.240789474 L33.0144737,0.385526316 L31.1907895,0.385526316 L31.1842105,0.240789474 L33.0171053,0.240789474 L33.0171053,0.240789474 Z M31.1934211,0.530263158 L31.1973684,0.675 L33.0065789,0.675 L33.0105263,0.530263158 L31.1947368,0.530263158 L31.1934211,0.530263158 Z M31.2013158,0.817105263 L31.2039474,0.961842105 L33,0.961842105 L33.0039474,0.817105263 L31.2013158,0.817105263 L31.2013158,0.817105263 Z M31.2078947,1.10657895 L31.2118421,1.25131579 L32.9947368,1.25131579 L32.9986842,1.10657895 L31.2092105,1.10657895 L31.2078947,1.10657895 Z M31.2157895,1.39605263 L31.2197368,1.54078947 L32.9868421,1.54078947 L32.9907895,1.39605263 L31.2144737,1.39605263 L31.2157895,1.39605263 Z M31.2236842,1.68289474 L31.2263158,1.82763158 L32.9802632,1.82763158 L32.9828947,1.68289474 L31.2236842,1.68289474 L31.2236842,1.68289474 Z M31.2302632,1.97236842 L31.2342105,2.11447368 L32.9710526,2.11447368 L32.9763158,1.96973684 L31.2302632,1.96973684 L31.2302632,1.97236842 Z M31.2381579,2.25921053 L31.2434211,2.40394737 L32.9671053,2.40394737 L32.9710526,2.25921053 L31.2368421,2.25921053 L31.2381579,2.25921053 Z M31.2460526,2.54868421 L31.25,2.69078947 L32.9605263,2.69078947 L32.9631579,2.54605263 L31.2447368,2.54605263 L31.2460526,2.54868421 Z M31.2539474,2.83552632 L31.2578947,2.98026316 L32.9552632,2.98026316 L32.9578947,2.83552632 L31.2539474,2.83552632 L31.2539474,2.83552632 Z M31.2618421,3.125 L31.2644737,3.26710526 L32.9486842,3.26710526 L32.9486842,3.12236842 L31.2631579,3.12236842 L31.2618421,3.125 Z M31.2684211,3.41184211 L31.2723684,3.55657895 L32.9394737,3.55657895 L32.9434211,3.41184211 L31.2684211,3.41184211 L31.2684211,3.41184211 Z M31.2684211,12.0539474 L31.2684211,12.1986842 L32.9368421,12.1986842 L32.9368421,12.0539474 L31.2710526,12.0539474 L31.2684211,12.0539474 Z M31.2684211,11.7644737 L31.2684211,11.9092105 L32.9368421,11.9092105 L32.9368421,11.7644737 L31.2710526,11.7644737 L31.2684211,11.7644737 Z M31.2684211,11.4776316 L31.2684211,11.6223684 L32.9368421,11.6223684 L32.9368421,11.4776316 L31.2710526,11.4776316 L31.2684211,11.4776316 Z M31.2684211,11.1881579 L31.2684211,11.3328947 L32.9368421,11.3328947 L32.9368421,11.1881579 L31.2710526,11.1881579 L31.2684211,11.1881579 Z M31.2684211,10.9013158 L31.2684211,11.0460526 L32.9368421,11.0460526 L32.9368421,10.9013158 L31.2710526,10.9013158 L31.2684211,10.9013158 Z M31.2684211,10.6118421 L31.2684211,10.7565789 L32.9368421,10.7565789 L32.9368421,10.6118421 L31.2710526,10.6118421 L31.2684211,10.6118421 Z M31.2763158,3.7 L31.2763158,3.84473684 L32.9315789,3.84473684 L32.9355263,3.7 L31.2776316,3.7 L31.2763158,3.7 Z M31.2815789,3.98947368 L31.2855263,4.13421053 L32.925,4.13421053 L32.9289474,3.98947368 L31.2815789,3.98947368 L31.2815789,3.98947368 Z M31.2894737,4.27631579 L31.2934211,4.42105263 L32.9184211,4.42105263 L32.9223684,4.27631579 L31.2907895,4.27631579 L31.2894737,4.27631579 Z M31.2973684,4.56578947 L31.3,4.71052632 L32.9118421,4.71052632 L32.9144737,4.56578947 L31.2960526,4.56578947 L31.2973684,4.56578947 Z M31.3039474,4.85263158 L31.3092105,4.99736842 L32.9052632,4.99736842 L32.9092105,4.85263158 L31.3039474,4.85263158 L31.3039474,4.85263158 Z M31.3131579,5.14210526 L31.3171053,5.28684211 L32.8986842,5.28684211 L32.9026316,5.14210526 L31.3131579,5.14210526 L31.3131579,5.14210526 Z M31.3197368,5.42894737 L31.3236842,5.57368421 L32.8921053,5.57368421 L32.8947368,5.42894737 L31.3157895,5.42894737 L31.3197368,5.42894737 Z M31.3276316,5.71842105 L31.3315789,5.86315789 L32.8868421,5.86315789 L32.8894737,5.71842105 L31.3289474,5.71842105 L31.3276316,5.71842105 Z M31.3355263,6.00526316 L31.3394737,6.15 L32.8789474,6.15 L32.8815789,6.00526316 L31.3342105,6.00526316 L31.3355263,6.00526316 Z M31.3421053,6.29473684 L31.3447368,6.43947368 L32.8710526,6.43947368 L32.8736842,6.29473684 L31.3421053,6.29473684 L31.3421053,6.29473684 Z M31.3486842,6.58157895 L31.3526316,6.72631579 L32.8631579,6.72631579 L32.8684211,6.57894737 L31.3486842,6.57894737 L31.3486842,6.58157895 Z M31.3565789,6.87105263 L31.3605263,7.01315789 L32.8578947,7.01315789 L32.8618421,6.86842105 L31.3552632,6.86842105 L31.3565789,6.87105263 Z M31.3644737,7.15789474 L31.3684211,7.30263158 L32.85,7.30263158 L32.8526316,7.15789474 L31.3631579,7.15789474 L31.3644737,7.15789474 Z M31.3723684,7.44736842 L31.3763158,7.58947368 L32.8447368,7.58947368 L32.8486842,7.44473684 L31.375,7.44473684 L31.3723684,7.44736842 Z M31.3789474,7.73421053 L31.3828947,7.87894737 L32.8368421,7.87894737 L32.8407895,7.73421053 L31.3802632,7.73421053 L31.3789474,7.73421053 Z M31.3868421,8.02368421 L31.3907895,8.16578947 L32.8302632,8.16578947 L32.8342105,8.02105263 L31.3868421,8.02105263 L31.3868421,8.02368421 Z M31.3947368,8.31052632 L31.3947368,8.45526316 L32.8223684,8.45526316 L32.825,8.31052632 L31.3947368,8.31052632 L31.3947368,8.31052632 Z M31.4,8.6 L31.4039474,8.74210526 L32.8157895,8.74210526 L32.8184211,8.59736842 L31.4,8.59736842 L31.4,8.6 Z M31.4078947,8.88684211 L31.4118421,9.03157895 L32.8092105,9.03157895 L32.8118421,8.88684211 L31.4078947,8.88684211 L31.4078947,8.88684211 Z M25.7578947,12.3421053 L25.7578947,12.4842105 L27.2947368,12.4842105 L27.2947368,12.3394737 L25.7578947,12.3394737 L25.7578947,12.3421053 Z M25.7578947,12.0526316 L25.7578947,12.1973684 L27.2947368,12.1973684 L27.2947368,12.0526316 L25.7578947,12.0526316 L25.7578947,12.0526316 Z M25.7578947,11.7631579 L25.7578947,11.9078947 L27.2947368,11.9078947 L27.2947368,11.7631579 L25.7578947,11.7631579 L25.7578947,11.7631579 Z M25.7578947,11.4763158 L25.7578947,11.6197368 L27.2947368,11.6197368 L27.2947368,11.4776316 L25.7578947,11.4776316 L25.7578947,11.4763158 Z M23.8697368,11.1868421 C23.630178,11.2563368 23.3823122,11.293074 23.1328947,11.2960526 L23.1328947,11.3315789 L27.2960526,11.3315789 L27.2960526,11.1868421 L23.8684211,11.1868421 L23.8697368,11.1868421 Z M24.6171053,10.9 C24.5105073,10.9510948 24.4025747,10.9993574 24.2934211,11.0447368 L27.2960526,11.0447368 L27.2960526,10.9 L24.6171053,10.9 L24.6171053,10.9 Z M25.1434211,10.6105263 C25.0623093,10.6610338 24.9798219,10.7092977 24.8960526,10.7552632 L27.2960526,10.7552632 L27.2960526,10.6105263 L25.1447368,10.6105263 L25.1434211,10.6105263 Z M25.575,10.3236842 C25.5092105,10.3736842 25.4394737,10.4210526 25.3710526,10.4684211 L27.2973684,10.4684211 L27.2973684,10.3236842 L25.5763158,10.3236842 L25.575,10.3236842 Z M25.7592105,10.0342105 L25.7592105,10.1789474 L27.2960526,10.1789474 L27.2960526,10.0342105 L25.7592105,10.0342105 L25.7592105,10.0342105 Z M25.7592105,9.74736842 L25.7592105,9.89210526 L27.2960526,9.89210526 L27.2960526,9.74736842 L25.7592105,9.74736842 L25.7592105,9.74736842 Z M25.7592105,9.45789474 L25.7592105,9.60263158 L27.2960526,9.60263158 L27.2960526,9.45789474 L25.7592105,9.45789474 L25.7592105,9.45789474 Z M25.7592105,9.17105263 L25.7592105,9.31578947 L27.2960526,9.31578947 L27.2960526,9.17105263 L25.7592105,9.17105263 L25.7592105,9.17105263 Z M25.7592105,8.88421053 L25.7592105,9.02894737 L27.2960526,9.02894737 L27.2960526,8.88421053 L25.7592105,8.88421053 L25.7592105,8.88421053 Z M25.7592105,8.59473684 L25.7592105,8.73947368 L27.2960526,8.73947368 L27.2960526,8.59473684 L25.7592105,8.59473684 L25.7592105,8.59473684 Z M25.7592105,8.30789474 L25.7592105,8.45263158 L27.2960526,8.45263158 L27.2960526,8.30789474 L25.7592105,8.30789474 L25.7592105,8.30789474 Z M25.7592105,8.01842105 L25.7592105,8.16315789 L27.2960526,8.16315789 L27.2960526,8.01842105 L25.7592105,8.01842105 L25.7592105,8.01842105 Z M25.7592105,7.73157895 L25.7592105,7.87631579 L27.2960526,7.87631579 L27.2960526,7.73157895 L25.7592105,7.73157895 L25.7592105,7.73157895 Z M25.7592105,7.44210526 L25.7592105,7.58684211 L27.2960526,7.58684211 L27.2960526,7.44210526 L25.7592105,7.44210526 L25.7592105,7.44210526 Z M25.7592105,7.15526316 L25.7592105,7.3 L27.2960526,7.3 L27.2960526,7.15526316 L25.7592105,7.15526316 L25.7592105,7.15526316 Z M25.7592105,6.86578947 L25.7592105,7.01052632 L27.2960526,7.01052632 L27.2960526,6.86578947 L25.7592105,6.86578947 L25.7592105,6.86578947 Z M25.7592105,6.57894737 L25.7592105,6.72368421 L27.2960526,6.72368421 L27.2960526,6.57894737 L25.7592105,6.57894737 L25.7592105,6.57894737 Z M25.7592105,6.28947368 L25.7592105,6.43421053 L27.2960526,6.43421053 L27.2960526,6.28947368 L25.7592105,6.28947368 L25.7592105,6.28947368 Z M25.7592105,6.00263158 L25.7592105,6.14736842 L27.2960526,6.14736842 L27.2960526,6.00263158 L25.7592105,6.00263158 L25.7592105,6.00263158 Z M25.7592105,5.71315789 L25.7592105,5.85789474 L27.2960526,5.85789474 L27.2960526,5.71315789 L25.7592105,5.71315789 L25.7592105,5.71315789 Z M25.7592105,5.42631579 L25.7592105,5.57105263 L27.2960526,5.57105263 L27.2960526,5.42631579 L25.7592105,5.42631579 L25.7592105,5.42631579 Z M25.7592105,5.13684211 L25.7592105,5.28157895 L27.2960526,5.28157895 L27.2960526,5.13684211 L25.7592105,5.13684211 L25.7592105,5.13684211 Z M25.7592105,4.85 L25.7592105,4.99473684 L27.2960526,4.99473684 L27.2960526,4.85 L25.7592105,4.85 L25.7592105,4.85 Z M25.7592105,4.56052632 L25.7592105,4.70526316 L27.2960526,4.70526316 L27.2960526,4.56052632 L25.7592105,4.56052632 L25.7592105,4.56052632 Z M25.7592105,4.27368421 L25.7592105,4.41842105 L27.2960526,4.41842105 L27.2960526,4.27368421 L25.7592105,4.27368421 L25.7592105,4.27368421 Z M25.7592105,3.98684211 L25.7592105,4.13157895 L27.2960526,4.13157895 L27.2960526,3.98684211 L25.7592105,3.98684211 L25.7592105,3.98684211 Z M25.7592105,3.69736842 L25.7592105,3.84210526 L27.2960526,3.84210526 L27.2960526,3.69736842 L25.7592105,3.69736842 L25.7592105,3.69736842 Z M25.7592105,3.41052632 L25.7592105,3.55526316 L27.2960526,3.55526316 L27.2960526,3.41052632 L25.7592105,3.41052632 L25.7592105,3.41052632 Z M25.7592105,3.12105263 L25.7592105,3.26578947 L27.2960526,3.26578947 L27.2960526,3.12105263 L25.7592105,3.12105263 L25.7592105,3.12105263 Z M20.1592105,11.4763158 L20.2513158,11.6210526 L25.5960526,11.6210526 L25.7592105,11.4934211 L25.7592105,11.4763158 L20.1578947,11.4763158 L20.1592105,11.4763158 Z M20.4618421,11.8842105 L20.4828947,11.9078947 L25.1973684,11.9078947 C25.2661662,11.8608084 25.3341585,11.8125558 25.4013158,11.7631579 L20.3552632,11.7631579 C20.3894737,11.8052632 20.4236842,11.8460526 20.4605263,11.8842105 L20.4618421,11.8842105 Z M20.7973684,12.1960526 L24.7368421,12.1960526 C24.8157895,12.15 24.8947368,12.1013158 24.9763158,12.0513158 L20.625,12.0513158 C20.6802632,12.1013158 20.7368421,12.15 20.7960526,12.1960526 L20.7973684,12.1960526 Z M21.2710526,12.4828947 L24.1723684,12.4828947 C24.2755202,12.4395567 24.3765154,12.3912547 24.475,12.3381579 L21.0065789,12.3381579 C21.0907895,12.3907895 21.1802632,12.4407895 21.2723684,12.4828947 L21.2710526,12.4828947 Z M22.7013158,12.7697368 C23.075,12.7697368 23.4289474,12.7223684 23.7618421,12.6276316 L21.6513158,12.6276316 C21.9671053,12.7223684 22.3171053,12.7697368 22.7013158,12.7697368 L22.7013158,12.7697368 Z M22.2592105,11.1868421 L20.0092105,11.1868421 L20.0789474,11.3315789 L23.1315789,11.3315789 L23.1315789,11.2947368 C22.8365726,11.3031143 22.5420001,11.2667364 22.2578947,11.1868421 L22.2592105,11.1868421 Z M21.7763158,10.8973684 L19.8947368,10.8973684 C19.9105263,10.9473684 19.9276316,10.9960526 19.9473684,11.0421053 L21.9552632,11.0421053 C21.8906814,10.9997405 21.8303167,10.9512725 21.775,10.8973684 L21.7763158,10.8973684 Z M21.5434211,10.6105263 L19.8065789,10.6105263 L19.8460526,10.7552632 L21.6434211,10.7552632 C21.6069962,10.70893 21.5731722,10.66061 21.5421053,10.6105263 L21.5434211,10.6105263 Z M21.4026316,10.3210526 L19.7447368,10.3210526 L19.7736842,10.4657895 L21.4644737,10.4657895 C21.4415977,10.418542 21.4209608,10.3702428 21.4026316,10.3210526 L21.4026316,10.3210526 Z M21.3131579,10.0342105 L19.7013158,10.0342105 C19.7065789,10.0828947 19.7144737,10.1315789 19.7210526,10.1789474 L21.3526316,10.1789474 C21.3377366,10.1311924 21.3245702,10.0829153 21.3131579,10.0342105 L21.3131579,10.0342105 Z M21.2605263,9.75 L21.2605263,9.75 L19.6736842,9.75 L19.6868421,9.89473684 L21.2828947,9.89473684 C21.274408,9.84797656 21.2669501,9.8010354 21.2605263,9.75394737 L21.2605263,9.75 Z M21.2289474,9.46052632 L19.6605263,9.46052632 C19.6605263,9.50789474 19.6631579,9.55657895 19.6657895,9.60526316 L21.2447368,9.60526316 C21.239155,9.55705284 21.2338917,9.50880618 21.2289474,9.46052632 L21.2289474,9.46052632 Z M21.2092105,9.17105263 L19.6565789,9.17105263 L19.6565789,9.31578947 L21.2171053,9.31578947 C21.2136075,9.26757202 21.2105372,9.21932451 21.2078947,9.17105263 L21.2092105,9.17105263 Z M21.1960526,8.88421053 L19.6565789,8.88421053 L19.6565789,9.02894737 L21.2026316,9.02894737 C21.2003028,8.98072436 21.1985482,8.93247532 21.1973684,8.88421053 L21.1960526,8.88421053 Z M21.1934211,8.59473684 L19.6578947,8.59473684 L19.6578947,8.73947368 L21.1973684,8.73947368 L21.1947368,8.59473684 L21.1934211,8.59473684 Z M19.6565789,8.30789474 L19.6565789,8.45263158 L21.1934211,8.45263158 L21.1934211,8.30789474 L19.6578947,8.30789474 L19.6565789,8.30789474 Z M19.6565789,8.01842105 L19.6565789,8.16315789 L21.1934211,8.16315789 L21.1934211,8.01842105 L19.6578947,8.01842105 L19.6565789,8.01842105 Z M19.6565789,7.73157895 L19.6565789,7.87631579 L21.1934211,7.87631579 L21.1934211,7.73157895 L19.6578947,7.73157895 L19.6565789,7.73157895 Z M19.6565789,7.44210526 L19.6565789,7.58684211 L21.1934211,7.58684211 L21.1934211,7.44210526 L19.6578947,7.44210526 L19.6565789,7.44210526 Z M19.6565789,7.15526316 L19.6565789,7.3 L21.1934211,7.3 L21.1934211,7.15526316 L19.6578947,7.15526316 L19.6565789,7.15526316 Z M19.6565789,6.86578947 L19.6565789,7.01052632 L21.1934211,7.01052632 L21.1934211,6.86578947 L19.6578947,6.86578947 L19.6565789,6.86578947 Z M19.6565789,6.57894737 L19.6565789,6.72368421 L21.1934211,6.72368421 L21.1934211,6.57894737 L19.6578947,6.57894737 L19.6565789,6.57894737 Z M19.6565789,6.28947368 L19.6565789,6.43421053 L21.1934211,6.43421053 L21.1934211,6.28947368 L19.6578947,6.28947368 L19.6565789,6.28947368 Z M19.6565789,6.00263158 L19.6565789,6.14736842 L21.1934211,6.14736842 L21.1934211,6.00263158 L19.6578947,6.00263158 L19.6565789,6.00263158 Z M19.6565789,5.71315789 L19.6565789,5.85789474 L21.1934211,5.85789474 L21.1934211,5.71315789 L19.6578947,5.71315789 L19.6565789,5.71315789 Z M19.6565789,5.42631579 L19.6565789,5.57105263 L21.1934211,5.57105263 L21.1934211,5.42631579 L19.6578947,5.42631579 L19.6565789,5.42631579 Z M19.6565789,5.13684211 L19.6565789,5.28157895 L21.1934211,5.28157895 L21.1934211,5.13684211 L19.6578947,5.13684211 L19.6565789,5.13684211 Z M19.6565789,4.85 L19.6565789,4.99473684 L21.1934211,4.99473684 L21.1934211,4.85 L19.6578947,4.85 L19.6565789,4.85 Z M19.6565789,4.56052632 L19.6565789,4.70526316 L21.1934211,4.70526316 L21.1934211,4.56052632 L19.6578947,4.56052632 L19.6565789,4.56052632 Z M19.6565789,4.27368421 L19.6565789,4.41842105 L21.1934211,4.41842105 L21.1934211,4.27368421 L19.6578947,4.27368421 L19.6565789,4.27368421 Z M19.6565789,3.98684211 L19.6565789,4.13157895 L21.1934211,4.13157895 L21.1934211,3.98684211 L19.6578947,3.98684211 L19.6565789,3.98684211 Z M19.6565789,3.69736842 L19.6565789,3.84210526 L21.1934211,3.84210526 L21.1934211,3.69736842 L19.6578947,3.69736842 L19.6565789,3.69736842 Z M19.6565789,3.41052632 L19.6565789,3.55526316 L21.1934211,3.55526316 L21.1934211,3.41052632 L19.6578947,3.41052632 L19.6565789,3.41052632 Z M19.6565789,3.12105263 L19.6565789,3.26578947 L21.1934211,3.26578947 L21.1934211,3.12105263 L19.6578947,3.12105263 L19.6565789,3.12105263 Z M17.5210526,9.75 L15.9157895,9.75 C15.9289474,9.79605263 15.9355263,9.84473684 15.9421053,9.89473684 L17.5236842,9.89473684 C17.5236842,9.84605263 17.5236842,9.79736842 17.5210526,9.75 L17.5210526,9.75 Z M15.9552632,10.0986842 C15.9552632,10.1276316 15.9552632,10.1552632 15.9513158,10.1828947 L17.5105263,10.1828947 C17.5155377,10.1347702 17.5190482,10.0865011 17.5210526,10.0381579 L15.9526316,10.0381579 L15.9526316,10.0986842 L15.9552632,10.0986842 Z M17.4947368,9.46184211 L15.7973684,9.46184211 C15.8263158,9.50526316 15.85,9.55394737 15.8710526,9.60657895 L17.5105263,9.60657895 C17.5060079,9.55820083 17.5003044,9.50994073 17.4934211,9.46184211 L17.4947368,9.46184211 Z M15.9078947,10.4697368 L17.4657895,10.4697368 C17.4763158,10.4223684 17.4855263,10.3736842 17.4921053,10.325 L15.9368421,10.325 C15.9301396,10.3737884 15.9204726,10.4221235 15.9078947,10.4697368 L15.9078947,10.4697368 Z M17.4342105,9.17236842 L15.5092105,9.17236842 C15.5739214,9.2139964 15.633922,9.2625263 15.6881579,9.31710526 L17.4684211,9.31710526 C17.4584464,9.26853305 17.4470379,9.22026635 17.4342105,9.17236842 L17.4342105,9.17236842 Z M15.7842105,10.7578947 L17.3868421,10.7578947 C17.4039474,10.7105263 17.4184211,10.6618421 17.4315789,10.6131579 L15.8592105,10.6131579 C15.8380877,10.6633158 15.8130086,10.711714 15.7842105,10.7578947 L15.7842105,10.7578947 Z M14.8026316,8.88552632 C14.9605263,8.93026316 15.1026316,8.97763158 15.2236842,9.03026316 L17.3907895,9.03026316 C17.3740673,8.9813859 17.3556349,8.93311057 17.3355263,8.88552632 L14.8026316,8.88552632 L14.8026316,8.88552632 Z M15.5184211,11.0460526 L17.2657895,11.0460526 C17.2895567,10.9986635 17.3115026,10.9503826 17.3315789,10.9013158 L15.6763158,10.9013158 C15.6286277,10.9546915 15.5757343,11.0031771 15.5184211,11.0460526 L15.5184211,11.0460526 Z M17.1855263,8.59868421 L13.4605263,8.59868421 C13.7067789,8.64361998 13.9524152,8.69186997 14.1973684,8.74342105 L17.2710526,8.74078947 C17.2454258,8.69142302 17.2177706,8.64313624 17.1881579,8.59605263 L17.1855263,8.59868421 Z M14.9013158,11.3289474 L17.0986842,11.3289474 C17.1313398,11.2819733 17.1620671,11.2336876 17.1907895,11.1842105 L15.2828947,11.1842105 C15.1671053,11.2421053 15.0394737,11.2894737 14.9013158,11.3289474 L14.9013158,11.3289474 Z M17.0171053,5.42368421 L17.0828947,5.55526316 L17.1657895,5.55526316 L17.1657895,5.42368421 L17.0171053,5.42368421 L17.0171053,5.42368421 Z M16.5565789,5.13421053 C16.6394737,5.18289474 16.7223684,5.23026316 16.8013158,5.27894737 L17.1657895,5.27894737 L17.1657895,5.13421053 L16.5552632,5.13421053 L16.5565789,5.13421053 Z M15.9473684,4.84736842 C16.0578947,4.89342105 16.1671053,4.94210526 16.2723684,4.99210526 L17.1644737,4.99210526 L17.1644737,4.84736842 L15.9460526,4.84736842 L15.9473684,4.84736842 Z M15.0578947,4.55789474 C15.225,4.59736842 15.3921053,4.64605263 15.5605263,4.70263158 L17.1657895,4.70263158 L17.1657895,4.55789474 L15.0578947,4.55789474 L15.0578947,4.55789474 Z M11.05,4.27631579 C11.0086889,4.32302842 10.9691862,4.37130958 10.9315789,4.42105263 L17.1644737,4.42105263 L17.1644737,4.27631579 L11.05,4.27631579 L11.05,4.27631579 Z M11.3460526,3.98947368 C11.2914747,4.03555209 11.2387994,4.08383785 11.1881579,4.13421053 L17.1644737,4.13421053 L17.1644737,3.98947368 L11.3460526,3.98947368 L11.3460526,3.98947368 Z M16.9078947,3.7 L11.75,3.7 C11.6710526,3.74605263 11.5986842,3.79473684 11.5289474,3.84473684 L17.1644737,3.84473684 L17.1644737,3.82236842 C17.0803201,3.7791699 16.994746,3.73879648 16.9078947,3.70131579 L16.9078947,3.7 Z M16.9657895,8.31052632 L12.2973684,8.31052632 C12.4644047,8.36638277 12.6338751,8.41467745 12.8052632,8.45526316 L17.0855263,8.45526316 C17.0484389,8.4051134 17.0089179,8.35680994 16.9671053,8.31052632 L16.9657895,8.31052632 Z M10.3868421,11.4789474 L10.3868421,11.6236842 L16.8671053,11.6236842 C16.9092352,11.5769548 16.9496139,11.5286759 16.9881579,11.4789474 L10.3881579,11.4789474 L10.3868421,11.4789474 Z M16.6407895,8.02236842 L11.6223684,8.02236842 C11.7144737,8.07236842 11.8131579,8.12105263 11.9184211,8.16710526 L16.8184211,8.16710526 C16.7614658,8.11615606 16.7021924,8.06785919 16.6407895,8.02236842 L16.6407895,8.02236842 Z M10.3868421,11.9078947 L16.5618421,11.9078947 C16.6197368,11.8618421 16.6736842,11.8131579 16.725,11.7631579 L10.3881579,11.7631579 L10.3881579,11.9078947 L10.3868421,11.9078947 Z M16.0815789,3.41052632 L12.3684211,3.41052632 C12.2460526,3.45394737 12.1315789,3.50263158 12.0210526,3.55526316 L16.5421053,3.55526316 C16.3902442,3.50192349 16.2366504,3.45365117 16.0815789,3.41052632 L16.0815789,3.41052632 Z M16.1605263,7.73157895 L11.1934211,7.73157895 C11.2526316,7.78157895 11.3157895,7.82894737 11.3842105,7.87631579 L16.4236842,7.87631579 C16.3375139,7.82374245 16.2488102,7.77543849 16.1578947,7.73157895 L16.1605263,7.73157895 Z M10.8210526,12.1973684 L16.15,12.1973684 C16.2289474,12.1513158 16.3013158,12.1026316 16.3736842,12.0526316 L10.4921053,12.0526316 C10.5973684,12.1013158 10.7052632,12.15 10.8210526,12.1973684 L10.8210526,12.1973684 Z M11.6473684,12.4842105 L15.5355263,12.4842105 C15.6539474,12.4407895 15.7723684,12.3921053 15.8802632,12.3394737 L11.2052632,12.3394737 C11.3460526,12.3894737 11.4947368,12.4381579 11.6486842,12.4842105 L11.6473684,12.4842105 Z M15.3223684,7.44473684 L10.9131579,7.44473684 L10.9302632,7.46447368 C10.9644737,7.50657895 11,7.54736842 11.0394737,7.58684211 L15.8131579,7.58684211 C15.6528786,7.52934761 15.4894564,7.48102383 15.3236842,7.44210526 L15.3223684,7.44473684 Z M14.1118421,3.12894737 C13.6578947,3.12894737 13.2355263,3.17368421 12.8486842,3.26578947 L15.4802632,3.26578947 C15.0298245,3.17452769 14.5714325,3.12824773 14.1118421,3.12763158 L14.1118421,3.12894737 Z M13.5381579,12.7736842 L13.7907895,12.7736842 C14.2473684,12.7644737 14.6644737,12.7171053 15.0447368,12.6289474 L12.2,12.6289474 C12.6407348,12.7205566 13.0893429,12.7690309 13.5394737,12.7736842 L13.5381579,12.7736842 Z M14.4118421,7.25394737 C14.2342105,7.22105263 14.0657895,7.18815789 13.9065789,7.15526316 L10.7210526,7.15526316 C10.7473684,7.20394737 10.7776316,7.25263158 10.8092105,7.3 L14.6473684,7.3 L14.4131579,7.25394737 L14.4118421,7.25394737 Z M12.8421053,6.86842105 L10.5868421,6.86842105 C10.6052632,6.91578947 10.6263158,6.96447368 10.6473684,7.01052632 L13.2789474,7.01052632 C13.1306122,6.97091846 12.9847445,6.92258878 12.8421053,6.86578947 L12.8421053,6.86842105 Z M10.7421053,4.70526316 L12.6842105,4.70526316 C12.8026316,4.64736842 12.925,4.6 13.0565789,4.56052632 L10.8289474,4.56052632 C10.7981482,4.60763639 10.7691792,4.65591796 10.7421053,4.70526316 L10.7421053,4.70526316 Z M12.2289474,11.1868421 L10.3868421,11.1868421 L10.3868421,11.3315789 L12.7263158,11.3315789 C12.5583551,11.2911341 12.3923833,11.2428355 12.2289474,11.1868421 L12.2289474,11.1868421 Z M12.3473684,6.58552632 C12.3455187,6.58341137 12.3437626,6.58121627 12.3421053,6.57894737 L10.5,6.57894737 L10.5394737,6.72368421 L12.5460526,6.72368421 C12.4773942,6.68364859 12.4122492,6.63787102 12.3513158,6.58684211 L12.3473684,6.58552632 Z M10.6618421,4.86578947 C10.6421657,4.90822301 10.6237368,4.95122391 10.6065789,4.99473684 L12.275,4.99473684 C12.3254465,4.94123705 12.3809703,4.89276383 12.4407895,4.85 L10.6671053,4.85 L10.6605263,4.86578947 L10.6618421,4.86578947 Z M12.1131579,6.28947368 L10.4473684,6.28947368 L10.4684211,6.43421053 L12.2013158,6.43421053 C12.167047,6.38911381 12.1375057,6.34061318 12.1131579,6.28947368 L12.1131579,6.28947368 Z M10.5526316,5.13947368 C10.536996,5.18723924 10.5229532,5.23551153 10.5105263,5.28421053 L12.0828947,5.28421053 C12.1047533,5.23366402 12.1311787,5.18521754 12.1618421,5.13947368 L10.5526316,5.13947368 L10.5526316,5.13947368 Z M12.0197368,6.00394737 L10.4276316,6.00394737 C10.4276316,6.05263158 10.4315789,6.1 10.4342105,6.14868421 L12.0552632,6.14868421 C12.0400163,6.10133856 12.0281444,6.05297175 12.0197368,6.00394737 L12.0197368,6.00394737 Z M10.4539474,5.57236842 L12.0065789,5.57236842 C12.0120639,5.52358266 12.0208561,5.47522576 12.0328947,5.42763158 L10.4776316,5.42763158 C10.4682658,5.47562494 10.4603674,5.52389304 10.4539474,5.57236842 L10.4539474,5.57236842 Z M11.9973684,5.73026316 L11.9973684,5.71710526 L10.4368421,5.71710526 C10.4325602,5.76524669 10.4299271,5.81352056 10.4289474,5.86184211 L12,5.86184211 C11.9973705,5.81803502 11.9964926,5.77414035 11.9973684,5.73026316 L11.9973684,5.73026316 Z M11.5184211,10.9013158 L10.3868421,10.9013158 L10.3868421,11.0460526 L11.8447368,11.0460526 C11.7345224,11.0011272 11.6257001,10.9528593 11.5184211,10.9013158 L11.5184211,10.9013158 Z M10.9842105,10.6118421 L10.3868421,10.6118421 L10.3868421,10.7565789 L11.2355263,10.7565789 C11.1501016,10.7104843 11.0658638,10.6622231 10.9828947,10.6118421 L10.9842105,10.6118421 Z M10.5526316,10.325 L10.3868421,10.325 L10.3868421,10.4697368 L10.7578947,10.4697368 C10.6883624,10.4230868 10.6199229,10.3748282 10.5526316,10.325 L10.5526316,10.325 Z M7.02894737,8.16315789 L8.61842105,8.16315789 L8.61842105,8.01842105 L7.03421053,8.01842105 C7.03421053,8.06842105 7.03157895,8.11578947 7.03026316,8.16315789 L7.02894737,8.16315789 Z M8.61710526,7.73157895 L7.03157895,7.73157895 L7.03157895,7.87631579 L8.61842105,7.87631579 L8.61842105,7.73157895 L8.61710526,7.73157895 Z M8.60394737,7.44210526 L7.02105263,7.44210526 L7.02763158,7.58684211 L8.61052632,7.58684211 C8.60846844,7.53856691 8.60583668,7.49031788 8.60263158,7.44210526 L8.60394737,7.44210526 Z M7.01184211,8.45131579 L8.60394737,8.45131579 L8.61052632,8.30657895 L7.02236842,8.30657895 C7.01987677,8.35485964 7.01680637,8.40310872 7.01315789,8.45131579 L7.01184211,8.45131579 Z M6.98552632,8.74078947 L8.57894737,8.74078947 L8.59210526,8.59605263 L7,8.59605263 C6.99491702,8.64436936 6.9892148,8.69261894 6.98289474,8.74078947 L6.98552632,8.74078947 Z M8.57763158,7.15526316 L6.99868421,7.15526316 C7.00526316,7.20263158 7.00921053,7.25 7.01184211,7.3 L8.59078947,7.3 C8.5871748,7.25168737 8.58278828,7.2034356 8.57763158,7.15526316 L8.57763158,7.15526316 Z M6.94342105,9.02631579 L8.54868421,9.02631579 L8.56710526,8.88421053 L6.96578947,8.88421053 C6.95872016,8.93258759 6.95082427,8.98084025 6.94210526,9.02894737 L6.94342105,9.02631579 Z M8.54605263,6.86842105 L6.96710526,6.86842105 C6.975,6.91447368 6.98026316,6.96052632 6.98684211,7.01052632 L8.56578947,7.01052632 C8.55953592,6.96217266 8.5525175,6.913921 8.54473684,6.86578947 L8.54605263,6.86842105 Z M6.88157895,9.31578947 L8.49736842,9.31578947 L8.52368421,9.17105263 L6.91447368,9.17105263 C6.90439702,9.21949583 6.89343025,9.2677496 6.88157895,9.31578947 L6.88157895,9.31578947 Z M8.49473684,6.57894737 L6.91578947,6.57894737 C6.92631579,6.62631579 6.93552632,6.67368421 6.94210526,6.72368421 L8.52105263,6.72368421 C8.51325746,6.6752661 8.50448374,6.62701062 8.49473684,6.57894737 L8.49473684,6.57894737 Z M6.8,9.60526316 L8.43157895,9.60526316 C8.44473684,9.55657895 8.45789474,9.50789474 8.46710526,9.46052632 L6.84210526,9.46052632 C6.82894737,9.50921053 6.81578947,9.55657895 6.8,9.60526316 L6.8,9.60526316 Z M8.43157895,6.28947368 L6.84736842,6.28947368 L6.88684211,6.43421053 L8.46578947,6.43421053 C8.45515654,6.38578602 8.44375158,6.33753426 8.43157895,6.28947368 L8.43157895,6.28947368 Z M6.69078947,9.89473684 L8.35263158,9.89473684 C8.36764877,9.84678237 8.38168677,9.79852673 8.39473684,9.75 L6.75,9.75 C6.73164983,9.79880133 6.71190488,9.84706675 6.69078947,9.89473684 L6.69078947,9.89473684 Z M8.34868421,6.00526316 L6.75657895,6.00526316 L6.80526316,6.15 L8.39210526,6.15 C8.37905519,6.10147327 8.36501719,6.05321763 8.35,6.00526316 L8.34868421,6.00526316 Z M6.54605263,10.1828947 L8.25263158,10.1828947 L8.30526316,10.0381579 L6.62368421,10.0381579 C6.59991095,10.0872634 6.57445733,10.1355375 6.54736842,10.1828947 L6.54605263,10.1828947 Z M8.25,5.71447368 L6.63421053,5.71447368 C6.65657895,5.76184211 6.67894737,5.80921053 6.7,5.85921053 L8.30263158,5.85921053 C8.28590602,5.81067126 8.26835965,5.76241873 8.25,5.71447368 L8.25,5.71447368 Z M6.35526316,10.4684211 L8.13157895,10.4684211 L8.19736842,10.3236842 L6.46052632,10.3236842 C6.42631579,10.3736842 6.39210526,10.4210526 6.35526316,10.4684211 L6.35526316,10.4684211 Z M8.13157895,5.42631579 L6.47368421,5.42631579 C6.50394737,5.47368421 6.53289474,5.52105263 6.56052632,5.57105263 L8.19473684,5.57105263 C8.1746492,5.52239165 8.15359238,5.47413643 8.13157895,5.42631579 L8.13157895,5.42631579 Z M6.09736842,10.7552632 L7.98684211,10.7552632 C8.01298818,10.7076201 8.03799528,10.6593608 8.06184211,10.6105263 L6.23684211,10.6105263 C6.19161031,10.6608242 6.14419642,10.7091162 6.09473684,10.7552632 L6.09736842,10.7552632 Z M7.98552632,5.13684211 L6.24868421,5.13684211 C6.2913432,5.18347555 6.33216381,5.23175799 6.37105263,5.28157895 L8.06184211,5.28157895 C8.03749138,5.23276752 8.01204635,5.18450971 7.98552632,5.13684211 L7.98552632,5.13684211 Z M5.71578947,11.0447368 L7.81315789,11.0447368 C7.84504206,10.9972539 7.87575311,10.9489937 7.90526316,10.9 L5.925,10.9 C5.85795974,10.9526543 5.78764274,11.0009972 5.71447368,11.0447368 L5.71578947,11.0447368 Z M7.80789474,4.85 L5.93421053,4.85 C5.99342105,4.89473684 6.05263158,4.94210526 6.10526316,4.99473684 L7.89868421,4.99473684 C7.86914123,4.94576353 7.83843069,4.8975041 7.80657895,4.85 L7.80789474,4.85 Z M4.91710526,11.3315789 L7.60131579,11.3315789 C7.63905828,11.2843584 7.67547596,11.236094 7.71052632,11.1868421 L5.42368421,11.1868421 C5.26578947,11.2526316 5.09473684,11.3013158 4.91447368,11.3315789 L4.91710526,11.3315789 Z M7.59736842,4.56184211 L5.42105263,4.56184211 C5.52631579,4.60131579 5.62368421,4.65131579 5.71842105,4.70657895 L7.70526316,4.70657895 C7.67032755,4.65724306 7.63390738,4.60897537 7.59605263,4.56184211 L7.59736842,4.56184211 Z M4.40789474,11.4763158 L1.32894737,11.4763158 L1.33157895,11.4789474 C1.37368421,11.5276316 1.41710526,11.575 1.46315789,11.6197368 L7.34473684,11.6197368 C7.38947368,11.5763158 7.43289474,11.5276316 7.47631579,11.4802632 L7.47631579,11.4776316 L4.41052632,11.4776316 L4.40789474,11.4763158 Z M7.34210526,4.27368421 L1.46447368,4.27368421 C1.41931964,4.32073705 1.37544401,4.36900024 1.33289474,4.41842105 L3.92894737,4.41842105 C4.24509989,4.37017636 4.56674222,4.37017636 4.88289474,4.41842105 L7.475,4.41842105 C7.43115032,4.36895092 7.38595805,4.32068732 7.33947368,4.27368421 L7.34210526,4.27368421 Z M1.77631579,11.9078947 L7.03157895,11.9078947 C7.08815789,11.8618421 7.14210526,11.8157895 7.19605263,11.7631579 L1.60921053,11.7631579 C1.66184211,11.8157895 1.71710526,11.8631579 1.77368421,11.9078947 L1.77631579,11.9078947 Z M7.02631579,3.98684211 L1.77631579,3.98684211 C1.71942141,4.03318671 1.66412603,4.08146045 1.61052632,4.13157895 L7.18947368,4.13157895 C7.13655335,4.08170601 7.08214272,4.03343851 7.02631579,3.98684211 L7.02631579,3.98684211 Z M2.17894737,12.1973684 L6.62631579,12.1973684 C6.70131579,12.1513158 6.77368421,12.1026316 6.84473684,12.0526316 L1.96315789,12.0526316 C2.03157895,12.1026316 2.10394737,12.1513158 2.17894737,12.1973684 L2.17894737,12.1973684 Z M6.62631579,3.69736842 L2.18026316,3.69736842 C2.10594758,3.74262743 2.03351836,3.79091358 1.96315789,3.84210526 L6.84210526,3.84210526 C6.77169146,3.79099018 6.69926538,3.74270613 6.625,3.69736842 L6.62631579,3.69736842 Z M2.75657895,12.4868421 L6.04868421,12.4868421 C6.15801204,12.4438942 6.26515927,12.3955901 6.36973684,12.3421053 L2.43552632,12.3421053 C2.54078947,12.3947368 2.64605263,12.4434211 2.75657895,12.4868421 L2.75657895,12.4868421 Z M6.04605263,3.41315789 L2.76052632,3.41315789 C2.65131579,3.45526316 2.54342105,3.50526316 2.43947368,3.55789474 L6.36842105,3.55789474 C6.26315789,3.50526316 6.15789474,3.45526316 6.04736842,3.41315789 L6.04605263,3.41315789 Z M4.40789474,12.7723684 C4.83684211,12.7723684 5.23684211,12.725 5.60526316,12.6276316 L3.20526316,12.6276316 C3.57631579,12.725 3.97763158,12.7723684 4.40789474,12.7723684 L4.40789474,12.7723684 Z M4.40789474,3.12236842 C3.98026316,3.12236842 3.57894737,3.16973684 3.20789474,3.26710526 L5.60263158,3.26710526 C5.21263087,3.16813017 4.81156401,3.11948921 4.40921053,3.12236842 L4.40789474,3.12236842 Z M3.38815789,11.1881579 L1.09868421,11.1881579 C1.13421053,11.2368421 1.16973684,11.2855263 1.20789474,11.3328947 L3.89868421,11.3328947 C3.72366285,11.3037534 3.5524318,11.2552085 3.38815789,11.1881579 L3.38815789,11.1881579 Z M1.10131579,4.70657895 L3.08815789,4.70657895 C3.18370281,4.65045022 3.28358244,4.6020504 3.38684211,4.56184211 L1.21052632,4.56184211 C1.17278383,4.60906266 1.13636615,4.65732705 1.10131579,4.70657895 L1.10131579,4.70657895 Z M2.88552632,10.9 L0.907894737,10.9 C0.934210526,10.9486842 0.965789474,10.9973684 0.997368421,11.0447368 L3.09868421,11.0447368 C3.02473254,11.0009052 2.95354562,10.9525684 2.88552632,10.9 L2.88552632,10.9 Z M0.911842105,4.99473684 L2.70131579,4.99473684 C2.75570691,4.9434703 2.81280633,4.89515541 2.87236842,4.85 L1,4.85 C0.969159842,4.89761035 0.939328629,4.94586673 0.910526316,4.99473684 L0.911842105,4.99473684 Z M2.57763158,10.6131579 L0.746052632,10.6131579 C0.769899458,10.6619924 0.794906555,10.7102517 0.821052632,10.7578947 L2.71578947,10.7578947 C2.66721721,10.7116987 2.6206818,10.6634072 2.57631579,10.6131579 L2.57763158,10.6131579 Z M0.75,5.28289474 L2.43947368,5.28289474 C2.47706863,5.23314203 2.51657178,5.18486041 2.55789474,5.13815789 L0.828947368,5.13815789 C0.802631579,5.18421053 0.776315789,5.23289474 0.752631579,5.28289474 L0.75,5.28289474 Z M2.35526316,10.3223684 L0.614473684,10.3223684 C0.634210526,10.3710526 0.653947368,10.4197368 0.677631579,10.4671053 L2.45789474,10.4671053 C2.42187543,10.4201681 2.38764053,10.3718881 2.35526316,10.3223684 L2.35526316,10.3223684 Z M0.618421053,5.57105263 L2.25,5.57105263 C2.27728355,5.52182804 2.30624796,5.47355403 2.33684211,5.42631579 L0.678947368,5.42631579 C0.657527115,5.47421293 0.636910192,5.52246531 0.617105263,5.57105263 L0.618421053,5.57105263 Z M2.18947368,10.0355263 L0.505263158,10.0355263 C0.521052632,10.0842105 0.538157895,10.1328947 0.557894737,10.1802632 L2.26315789,10.1802632 C2.23613272,10.1328709 2.21068025,10.084599 2.18684211,10.0355263 L2.18947368,10.0355263 Z M0.505263158,5.85921053 L2.11052632,5.85921053 C2.13026316,5.80921053 2.15263158,5.76184211 2.17631579,5.71447368 L0.556578947,5.71447368 C0.538058447,5.76235854 0.520510979,5.81061407 0.503947368,5.85921053 L0.505263158,5.85921053 Z M2.06578947,9.74736842 L0.414473684,9.74736842 C0.427631579,9.79605263 0.440789474,9.84473684 0.456578947,9.89210526 L2.12236842,9.89210526 C2.10131687,9.844408 2.08157266,9.79614437 2.06315789,9.74736842 L2.06578947,9.74736842 Z M0.415789474,6.14736842 L2.00263158,6.14736842 C2.01809057,6.09871403 2.03476244,6.05045337 2.05263158,6.00263158 L0.460526316,6.00263158 C0.445068152,6.05057636 0.430591445,6.09883205 0.417105263,6.14736842 L0.415789474,6.14736842 Z M1.96842105,9.45921053 L0.342105263,9.45921053 C0.355263158,9.50657895 0.365789474,9.55526316 0.377631579,9.60394737 L2.01315789,9.60394737 C1.9977681,9.55598134 1.9832918,9.507727 1.96973684,9.45921053 L1.96842105,9.45921053 Z M0.377631579,6.28947368 L0.344736842,6.43421053 L1.92368421,6.43421053 L1.96315789,6.28947368 L0.377631579,6.28947368 L0.377631579,6.28947368 Z M1.89868421,9.17105263 L0.289473684,9.17105263 C0.296052632,9.21973684 0.302631579,9.26842105 0.313157895,9.31578947 L1.93157895,9.31578947 C1.91955435,9.26779083 1.90858678,9.21953355 1.89868421,9.17105263 L1.89868421,9.17105263 Z M0.289473684,6.72368421 L1.86842105,6.72368421 C1.87632778,6.67528529 1.88510112,6.62703193 1.89473684,6.57894737 L0.315789474,6.57894737 C0.306218503,6.62704428 0.297445368,6.67529652 0.289473684,6.72368421 L0.289473684,6.72368421 Z M1.84605263,8.88157895 L0.246052632,8.88157895 L0.264473684,9.02631579 L1.86973684,9.02631579 C1.86178182,8.9781486 1.85432528,8.9299004 1.84736842,8.88157895 L1.84605263,8.88157895 Z M0.246052632,7.01052632 L1.825,7.01052632 C1.83051215,6.96220283 1.83665302,6.91395312 1.84342105,6.86578947 L0.267105263,6.86578947 L0.247368421,7.01052632 L0.246052632,7.01052632 Z M1.81184211,8.59605263 L0.214473684,8.59605263 L0.227631579,8.74078947 L1.825,8.74078947 C1.81913719,8.69261116 1.81387363,8.64436182 1.80921053,8.59605263 L1.81184211,8.59605263 Z M0.215789474,7.29868421 L1.79473684,7.29868421 L1.80789474,7.15394737 L0.228947368,7.15394737 C0.223970758,7.20213746 0.219584465,7.2503867 0.215789474,7.29868421 L0.215789474,7.29868421 Z M1.78684211,8.30789474 L0.197368421,8.30789474 L0.206578947,8.45263158 L1.79868421,8.45263158 C1.79477673,8.40441579 1.79126784,8.35616853 1.78815789,8.30789474 L1.78684211,8.30789474 Z M0.197368421,7.58684211 L1.78157895,7.58684211 L1.78815789,7.44210526 L0.205263158,7.44210526 C0.202058059,7.49031788 0.199426294,7.53856691 0.197368421,7.58684211 L0.197368421,7.58684211 Z M1.77894737,8.02105263 L0.190789474,8.02105263 C0.190789474,8.06710526 0.190789474,8.11578947 0.193421053,8.16315789 L1.78157895,8.16315789 L1.77894737,8.01842105 L1.77894737,8.02105263 Z M0.192105263,7.87631579 L1.77631579,7.87631579 C1.77631579,7.82631579 1.77631579,7.77894737 1.77894737,7.73157895 L0.193421053,7.73157895 L0.193421053,7.87631579 L0.192105263,7.87631579 Z" transform="translate(7.894737, 18.421053)"/></g></g></g></g></svg>