<svg xmlns="http://www.w3.org/2000/svg" xmlns:xlink="http://www.w3.org/1999/xlink" width="50" height="50" version="1.1" viewBox="0 0 50 50"><g fill="none" fill-rule="evenodd" stroke="none" stroke-width="1"><g><g><circle id="Oval" cx="25" cy="25" r="25" fill="#FF5900"/><path id="Shape" fill="#FFF" d="M25.7868421,13.9394737 C20.7,13.9394737 16.5763158,18.2921053 16.5763158,23.6605263 L16.5763158,36.3078947 L20.2605263,36.3078947 L20.2605263,23.6710526 C20.2605263,20.4605263 22.7276316,17.8578947 25.7684211,17.8578947 C28.8105263,17.8578947 31.275,20.4631579 31.275,23.6710526 C31.275,26.8815789 28.8092105,29.4828947 25.7671053,29.4828947 C24.6895704,29.4820281 23.638106,29.1514367 22.7539474,28.5355263 L22.7539474,32.7131579 C23.3328947,33.0907895 24.6592105,33.3578947 26.2118421,33.3710526 C31.1,33.1342105 34.9960526,28.8776316 34.9960526,23.6605263 C34.9960526,18.2921053 30.8723684,13.9394737 25.7855263,13.9394737 L25.7868421,13.9394737 Z M25.4,33.3710526 C25.5289474,33.3868421 25.6578947,33.4 25.7868421,33.4 C25.9223684,33.4 26.0578947,33.3868421 26.1921053,33.3710526 L25.4,33.3710526 L25.4,33.3710526 Z"/></g></g></g></svg>