<svg width="50" height="50" viewBox="0 0 50 50" xmlns="http://www.w3.org/2000/svg"><g fill="none" fill-rule="evenodd"><circle fill="#FF5900" cx="25" cy="25" r="25"/><path d="M25.787 13.94c-5.087 0-9.21 4.352-9.21 9.72V36.31h3.684V23.67c0-3.21 2.468-5.812 5.508-5.812 3.043 0 5.507 2.605 5.507 5.813 0 3.212-2.466 5.813-5.508 5.813-1.077 0-2.13-.332-3.013-.947v4.177c.58.378 1.905.645 3.458.658 4.888-.236 8.784-4.492 8.784-9.71 0-5.368-4.124-9.72-9.21-9.72zM25.4 33.37c.13.017.258.03.387.03.135 0 .27-.013.405-.03H25.4z" fill="#FFF"/></g></svg>