<?xml version="1.0" encoding="UTF-8" standalone="no"?>
<svg
   xmlns:dc="http://purl.org/dc/elements/1.1/"
   xmlns:cc="http://creativecommons.org/ns#"
   xmlns:rdf="http://www.w3.org/1999/02/22-rdf-syntax-ns#"
   xmlns:svg="http://www.w3.org/2000/svg"
   xmlns="http://www.w3.org/2000/svg"
   xmlns:sodipodi="http://sodipodi.sourceforge.net/DTD/sodipodi-0.dtd"
   xmlns:inkscape="http://www.inkscape.org/namespaces/inkscape"
   width="50px"
   height="50px"
   viewBox="400 1 50 50"
   version="1.1"
   id="svg9"
   sodipodi:docname="pixiv.svg"
   inkscape:version="0.92.1 r15371">
  <metadata
     id="metadata13">
    <rdf:RDF>
      <cc:Work
         rdf:about="">
        <dc:format>image/svg+xml</dc:format>
        <dc:type
           rdf:resource="http://purl.org/dc/dcmitype/StillImage" />
        <dc:title />
      </cc:Work>
    </rdf:RDF>
  </metadata>
  <sodipodi:namedview
     pagecolor="#ffffff"
     bordercolor="#666666"
     borderopacity="1"
     objecttolerance="10"
     gridtolerance="10"
     guidetolerance="10"
     inkscape:pageopacity="0"
     inkscape:pageshadow="2"
     inkscape:window-width="1366"
     inkscape:window-height="715"
     id="namedview11"
     showgrid="false"
     showguides="true"
     inkscape:guide-bbox="true"
     inkscape:zoom="6.675088"
     inkscape:cx="33.479911"
     inkscape:cy="21.864326"
     inkscape:window-x="-8"
     inkscape:window-y="-8"
     inkscape:window-maximized="1"
     inkscape:current-layer="Twitter">
    <sodipodi:guide
       position="24.868586,55.729602"
       orientation="1,0"
       id="guide41"
       inkscape:locked="false" />
    <sodipodi:guide
       position="0,25"
       orientation="0,1"
       id="guide45"
       inkscape:locked="false" />
  </sodipodi:namedview>
  <!-- Generator: Sketch 42 (36781) - http://www.bohemiancoding.com/sketch -->
  <desc
     id="desc2">Created with Sketch.</desc>
  <defs
     id="defs4" />
  <g
     id="Twitter"
     stroke="none"
     stroke-width="1"
     fill="none"
     fill-rule="evenodd"
     transform="translate(400.000000, 1.000000)">
    <path
       d="M0,25 C0,11.1928806 11.1928806,0 25,0 C38.8071194,0 50,11.1928806 50,25 C50,38.8071194 38.8071194,50 25,50 C11.1928806,50 0,38.8071194 0,25 Z"
       id="back"
       fill="#55ACEE"
       style="fill:#0096db;fill-opacity:1" />
    <path
       inkscape:connector-curvature="0"
       style="fill:#ffffff;stroke-width:0.24089302"
       d="M 36.585399,13.26195 C 33.924285,10.891744 30.197388,9.5240651 25.86628,9.5240651 c -11.288743,0 -18.9674731,8.8794539 -18.9674731,8.8794539 l 2.1637657,3.500451 c 0,0 1.1969754,0.102174 0.5631852,-1.959562 0.5472032,-1.05337 1.6184692,-2.472137 3.7099592,-4.109606 0,0 0,22.114707 0,23.314528 -0.901669,0.259328 -2.093398,0.746847 -1.280941,1.575191 1.387089,0 5.184591,0 6.215547,0 0.820326,-0.836615 -0.472065,-1.340189 -1.259474,-1.575191 0,-0.899866 0,-5.499909 0,-5.499909 0,0 4.261695,1.705098 8.855431,1.705098 4.036516,0 7.709026,-1.223905 10.440746,-3.434768 2.731482,-2.198211 4.491884,-5.480447 4.48115,-9.2322 0.0079,-3.683635 -1.53904,-7.064152 -4.202777,-9.425601 z m -3.293952,16.8172 c -1.888733,1.900933 -4.63572,3.103187 -7.80444,3.100753 -3.535112,0.002 -6.511095,-0.695759 -8.47592,-1.681987 0,0 0,-0.603316 0,-5.010201 0,-4.766929 0,-12.481594 0,-12.481594 2.155894,-1.561324 5.652363,-2.523225 8.47592,-2.517386 3.430394,0.0027 6.124426,1.323647 7.945653,3.328945 1.818366,2.016973 2.811154,4.69638 2.819979,7.810513 -0.01097,3.034827 -1.072222,5.534212 -2.961192,7.450957 z"
       id="path11" />
  </g>
</svg>
