<svg width="50" height="50" viewBox="0 0 50 50" xmlns="http://www.w3.org/2000/svg"><g fill="none" fill-rule="evenodd"><circle fill="#F28F2C" cx="25" cy="25" r="25"/><path d="M28.563 39.27c.51-.806 1.89-2.027 1.554-4.683-.038-.413.336-.453.434-.06.533 1.91-.806 4.036-1.987 4.745zm-2.54-25.254c.197.078.217 1.457-.354 1.24-.375-.138.137-1.3.354-1.24zm-9.586 6.575c.315.768.63 1.85 3.032 2.953 9.053 4.015 18.01.512 16.986-5.432-.69-3.976-6.003-8.622-10.512-9.724-6.692-1.654-11.613 3.82-11.87 8.445-.196 3.485.69 6.24.827 9.764.02.12 0 .295-.097.336-.886.177-2.382.57-2.46.786-.1.413.157 2.087.275 2.618.04.198.157.256.256.06.157-.316 0-1.122.177-1.457.12-.197.454-.236 1.084-.236.315 0 1.102-.04 1.083.296-.02.157-.04.354-.197.512-.866.866-1.417 2.52-1.26 3.563.04.237.197.178.256-.078.315-1.26.965-2.086 1.673-2.185.156 0 .156.217.176.335.138.827.492 1.91.768 2.638.67 1.712 1.614 3.346 2.992 4.606.197.177-.02.217-.157.256-.77.157-3.604 1.28-4.057 3.248-.02.177.414-.276.71-.394.196-.08.727-.04 1.968-.04l8.072.02c.688-.04 1.24-.413 1.673-.688 3.13-2.087 5.453-4.39 7.676-7.757.257-.412 3.19-5.45 1.793-4.034-.02.04-3.622 3.307-6.16 3.603-.966.117-1.26.254-1.792-.474-2.677-3.248-7.382-4.665-7.598-5.02-.276-.512-.374-1.83-.767-2.027-.827-.454-1.772-.79-2.953-1.38-1.398-.688-1.595-1.653-1.595-3.11zm-.177 9.942c.846-.453 2.146-1.477 2.283-2.44 0-.257.394-.376.473-.02.255 1.298-1.36 2.184-2.756 2.46zm10.964-18.445c.08-.69-.374-.61-.69-.197-.236.295-.826 1.063-1.26 2.224-.353.965-.61 2.087-.628 2.736 0 .394.04.512.157.552.197.078.394-.118.55-.355.966-1.26 1.714-3.208 1.87-4.96zM26.32 20c-3.348 0-4.883-1.673-5.77-2.716-1.928-2.264-1.12-5.807 1.497-7.028 3.13-1.476 7.815-.138 9.43 3.523C33.148 17.597 30 20 26.318 20z" fill="#FFF"/></g></svg>