<svg xmlns="http://www.w3.org/2000/svg" xmlns:xlink="http://www.w3.org/1999/xlink" width="50" height="50" version="1.1" viewBox="0 0 50 50"><g id="Page-1" fill="none" fill-rule="evenodd" stroke="none" stroke-width="1"><g id="Group"><g><rect id="Rectangle-path" width="50" height="50" x="0" y="0" fill="#CEE3F7" rx="25"/><g id="g18" transform="translate(25.000000, 24.000000) scale(1, -1) translate(-25.000000, -24.000000) translate(13.000000, 7.000000)"><path id="path26" fill="#FFF" d="M15.8983714,14.5085459 C17.9872286,14.5085459 19.6800857,12.4416582 19.6800857,9.89079082 C19.6800857,7.33905612 17.9872286,5.27303571 15.8983714,5.27303571 C13.8095143,5.27303571 12.1183714,7.33905612 12.1183714,9.89079082 C12.1183714,12.4416582 13.8095143,14.5085459 15.8983714,14.5085459"/><path id="path30" stroke="#000" stroke-width="1.375" d="M15.8983714,14.5085459 C17.9872286,14.5085459 19.6800857,12.4416582 19.6800857,9.89079082 C19.6800857,7.33905612 17.9872286,5.27303571 15.8983714,5.27303571 C13.8095143,5.27303571 12.1183714,7.33905612 12.1183714,9.89079082 C12.1183714,12.4416582 13.8095143,14.5085459 15.8983714,14.5085459 L15.8983714,14.5085459 Z"/><path id="path34" fill="#FFF" d="M9.94825714,0.464984694 C10.0022571,0.635852041 10.0408286,0.812790816 10.0408286,0.998403061 C10.0408286,2.17886224 8.87425714,3.13554592 7.43511429,3.13554592 C5.99597143,3.13554592 4.83025714,2.17886224 4.83025714,0.998403061 C4.83025714,0.812790816 4.86797143,0.635852041 4.92282857,0.464984694 L9.94825714,0.464984694 L9.94825714,0.464984694 Z"/><path id="path38" stroke="#000" stroke-width="1.375" d="M9.94825714,0.464984694 C10.0022571,0.635852041 10.0408286,0.812790816 10.0408286,0.998403061 C10.0408286,2.17886224 8.87425714,3.13554592 7.43511429,3.13554592 C5.99597143,3.13554592 4.83025714,2.17886224 4.83025714,0.998403061 C4.83025714,0.812790816 4.86797143,0.635852041 4.92282857,0.464984694 L9.94825714,0.464984694 L9.94825714,0.464984694 Z"/><path id="path42" fill="#FFF" d="M19.0729714,0.464984694 C19.1269714,0.635852041 19.1646857,0.812790816 19.1646857,0.998403061 C19.1646857,2.17886224 17.9981143,3.13554592 16.5589714,3.13554592 C15.1198286,3.13554592 13.9541143,2.17886224 13.9541143,0.998403061 C13.9541143,0.812790816 13.9918286,0.635852041 14.0458286,0.464984694 L19.0729714,0.464984694 L19.0729714,0.464984694 Z"/><path id="path46" stroke="#000" stroke-width="1.375" d="M19.0729714,0.464984694 C19.1269714,0.635852041 19.1646857,0.812790816 19.1646857,0.998403061 C19.1646857,2.17886224 17.9981143,3.13554592 16.5589714,3.13554592 C15.1198286,3.13554592 13.9541143,2.17886224 13.9541143,0.998403061 C13.9541143,0.812790816 13.9918286,0.635852041 14.0458286,0.464984694 L19.0729714,0.464984694 L19.0729714,0.464984694 Z"/><path id="path70" fill="#FFF" d="M8.09957143,14.5085459 C10.1884286,14.5085459 11.8804286,12.4416582 11.8804286,9.89079082 C11.8804286,7.33905612 10.1884286,5.27303571 8.09957143,5.27303571 C6.01157143,5.27303571 4.31957143,7.33905612 4.31957143,9.89079082 C4.31957143,12.4416582 6.01157143,14.5085459 8.09957143,14.5085459"/><path id="path74" stroke="#000" stroke-width="1.375" d="M8.09957143,14.5085459 C10.1884286,14.5085459 11.8804286,12.4416582 11.8804286,9.89079082 C11.8804286,7.33905612 10.1884286,5.27303571 8.09957143,5.27303571 C6.01157143,5.27303571 4.31957143,7.33905612 4.31957143,9.89079082 C4.31957143,12.4416582 6.01157143,14.5085459 8.09957143,14.5085459 L8.09957143,14.5085459 Z"/><path id="path86" fill="#FFF" d="M10.7007429,0.462469388 L13.2636,0.462469388 C15.5401714,1.66114286 17.2270286,5.96144898 17.2270286,11.0970102 C17.2270286,17.1597653 14.8784571,22.0741531 11.9821714,22.0741531 C9.08502857,22.0741531 6.73731429,17.1597653 6.73731429,11.0970102 C6.73731429,5.96144898 8.42417143,1.66114286 10.7007429,0.462469388"/><path id="path90" stroke="#000" stroke-width="1.375" d="M10.7007429,0.462469388 L13.2636,0.462469388 C15.5401714,1.66114286 17.2270286,5.96144898 17.2270286,11.0970102 C17.2270286,17.1597653 14.8784571,22.0741531 11.9821714,22.0741531 C9.08502857,22.0741531 6.73731429,17.1597653 6.73731429,11.0970102 C6.73731429,5.96144898 8.42417143,1.66114286 10.7007429,0.462469388 L10.7007429,0.462469388 Z"/><path id="path50" fill="#FFF" d="M4.87611429,24.273398 C4.87611429,22.978449 3.83897143,21.9298265 2.55925714,21.9298265 C1.2804,21.9298265 0.244114286,22.978449 0.244114286,24.273398 C0.244114286,25.5683469 1.2804,26.6178367 2.55925714,26.6178367 C3.83897143,26.6178367 4.87611429,25.5683469 4.87611429,24.273398"/><path id="path54" stroke="#000" stroke-width="1.375" d="M4.87611429,24.273398 C4.87611429,22.978449 3.83897143,21.9298265 2.55925714,21.9298265 C1.2804,21.9298265 0.244114286,22.978449 0.244114286,24.273398 C0.244114286,25.5683469 1.2804,26.6178367 2.55925714,26.6178367 C3.83897143,26.6178367 4.87611429,25.5683469 4.87611429,24.273398 L4.87611429,24.273398 Z"/><path id="path58" fill="#FFF" d="M23.8211143,24.273398 C23.8211143,22.978449 22.7839714,21.9298265 21.5042571,21.9298265 C20.2254,21.9298265 19.1891143,22.978449 19.1891143,24.273398 C19.1891143,25.5683469 20.2254,26.6178367 21.5042571,26.6178367 C22.7839714,26.6178367 23.8211143,25.5683469 23.8211143,24.273398"/><path id="path62" stroke="#000" stroke-width="1.375" d="M23.8211143,24.273398 C23.8211143,22.978449 22.7839714,21.9298265 21.5042571,21.9298265 C20.2254,21.9298265 19.1891143,22.978449 19.1891143,24.273398 C19.1891143,25.5683469 20.2254,26.6178367 21.5042571,26.6178367 C22.7839714,26.6178367 23.8211143,25.5683469 23.8211143,24.273398 L23.8211143,24.273398 Z"/><path id="path94" fill="#FFF" d="M22.4722286,21.0500765 C22.4722286,17.2242092 17.7759429,14.1234439 11.9816571,14.1234439 C6.18822857,14.1234439 1.49194286,17.2242092 1.49194286,21.0500765 C1.49194286,24.8759439 6.18822857,27.9775765 11.9816571,27.9775765 C17.7759429,27.9775765 22.4722286,24.8759439 22.4722286,21.0500765"/><path id="path178" stroke="#000" stroke-width="1.375" d="M15.6560571,17.8615357 C14.7414857,16.9369439 13.2689143,16.7591378 12.0457714,16.7591378"/><path id="path174" stroke="#000" stroke-width="1.375" d="M8.40891429,17.8615357 C9.32262857,16.9369439 10.7969143,16.7591378 12.0192,16.7591378"/><path id="path170" stroke="#FF4500" stroke-width="1.375" d="M16.9568571,22.4023571 C16.9568571,21.7171531 16.4082857,21.162051 15.7311429,21.162051 C15.0548571,21.162051 14.5054286,21.7171531 14.5054286,22.4023571 C14.5054286,23.0884286 15.0548571,23.6435306 15.7311429,23.6435306 C16.4082857,23.6435306 16.9568571,23.0884286 16.9568571,22.4023571 L16.9568571,22.4023571 Z"/><path id="path166" fill="#FF4500" d="M16.9568571,22.4023571 C16.9568571,21.7171531 16.4082857,21.162051 15.7311429,21.162051 C15.0548571,21.162051 14.5054286,21.7171531 14.5054286,22.4023571 C14.5054286,23.0884286 15.0548571,23.6435306 15.7311429,23.6435306 C16.4082857,23.6435306 16.9568571,23.0884286 16.9568571,22.4023571"/><path id="path162" stroke="#FF4500" stroke-width="1.375" d="M9.56605714,22.4023571 C9.56605714,21.7171531 9.01662857,21.162051 8.34034286,21.162051 C7.66234286,21.162051 7.11377143,21.7171531 7.11377143,22.4023571 C7.11377143,23.0884286 7.66234286,23.6435306 8.34034286,23.6435306 C9.01662857,23.6435306 9.56605714,23.0884286 9.56605714,22.4023571 L9.56605714,22.4023571 Z"/><path id="path158" fill="#FF4500" d="M9.56605714,22.4023571 C9.56605714,21.7171531 9.01662857,21.162051 8.34034286,21.162051 C7.66234286,21.162051 7.11377143,21.7171531 7.11377143,22.4023571 C7.11377143,23.0884286 7.66234286,23.6435306 8.34034286,23.6435306 C9.01662857,23.6435306 9.56605714,23.0884286 9.56605714,22.4023571"/><path id="path102" stroke="#000" stroke-width="1.375" d="M9.22294286,0.464984694 L14.8766571,0.464984694"/><path id="path98" stroke="#000" stroke-width="1.375" d="M22.4722286,21.0500765 C22.4722286,17.2242092 17.7759429,14.1234439 11.9816571,14.1234439 C6.18822857,14.1234439 1.49194286,17.2242092 1.49194286,21.0500765 C1.49194286,24.8759439 6.18822857,27.9775765 11.9816571,27.9775765 C17.7759429,27.9775765 22.4722286,24.8759439 22.4722286,21.0500765 L22.4722286,21.0500765 Z"/><path id="path78" fill="#FFF" d="M22.1692286,32.120199 C22.1692286,31.100199 21.3515143,30.27275 20.3443714,30.27275 C19.3346571,30.27275 18.5178,31.100199 18.5178,32.120199 C18.5178,33.1410663 19.3346571,33.967648 20.3443714,33.967648 C21.3515143,33.967648 22.1692286,33.1410663 22.1692286,32.120199"/><path id="path82" stroke="#000" stroke-width="1.375" d="M22.1692286,32.120199 C22.1692286,31.100199 21.3515143,30.27275 20.3443714,30.27275 C19.3346571,30.27275 18.5178,31.100199 18.5178,32.120199 C18.5178,33.1410663 19.3346571,33.967648 20.3443714,33.967648 C21.3515143,33.967648 22.1692286,33.1410663 22.1692286,32.120199 L22.1692286,32.120199 Z"/><polyline id="path66" stroke="#000" stroke-width="1.375" points="18.453 32.499 13.821 33.602 12.119 28.157"/></g></g></g></g></svg>