<svg width="50" height="50" viewBox="0 0 50 50" xmlns="http://www.w3.org/2000/svg"><g fill="none" fill-rule="evenodd"><rect fill="#CEE3F7" width="50" height="50" rx="25"/><path d="M28.898 26.49c2.09 0 3.782 2.068 3.782 4.62 0 2.55-1.693 4.617-3.782 4.617-2.088 0-3.78-2.066-3.78-4.618 0-2.552 1.692-4.62 3.78-4.62" fill="#FFF"/><path d="M28.898 26.49c2.09 0 3.782 2.068 3.782 4.62 0 2.55-1.693 4.617-3.782 4.617-2.088 0-3.78-2.066-3.78-4.618 0-2.552 1.692-4.62 3.78-4.62z" stroke="#000" stroke-width="1.375"/><path d="M22.948 40.535c.054-.17.093-.348.093-.533 0-1.18-1.166-2.138-2.605-2.138-1.44 0-2.605.957-2.605 2.138 0 .185.038.362.093.533h5.025z" fill="#FFF"/><path d="M22.948 40.535c.054-.17.093-.348.093-.533 0-1.18-1.166-2.138-2.605-2.138-1.44 0-2.605.957-2.605 2.138 0 .185.038.362.093.533h5.025z" stroke="#000" stroke-width="1.375"/><path d="M32.073 40.535c.054-.17.092-.348.092-.533 0-1.18-1.167-2.138-2.606-2.138-1.44 0-2.606.957-2.606 2.138 0 .185.038.362.092.533h5.027z" fill="#FFF"/><path d="M32.073 40.535c.054-.17.092-.348.092-.533 0-1.18-1.167-2.138-2.606-2.138-1.44 0-2.606.957-2.606 2.138 0 .185.038.362.092.533h5.027z" stroke="#000" stroke-width="1.375"/><path d="M21.1 26.49c2.088 0 3.78 2.068 3.78 4.62 0 2.55-1.692 4.617-3.78 4.617s-3.78-2.066-3.78-4.618c0-2.552 1.692-4.62 3.78-4.62" fill="#FFF"/><path d="M21.1 26.49c2.088 0 3.78 2.068 3.78 4.62 0 2.55-1.692 4.617-3.78 4.617s-3.78-2.066-3.78-4.618c0-2.552 1.692-4.62 3.78-4.62z" stroke="#000" stroke-width="1.375"/><path d="M23.7 40.538h2.564c2.276-1.2 3.963-5.5 3.963-10.635 0-6.063-2.35-10.977-5.245-10.977-2.897 0-5.245 4.914-5.245 10.977 0 5.136 1.687 9.436 3.964 10.635" fill="#FFF"/><path d="M23.7 40.538h2.564c2.276-1.2 3.963-5.5 3.963-10.635 0-6.063-2.35-10.977-5.245-10.977-2.897 0-5.245 4.914-5.245 10.977 0 5.136 1.687 9.436 3.964 10.635z" stroke="#000" stroke-width="1.375"/><path d="M17.876 16.727c0 1.295-1.037 2.343-2.317 2.343-1.28 0-2.316-1.048-2.316-2.343s1.036-2.345 2.315-2.345c1.28 0 2.316 1.05 2.316 2.345" fill="#FFF"/><path d="M17.876 16.727c0 1.295-1.037 2.343-2.317 2.343-1.28 0-2.316-1.048-2.316-2.343s1.036-2.345 2.315-2.345c1.28 0 2.316 1.05 2.316 2.345z" stroke="#000" stroke-width="1.375"/><path d="M36.82 16.727c0 1.295-1.036 2.343-2.316 2.343-1.28 0-2.315-1.048-2.315-2.343s1.035-2.345 2.314-2.345c1.28 0 2.317 1.05 2.317 2.345" fill="#FFF"/><path d="M36.82 16.727c0 1.295-1.036 2.343-2.316 2.343-1.28 0-2.315-1.048-2.315-2.343s1.035-2.345 2.314-2.345c1.28 0 2.317 1.05 2.317 2.345z" stroke="#000" stroke-width="1.375"/><path d="M35.472 19.95c0 3.826-4.696 6.927-10.49 6.927-5.794 0-10.49-3.1-10.49-6.927 0-3.826 4.696-6.928 10.49-6.928 5.794 0 10.49 3.102 10.49 6.928" fill="#FFF"/><path d="M28.656 23.138c-.915.925-2.387 1.103-3.61 1.103M21.41 23.138c.913.925 2.387 1.103 3.61 1.103" stroke="#000" stroke-width="1.375"/><path d="M29.957 18.598c0 .685-.55 1.24-1.226 1.24-.675 0-1.225-.555-1.225-1.24 0-.686.55-1.242 1.226-1.242.678 0 1.227.556 1.227 1.242z" stroke="#FF4500" stroke-width="1.375"/><path d="M29.957 18.598c0 .685-.55 1.24-1.226 1.24-.675 0-1.225-.555-1.225-1.24 0-.686.55-1.242 1.226-1.242.678 0 1.227.556 1.227 1.242" fill="#FF4500"/><path d="M22.566 18.598c0 .685-.55 1.24-1.226 1.24-.678 0-1.226-.555-1.226-1.24 0-.686.548-1.242 1.226-1.242.677 0 1.226.556 1.226 1.242z" stroke="#FF4500" stroke-width="1.375"/><path d="M22.566 18.598c0 .685-.55 1.24-1.226 1.24-.678 0-1.226-.555-1.226-1.24 0-.686.548-1.242 1.226-1.242.677 0 1.226.556 1.226 1.242" fill="#FF4500"/><path d="M22.223 40.535h5.654M35.472 19.95c0 3.826-4.696 6.927-10.49 6.927-5.794 0-10.49-3.1-10.49-6.927 0-3.826 4.696-6.928 10.49-6.928 5.794 0 10.49 3.102 10.49 6.928z" stroke="#000" stroke-width="1.375"/><path d="M35.17 8.88c0 1.02-.818 1.847-1.826 1.847-1.01 0-1.826-.827-1.826-1.847s.817-1.848 1.826-1.848c1.008 0 1.825.827 1.825 1.848" fill="#FFF"/><path d="M35.17 8.88c0 1.02-.818 1.847-1.826 1.847-1.01 0-1.826-.827-1.826-1.847s.817-1.848 1.826-1.848c1.008 0 1.825.827 1.825 1.848zM31.453 8.5L26.82 7.4l-1.7 5.445" stroke="#000" stroke-width="1.375"/></g></svg>