<svg xmlns="http://www.w3.org/2000/svg" xmlns:xlink="http://www.w3.org/1999/xlink" width="50" height="50" version="1.1" viewBox="0 0 50 50"><g id="Page-1" fill="none" fill-rule="evenodd" stroke="none" stroke-width="1"><g id="Group"><path id="Shape-path" fill="#F7620E" d="M24.9186275,0 C11.3822266,0 0.408823529,11.1928711 0.408823529,25 C0.408823529,38.8071289 11.3822266,50 24.9186275,50 C38.4550283,50 49.4284314,38.8071289 49.4284314,25 C49.4284314,11.1928711 38.4550283,0 24.9186275,0 L24.9186275,0 Z"/><path id="Shape-path" fill="#FFF" d="M37.4499349,30.9165039 L26.2892616,30.9165039 L26.2892616,16.8515625 C26.7210072,16.6908685 27.1671107,16.5735797 27.6212163,16.5013672 C27.981204,16.444043 28.3498085,16.4136719 28.7256893,16.4136719 C32.4615196,16.4136719 35.5242877,19.3527344 35.8127566,23.0876953 C36.3277311,22.8522311 36.8857781,22.7307478 37.4501264,22.73125 C39.6662531,22.73125 41.4626494,24.5635742 41.4626494,26.8238281 C41.4629366,29.084082 39.6665403,30.9166016 37.4503179,30.9166016 L37.4499349,30.9165039 Z"/><path id="Shape-path" fill="#FFF" d="M25.5124157,30.9165039 L24.1803653,30.9165039 L24.1803653,18.0901367 C24.5900559,17.7420474 25.0367765,17.4419899 25.5121285,17.1956055 L25.5121285,30.9165039 L25.5124157,30.9165039 Z"/><path id="Shape-path" fill="#FFF" d="M23.4478477,30.9165039 L22.1160846,30.9165039 L22.1160846,19.6318359 C22.2995098,19.7091196 22.4788828,19.7960527 22.6534812,19.8922852 C22.8847099,19.5062114 23.1507473,19.1429838 23.448135,18.8073242 L23.4479435,30.9165039 L23.4478477,30.9165039 Z"/><path id="Shape-path" fill="#FFF" d="M21.3166437,30.9165039 L19.9848805,30.9165039 L19.9848805,19.1884766 C20.4436734,19.19375 20.8896369,19.2537109 21.3166437,19.3625 L21.3166437,30.9165039 L21.3166437,30.9165039 Z"/><path id="Shape-path" fill="#FFF" d="M19.1854396,30.9165039 L17.8536765,30.9165039 L17.8536765,19.5783203 C18.2824128,19.4095332 18.7295754,19.2942116 19.1854396,19.2348633 L19.1854396,30.9165039 L19.1854396,30.9165039 Z"/><path id="Shape-path" fill="#FFF" d="M17.0544271,30.9165039 L15.7226639,30.9165039 L15.7226639,21.0454102 C16.1120055,20.6209302 16.5607875,20.2575542 17.0544271,19.9670898 L17.0544271,30.9165039 L17.0544271,30.9165039 Z"/><path id="Shape-path" fill="#FFF" d="M14.9898591,30.9165039 L13.6578087,30.9165039 L13.6578087,23.3413086 C13.8910176,23.4366692 14.1145212,23.5550717 14.3251264,23.6948242 C14.4614614,23.1097905 14.6856896,22.5497852 14.9898591,22.034668 L14.9898591,30.9165039 L14.9898591,30.9165039 Z"/><path id="Shape-path" fill="#FFF" d="M12.9253868,30.9165039 L12.2259957,30.9165039 C12.0565334,30.9165039 11.8902305,30.9041992 11.7266085,30.8826172 L11.7266085,23.0932617 C11.8921136,23.0709564 12.058861,23.0596045 12.2258042,23.0592773 C12.4646791,23.0592773 12.6983839,23.0817383 12.9252911,23.1242188 L12.9252911,30.9165039 L12.9253868,30.9165039 Z"/><path id="Shape-path" fill="#FFF" d="M10.9607728,30.6985352 C10.603872,30.571786 10.2672586,30.3920182 9.96180683,30.1650391 L9.96180683,23.8105469 C10.2672925,23.5836973 10.603901,23.4040308 10.9607728,23.2773437 L10.9607728,30.6984375 L10.9607728,30.6985352 Z"/><path id="Shape-path" fill="#FFF" d="M9.30683977,29.5491211 C8.72626379,28.8611328 8.3745098,27.9666992 8.3745098,26.9879883 C8.3745098,26.009082 8.72616805,25.1145508 9.30683977,24.4268555 L9.30683977,29.5493164 L9.30683977,29.5491211 Z"/></g></g></svg>