<svg width="50" height="50" viewBox="0 0 50 50" xmlns="http://www.w3.org/2000/svg"><path d="M24.92 0C11.38 0 .41 11.193.41 25S11.38 50 24.92 50c13.535 0 24.508-11.193 24.508-25S38.455 0 24.918 0zM9.306 29.55c-.58-.69-.932-1.583-.932-2.562 0-.98.35-1.873.932-2.56v5.12zm1.654 1.15c-.356-.128-.693-.308-.998-.535V23.81c.305-.226.642-.406 1-.533V30.7zm1.965.217h-.7c-.168 0-.335-.013-.498-.034v-7.79c.165-.022.332-.033.5-.034.238 0 .47.022.698.064v7.793zm2.065 0h-1.332V23.34c.233.097.457.215.667.355.136-.585.36-1.145.665-1.66v8.882zm2.064 0h-1.33v-9.872c.388-.424.837-.787 1.33-1.078v10.95zm2.13 0h-1.33v-11.34c.428-.167.876-.283 1.33-.342v11.682zm2.133 0h-1.332v-11.73c.46.007.905.067 1.332.175v11.555zm2.13 0h-1.33V19.632c.183.077.362.164.536.26.232-.386.498-.75.795-1.085v12.11zm2.065 0H24.18V18.09c.41-.348.857-.648 1.332-.894v13.72zm11.938 0H26.29V16.852c.43-.16.877-.278 1.33-.35.36-.058.73-.088 1.106-.088 3.736 0 6.798 2.94 7.087 6.674.515-.236 1.073-.357 1.637-.357 2.216 0 4.013 1.834 4.013 4.094 0 2.26-1.796 4.093-4.013 4.093z" fill="#F7620E" fill-rule="evenodd"/></svg>