<svg width="50" height="50" viewBox="0 0 50 50" xmlns="http://www.w3.org/2000/svg"><g fill="none" fill-rule="evenodd"><rect fill="#25272B" width="50" height="50" rx="25"/><path d="M35.36 23.237c0 1.04-.77 1.88-1.72 1.88-.947 0-1.718-.84-1.718-1.88s.77-1.882 1.72-1.882c.947 0 1.72.842 1.72 1.882zm-1.728-3.5c-1.764 0-3.194 1.555-3.21 3.48l-2 3.133c-.517-.06-1.038.067-1.47.355l-9.057-3.987c-.237-1.173-1.198-2.06-2.342-2.06-1.32 0-2.395 1.183-2.395 2.628 0 1.443 1.076 2.62 2.395 2.62.447 0 .865-.134 1.223-.368l9.058 3.978c.234 1.18 1.195 2.066 2.342 2.066 1.24 0 2.263-1.04 2.382-2.365l3.075-2.46c1.772 0 3.21-1.57 3.21-3.507 0-1.938-1.44-3.513-3.21-3.513zm0 1.158c1.188 0 2.152 1.052 2.152 2.352 0 1.3-.964 2.352-2.15 2.352-1.188 0-2.152-1.054-2.152-2.353 0-1.298.964-2.355 2.152-2.355l-.002.003zm-18.08.458c.68 0 1.264.414 1.56 1.023l-.876-.38c-.707-.275-1.49.1-1.774.87-.282.767.043 1.635.727 1.97v.003l.743.324c-.122.03-.25.048-.382.048-.972 0-1.76-.858-1.76-1.926 0-1.07.786-1.932 1.764-1.932zm12.623 5.677c.976 0 1.763.86 1.763 1.928s-.787 1.926-1.763 1.926c-.68 0-1.266-.414-1.56-1.026l.868.38c.72.317 1.537-.06 1.826-.847.29-.785-.063-1.676-.78-1.99l-.735-.322c.122-.032.25-.05.38-.05v.002z" fill="#FFF"/></g></svg>