<svg width="50" height="50" viewBox="0 0 50 50" xmlns="http://www.w3.org/2000/svg"><g fill="none" fill-rule="evenodd"><rect fill="#FFF" width="50" height="50" rx="25"/><path d="M25 50C11.22 50 0 38.78 0 25S11.22 0 25 0s25 11.22 25 25-11.22 25-25 25zm0-47.478C12.603 2.522 2.522 12.602 2.522 25c0 12.397 10.08 22.478 22.478 22.478 12.397 0 22.478-10.08 22.478-22.478 0-12.397-10.08-22.478-22.478-22.478zM10.187 38.606c3.657 4 8.944 6.488 14.813 6.488 3 0 5.834-.657 8.39-1.828L19.438 29.35l-9.25 9.256zm29.766-.14c3.21-3.563 5.178-8.313 5.178-13.47 0-8.093-4.764-15.03-11.602-18.25l-12.684 12.66L39.937 38.47l.016-.004zm-20.578-17.56L8.805 31.438l-1.414-1.416 11.12-11.116L31.49 5.938C29.454 5.25 27.28 4.875 25 4.875 13.88 4.87 4.87 13.88 4.87 25c0 4.525 1.483 8.703 4.04 12.084l10.53-10.53.75.687 15.094 15.094c.313-.172.594-.343.875-.553L19.437 25.104 9.325 35.22 7.91 33.805l11.53-11.53.75.686 17.626 17.576c.28-.207.53-.447.78-.657L19.564 20.89l-.175.032-.013-.016zm6.35 2.14l-1.413-1.405 9.976-9.98 1.415 1.437-9.978 9.97v-.02zm9.462-13.702l-11.5 11.5-1.415-1.413 11.5-11.5 1.416 1.423v-.01z" fill="#EC222B"/></g></svg>