<?xml version="1.0" encoding="UTF-8" standalone="no"?>
<svg width="50px" height="50px" viewBox="0 0 50 50" version="1.1" xmlns="http://www.w3.org/2000/svg" xmlns:xlink="http://www.w3.org/1999/xlink">
    <!-- Generator: Sketch 40.2 (33826) - http://www.bohemiancoding.com/sketch -->
    <title>link-tumblr</title>
    <desc>Created with Sketch.</desc>
    <defs></defs>
    <g id="Page-1" stroke="none" stroke-width="1" fill="none" fill-rule="evenodd">
        <g id="link-tumblr">
            <g id="Group">
                <circle id="Oval" fill="#314358" cx="25" cy="25" r="25"></circle>
                <path d="M30.4776316,32.2960526 C30.0526316,32.5065789 29.2381579,32.6881579 28.6315789,32.7039474 C26.7986842,32.7565789 26.4421053,31.3723684 26.4276316,30.3697368 L26.4276316,23 L31.025,23 L31.025,19.4131579 L26.4421053,19.4131579 L26.4421053,13.3802632 L23.0921053,13.3802632 C23.0355263,13.3802632 22.9394737,13.4302632 22.925,13.5565789 C22.7276316,15.4052632 21.8947368,18.6460526 18.4210526,19.9407895 L18.4210526,23 L20.7368421,23 L20.7368421,30.7368421 C20.7368421,33.3881579 22.6276316,37.1526316 27.6144737,37.0657895 C29.2986842,37.0342105 31.1671053,36.3052632 31.5789474,35.6763158 L30.4776316,32.3013158" id="Shape" fill="#FFFFFF"></path>
            </g>
        </g>
    </g>
</svg>