<?xml version="1.0" encoding="UTF-8" standalone="no"?>
<svg width="51px" height="50px" viewBox="0 0 51 50" version="1.1" xmlns="http://www.w3.org/2000/svg" xmlns:xlink="http://www.w3.org/1999/xlink">
    <defs></defs>
    <g stroke="none" stroke-width="1" fill="none" fill-rule="evenodd">
        <g>
            <g>
                <path d="M0,25 C0,11.1934211 11.2105263,0 25.0355263,0 C38.8644737,0 50.0723684,11.1934211 50.0723684,25 C50.0723684,38.8065789 38.8618421,50 25.0355263,50 C11.2092105,50 0,38.8065789 0,25 L0,25 Z" id="Shape" fill="#4099FF"></path>
                <path d="M25.7894737,21.9684211 L25.8368421,22.7407895 L25.0552632,22.6460526 C22.2131579,22.2855263 19.7315789,21.0539474 17.6236842,18.9907895 L16.5934211,17.9644737 L16.3302632,18.7223684 C15.7671053,20.4092105 16.1263158,22.1907895 17.2973684,23.3881579 C17.9210526,24.0513158 17.7802632,24.1447368 16.7052632,23.7513158 C16.3289474,23.625 16.0013158,23.5302632 15.9684211,23.5776316 C15.8605263,23.6881579 16.2355263,25.1223684 16.5315789,25.6894737 C16.9394737,26.4789474 17.7657895,27.2513158 18.6710526,27.7078947 L19.4342105,28.0710526 L18.5289474,28.0868421 C17.6539474,28.0868421 17.6236842,28.1026316 17.7171053,28.4328947 C18.0289474,29.4592105 19.2631579,30.5447368 20.6381579,31.0184211 L21.6052632,31.3473684 L20.7631579,31.8539474 C19.4879155,32.5864767 18.0492504,32.9873123 16.5789474,33.0197368 C15.875,33.0355263 15.2973684,33.0986842 15.2973684,33.1460526 C15.2973684,33.3039474 17.2013158,34.1855263 18.3105263,34.5342105 C21.6368421,35.5578947 25.5868421,35.1171053 28.5539474,33.3671053 C30.6631579,32.1223684 32.7710526,29.6473684 33.7539474,27.2513158 C34.2855263,25.975 34.8157895,23.6407895 34.8157895,22.5210526 C34.8157895,21.7973684 34.8618421,21.7013158 35.7368421,20.8342105 C36.25,20.3302632 36.7368421,19.7789474 36.8289474,19.6210526 C36.9868421,19.3223684 36.9697368,19.3223684 36.1736842,19.5907895 C34.8447368,20.0644737 34.6605263,20.0013158 35.3144737,19.2907895 C35.7973684,18.7855263 36.375,17.8697368 36.375,17.6026316 C36.375,17.5565789 36.1407895,17.6342105 35.875,17.7763158 C35.5947368,17.9342105 34.9697368,18.1710526 34.5013158,18.3118421 L33.6592105,18.5789474 L32.8934211,18.0592105 C32.4723684,17.775 31.8776316,17.4605263 31.5644737,17.3657895 C30.7697368,17.1447368 29.5513158,17.1763158 28.8328947,17.4289474 C26.8815789,18.1394737 25.6486842,19.9684211 25.7881579,21.9684211 L25.7894737,21.9684211 Z" id="Shape" fill="#FFFFFF"></path>
            </g>
        </g>
    </g>
</svg>
