<svg width="50" height="50" viewBox="400 1 50 50" xmlns="http://www.w3.org/2000/svg"><g fill="none" fill-rule="evenodd"><path d="M400 26c0-13.807 11.193-25 25-25s25 11.193 25 25-11.193 25-25 25-25-11.193-25-25z" fill="#55ACEE"/><path d="M424.25 21.32l.054.865-.875-.106c-3.183-.407-5.964-1.784-8.324-4.096l-1.155-1.148-.296.848c-.63 1.89-.227 3.883 1.084 5.225.7.74.542.847-.664.405-.42-.14-.787-.247-.822-.194-.122.125.297 1.73.63 2.367.454.882 1.38 1.747 2.395 2.26l.857.405-1.014.018c-.98 0-1.014.018-.91.39.35 1.146 1.732 2.364 3.27 2.894l1.085.37-.945.566c-1.4.812-3.042 1.27-4.686 1.306-.787.018-1.434.088-1.434.14 0 .178 2.133 1.166 3.375 1.555 3.725 1.148 8.15.654 11.47-1.306 2.362-1.394 4.723-4.166 5.825-6.85.594-1.43 1.19-4.042 1.19-5.296 0-.812.05-.918 1.03-1.89.578-.564 1.12-1.182 1.225-1.358.174-.336.157-.336-.735-.035-1.486.53-1.696.46-.962-.336.542-.566 1.19-1.59 1.19-1.89 0-.053-.263.035-.56.194-.315.177-1.014.442-1.54.6l-.943.3-.857-.582c-.472-.318-1.137-.67-1.487-.777-.89-.247-2.254-.212-3.06.07-2.185.795-3.566 2.843-3.41 5.085z" fill="#FFF"/></g></svg>