<svg xmlns="http://www.w3.org/2000/svg" xmlns:xlink="http://www.w3.org/1999/xlink" width="50" height="50" version="1.1" viewBox="0 0 50 50"><g fill="none" fill-rule="evenodd" stroke="none" stroke-width="1"><g><g><path id="Shape" fill="#FFF" d="M25,42.1052632 C14.8263158,42.1052632 6.57894737,33.8578947 6.57894737,23.6842105 C6.57894737,13.5105263 14.8263158,5.26315789 25,5.26315789 C35.1736842,5.26315789 43.4210526,13.5105263 43.4210526,23.6842105 C43.4210526,33.8578947 35.1736842,42.1052632 25,42.1052632 L25,42.1052632 Z"/><path id="Shape" fill="#5C4EA3" d="M25,50 C11.1934211,50 0,38.8065789 0,25 C0,11.1934211 11.1934211,0 25,0 C38.8065789,0 50,11.1934211 50,25 C50,38.8065789 38.8065789,50 25,50 L25,50 Z M36.8421053,14.4736842 L17.7631579,14.4736842 L15.1315789,17.1052632 L15.1315789,32.8947368 L21.0526316,32.8947368 L21.0526316,36.1842105 L23.0263158,36.1842105 L26.3157895,32.8947368 L30.9210526,32.8947368 L36.8421053,26.9736842 L36.8421053,14.4736842 L36.8421053,14.4736842 Z M25.6578947,30.2631579 L23.6842105,32.2368421 L22.3684211,32.2368421 L22.3684211,30.2631579 L19.0789474,30.2631579 L19.0789474,16.4473684 L34.8684211,16.4473684 L34.8684211,25.6578947 L30.2631579,30.2631579 L25.6578947,30.2631579 L25.6578947,30.2631579 Z M23.0263158,25 L25.6578947,25 L25.6578947,19.7368421 L23.0263158,19.7368421 L23.0263158,25 L23.0263158,25 Z M28.2894737,25 L30.9210526,25 L30.9210526,19.7368421 L28.2894737,19.7368421 L28.2894737,25 L28.2894737,25 Z"/></g></g></g></svg>