<svg width="50" height="50" viewBox="0 0 50 50" xmlns="http://www.w3.org/2000/svg"><g fill="none" fill-rule="evenodd"><path d="M25 42.105c-10.174 0-18.42-8.247-18.42-18.42C6.58 13.51 14.825 5.262 25 5.262c10.174 0 18.42 8.248 18.42 18.42 0 10.175-8.246 18.422-18.42 18.422z" fill="#FFF"/><path d="M25 50C11.193 50 0 38.807 0 25S11.193 0 25 0s25 11.193 25 25-11.193 25-25 25zm11.842-35.526h-19.08l-2.63 2.63v15.79h5.92v3.29h1.974l3.29-3.29h4.605l5.922-5.92v-12.5zm-11.184 15.79l-1.974 1.973h-1.316v-1.974h-3.29V16.447h15.79v9.21l-4.605 4.606h-4.605zM23.026 25h2.632v-5.263h-2.632V25zm5.263 0h2.63v-5.263h-2.63V25z" fill="#5C4EA3"/></g></svg>