<svg xmlns="http://www.w3.org/2000/svg" xmlns:xlink="http://www.w3.org/1999/xlink" width="50" height="50" version="1.1" viewBox="400 1 50 50"><desc>Created with Sketch.</desc><g id="Twitter" fill="none" fill-rule="evenodd" stroke="none" stroke-width="1" transform="translate(400.000000, 1.000000)"><path id="back" fill="#55ACEE" d="M0,25 C0,11.1928806 11.1928806,0 25,0 C38.8071194,0 50,11.1928806 50,25 C50,38.8071194 38.8071194,50 25,50 C11.1928806,50 0,38.8071194 0,25 Z"/><path id="Shape" fill="#FFF" d="M24.2512527,20.3203132 L24.3037137,21.1853696 L23.4293645,21.0794443 C20.2467336,20.6733974 17.4663032,19.2963688 15.1055605,16.983667 L13.9514196,15.8361432 L13.6541409,16.6835454 C13.0246095,18.5725461 13.4268101,20.5674721 14.7383339,21.9091923 C15.4378132,22.6506692 15.2804303,22.7565944 14.0738285,22.3152391 C13.6541409,22.1740054 13.2869142,22.0680802 13.2519403,22.1210428 C13.1295314,22.2446223 13.549219,23.8511556 13.8814717,24.4867072 C14.3361332,25.3694179 15.2629434,26.2344743 16.2771884,26.7464464 L17.1340506,27.1524933 L16.1198055,27.1701475 C15.1405345,27.1701475 15.1055605,27.1878017 15.2104824,27.5585402 C15.5602221,28.706064 16.9416937,29.9242046 18.4805483,30.453831 L19.5647412,30.8245695 L18.6204441,31.3895042 C17.2214855,32.201598 15.577709,32.6606075 13.9339326,32.695916 C13.1470184,32.7135702 12.5,32.784187 12.5,32.8371496 C12.5,33.0136918 14.633412,34.0023277 15.8749878,34.3907203 C19.5997152,35.5382441 24.023922,35.0439262 27.3464488,33.0843086 C29.7071915,31.6896259 32.0679342,28.9179145 33.1696142,26.2344743 C33.7641716,24.8044831 34.358729,22.1916597 34.358729,20.9382106 C34.358729,20.1261168 34.41119,20.0201915 35.3904611,19.0492099 C35.9675315,18.4842751 36.509628,17.8663776 36.6145499,17.6898355 C36.7894197,17.3544055 36.7719327,17.3544055 35.8800966,17.6545271 C34.393703,18.1841535 34.1838592,18.1135366 34.9183125,17.3190971 C35.460409,16.7541623 36.1074274,15.730218 36.1074274,15.4300964 C36.1074274,15.3771337 35.8451226,15.4654048 35.5478439,15.6242927 C35.2330782,15.8008348 34.5335989,16.065648 34.0089894,16.2245359 L33.0646923,16.5246575 L32.2078301,15.9420685 C31.7356816,15.6242927 31.0711762,15.2712084 30.7214365,15.1652832 C29.8296004,14.9181242 28.4656157,14.9534326 27.6612145,15.2359 C25.4753416,16.0303396 24.0938699,18.0782282 24.2512527,20.3203132 Z"/></g></svg>