<?xml version="1.0" encoding="UTF-8" standalone="no"?>
<svg width="50px" height="50px" viewBox="0 0 50 50" version="1.1" xmlns="http://www.w3.org/2000/svg" xmlns:xlink="http://www.w3.org/1999/xlink">
    <defs></defs>
    <g stroke="none" stroke-width="1" fill="none" fill-rule="evenodd">
        <g>
            <g>
                <rect id="Rectangle-path" fill="#66CEFF" x="0" y="0" width="50" height="50" rx="25"></rect>
                <path d="M25.7236842,21.4789474 C26.3394737,21.225 26.9394737,21.0973684 27.5223684,21.0973684 C28.7539474,21.0973684 29.2986842,21.7881579 29.1539474,23.1736842 C29.0815789,24.0131579 28.5381579,25.2342105 27.5223684,26.8368421 C26.5039474,28.4421053 25.7434211,29.2447368 25.2381579,29.2447368 C24.5828947,29.2447368 23.9855263,28.0039474 23.4394737,25.5263158 C23.2552632,24.7973684 22.9302632,22.9394737 22.4618421,19.9473684 C22.0223684,17.1789474 20.8618421,15.8842105 18.975,16.0657895 C18.1776316,16.1394737 16.9815789,16.8710526 15.3855263,18.2539474 C14.2223684,19.3118421 13.0434211,20.3684211 11.8434211,21.425 L12.9855263,22.8986842 C14.0776316,22.1355263 14.7131579,21.7539474 14.8907895,21.7539474 C15.7263158,21.7539474 16.5092105,23.0644737 17.2328947,25.6881579 C17.8855263,28.0960526 18.5421053,30.5 19.1960526,32.9052632 C20.1697368,35.5289474 21.3723684,36.8421053 22.7855263,36.8421053 C25.0710526,36.8421053 27.8697368,34.6921053 31.1697368,30.3907895 C34.3631579,26.2723684 36.0118421,23.0289474 36.1223684,20.6578947 C36.2697368,17.4894737 35.0894737,15.8657895 32.5828947,15.7934211 C29.2065789,15.6842105 26.9210526,17.5776316 25.725,21.4776316 L25.7236842,21.4789474 Z" id="Shape" fill="#FFFFFF"></path>
            </g>
        </g>
    </g>
</svg>
