<svg xmlns="http://www.w3.org/2000/svg" xmlns:xlink="http://www.w3.org/1999/xlink" width="50" height="50" version="1.1" viewBox="0 321 50 50"><desc>Created with Sketch.</desc><g id="Vimeo" fill="none" fill-rule="evenodd" stroke="none" stroke-width="1" transform="translate(0.000000, 321.000000)"><path id="back" fill="#31AFD8" d="M0,25 C0,11.1928806 11.1928806,0 25,0 C38.8071194,0 50,11.1928806 50,25 C50,38.8071194 38.8071194,50 25,50 C11.1928806,50 0,38.8071194 0,25 Z"/><path id="Fill-4" fill="#FFF" d="M39.1520803,20.1687569 C39.0185443,23.0889064 36.9791791,27.0866848 33.0336389,32.1620921 C28.9549086,37.4616739 25.5037285,40.1126756 22.6818284,40.1126756 C20.9323679,40.1126756 19.452747,38.4995187 18.2436578,35.2707834 C17.4365604,32.3111958 16.630155,29.3519541 15.8227117,26.3923666 C14.9246299,23.1653609 13.9622018,21.5501284 12.9319678,21.5501284 C12.7074474,21.5501284 11.9221448,22.0223478 10.5774438,22.9626353 L9.16666667,21.145023 C10.6473253,19.8446034 12.107573,18.5438378 13.5442963,17.2413425 C15.5189691,15.5358175 17.0023953,14.6380817 17.9904236,14.5477891 C20.3241908,14.3232687 21.76126,15.9187822 22.3005933,19.3343296 C22.8835162,23.0200627 23.2872379,25.3119701 23.513488,26.209014 C24.1873953,29.2668509 24.9280706,30.7942125 25.7365517,30.7942125 C26.363756,30.7942125 27.3075029,29.8027248 28.5653708,27.8183654 C29.8208172,25.8353898 30.4940325,24.3263634 30.584671,23.2892104 C30.7642182,21.5778043 30.0910028,20.7198525 28.5653708,20.7198525 C27.8471822,20.7198525 27.1065069,20.8852158 26.3447288,21.211791 C27.8195063,16.3833908 30.6362173,14.0382073 34.7938238,14.1720893 C37.876223,14.2623818 39.3302437,16.261271 39.1520803,20.1687569"/></g></svg>