<svg width="50" height="50" viewBox="0 321 50 50" xmlns="http://www.w3.org/2000/svg"><g fill="none" fill-rule="evenodd"><path d="M0 346c0-13.807 11.193-25 25-25s25 11.193 25 25-11.193 25-25 25-25-11.193-25-25z" fill="#31AFD8"/><path d="M39.152 341.17c-.133 2.92-2.173 6.917-6.118 11.992-4.08 5.3-7.53 7.95-10.352 7.95-1.75 0-3.23-1.612-4.438-4.84l-2.42-8.88c-.9-3.227-1.862-4.842-2.892-4.842-.225 0-1.01.472-2.355 1.413l-1.41-1.818c1.48-1.3 2.94-2.6 4.377-3.904 1.975-1.704 3.458-2.602 4.446-2.692 2.334-.225 3.77 1.37 4.31 4.786.584 3.686.987 5.978 1.213 6.875.674 3.057 1.415 4.584 2.224 4.584.627 0 1.57-.99 2.828-2.976 1.256-1.983 1.93-3.492 2.02-4.53.18-1.71-.494-2.568-2.02-2.568-.718 0-1.458.165-2.22.492 1.475-4.83 4.29-7.174 8.45-7.04 3.08.09 4.535 2.09 4.357 5.997" fill="#FFF"/></g></svg>