<svg width="50" height="50" viewBox="0 0 50 50" xmlns="http://www.w3.org/2000/svg"><g fill="none" fill-rule="evenodd"><path d="M.92 25c0-13.807 10.924-25 24.4-25 13.477 0 24.402 11.193 24.402 25S38.8 50 25.322 50C11.845 50 .92 38.807.92 25z" fill="#FF005C"/><path d="M25.212 29.862l-3.876 3.974c-.92.947-2.526.947-3.446 0l-.862-.882c-.457-.468-.714-1.104-.713-1.767 0-.67.253-1.296.713-1.77l5.598-5.745c.948-.973 2.496-.973 3.445 0l.86.886c.475.49 1.247.49 1.723 0 .476-.488.477-1.28 0-1.77l-.858-.883c-1.904-1.95-4.988-1.95-6.892 0l-5.598 5.745c-.916.935-1.43 2.208-1.426 3.534-.004 1.327.51 2.6 1.425 3.537l.862.883c.91.94 2.152 1.47 3.445 1.465 1.302 0 2.525-.52 3.446-1.464l3.875-3.98c.336-.308.477-.783.368-1.232-.108-.45-.45-.8-.888-.91-.438-.11-.9.035-1.2.38zm10.765-14.586l-.862-.884c-1.903-1.95-4.986-1.95-6.89 0L24.35 18.37c-.308.315-.43.776-.316 1.207.112.432.44.77.86.885.42.116.87-.007 1.178-.323l3.875-3.977c.95-.974 2.495-.974 3.445 0l.86.882c.948.976.948 2.563 0 3.54l-5.598 5.743c-.46.473-1.07.733-1.72.733-.65 0-1.262-.26-1.72-.732-.477-.488-1.247-.488-1.722 0-.476.486-.477 1.276-.004 1.765.91.944 2.153 1.472 3.447 1.468 1.3 0 2.525-.52 3.444-1.465l5.598-5.744c1.9-1.953 1.9-5.117 0-7.07v-.004z" fill="#FFF"/></g></svg>