<svg xmlns="http://www.w3.org/2000/svg" xmlns:xlink="http://www.w3.org/1999/xlink" width="50" height="50" version="1.1" viewBox="100 161 50 50"><desc>Created with Sketch.</desc><g id="Youtube" fill="none" fill-rule="evenodd" stroke="none" stroke-width="1" transform="translate(100.000000, 161.000000)"><path id="back" fill="#CE1312" d="M0,25 C0,11.1928806 11.0253002,0 24.6256989,0 C38.2260975,0 49.2513977,11.1928806 49.2513977,25 C49.2513977,38.8071194 38.2260975,50 24.6256989,50 C11.0253002,50 0,38.8071194 0,25 Z"/><path fill="#FFF" d="M37.442623,19.9677878 C37.442623,19.9677878 37.1860656,18.0900387 36.4,17.2631478 C35.402459,16.1773744 34.2844262,16.1722649 33.7721311,16.1092475 C30.1016393,15.8333333 24.5959016,15.8333333 24.5959016,15.8333333 L24.5844262,15.8333333 C24.5844262,15.8333333 19.0786885,15.8333333 15.4081967,16.1092475 C14.895082,16.1722649 13.7778689,16.1773744 12.7795082,17.2631478 C11.9934426,18.0900387 11.7377049,19.9677878 11.7377049,19.9677878 C11.7377049,19.9677878 11.4754098,22.1733979 11.4754098,24.3781564 L11.4754098,26.4458095 C11.4754098,28.6514196 11.7377049,30.8561781 11.7377049,30.8561781 C11.7377049,30.8561781 11.9934426,32.7339272 12.7795082,33.5608181 C13.7778689,34.6465914 15.0885246,34.612528 15.6721311,34.725789 C17.7704918,34.9352794 24.5901639,35 24.5901639,35 C24.5901639,35 30.1016393,34.9914841 33.7721311,34.71557 C34.2844262,34.651701 35.402459,34.6465914 36.4,33.5608181 C37.1860656,32.7339272 37.442623,30.8561781 37.442623,30.8561781 C37.442623,30.8561781 37.704918,28.6514196 37.704918,26.4458095 L37.704918,24.3781564 C37.704918,22.1733979 37.442623,19.9677878 37.442623,19.9677878 L37.442623,19.9677878 Z"/><polygon id="Path" fill="#CE1312" points="21.882 28.951 21.881 21.295 28.968 25.136"/></g></svg>