<?xml version="1.0" encoding="UTF-8" standalone="no"?>
<svg width="50px" height="50px" viewBox="0 0 50 50" version="1.1" xmlns="http://www.w3.org/2000/svg" xmlns:xlink="http://www.w3.org/1999/xlink">
    <!-- Generator: Sketch 40.2 (33826) - http://www.bohemiancoding.com/sketch -->
    <title>youtube</title>
    <desc>Created with Sketch.</desc>
    <defs></defs>
    <g id="Page-1" stroke="none" stroke-width="1" fill="none" fill-rule="evenodd">
        <g id="youtube">
            <g id="Group">
                <path d="M25,43.4210526 C14.8263158,43.4210526 6.57894737,35.1736842 6.57894737,25 C6.57894737,14.8263158 14.8263158,6.57894737 25,6.57894737 C35.1736842,6.57894737 43.4210526,14.8263158 43.4210526,25 C43.4210526,35.1736842 35.1736842,43.4210526 25,43.4210526 L25,43.4210526 Z" id="Shape" fill="#FFFFFF"></path>
                <path d="M25,50 C11.1934211,50 0,38.8065789 0,25 C0,11.1934211 11.1934211,0 25,0 C38.8065789,0 50,11.1934211 50,25 C50,38.8065789 38.8065789,50 25,50 L25,50 Z M34.8684211,20.3947368 C34.8684211,18.9421053 33.0328947,17.7631579 31.5789474,17.7631579 L18.4210526,17.7631579 C16.9684211,17.7631579 15.1315789,18.9421053 15.1315789,20.3947368 L15.1315789,29.6052632 C15.1315789,31.0592105 16.9684211,32.2368421 18.4210526,32.2368421 L31.5789474,32.2368421 C33.0328947,32.2368421 34.8684211,31.0592105 34.8684211,29.6052632 L34.8684211,20.3947368 L34.8684211,20.3947368 Z M23.0171053,21.8065789 L27.8789474,25.1526316 L23.0184211,28.4381579 L23.0184211,21.8065789 L23.0171053,21.8065789 Z" id="Shape" fill="#E12A27"></path>
            </g>
        </g>
    </g>
</svg>