<svg width="50" height="50" viewBox="100 161 50 50" xmlns="http://www.w3.org/2000/svg"><g fill="none" fill-rule="evenodd"><path d="M100 186c0-13.807 11.025-25 24.626-25 13.6 0 24.625 11.193 24.625 25s-11.024 25-24.624 25S100 199.807 100 186z" fill="#CE1312"/><path d="M137.443 180.968s-.257-1.878-1.043-2.705c-.998-1.086-2.116-1.09-2.628-1.154-3.67-.277-9.176-.277-9.176-.277h-.012s-5.505 0-9.176.276c-.513.062-1.63.067-2.628 1.153-.787.827-1.042 2.705-1.042 2.705s-.263 2.205-.263 4.41v2.068c0 2.205.263 4.41.263 4.41s.255 1.878 1.042 2.705c.998 1.087 2.31 1.053 2.892 1.166 2.098.21 8.918.274 8.918.274s5.512-.01 9.182-.284c.512-.064 1.63-.07 2.628-1.155.786-.826 1.043-2.704 1.043-2.704s.262-2.205.262-4.41v-2.068c0-2.205-.262-4.41-.262-4.41z" fill="#FFF"/><path fill="#CE1312" d="M121.882 189.95v-7.655l7.086 3.84"/></g></svg>