<svg width="48" height="50" viewBox="0 0 48 50" xmlns="http://www.w3.org/2000/svg"><g fill="#957DF9" fill-rule="evenodd"><path d="M37.77.145c.36-.102.733-.052 1.1-.062 1.137-.052 2.28.206 3.312.674.422.152.763.456 1.14.688.632.538 1.18 1.177 1.584 1.904.785 1.456 1.003 3.135 1.14 4.755.135.56-.044 1.148.127 1.703.018.91-.002 1.822.008 2.734.214 1.037-.05 2.118.164 3.156.007.72-.004 1.44.003 2.16.21 1.008-.048 2.062.163 3.07.007.722-.004 1.442.002 2.162.168.873.044 1.772.084 2.657.21 1.01-.048 2.064.163 3.073.007.72-.005 1.44.002 2.16.213 1.037-.05 2.12.163 3.156.014.77-.016 1.54.013 2.31.12.317.212.652.138.993-.163.553.028 1.144-.127 1.7-.117 1.1-.44 2.22-1.15 3.09-.28.44-.757.684-1.15 1.01-1.17.763-2.49 1.244-3.82 1.66-1.966.558-3.97.98-5.98 1.328-.802.145-1.61.235-2.406.394-.015-.46.348-.802.537-1.193.75-1.403 1.47-2.83 1.98-4.34 1.01-2.842 1.65-5.8 2.11-8.776.175-1.15.29-2.307.364-3.466.097-.674.01-1.357.11-2.03.054-.8.052-1.61-.042-2.406-.052-1.014.037-2.032-.053-3.044-.104-1.83-.28-3.657-.413-5.486-.17-1.856-.288-3.72-.58-5.564-.18-1.115-.676-2.214-1.563-2.942-.814-.765-1.775-1.344-2.713-1.94-.875-.517-1.754-1.03-2.653-1.505-.504-.288-1.03-.532-1.52-.848.014-.045.04-.136.05-.18.377-.18.78-.282 1.168-.423.5-.214 1.024-.36 1.537-.54C33.048 1.17 35.364.414 37.77.146zM9.102 8.354c1.254-.408 2.517-.79 3.79-1.137.035.444.042.892.005 1.336-.102.883-.032 1.773-.056 2.66-.03.722.128 1.436.09 2.16.017 1.244-.065 2.494.077 3.734-.023.935.08 1.864.128 2.796.318 4.78.956 9.54 1.972 14.222.43 2.11 1.033 4.18 1.66 6.238.98 3.05 2.194 6.014 3.406 8.975l.02.053c-.93.248-1.877.43-2.832.528-.61 0-1.22-.004-1.832 0-.95-.068-1.9-.25-2.788-.615-.8-.36-1.473-.954-2.027-1.626-.636-.813-1.108-1.73-1.613-2.625-.245-.33-.308-.748-.452-1.126-.25-.812-.578-1.596-.83-2.408-1.11-3.378-2.355-6.705-3.582-10.04-.97-2.68-1.872-5.388-2.56-8.156C1.1 21.054.553 18.776.064 16.485c.046-.54-.037-1.095.09-1.628.143-1.124.734-2.164 1.572-2.917.618-.5 1.248-.997 1.955-1.367 1.056-.646 2.224-1.072 3.368-1.53.694-.206 1.348-.524 2.054-.69zM24.725 18.395c.124-.457.198-.93.384-1.368.56 1.76 1.066 3.54 1.41 5.355.496 2.704.91 5.43 1.05 8.177.112.707.035 1.428.064 2.14-1.617-.415-3.234-.834-4.852-1.25 0-.274.008-.548.052-.818.194-1.6.325-3.205.528-4.802.238-2.512.675-5.008 1.363-7.435zM25.76 43.9c.734-.07 1.482.07 2.208-.093-.035.737.05 1.48-.068 2.213-.054.517-.008 1.037-.02 1.556-1.186.258-2.374.51-3.56.773-.146.028-.294.064-.444.05-.09-.08-.082-.203-.093-.31-.112-1.378-.332-2.747-.426-4.126.8-.02 1.608.063 2.403-.065z"/></g></svg>