<svg width="44" height="50" viewBox="0 0 44 50" xmlns="http://www.w3.org/2000/svg"><path d="M21.607.106c.13-.12.263.03.356.12.262.125.552.206.74.44.295.16.596.325.914.443.386.42 1.02.474 1.4.898.34.075.62.304.894.514.23.09.446.213.66.333.19.036.31.196.462.3.374.187.776.343 1.085.633.077.087.22.046.297.134.203.2.532.2.73.407.275.293.728.316.993.63.303.13.582.31.888.43.085.074.16.158.238.24.275.077.516.24.772.362.216.09.353.304.584.366.33.187.694.307.974.572.282.13.585.24.774.504.426.155.845.362 1.192.66.303.112.57.302.87.422.345.31.8.455 1.196.685.204.287.59.293.842.52.395.344.958.426 1.328.803.33.114.614.34.93.483.234.314.684.297.938.584.374.297.9.373 1.22.743.188.05.446.132.475.35-.003 8.233.002 16.465-.004 24.696-.09.116-.21.23-.362.25-.193.03-.266.262-.455.31-.36.19-.762.32-1.045.624-.296.113-.6.22-.813.464-.28.1-.51.303-.784.41-.187.045-.28.247-.46.306-.378.187-.778.344-1.092.633-.302.124-.587.277-.87.43-.21.232-.51.32-.78.463-.098.087-.2.17-.31.24-.29.1-.535.296-.826.396-.347.298-.766.505-1.192.66-.253.37-.744.4-1.04.717-.304.136-.593.316-.903.45-.337.288-.75.48-1.162.637-.33.417-.93.46-1.306.827-.238.176-.56.223-.774.438-.193.234-.536.232-.755.43-.077.1-.23.06-.312.148-.395.396-.99.486-1.39.877-.278.1-.543.244-.766.442-.212.156-.494.2-.68.392-.198.018-.347.12-.473.267-.373.23-.83.35-1.145.667-.397.218-.875.337-1.186.69-.237.115-.507.182-.69.384-.14.044-.217-.08-.31-.155-.263-.126-.554-.205-.74-.442-.296-.158-.597-.326-.917-.44-.383-.425-1.02-.475-1.398-.9-.342-.074-.622-.304-.894-.515-.23-.09-.446-.213-.658-.332-.19-.036-.31-.197-.464-.3-.373-.188-.776-.343-1.084-.634-.077-.088-.222-.045-.297-.134-.203-.202-.533-.2-.73-.407-.275-.294-.73-.315-.993-.63-.304-.13-.583-.31-.888-.43-.086-.075-.16-.158-.238-.24-.276-.077-.517-.24-.773-.362-.216-.09-.353-.304-.583-.365-.33-.187-.694-.307-.973-.57-.282-.134-.588-.24-.776-.507-.425-.155-.845-.362-1.19-.66-.317-.128-.61-.306-.913-.453-.284-.297-.73-.336-1.005-.647-.294-.167-.607-.307-.91-.46-.406-.392-1.012-.472-1.41-.87-.33-.113-.612-.338-.927-.48-.236-.317-.686-.298-.94-.586-.378-.298-.904-.376-1.227-.748-.192-.027-.34-.136-.474-.27.014-5.35.002-10.7.006-16.05-.004-2.91.008-5.822-.005-8.733.133-.135.282-.244.473-.272.325-.37.85-.45 1.227-.748.255-.285.703-.27.94-.584.316-.143.596-.368.928-.483.334-.335.817-.442 1.202-.702.384-.355.947-.42 1.316-.797.173-.12.38-.18.565-.28.146-.125.293-.262.484-.314.22-.117.433-.25.67-.336.345-.298.766-.504 1.19-.66.356-.456 1.002-.5 1.392-.905.28-.135.575-.24.8-.46.3-.154.59-.34.914-.44.116-.124.225-.267.4-.304.237-.133.48-.25.726-.367.265-.314.717-.337.994-.63.21-.218.564-.214.77-.444.103-.038.225-.04.3-.134.39-.37.962-.462 1.347-.842.288-.09.527-.29.814-.388.273-.21.553-.44.895-.514.313-.355.805-.447 1.183-.71.372-.37.972-.406 1.322-.81.21-.152.504-.178.68-.382zm-.052 16.974c-.11.32-.283.615-.498.876-.308.516-.63 1.023-.986 1.506-.45.855-1.055 1.616-1.546 2.447-.24.496-.634.897-.884 1.39-.295.394-.567.803-.786 1.246-.785 1.115-1.47 2.3-2.224 3.434-.3.35-.51.76-.725 1.164-.315.418-.58.868-.876 1.3-.14.3-.412.51-.532.824-.24.525-.687.944-.856 1.497.646.115 1.162-.37 1.757-.515.72-.242 1.422-.542 2.138-.8.653-.316 1.397-.39 2.023-.764.3-.128.62-.19.924-.297.52-.314 1.15-.345 1.668-.66.193-.103.41-.14.614-.22.314-.068.585-.25.888-.35.19-.03.35.102.52.162.352.187.757.237 1.114.41.517.313 1.148.345 1.668.657.352.127.738.18 1.066.372.433.24.925.325 1.385.493.972.366 1.93.77 2.918 1.087.47.195.937.518 1.473.423-.032-.212-.17-.384-.277-.564-.28-.386-.514-.805-.74-1.226-.315-.372-.535-.812-.818-1.21-.198-.332-.465-.62-.62-.977-.187-.417-.525-.738-.74-1.135-.69-1.026-1.302-2.1-2.018-3.107-.212-.424-.466-.823-.755-1.2-.214-.38-.466-.736-.723-1.087-.523-.987-1.243-1.853-1.768-2.84-.45-.57-.77-1.226-1.208-1.803-.097-.172-.18-.35-.248-.535h-.33z" fill="#3E307C" fill-rule="evenodd"/></svg>