<svg width="50" height="50" viewBox="0 0 50 50" xmlns="http://www.w3.org/2000/svg"><g fill="#F78B24" fill-rule="evenodd"><path d="M22.55 49.145c-.816-.077-2.96-.456-3.754-.663-6.873-1.79-12.693-6.59-15.773-13.01C1.335 31.955.63 28.808.633 24.79c.003-4.025.718-7.235 2.38-10.686 1.243-2.584 2.674-4.61 4.706-6.66 3.8-3.834 8.613-6.208 14.066-6.936 1.783-.24 5.556-.16 7.22.148 3.464.642 6.572 1.904 9.358 3.797 5.788 3.935 9.542 9.952 10.52 16.862.21 1.48.332 4.56.19 4.816-.077.14-.117-.007-.167-.615-.25-3.015-1.528-6.66-3.292-9.388C40.253 7.835 30.25 4.32 20.987 7.467c-7.15 2.43-12.522 8.596-13.997 16.06-.73 3.692-.51 7.31.658 10.882 2.06 6.3 6.992 11.33 13.247 13.517 1.475.515 3.37.944 4.618 1.047 1.496.122 1.12.24-.727.224-1.006-.008-2.013-.032-2.237-.053z"/><path d="M27.685 46.1c-7.73-.575-14.137-6.455-15.474-14.204-.242-1.41-.29-4.047-.094-5.345 1.16-7.705 6.97-13.55 14.552-14.638 1.537-.22 4.275-.143 5.746.162 1.28.266 2.7.737 3.814 1.266l.865.41-.814.393c-2.937 1.414-4.75 4.723-4.324 7.892.426 3.173 2.578 5.664 5.667 6.56 1.112.322 2.812.322 3.925 0 1.438-.417 2.566-1.1 3.593-2.173.347-.362.653-.62.68-.576.028.046.107.545.177 1.11.17 1.395.07 4.047-.204 5.37-.876 4.22-3.08 7.76-6.463 10.375-3.2 2.477-7.434 3.712-11.645 3.4z"/></g></svg>