<svg xmlns="http://www.w3.org/2000/svg" xmlns:xlink="http://www.w3.org/1999/xlink" width="50" height="50" version="1.1" viewBox="0 0 50 50"><g fill="none" fill-rule="evenodd" stroke="none" stroke-width="1"><g fill="#F78B24"><g><g transform="translate(0.481873, 0.171360) translate(0.008636, 0.108555)"><path id="path4379" d="M22.058368,48.8652576 C21.2437999,48.7878567 19.1006792,48.4091282 18.3056997,48.2020939 C11.4329681,46.4122332 5.61265555,41.6119035 2.53259335,35.1931456 C0.844060443,31.6742922 0.140352507,28.52742 0.143129097,24.5078496 C0.145875175,20.4833961 0.860425034,17.2734889 2.5216192,13.8225546 C3.7658265,11.2378565 5.19692984,9.21306983 7.22861063,7.162902 C11.0289996,3.32792889 15.8428542,0.953911552 21.2955685,0.225599773 C23.0782309,-0.0125069821 26.85181,0.0649676307 28.5167368,0.373857722 C31.9792362,1.01624832 35.0879288,2.27794927 37.8737436,4.17151736 C43.66151,8.10556494 47.4155513,14.1221132 48.3942332,21.0325352 C48.6037692,22.5120388 48.7250543,25.5909577 48.5839262,25.8481746 C48.5069546,25.9884715 48.4669433,25.8414833 48.4165375,25.2333344 C48.1666749,22.2183685 46.8880704,18.5727523 45.124,15.8454988 C39.7621503,7.55607105 29.7583608,4.03921889 20.4961649,7.18752901 C13.3471574,9.61754455 7.974181,15.7826973 6.49950655,23.2478043 C5.77033129,26.9390602 5.98914286,30.5572318 7.15756857,34.129218 C9.2181442,40.4286112 14.1498869,45.4611558 20.4042119,47.6466277 C21.8792017,48.1620406 23.7734361,48.5915232 25.022566,48.6937587 C26.5182429,48.8161727 26.1412979,48.9325989 24.2959131,48.9181996 C23.2890178,48.9103465 22.2821225,48.8865193 22.058368,48.8652576 L22.058368,48.8652576 Z"/><path id="path4375" d="M27.1945511,45.8197025 C19.4634056,45.2453398 13.0577716,39.3655323 11.7209706,31.6163312 C11.4776478,30.2058059 11.430761,27.5690797 11.625936,26.271443 C12.7849538,18.565423 18.5963365,12.7191433 26.1774851,11.6324945 C27.7140785,11.4122467 30.452254,11.4894495 31.9239078,11.7945147 C33.2040277,12.0598772 34.6231093,12.5309255 35.7379051,13.0605271 L36.6024112,13.4712263 L35.7887584,13.8631587 C32.85255,15.2775131 31.0403114,18.5857811 31.4657196,21.7549161 C31.8917278,24.9285151 34.0433512,27.4194493 37.13215,28.3149154 C38.2441591,28.6372959 39.9446018,28.6372015 41.0570787,28.3147079 C42.4955049,27.8977117 43.6235836,27.2157243 44.6502405,26.1424414 C44.9968363,25.7801082 45.3027392,25.520857 45.3300271,25.5663307 C45.357315,25.6118034 45.4365342,26.1113638 45.506071,26.6764634 C45.6776297,28.070634 45.5768893,30.723134 45.3020883,32.0474383 C44.4268623,36.2651472 42.221548,39.8053525 38.8399563,42.4210947 C35.6393311,44.8968539 31.405255,46.1325358 27.1945511,45.8197139 L27.1945511,45.8197025 Z"/></g></g></g></g></svg>