<svg width="45" height="50" viewBox="0 0 45 50" xmlns="http://www.w3.org/2000/svg"><path d="M.05.24C.116.177.178.114.24.05c6.714 0 13.427.003 20.142 0 .378-.04.718.18 1.098.15.327.114.674.06 1.013.084.29.07.582.17.887.136.383-.052.724.18 1.105.18.277-.015.512.193.79.157.267-.056.45.226.712.212.268-.016.5.148.77.124.423.122.826.34 1.268.382.96.37 1.95.665 2.873 1.127.824.356 1.612.79 2.405 1.205.162.14.334.27.54.337.41.28.836.528 1.232.823.288.18.525.43.823.596.37.35.778.65 1.182.96.61.6 1.21 1.21 1.818 1.812.315.343.575.734.905 1.064.25.29.42.637.69.908.293.532.73.968.974 1.53.3.406.483.88.76 1.304.32.64.636 1.285.88 1.96.094.254.293.47.3.753.14.46.385.887.465 1.364-.006.16.09.294.156.433.1.482.19.972.384 1.427.04.204-.032.428.074.618.188.326.07.714.19 1.06.153.34.012.72.13 1.07.05.388.2.763.174 1.16-.017 1 .057 1.998.003 2.997-.014.45.005.9-.007 1.35-.08.47-.25.934-.222 1.416.04.356-.164.677-.152 1.03.007.19-.064.368-.127.544-.105.237.014.513-.116.745-.215.513-.242 1.082-.463 1.593-.018.252-.18.457-.192.71-.186.32-.278.685-.338 1.046-.183.254-.295.547-.38.846-.176.307-.242.668-.463.95-.518 1.177-1.22 2.268-1.94 3.335-.534.75-1.16 1.425-1.712 2.16-.568.566-1.135 1.13-1.7 1.7-.475.275-.82.727-1.298 1-.464.442-1.032.75-1.54 1.135-.652.38-1.28.795-1.948 1.145-.373.22-.79.357-1.16.584-.484.198-.976.382-1.442.62-.594.2-1.183.41-1.767.64-.317.085-.64.15-.96.22-.282.19-.62.164-.92.31-.285-.007-.55.07-.807.186-.27-.01-.53.043-.778.147-.377 0-.74.107-1.092.23-.306.02-.62-.035-.916.06-.34.104-.696.025-1.042.066-.38.083-.773.083-1.143.206-6.676.008-13.35 0-20.027.003-.15.024-.28-.138-.28-.275C.053 33.205.055 16.723.05.24zm25.337 7.113c-.336.09-.68.122-1.026.12-.4.15-.843.104-1.23.3-.48.02-.89.32-1.355.424-.64.294-1.293.57-1.877.967-.42.223-.773.54-1.17.796-.653.5-1.188 1.13-1.78 1.696-.44.62-.957 1.2-1.27 1.9-.367.465-.514 1.048-.8 1.56-.158.333-.154.723-.374 1.03.01.344-.223.637-.178.99-.184.373-.183.79-.168 1.197.028.27-.147.508-.125.777.002.372 0 .743 0 1.114-.017.244.14.46.124.703.016.352-.06.726.107 1.053.13.22.016.495.16.71.093.126.04.292.104.427.156.325.227.68.345 1.02.232.373.324.815.564 1.187.25.563.643 1.044.955 1.573.132.203.318.364.454.565.4.593.965 1.043 1.475 1.537.334.207.618.483.94.706.31.16.534.442.857.578.47.195.9.468 1.363.677.378.122.717.347 1.11.422.248.018.457.184.707.188.22.004.415.145.634.15.36-.037.675.203 1.033.215.895.005 1.79 0 2.685.002.43-.008.81-.287 1.247-.213.203-.097.415-.17.643-.175.46-.163.942-.262 1.377-.49 1.036-.332 1.947-.95 2.827-1.573.418-.23.677-.653 1.08-.902.227-.14.38-.362.523-.578.354-.365.7-.738.974-1.168.377-.44.61-.974.92-1.458.175-.395.405-.767.537-1.18.22-.42.245-.91.485-1.322-.042-.327.19-.6.175-.92-.002-.377.196-.725.162-1.105-.023-.956.04-1.917-.036-2.87-.138-.43-.11-.888-.277-1.31 0-.238-.12-.447-.206-.66-.14-.637-.407-1.24-.71-1.813-.303-.707-.747-1.34-1.187-1.967-.245-.235-.417-.53-.63-.788-.43-.414-.824-.867-1.295-1.235-.865-.726-1.833-1.33-2.854-1.812-.302-.172-.66-.21-.96-.385-.29-.096-.557-.265-.872-.235-.253-.133-.524-.193-.808-.184-.256-.105-.523-.16-.8-.13-.357.042-.668-.21-1.025-.16-.517.03-1.045-.056-1.553.047z" fill="#F9DA32" fill-rule="evenodd"/></svg>