<svg width="50" height="50" viewBox="0 0 50 50" xmlns="http://www.w3.org/2000/svg"><path d="M24.066.017c4.625-.173 9.29.974 13.302 3.286 3.073 1.76 5.76 4.188 7.833 7.058 2.06 2.847 3.507 6.134 4.208 9.576.82 4 .64 8.2-.518 12.117-.977 3.296-2.646 6.386-4.868 9.01-2.132 2.518-4.762 4.62-7.704 6.117-3.256 1.678-6.892 2.608-10.552 2.718-4.11.14-8.256-.75-11.933-2.597-5.815-2.87-10.408-8.106-12.49-14.25-2.162-6.256-1.698-13.374 1.303-19.28 2.837-5.7 7.948-10.22 13.956-12.335C18.997.583 21.525.107 24.066.017zm-8.415 33.31c.465 2.284 1.94 4.358 3.992 5.48 2.173 1.217 4.764 1.444 7.2 1.18 2.003-.216 3.987-.99 5.456-2.396 1.173-1.15 2.017-2.647 2.33-4.266-1.19-.027-2.378 0-3.566-.03-.568.082-1.137-.048-1.705.014-1.232.012-2.465.003-3.697-.01-.655.066-1.31-.035-1.963.013-1.166-.052-2.334.044-3.5-.024-1.515.08-3.03-.035-4.546.042z" fill="#411299" fill-rule="evenodd"/></svg>