<svg xmlns="http://www.w3.org/2000/svg" width="50" height="50" viewBox="0 0 50 50"><ellipse cx="23.58" cy="28.231" rx=".966" ry=".956"/><ellipse cx="26.426" cy="28.231" rx=".966" ry=".956"/><path d="M25.003 16.76a10.293 10.178 0 0 1 16.47-2.65 19.93 19.707 0 0 0-32.94 0 10.293 10.178 0 0 1 16.47 2.65z"/><path d="M50 21.319a5.488 5.427 0 0 0-6.967-5.237 10.293 10.178 0 0 1-8.431 15.406 10.263 10.148 0 0 1 .696 3.678c0 .293-.014.584-.04.87h-20.51a10.229 10.229 0 0 1-.04-.87 10.263 10.148 0 0 1 .696-3.678 10.293 10.178 0 0 1-8.431-15.406A5.498 5.436 0 1 0 5.13 26.743l.472 7.183.864-1.45 2.45 7.038.397-2.133 5.604 6.876-.334-2.244A19.819 19.597 0 0 0 20.9 44.5a10.312 10.197 0 0 1-5.954-7.177h20.118a10.312 10.197 0 0 1-5.955 7.177 19.819 19.597 0 0 0 6.318-2.487l-.334 2.244 5.603-6.876.397 2.134 2.45-7.037.861 1.45.474-7.183A5.5 5.438 0 0 0 50 21.32z"/><path d="M36.804 26.064a5.01 5.01 0 0 0 1.158-.97 5.245 5.245 0 0 0 .581-.795 5.39 5.39 0 0 0 .415-.883c.056-.152.104-.308.143-.465a5.047 5.047 0 0 0 .15-.96 4.915 4.86 0 0 0 0-.486 4.848 4.793 0 0 0-.044-.487 4.869 4.814 0 0 0-.239-.959 4.856 4.801 0 0 0-.445-.915 4.763 4.71 0 0 0-.914-1.062 5.033 5.033 0 0 0-1.157-.74 4.954 4.954 0 0 0-1.762-.437 4.515 4.464 0 0 0-.458 0c-.15.006-.304.02-.459.042a4.604 4.552 0 0 0-.453.088 4.434 4.384 0 0 0-.445.134 4.537 4.486 0 0 0-.437.183 4.6 4.55 0 0 0-.423.232 4.391 4.342 0 0 0-.362.25 7.564 7.564 0 0 0-.334.282 4.257 4.209 0 0 0-.297.308 5.47 5.47 0 0 0-.265.33 4.53 4.48 0 0 0-.704 1.519 4.446 4.396 0 0 0-.123.826c-.008.138-.008.28 0 .418.008.139.02.282.04.418a4.17 4.124 0 0 0 .384 1.223 4.369 4.32 0 0 0 .223.387 4.053 4.007 0 0 0 .496.626 4.128 4.082 0 0 0 .6.51 4.169 4.122 0 0 0 1.413.634 4.094 4.048 0 0 0 .77.11 3.918 3.874 0 0 0 .779-.038 3.86 3.816 0 0 0 .766-.196 3.737 3.695 0 0 0 .37-.16 3.816 3.773 0 0 0 .358-.201 3.69 3.648 0 0 0 .576-.452 3.754 3.712 0 0 0 .467-.544 3.792 3.75 0 0 0 .352-.614 3.841 3.798 0 0 0 .23-.66 3.694 3.653 0 0 0 .098-.694 3.602 3.562 0 0 0-.04-.703 3.49 3.45 0 0 0-.524-1.347 3.351 3.314 0 0 0-.426-.523 3.426 3.388 0 0 0-.5-.415 3.51 3.471 0 0 0-.565-.312 3.417 3.379 0 0 0-.61-.201 3.38 3.342 0 0 0-.637-.085 3.149 3.113 0 0 0-1.869.518 3.032 2.998 0 0 0-.46.373 3.085 3.05 0 0 0-.374.446 3.134 3.1 0 0 0-.28.502 3.092 3.057 0 0 0-.178.541 2.972 2.938 0 0 0-.072.565 2.847 2.815 0 0 0 .04.57 2.784 2.752 0 0 0 .16.559 2.847 2.815 0 0 0 .287.53 2.727 2.696 0 0 0 .74.721 2.759 2.728 0 0 0 .939.393 2.672 2.642 0 0 0 .506.059 2.465 2.437 0 0 0 1.481-.44 2.325 2.299 0 0 0 .347-.297 2.408 2.381 0 0 0 .616-1.166 2.282 2.257 0 0 0 .046-.44 2.168 2.144 0 0 0-.042-.44 2.127 2.103 0 0 0-.372-.833 2.064 2.041 0 0 0-1.279-.791 2.084 2.06 0 0 0-.38-.032 1.864 1.843 0 0 0-.379.044 1.795 1.775 0 0 0-.715.33 1.67 1.651 0 0 0-.236.22 1.765 1.745 0 0 0-.187.259 1.727 1.708 0 0 0-.215.592 1.608 1.59 0 0 0-.017.315 1.46 1.443 0 0 0 .36.895 1.348 1.333 0 0 0 .183.176 1.366 1.35 0 0 0 .445.234 1.36 1.344 0 0 0 .247.053 1.208 1.195 0 0 0 .26 0 1.236 1.222 0 0 0 .265-.052 1.186 1.172 0 0 0 .251-.11 1.113 1.1 0 0 0 .223-.177 1.041 1.03 0 0 0 .213-.314 1.06 1.048 0 0 0 .084-.372.875.865 0 0 0-.016-.207.853.843 0 0 0-.07-.21c-.164-.33-.407-.356-.445-.346-.013 0-.012.032-.01.044.035.257.041.52-.142.69a.583.577 0 0 1-.511.143.46.456 0 0 1-.153-.05.47.465 0 0 1-.131-.102.539.533 0 0 1-.112-.231.668.66 0 0 1 0-.263.81.8 0 0 1 .1-.259.78.77 0 0 1 .187-.211.845.836 0 0 1 .172-.104.913.903 0 0 1 .187-.06.982.971 0 0 1 .196-.019 1.041 1.03 0 0 1 .195.033 1.14 1.127 0 0 1 .542.272 1.093 1.081 0 0 1 .14.154 1.156 1.143 0 0 1 .134.232 1.215 1.201 0 0 1 .077.25 1.32 1.306 0 0 1 .022.26 1.407 1.392 0 0 1-.024.263 1.49 1.473 0 0 1-.205.49 1.483 1.466 0 0 1-.17.21 1.42 1.404 0 0 1-.209.179 1.539 1.521 0 0 1-.298.162 1.602 1.584 0 0 1-.647.11 1.747 1.727 0 0 1-.328-.041 1.794 1.774 0 0 1-.318-.101 1.844 1.823 0 0 1-.295-.158 1.781 1.761 0 0 1-.263-.21 1.737 1.717 0 0 1-.222-.26 1.862 1.84 0 0 1-.299-.739 1.994 1.972 0 0 1-.025-.39 2.092 2.069 0 0 1 .052-.39 2.16 2.136 0 0 1 .125-.374 2.208 2.183 0 0 1 .194-.35 2.152 2.128 0 0 1 .258-.309 2.087 2.063 0 0 1 .318-.257 2.166 2.141 0 0 1 .426-.22 2.227 2.202 0 0 1 .45-.12 2.358 2.332 0 0 1 .463-.027 2.45 2.422 0 0 1 .46.063 2.52 2.491 0 0 1 1.213.674 2.425 2.398 0 0 1 .302.37 2.523 2.495 0 0 1 .248.486 2.588 2.559 0 0 1 .136.512 2.71 2.68 0 0 1 .028.525 2.851 2.82 0 0 1-.249 1.019 2.851 2.82 0 0 1-.614.87 2.811 2.78 0 0 1-.431.337 2.895 2.862 0 0 1-.557.273 2.937 2.904 0 0 1-.587.148 3.109 3.074 0 0 1-.597.027 3.167 3.131 0 0 1-.593-.086 3.259 3.222 0 0 1-1.092-.492 3.197 3.16 0 0 1-.46-.39 3.13 3.095 0 0 1-.383-.483 3.229 3.193 0 0 1-.469-1.26 3.404 3.366 0 0 1-.03-.66 3.52 3.48 0 0 1 .1-.653 3.563 3.523 0 0 1 .223-.624 3.619 3.578 0 0 1 .334-.576 3.53 3.49 0 0 1 .446-.507 3.545 3.505 0 0 1 1.227-.748 3.623 3.582 0 0 1 .722-.176 3.816 3.773 0 0 1 .735-.03 3.911 3.868 0 0 1 .727.11 3.973 3.928 0 0 1 .696.244 3.921 3.877 0 0 1 1.206.854 3.786 3.743 0 0 1 .465.597 3.897 3.853 0 0 1 .362.744 3.99 3.945 0 0 1 .193.782 4.17 4.123 0 0 1 .03.796 4.293 4.245 0 0 1-.126.787 4.375 4.326 0 0 1-.27.752 4.319 4.27 0 0 1-.41.691 4.275 4.228 0 0 1-.54.61 4.096 4.05 0 0 1-.315.264 3.93 3.885 0 0 1-.347.236 4.154 4.108 0 0 1-.402.22 4.24 4.193 0 0 1-.415.17 4.321 4.273 0 0 1-.426.124 4.378 4.329 0 0 1-.434.08 4.332 4.284 0 0 1-.436.036 4.258 4.21 0 0 1-.438-.007 4.508 4.508 0 0 1-.861-.135 4.96 4.96 0 0 1-.824-.293 4.649 4.649 0 0 1-1.105-.715 4.582 4.53 0 0 1-.61-.647 4.505 4.454 0 0 1-.257-.372 4.716 4.664 0 0 1-.235-.43 4.646 4.594 0 0 1-.185-.44 4.745 4.692 0 0 1-.135-.457 4.97 4.97 0 0 1-.085-.462 4.329 4.329 0 0 1-.038-.467c-.005-.158 0-.311.008-.467a4.895 4.895 0 0 1 .288-1.366 4.25 4.25 0 0 1 .182-.433 4.85 4.85 0 0 1 .784-1.177c.104-.116.222-.235.333-.34a4.774 4.72 0 0 1 .373-.31 4.884 4.83 0 0 1 .407-.274 5.001 4.945 0 0 1 .469-.248 5.08 5.024 0 0 1 .483-.195 4.951 4.896 0 0 1 .495-.142 5.021 4.965 0 0 1 .502-.09 5.04 5.04 0 0 1 1.015-.032 5.12 5.12 0 0 1 .999.16 5.811 5.811 0 0 1 .954.34 5.645 5.645 0 0 1 .872.514 5.427 5.427 0 0 1 .769.678 5.26 5.2 0 0 1 .631.83c.058.095.111.193.166.292a.051.05 0 0 0 .033.025.053.053 0 0 0 .043-.006.051.05 0 0 0 .019-.063 5.5 5.438 0 1 0-7.515 6.998 5.441 5.38 0 0 0 2.462.58 5.51 5.449 0 0 0 1.705-.268c.125-.046.271-.102.414-.17a5.122 5.064 0 0 0 .483-.258zm-18.404 0a5.01 5.01 0 0 0 1.157-.97 5.245 5.245 0 0 0 .582-.795c.085-.143.16-.287.228-.433.068-.145.131-.298.187-.45a4.45 4.45 0 0 0 .142-.465 5.047 5.047 0 0 0 .15-.96 4.915 4.86 0 0 0 0-.486 4.848 4.793 0 0 0-.044-.487 4.869 4.814 0 0 0-.238-.959 4.856 4.801 0 0 0-.445-.915 4.763 4.71 0 0 0-.915-1.062 5.033 5.033 0 0 0-1.157-.74 4.954 4.954 0 0 0-1.762-.437 4.515 4.464 0 0 0-.458 0c-.149.006-.304.02-.458.042a4.604 4.552 0 0 0-.453.088 4.434 4.384 0 0 0-.446.134 4.537 4.486 0 0 0-.436.183 4.6 4.55 0 0 0-.423.232 4.391 4.342 0 0 0-.362.25 7.564 7.564 0 0 0-.334.282 4.257 4.209 0 0 0-.297.308 5.47 5.47 0 0 0-.265.33 4.53 4.48 0 0 0-.704 1.519 4.446 4.396 0 0 0-.124.826c-.008.138-.008.28 0 .418.008.139.02.282.04.418a4.17 4.124 0 0 0 .384 1.223 4.369 4.32 0 0 0 .223.387 4.053 4.007 0 0 0 .497.626 4.128 4.082 0 0 0 .599.51 4.169 4.122 0 0 0 1.414.634 4.094 4.048 0 0 0 .77.11 3.918 3.874 0 0 0 .779-.038 3.86 3.816 0 0 0 .766-.196 3.737 3.695 0 0 0 .37-.16 3.816 3.773 0 0 0 .358-.201 3.69 3.648 0 0 0 .575-.452 3.754 3.712 0 0 0 .468-.544 3.792 3.75 0 0 0 .352-.614 3.841 3.798 0 0 0 .23-.66 3.694 3.653 0 0 0 .097-.694 3.602 3.562 0 0 0-.04-.703 3.49 3.45 0 0 0-.523-1.347 3.351 3.314 0 0 0-.417-.513 3.426 3.388 0 0 0-.5-.415 3.51 3.471 0 0 0-.564-.312 3.417 3.379 0 0 0-.61-.201 3.38 3.342 0 0 0-.637-.085 3.149 3.113 0 0 0-1.878.508 3.032 2.998 0 0 0-.464.374 3.085 3.05 0 0 0-.373.446 3.134 3.1 0 0 0-.279.502 3.092 3.057 0 0 0-.178.541 2.972 2.938 0 0 0-.073.565 2.847 2.815 0 0 0 .04.57 2.784 2.752 0 0 0 .16.559 2.847 2.815 0 0 0 .287.53 2.727 2.696 0 0 0 .74.721 2.759 2.728 0 0 0 .939.393 2.672 2.642 0 0 0 .507.059 2.465 2.437 0 0 0 1.48-.44 2.325 2.299 0 0 0 .348-.297 2.408 2.381 0 0 0 .616-1.166 2.282 2.257 0 0 0 .045-.44 2.168 2.144 0 0 0-.042-.44 2.127 2.103 0 0 0-.372-.833 2.064 2.041 0 0 0-1.278-.791 2.084 2.06 0 0 0-.38-.032 1.864 1.843 0 0 0-.38.044 1.795 1.775 0 0 0-.714.33 1.67 1.651 0 0 0-.236.22 1.765 1.745 0 0 0-.187.26 1.727 1.708 0 0 0-.215.591 1.608 1.59 0 0 0-.018.315 1.46 1.443 0 0 0 .36.895 1.348 1.333 0 0 0 .183.176 1.366 1.35 0 0 0 .446.234 1.36 1.344 0 0 0 .247.053 1.208 1.195 0 0 0 .26 0 1.236 1.222 0 0 0 .264-.052 1.186 1.172 0 0 0 .252-.11 1.113 1.1 0 0 0 .222-.177 1.041 1.03 0 0 0 .213-.314 1.06 1.048 0 0 0 .085-.372.875.865 0 0 0-.017-.207.853.843 0 0 0-.069-.21c-.165-.33-.407-.356-.445-.346-.014 0-.013.032-.01.044.034.257.04.52-.143.69a.583.577 0 0 1-.51.143.46.456 0 0 1-.153-.05.47.465 0 0 1-.132-.102.539.533 0 0 1-.111-.23.668.66 0 0 1 0-.264.81.8 0 0 1 .099-.259.78.77 0 0 1 .187-.211.845.836 0 0 1 .173-.104.913.903 0 0 1 .187-.06.982.971 0 0 1 .196-.019 1.041 1.03 0 0 1 .199.02 1.14 1.127 0 0 1 .542.272 1.093 1.081 0 0 1 .14.154 1.156 1.143 0 0 1 .127.247 1.215 1.201 0 0 1 .077.25 1.32 1.306 0 0 1 .022.258 1.407 1.392 0 0 1-.03.261 1.49 1.473 0 0 1-.205.489 1.483 1.466 0 0 1-.169.211 1.42 1.404 0 0 1-.21.179 1.539 1.521 0 0 1-.297.162 1.602 1.584 0 0 1-.647.11 1.747 1.727 0 0 1-.329-.041 1.794 1.774 0 0 1-.317-.101 1.844 1.823 0 0 1-.295-.158 1.781 1.761 0 0 1-.263-.21 1.737 1.717 0 0 1-.223-.261 1.862 1.84 0 0 1-.298-.738 1.994 1.972 0 0 1-.026-.39 2.092 2.069 0 0 1 .053-.39 2.16 2.136 0 0 1 .124-.374 2.208 2.183 0 0 1 .194-.35 2.152 2.128 0 0 1 .258-.309 2.087 2.063 0 0 1 .319-.257 2.166 2.141 0 0 1 .425-.22 2.227 2.202 0 0 1 .451-.12 2.358 2.332 0 0 1 .462-.027 2.45 2.422 0 0 1 .46.063 2.52 2.491 0 0 1 1.214.673 2.425 2.398 0 0 1 .301.371 2.523 2.495 0 0 1 .249.486 2.588 2.559 0 0 1 .135.512 2.71 2.68 0 0 1 .028.525 2.851 2.82 0 0 1-.248 1.018 2.851 2.82 0 0 1-.615.87 2.811 2.78 0 0 1-.43.338 2.895 2.862 0 0 1-.557.273 2.937 2.904 0 0 1-.587.148 3.109 3.074 0 0 1-.598.027 3.167 3.131 0 0 1-.592-.086 3.259 3.222 0 0 1-1.092-.492 3.197 3.16 0 0 1-.464-.393 3.13 3.095 0 0 1-.383-.483 3.229 3.193 0 0 1-.462-1.254 3.404 3.366 0 0 1-.03-.66 3.52 3.48 0 0 1 .1-.652 3.563 3.523 0 0 1 .223-.625 3.619 3.578 0 0 1 .334-.575 3.53 3.49 0 0 1 .446-.508 3.545 3.505 0 0 1 1.232-.75 3.623 3.582 0 0 1 .723-.176 3.816 3.773 0 0 1 .735-.03 3.911 3.868 0 0 1 .727.11 3.973 3.928 0 0 1 .695.244 3.921 3.877 0 0 1 1.206.854 3.786 3.743 0 0 1 .466.597 3.897 3.853 0 0 1 .362.744 3.99 3.945 0 0 1 .192.782 4.17 4.123 0 0 1 .03.796 4.293 4.245 0 0 1-.123.785 4.375 4.326 0 0 1-.27.752 4.319 4.27 0 0 1-.41.691 4.275 4.228 0 0 1-.54.609 4.096 4.05 0 0 1-.316.265 3.93 3.885 0 0 1-.346.236 4.154 4.108 0 0 1-.402.22 4.24 4.193 0 0 1-.415.17 4.321 4.273 0 0 1-.427.124 4.378 4.329 0 0 1-.433.08 4.332 4.284 0 0 1-.436.036 4.258 4.21 0 0 1-.438-.007 4.508 4.508 0 0 1-.862-.135 4.96 4.96 0 0 1-.824-.293 4.65 4.65 0 0 1-1.104-.715 4.582 4.53 0 0 1-.61-.647 4.505 4.454 0 0 1-.257-.372 4.716 4.664 0 0 1-.235-.43 4.646 4.594 0 0 1-.185-.441 4.745 4.692 0 0 1-.135-.456 4.97 4.97 0 0 1-.086-.462 4.329 4.329 0 0 1-.037-.467c-.005-.159 0-.312.007-.467a4.892 4.892 0 0 1 .288-1.366 4.25 4.25 0 0 1 .182-.433c.07-.14.142-.278.223-.414a4.85 4.85 0 0 1 .561-.763c.105-.116.223-.235.334-.341a4.774 4.72 0 0 1 .373-.31 4.884 4.83 0 0 1 .406-.274 5.001 4.945 0 0 1 .47-.247 5.08 5.024 0 0 1 .482-.195 4.951 4.896 0 0 1 .496-.142 5.021 4.965 0 0 1 .502-.09 5.04 5.04 0 0 1 1.014-.032 5.121 5.121 0 0 1 .999.16 5.811 5.811 0 0 1 .954.34 5.646 5.646 0 0 1 .872.514 5.43 5.43 0 0 1 .77.678 5.26 5.2 0 0 1 .63.83c.059.095.112.193.167.292a.051.05 0 0 0 .033.025.053.053 0 0 0 .042-.007.051.05 0 0 0 .02-.062 5.5 5.438 0 1 0-7.524 7.003 5.441 5.38 0 0 0 2.462.58 5.51 5.449 0 0 0 1.704-.269c.126-.046.272-.102.415-.17a5.122 5.064 0 0 0 .49-.26z"/></svg>