<svg xmlns="http://www.w3.org/2000/svg" xmlns:xlink="http://www.w3.org/1999/xlink" width="1001" height="330" version="1.1" viewBox="0 0 1001 330"><title>Shape</title><desc>Created with Sketch.</desc><g id="Page-1" fill="none" fill-rule="evenodd" stroke="none" stroke-width="1"><g id="Hulu_logo" fill="#FFF" fill-rule="nonzero"><path id="Shape" d="M612.765,329.519 L692.234,329.519 L692.234,0 L612.765,0 L612.765,329.519 L612.765,329.519 Z M472.75,235.774 C472.75,247.535 463.222,257.062 451.479,257.062 L405.257,257.062 C393.464,257.062 383.953,247.535 383.953,235.774 C383.953,231.344 383.953,102.821 383.953,102.821 L304.5,102.821 L304.5,242.405 C304.5,299.454 340.995,329.518 394.962,329.518 L472.749,329.518 L472.749,329.102 C522.453,329.102 552.218,293.74 552.218,242.405 L552.218,102.821 L472.75,102.821 C472.75,102.821 472.75,231.345 472.75,235.774 Z M920.947,102.821 C920.947,102.821 920.947,231.344 920.947,235.774 C920.947,247.535 911.42,257.062 899.676,257.062 L853.453,257.062 C841.677,257.062 832.166,247.535 832.166,235.774 C832.166,231.344 832.166,102.821 832.166,102.821 L752.697,102.821 L752.697,242.405 C752.697,299.454 789.192,329.518 843.16,329.518 L920.946,329.518 L920.946,329.102 C970.65,329.102 1000.398,293.74 1000.398,242.405 L1000.398,102.821 L920.947,102.821 Z M157.255,102.821 C157.255,102.821 115.863,102.821 106.302,102.821 C88.413,102.821 79.451,107.643 79.451,107.643 L79.451,0 L0,0 L0,329.519 L79.452,329.519 L79.452,196.549 C79.452,184.789 88.98,175.261 100.739,175.261 L146.978,175.261 C158.737,175.261 168.249,184.789 168.249,196.549 L168.249,329.519 L247.718,329.519 L247.718,186.255 C247.718,126.007 207.542,102.821 157.255,102.821 Z"/></g></g></svg>