<svg width="50" height="32" viewBox="0 0 50 32" xmlns="http://www.w3.org/2000/svg"><g fill="#F3962F" fill-rule="evenodd"><path d="M13.068.038c2.06-.022 4.12-.013 6.18.006V.1c.592.004 1.187-.013 1.776.05.704.067 1.414.095 2.113.208.154.014.308.026.463.035V.44c.15.008.3.02.45.036.442.123.905.154 1.34.306l.21.047c.23.08.462.148.695.22l.208.085c.26.11.525.213.777.343 1.032.532 1.91 1.36 2.464 2.382.156.27.27.56.4.843.14.343.24.7.355 1.053.112.424.21.854.266 1.29l.04.004c.008.13.02.26.03.388.144.664.163 1.347.237 2.02.026.34.04.682.04 1.024h.05c.042 3.005.043 6.012-.007 9.018-.096.48-.027.977-.096 1.46-.033.765-.126 1.525-.18 2.287h-.048c-.006.163-.016.328-.02.492h-.044c-.05.508-.14 1.013-.274 1.504l-.043.213c-.107.324-.177.66-.3.977l-.087.21c-.09.242-.196.48-.316.707-.522 1.06-1.383 1.95-2.443 2.476-.28.152-.57.28-.872.384l-.203.084c-.346.124-.706.188-1.054.3-.072.01-.144.024-.215.037-.614.17-1.254.2-1.877.317-2.03.212-4.072.235-6.11.245-.536.006-1.072-.017-1.606.02-.26-.01-.52-.037-.78-.005-1.215-.056-2.432-.022-3.646-.093-.62-.008-1.236-.086-1.857-.094l-.003-.048c-.233-.003-.466-.017-.7-.02 0-.012-.006-.035-.008-.047-.643-.042-1.284-.134-1.913-.27-.194-.036-.38-.088-.572-.13-.258-.07-.52-.126-.772-.22l-.148-.04c-.07-.032-.138-.063-.208-.09-.188-.067-.374-.138-.555-.22-.854-.394-1.62-.978-2.193-1.727-.257-.362-.485-.74-.674-1.14-.11-.252-.203-.51-.305-.766l-.037-.145c-.16-.442-.266-.905-.352-1.367l-.03-.004c-.106-.616-.177-1.238-.278-1.853-.02-.222-.027-.446-.034-.668l-.045.006C.207 21.136.103 20 .1 18.864c-.06-1.845-.067-3.693-.06-5.54.032-1.4.04-2.804.176-4.2.018-.25.033-.5.04-.75l.048.004c.007-.22.01-.44.066-.65.075-.594.173-1.187.33-1.764.09-.328.17-.66.285-.98l.097-.206.02-.088c.077-.186.153-.37.24-.55C1.887 3 2.81 2.06 3.933 1.484c.223-.118.46-.207.69-.31.957-.368 1.966-.62 2.987-.73l.004-.04C8.616.305 9.618.17 10.627.163V.117c.818 0 1.636-.042 2.454-.026L13.07.038zm-2.222 8.037c-.5.285-.824.795-1.014 1.325l-.075.207c-.13.402-.225.817-.265 1.237-.012 0-.033-.005-.045-.007-.007.188-.02.375-.025.562l-.046.004c-.076 1.082-.153 2.166-.14 3.252-.037 1.648.008 3.298.14 4.94h.045c.006.22.01.44.07.654.073.404.135.814.265 1.205l.076.21c.225.695.682 1.358 1.39 1.62.525.155 1.084.113 1.612-.004.358-.093.712-.206 1.064-.323l.267-.12c.213-.08.424-.166.633-.258.275-.147.562-.265.84-.406.83-.43 1.65-.884 2.46-1.356.42-.25.84-.497 1.256-.752.184-.12.375-.23.56-.35.93-.598 1.855-1.218 2.672-1.97.528-.484 1.002-1.055 1.217-1.75.025-.28.027-.564-.003-.845-.106-.25-.21-.504-.355-.736-.608-.84-1.447-1.473-2.292-2.057-.536-.375-1.093-.718-1.65-1.06-.165-.1-.333-.198-.5-.298-.418-.257-.846-.495-1.27-.744-.18-.11-.367-.203-.55-.308-.205-.126-.422-.233-.634-.348-.25-.146-.51-.273-.768-.406-.23-.122-.47-.227-.7-.352-.254-.123-.516-.228-.77-.346-.232-.103-.47-.19-.71-.272-.07-.028-.14-.054-.213-.08-.435-.15-.89-.258-1.354-.272l-.004-.048-.32.01c-.29.064-.598.09-.86.24zM44.95 6.745c.483-.166.994-.268 1.507-.272l.002-.046h.35l.005.043c.376 0 .752.088 1.087.26.523.295.884.792 1.137 1.325.102.227.186.463.26.702.025.094.054.19.085.285.19.615.23 1.26.354 1.89.017.246.026.494.032.743l.047-.01c.158 2.74.156 5.487 0 8.226l-.047-.01c-.005.25-.014.5-.032.75-.108.577-.148 1.17-.31 1.737l-.08.274c-.17.6-.44 1.183-.875 1.638-.16.13-.325.25-.498.36-.752.345-1.624.254-2.4.04-.05-.01-.153-.035-.205-.047-.33-.117-.67-.21-.994-.345-.276-.125-.56-.227-.834-.356-.685-.32-1.358-.66-2.026-1.013-.21-.12-.427-.228-.638-.346-.207-.123-.422-.23-.63-.35-.227-.142-.466-.262-.695-.4-1.127-.648-2.245-1.312-3.33-2.026-.94-.63-1.867-1.29-2.65-2.11-.255-.286-.494-.588-.68-.925-.152-.296-.263-.616-.27-.95h-.055c.044-.473.126-.95.37-1.363.092-.146.184-.292.277-.436.794-.992 1.81-1.774 2.85-2.49.655-.458 1.334-.875 2.01-1.298.157-.094.317-.185.473-.282.19-.12.388-.23.584-.344.87-.52 1.757-1.01 2.65-1.488.446-.23.893-.453 1.35-.66.208-.1.42-.188.635-.27.085-.042.172-.08.26-.12.255-.097.516-.178.772-.275l.148-.038z"/></g></svg>