<?xml version="1.0" encoding="UTF-8"?>
<svg width="152px" height="151px" viewBox="0 0 152 151" version="1.1" xmlns="http://www.w3.org/2000/svg" xmlns:xlink="http://www.w3.org/1999/xlink">
    <!-- Generator: Sketch 52.4 (67378) - http://www.bohemiancoding.com/sketch -->
    <title>likes-given-3</title>
    <desc>Created with Sketch.</desc>
    <g id="PRO" stroke="none" stroke-width="1" fill="none" fill-rule="evenodd">
        <g id="PRO-page-web" transform="translate(-744.000000, -388.000000)">
            <g id="Patron" transform="translate(729.000000, 388.000000)">
                <g id="likes-given-3" transform="translate(16.000000, 0.000000)">
                    <polygon id="Fill-1" fill="#B15E5D" points="16.3648 86.9397 14.9518 75.2937 48.8368 69.0027 75.0798 60.2607 93.3548 67.1417 134.8988 75.3657 132.1428 90.9707 108.2458 99.8597 76.0108 103.3637 50.5448 98.4387 24.6558 86.2627"></polygon>
                    <polyline id="Stroke-2" stroke="#251B25" stroke-linecap="round" stroke-linejoin="round" points="13.4966 75.5158 48.8366 69.0028 75.0796 60.2608"></polyline>
                    <polyline id="Stroke-3" stroke="#251B25" stroke-linecap="round" stroke-linejoin="round" points="75.0796 60.2605 93.3546 67.1415 136.6636 75.5155"></polyline>
                    <g id="Group-196" transform="translate(0.000000, 0.189000)">
                        <path d="M126.2691,56.759 C122.2161,55.773 118.4801,56.902 115.6691,59.803 C114.4411,55.872 111.7581,53.228 107.7061,52.242 C101.9491,50.841 96.0221,54.855 94.4681,61.206 C91.0621,75.129 107.0501,87.882 107.0501,87.882 C107.0501,87.882 109.0611,89.135 110.9841,88.537 C117.2241,86.598 131.5291,80.403 133.8791,70.796 C135.4331,64.444 132.0261,58.159 126.2691,56.759" id="Fill-4" fill="#FF3671"></path>
                        <path d="M99.7827,59.9528 C101.4297,55.8178 104.9227,53.1088 108.7057,52.5498 C108.3807,52.4318 108.0487,52.3258 107.7057,52.2418 C101.9487,50.8408 96.0217,54.8548 94.4687,61.2058 C91.0617,75.1288 107.0507,87.8818 107.0507,87.8818 C107.0507,87.8818 107.6687,88.1128 107.8297,88.0668 C104.7397,84.2068 95.2527,71.3208 99.7827,59.9528" id="Fill-6" fill="#D9004F"></path>
                        <path d="M130.7525,63.549 C130.2995,64.36 128.4215,64.06 126.5605,62.881 C124.6985,61.7 123.5575,60.088 124.0115,59.277 C124.4655,58.467 126.3425,58.766 128.2035,59.946 C130.0655,61.126 131.2065,62.739 130.7525,63.549" id="Fill-8" fill="#FFFFFF"></path>
                        <path d="M126.2691,56.759 C122.2161,55.773 118.4801,56.902 115.6691,59.803 C114.4411,55.872 111.7581,53.228 107.7061,52.242 C101.9491,50.841 96.0221,54.855 94.4681,61.206 C91.0621,75.129 107.0501,87.882 107.0501,87.882 C107.0501,87.882 109.0611,89.135 110.9841,88.537 C117.2241,86.598 131.5291,80.403 133.8791,70.796 C135.4331,64.444 132.0261,58.159 126.2691,56.759 Z" id="Stroke-10" stroke="#251B25" stroke-linecap="round" stroke-linejoin="round"></path>
                        <path d="M57.2212,87.1169 C52.7072,88.4239 48.4482,87.3349 45.1432,84.2059 C43.9522,88.6899 41.0622,91.7959 36.5482,93.1019 C30.1372,94.9589 23.2732,90.7299 21.2152,83.6569 C16.7052,68.1529 34.0792,53.0249 34.0792,53.0249 C34.0792,53.0249 36.2812,51.5159 38.4742,52.0959 C45.5902,53.9739 61.9922,60.2509 65.1032,70.9499 C67.1602,78.0219 63.6322,85.2609 57.2212,87.1169" id="Fill-12" fill="#FF3671"></path>
                        <path d="M27.2574,84.8093 C29.3134,89.3833 33.3744,92.2623 37.6584,92.7073 C37.2984,92.8553 36.9304,92.9923 36.5484,93.1023 C30.1374,94.9583 23.2734,90.7303 21.2154,83.6573 C16.7054,68.1533 34.0794,53.0243 34.0794,53.0243 C34.0794,53.0243 34.7634,52.7333 34.9474,52.7783 C31.6564,57.2723 21.6064,72.2353 27.2574,84.8093" id="Fill-14" fill="#D9004F"></path>
                        <path d="M57.2212,87.1169 C52.7072,88.4239 48.4482,87.3349 45.1432,84.2059 C43.9522,88.6899 41.0622,91.7959 36.5482,93.1019 C30.1372,94.9589 23.2732,90.7299 21.2152,83.6569 C16.7052,68.1529 34.0792,53.0249 34.0792,53.0249 C34.0792,53.0249 36.2812,51.5159 38.4742,52.0959 C45.5902,53.9739 61.9922,60.2509 65.1032,70.9499 C67.1602,78.0219 63.6322,85.2609 57.2212,87.1169 Z" id="Stroke-16" stroke="#251B25" stroke-linecap="round" stroke-linejoin="round"></path>
                        <path d="M29.2837,48.1525 C29.2677,48.5395 29.2707,48.9245 29.2657,49.3095 C29.2657,48.9245 29.2737,48.5385 29.2837,48.1525" id="Fill-18" fill="#FFFFFF"></path>
                        <path d="M30.9624,37.8205 C30.9674,37.8165 30.9734,37.8105 30.9784,37.8065 C30.9724,37.8155 30.9654,37.8245 30.9594,37.8335 L30.9624,37.8205 Z" id="Fill-20" fill="#FF8331"></path>
                        <path d="M36.3316,39.3117 C36.3716,39.3307 36.4106,39.3537 36.4526,39.3677 C36.4186,39.4057 36.3816,39.4507 36.3496,39.4777 C36.3406,39.4317 36.3366,39.3707 36.3316,39.3117" id="Fill-22" fill="#FF8331"></path>
                        <path d="M50.9986,34.4601 C51.0096,34.4661 51.0176,34.4751 51.0276,34.4821 C51.0256,34.4951 51.0266,34.5081 51.0246,34.5211 C51.0166,34.5011 51.0076,34.4801 50.9986,34.4601" id="Fill-24" fill="#FF8331"></path>
                        <path d="M29.2837,48.1369 L29.2837,48.1529 L29.2837,48.1369 Z" id="Fill-26" fill="#FF8331"></path>
                        <path d="M29.2661,49.3098 C29.2681,56.3558 30.9511,63.2448 33.9931,69.6728 C30.8751,63.1398 29.1821,56.3498 29.2661,49.3098" id="Fill-28" fill="#FF8331"></path>
                        <path d="M36.4663,74.2912 C35.9943,73.5122 35.5443,72.7202 35.1173,71.9162 C35.1173,71.9162 35.1163,71.9152 35.1163,71.9142 C34.7383,71.2032 34.3783,70.4842 34.0333,69.7612 C34.0203,69.7312 34.0073,69.7022 33.9923,69.6722 C30.9503,63.2452 29.2683,56.3562 29.2663,49.3102 C29.2713,48.9242 29.2683,48.5402 29.2833,48.1522 L29.2833,48.1372 C29.3953,45.3822 29.7793,42.5902 30.4583,39.7602 C30.6363,39.7892 30.8213,39.7192 30.9323,39.5592 C32.7143,36.9292 34.9833,34.0292 35.8023,33.5282 C35.8863,34.0532 35.7163,35.4212 35.5993,36.3652 C35.3343,38.4962 35.2073,39.7272 35.6783,40.2572 C35.8243,40.4232 36.0273,40.5132 36.2443,40.5122 C37.1193,40.5092 37.8453,39.1502 38.9533,36.9402 C39.4233,36.0042 40.1093,34.6392 40.4983,34.2622 C40.8543,34.8692 41.3543,37.0812 41.6953,38.5872 C42.6103,42.6312 43.0403,44.1672 43.9393,44.2432 C44.8553,44.3232 45.2583,42.8982 46.3813,37.2172 C46.8463,34.8652 47.5363,31.3702 48.0213,30.6792 C48.4863,31.0612 49.4743,33.3442 50.0753,34.7362 C51.5213,38.0802 52.1513,39.3332 53.0313,39.2232 C53.9073,39.1132 54.4393,37.7422 55.3023,35.3292 C55.6953,34.2282 56.3623,32.3972 56.7203,32.2052 C57.0293,32.3502 58.0003,34.1672 58.5813,35.2522 C59.8373,37.6032 60.5903,38.9292 61.4693,38.8452 C62.4243,38.7582 62.5063,37.2202 62.4733,32.8462 C62.4603,31.0572 62.4413,28.3972 62.7223,27.7832 C63.5293,28.0562 66.4563,31.3792 68.7793,34.4232 C68.8843,34.5612 69.0493,34.6172 69.2093,34.6002 C69.3893,36.4792 69.4813,38.3582 69.4663,40.2202 L69.4663,40.2242 C69.4483,42.4702 69.5143,44.7642 69.6923,47.0582 C69.9883,50.8792 70.5983,54.7012 71.6543,58.3012 C73.3793,64.1832 76.9083,70.4032 82.9693,72.5622 C87.6953,74.2452 91.3653,73.0302 94.0003,71.1302 C94.1883,70.9942 94.3703,70.8552 94.5483,70.7132 C94.7263,70.5712 94.8993,70.4272 95.0663,70.2802 C95.2333,70.1342 95.3943,69.9852 95.5513,69.8362 C96.1773,69.2382 96.7183,68.6242 97.1763,68.0432 C98.4353,66.4482 99.0603,65.1132 99.0603,65.1132 L105.8193,67.3312 C105.6693,67.7832 105.5103,68.2352 105.3403,68.6862 C105.0013,69.5872 104.6193,70.4832 104.1993,71.3732 C103.5693,72.7062 102.8513,74.0212 102.0543,75.3082 C101.5243,76.1652 100.9573,77.0102 100.3603,77.8392 C98.2673,80.7402 95.7793,83.4452 93.0153,85.8142 C92.6193,86.1522 92.2193,86.4842 91.8133,86.8082 C91.8123,86.8092 91.8113,86.8102 91.8093,86.8112 C90.5923,87.7832 89.3273,88.6892 88.0243,89.5202 C87.5893,89.7962 87.1503,90.0652 86.7063,90.3252 C85.9043,90.7952 85.0863,91.2322 84.2593,91.6422 C84.0683,91.7372 83.8743,91.8302 83.6823,91.9212 C82.9953,92.2472 82.3023,92.5502 81.6033,92.8312 C81.3603,92.9282 81.1163,93.0232 80.8723,93.1152 C80.0453,93.4252 79.2113,93.7092 78.3693,93.9532 C77.4113,94.2302 76.4463,94.4612 75.4763,94.6442 C74.5053,94.8282 73.5293,94.9622 72.5513,95.0452 C71.5723,95.1272 70.5923,95.1592 69.6123,95.1352 C65.8743,95.0432 62.2763,94.3492 58.8753,93.1602 C57.1743,92.5652 55.5233,91.8452 53.9283,91.0162 C49.9403,88.9422 46.3043,86.1742 43.1323,82.9222 C41.8633,81.6222 40.6683,80.2432 39.5553,78.8002 C38.4423,77.3572 37.4093,75.8502 36.4663,74.2912" id="Fill-30" fill="#FF8331"></path>
                        <path d="M36.3316,39.3117 C36.3716,39.3307 36.4106,39.3537 36.4526,39.3677 C36.4186,39.4057 36.3816,39.4507 36.3496,39.4777 C36.3406,39.4317 36.3366,39.3707 36.3316,39.3117 Z" id="Stroke-32" stroke="#641340"></path>
                        <path d="M51.0279,34.4821 C51.0259,34.4951 51.0269,34.5081 51.0249,34.5211 C51.0159,34.5011 51.0069,34.4801 50.9989,34.4601 C51.0089,34.4661 51.0169,34.4751 51.0279,34.4821 Z" id="Stroke-34" stroke="#641340"></path>
                        <path d="M36.4527,39.3674 C36.4187,39.4054 36.3817,39.4504 36.3487,39.4774 C36.3407,39.4314 36.3367,39.3704 36.3317,39.3114 C36.3717,39.3304 36.4107,39.3534 36.4527,39.3674 M40.5147,22.2854 C38.9137,26.9484 37.0137,31.4264 35.6367,36.0654 C35.6237,36.1674 35.6107,36.2694 35.5987,36.3654 C35.3347,38.4954 35.2077,39.7264 35.6787,40.2574 C35.8247,40.4234 36.0267,40.5134 36.2447,40.5124 C37.1197,40.5094 37.8457,39.1504 38.9537,36.9404 C39.4237,36.0044 40.1087,34.6384 40.4987,34.2624 C40.8537,34.8694 41.3537,37.0804 41.6947,38.5874 C42.6097,42.6314 43.0407,44.1674 43.9387,44.2434 C44.8547,44.3234 45.2587,42.8984 46.3817,37.2174 C46.8467,34.8654 47.5367,31.3694 48.0207,30.6794 C48.4857,31.0604 49.4737,33.3444 50.0757,34.7364 C51.5207,38.0794 52.1507,39.3324 53.0317,39.2224 C53.9077,39.1134 54.4387,37.7424 55.3027,35.3294 C55.6957,34.2284 56.3617,32.3974 56.7207,32.2044 C57.0297,32.3494 58.0007,34.1674 58.5817,35.2524 C59.8377,37.6034 60.5907,38.9294 61.4697,38.8454 C62.4247,38.7584 62.5067,37.2204 62.4737,32.8464 C62.4607,31.0564 62.4407,28.3974 62.7227,27.7834 C63.5297,28.0564 66.4567,31.3794 68.7797,34.4234 C68.8847,34.5604 69.0497,34.6174 69.2097,34.6004 C69.3897,36.4794 69.4807,38.3584 69.4667,40.2204 C69.5407,31.0404 67.3787,21.4104 62.3907,13.6244 C55.8557,3.4214 41.8027,-5.3816 31.1777,4.8984 C31.3907,4.6924 31.6077,4.5064 31.8237,4.3154 C31.8177,4.3304 31.8027,4.3464 31.7987,4.3614 C33.2717,3.0024 36.4227,3.2684 38.0297,4.0824 C44.8897,7.5614 42.4897,16.5384 40.5147,22.2854" id="Fill-36" fill="#FFFFFF" fill-rule="nonzero"></path>
                        <path d="M35.1167,71.9142 C34.7367,71.2002 34.3797,70.4812 34.0337,69.7612 C34.0197,69.7312 34.0067,69.7022 33.9927,69.6722 C30.8757,63.1402 29.1817,56.3502 29.2657,49.3102 C29.2657,48.9242 29.2737,48.5392 29.2837,48.1372 C29.3947,45.3822 29.7787,42.5902 30.4587,39.7602 C30.6367,39.7892 30.8217,39.7192 30.9317,39.5592 C32.7147,36.9292 34.9827,34.0292 35.8027,33.5282 C35.8787,33.9992 35.7487,35.1512 35.6367,36.0652 C34.7207,39.1512 34.0327,42.3072 33.8257,45.6372 C33.2207,55.4112 35.2427,65.4682 41.3197,73.3452 C42.3767,74.7152 43.5137,76.0202 44.7267,77.2492 C52.3177,84.9392 62.9237,89.5632 74.2437,88.0442 C79.9037,87.2862 85.2397,84.9682 89.8627,81.6492 C94.8057,78.0982 98.8487,73.6552 102.1037,68.5312 C102.1627,68.4382 102.2417,68.3432 102.2877,68.2432 C103.3177,65.9752 105.8757,66.6302 105.8757,66.6302 C105.7267,67.0822 105.5107,68.2352 105.3407,68.6852 C105.0017,69.5872 104.6197,70.4832 104.1997,71.3722 C103.5687,72.7062 102.8507,74.0212 102.0547,75.3082 C101.5237,76.1652 100.9577,77.0102 100.3597,77.8392 C98.2667,80.7402 95.7797,83.4452 93.0147,85.8142 C92.6197,86.1522 92.2197,86.4842 91.8087,86.8112 C90.5927,87.7832 89.3277,88.6892 88.0237,89.5202 C87.5897,89.7962 87.1497,90.0652 86.7067,90.3252 C85.9037,90.7952 85.0867,91.2322 84.2597,91.6422 C84.0677,91.7372 83.8747,91.8302 83.6817,91.9212 C82.9957,92.2472 82.3027,92.5492 81.6027,92.8312 C81.3597,92.9282 81.1167,93.0232 80.8727,93.1152 C80.0457,93.4252 79.2117,93.7092 78.3697,93.9532 C76.4547,94.5062 74.5077,94.8792 72.5517,95.0452 C71.5727,95.1272 70.5927,95.1592 69.6117,95.1352 C65.8747,95.0432 62.2757,94.3492 58.8757,93.1602 C57.1747,92.5652 55.5227,91.8452 53.9287,91.0162 C49.9397,88.9422 46.3047,86.1742 43.1327,82.9222 C41.8637,81.6222 40.6687,80.2432 39.5547,78.8002 C37.8857,76.6362 36.3977,74.3262 35.1167,71.9142" id="Fill-38" fill="#E55E12"></path>
                        <path d="M30.9624,37.8205 C30.9674,37.8165 30.9734,37.8105 30.9784,37.8065 C30.9724,37.8155 30.9654,37.8245 30.9594,37.8335 L30.9624,37.8205 Z" id="Fill-40" fill="#E55E12"></path>
                        <path d="M35.8021,33.5283 C35.8781,33.9993 35.7491,35.1513 35.6361,36.0653 C37.0131,31.4263 38.9141,26.9483 40.5151,22.2853 C42.4901,16.5383 44.8891,7.5613 38.0301,4.0823 C36.4221,3.2683 33.2721,3.0023 31.7981,4.3613 C31.8021,4.3463 31.8181,4.3303 31.8241,4.3153 C31.6081,4.5063 31.3911,4.6923 31.1771,4.8983 C31.1771,4.8983 37.2821,2.8553 38.7691,8.6213 C41.0611,17.5153 34.4551,26.1053 31.9051,34.2283 C30.2391,38.8693 29.4061,43.5323 29.2841,48.1373 C29.3951,45.3823 29.7791,42.5903 30.4581,39.7603 C30.6361,39.7883 30.8221,39.7193 30.9321,39.5593 C32.7141,36.9293 34.9831,34.0293 35.8021,33.5283" id="Fill-42" fill="#D9CFD3" fill-rule="nonzero"></path>
                        <path d="M99.0601,65.113 C99.0601,65.113 93.7711,76.41 82.9691,72.562 C76.9091,70.403 73.3791,64.183 71.6551,58.301 C69.9641,52.54 69.4181,46.215 69.4661,40.224 C69.5401,31.043 67.3791,21.411 62.3911,13.624 C55.8561,3.421 41.8021,-5.382 31.1771,4.899 C31.1771,4.899 37.2821,2.855 38.7691,8.621 C41.0611,17.515 34.4551,26.105 31.9051,34.229 C27.2421,47.217 28.9961,60.392 35.1181,71.917 C41.9451,84.768 54.6621,94.768 69.6121,95.135 C85.2971,95.519 101.0611,81.814 105.8191,67.331" id="Stroke-44" stroke="#251B25" stroke-linecap="round" stroke-linejoin="round"></path>
                        <path d="M43.6353,53.9601 C44.6183,55.2281 46.4443,55.4591 47.7123,54.4761 C48.9803,53.4931 49.2113,51.6681 48.2283,50.4001 C47.2453,49.1311 45.4203,48.9001 44.1523,49.8831 C42.8833,50.8671 42.6533,52.6911 43.6353,53.9601" id="Fill-46" fill="#E55E12"></path>
                        <path d="M38.4204,60.1105 C38.9844,60.8385 40.0304,60.9705 40.7584,60.4065 C41.4854,59.8425 41.6184,58.7965 41.0544,58.0685 C40.4904,57.3415 39.4434,57.2095 38.7164,57.7735 C37.9894,58.3365 37.8574,59.3835 38.4204,60.1105" id="Fill-48" fill="#E55E12"></path>
                        <path d="M78.8316,80.3815 C79.3946,81.1085 80.4416,81.2415 81.1696,80.6775 C81.8966,80.1135 82.0296,79.0675 81.4656,78.3395 C80.9016,77.6125 79.8546,77.4795 79.1276,78.0435 C78.3996,78.6075 78.2686,79.6535 78.8316,80.3815" id="Fill-50" fill="#E55E12"></path>
                        <path d="M46.7281,62.0881 C47.2111,62.7121 48.1091,62.8251 48.7331,62.3421 C49.3571,61.8591 49.4701,60.9611 48.9871,60.3371 C48.5031,59.7131 47.6061,59.6001 46.9821,60.0831 C46.3581,60.5671 46.2451,61.4641 46.7281,62.0881" id="Fill-52" fill="#E55E12"></path>
                        <path d="M49.9732,137.3757 C49.7752,137.2557 49.5812,137.1307 49.3942,137.0037 C49.5812,137.1307 49.7752,137.2557 49.9732,137.3757" id="Fill-54" fill="#FFFFFF"></path>
                        <path d="M44.4527,131.778 C44.4527,131.778 45.1817,133.059 46.5627,134.55 C45.1817,133.059 44.4527,131.778 44.4527,131.778" id="Fill-56" fill="#FF8331"></path>
                        <path d="M49.3941,137.0036 C49.2061,136.8756 49.0221,136.7456 48.8441,136.6126 C49.0221,136.7456 49.2061,136.8756 49.3941,137.0036" id="Fill-58" fill="#FF8331"></path>
                        <path d="M46.563,134.5505 C47.065,135.0925 47.654,135.6615 48.325,136.2085 C47.654,135.6615 47.065,135.0925 46.563,134.5505" id="Fill-60" fill="#FF8331"></path>
                        <path d="M39.8257,138.4245 C39.3367,137.5715 38.8857,136.7085 38.4747,135.8365 C38.8857,136.7085 39.3367,137.5715 39.8257,138.4245" id="Fill-62" fill="#FF8331"></path>
                        <path d="M100.8296,25.6735 C97.1676,24.7935 89.1686,39.7185 89.1686,39.7185 C95.7506,42.0335 101.0646,45.3985 105.1296,49.7975 C105.1296,49.7975 106.0856,27.0735 100.8296,25.6735" id="Fill-64" fill="#E55E12"></path>
                        <path d="M100.7808,33.4831 C98.8518,32.9591 94.3698,41.5791 94.3698,41.5791 L102.3568,46.7231 C102.3568,46.7231 102.7108,34.0071 100.7808,33.4831" id="Fill-66" fill="#D9CFD3"></path>
                        <path d="M105.1294,49.7975 C105.1294,49.7975 106.0854,27.0735 100.8294,25.6735 C97.1674,24.7935 89.1684,39.7185 89.1684,39.7185" id="Stroke-68" stroke="#251B25" stroke-linecap="round" stroke-linejoin="round"></path>
                        <path d="M102.357,46.7233 C102.357,46.7233 102.711,34.0073 100.781,33.4833 C98.852,32.9583 94.446,41.4193 94.446,41.4193" id="Stroke-70" stroke="#251B25" stroke-linecap="round" stroke-linejoin="round"></path>
                        <path d="M100.5659,136.2946 C104.0989,135.8926 107.6279,135.4506 111.1549,134.9886 L113.4389,133.4136 L120.9619,120.2976 L122.2269,114.4756 L119.8059,104.7836 L115.6159,86.6986 L113.7869,72.3836 L109.9969,56.5996 C109.9969,56.5996 93.8449,45.2536 94.6509,45.8706 C95.4579,46.4876 83.2539,45.0296 83.2539,45.0296 L67.8789,50.1556 L57.3839,54.5296 L55.2279,66.2756 L58.9749,102.1536 L59.0099,120.4346 L74.8089,133.9396 L80.8659,136.9626 C87.4199,136.4086 93.9949,136.3616 100.5659,136.2946" id="Fill-72" fill="#FFFFFF"></path>
                        <path d="M50.4009,25.1799 C47.6009,26.2359 43.3719,42.7109 47.6019,54.9489 L66.9949,40.6539 C62.4729,31.8239 52.7179,24.7209 50.4009,25.1799" id="Fill-74" fill="#FF8331"></path>
                        <path d="M125.1617,109.0095 C122.2947,100.9625 116.5487,96.1925 115.6157,86.6985 C115.1247,81.7065 114.3997,77.3625 113.7867,72.3835 C113.7097,71.7585 113.6357,71.1335 113.5577,70.5085 C113.0927,66.7905 111.5637,61.0785 110.4427,57.7585 C109.5087,58.8725 104.2087,67.0965 105.5027,78.6705 C105.5607,79.1675 105.6387,79.6695 105.7337,80.1755 C106.8497,85.1595 110.5057,88.6515 108.8587,89.7935 C107.4427,90.7775 105.7727,91.1825 104.2197,91.8865 C102.3017,92.7545 100.6197,93.9335 99.0417,95.3125 C98.9097,95.4275 98.7737,95.5145 98.6377,95.5855 C98.8647,99.5985 100.6897,103.0515 105.2287,103.0975 C106.8617,103.1135 108.5497,102.6065 110.1847,102.1305 C109.8617,102.0825 109.5387,102.0525 109.2227,102.0895 C108.7077,102.1495 108.2037,101.8925 108.0907,101.3475 C107.9917,100.8735 108.3187,100.2755 108.8327,100.2155 C109.1337,100.1805 109.4277,100.1835 109.7167,100.2005 C110.2297,99.8275 110.8357,99.7505 111.4457,99.8205 C111.4517,99.8065 111.4587,99.7905 111.4607,99.7855 C111.4857,99.7025 111.5137,99.6185 111.5297,99.5325 C111.5547,99.4045 111.5577,99.2735 111.5517,99.1405 C111.5217,98.6215 112.8697,97.8815 112.8697,97.8815 L113.5897,99.5305 C113.5897,99.5305 113.9587,100.5055 114.0637,100.7485 C114.3037,101.2975 119.8497,114.2965 114.7697,124.0035 C110.8487,131.4995 102.3377,135.0235 94.1357,134.8915 C83.0347,134.7115 73.5717,127.3975 69.7517,117.0795 C67.8037,111.8195 68.1587,106.6335 68.0127,101.1635 C67.8657,95.6915 66.5987,91.5655 68.1977,85.2705 C70.3497,76.7955 63.9127,65.8005 59.4167,60.4865 C57.6777,58.3765 57.9237,57.1455 59.9587,57.3685 C63.0807,58.0605 68.6937,58.7195 71.6287,58.2525 C74.4707,57.8005 77.0937,56.1545 78.8787,53.9175 C80.6467,51.7025 81.6337,47.8805 84.4127,47.3885 C84.5917,47.3225 85.3507,47.4595 85.9937,47.8095 C86.1867,47.7265 86.3857,47.6585 86.5787,47.6235 C87.9517,47.3705 88.0047,47.9655 89.3817,48.1205 C89.5127,47.8895 89.5627,47.3985 89.7417,47.4245 C91.4127,47.8005 92.2587,48.8375 93.1917,50.0765 C95.0677,52.5685 96.3517,55.4555 99.3117,56.8755 C102.2287,58.2745 105.6667,58.3955 108.8187,57.9235 C108.9537,57.9025 110.1607,57.6345 110.3777,57.4985 C110.4837,57.4745 108.3607,53.4675 107.0807,51.7695 C103.5477,47.0825 98.8547,43.3425 93.5497,40.8485 C87.5587,38.0335 80.9167,36.8345 74.3527,37.1985 C60.4697,36.6765 50.2207,47.2745 50.2207,47.2745 C50.2207,47.2745 34.6247,65.4255 30.7697,92.0105 C27.8217,112.3425 37.5967,128.4505 47.9417,138.6765 C53.4367,138.6855 58.9327,138.7005 64.4287,138.7005 C69.4117,138.4505 74.3977,138.2545 79.3827,138.0035 C79.4187,137.5305 79.7267,137.0585 80.3267,137.0045 C87.0697,136.4055 93.8357,136.3635 100.5987,136.2945 C108.6947,135.3735 116.7657,134.2245 124.8497,133.1825 C128.4837,123.6915 126.9827,114.1205 125.1617,109.0095" id="Fill-76" fill="#FF8331"></path>
                        <path d="M46.106,52.1535 C46.397,52.1955 47.402,55.2395 47.543,55.5805 C47.409,55.8765 50.422,54.3845 51.524,51.9765 C51.568,50.8725 45.404,46.9765 50.593,25.2445 C49.439,25.4505 50.46,25.1975 50.401,25.1795 C44.045,29.6105 46.542,51.4695 46.542,51.4695 C46.542,51.4695 46.38,51.7095 46.106,52.1535" id="Fill-78" fill="#E55E12"></path>
                        <path d="M64.4283,138.7009 C64.8063,138.6819 65.1843,138.6599 65.5623,138.6409 C52.4523,129.4029 34.5103,109.6379 37.7503,83.4509 C39.3583,70.4659 43.8443,59.5769 48.0633,51.7529 C47.9343,51.3499 47.8193,50.9449 47.7143,50.5369 C43.1573,56.8729 33.6623,72.0549 30.7703,92.0109 C27.8223,112.3429 37.5963,128.4509 47.9423,138.6769 C53.4373,138.6849 58.9323,138.6999 64.4283,138.7009" id="Fill-80" fill="#E55E12"></path>
                        <path d="M39.2847,127.9724 C32.7567,117.7124 29.3847,105.6044 30.4927,93.0514 C31.8057,78.1914 38.1197,64.0614 46.6967,51.9434" id="Stroke-82" stroke="#251B25" stroke-linecap="round" stroke-linejoin="round"></path>
                        <path d="M86.7749,40.1428 C86.2709,40.9128 85.2379,41.1278 84.4679,40.6228 C83.6989,40.1188 83.4829,39.0858 83.9879,38.3158 C84.4919,37.5458 85.5249,37.3308 86.2949,37.8358 C87.0639,38.3398 87.2799,39.3728 86.7749,40.1428" id="Fill-84" fill="#E55E12"></path>
                        <path d="M76.9732,42.6691 C76.5922,43.2501 75.8122,43.4121 75.2312,43.0311 C74.6502,42.6501 74.4882,41.8711 74.8692,41.2901 C75.2492,40.7091 76.0302,40.5461 76.6112,40.9271 C77.1912,41.3081 77.3542,42.0881 76.9732,42.6691" id="Fill-86" fill="#E55E12"></path>
                        <path d="M54.8316,33.5783 C53.6516,34.1893 52.4656,39.0503 54.1356,44.7133 L62.5836,39.4813 C58.6026,34.5343 56.1566,32.8923 54.8316,33.5783" id="Fill-88" fill="#FFFFFF"></path>
                        <path d="M55.6314,33.5563 C55.3114,33.4753 55.0364,33.4723 54.8314,33.5783 C53.6524,34.1893 52.4654,39.0503 54.1354,44.7133 L56.4634,42.9123 C54.6804,38.5043 54.9674,35.3663 55.6314,33.5563" id="Fill-90" fill="#D9CFD3"></path>
                        <path d="M54.1353,44.7136 C60.2013,39.3406 68.5593,37.1576 76.5303,37.1356 C82.3843,37.1196 88.2453,38.3556 93.5493,40.8486 C98.8553,43.3426 103.5473,47.0826 107.0803,51.7696 C111.3443,57.4256 112.6933,63.5876 113.5573,70.5086 C113.6353,71.1336 113.7093,71.7586 113.7863,72.3836 C114.8233,80.7936 115.5013,88.5686 119.0063,96.3936 C122.2383,103.6096 126.7913,110.8336 127.3203,118.9226 C127.4743,121.2846 127.3383,123.6576 126.9443,125.9916" id="Stroke-92" stroke="#251B25" stroke-linecap="round" stroke-linejoin="round"></path>
                        <path d="M47.6021,54.9484 C43.3721,42.7114 47.6011,26.2354 50.4011,25.1794 C52.5331,24.7574 60.9631,30.7384 65.8181,38.5744" id="Stroke-94" stroke="#251B25" stroke-linecap="round" stroke-linejoin="round"></path>
                        <path d="M54.3218,47.0485 C52.6518,41.3845 53.6518,34.1895 54.8318,33.5785 C55.9908,32.9785 59.1458,35.5215 62.5838,39.4815" id="Stroke-96" stroke="#251B25" stroke-linecap="round" stroke-linejoin="round"></path>
                        <path d="M90.3384,48.3244 C90.2974,49.1914 88.1934,50.8764 87.3344,50.8354 C86.4764,50.7954 83.5044,49.2194 83.5454,48.3514 C83.5864,47.4844 90.3794,47.4574 90.3384,48.3244" id="Fill-98" fill="#641340"></path>
                        <path d="M90.3384,48.3244 C90.2974,49.1914 88.1934,50.8764 87.3344,50.8354 C86.4764,50.7954 83.5044,49.2194 83.5454,48.3514 C83.5864,47.4844 90.3794,47.4574 90.3384,48.3244 Z" id="Stroke-100" stroke="#641340" stroke-linecap="round" stroke-linejoin="round"></path>
                        <path d="M87.3667,51.0617 C87.3667,51.0617 87.4257,52.8737 87.4257,52.8787 C87.4697,54.2297 86.6017,54.8267 85.3767,54.5877 C84.0777,54.3347 83.7337,52.9927 84.4127,52.2227" id="Stroke-102" stroke="#641340" stroke-linecap="round" stroke-linejoin="round"></path>
                        <path d="M90.064,52.1144 C90.534,52.3834 90.835,53.5694 89.817,54.3084 C88.002,55.2014 87.308,53.7624 87.308,53.7624" id="Stroke-104" stroke="#641340" stroke-linecap="round" stroke-linejoin="round"></path>
                        <path d="M75.8208,54.8825 C75.8358,55.8455 73.8658,56.6565 71.4218,56.6935 C68.9768,56.7295 66.9838,55.9785 66.9688,55.0145 C66.9548,54.0515 68.9248,53.2405 71.3698,53.2035 C73.8138,53.1675 75.8068,53.9185 75.8208,54.8825" id="Fill-106" fill="#E55E12"></path>
                        <path d="M107.9615,54.8825 C107.9765,55.8455 106.0065,56.6565 103.5625,56.6935 C101.1175,56.7295 99.1245,55.9785 99.1095,55.0145 C99.0955,54.0515 101.0655,53.2405 103.5095,53.2035 C105.9535,53.1675 107.9465,53.9185 107.9615,54.8825" id="Fill-108" fill="#E55E12"></path>
                        <path d="M50.0884,68.0436 C50.9734,66.9016 52.6164,66.6936 53.7584,67.5786 C54.9004,68.4626 55.1094,70.1066 54.2244,71.2486 C53.3394,72.3906 51.6954,72.5986 50.5544,71.7136 C49.4114,70.8286 49.2034,69.1856 50.0884,68.0436" id="Fill-110" fill="#E55E12"></path>
                        <path d="M45.4673,64.2106 C46.0953,63.3996 47.2613,63.2526 48.0713,63.8806 C48.8823,64.5086 49.0303,65.6746 48.4023,66.4856 C47.7743,67.2956 46.6083,67.4436 45.7973,66.8156 C44.9873,66.1876 44.8393,65.0216 45.4673,64.2106" id="Fill-112" fill="#E55E12"></path>
                        <path d="M52.8716,60.7253 C53.3076,60.1633 54.1146,60.0613 54.6766,60.4963 C55.2376,60.9323 55.3406,61.7403 54.9056,62.3013 C54.4706,62.8633 53.6616,62.9653 53.1006,62.5303 C52.5386,62.0953 52.4356,61.2873 52.8716,60.7253" id="Fill-114" fill="#E55E12"></path>
                        <path d="M51.813,123.1179 C50.934,124.4599 49.133,124.8349 47.791,123.9549 C46.449,123.0749 46.074,121.2739 46.954,119.9319 C47.833,118.5899 49.634,118.2159 50.976,119.0949 C52.318,119.9739 52.693,121.7749 51.813,123.1179" id="Fill-116" fill="#E55E12"></path>
                        <path d="M54.4263,113.5778 C53.9933,114.2378 53.1083,114.4228 52.4473,113.9898 C51.7873,113.5568 51.6033,112.6708 52.0353,112.0108 C52.4683,111.3508 53.3543,111.1668 54.0143,111.5988 C54.6743,112.0318 54.8593,112.9178 54.4263,113.5778" id="Fill-118" fill="#E55E12"></path>
                        <path d="M75.1558,49.1506 C76.6948,50.1426 77.1378,52.1946 76.1458,53.7336 C75.1538,55.2736 73.1018,55.7166 71.5628,54.7246 C70.0238,53.7326 69.5798,51.6806 70.5728,50.1416 C71.5648,48.6016 73.6168,48.1586 75.1558,49.1506" id="Fill-120" fill="#FFFFFF"></path>
                        <path d="M74.4234,50.2873 C75.3344,50.8743 75.5974,52.0903 75.0104,53.0013 C74.4224,53.9133 73.2064,54.1763 72.2954,53.5883 C71.3844,53.0003 71.1214,51.7853 71.7084,50.8733 C72.2964,49.9623 73.5124,49.6993 74.4234,50.2873" id="Fill-122" fill="#641340"></path>
                        <path d="M75.564,51.9206 C75.925,52.1536 76.03,52.6356 75.796,52.9976 C75.563,53.3596 75.082,53.4636 74.719,53.2306 C74.358,52.9976 74.253,52.5146 74.487,52.1536 C74.72,51.7916 75.202,51.6876 75.564,51.9206" id="Fill-124" fill="#FFFFFF"></path>
                        <path d="M102.771,49.1506 C104.31,50.1426 104.753,52.1946 103.761,53.7336 C102.769,55.2736 100.716,55.7166 99.177,54.7246 C97.638,53.7326 97.195,51.6806 98.187,50.1416 C99.179,48.6016 101.232,48.1586 102.771,49.1506" id="Fill-126" fill="#FFFFFF"></path>
                        <path d="M102.0376,50.2873 C102.9496,50.8743 103.2126,52.0903 102.6246,53.0013 C102.0366,53.9133 100.8216,54.1763 99.9096,53.5883 C98.9986,53.0003 98.7356,51.7853 99.3236,50.8733 C99.9116,49.9623 101.1266,49.6993 102.0376,50.2873" id="Fill-128" fill="#641340"></path>
                        <path d="M103.1783,51.9206 C103.5403,52.1536 103.6443,52.6356 103.4113,52.9976 C103.1783,53.3596 102.6963,53.4636 102.3343,53.2306 C101.9723,52.9976 101.8673,52.5146 102.1013,52.1536 C102.3343,51.7916 102.8173,51.6876 103.1783,51.9206" id="Fill-130" fill="#FFFFFF"></path>
                        <path d="M56.3824,58.3273 C51.5744,60.3943 48.6814,64.3443 48.0514,69.3723 C43.8564,66.3563 39.1734,65.7293 34.3664,67.7973 C27.5394,70.7333 24.6244,79.2253 27.8564,86.7643 C34.9404,103.2903 60.5834,104.0183 60.5834,104.0183 C60.5834,104.0183 63.5434,103.7593 65.0214,101.7093 C69.8144,95.0613 79.4834,78.0633 74.5954,66.6603 C71.3634,59.1213 63.2094,55.3903 56.3824,58.3273" id="Fill-132" fill="#FF3671"></path>
                        <path d="M32.2388,81.5012 C30.7718,76.1132 32.2298,70.7652 35.6008,67.3512 C35.1858,67.4792 34.7728,67.6222 34.3668,67.7972 C27.5398,70.7332 24.6248,79.2262 27.8558,86.7642 C34.9398,103.2912 60.5838,104.0182 60.5838,104.0182 C60.5838,104.0182 61.3788,103.7852 61.5048,103.6172 C55.4958,102.0782 36.2688,96.3132 32.2388,81.5012" id="Fill-134" fill="#D9004F"></path>
                        <path d="M69.6646,65.5939 C69.1816,66.6539 66.8036,66.4729 64.3546,65.1899 C61.9056,63.9069 60.3116,62.0079 60.7966,60.9479 C61.2796,59.8879 63.6576,60.0689 66.1066,61.3519 C68.5566,62.6349 70.1486,64.5339 69.6646,65.5939" id="Fill-136" fill="#FFFFFF"></path>
                        <path d="M56.3824,58.3273 C51.5744,60.3943 48.6814,64.3443 48.0514,69.3723 C43.8564,66.3563 39.1734,65.7293 34.3664,67.7973 C27.5394,70.7333 24.6244,79.2253 27.8564,86.7643 C34.9404,103.2903 60.5834,104.0183 60.5834,104.0183 C60.5834,104.0183 63.5434,103.7593 65.0214,101.7093 C69.8144,95.0613 79.4834,78.0633 74.5954,66.6603 C71.3634,59.1213 63.2094,55.3903 56.3824,58.3273 Z" id="Stroke-138" stroke="#251B25" stroke-linecap="round" stroke-linejoin="round"></path>
                        <path d="M115.8814,71.3815 C110.1124,70.0025 104.8084,71.6285 100.8284,75.7695 C99.0614,70.1875 95.2324,66.4445 89.4644,65.0655 C81.2724,63.1075 72.8694,68.8465 70.6974,77.8845 C65.9344,97.6975 88.7364,115.7355 88.7364,115.7355 C88.7364,115.7355 91.6014,117.5055 94.3314,116.6455 C103.1924,113.8535 123.4924,104.9645 126.7794,91.2925 C128.9524,82.2545 124.0724,73.3395 115.8814,71.3815" id="Fill-140" fill="#FF3671"></path>
                        <path d="M78.2447,76.0729 C80.5637,70.1849 85.5137,66.3139 90.8887,65.4969 C90.4247,65.3329 89.9527,65.1819 89.4647,65.0659 C81.2717,63.1069 72.8697,68.8469 70.6977,77.8849 C65.9337,97.6979 88.7367,115.7349 88.7367,115.7349 C88.7367,115.7349 89.6167,116.0609 89.8457,115.9949 C85.4307,110.5249 71.8697,92.2599 78.2447,76.0729" id="Fill-142" fill="#D9004F"></path>
                        <path d="M96.6187,74.9177 C95.9777,76.0727 93.3067,75.6577 90.6537,73.9907 C88.0017,72.3247 86.3697,70.0377 87.0107,68.8827 C87.6507,67.7287 90.3207,68.1437 92.9737,69.8097 C95.6277,71.4767 97.2597,73.7637 96.6187,74.9177" id="Fill-144" fill="#FFFFFF"></path>
                        <path d="M115.8814,71.3815 C110.1124,70.0025 104.8084,71.6285 100.8284,75.7695 C99.0614,70.1875 95.2324,66.4445 89.4644,65.0655 C81.2724,63.1075 72.8694,68.8465 70.6974,77.8845 C65.9344,97.6975 88.7364,115.7355 88.7364,115.7355 C88.7364,115.7355 91.6014,117.5055 94.3314,116.6455 C103.1924,113.8535 123.4924,104.9645 126.7794,91.2925 C128.9524,82.2545 124.0724,73.3395 115.8814,71.3815 Z" id="Stroke-146" stroke="#251B25" stroke-linecap="round" stroke-linejoin="round"></path>
                        <polygon id="Fill-148" fill="#251B25" points="13.4966 130.4558 1.0346 134.5418 57.1596 149.7918 75.0796 145.9108"></polygon>
                        <path d="M75.3296,147.2536 C75.3296,148.7706 64.1076,149.9996 50.2656,149.9996 C36.4236,149.9996 25.2006,148.7706 25.2006,147.2536 C25.2006,145.7356 36.4236,144.5066 50.2656,144.5066 C64.1076,144.5066 75.3296,145.7356 75.3296,147.2536" id="Fill-150" fill="#251B25"></path>
                        <polygon id="Fill-152" fill="#CB7978" points="75.0796 90.7819 34.3006 82.0689 13.4966 75.3269 13.4966 100.9639 15.6316 111.3429 13.4966 130.4559 75.0796 145.9109 72.8806 132.7749"></polygon>
                        <polygon id="Fill-154" fill="#EC9897" points="75.0796 90.7819 115.8596 82.0689 136.6636 75.3269 136.6636 100.9639 134.7546 118.4489 136.6636 130.4559 75.0796 145.9109 72.8806 132.7749"></polygon>
                        <polygon id="Fill-156" fill="#EC9897" points="13.4966 75.3268 0.4996 97.4998 40.1096 105.8138 62.0836 112.9498 75.0796 90.7818 35.8236 82.6048"></polygon>
                        <polygon id="Fill-158" fill="#B15E5D" points="14.731 106.9655 27.927 116.9825 15.383 113.5585"></polygon>
                        <polygon id="Fill-160" fill="#B15E5D" points="63.2359 135.7087 72.8809 130.2367 72.8809 133.6777"></polygon>
                        <polygon id="Fill-162" fill="#CB7978" points="79.1411 136.4978 72.8801 130.2368 72.8801 133.6778"></polygon>
                        <polygon id="Fill-164" fill="#CB7978" points="48.8335 101.8405 40.1095 105.8145 43.6905 106.7715"></polygon>
                        <polygon id="Fill-166" fill="#CB7978" points="129.8472 123.7507 134.4392 117.4897 134.4392 120.9307"></polygon>
                        <polygon id="Fill-168" fill="#B15E5D" points="13.4966 100.9636 14.7306 105.1456 65.1146 118.3526 74.7796 92.9526 62.0836 112.9496 42.2946 106.6686"></polygon>
                        <polyline id="Stroke-170" stroke="#251B25" stroke-linecap="round" stroke-linejoin="round" points="13.4966 100.9636 15.6316 111.3426 13.4966 130.4556 75.0796 145.9106 72.8806 132.7756 75.0796 90.7816 34.3006 82.0686 13.4966 75.3266"></polyline>
                        <polyline id="Stroke-172" stroke="#251B25" stroke-linecap="round" stroke-linejoin="round" points="75.0796 145.9108 136.6636 130.4558 134.7546 118.4488 136.7946 99.6708"></polyline>
                        <polygon id="Fill-174" fill="#FFB0AF" points="136.6636 75.3268 105.3396 84.8898 75.0796 90.7818 88.0766 112.9498 127.4226 100.8798 149.6606 97.4998"></polygon>
                        <polygon id="Fill-176" fill="#CB7978" points="117.2173 94.3649 127.6983 100.6309 124.5383 101.9889"></polygon>
                        <polygon id="Fill-178" fill="#CB7978" points="117.2173 98.2497 120.6783 103.1747 118.3743 102.7717"></polygon>
                        <polyline id="Stroke-180" stroke="#251B25" stroke-linecap="round" stroke-linejoin="round" points="136.6636 75.3264 103.6766 85.3974 75.0796 90.7824"></polyline>
                        <polyline id="Stroke-182" stroke="#251B25" stroke-linecap="round" stroke-linejoin="round" points="13.4966 75.3264 0.4996 97.4994 40.1096 105.8144 62.0836 112.9504 75.0796 90.7824"></polyline>
                        <polyline id="Stroke-184" stroke="#251B25" stroke-linecap="round" stroke-linejoin="round" points="136.6636 75.3264 149.6596 97.4994 127.4226 100.8794 88.0766 112.9504 75.0796 90.7824"></polyline>
                        <path d="M46.7134,117.4509 C44.2014,120.0049 43.3904,123.2549 44.2904,126.6039 C40.8534,125.7779 37.7234,126.5919 35.2124,129.1449 C31.6464,132.7709 31.9954,138.9059 35.9924,142.8469 C44.7544,151.4859 61.1914,145.3149 61.1914,145.3149 C61.1914,145.3149 62.9994,144.3859 63.4054,142.7059 C64.7234,137.2529 66.4544,123.9819 60.4074,118.0209 C56.4104,114.0799 50.2794,113.8249 46.7134,117.4509" id="Fill-186" fill="#FF3671"></path>
                        <path d="M37.4077,138.3786 C35.0857,135.3436 34.6267,131.5776 35.8797,128.5426 C35.6497,128.7316 35.4257,128.9286 35.2127,129.1456 C31.6457,132.7716 31.9957,138.9056 35.9927,142.8466 C44.7547,151.4856 61.1907,145.3156 61.1907,145.3156 C61.1907,145.3156 61.6347,144.9616 61.6717,144.8226 C57.4657,145.4006 43.7927,146.7216 37.4077,138.3786" id="Fill-188" fill="#D9004F"></path>
                        <path d="M54.2964,117.7263 C54.6934,118.4173 53.6474,119.6693 51.9574,120.5223 C50.2694,121.3743 48.5774,121.5053 48.1804,120.8143 C47.7824,120.1223 48.8294,118.8723 50.5184,118.0193 C52.2074,117.1653 53.8994,117.0353 54.2964,117.7263" id="Fill-190" fill="#FFFFFF"></path>
                        <path d="M46.7134,117.4509 C44.2014,120.0049 43.3904,123.2549 44.2904,126.6039 C40.8534,125.7779 37.7234,126.5919 35.2124,129.1449 C31.6464,132.7709 31.9954,138.9059 35.9924,142.8469 C44.7544,151.4859 61.1914,145.3149 61.1914,145.3149 C61.1914,145.3149 62.9994,144.3859 63.4054,142.7059 C64.7234,137.2529 66.4544,123.9819 60.4074,118.0209 C56.4104,114.0799 50.2794,113.8249 46.7134,117.4509 Z" id="Stroke-192" stroke="#251B25" stroke-linecap="round" stroke-linejoin="round"></path>
                        <path d="M87.6431,129.6306 L87.6431,123.7506 L79.9261,125.6626 L79.9261,131.5476 C79.9261,133.3936 81.2411,134.6196 82.9791,134.5606 L82.9791,138.8546 L81.0951,139.3236 C80.5811,139.4516 80.1611,139.9786 80.1611,140.4926 C80.1611,141.0066 80.5811,141.3226 81.0951,141.1936 L86.4741,139.8526 C86.9891,139.7236 87.4101,139.1976 87.4101,138.6846 C87.4101,138.1706 86.9891,137.8546 86.4741,137.9836 L84.5901,138.4526 L84.5901,134.1586 C86.3291,133.3536 87.6431,131.4756 87.6431,129.6306" id="Fill-194" fill="#641340"></path>
                    </g>
                </g>
            </g>
        </g>
    </g>
</svg>