<?xml version="1.0" encoding="UTF-8"?>
<svg width="154px" height="118px" viewBox="0 0 154 118" version="1.1" xmlns="http://www.w3.org/2000/svg" xmlns:xlink="http://www.w3.org/1999/xlink">
    <!-- Generator: Sketch 52.4 (67378) - http://www.bohemiancoding.com/sketch -->
    <title>likes-given-1</title>
    <desc>Created with Sketch.</desc>
    <defs>
        <polygon id="path-1" points="0.931 0.1387 0.931 5.1277 0.137 5.1277 0.137 0.1387"></polygon>
        <polygon id="path-3" points="0.931 0.1284 0.931 5.1114 0.1546 5.1114 0.1546 0.1284"></polygon>
    </defs>
    <g id="PRO" stroke="none" stroke-width="1" fill="none" fill-rule="evenodd">
        <g id="PRO-page-web" transform="translate(-160.000000, -422.000000)">
            <g id="Pro" transform="translate(149.000000, 422.000000)">
                <g id="likes-given-1" transform="translate(11.000000, 0.000000)">
                    <path d="M38.39,0.6345 C35.216,1.9715 37.416,17.2995 37.416,17.2995 C43.518,15.4355 49.255,15.0325 54.633,16.0695 C54.633,16.0695 43.019,-1.1835 38.39,0.6345" id="Fill-1" fill="#E55E12"></path>
                    <path d="M42.5872,6.4119 C40.8822,7.0719 42.2542,15.8499 42.2542,15.8499 L50.9252,15.3079 C50.9252,15.3079 44.2922,5.7529 42.5872,6.4119" id="Fill-3" fill="#D9CFD3"></path>
                    <path d="M54.6331,16.0691 C54.6331,16.0691 43.0191,-1.1839 38.3901,0.6341 C35.2161,1.9711 37.4161,17.2991 37.4161,17.2991" id="Stroke-5" stroke="#251B25" stroke-linecap="round" stroke-linejoin="round"></path>
                    <path d="M50.9256,15.3079 C50.9256,15.3079 44.2926,5.7529 42.5876,6.4119 C40.8826,7.0719 42.2246,15.6909 42.2246,15.6909" id="Stroke-7" stroke="#251B25" stroke-linecap="round" stroke-linejoin="round"></path>
                    <path d="M62.1253,19.3035 C62.1253,19.3035 44.0853,18.7215 45.0113,18.7895 C45.9373,18.8575 35.8733,23.8595 35.8733,23.8595 L26.6843,35.4855 L20.8493,44.0915 L25.0883,54.1555 L45.9373,79.7175 L55.1263,93.6785 L73.9783,96.0895 L83.2763,94.9955 L98.2303,88.6605 L103.2593,76.3255 L102.4383,62.5235 L100.4873,57.4365 L93.7783,51.2385 L81.5093,39.5075 L72.9353,29.4755 L62.1253,19.3035 Z" id="Fill-9" fill="#FFFFFF"></path>
                    <path d="M54.1566,73.5413 L66.9866,70.8723 L83.6556,59.5063 C83.6556,59.5063 80.1126,75.7363 79.0856,76.4483 C78.0566,77.1613 67.5996,80.0083 53.3586,77.9783 C52.9796,77.7373 50.9806,72.8743 50.9806,72.8743 L54.1566,73.5413 Z" id="Fill-11" fill="#D9CFD3"></path>
                    <path d="M114.2777,114.4007 C114.2777,116.0937 96.7667,117.4667 75.1667,117.4667 C53.5667,117.4667 36.0557,116.0937 36.0557,114.4007 C36.0557,112.7077 53.5667,111.3357 75.1667,111.3357 C96.7667,111.3357 114.2777,112.7077 114.2777,114.4007" id="Fill-13" fill="#251B25"></path>
                    <path d="M0.7982,25.1448 C-0.8138,27.3548 4.2092,42.0758 13.5782,49.3148 L21.2442,28.6618 C13.3612,24.1748 2.3402,23.6318 0.7982,25.1448" id="Fill-15" fill="#FF8331"></path>
                    <path d="M99.9925,51.7849 C93.7655,47.0679 86.9805,46.2999 81.5095,39.5069 C78.6315,35.9349 75.9005,32.9759 72.9355,29.4749 C72.5625,29.0359 72.1925,28.5949 71.8195,28.1569 C69.6005,25.5459 65.5685,21.9429 63.0485,19.9669 C62.8905,21.2869 62.9595,30.2329 69.7505,38.4359 C70.0445,38.7869 70.3545,39.1329 70.6815,39.4719 C74.0335,42.7239 78.5795,43.5609 77.8925,45.2609 C77.3035,46.7229 76.2285,47.8699 75.3925,49.1859 C74.3615,50.8119 73.6655,52.5559 73.1505,54.4019 C73.1075,54.5559 73.0475,54.6899 72.9785,54.8139 C75.1625,57.7679 78.2905,59.4939 81.7845,57.2549 C81.8275,57.2269 81.8655,57.1899 81.9085,57.1609 C81.8735,57.0079 81.8515,56.8509 81.8505,56.6929 C81.8375,54.9589 81.8125,53.3949 82.5065,51.7669 C82.8405,50.9829 83.7355,50.6339 84.5755,50.6679 C84.6335,50.1559 85.0135,49.4359 85.0135,49.4359 L86.3905,50.3359 C86.3905,50.3359 87.1625,50.8969 87.3645,51.0299 C87.8215,51.3299 98.5795,58.4919 99.5605,68.4609 C100.3175,76.1599 95.5755,83.1199 89.2355,87.1309 C80.6565,92.5579 69.7525,91.7059 61.6595,85.7309 C57.5325,82.6839 55.2055,78.5389 52.3515,74.4299 C49.4975,70.3179 46.4605,67.7969 44.5275,62.1819 C41.9265,54.6199 31.4925,49.4389 25.3895,47.6279 C23.0015,46.8869 22.5735,45.8209 24.2415,44.9719 C26.9765,43.9359 31.5995,41.6269 33.6105,39.7989 C35.5555,38.0289 36.7375,35.4539 36.9815,32.8499 C37.2235,30.2689 36.1085,26.8289 37.9875,25.0599 C38.0915,24.9199 38.6955,24.6659 39.3625,24.6119 C39.4685,24.4509 39.5855,24.2999 39.7165,24.1759 C40.6395,23.2949 40.9775,23.7229 42.1085,23.1519 C42.0935,22.9099 41.8805,22.5299 42.0315,22.4599 C43.3655,21.9459 44.6685,22.2579 46.0035,22.7379 C48.6875,23.7029 51.1165,25.2679 54.0915,24.8699 C57.0235,24.4769 59.7145,22.8479 61.8875,20.9059 C61.9815,20.8229 62.7695,20.0129 62.8665,19.7999 C62.9365,19.7279 59.3045,17.7279 57.4735,17.0709 C52.4235,15.2569 46.9595,14.7489 41.6515,15.5009 C35.6595,16.3499 29.9785,18.7629 25.1405,22.3309 C14.2605,28.8909 11.7335,42.1339 11.7335,42.1339 C11.7335,42.1339 8.9035,63.8309 19.2815,86.0959 C29.6585,108.3599 53.0545,114.2089 66.8285,114.3979 C78.6305,114.5599 96.8045,108.7639 106.2765,95.5879 L109.9875,88.9489 C110.0675,88.7539 110.1465,88.5579 110.2245,88.3599 C117.3945,70.0579 106.2195,56.5019 99.9925,51.7849" id="Fill-17" fill="#FF8331"></path>
                    <path d="M11.033,47.9265 C11.276,47.8125 13.571,49.6375 13.849,49.8265 C13.896,50.1205 15.453,47.4695 15.088,45.0755 C14.568,44.2095 7.901,44.3195 0.977,25.0975 C0.198,25.8335 0.853,25.1275 0.798,25.1445 C-1.842,31.7185 11.023,47.1855 11.023,47.1855 C11.023,47.1855 11.02,47.4485 11.033,47.9265" id="Fill-19" fill="#E55E12"></path>
                    <path d="M103.6204,94.1467 C103.5064,94.0697 103.4204,93.9777 103.3564,93.8787 C93.1344,101.1767 79.9004,104.4747 70.4914,104.3527 C55.9604,104.1647 31.2774,98.3157 20.3294,76.0507 C15.0504,65.3147 13.0244,54.7377 12.3284,46.6387 C12.0294,46.3957 11.7374,46.1437 11.4534,45.8837 C11.1424,53.0147 11.4914,69.3837 19.2814,86.0957 C29.6584,108.3597 53.0544,114.2087 66.8284,114.3977 C78.6304,114.5597 96.8054,108.7637 106.2764,95.5877 L106.3794,95.4047 C105.4084,95.1127 104.4754,94.7267 103.6204,94.1467" id="Fill-21" fill="#E55E12"></path>
                    <path d="M106.1781,95.7249 C96.7061,108.9009 78.6301,114.5589 66.8281,114.3979 C47.4441,114.1319 28.8671,104.3349 19.5911,87.0309 C13.1471,75.0079 10.8941,61.0369 11.3801,47.4699" id="Stroke-23" stroke="#251B25" stroke-linecap="round" stroke-linejoin="round"></path>
                    <path d="M36.1165,18.3567 C36.1165,19.1977 35.4345,19.8797 34.5935,19.8797 C33.7515,19.8797 33.0695,19.1977 33.0695,18.3567 C33.0695,17.5147 33.7515,16.8327 34.5935,16.8327 C35.4345,16.8327 36.1165,17.5147 36.1165,18.3567" id="Fill-25" fill="#E55E12"></path>
                    <path d="M57.847,17.5867 C57.682,17.5607 57.562,17.4947 57.464,17.4137 C56.982,17.6257 56.477,17.8987 55.973,18.2397 C54.122,19.4927 53.022,21.1007 53.516,21.8307 C54.01,22.5597 55.911,22.1357 57.762,20.8817 C59.066,19.9997 59.982,18.9467 60.246,18.1437 C59.46,17.9117 58.664,17.7157 57.847,17.5867" id="Fill-27" fill="#E55E12"></path>
                    <path d="M8.3958,29.3469 C7.7998,30.4059 9.3288,34.7179 13.4448,38.2119 L17.2838,29.9759 C11.7598,28.1879 9.0658,28.1579 8.3958,29.3469" id="Fill-29" fill="#FFFFFF"></path>
                    <path d="M8.9969,28.929 C8.7109,29.028 8.4999,29.163 8.3959,29.347 C7.7999,30.406 9.3289,34.718 13.4449,38.212 L14.3229,35.668 C10.7489,33.19 9.3949,30.646 8.9969,28.929" id="Fill-31" fill="#D9CFD3"></path>
                    <path d="M13.4447,38.2122 C15.3917,31.0622 20.6887,25.2042 26.7737,21.1912 C31.2427,18.2452 36.3457,16.2532 41.6517,15.5012 C46.9597,14.7492 52.4237,15.2572 57.4737,17.0702 C63.5707,19.2602 67.6897,23.2962 71.8197,28.1562 C72.1927,28.5952 72.5627,29.0362 72.9357,29.4752 C77.9427,35.3882 82.3587,40.9952 88.9617,45.2222 C95.0497,49.1212 102.1527,52.3632 106.6117,58.2852 C112.4547,66.0452 113.9287,76.8862 111.0397,86.0572 C110.7947,86.8332 110.5217,87.6022 110.2247,88.3592 C110.1467,88.5582 110.0677,88.7542 109.9877,88.9482" id="Stroke-33" stroke="#251B25" stroke-linecap="round" stroke-linejoin="round"></path>
                    <path d="M13.578,49.3147 C4.209,42.0757 -0.814,27.3547 0.798,25.1447 C2.217,23.7527 11.662,24.1007 19.303,27.6617" id="Stroke-35" stroke="#251B25" stroke-linecap="round" stroke-linejoin="round"></path>
                    <path d="M14.7576,39.9046 C10.6416,36.4096 7.7996,30.4056 8.3956,29.3466 C8.9816,28.3066 12.6706,28.6706 17.2836,29.9756" id="Stroke-37" stroke="#251B25" stroke-linecap="round" stroke-linejoin="round"></path>
                    <path d="M65.1444,41.0344 C61.6014,43.6764 60.0484,47.9884 60.7434,52.0664 C57.0334,50.2364 52.4584,50.4934 48.9154,53.1364 C43.8814,56.8884 42.8444,64.0114 46.5974,69.0444 C54.8234,80.0764 77.6554,74.7464 77.6554,74.7464 C77.6554,74.7464 88.4774,53.3104 81.0524,43.3524 C77.2994,38.3194 70.1774,37.2814 65.1444,41.0344" id="Fill-39" fill="#FF3671"></path>
                    <path d="M49.3089,64.0589 C47.3039,60.2749 47.6549,55.8729 49.8379,52.5219 C49.5239,52.7119 49.2149,52.9129 48.9149,53.1359 C43.8819,56.8889 42.8439,64.0109 46.5969,69.0439 C54.8239,80.0769 77.6559,74.7469 77.6559,74.7469 C77.6559,74.7469 77.6979,74.6629 77.7729,74.5069 C72.7109,74.6649 54.8199,74.4599 49.3089,64.0589" id="Fill-41" fill="#D9004F"></path>
                    <path d="M65.1444,41.0344 C61.6014,43.6764 60.0484,47.9884 60.7434,52.0664 C57.0334,50.2364 52.4584,50.4934 48.9154,53.1364 C43.8814,56.8884 42.8444,64.0114 46.5974,69.0444 C54.8234,80.0764 77.6554,74.7464 77.6554,74.7464 C77.6554,74.7464 88.4774,53.3104 81.0524,43.3524 C77.2994,38.3194 70.1774,37.2814 65.1444,41.0344 Z" id="Stroke-43" stroke="#641340" stroke-linecap="round" stroke-linejoin="round"></path>
                    <path d="M73.3929,41.5164 C73.6959,42.3624 72.1739,43.6794 69.9949,44.4594 C67.8149,45.2384 65.8029,45.1844 65.4999,44.3384 C65.1979,43.4934 66.7199,42.1754 68.8989,41.3954 C71.0789,40.6164 73.0909,40.6704 73.3929,41.5164" id="Fill-45" fill="#FFFFFF"></path>
                    <path d="M152.3372,54.8821 C152.3432,54.9111 152.3512,54.9401 152.3572,54.9691 C152.3512,54.9401 152.3432,54.9111 152.3372,54.8821" id="Fill-47" fill="#FFFFFF"></path>
                    <path d="M153.137,59.6057 C153.041,58.7777 152.923,57.9537 152.782,57.1337 C152.782,57.1337 152.781,57.1327 152.781,57.1317 L152.781,57.1337 C152.923,57.9537 153.041,58.7777 153.137,59.6057" id="Fill-49" fill="#FFFFFF"></path>
                    <g id="Group-53" transform="translate(153.000000, 59.467000)">
                        <g id="Fill-51-Clipped">
                            <mask id="mask-2" fill="white">
                                <use xlink:href="#path-1"></use>
                            </mask>
                            <g id="path-1"></g>
                            <path d="M0.137,0.1387 C0.328,1.7937 0.427,3.4607 0.431,5.1277 C0.427,3.4607 0.328,1.7937 0.137,0.1387" id="Fill-51" fill="#FFFFFF" mask="url(#mask-2)"></path>
                        </g>
                    </g>
                    <path d="M131.5901,98.0872 C131.3611,98.1572 131.1331,98.2252 130.9031,98.2902 C131.1331,98.2252 131.3611,98.1572 131.5901,98.0872" id="Fill-54" fill="#FFFFFF"></path>
                    <path d="M143.6849,36.6912 C143.9129,36.9622 144.1259,37.2422 144.3459,37.5182 C144.1299,37.2392 143.9089,36.9642 143.6849,36.6912" id="Fill-56" fill="#FFFFFF"></path>
                    <path d="M120.1546,99.6585 L120.1496,99.6585 L120.1546,99.6585 Z" id="Fill-58" fill="#FFFFFF"></path>
                    <path d="M102.7581,88.0393 L99.1161,93.4283 L102.7581,88.0393 Z" id="Fill-60" fill="#FFFFFF"></path>
                    <path d="M128.8909,98.7981 C128.6999,98.8401 128.5089,98.8811 128.3169,98.9201 C128.5089,98.8811 128.6999,98.8401 128.8909,98.7981" id="Fill-62" fill="#FFFFFF"></path>
                    <path d="M138.6849,94.8196 C137.9319,95.3076 137.1519,95.7576 136.3469,96.1696 C137.1519,95.7576 137.9319,95.3076 138.6849,94.8196" id="Fill-64" fill="#FFFFFF"></path>
                    <path d="M136.347,96.1692 C135.543,96.5802 134.715,96.9542 133.868,97.2902 C134.715,96.9542 135.543,96.5802 136.347,96.1692" id="Fill-66" fill="#FFFFFF"></path>
                    <path d="M149.887,81.4749 C149.199,82.9679 148.408,84.4129 147.513,85.7959 C148.408,84.4129 149.199,82.9679 149.887,81.4749" id="Fill-68" fill="#FFFFFF"></path>
                    <path d="M109.7865,89.553 C109.5745,89.56 109.3635,89.562 109.1565,89.559 C109.3645,89.562 109.5745,89.56 109.7865,89.553" id="Fill-70" fill="#FFFFFF"></path>
                    <path d="M136.6829,30.1648 C136.6769,30.1648 136.6689,30.1638 136.6629,30.1638 L136.6929,30.1728 C136.6899,30.1698 136.6859,30.1668 136.6829,30.1648" id="Fill-72" fill="#FF8331"></path>
                    <path d="M133.638,34.2508 C133.619,34.2868 133.605,34.3248 133.581,34.3588 C133.628,34.3668 133.68,34.3788 133.718,34.3808 C133.7,34.3428 133.667,34.2958 133.638,34.2508" id="Fill-74" fill="#FF8331"></path>
                    <path d="M120.3206,38.9612 C120.3166,38.9712 120.3156,38.9822 120.3116,38.9932 C120.3196,39.0022 120.3276,39.0112 120.3356,39.0202 C120.3306,39.0012 120.3256,38.9802 120.3206,38.9612" id="Fill-76" fill="#FF8331"></path>
                    <path d="M124.4075,99.4954 C123.0005,99.6254 121.5785,99.6794 120.1545,99.6584 C121.5785,99.6794 123.0005,99.6254 124.4075,99.4954" id="Fill-78" fill="#FF8331"></path>
                    <path d="M120.1497,99.6585 C119.6747,99.6515 119.1997,99.6365 118.7247,99.6125 C119.1997,99.6365 119.6747,99.6515 120.1497,99.6585" id="Fill-80" fill="#FF8331"></path>
                    <path d="M130.9026,98.2903 C130.2406,98.4793 129.5696,98.6483 128.8906,98.7983 C129.5696,98.6483 130.2406,98.4793 130.9026,98.2903" id="Fill-82" fill="#FF8331"></path>
                    <path d="M133.8685,97.2903 C133.1235,97.5863 132.3615,97.8483 131.5905,98.0873 C132.3615,97.8483 133.1235,97.5863 133.8685,97.2903" id="Fill-84" fill="#FF8331"></path>
                    <path d="M128.3167,98.9202 C127.4897,99.0872 126.6547,99.2302 125.8107,99.3392 C126.6547,99.2302 127.4897,99.0872 128.3167,98.9202" id="Fill-86" fill="#FF8331"></path>
                    <path d="M102.7581,88.0393 C102.7581,88.0393 103.9571,88.6533 105.7611,89.1013 C103.9571,88.6533 102.7581,88.0393 102.7581,88.0393" id="Fill-88" fill="#FF8331"></path>
                    <path d="M152.3568,54.9695 C152.5138,55.6855 152.6558,56.4065 152.7808,57.1325 C152.6548,56.4035 152.5108,55.6835 152.3568,54.9695" id="Fill-90" fill="#FF8331"></path>
                    <path d="M110.2005,53.47 C110.2015,53.47 110.2015,53.471 110.2025,53.472 C111.4735,55.086 112.7125,56.781 113.8675,58.537 C112.7125,56.781 111.4735,55.086 110.2025,53.472 C110.2015,53.471 110.2015,53.471 110.2005,53.47" id="Fill-92" fill="#FF8331"></path>
                    <path d="M109.1566,89.5589 C108.9486,89.5559 108.7426,89.5479 108.5406,89.5359 C108.7426,89.5479 108.9486,89.5559 109.1566,89.5589" id="Fill-94" fill="#FF8331"></path>
                    <g id="Group-98" transform="translate(153.000000, 64.467000)">
                        <g id="Fill-96-Clipped">
                            <mask id="mask-4" fill="white">
                                <use xlink:href="#path-3"></use>
                            </mask>
                            <g id="path-3"></g>
                            <path d="M0.1546,5.1114 C0.3426,3.4604 0.4336,1.7944 0.4306,0.1284 C0.4336,1.7944 0.3426,3.4604 0.1546,5.1114" id="Fill-96" fill="#FF8331" mask="url(#mask-4)"></path>
                        </g>
                    </g>
                    <path d="M143.6751,36.6804 C143.6781,36.6834 143.6811,36.6874 143.6851,36.6914 C143.6811,36.6874 143.6781,36.6834 143.6751,36.6804" id="Fill-99" fill="#FF8331"></path>
                    <path d="M105.7611,89.1018 C106.4171,89.2638 107.1541,89.4058 107.9411,89.4868 C107.1541,89.4058 106.4171,89.2638 105.7611,89.1018" id="Fill-101" fill="#FF8331"></path>
                    <path d="M102.5511,95.4417 C101.7491,95.0357 100.9711,94.6007 100.2211,94.1397 C100.9711,94.6007 101.7491,95.0357 102.5511,95.4417" id="Fill-103" fill="#FF8331"></path>
                    <path d="M144.346,37.5178 C148.291,42.6118 150.935,48.5318 152.337,54.8818 C150.931,48.4138 148.35,42.5588 144.346,37.5178" id="Fill-105" fill="#FF8331"></path>
                    <path d="M108.9486,97.9641 C108.0526,97.7001 107.1696,97.4061 106.3056,97.0841 C107.1696,97.4061 108.0526,97.7001 108.9486,97.9641" id="Fill-107" fill="#FF8331"></path>
                    <path d="M153.137,59.6057 C153.041,58.7777 152.923,57.9537 152.782,57.1347 C152.782,57.1347 152.781,57.1327 152.781,57.1317 C152.656,56.4057 152.514,55.6857 152.357,54.9697 C152.351,54.9397 152.343,54.9117 152.337,54.8817 C150.935,48.5317 148.291,42.6117 144.346,37.5177 C144.126,37.2417 143.912,36.9627 143.685,36.6907 C143.681,36.6877 143.678,36.6837 143.675,36.6807 C142.052,34.7517 140.21,32.9487 138.134,31.2847 C138.022,31.4047 137.848,31.4577 137.679,31.4047 C134.918,30.5017 131.654,29.6767 130.781,29.7737 C131.014,30.2007 131.904,31.0947 132.517,31.7107 C133.902,33.1017 134.683,33.9207 134.64,34.5677 C134.627,34.7697 134.532,34.9477 134.373,35.0697 C133.74,35.5577 132.454,34.9817 130.415,34.0057 C129.551,33.5927 128.29,32.9897 127.798,32.9357 C127.881,33.5737 128.758,35.4527 129.356,36.7317 C130.96,40.1677 131.509,41.5187 130.904,42.0767 C130.286,42.6477 129.196,41.8437 125.201,38.3667 C123.548,36.9277 121.091,34.7877 120.354,34.5607 C120.232,35.0967 120.797,37.3007 121.142,38.6437 C121.971,41.8697 122.217,43.1277 121.52,43.5417 C120.825,43.9537 119.672,43.2597 117.697,41.9997 C116.796,41.4247 115.288,40.4747 114.922,40.5367 C114.78,40.8147 115.096,42.6717 115.284,43.7817 C115.694,46.1837 115.892,47.5637 115.209,47.9957 C114.47,48.4677 113.549,47.4017 111.123,44.2227 C110.13,42.9227 108.655,40.9897 108.107,40.7037 C107.676,41.3537 107.423,45.3947 107.45,48.8957 C107.45,49.0537 107.364,49.1867 107.238,49.2647 C108.16,50.7227 109.147,52.1327 110.2,53.4697 C110.201,53.4707 110.201,53.4717 110.202,53.4727 C111.474,55.0857 112.712,56.7807 113.867,58.5377 C115.794,61.4657 117.494,64.5687 118.748,67.7627 C120.797,72.9797 121.731,79.4527 118.561,84.4087 C116.088,88.2717 112.754,89.4507 109.786,89.5527 C109.575,89.5597 109.365,89.5617 109.157,89.5587 C108.949,89.5557 108.742,89.5477 108.54,89.5357 C108.337,89.5237 108.137,89.5067 107.941,89.4867 C107.154,89.4057 106.417,89.2637 105.761,89.1017 C103.957,88.6537 102.758,88.0397 102.758,88.0397 C100.537,89.3177 99.501,91.2057 99.117,93.4277 C99.478,93.6717 99.846,93.9097 100.221,94.1397 C100.971,94.6007 101.749,95.0357 102.551,95.4417 C103.753,96.0517 105.009,96.6007 106.306,97.0847 C107.169,97.4067 108.052,97.7007 108.949,97.9637 C112.086,98.8877 115.399,99.4497 118.725,99.6127 C119.2,99.6357 119.675,99.6517 120.15,99.6587 L120.155,99.6587 C121.578,99.6787 123,99.6257 124.408,99.4957 C124.877,99.4517 125.345,99.3997 125.811,99.3387 C126.655,99.2297 127.49,99.0867 128.317,98.9197 C128.509,98.8807 128.7,98.8397 128.891,98.7977 C129.57,98.6487 130.241,98.4797 130.903,98.2907 C131.133,98.2247 131.362,98.1577 131.59,98.0867 C132.362,97.8477 133.123,97.5857 133.868,97.2907 C134.715,96.9547 135.543,96.5807 136.347,96.1687 C137.152,95.7577 137.932,95.3077 138.685,94.8197 C139.439,94.3317 140.164,93.8047 140.86,93.2387 C143.51,91.0787 145.721,88.5607 147.513,85.7957 C148.408,84.4137 149.199,82.9677 149.887,81.4747 C151.607,77.7427 152.684,73.7057 153.155,69.5787 C153.343,67.9267 153.434,66.2607 153.431,64.5947 C153.427,62.9277 153.328,61.2607 153.137,59.6057" id="Fill-109" fill="#FF8331"></path>
                    <path d="M133.638,34.2508 C133.619,34.2868 133.605,34.3248 133.581,34.3588 C133.628,34.3668 133.68,34.3788 133.718,34.3808 C133.7,34.3428 133.667,34.2958 133.638,34.2508 Z" id="Stroke-111" stroke="#641340"></path>
                    <path d="M120.3118,38.9929 C120.3198,39.0019 120.3278,39.0119 120.3348,39.0199 C120.3308,39.0009 120.3258,38.9799 120.3208,38.9609 C120.3168,38.9719 120.3158,38.9819 120.3118,38.9929 Z" id="Stroke-113" stroke="#641340"></path>
                    <path d="M136.6829,30.1648 C136.6769,30.1648 136.6689,30.1638 136.6629,30.1638 L136.6929,30.1728 C136.6899,30.1698 136.6859,30.1668 136.6829,30.1648" id="Fill-115" fill="#E55E12"></path>
                    <path d="M102.7357,15.802 C102.9857,15.257 103.2557,14.726 103.5457,14.212 C103.2567,14.727 102.9857,15.257 102.7357,15.802" id="Fill-117" fill="#FFFFFF"></path>
                    <path d="M101.0189,20.9944 C101.1449,20.4284 101.2859,19.8674 101.4459,19.3124 C101.2869,19.8674 101.1449,20.4284 101.0189,20.9944" id="Fill-119" fill="#FFFFFF"></path>
                    <path d="M101.4798,19.1961 C101.8218,18.0291 102.2358,16.8931 102.7308,15.8121 C102.2368,16.8941 101.8208,18.0291 101.4798,19.1961" id="Fill-121" fill="#FFFFFF"></path>
                    <path d="M100.6595,22.9011 C100.7475,22.3281 100.8555,21.7571 100.9765,21.1901 C100.8555,21.7571 100.7475,22.3271 100.6595,22.9011" id="Fill-123" fill="#FFFFFF"></path>
                    <path d="M100.4388,24.6858 C100.4938,24.1208 100.5618,23.5538 100.6468,22.9898 C100.5618,23.5548 100.4928,24.1198 100.4388,24.6858" id="Fill-125" fill="#FFFFFF"></path>
                    <path d="M100.3089,28.386 C100.2949,27.855 100.2969,27.319 100.3119,26.781 C100.2969,27.319 100.2949,27.855 100.3089,28.386" id="Fill-127" fill="#FFFFFF"></path>
                    <path d="M100.3216,26.4895 C100.3426,25.9385 100.3746,25.3855 100.4246,24.8305 C100.3746,25.3855 100.3426,25.9385 100.3216,26.4895" id="Fill-129" fill="#FFFFFF"></path>
                    <path d="M100.4144,30.2854 C100.3654,29.7464 100.3364,29.1994 100.3174,28.6474 C100.3364,29.1994 100.3654,29.7464 100.4144,30.2854" id="Fill-131" fill="#FFFFFF"></path>
                    <path d="M135.9634,30.0758 C135.9624,30.0748 135.9614,30.0728 135.9604,30.0718 C136.0274,30.1408 136.0954,30.2078 136.1584,30.2718 C136.0974,30.2098 136.0304,30.1428 135.9634,30.0758 Z M133.6384,34.2508 C133.6674,34.2958 133.6994,34.3428 133.7184,34.3808 C133.6804,34.3788 133.6284,34.3668 133.5814,34.3588 C133.6044,34.3248 133.6194,34.2868 133.6384,34.2508 Z M133.9894,28.0968 C127.5964,23.6548 118.0094,21.1468 114.6834,13.4358 C112.5274,8.4358 118.0844,6.4928 118.0844,6.4928 C116.1844,6.2838 114.4534,6.3988 112.8754,6.7648 C105.9954,10.7728 103.3214,20.6818 104.0564,28.8468 C104.4684,33.4348 105.7994,37.9458 107.7614,42.1708 C107.8564,41.4338 107.9744,40.9048 108.1064,40.7038 C108.6544,40.9898 110.1304,42.9228 111.1234,44.2228 C113.5494,47.4018 114.4704,48.4678 115.2094,47.9958 C115.8924,47.5638 115.6934,46.1838 115.2844,43.7818 C115.0964,42.6718 114.7794,40.8148 114.9214,40.5368 C115.2884,40.4748 116.7964,41.4248 117.6964,41.9998 C119.6724,43.2598 120.8244,43.9538 121.5194,43.5418 C122.2174,43.1278 121.9714,41.8698 121.1424,38.6438 C120.7974,37.3008 120.2314,35.0968 120.3534,34.5608 C121.0914,34.7878 123.5484,36.9278 125.2014,38.3668 C129.1954,41.8438 130.2864,42.6468 130.9034,42.0768 C131.5094,41.5178 130.9604,40.1668 129.3554,36.7318 C128.7584,35.4528 127.8814,33.5738 127.7984,32.9348 C128.2904,32.9898 129.5514,33.5928 130.4154,34.0058 C132.4544,34.9818 133.7394,35.5578 134.3734,35.0698 C134.5314,34.9478 134.6274,34.7698 134.6404,34.5678 C134.6834,33.9208 133.9014,33.1018 132.5174,31.7108 C132.4554,31.6478 132.3894,31.5818 132.3214,31.5148 C131.7284,30.9168 130.9904,30.1578 130.7804,29.7738 C131.6534,29.6768 134.9184,30.5018 137.6794,31.4048 C137.8484,31.4578 138.0214,31.4048 138.1344,31.2848 C139.6854,32.5288 141.1064,33.8508 142.4034,35.2438 C139.9984,32.5708 137.2194,30.1518 133.9894,28.0968 Z" id="Fill-133" fill="#FFFFFF" fill-rule="nonzero"></path>
                    <path d="M112.8753,6.7649 C108.6913,7.7359 105.6233,10.5359 103.5653,14.1769 C105.6243,10.5379 108.6923,7.7359 112.8753,6.7649" id="Fill-135" fill="#FFFFFF"></path>
                    <path d="M137.223,32.9197 C137.27,32.9277 137.322,32.9397 137.36,32.9417 C137.341,32.9037 137.309,32.8567 137.28,32.8117 C137.261,32.8477 137.246,32.8857 137.223,32.9197" id="Fill-137" fill="#E55E12"></path>
                    <path d="M135.9632,30.0759 C136.0302,30.1429 136.0972,30.2099 136.1582,30.2719 C136.0952,30.2079 136.0272,30.1399 135.9602,30.0719 C135.9612,30.0729 135.9622,30.0749 135.9632,30.0759" id="Fill-139" fill="#E55E12"></path>
                    <path d="M123.9769,37.5813 C123.9719,37.5613 123.9669,37.5413 123.9619,37.5223 C123.9579,37.5323 123.9569,37.5433 123.9539,37.5543 C123.9619,37.5623 123.9689,37.5723 123.9769,37.5813" id="Fill-141" fill="#E55E12"></path>
                    <path d="M134.5443,96.8518 C133.8823,97.0398 133.2113,97.2098 132.5323,97.3598 C132.3423,97.4018 132.1503,97.4428 131.9583,97.4808 C131.1313,97.6478 130.2963,97.7898 129.4523,97.9008 C128.9863,97.9608 128.5193,98.0128 128.0493,98.0558 C126.6423,98.1868 125.2203,98.2398 123.7963,98.2188 L123.7913,98.2188 C123.3163,98.2118 122.8413,98.1978 122.3663,98.1738 C119.0403,98.0108 115.7283,97.4498 112.5903,96.5258 C111.6933,96.2608 110.8123,95.9678 109.9473,95.6458 C108.6503,95.1618 107.3953,94.6138 106.1923,94.0028 C105.3913,93.5958 104.6123,93.1618 103.8623,92.7008 C102.1033,91.4538 103.4083,89.5988 104.1333,88.6088 C103.2763,88.3018 102.3313,87.7418 102.3313,87.7418 C100.1103,89.0198 99.0913,90.9398 98.7063,93.1628 C99.0673,93.4058 99.8463,93.9098 100.2213,94.1398 C100.9713,94.6008 101.7493,95.0358 102.5513,95.4418 C103.7533,96.0518 105.0093,96.6008 106.3063,97.0838 C107.1693,97.4068 108.0523,97.7008 108.9483,97.9638 C112.0863,98.8888 115.3993,99.4498 118.7253,99.6128 C119.1993,99.6358 119.6753,99.6518 120.1493,99.6588 L120.1543,99.6588 C121.5783,99.6788 123.0003,99.6248 124.4073,99.4958 C124.8773,99.4518 125.3453,99.3998 125.8113,99.3388 C126.6543,99.2298 127.4893,99.0868 128.3163,98.9198 C128.5093,98.8808 128.6993,98.8398 128.8913,98.7978 C129.5693,98.6488 130.2403,98.4798 130.9023,98.2898 C131.1333,98.2248 131.3613,98.1578 131.5903,98.0868 C132.3613,97.8478 133.1233,97.5858 133.8683,97.2898 C134.4823,97.0468 135.0813,96.7768 135.6743,96.4938 C135.5243,96.5408 135.3813,96.6018 135.2313,96.6478 C135.0033,96.7178 134.7743,96.7868 134.5443,96.8518" id="Fill-143" fill="#E55E12"></path>
                    <path d="M100.4241,24.8308 C100.4291,24.7828 100.4351,24.7338 100.4391,24.6858 C100.4351,24.7338 100.4281,24.7828 100.4241,24.8308" id="Fill-145" fill="#E55E12"></path>
                    <path d="M103.5452,14.2117 L103.5662,14.1767 L103.5452,14.2117 Z" id="Fill-147" fill="#E55E12"></path>
                    <path d="M100.3177,28.6477 C100.3147,28.5607 100.3107,28.4737 100.3087,28.3857 C100.3107,28.4737 100.3147,28.5607 100.3177,28.6477" id="Fill-149" fill="#E55E12"></path>
                    <path d="M100.3118,26.7805 C100.3148,26.6835 100.3178,26.5865 100.3218,26.4895 C100.3178,26.5865 100.3148,26.6835 100.3118,26.7805" id="Fill-151" fill="#E55E12"></path>
                    <path d="M100.9769,21.1902 C100.9919,21.1252 101.0049,21.0602 101.0189,20.9942 C101.0039,21.0602 100.9919,21.1252 100.9769,21.1902" id="Fill-153" fill="#E55E12"></path>
                    <path d="M101.4456,19.3128 C101.4566,19.2738 101.4676,19.2348 101.4796,19.1958 C101.4676,19.2348 101.4566,19.2738 101.4456,19.3128" id="Fill-155" fill="#E55E12"></path>
                    <path d="M102.7308,15.8123 C102.7328,15.8093 102.7338,15.8053 102.7358,15.8023 C102.7338,15.8053 102.7328,15.8093 102.7308,15.8123" id="Fill-159" fill="#E55E12"></path>
                    <path d="M107.4495,48.8953 C107.4505,49.0533 107.3635,49.1873 107.2375,49.2643 C108.1605,50.7233 109.1465,52.1323 110.2005,53.4703 C110.2015,53.4713 110.2015,53.4713 110.2025,53.4723 C111.4735,55.0863 112.7125,56.7803 113.8675,58.5373 C115.7945,61.4663 117.4945,64.5683 118.7485,67.7633 C120.7975,72.9793 121.7305,79.4523 118.5605,84.4083 C117.5395,86.0043 116.3705,87.1363 115.1415,87.9293 C117.6255,87.4703 120.1965,86.1033 122.2025,82.9693 C125.3725,78.0143 124.4385,71.5413 122.3895,66.3243 C121.1365,63.1303 119.4355,60.0273 117.5095,57.0993 C116.3535,55.3413 115.1155,53.6473 113.8445,52.0333 C113.8435,52.0333 113.8435,52.0323 113.8425,52.0313 C111.4765,49.0303 109.3995,45.7003 107.7615,42.1703 C107.5465,43.8093 107.4305,46.4803 107.4495,48.8953" id="Fill-161" fill="#E55E12"></path>
                    <path d="M100.6468,22.99 C100.6518,22.961 100.6548,22.931 100.6598,22.901 C100.6548,22.931 100.6518,22.96 100.6468,22.99" id="Fill-163" fill="#E55E12"></path>
                    <path d="M112.8753,6.7644 C108.6923,7.7354 105.6243,10.5384 103.5653,14.1764 L103.5453,14.2114 C103.2553,14.7264 102.9853,15.2574 102.7353,15.8024 C102.7333,15.8054 102.7323,15.8084 102.7303,15.8124 C102.2353,16.8934 101.8213,18.0294 101.4793,19.1964 C101.4683,19.2354 101.4563,19.2734 101.4453,19.3124 C101.2853,19.8674 101.1453,20.4284 101.0193,20.9944 C101.0053,21.0594 100.9913,21.1244 100.9773,21.1904 C100.8553,21.7574 100.7473,22.3274 100.6593,22.9014 C100.6543,22.9314 100.6513,22.9604 100.6463,22.9904 C100.5623,23.5544 100.4933,24.1204 100.4383,24.6854 C100.4353,24.7344 100.4293,24.7824 100.4243,24.8304 C100.3743,25.3854 100.3423,25.9384 100.3213,26.4894 C100.3173,26.5864 100.3143,26.6834 100.3123,26.7804 C100.2973,27.3184 100.2953,27.8544 100.3093,28.3864 C100.3113,28.4734 100.3143,28.5604 100.3173,28.6474 C100.3363,29.1994 100.3653,29.7464 100.4143,30.2854 C101.1713,38.7064 105.0043,46.8774 110.2003,53.4704 C109.1463,52.1324 108.1603,50.7224 107.2373,49.2644 C107.3633,49.1864 107.4503,49.0534 107.4493,48.8954 C107.4313,46.4804 107.5463,43.8094 107.7613,42.1704 C105.7993,37.9454 104.4683,33.4344 104.0563,28.8464 C103.3213,20.6814 105.9953,10.7724 112.8753,6.7644" id="Fill-165" fill="#D9CFD3"></path>
                    <path d="M102.7581,88.0393 C102.7581,88.0393 112.9091,93.2403 118.5611,84.4083 C121.7311,79.4523 120.7971,72.9793 118.7481,67.7633 C116.7421,62.6523 113.5941,57.7753 110.2021,53.4723 C105.0061,46.8793 101.1711,38.7073 100.4141,30.2853 C99.4211,19.2503 104.6461,5.0153 118.0841,6.4923 C118.0841,6.4923 112.5281,8.4353 114.6831,13.4353 C118.0091,21.1473 127.5961,23.6543 133.9891,28.0973 C144.6361,34.8713 150.7491,45.3753 152.7811,57.1343 C155.0471,70.2463 151.4581,84.5983 140.8601,93.2383 C129.7391,102.3043 110.6681,101.2293 99.1161,93.4283" id="Stroke-167" stroke="#251B25" stroke-linecap="round" stroke-linejoin="round"></path>
                    <path d="M61.2205,64.9964 C60.4225,63.4464 58.7625,62.9754 57.1455,63.2714 C55.1255,63.6414 53.1995,64.6474 51.2805,65.3534 C49.1585,66.1354 46.9845,66.7574 44.7525,67.1334 C37.4885,68.3594 31.9225,66.5674 31.9225,66.5674 L31.9225,79.3974 C35.4015,80.3474 39.5805,80.0274 43.1245,79.5654 C47.0235,79.0594 50.8695,77.6754 54.2875,75.7514 C57.7875,73.7804 63.7585,69.9224 61.2205,64.9964" id="Fill-169" fill="#FF8331"></path>
                    <path d="M53.9134,72.2844 C50.3464,73.9154 46.3974,74.9714 42.4694,75.1494 C39.1044,75.3024 33.6484,74.6784 33.6484,74.6784 C33.6484,74.6784 31.0044,74.3474 31.2154,79.2694 C32.3094,79.9474 39.5804,80.0274 43.1244,79.5654 C47.0234,79.0584 50.8704,77.6754 54.2884,75.7514 C57.4954,73.9444 62.7724,70.5534 61.6804,66.2074 C60.3614,69.0894 56.4914,71.1054 53.9134,72.2844" id="Fill-171" fill="#E55E12"></path>
                    <path d="M75.9061,37.1472 C75.9061,37.1472 77.8871,42.9012 72.6041,49.0332 C69.6001,52.5212 71.7291,58.1032 76.7731,57.2362 C81.4331,56.4352 84.7781,50.8792 86.8491,47.1942 C83.9951,41.8022 80.0641,38.4402 75.9061,37.1472" id="Fill-173" fill="#FF8331"></path>
                    <path d="M75.054,35.4856 C77.57,38.7676 76.327,44.7126 72.604,49.0336 C69.6,52.5216 71.729,58.1036 76.773,57.2356 C81.433,56.4346 84.778,50.8796 86.849,47.1946" id="Stroke-175" stroke="#641340" stroke-linecap="round" stroke-linejoin="round"></path>
                    <path d="M101.97,59.2092 C101.97,59.2092 102.632,62.6052 99.966,65.0112 C96.55,67.8652 88.255,66.0422 89.907,72.4482 C90.844,75.9012 94.196,77.1642 97.442,77.3222 C103.243,77.6052 109.612,72.7942 109.612,72.7942" id="Fill-177" fill="#FF8331"></path>
                    <path d="M78.8587,80.6175 C76.6297,79.4115 73.5547,79.9895 72.5397,82.5115 C71.8117,84.3195 71.6977,86.2395 70.4477,87.8135 C69.3937,89.1395 67.9067,90.0745 66.3977,90.8005 C64.3117,91.8025 61.9717,92.4175 59.6637,92.6025 L72.8917,100.2445 C76.0447,98.9575 81.1837,96.0825 81.9647,88.1905 C82.2507,85.3105 81.6067,82.1055 78.8587,80.6175" id="Fill-179" fill="#FF8331"></path>
                    <path d="M59.6639,92.6028 C61.9719,92.4168 64.3119,91.8018 66.3969,90.7998 C67.9069,90.0748 69.3939,89.1408 70.4479,87.8138 C71.6979,86.2398 71.8109,84.3198 72.5389,82.5108 C73.5549,79.9898 76.6299,79.4118 78.8589,80.6178 C81.6069,82.1058 82.2499,85.3108 81.9649,88.1908 C81.1839,96.0818 76.0449,98.9568 72.8919,100.2448" id="Stroke-181" stroke="#641340" stroke-linecap="round" stroke-linejoin="round"></path>
                    <path d="M101.97,59.2092 C101.97,59.2092 102.632,62.6052 99.966,65.0112 C96.55,67.8652 88.255,66.0422 89.907,72.4482 C90.844,75.9012 94.196,77.1642 97.442,77.3222 C103.243,77.6052 109.612,72.7942 109.612,72.7942" id="Stroke-183" stroke="#641340" stroke-linecap="round" stroke-linejoin="round"></path>
                    <path d="M42.9427,22.8279 C43.3457,23.5119 42.5817,25.8549 41.9037,26.2539 C41.2267,26.6529 38.1647,26.9369 37.7607,26.2529 C37.3577,25.5699 42.5397,22.1439 42.9427,22.8279" id="Fill-185" fill="#641340"></path>
                    <path d="M42.9427,22.8279 C43.3457,23.5119 42.5817,25.8549 41.9037,26.2539 C41.2267,26.6529 38.1647,26.9369 37.7607,26.2529 C37.3577,25.5699 42.5397,22.1439 42.9427,22.8279 Z" id="Stroke-187" stroke="#641340" stroke-linecap="round" stroke-linejoin="round"></path>
                    <path d="M42.0423,26.4104 C42.0423,26.4104 42.9953,27.7674 42.9983,27.7704 C43.7093,28.7824 43.3443,29.6734 42.2873,30.1054 C41.1673,30.5624 40.2313,29.7084 40.3653,28.7794" id="Stroke-189" stroke="#641340" stroke-linecap="round" stroke-linejoin="round"></path>
                    <path d="M44.6322,25.864 C45.1272,25.834 45.9512,26.59 45.5432,27.666 C44.6032,29.258 43.3512,28.506 43.3512,28.506" id="Stroke-191" stroke="#641340" stroke-linecap="round" stroke-linejoin="round"></path>
                    <path d="M31.9227,66.5676 C31.9227,66.5676 37.4887,68.3596 44.7527,67.1326 C46.9847,66.7566 49.1587,66.1346 51.2807,65.3536 C53.1997,64.6476 55.1257,63.6406 57.1457,63.2716 C58.7617,62.9756 60.4227,63.4466 61.2207,64.9966 C63.7577,69.9216 57.7877,73.7806 54.2877,75.7516 C50.8697,77.6746 47.0237,79.0586 43.1247,79.5656 C39.5807,80.0266 35.4017,80.3466 31.9227,79.3976" id="Stroke-193" stroke="#641340" stroke-linecap="round" stroke-linejoin="round"></path>
                    <path d="M47.8411,66.7317 C47.8411,66.7317 44.7881,68.9417 44.8981,69.4527 C45.0071,69.9627 49.4921,68.7777 49.6021,69.1787 C49.7111,69.5797 46.7041,70.7907 46.8771,71.1957 C47.0491,71.5997 49.6021,70.6367 49.7661,71.0297 C49.9301,71.4207 44.9711,73.5537 45.1161,73.9927 C45.2621,74.4297 49.9941,73.2157 50.1991,73.7227 C50.4041,74.2287 47.3831,75.4687 47.5441,75.9067 C47.7061,76.3437 50.1851,75.4687 50.3671,75.9067 C50.5491,76.3437 48.3801,78.1307 48.3801,78.1307 L56.3291,74.5937 L60.5961,70.8747 L62.2371,68.0297 L61.2201,64.9967 L59.6641,63.1887 L57.1451,63.2717 L53.1571,64.7507 L47.8411,66.7317 Z" id="Fill-195" fill="#641340"></path>
                    <path d="M70.2157,87.6829 C70.2157,87.6829 65.5507,91.0929 65.8887,91.4909 C66.8917,91.0159 72.6397,88.7029 72.9257,89.0029 C73.2127,89.3049 69.6237,91.4389 69.9667,91.7139 C70.3107,91.9889 73.0647,90.9719 73.3947,91.2399 C73.8087,91.8329 70.5097,94.6429 70.8457,94.9589 C72.6107,94.9049 75.1857,92.3709 75.6067,92.7209 C76.0267,93.0699 73.6287,95.7809 73.9787,96.0889 C74.3277,96.3979 77.2387,94.7879 77.6067,95.0869 C77.7387,95.2999 77.6837,96.5849 76.2067,97.9119 C76.0207,98.2069 79.0477,96.4539 79.0477,96.4539 C80.9607,92.4849 82.2967,88.6589 81.7817,85.2959 L81.0897,82.7069 L79.5937,81.1749 L76.8587,79.7169 L73.6867,80.4469 L72.0087,83.2899 L70.2157,87.6829 Z" id="Fill-197" fill="#641340"></path>
                    <path d="M98.1771,65.803 C98.1771,65.803 101.7601,62.186 102.0921,62.589 C101.8921,64.083 98.7551,68.368 99.0011,68.703 C99.2471,69.038 101.9781,65.879 102.1891,66.266 C102.3991,66.653 100.9151,69.185 101.1201,69.557 C101.6321,70.069 104.9771,67.314 105.2301,67.699 C104.8651,69.428 101.9211,71.519 102.1911,71.994 C102.4601,72.469 105.5501,70.584 105.7921,70.983 C106.0351,71.381 103.9401,73.964 104.1691,74.378 C104.3561,74.546 106.1831,74.513 107.9671,73.339 C108.2901,73.207 105.2621,76.036 105.2621,76.036 C101.0191,77.223 97.0181,77.867 93.7971,76.771 L91.3701,75.635 L90.1251,73.894 L89.1681,70.946 L90.4671,68.214 L93.5371,66.798 L98.1771,65.803 Z" id="Fill-199" fill="#641340"></path>
                    <path d="M71.4666,54.2571 C71.9006,54.8781 72.2906,55.5261 72.7146,56.1531 C75.0496,57.7821 77.4436,57.4221 79.8896,56.2541 L81.5116,54.8131 L86.3936,47.4701 C86.3936,47.4701 83.9836,49.3031 83.5726,49.0671 C83.1616,48.8301 84.3446,46.4821 83.9316,46.2661 C83.5176,46.0501 81.9036,48.8891 81.4276,48.6221 C80.9516,48.3551 82.7576,43.8151 82.3416,43.6151 C81.9256,43.4151 79.1786,48.0621 78.8106,47.8491 C78.4436,47.6371 79.7226,45.2281 79.3426,45.0051 C78.9636,44.7821 77.3806,47.6111 76.9966,47.4511 C76.6126,47.2921 78.3586,42.9941 77.8666,42.8201 C77.3746,42.6471 74.7936,45.3941 74.7936,45.3941 L72.1526,50.4141 L71.6666,51.3401 C71.8546,51.5321 71.3016,52.0051 71.2366,52.3361 C71.1036,53.0001 71.6026,53.5161 71.4666,54.2571" id="Fill-201" fill="#641340"></path>
                    <path d="M32.1312,36.0838 C32.6252,36.8128 31.5252,38.4208 29.6732,39.6738 C27.8222,40.9268 25.9222,41.3518 25.4272,40.6218 C24.9332,39.8918 26.0342,38.2848 27.8852,37.0318 C29.7362,35.7778 31.6372,35.3538 32.1312,36.0838" id="Fill-203" fill="#E55E12"></path>
                    <path d="M33.0692,34.2385 C32.2502,33.7475 31.1882,33.7365 30.3412,34.3015 C29.4942,34.8675 29.0972,35.8525 29.2372,36.7975" id="Stroke-205" stroke="#641340" stroke-linecap="round" stroke-linejoin="round"></path>
                    <path d="M54.8616,19.926 C54.0416,19.435 52.9806,19.424 52.1326,19.989 C51.2856,20.555 50.8896,21.54 51.0286,22.485" id="Stroke-207" stroke="#641340" stroke-linecap="round" stroke-linejoin="round"></path>
                    <path d="M95.0999,87.7415 L99.4579,88.1395" id="Stroke-209" stroke="#641340" stroke-linecap="round" stroke-linejoin="round"></path>
                    <path d="M97.0794,90.1194 L97.4784,85.7624" id="Stroke-211" stroke="#641340" stroke-linecap="round" stroke-linejoin="round"></path>
                    <path d="M23.6102,60.5315 C23.6102,61.9985 22.4212,63.1885 20.9532,63.1885 C19.4862,63.1885 18.2972,61.9985 18.2972,60.5315 C18.2972,59.0635 19.4862,57.8745 20.9532,57.8745 C22.4212,57.8745 23.6102,59.0635 23.6102,60.5315" id="Fill-213" fill="#E55E12"></path>
                    <path d="M30.825,62.055 C30.825,62.897 30.143,63.578 29.301,63.578 C28.46,63.578 27.778,62.897 27.778,62.055 C27.778,61.213 28.46,60.532 29.301,60.532 C30.143,60.532 30.825,61.213 30.825,62.055" id="Fill-215" fill="#E55E12"></path>
                    <path d="M25.929,68.138 C25.929,68.86 25.344,69.445 24.622,69.445 C23.9,69.445 23.315,68.86 23.315,68.138 C23.315,67.416 23.9,66.831 24.622,66.831 C25.344,66.831 25.929,67.416 25.929,68.138" id="Fill-217" fill="#E55E12"></path>
                    <path d="M136.5657,48.929 C136.5657,50.396 135.3767,51.586 133.9097,51.586 C132.4417,51.586 131.2527,50.396 131.2527,48.929 C131.2527,47.462 132.4417,46.272 133.9097,46.272 C135.3767,46.272 136.5657,47.462 136.5657,48.929" id="Fill-219" fill="#E55E12"></path>
                    <path d="M50.9671,99.3391 C50.9671,100.8061 49.7781,101.9961 48.3101,101.9961 C46.8431,101.9961 45.6531,100.8061 45.6531,99.3391 C45.6531,97.8711 46.8431,96.6821 48.3101,96.6821 C49.7781,96.6821 50.9671,97.8711 50.9671,99.3391" id="Fill-221" fill="#E55E12"></path>
                    <path d="M143.7806,50.4524 C143.7806,51.2934 143.0976,51.9754 142.2566,51.9754 C141.4156,51.9754 140.7326,51.2934 140.7326,50.4524 C140.7326,49.6114 141.4156,48.9294 142.2566,48.9294 C143.0976,48.9294 143.7806,49.6114 143.7806,50.4524" id="Fill-223" fill="#E55E12"></path>
                    <path d="M125.931,87.7415 C125.931,88.5825 125.249,89.2645 124.408,89.2645 C123.566,89.2645 122.884,88.5825 122.884,87.7415 C122.884,86.8995 123.566,86.2175 124.408,86.2175 C125.249,86.2175 125.931,86.8995 125.931,87.7415" id="Fill-225" fill="#E55E12"></path>
                    <path d="M138.8841,56.5354 C138.8841,57.2574 138.2991,57.8424 137.5771,57.8424 C136.8561,57.8424 136.2711,57.2574 136.2711,56.5354 C136.2711,55.8134 136.8561,55.2284 137.5771,55.2284 C138.2991,55.2284 138.8841,55.8134 138.8841,56.5354" id="Fill-227" fill="#E55E12"></path>
                    <path d="M48.1834,90.7337 C48.1834,91.4557 47.5984,92.0407 46.8764,92.0407 C46.1554,92.0407 45.5704,91.4557 45.5704,90.7337 C45.5704,90.0117 46.1554,89.4267 46.8764,89.4267 C47.5984,89.4267 48.1834,90.0117 48.1834,90.7337" id="Fill-229" fill="#E55E12"></path>
                    <path d="M51.9344,41.3372 L51.3044,41.7382 C50.5894,42.1932 49.6334,41.9812 49.1784,41.2662 L47.4334,38.5252 C46.9774,37.8112 47.1904,36.8542 47.9054,36.3992 L48.5344,35.9982 C49.2494,35.5432 50.2064,35.7552 50.6614,36.4702 L52.4064,39.2112 C52.8614,39.9252 52.6484,40.8822 51.9344,41.3372" id="Fill-231" fill="#FF3671"></path>
                    <path d="M53.3543,30.5296 C51.3693,31.7946 50.4343,34.1636 50.2263,36.0246 C50.3953,36.1386 50.5443,36.2876 50.6613,36.4696 L52.4063,39.2106 C52.4933,39.3466 52.5483,39.4936 52.5873,39.6426 C54.3583,40.2196 56.8583,40.3526 58.8143,39.1056 C60.1993,38.2236 54.8743,29.5616 53.3543,30.5296" id="Fill-233" fill="#FF3671"></path>
                    <path d="M49.1781,41.2659 L47.4331,38.5259 C47.3171,38.3429 47.2451,38.1439 47.2131,37.9429 C45.4391,37.3429 42.8961,37.1879 40.9111,38.4529 C39.5261,39.3349 44.8521,47.9969 46.3711,47.0289 C48.3281,45.7819 49.2661,43.4609 49.4921,41.6129 C49.3741,41.5149 49.2641,41.4029 49.1781,41.2659" id="Fill-235" fill="#FF3671"></path>
                    <path d="M57.909,37.6829 C55.953,38.9299 53.452,38.7979 51.682,38.2199 C51.848,38.8509 51.607,39.5459 51.029,39.9139 L50.399,40.3159 C49.821,40.6839 49.088,40.6089 48.586,40.1899 C48.361,42.0389 47.422,44.3599 45.466,45.6059 C44.808,46.0249 43.439,44.6409 42.208,42.8649 C43.595,45.2339 45.545,47.5559 46.371,47.0289 C48.328,45.7819 49.266,43.4609 49.492,41.6129 C49.993,42.0319 50.726,42.1059 51.305,41.7379 L51.934,41.3369 C52.513,40.9689 52.754,40.2739 52.587,39.6419 C54.358,40.2199 56.858,40.3519 58.815,39.1059 C59.6,38.6049 58.226,35.6009 56.612,33.2709 C57.775,35.2589 58.541,37.2809 57.909,37.6829" id="Fill-237" fill="#D9004F"></path>
                    <path d="M51.9344,41.3372 L51.3044,41.7382 C50.5894,42.1932 49.6334,41.9812 49.1784,41.2662 L47.4334,38.5252 C46.9774,37.8112 47.1904,36.8542 47.9054,36.3992 L48.5344,35.9982 C49.2494,35.5432 50.2064,35.7552 50.6614,36.4702 L52.4064,39.2112 C52.8614,39.9252 52.6484,40.8822 51.9344,41.3372 Z" id="Stroke-239" stroke="#641340" stroke-linecap="round" stroke-linejoin="round"></path>
                    <path d="M53.3543,30.5296 C51.3693,31.7946 50.4343,34.1636 50.2263,36.0246 C50.3953,36.1386 50.5443,36.2876 50.6613,36.4696 L52.4063,39.2106 C52.4933,39.3466 52.5483,39.4936 52.5873,39.6426 C54.3583,40.2196 56.8583,40.3526 58.8143,39.1056 C60.1993,38.2236 54.8743,29.5616 53.3543,30.5296 Z" id="Stroke-241" stroke="#641340" stroke-linecap="round" stroke-linejoin="round"></path>
                    <path d="M49.1781,41.2659 L47.4331,38.5259 C47.3171,38.3429 47.2451,38.1439 47.2131,37.9429 C45.4391,37.3429 42.8961,37.1879 40.9111,38.4529 C39.5261,39.3349 44.8521,47.9969 46.3711,47.0289 C48.3281,45.7819 49.2661,43.4609 49.4921,41.6129 C49.3741,41.5149 49.2641,41.4029 49.1781,41.2659 Z" id="Stroke-243" stroke="#641340" stroke-linecap="round" stroke-linejoin="round"></path>
                </g>
            </g>
        </g>
    </g>
</svg>