<svg xmlns="http://www.w3.org/2000/svg" viewBox="0 -2 16 16"><path d="M11.583984,1.32407643e-15 C11.3802616,4.07386277e-05 11.1969312,0.121386074 11.1205312,0.306756745 C11.0441312,0.492127416 11.0899375,0.704459135 11.236328,0.843523871 C12.326213,1.91058601 13,3.38121912 13,5.01321576 C13,6.6452124 12.326213,8.11584551 11.236328,9.18290774 C11.1057076,9.30600288 11.0530902,9.48879318 11.0987686,9.66078226 C11.144447,9.83277135 11.2812834,9.96708385 11.4565045,10.0119197 C11.6317255,10.0567556 11.8179507,10.0051087 11.943359,9.87689759 C13.213475,8.63337924 14,6.91089108 14,5.01321576 C14,3.11554044 13.213475,1.39305228 11.943359,0.149533826 C11.8491517,0.0539609847 11.7194672,3.83198985e-09 11.583984,8.8817842e-16 L11.583984,1.32407643e-15 Z M2.3867188,0.000821134387 C2.25736343,0.00536588914 2.13484302,0.0589677019 2.0449219,0.150354862 C0.7823311,1.39282688 8.8817842e-16,3.11121646 8.8817842e-16,5.00253425 C8.8817842e-16,6.89385204 0.7823311,8.61224122 2.0449219,9.85471324 C2.1703305,9.98292292 2.35655499,10.0345687 2.53177512,9.98973269 C2.70699525,9.94489664 2.843831,9.81058485 2.88950964,9.63859666 C2.93518827,9.46660847 2.88257201,9.28381887 2.7519531,9.16072339 C1.6685439,8.09457792 1,6.62910976 1,5.00253425 C1,3.37595874 1.6685439,1.91049047 2.7519531,0.844345006 C2.9008832,0.703125737 2.94572963,0.486415701 2.86473461,0.299354324 C2.7837396,0.112292948 2.59366144,-0.00641575813 2.3867188,0.000821134387 L2.3867188,0.000821134387 Z M9.464844,2.08580448 C9.26112159,2.08584522 9.07779119,2.20719056 9.00139119,2.39256123 C8.92499118,2.5779319 8.97079752,2.79026362 9.117188,2.92932835 C9.663034,3.463422 10,4.1959049 10,5.01321576 C10,5.83052661 9.663033,6.56300942 9.117188,7.09710326 C8.99054021,7.22107261 8.94089249,7.40194456 8.98694667,7.57158639 C9.03300085,7.74122822 9.1677602,7.87386731 9.34046217,7.9195398 C9.51316415,7.96521229 9.69757121,7.91697944 9.824219,7.79301009 C10.550372,7.08249183 11,6.09619548 11,5.01321576 C11,3.93023604 10.550372,2.94393939 9.824219,2.23342123 C9.72968334,2.13855325 9.60004047,2.08530119 9.464844,2.08580448 Z M4.5117188,2.09155581 C4.38168003,2.09560834 4.25837039,2.14924892 4.1679688,2.24108953 C3.4476034,2.95040892 3,3.93344592 3,5.01321576 C3,6.0929856 3.4476034,7.07602241 4.1679688,7.78534218 C4.36321658,7.97747438 4.68017138,7.97788584 4.87593625,7.78626125 C5.07170111,7.59463665 5.07215636,7.28352812 4.8769531,7.09135233 C4.3353184,6.55802194 4,5.82784716 4,5.01321576 C4,4.19858435 4.3353184,3.46840909 4.8769531,2.93507968 C5.0258832,2.79386041 5.07072963,2.57715037 4.98973461,2.390089 C4.9087396,2.20302762 4.71866144,2.08431891 4.5117188,2.09155581 L4.5117188,2.09155581 Z M7,4.03166071 C6.44771525,4.03166071 6,4.47111787 6,5.01321576 C6,5.55531364 6.44771525,5.99477081 7,5.99477081 C7.55228475,5.99477081 8,5.55531364 8,5.01321576 C8,4.47111787 7.55228475,4.03166071 7,4.03166071 Z"/></svg>