<svg xmlns="http://www.w3.org/2000/svg" viewBox="0 0 16 16">
    <path d="M 12.583984 2.8925781 A 0.50005 0.50005 0 0 0 12.236328 3.7519531 C 13.326213 4.839067 14 6.3373356 14 8 C 14 9.6626644 13.326213 11.160933 12.236328 12.248047 A 0.50005 0.50005 0 1 0 12.943359 12.955078 C 14.213475 11.688192 15 9.9333356 15 8 C 15 6.0666644 14.213475 4.311808 12.943359 3.0449219 A 0.50005 0.50005 0 0 0 12.583984 2.8925781 z M 3.3867188 2.9042969 A 0.50005 0.50005 0 0 0 3.0449219 3.0566406 C 1.7823311 4.3224606 1 6.0731414 1 8 C 1 9.9268586 1.7823311 11.677539 3.0449219 12.943359 A 0.50005 0.50005 0 1 0 3.7519531 12.236328 C 2.6685439 11.150148 2 9.6571414 2 8 C 2 6.3428586 2.6685439 4.8498519 3.7519531 3.7636719 A 0.50005 0.50005 0 0 0 3.3867188 2.9042969 z M 10.464844 5.0175781 A 0.50005 0.50005 0 0 0 10.117188 5.8769531 C 10.663034 6.4210832 11 7.1673306 11 8 C 11 8.8326694 10.663033 9.5789167 10.117188 10.123047 A 0.50063738 0.50063738 0 0 0 10.824219 10.832031 C 11.550372 10.108161 12 9.1033306 12 8 C 12 6.8966694 11.550372 5.8918387 10.824219 5.1679688 A 0.50005 0.50005 0 0 0 10.464844 5.0175781 z M 5.5117188 5.0234375 A 0.50005 0.50005 0 0 0 5.1679688 5.1757812 C 4.4476034 5.8984298 4 6.8999396 4 8 C 4 9.1000604 4.4476034 10.10157 5.1679688 10.824219 A 0.50063749 0.50063749 0 0 0 5.8769531 10.117188 C 5.3353184 9.5738355 5 8.8299396 5 8 C 5 7.1700604 5.3353184 6.426164 5.8769531 5.8828125 A 0.50005 0.50005 0 0 0 5.5117188 5.0234375 z M 8 7 A 1 1 0 0 0 7 8 A 1 1 0 0 0 8 9 A 1 1 0 0 0 9 8 A 1 1 0 0 0 8 7 z"></path>
</svg>
