<svg xmlns="http://www.w3.org/2000/svg" viewBox="0 0 16 16"><path style="line-height:normal;text-indent:0;text-align:start;text-decoration-line:none;text-decoration-style:solid;text-decoration-color:#000;text-transform:none;block-progression:tb;isolation:auto;mix-blend-mode:normal" d="M 2.5 2 C 1.6774686 2 1 2.6774686 1 3.5 L 1 11.5 C 1 12.322531 1.6774686 13 2.5 13 L 4 13 L 4 15.433594 L 7.6523438 13 L 12.5 13 C 13.322531 13 14 12.322531 14 11.5 L 14 3.5 C 14 2.6774686 13.322531 2 12.5 2 L 2.5 2 z M 2.5 3 L 12.5 3 C 12.781469 3 13 3.2185314 13 3.5 L 13 11.5 C 13 11.781469 12.781469 12 12.5 12 L 7.3476562 12 L 5 13.566406 L 5 12 L 2.5 12 C 2.2185314 12 2 11.781469 2 11.5 L 2 3.5 C 2 3.2185314 2.2185314 3 2.5 3 z M 7.5 5 L 6.7363281 6.7128906 L 4.8710938 6.9101562 L 6.2636719 8.1640625 L 5.8769531 10 L 7.5 9.0625 L 9.1230469 10 L 8.734375 8.1640625 L 10.128906 6.9101562 L 8.2636719 6.7128906 L 7.5 5 z" font-family="sans-serif" font-weight="400" overflow="visible" white-space="normal"/></svg>