<svg xmlns="http://www.w3.org/2000/svg" viewBox="0 0 16 16"><path d="M6.5,0 C2.9160714,0 0,2.9160714 0,6.5 C0,10.083929 2.9160714,13 6.5,13 C10.083929,13 13,10.083929 13,6.5 C13,2.9160714 10.083929,0 6.5,0 Z M6.5,1 C9.543488,1 12,3.4565116 12,6.5 C12,9.543488 9.543488,12 6.5,12 C3.4565116,12 1,9.543488 1,6.5 C1,3.4565116 3.4565116,1 6.5,1 Z M6.5585938,3.0019531 C5.3472854,3.0699274 4.3613281,4.0847582 4.3613281,5.3183594 L5.3613281,5.3183594 C5.3613281,4.5061893 6.0639027,3.8718904 6.9199219,4.0195312 C7.5361487,4.1254123 8.0192678,4.7278191 8,5.359375 C7.983165,5.9149316 7.6614439,6.2665271 7.1835938,6.4765625 L7.1835938,6.4785156 C6.887487,6.6093687 6.6054605,6.7348028 6.3671875,6.984375 C6.1289145,7.2339472 6,7.6047849 6,8 L7,8 C7,7.7752151 7.0295699,7.739006 7.0917969,7.6738281 C7.1538385,7.6088445 7.3155081,7.512231 7.5859375,7.3925781 C8.3320874,7.0646135 8.970835,6.3530684 9,5.390625 C9.034732,4.2521809 8.2196168,3.2273222 7.0898438,3.0332031 C6.9098461,3.0021582 6.7316378,2.9922425 6.5585938,3.0019531 Z M6,9 L6,10 L7,10 L7,9 L6,9 Z"/></svg>