<svg xmlns="http://www.w3.org/2000/svg" viewBox="0 0 16 16">
    <path style="line-height:normal;text-indent:0;text-align:start;text-decoration-line:none;text-decoration-style:solid;text-decoration-color:#000;text-transform:none;block-progression:tb;isolation:auto;mix-blend-mode:normal" d="M 7.5 1 C 3.9160714 1 1 3.9160714 1 7.5 C 1 11.083929 3.9160714 14 7.5 14 C 11.083929 14 14 11.083929 14 7.5 C 14 3.9160714 11.083929 1 7.5 1 z M 7.5 2 C 10.543488 2 13 4.4565116 13 7.5 C 13 10.543488 10.543488 13 7.5 13 C 4.4565116 13 2 10.543488 2 7.5 C 2 4.4565116 4.4565116 2 7.5 2 z M 7.5585938 4.0019531 C 6.3472854 4.0699274 5.3613281 5.0847582 5.3613281 6.3183594 L 6.3613281 6.3183594 C 6.3613281 5.5061893 7.0639027 4.8718904 7.9199219 5.0195312 C 8.5361487 5.1254123 9.0192678 5.7278191 9 6.359375 C 8.983165 6.9149316 8.6614439 7.2665271 8.1835938 7.4765625 L 8.1835938 7.4785156 C 7.887487 7.6093687 7.6054605 7.7348028 7.3671875 7.984375 C 7.1289145 8.2339472 7 8.6047849 7 9 L 8 9 C 8 8.7752151 8.0295699 8.739006 8.0917969 8.6738281 C 8.1538385 8.6088445 8.3155081 8.512231 8.5859375 8.3925781 C 9.3320874 8.0646135 9.970835 7.3530684 10 6.390625 C 10.034732 5.2521809 9.2196168 4.2273222 8.0898438 4.0332031 C 7.9098461 4.0021582 7.7316378 3.9922425 7.5585938 4.0019531 z M 7 10 L 7 11 L 8 11 L 8 10 L 7 10 z" font-weight="400" font-family="sans-serif" white-space="normal" overflow="visible"></path>
</svg>
