<svg xmlns="http://www.w3.org/2000/svg" viewBox="0 0 16 16">
    <path style="line-height:normal;text-indent:0;text-align:start;text-decoration-line:none;text-decoration-style:solid;text-decoration-color:#000;text-transform:none;block-progression:tb;isolation:auto;mix-blend-mode:normal" d="M 3 1 L 3 2 L 2.5 2 C 1.6774686 2 1 2.6774686 1 3.5 L 1 12.5 C 1 13.322531 1.6774686 14 2.5 14 L 12.5 14 C 13.322531 14 14 13.322531 14 12.5 L 14 3.5 C 14 2.6774686 13.322531 2 12.5 2 L 12 2 L 12 1 L 11 1 L 11 2 L 4 2 L 4 1 L 3 1 z M 2.5 3 L 3 3 L 3 4 L 4 4 L 4 3 L 11 3 L 11 4 L 12 4 L 12 3 L 12.5 3 C 12.781469 3 13 3.2185314 13 3.5 L 13 5 L 2 5 L 2 3.5 C 2 3.2185314 2.2185314 3 2.5 3 z M 2 6 L 13 6 L 13 12.5 C 13 12.781469 12.781469 13 12.5 13 L 2.5 13 C 2.2185314 13 2 12.781469 2 12.5 L 2 6 z M 5.5 7 C 4.6774686 7 4 7.6774686 4 8.5 L 5 8.5 C 5 8.2185314 5.2185314 8 5.5 8 C 5.7814686 8 6 8.2185314 6 8.5 C 6 8.6309685 5.9715929 8.6706577 5.9101562 8.7324219 C 5.8487197 8.7941861 5.7328265 8.8606329 5.59375 8.90625 C 5.315597 8.9974842 5.0058594 9 5.0058594 9 C 5.0054774 9.0000074 4.9941406 9 4.9941406 9 L 5 9.5 L 4.9941406 10 C 4.9941406 10 5.0054774 9.9999926 5.0058594 10 C 5.0058594 10 5.315597 10.0025 5.59375 10.09375 C 5.7328265 10.13937 5.8487197 10.205814 5.9101562 10.267578 C 5.9715926 10.329342 6 10.369031 6 10.5 C 6 10.781469 5.7814686 11 5.5 11 C 5.2185314 11 5 10.781469 5 10.5 L 4 10.5 C 4 11.322531 4.6774686 12 5.5 12 C 6.3225314 12 7 11.322531 7 10.5 C 7 10.122969 6.8409071 9.7834858 6.6210938 9.5625 C 6.5949115 9.5361781 6.564301 9.523545 6.5371094 9.5 C 6.564301 9.476455 6.5949115 9.4638219 6.6210938 9.4375 C 6.8409072 9.2165142 7 8.8770315 7 8.5 C 7 7.6774686 6.3225314 7 5.5 7 z M 9.5 7 C 8.6772727 7 8 7.6772727 8 8.5 L 8 10.5 C 8 11.322727 8.6772727 12 9.5 12 C 10.322727 12 11 11.322727 11 10.5 L 11 8.5 C 11 7.6772727 10.322727 7 9.5 7 z M 9.5 8 C 9.7772727 8 10 8.2227273 10 8.5 L 10 10.5 C 10 10.777273 9.7772727 11 9.5 11 C 9.2227273 11 9 10.777273 9 10.5 L 9 8.5 C 9 8.2227273 9.2227273 8 9.5 8 z" font-weight="400" font-family="sans-serif" white-space="normal" overflow="visible"></path>
</svg>
