<svg xmlns="http://www.w3.org/2000/svg" viewBox="0 0 16 16"><path d="M0,11.0285697 L1,11.0285697 L1,11.5 C1,11.781469 1.2185314,12 1.5,12 L11,12 L11.375,12 L12.908203,12 C12.701203,12.581 12.151,13 11.5,13 L11.375,13 L11,13 L1.5,13 C0.6774686,13 0,12.322531 0,11.5 L0,11.0285697 Z M2,0 L3,0 L3,1 L10,1 L10,0 L11,0 L11,1 L11.5,1 C12.322531,1 13,1.6774686 13,2.5 L13,7 L12,7 L12,5 L1.00253296,5 L1.00253296,6.00955376 L0,6.00955376 L0,5 L0,2.5 C0,1.6774686 0.6774686,1 1.5,1 L2,1 L2,0 Z M1,7 L2,7 L2,8 L3,8 L3,9 L2,9 L2,10 L1,10 L1,9 L0,9 L0,8 L1,8 L1,7 Z M9.158203,8.1425781 C9.60528564,8.02519226 10.233383,8.1513388 10.5,8.3925781 C10.766617,8.1513388 11.4662628,8.03053284 11.841797,8.1425781 C12.480616,8.3143767 13,8.8102653 13,9.5 L13,11 L12,11 L12,9.5 C12,9.218531 11.781469,9 11.5,9 C11.218531,9 11,9.218531 11,9.5 L11,11 L10,11 L10,9.5 C10,9.218531 9.781469,9 9.5,9 C9.218531,9 9,9.218531 9,9.5 L9,11 L8,11 L8,9.5 C8,8.8102653 8.5193837,8.3143767 9.158203,8.1425781 Z M6.90649535,7.20727645 C7.02388119,7.6543591 6.89773465,8.28245645 6.65649535,8.54907345 C6.89773465,8.81569045 7.01854062,9.51533627 6.90649535,9.89087045 C6.73469675,10.5296895 6.23880815,11.0490735 5.54907345,11.0490735 L4.04907345,11.0490735 L4.04907345,10.0490735 L5.54907345,10.0490735 C5.83054245,10.0490735 6.04907345,9.83054245 6.04907345,9.54907345 C6.04907345,9.26760445 5.83054245,9.04907345 5.54907345,9.04907345 L4.04907345,9.04907345 L4.04907345,8.04907345 L5.54907345,8.04907345 C5.83054245,8.04907345 6.04907345,7.83054245 6.04907345,7.54907345 C6.04907345,7.26760445 5.83054245,7.04907345 5.54907345,7.04907345 L4.04907345,7.04907345 L4.04907345,6.04907345 L5.54907345,6.04907345 C6.23880815,6.04907345 6.73469675,6.56845715 6.90649535,7.20727645 Z M1.5,2 C1.2185314,2 1,2.2185314 1,2.5 L1,4 L12,4 L12,2.5 C12,2.2185314 11.781469,2 11.5,2 L11,2 L11,3 L10,3 L10,2 L3,2 L3,3 L2,3 L2,2 L1.5,2 Z"/></svg>