<svg xmlns="http://www.w3.org/2000/svg" width="1411" height="1411" fill="none">
  <g clip-path="url(#a)">
    <path fill="#9AA6A6" d="M0 0h1412v1411H0z"/>
    <path fill="#889898" d="m1304.3 1421.4-242.3 16.7C1031 1250.5 841 153 841 153c100.6 18.7 184.2 100.4 219.1 194 32.8 88 48.5 186 61.6 278.7 8.3 59.7 16.1 119.6 26.2 179 7 40.9 21 80 35.3 118.8 32.5 88.7 55.6 180 79.1 271.3 18.4 71.3 30.5 154.1 42 226.7Z"/>
    <path fill="#0D0F0E" stroke="#000" stroke-width="18" d="M1227.8 1452.6H179.5c5.2-36.7 17.7-111.3 27.6-170.3 14.9-88.4 38-175.5 62.3-262.1 9.6-34.2 20.7-68 32-102.1l3-9.3a1832 1832 0 0 0 34.2-112.6c12.4-47.6 19.1-98.6 25.6-148.5 3.3-25 6.5-49.6 10.4-73.3a2312.5 2312.5 0 0 1 45.4-210c33.6-127.8 147.1-239.9 283.8-239.9 120.1 0 233.3 85.6 273.4 197.3 35.1 97.6 49.4 203.2 63.4 307.1l4.6 33.5 3.5 26.6c5 39 10.3 79.1 21 117.4a2231 2231 0 0 0 41.6 128 9028 9028 0 0 1 6.6 19c16.8 48.7 33 97 44.8 146.7 27.8 117.7 55 234.2 65.1 352.5Z"/>
    <path fill="#060807" d="M876.2 197a118.7 118.7 0 0 1 26.6 33.6 562.3 562.3 0 0 1 31.8 81c2.7 8.7 5.7 17.3 8.6 25.8a604 604 0 0 1 20.1 69.4c3.6 14.7 7.2 29.4 11.6 43.9 9.3 31 13 65.7 16.6 99 1.1 10.6 2.2 21.1 3.5 31.3 2.4 18.5 2.4 37 2.5 55.6 0 14.5 0 29 1.2 43.3 2 24.6-1.5 51.3-4.7 76.5l-1.6 12.8a152 152 0 0 0 17.3 94.4l11.8 21.7c13.1 24 26.3 48 38.7 72a490.2 490.2 0 0 1 29 74.6c5.5 16.8 11 33.7 17.6 50a523.2 523.2 0 0 1 34.2 156.3c1 21 4.5 42.7 8 64.2 2.6 16.2 5.3 32.4 6.8 48.3.6 6.2 1 12.4 1.4 18.6a248 248 0 0 0 4.9 41.7h52.4c-12.2-103.1-36-205.2-60.6-308.8-13.2-55.8-32-110-50.8-164.1l-.3-.7c-14.6-42.2-29.5-85-41.7-128.5-12.8-45.4-18.6-92.6-24.4-139.5-1.6-13.1-3.2-26.2-5-39.2-14-104.1-28.2-208.8-63-305.3A293.7 293.7 0 0 0 876.3 197Z"/>
    <path fill="#020303" d="M1209.2 127.6c-.7-4.8-.5-9.7.3-14.4.3-1.3 2-1.2 2.3 0a144 144 0 0 1 2 13.4c.3 2.2 3 .8 3.3-.9.6-4.4.5-8.7 2.9-12.5.5-.9 1.9-.7 2.1.3 1.1 3.6 1.3 7.7 2.5 10.7.5 1 2.2 1 2.6-.1l2.4-7.2c.5-1.4 2.6-.9 2.6.5l-.5 8.8c0 1 3.6 2.5 3.8 1.3.3-3 2.3-12.6 6.6-12.3.4 0 .7.4.7.8l-.2 10.4c0 .6.4 1.1 1 1.3 2.6.9 4.9-5.4 5.8-7.2.3-.6.9-1 1.5-.9 1 0 1.4.7 1 1.9a16 16 0 0 0-.9 5.8c0 .3.1.5.4.6 4.4 2.2 4.5-8.3 9.8-8.5.4 0 .5.2.5.5 0 3.7-.3 7.3-1.1 10.9-.4 1.5-.2 2.7.5 3.7.5.7 1.7.7 2.2-.1 1.4-2 4.3-7.5 6.6-8.2a1 1 0 0 1 1.3 1.5l-3.2 8c-.4 1.1 1.2 2 2 1 2.2-3 4.7-5.7 7.5-8.3 1.4-1.2 3.6.3 2.9 2l-3 8.1c-.4.8 1.7 4.2 2.8 3.4 2.1-1.5 4-3.2 5.9-5.1.6-.7 2.8-1.3 2.7.2 0 2-4.5 8.1-5.8 10-1 1.3.7 2.7 1.8 1 2.7-3.8 6-7 10-9.5.7-.5 1.8 0 2 1 .3 3.3-3.3 8.4-5 11.2-.6 1 1.2 2.3 2 1.8l9.2-5.8c.6-.3 1.2.2 1 .8-.8 3.5-6.4 6.4-4.6 9.5.3.5 1 .7 1.4.3 2-1.4 8.3-6 10.6-3.7.2.2.3.5.2.8-1.1 3.3-5 7-7.9 10.1-.4.4-.9 2.6.3 2 2.7-1.6 9.4-5.8 12.2-5.3 1 .2 1.2.7.5 1.5a62.5 62.5 0 0 1-9 7.3c-1 .7 2.6 3 3.6 2.5 3.4-2.2 7-3.7 11-4.5 1.5-.3 2.5 1.5 1.4 2.6l-6.8 6.9c-1.2 1.2 0 3.3 1.7 2.8 3-.9 6.4-2.5 9.3-2 .7.1 1 1.1.3 1.5a138 138 0 0 1-8 4.7c-1.9 1-2.6 5.1 0 4a27 27 0 0 1 12-2.1c.9 0 1.4 1 1 1.8-1.2 2.2-8 5.7-10.6 7.3a.8.8 0 0 0 .3 1.4c3.3.6 8.2-.9 11.5-1.2 1.5-.1 2 2 .6 2.6l-6.5 2.8c-2.2.9-2 3.9.6 3.6 3.5-.4 6.8-.3 10 .1 1 .2 1.4 1.4.7 2-3 3.2-7.8 4.3-11.9 6-.8.4-.5 1.6.3 1.6l11.2.3c2 0 1 2.6-.5 2.9-3.7.7-7.3 1.4-10.7 1.9-.9 0-1.2 1-.7 1.7 3.7 4.6 10.5.5 14.7 4.4 1 .9.5 2.5-.8 2.8l-8.6 2c-1 .1-1 1.6 0 1.8l9.2 2.4c1.2.3 1 2-.2 2.1-3.5.3-10.8-.6-11.6 4 0 .6.3 1 .8 1 4.1.3 8 1.3 11.6 3.2 1 .6.9 2.3-.4 2.6a42 42 0 0 1-12 1.2c-.5 0-2.1.8-.9 1.2l11 4c1.4.5 1 2.5-.5 2.4l-8.5-.6c-2.3-.2-3.2 2.9-1.3 4 2.6 1.5 8 3.5 9.3 6.4a1 1 0 0 1-.8 1.3 57 57 0 0 1-11.2-.5c-2.2-.4-3.2 2.8-1.1 3.7 2.4 1 7.3 3.1 9.3 5.5.7 1-.2 2.3-1.3 2l-12.8-4c-.3-.1-.4 0-.4.3.8 4.6 13.7 6.6 11.8 11.4 0 .3-.3.5-.7.5-3.6 0-7-.8-10.3-2a.9.9 0 0 0-1.2.9c.5 3 5.6 5.6 7.6 8.1.6.7-.2 1.8-1.1 1.5-3.4-1.3-8.9-5.4-11.7-2-.2.2-.2.5 0 .8 2.6 3.1 5.4 4.7 7.5 8.6.6 1.3-.7 2.7-2 2l-11.8-5.6c-2.1-1-1 3-.3 3.6l8.6 8.6c1.2 1.3-.5 3.3-2 2.3l-7.7-5.4c-1.2-1-2.8.7-2 2l5.5 7.5c1 1.4-.5 3.2-2 2.6-3.2-1.3-7.4-5-10.6-5.6a.8.8 0 0 0-.9 1.3c1.5 2.7 4.2 6.6 4.8 9.5.1 1-1 1.6-1.7.9-1.3-1.3-8.5-10.4-10.2-9.6-1.3.7-1.4 2-.6 3.1 2.2 3.2 6.7 9.8 5 13.7-.1.3-.4.4-.7.2a25.6 25.6 0 0 1-7.5-6.4c-1.5-2-2.7 1.5-1.7 3 2 3 3 6 3.5 9.3 0 .7-.8 1.1-1.2.6a42 42 0 0 1-6-7c-1.3-2-6.1-2.3-4.5.7a25 25 0 0 1 2.7 9.5c0 1.4-1.6 2.1-2.5 1.1-3.2-3.2-6-6.8-8.4-10.7-.6-.8-2.5-1.8-2.3-.1.2 2.7 2.7 7.6 3.4 10.7a93 93 0 0 0 9.4 23.8c1.5 2.7 4.3 3.3 7.3 2.6a81.6 81.6 0 0 0 19.8-6.7c3.1-1.5 8-4.4 11.2-1.7 2.4 2 4.4 4.7 6 8.3.4 1-.6 2-1.5 1.6-1-.4-3.2-1.7-4.3-1.5-1.1.2-1.5 2-2.7 2.2-.9.2-1.8-1-2.2-1.7-.3-.6-1-1-1.7-.7l-29.1 8c-2.4.7-4.3 0-5.8-2-7.1-10-10.8-21.3-15.5-33.9-.2-.4-1.1-.7-1 0 .6 2.6 1.7 6.3.6 8.8-.5 1.2-2.3 1.3-2.9.1l-4.2-7.9c-.6-1-2.3-.8-2.4.4-.5 3 .8 6.7.6 10-.1 1.3-2 2.5-2.5 1-1.4-4-2.6-8-3.6-11.7-.5-2-4.8-2.8-4.4-1.3 1.5 4.7 1.8 9.4.7 14.2-.3 1.6-2.5 1.8-3.1.4-1.1-2.4-2.1-5-3-7.6-.5-1.4-3.3-3.2-3.5-.7l-.7 10.4c0 1.2-2 1-2.4.3-2-2.4.1-11.8-4.7-11.3-.8 0-2.9 9-3.6 10.5a1 1 0 0 1-1.6 0c-3-3.5-.9-13.4-3.4-15.4-.4-.3-1.1 0-1.1.6 0 5.6-1 11-3 16.3-.3 1-1.7.7-1.7-.3l-.4-12.3c0-1.2-3.5-.7-3.8 0l-4.3 9.7c-.4 1-1.7.8-2.2 0-1.3-2.1-1.1-7.1-1.2-9.4 0-1.4-2.4-3.6-3.1-1.5-.6 1.6-1 2.6-1 4.3a517 517 0 0 1-3.6 51.1c-.4 3.9-1 5.5-4.8 7.2a20 20 0 0 1-10 1.5.6.6 0 0 1-.4-1l3.5-4.4c.2-.3.1-.5-.2-.6l-4-1.6c-.7-.3-.5-1.5.3-1.6l6-1a3.3 3.3 0 0 0 2.7-2c1-3 1.7-6.4 2-10 .8-14.4 1.3-28.8 1.5-43.2 0-.7-3.7 4.8-4.3 5.7-1.2 1.8-3.6 1.6-3.5-.8 0-2.7.5-5.4 1.5-8.2.9-2.5-2.6-.9-3.3.3l-3.9 6.2c-.9 1.4-3 1.3-2.6-.8.3-1 4.2-12.1-.3-10.4-3 1.2-4.7 7.1-7.7 7.5-2 .2-2-2.6-1.7-3.8 1.2-3.8 3.7-8.8 3.8-12.6 0-1-1.2-1.2-1.6-.5a44.4 44.4 0 0 1-9.9 12.4c-1 .8-2.4-.4-1.8-1.5l5-9.2c.9-1.3.6-3-1.3-2.7-1.7.3-9.4 7.9-10.5 5.5-1.3-2.6 2.1-6.7 3.4-9 .7-1.4-2.6-3.4-3.3-2.6a18 18 0 0 1-7.3 4.3c-.7.2-1.3-.7-.8-1.3 1.5-1.9 6.8-7.2 7.3-9.1.3-1.2-.8-3.1-2.1-1.9-3 2.8-7.6 6.8-11.6 7a1 1 0 0 1-1-1.4c1.6-3.7 4.5-6 6-9.5.4-.9-.6-1.7-1.4-1.3l-10.5 5.4c-.9.5-1.8-.7-1.1-1.5 2-2.2 9-7 6.9-10a2 2 0 0 0-2.3-.6 26.6 26.6 0 0 1-8 2.2c-1.4.1-2.2-1.6-1.2-2.6l9.4-8.4c.8-.6 0-1.8-1-1.4-3 1.5-10.7 5.4-14.2 5-.8 0-1-1-.5-1.5 1.3-1 11.3-6.3 10.8-7.7-.7-1.8-2.3-2.5-4.1-2a30 30 0 0 1-9 1.8c-1.7 0-2.3-2-1-3l7.3-5.1c1.2-.9.3-2.8-1.1-2.5-3 .7-6.2 1.4-9.6 1.6-1.3 0-1.8-1.8-.6-2.4l10.6-4.7c1-.5 2-4.5.2-4-4 1-8 1.1-12 .3-1.1-.2-1.5-1.7-.5-2.5 2.3-1.7 5-3 8.1-3.7 1.1-.2 2.3-2.8.8-2.7-4.2.5-8.3.4-12.4-.1-1-.1-1.2-1.8-.1-2l9.6-2.6c1.5-.4.9-4.5-.7-4.4-3 0-6-.4-8.9-1.6-1.1-.4-1.1-2 0-2.5 3.8-1.5 7.7-2.6 11.7-3.4 1.3-.2 1.4-2-.3-2-3.4 0-10.4-.3-13.2-2.3a.8.8 0 0 1 .3-1.4c4-.8 8.1-1 12.3-.7 1.4 0 2.3-1.6 1.5-2.7-2-3-8.2-3-11.3-5.2-1.4-1-.7-3.2 1-3.3l7.7-.4c1.5 0 1.7-2.3.2-2.6-3.5-.8-6.8-2-10-3.6a.8.8 0 0 1-.4-.6c-.1-1.5 3-1.4 3.7-1.3l9 1c1.2.1 2-2.5 2.5-3.3.3-.6.2-.9-.5-1a21 21 0 0 1-10-4c-1-.8-1.6-3 .2-3.2a31 31 0 0 1 11.2 1c1.8.5 1.6-2.3 0-2.8-3.9-1.2-7.3-3-10.5-5.2-1.4-1 .3-2.2 1.5-2l9.2 2.3c1.2.3 2.7-2.8 2-3.4l-7.5-6.7c-.8-.7-.3-2 .7-2 4.8-.2 7.8 1.6 12.3 2.3.7.1 1-1 .4-1.3-3-1.8-9-5.4-10.7-8.5-.3-.7.4-1.6 1.2-1.3 4.7 1.2 9 4.2 13.6 6 .2.1.6 0 .6-.4 1-6.4-7.5-7.2-8.7-13.1-.3-1 .8-2 1.8-1.6l8.2 3.2c1.6.7 2.2-1 2.8-2.1.7-1.4-4.1-6.4-5-7.6-.7-1 .5-2.1 1.5-1.5 2.3 1.5 6.7 5.5 9.4 5.3.6 0 1-.8.5-1.3-1.4-1.4-7.9-8.5-6.2-10.8.5-.8 1.6-1.3 2.5-.7l9.6 6.8c.6.5 1.4-.4 1-1l-8-10.8c-1-1.4.7-2.7 2-1.8 2.6 1.8 5 4 7 6.7 1.5 1.7 4.5-1.6 3.9-3l-4-8c-.5-1.2.4-2.5 1.6-2.4 2.6.2 8.5 6.4 10.7 8.3.4.3.9-.1.7-.5-1.7-3-6.1-10.4-5.7-13.6 0-.8 1.2-1.1 1.7-.5l9 12.3c2 2.8 3-2.4 2.4-4-.7-1.6-4.5-10.8-2.4-12 2.8-1.8 6 4.4 7 6.2.6.9 3 1.6 2.5 0l-2.8-10.5c-.4-1.4 1.5-2.3 2.3-1 2.7 3.8 4.3 11.7 10 11 .4-.1.5-.3.4-.6-1-3.3-3.4-9.7-1.2-13.6.1-.3.5-.4.8-.3 3.2.9 6.4 9.8 8 13 .3.7 1.4.3 1.2-.5-1-4.3-2-8.9-2.6-13.6-.3-2.3 2.4-3.2 3.2-1l3.4 10.4c.5 1.7 4.4-1 4.3-1.9-.1-2.5-.2-8.9 2.1-10.6.6-.3 1.5-.4 1.8.4l4 12.8c.3.6 1.3.4 1.3-.3Z"/>
    <path fill="#FEFEFE" d="M1201.8 250.6a33.7 33.7 0 0 1-33.3 33.4 33.7 33.7 0 0 1-33.4-33.4 33.7 33.7 0 0 1 33.4-33.3 33.7 33.7 0 0 1 33.3 33.3Zm104 .1a33.7 33.7 0 0 1-33.3 33.3 33.7 33.7 0 0 1-33.4-33.3 33.7 33.7 0 0 1 33.4-33.4 33.7 33.7 0 0 1 33.3 33.3Z"/>
    <path fill="#020303" d="M1158.8 274.4a13 13 0 1 0 0-26.2 13 13 0 0 0 0 26.2Zm102.9 0a13.1 13.1 0 1 0 0-26.2 13.1 13.1 0 0 0 0 26.2ZM271.4 611.5c2.4 3.5 6 5.9 9 9 .6.7 0 2-1 2-2.2-.2-4.2-.6-6.2-1.5-2-.8-3.7-.5-4 1.8 0 .3 0 .6.3.8l6.1 5.5c1 .8.5 2.4-.8 2.2-2.2-.3-7.5-4-9.8-5.2-.6-.3-1.3.5-1 1.1 1.7 3.2 5.3 5.8 5.6 9.4a.9.9 0 0 1-1.2 1 33 33 0 0 1-10.7-7 .5.5 0 0 0-.9.3c-.7 3.3 4.3 7.3 6 10.1.4.7-.4 1.6-1.2 1.2l-6.2-3.8a1 1 0 0 0-1 0c-3.2 1.8 0 5 1.1 6.8 1.3 2 1.2 3.2-.3 3.7-.5.1-1.1 0-1.6-.3l-7-5c-1-.8-2.5.5-1.8 1.7l5.2 9.5c.2.5-.1 1-.6 1-3.4-.1-8.1-7.8-9.9-10.7-.5-1-2-.4-1.8.7.7 4.6 3.6 8.2 3.6 13 0 1-1 1.4-1.8 1a18.1 18.1 0 0 1-5.6-6.6.7.7 0 0 0-1-.3l-2.5 2c-.2 0-.3.4-.2.7l2.4 7.2c.4 1.1-1 1.9-1.8 1a37.4 37.4 0 0 1-4.5-6.7c-.5-.9-1-1.3-1.8-1.3-.6 0-1 .5-.8 1 .6 2.5 2 6.5 1.1 8.9-.4 1-2 1.2-2.5.2l-2.7-4.2c-.2-.4-.7-.3-.8 0-2.8 10.8-6.5 22.8-7.8 33.7-.8 6.7 0 7.9 6.3 9.8 1.1.3 1 2-.2 2.1l-3.3.4c-.3 0-.5.4-.4.7l2 3.7c.5.8-.3 1.9-1.3 1.6-3.9-1.3-10.9-4.6-10.3-9.4 1.7-12.5 4-24.8 7.1-37a11 11 0 0 0 0-6.3.8.8 0 0 0-1.4-.4c-3 2.5-1.2 6.5-2 10-.1 1-1.5 1.4-2.2.6-2.7-2.8-2.3-6.4-5.2-9.2-1-1-2.5-.3-2.5 1l-.2 10c0 1.5-2 1.3-2.3 0-1-5-2.1-8.7-1.8-13.7 0-.7-1-.8-1.2-.2-1 3.5-.9 11-3 13.4a1 1 0 0 1-1.7-.1 20.3 20.3 0 0 1-2.5-8.4c-.2-2-2.9-.4-3.1 1-.6 2.8-1 5.7-1.5 8.5-.2 1-1.5 1-1.8.1-1-3-1.4-6.3-1.3-9.6 0-1.6-2.3-2-2.9-.4l-2.4 7.3c-.3.8-1.2 1.2-2 .9-3-1.3-1.5-10.5-1-13.4.1-1-.4-1.5-1.5-1.4-1.2.3-2.1 2.2-2.4 3.6-.7 3.2-1.8 6.4-3.2 9.4a1 1 0 0 1-1.6 0c-1.2-1.7.3-8.1.5-10.3.1-1-1.4-1.5-2-.6l-4.4 7.3c-.4.8-1.5 1-2.2.3-.5-.5-.7-1.2-.7-2.3 0-2.2.2-4.4.4-6.8.1-1.7-2.2-2.4-3-.9l-4 7.7c-.7 1.3-2.8.5-2.5-1a59 59 0 0 1 4.3-12.2c.3-.6-.6-1.7-1.1-1a551.3 551.3 0 0 0-23.8 38.5c-.8 1.4-1.8 5-.3 6.3l4.2 4c.7.5.1 1.6-.7 1.4l-3.7-.8c-.2-.1-.5.1-.4.4l.5 4.2c.2 1-1 1.7-1.9 1.1-3.8-2.9-8.8-8.1-6.2-13.2 7-13.6 14.6-26.8 22.7-39.6a9 9 0 0 0 1.3-3c0-.3-.1-.7-.4-.8-3.6-1-6.5 4.8-8.3 7-.9 1-2.6 0-2-1.3l3.7-9c.2-.3 0-.5-.3-.6-2.5-.2-5.6 3.9-7.4 5.3-1.1.9-2.8-.2-2.5-1.6 1-4.3 3-7.2 5.2-10.8.5-.9.3-1.6-.5-2.1-.5-.3-1.2 0-2 .8-2 2-4 4.2-6.1 6.7-.8.9-1.5.9-2.2 0-.4-.5-.3-1.4.5-2.5a57 57 0 0 0 3.5-6.4c.3-.4-.2-1-.7-.8-3.1 1.2-6 2.8-8.9 4.7-1.5 1-3.6-1-2.5-2.6l4.7-6.3c.8-1-.5-2.5-1.7-1.8l-7.7 5.2c-1 .6-1.7-.5-1.2-1.3a35 35 0 0 1 7.3-8c1.4-1.3 1.7-2.7.9-4.3-.2-.3-.4-.3-.7-.1-3.4 2.3-7 4-10.9 5.2-1 .4-2-.8-1.4-1.8 1.4-2.3 3-4.3 5.1-6 1.4-1.3 1.6-5-.8-4l-7.4 3.4c-.9.3-1.4 0-1.6-.9-.1-.5.3-1.2 1.2-2 1.5-1 3.2-2.5 5.3-4.3.7-.6.2-2-.8-1.8-2.3.2-8.7 2.8-10.2.5a.7.7 0 0 1 0-.9c2-2.7 6.6-5 10-6.9 1.2-.6.9-2.5-.5-2-3.4 1.2-6.8 2.3-10.3 3.2-1.6.5-1.6-2-.3-2.7l7.7-4.3c1.4-.8.8-3-.8-2.9-3 .2-8.6 1.6-10.9 0-.7-.5-.7-1.7.1-2.1l7.1-4c.3-.1.5-.4.5-.7l.5-3.1c0-.4 0-.6-.5-.5l-8.2 1c-1 .2-1.6-1-1-1.7 1.8-2.1 7.3-3.1 10.1-4 .4-.2.5-.8.1-1-1-.7-2.5-.1-3.4-.2A40 40 0 0 1 78 573c-.7-.2-2-1.3-.9-1.9 3.4-1.7 7-2.8 11-3.2.5 0 .9-.7.6-1.2-1.9-4-7.4-2.3-11-3.4-.5-.2-.5-.4 0-.7 2.9-2.2 7.6-1.7 9.5-4 .3-.4 0-1-.5-1.1-3.3-.2-6.3-1-9.2-2.5a.8.8 0 0 1 0-1.4c3.3-1.5 6.8-2.2 10.6-2.2 1.4 0 2.9-.8 3.2-2.1.2-.5-.1-1-.6-1l-10.3-2c-1.2-.3-1.3-2.1 0-2.3 3.5-.7 7-.7 10.5 0 .3.2.6-.2.5-.5-1.8-3.3-7.6-4.2-10.7-6.2-1.3-.8-.7-2.8.8-2.8l8.7.2c1.6 0 2.1-2.3.6-3l-6.4-2.7c-1.3-.6-.7-2.6.7-2.4l8.8 1.3c1.6.3 2.6-1 1-2l-8.5-5.2a.8.8 0 0 1-.3-1c1.7-3.5 9.4-.4 12 .4 1.6.5 2.5-1.7 1.2-2.5l-7.9-4.8c-1.1-.8-.3-2.6 1-2.2l8 2.4c.4 0 .8-.2.7-.6-.2-3.4-3.9-5.6-6.2-7.7-.4-.4-.5-1-.4-1.4 1.4-3.8 9.4 1.3 11.3 2.5h.7l3-1.3c.3-.2.3-.4 0-.6l-8.7-6.9c-.7-.5-.3-1.5.5-1.5 3.7 0 8 3.2 11 5 .7.4 1.4-.5 1-1l-7.6-9.4c-1-1.2.4-3 1.8-2.3l8.2 4.1c1.3.6 2-.5 1.3-1.5a682 682 0 0 1-4.6-6.5c-.4-.6.2-1.3.8-1.1 3.4 1.2 6 4.1 9 5.1a1 1 0 0 0 1.3-1.5c-1.4-2.5-4.5-7-4.6-9.8 0-1.2 1.2-2 2.2-1.3 3.7 2.4 6.7 5.5 9 9.3.2.3.7.3 1 0 .3-.8.3-1.6-.2-2.4l-4.7-7.8c-.9-1.4 1-1.8 1.9-1 1.7 1.4 3.3 3 5 4.6.2.2.5.3.8.2 5-1.5.4-7.4 0-10.7-.1-.3 0-.6.2-.8 3.8-3.7 7 8.4 10.5 6.6 1.4-.7-2.3-7.5-2.8-8.6-.2-.7.7-1.4 1.3-1a19 19 0 0 1 5.4 7.4c.2.5.8.9 1.4.8 1.3-.1 2-1 1.7-2.6l-1.2-9.5c-.1-.6.1-1.1.6-1.5.8-.6 1.6-.4 2.3.7 1.6 2.4 3.3 7.2 6.6 6.9.3 0 .4-.2.4-.5l-1.2-6c0-.5.2-1 .6-1.2.9-.3 1.8.3 2.2 1.1l3 6c.8 1.4 3.2.7 3-1-.6-3-.7-6-.3-9a1.4 1.4 0 0 1 2.5-.8c2.5 2.9 3.3 7.3 4.4 10.9 0 .3.4.5.7.4 3.7-1.3 1.6-6.8 1.8-9.5 0-1.4 2-1.7 2.5-.3l2 6.4c.6 1.7 2.8-.5 2.9-1.7.2-3.5 1-6.5 2.2-9 .2-.3.5-.4.8 0 3 2.7 3 7.9 3.2 11.3 0 .9 2.2 4 2.6 2 .7-4 1.3-8 1.8-12.1.1-1 1.4-3 2-1.2a24 24 0 0 1 .4 13.3c-.3 1.3 2.2-.8 2.3-1.7.7-3.1 1.7-6 3.1-9 .5-.8 1.6-1.1 2 0a18 18 0 0 1 1 8.6c-.2 1.5 2.6 1.8 3.5 2.2 1.3.4 3.4-8.5 3.9-9.8.5-1.3 2.5-1.3 2.4.3-.1 4.6-1 9-2.5 13.4-.4 1 1.8-.6 2-1 1.6-3.1 3.2-6.2 5-9.3.7-1.4 2.6-1.7 2.8.1.4 3.6 0 7-1.4 10.3-.3.7-.1 1.2.7 1.3 4.3.9 6.6-6.8 8.4-9.8 1-1.6 2.3 1.5 2 2.6-1 2.9-1.7 5.6-2.3 8.3 0 .7.9 1.2 1.3.6l5.3-7c.7-1 2.2-.5 2.3.7.1 5-4.3 11.1-1.9 15 .2.3.7.3 1 0 1.8-2.8 6.1-10.1 8.8-11.7.9-.6 2 .4 1.7 1.4a46 46 0 0 1-5.4 10.2c-.2.3.1.7.5.6 3.8-1.6 5.8-5.5 9.2-6.9 1.2-.4 2.5 1 2 2.2l-3.3 6.7c-1 2 1.3 4.3 3.2 2.6 1.7-1.4 5.6-5.8 7.7-6 .5 0 1 .6.7 1-2.1 4-4.7 7.6-7.8 11-.5.5.3 1.4.9 1l7.3-5.3c1.6-1.1 5-1.1 3.6 1.5a57.3 57.3 0 0 1-5.2 8c-.3.4 0 1 .5 1.1 2.3.3 6.3-3.4 8.2-4.9 1.3-1 1.4 1.7 1 2.3a128 128 0 0 1-3.7 4.7c-1.3 1.6.5 4 2.3 3.1l6.7-2.8c1-.5 2.3.3 2.2 1.5-.1 4.6-8.7 6.4-8.3 10.9.1.6.8 1 1.4.8a270 270 0 0 0 11-5c1.5-.8 3 1 1.5 2.2l-8.5 6.3c-.6.5-.6 2.7.4 2a22 22 0 0 1 10-3c.5 0 .7.3.7.7 0 4.4-6.6 5-6.4 8.8 0 1.1 1.2 1.9 2.2 1.5 2.9-1 5.8-1.6 8.8-1.6.8 0 1.2 1 .5 1.5a31 31 0 0 1-9.8 4.6c-1 .3-.9 3 .2 2.7a25 25 0 0 1 10.8-.8c.6.1.9.8.6 1.3-1.6 2.9-6 4.2-10.8 5.5-.4 0-.5.5-.3.8.7.7 1.8 2.6 2.9 2.5l9.7-1c1.5-.1 2 2.2.5 2.6l-8.3 2.7c-1 .3-1 1.8.1 2 2.2.6 8 0 8.8 2.4.1.3 0 .6-.3.8-3.3 2.1-8.8 2.4-11 5.2-.5.7 0 1.9 1 2l9.1.2c.8 0 4.6 2 2.6 2.5A44.1 44.1 0 0 1 286 565c-.5 0-.6.2-.3.6 1.7 2 8.5 2.8 11.2 3.7 1.6.5 1.4 3-.3 3.2l-7.2 1c-2.2.3-2.1 3.3-.1 3.9 2.2.7 6.1.7 7.9 2.2 1 .8 0 2.3-1 2.3l-9.7-.3c-1.1 0-1.4 1.6-.4 2l7.8 3.2c1.2.5 1.1 2.2 0 2.5-4 1.2-7.9 1.1-11.8-.3-.3 0-.4 0-.4.3.5 4.9 6.3 5.8 10 7.3 1.9.7 1.7 3.2-.5 2.7l-8.8-1.5c-.4-.1-.6 0-.5.5.3 2.7 5.1 4.7 7 6.2.2.2.4.6.3 1-.9 5-9.8-1.4-12.4.4-1.2 1-1.2 1.8.2 2.7l8.9 5.6c.3.2.4.6.2.9-.7 1-1.6 1.3-2.8.8l-11.4-4.9c-.3-.1-.6.3-.4.6Z"/>
    <path fill="#FEFEFE" d="M171 576.1c0 16.4-13.7 30-30 30-16.4 0-30-13.6-30-30 0-16.3 13.6-30 30-30 16.3 0 30 13.7 30 30Zm93.5 0c0 16.4-13.7 30-30 30-16.4 0-30-13.6-30-30 0-16.3 13.6-30 30-30 16.3 0 30 13.7 30 30Z"/>
    <path fill="#020303" d="M151.3 593.9a12.1 12.1 0 1 0 0-24.2 12.1 12.1 0 0 0 0 24.2Zm92.3.1a12.1 12.1 0 1 0 0-24.3 12.1 12.1 0 0 0 0 24.2Z"/>
    <path fill="#060807" d="M919.5 821.5a309.5 309.5 0 0 1-74.1 113.7c-42 40.9-114.3 51.1-169.6 39.3A182.4 182.4 0 0 1 551 880.4l404.8-320.9c-.8 45.6-4 128.1-12.1 173.5a510.7 510.7 0 0 1-24.2 88.5Z"/>
    <path fill="#FFF0DB" stroke="#000" stroke-width="18" d="M459.2 559.4c6.7 72 17.6 166.4 51.5 242.4 17 38.1 40 72.1 71.8 96.3 31.8 24.4 71.9 38.4 122 37.3C775.2 934 830 897.6 870 832c39.8-65.1 65.4-159.4 78.8-278.7a382.7 382.7 0 0 0-52.1-232.6c-42.5-69.5-110-120.6-200-117.6-87.1 4-150.1 57.3-189.2 126.8a410 410 0 0 0-48.3 229.5Z"/>
    <path fill="#F2DAB6" d="m689.5 212.6 7.5-.5c171.8-5.8 259.3 194.5 242.9 340.2C915.7 767 852.4 896.8 741.4 922c20.1-10.6 39.6-35.4 51.2-55 21.7-36.5 31-74.3 39.7-114.2 19.9-91.3 20.8-203.4 15.8-297.3-2.7-50.5-20.3-113-51.7-155.4-26.6-36-63-73.2-107-87.5Z"/>
    <path fill="#020303" d="M597.1 493c-19.1-19-77.2-17.2-90 9.3-18 37.4 46.2 44.4 68 40.3 22.5-4.2 42.2-29.5 22-49.5ZM529 579.6c-2.5-.5-12-3.3-10.6-7.3 1.4-3.9 7.2-5.7 11.1-6.5 17-3.3 33.6-3.5 50-.8 4.7.9 18 6.6 9.2 12a24.7 24.7 0 0 1-8.5 3c-17.1 3.1-34.2 3-51.3-.4Zm319.7-16.3c5.5-.1 36.7 0 36.1 9.7-.5 9-30.1 9.4-36.1 9.2-3.4 0-43.9-1.3-36-11.7 4.8-6.3 28.4-7.4 36-7.2Zm.4-82.7c20.1-1 46.5 5.8 49.4 28.8 3.4 26.1-28.4 36-49.2 34.8-21.1.5-60.2-11.4-49.4-40 7-18.3 32.3-23.6 49.2-23.6ZM628 816.2c10.5 14.8 54 16.8 71 16.7h8.7c26.3.4 79 1.1 74.6-26.1-3.9-24.6-73.8-21.9-91.6-21.2h-.3c-12.7.5-80.3 5.7-62.5 30.6Z"/>
    <path fill="#AB8DA9" d="M821 419.7c-.2 21.7 5.5 33.3 27 35.8 17.3 1.2 34.1-3.2 32.6-22.8a204 204 0 0 0-15.6-67.6c-3-6.5-17.5-34.8-28-22.1-15.5 18.7-15.8 53.8-16 76.5v.2Zm6.3 310.1a452.5 452.5 0 0 1-6.3-76.5c0-10.7.4-28.5 5.6-37.2 8.8-15 51.7-11 54 6.9 5.5 39.8-10.8 89.6-24 126.4-2 5.3-11.6 28.4-19 16.8-5.9-9.4-8-21.8-9.7-32.9l-.2-.7-.1-1a815 815 0 0 0-.3-1.9ZM540 737.6c2.2 6.8 10.3 30 18 31.7 7.6 1.7 13-24.3 14-29.3 5.8-29.5 8.5-59.3 8.1-89.4v-3.3c0-11.6.1-31.9-11.6-35.5-14.7-4.5-49.7-9.4-48.3 15.5 2.2 37.5 8.8 74.3 19.8 110.3Zm-14.9-288c-14-15.7 7.7-79 17.6-96.5 12-21.4 24.2-11.2 29.4 7.8 4.3 15.8 17.8 84-3 91.1-12.1 4.2-33.5 7.4-44-2.4Zm158.6 400c-5 .6-12.9 1.8-17.5 5.2-10.4 7.8 9.8 13.6 15 14.3 17 2.2 34 2 51-.5 8.2-1.2 18.5-10.3 7-16a28 28 0 0 0-8.5-2.6c-15.2-2-31-2.2-47-.4Z"/>
    <path fill="#A280A0" d="M848.4 455.6c-1.6-30-8.5-64.2-20.4-95.9 2.2-6.3 5.1-12 9-16.7 10.5-12.7 25 15.6 28 22.1a204 204 0 0 1 15.6 67.6c1.5 19.5-15 24-32.2 22.9Zm-16 298.9.3-1.3c9.8-45.2 15-95.6 17.1-146.3 14.2 0 29.5 5.7 30.9 16 5.4 39.9-11 89.7-24.2 126.5-1.9 5.3-11.5 28.4-18.8 16.8a50 50 0 0 1-5.3-11.7Z"/>
    <path fill="#020303" d="M1111.3 1411h-11c.3-38 .4-63 .1-75.3-.7-29.4-2.2-58.7-3.4-88-.7-18-2.5-36.3-3.1-54.5-.3-8.7-2-24.2-5.2-46.4-1-6.8-3.1-25.1-11.5-26.7-20.4-3.8-34.4 12.9-34.2 32.4.1 9.8 1 26.5 1.8 47.4 1 26.4 1.5 53 3.3 79.3 2 27.5 2 55 4 82.5 1 16.5 1.7 32.8 2.6 49.3h-9.5c1.3-9.4-.1-20-.4-27.1-.5-14.6-1.5-28.6-1.7-43.7-.5-26-2.8-52-3-77.9-.4-36.6-3.4-73.2-4-109.9-.3-22.1 13.4-43.3 37-43.5 6.8 0 18.3 6.5 20.2 13.6 8.4 31.3 10.8 64.8 12.5 97.2 1.4 27.3 2.3 54.6 3.5 82 .9 19 1.4 41.9 1.7 68.5 0 10.6.8 27.2.3 40.8Zm-738.6 0H364c.9-18.9.7-39.2 2.5-58 2.2-24.5 1.5-49.3 3.1-73.9 1.4-20.5 1.3-42 3-63.5 1.5-20.5 2.2-41.6 2.4-62.1.2-27.5-40-51.7-44.5-15-3.4 27.5-7.3 54.7-8.6 82.3-1.3 29.4-2.7 58.6-3 88-.2 34.1-2 68-1.3 102.2h-11.4c2.7-30.5 1-61.7 2-92.3 1.4-41.5 1.1-83.2 6.1-124.4 2.7-22 4-44 8.3-65.9a27 27 0 0 1 24.8-20c12.3-.1 21.1 7.3 27.3 17.4 8 13.2 7 28.9 7 43.6.2 29.4-2 59.5-3.5 88.8-1 18.4-1.2 36.6-2.2 55-1.2 22-1 43.1-2.7 65.8-.6 8.9-.6 22.6-.6 32Z"/>
  </g>
  <defs>
    <clipPath id="a">
      <path fill="#fff" d="M0 0h1412v1411H0z"/>
    </clipPath>
  </defs>
</svg>
