<svg width="814" height="814" viewBox="0 0 814 814" fill="#FD755C" xmlns="http://www.w3.org/2000/svg">
<path d="M276.133 2.93333C267.733 4.4 262.667 9.06666 254.667 22.2667C250.8 28.6667 247.6 34.5333 247.333 35.3333C247.2 36 245.867 39.4666 244.267 42.9333C240 52.6666 235.867 66.2666 233.867 78C231.6 91.2 230.933 113.733 232.4 124.267C233.067 129.067 232.933 129.333 226.133 133.2C214.8 139.467 200.4 149.2 192.267 155.733C188 159.067 184 162.267 183.2 162.8C182.4 163.467 178.8 162.4 174.533 160.133C161.6 153.2 140.4 146.8 122.667 144.4C114.533 143.333 88.5333 143.333 82 144.4C60.2666 147.867 56 149.333 50.9333 155.333C46.9333 159.867 45.3333 164.267 45.3333 170.667C45.3333 176 49.0666 186.133 52.2666 189.467C53.2 190.533 55.6 193.467 57.3333 196C59.0666 198.533 60.9333 200.933 61.3333 201.333C61.7333 201.733 65.3333 205.867 69.3333 210.667C88.6666 233.467 115.467 257.733 138.533 273.2C160.533 287.867 168.667 291.733 204.667 305.333C212.8 308.4 220.533 311.333 222 312C224.8 313.333 246.8 321.733 248 322C248.4 322.133 249.867 322.667 251.333 323.333C252.8 323.867 257.067 325.6 260.667 326.933C264.4 328.267 268.533 329.867 270 330.533C271.467 331.2 276.267 333.067 280.667 334.667C285.067 336.267 289.867 338.133 291.333 338.8C302.8 343.733 320.533 350 326.667 351.333C332.8 352.667 334.933 352.533 339.333 350.8C347.067 347.867 351.867 342.667 354.4 334.667C354.667 333.6 355.067 294.8 355.067 248.667C355.067 174.4 354.667 153.2 352.4 143.333C352.133 141.867 351.6 139.2 351.2 137.333C350.8 135.467 349.333 128.933 347.867 122.667C346.4 116.4 344.933 110.4 344.667 109.333C344.267 107.6 341.733 100.267 335.067 82C332.4 74.6666 313.333 36.2667 306.4 24C296.267 6.4 288.133 0.799998 276.133 2.93333ZM282 42.6666C298.133 74.6666 305.6 90.1333 307.867 96.2666C310.4 103.467 310.4 104 308.267 104.133C307.067 104.133 305.067 104.4 304 104.667C302.933 104.933 300.533 105.333 298.667 105.733C296.8 106.133 292.667 107.067 289.333 108C286 108.933 282.8 109.733 282 110C281.333 110.133 279.733 110.533 278.667 110.933C266.933 114.933 262.4 116.267 261.867 115.6C260.933 114.667 260.933 97.7333 261.867 91.3333C262.4 88.4 263.067 83.8666 263.467 81.3333C265.2 69.4666 276.8 40 279.733 40C280.267 40 281.333 41.2 282 42.6666ZM119.333 175.2C132.133 176.8 153.733 183.2 157.6 186.533C158.133 186.933 155.2 191.6 151.2 196.667C147.067 201.867 143.067 206.933 142.267 208C141.333 209.067 138 214 134.667 218.933L128.667 227.867L122.8 222.267C106.4 206.4 101.333 200.933 88.5333 186C81.4666 177.6 78.8 173.733 80.8 174.933C81.4666 175.333 84.6666 175.333 88 174.8C94.9333 173.733 109.6 174 119.333 175.2Z" />
<path d="M500.933 160.8C500.8 160.933 495.333 161.467 488.666 161.867C474.666 162.933 471.733 163.333 465.333 164.533C462.8 164.933 459.2 165.6 457.333 165.867C455.466 166.267 449.2 167.733 443.333 169.333C437.466 170.933 431.733 172.4 430.666 172.667C426.133 173.733 404 182.667 394.667 187.2L384.667 192.133L384.533 261.066C384.533 298.933 384.133 332.933 383.733 336.666C381.867 352.666 369.733 368.8 353.733 376.266C346.533 379.733 343.333 380.4 334.267 380.533C328.267 380.533 321.6 380.266 319.333 379.733C315.333 378.666 278.533 364.933 268.667 360.666C265.733 359.466 262.4 358.266 261.333 358C260.267 357.733 250.133 353.866 238.933 349.466C227.733 344.933 218.267 341.333 217.867 341.333C217.467 341.333 214.933 340.4 212.267 339.2C206.133 336.533 204.133 335.733 192.933 331.466C187.733 329.466 183.067 328.4 182.133 328.933C181.067 329.6 176.533 333.333 172 337.333C167.333 341.333 162.533 345.6 161.333 346.666C133.467 370.933 87.4666 417.466 65.3333 444C62 448 58 452.666 56.2666 454.533C49.3333 462.133 47.2 468.133 47.8666 478C48.1333 482.666 54.9333 491.866 59.8666 494.133C65.8666 496.933 73.0666 497.6 78 495.733C80.2666 494.933 86.5333 491.066 92 487.333C112.8 473.066 152.8 448.666 156.667 448C157.467 447.866 159.467 446.666 161.333 445.333C167.2 441.333 199.733 426 201.733 426.4C202.267 426.533 202.667 426.133 202.667 425.466C202.667 424.8 204 423.866 205.733 423.333C207.333 422.8 209.333 422.133 210 422C210.8 421.733 216.4 419.333 222.667 416.666C228.933 413.866 236.4 411.6 239.467 411.333C249.867 410.533 261.467 418.933 263.2 428.533C263.6 430.666 264.133 432.533 264.533 432.933C266.267 434.666 256.267 456.266 252.133 460C251.333 460.666 250.533 462 245.067 471.866C243.6 474.533 241.867 477.2 241.333 478C240.8 478.666 236.933 485.866 232.667 494C228.4 502 224.533 509.2 223.867 510C223.333 510.666 221.867 514 220.533 517.333C219.2 520.666 217.333 524.8 216.133 526.533C215.067 528.266 214 530.4 213.867 531.2C213.733 532 211.733 536.8 209.333 542C203.333 555.066 198 568.533 191.067 588C183.2 610.4 183.467 609.066 183.467 616.666C183.333 624.8 185.867 629.866 192.267 635.066C196.133 638.266 198.667 639.066 204.933 639.333C215.067 639.866 220 637.2 227.6 627.2C229.333 625.066 235.733 616.533 242 608.266C253.067 593.733 257.067 588.666 261.333 584C262.4 582.8 267.2 577.333 271.867 571.866C280.667 561.866 320.133 522 330 513.333C339.6 504.8 357.733 489.866 370.133 480.266C384.933 468.933 419.2 445.333 421.067 445.333C421.867 445.333 422.667 444.8 422.933 444.266C423.333 443.2 437.466 434.533 454 425.333C508.266 394.8 576.533 369.066 639.6 355.6C655.733 352.133 659.2 352.533 664.666 358.666C668.533 362.933 668.133 372.266 664 376.666C661.066 379.733 651.333 383.6 643.6 384.666C637.2 385.6 605.6 396.266 591.6 402.266C564.666 413.866 508.8 445.066 506.933 449.6C506.666 450.133 505.866 450.666 505.066 450.666C503.6 450.666 485.333 464 476.4 471.6C474.933 472.933 470.933 476.133 467.733 478.666C457.733 486.666 427.466 517.466 417.467 529.866C404.267 546.133 389.867 568.4 380.267 586.933C375.867 595.6 372.533 602.666 372.8 602.666C373.2 602.666 372.4 604.533 371.333 606.666C366.8 615.333 358 645.866 355.467 661.333C352.8 678.133 351.867 709.2 353.733 725.466C356.533 750.933 362.4 775.2 370.133 794C374.267 803.866 376.8 806.933 383.467 810.266C394.133 815.6 407.067 811.2 414.133 799.6C434.133 767.333 454.933 749.733 499.6 727.466C507.866 723.333 515.466 720 516.4 720C517.466 720 519.066 719.066 520 718C520.933 716.933 522.4 716 523.333 716C524.266 716 528.933 714.266 533.6 712.266C538.133 710.133 544.133 707.6 546.666 706.533C554.266 703.466 594.133 683.2 600.266 679.333C603.466 677.333 611.466 672.4 618 668.266C624.666 664.266 633.6 658.266 638 655.066C642.4 652 647.466 648.266 649.333 647.066C663.466 636.8 693.866 608.666 704.133 596C706.666 592.933 709.333 589.733 710 588.8C719.866 577.733 744.4 538.666 741.733 538.666C741.066 538.666 741.333 538.133 742.266 537.6C746.266 535.066 760.266 494.666 764 474.666C768 453.866 768.4 448.666 768.4 422C768.533 394.133 768.133 389.466 764 369.2C758.666 343.333 747.6 313.2 736 293.866C732.266 287.466 722.4 271.866 721.066 270C685.333 222.533 643.866 192 591.466 174.4C584.933 172.267 578.666 170.267 577.466 170C576.266 169.733 572.933 168.933 570 168.267C567.066 167.467 562.933 166.4 560.666 166C558.533 165.6 555.2 164.933 553.333 164.533C544.4 162.667 502.266 159.733 500.933 160.8ZM404.267 620.4C413.067 634.4 430 650.933 446 661.6C460.933 671.466 485.733 682.533 497.333 684.533C499.2 684.8 501.6 685.466 502.666 685.866C503.733 686.266 506.666 686.8 509.066 687.2C515.2 688 515.466 688.666 510.4 690.666C495.733 696.533 456 717.2 448.666 722.933C448 723.466 442.8 727.333 437.333 731.333C424.666 740.8 402.667 762 402.667 764.8C402.667 765.2 401.867 766.266 401.067 767.2C400.133 768.266 398.4 770.266 397.333 771.866C393.733 777.066 393.733 776.933 388.267 754.533C382.933 732.666 382 724.533 382.133 699.333C382.133 687.6 382.667 674.933 383.2 671.333C384.933 659.866 389.333 641.333 391.467 636.266C392.533 633.6 393.467 631.066 393.333 630.666C393.2 629.2 399.067 614.666 399.867 614.666C400.267 614.666 402.267 617.2 404.267 620.4Z" />
</svg>
