<svg fill="currentColor" height="200" viewBox="0 0 200 200" width="200" xmlns="http://www.w3.org/2000/svg"><path d="m183 106.54c-.3 8.64-2 17.2-5 25.3-5.1 14-14 24.8-21.82 32.01-5.9 5.5-17.1 12.77-27.65 16.05-12.04 3.74-22.5 4.9-35.3 3.4-19.23-2.7-36.84-12.1-49.2-27.4-9.5-11.7-13.7-22.3-16.1-36.9-1.83-11.23-.2-27 5.9-39.38 6.12-12.54 14.16-22.55 27.7-30.34 15.56-8.94 36.44-11.9 56.8-2.8 9.3 4.2 16.6 10.76 22.57 18.9 4.9 7.44 13.3 12.35 22.83 12.35 15.1 0 27.3-12.26 27.3-27.4 0-8.05-3.54-15.1-8.9-20.24-9.8-9.35-21.37-16.8-32.8-21.73-13.36-5.85-28.4-8.4-43.1-8.4-14 0-32.2 3.65-49.96 14.1-12.8 7.5-25.2 19.1-32.9 31.6-7.73 12.5-11.86 23.1-14.4 38.4-1.85 11.2-1.83 34.4 8.5 54.5 10.3 21.33 25.93 34.6 46.67 43.86 10.74 4.8 27.26 8.24 45.43 5.63 5.8-.83 12.37-2.4 19-4.97 10.74-4.14 20.9-10.86 27.65-17.36 9.5-9.14 16.96-19.9 21.95-33.7 2.96-8.2 4.56-16.8 4.86-25.5z"/></svg>
